%TF.GenerationSoftware,KiCad,Pcbnew,9.0.6*%
%TF.CreationDate,2026-01-09T18:10:27+03:00*%
%TF.ProjectId,Regs-v6,52656773-2d76-4362-9e6b-696361645f70,rev?*%
%TF.SameCoordinates,Original*%
%TF.FileFunction,Legend,Bot*%
%TF.FilePolarity,Positive*%
%FSLAX46Y46*%
G04 Gerber Fmt 4.6, Leading zero omitted, Abs format (unit mm)*
G04 Created by KiCad (PCBNEW 9.0.6) date 2026-01-09 18:10:27*
%MOMM*%
%LPD*%
G01*
G04 APERTURE LIST*
%ADD10C,0.150000*%
%ADD11C,0.120000*%
G04 APERTURE END LIST*
D10*
X43822857Y-103642438D02*
X43918095Y-103594819D01*
X43918095Y-103594819D02*
X44060952Y-103594819D01*
X44060952Y-103594819D02*
X44203809Y-103642438D01*
X44203809Y-103642438D02*
X44299047Y-103737676D01*
X44299047Y-103737676D02*
X44346666Y-103832914D01*
X44346666Y-103832914D02*
X44394285Y-104023390D01*
X44394285Y-104023390D02*
X44394285Y-104166247D01*
X44394285Y-104166247D02*
X44346666Y-104356723D01*
X44346666Y-104356723D02*
X44299047Y-104451961D01*
X44299047Y-104451961D02*
X44203809Y-104547200D01*
X44203809Y-104547200D02*
X44060952Y-104594819D01*
X44060952Y-104594819D02*
X43965714Y-104594819D01*
X43965714Y-104594819D02*
X43822857Y-104547200D01*
X43822857Y-104547200D02*
X43775238Y-104499580D01*
X43775238Y-104499580D02*
X43775238Y-104166247D01*
X43775238Y-104166247D02*
X43965714Y-104166247D01*
X43346666Y-103928152D02*
X43346666Y-104594819D01*
X43346666Y-104023390D02*
X43299047Y-103975771D01*
X43299047Y-103975771D02*
X43203809Y-103928152D01*
X43203809Y-103928152D02*
X43060952Y-103928152D01*
X43060952Y-103928152D02*
X42965714Y-103975771D01*
X42965714Y-103975771D02*
X42918095Y-104071009D01*
X42918095Y-104071009D02*
X42918095Y-104594819D01*
X42013333Y-104594819D02*
X42013333Y-103594819D01*
X42013333Y-104547200D02*
X42108571Y-104594819D01*
X42108571Y-104594819D02*
X42299047Y-104594819D01*
X42299047Y-104594819D02*
X42394285Y-104547200D01*
X42394285Y-104547200D02*
X42441904Y-104499580D01*
X42441904Y-104499580D02*
X42489523Y-104404342D01*
X42489523Y-104404342D02*
X42489523Y-104118628D01*
X42489523Y-104118628D02*
X42441904Y-104023390D01*
X42441904Y-104023390D02*
X42394285Y-103975771D01*
X42394285Y-103975771D02*
X42299047Y-103928152D01*
X42299047Y-103928152D02*
X42108571Y-103928152D01*
X42108571Y-103928152D02*
X42013333Y-103975771D01*
X31670475Y-103594819D02*
X31337142Y-104594819D01*
X31337142Y-104594819D02*
X31003809Y-103594819D01*
X30241904Y-104547200D02*
X30337142Y-104594819D01*
X30337142Y-104594819D02*
X30527618Y-104594819D01*
X30527618Y-104594819D02*
X30622856Y-104547200D01*
X30622856Y-104547200D02*
X30670475Y-104499580D01*
X30670475Y-104499580D02*
X30718094Y-104404342D01*
X30718094Y-104404342D02*
X30718094Y-104118628D01*
X30718094Y-104118628D02*
X30670475Y-104023390D01*
X30670475Y-104023390D02*
X30622856Y-103975771D01*
X30622856Y-103975771D02*
X30527618Y-103928152D01*
X30527618Y-103928152D02*
X30337142Y-103928152D01*
X30337142Y-103928152D02*
X30241904Y-103975771D01*
X29384761Y-104547200D02*
X29479999Y-104594819D01*
X29479999Y-104594819D02*
X29670475Y-104594819D01*
X29670475Y-104594819D02*
X29765713Y-104547200D01*
X29765713Y-104547200D02*
X29813332Y-104499580D01*
X29813332Y-104499580D02*
X29860951Y-104404342D01*
X29860951Y-104404342D02*
X29860951Y-104118628D01*
X29860951Y-104118628D02*
X29813332Y-104023390D01*
X29813332Y-104023390D02*
X29765713Y-103975771D01*
X29765713Y-103975771D02*
X29670475Y-103928152D01*
X29670475Y-103928152D02*
X29479999Y-103928152D01*
X29479999Y-103928152D02*
X29384761Y-103975771D01*
X75384819Y-95718333D02*
X74908628Y-95385000D01*
X75384819Y-95146905D02*
X74384819Y-95146905D01*
X74384819Y-95146905D02*
X74384819Y-95527857D01*
X74384819Y-95527857D02*
X74432438Y-95623095D01*
X74432438Y-95623095D02*
X74480057Y-95670714D01*
X74480057Y-95670714D02*
X74575295Y-95718333D01*
X74575295Y-95718333D02*
X74718152Y-95718333D01*
X74718152Y-95718333D02*
X74813390Y-95670714D01*
X74813390Y-95670714D02*
X74861009Y-95623095D01*
X74861009Y-95623095D02*
X74908628Y-95527857D01*
X74908628Y-95527857D02*
X74908628Y-95146905D01*
X74384819Y-96623095D02*
X74384819Y-96146905D01*
X74384819Y-96146905D02*
X74861009Y-96099286D01*
X74861009Y-96099286D02*
X74813390Y-96146905D01*
X74813390Y-96146905D02*
X74765771Y-96242143D01*
X74765771Y-96242143D02*
X74765771Y-96480238D01*
X74765771Y-96480238D02*
X74813390Y-96575476D01*
X74813390Y-96575476D02*
X74861009Y-96623095D01*
X74861009Y-96623095D02*
X74956247Y-96670714D01*
X74956247Y-96670714D02*
X75194342Y-96670714D01*
X75194342Y-96670714D02*
X75289580Y-96623095D01*
X75289580Y-96623095D02*
X75337200Y-96575476D01*
X75337200Y-96575476D02*
X75384819Y-96480238D01*
X75384819Y-96480238D02*
X75384819Y-96242143D01*
X75384819Y-96242143D02*
X75337200Y-96146905D01*
X75337200Y-96146905D02*
X75289580Y-96099286D01*
X105576666Y-93419819D02*
X105909999Y-92943628D01*
X106148094Y-93419819D02*
X106148094Y-92419819D01*
X106148094Y-92419819D02*
X105767142Y-92419819D01*
X105767142Y-92419819D02*
X105671904Y-92467438D01*
X105671904Y-92467438D02*
X105624285Y-92515057D01*
X105624285Y-92515057D02*
X105576666Y-92610295D01*
X105576666Y-92610295D02*
X105576666Y-92753152D01*
X105576666Y-92753152D02*
X105624285Y-92848390D01*
X105624285Y-92848390D02*
X105671904Y-92896009D01*
X105671904Y-92896009D02*
X105767142Y-92943628D01*
X105767142Y-92943628D02*
X106148094Y-92943628D01*
X104719523Y-92419819D02*
X104909999Y-92419819D01*
X104909999Y-92419819D02*
X105005237Y-92467438D01*
X105005237Y-92467438D02*
X105052856Y-92515057D01*
X105052856Y-92515057D02*
X105148094Y-92657914D01*
X105148094Y-92657914D02*
X105195713Y-92848390D01*
X105195713Y-92848390D02*
X105195713Y-93229342D01*
X105195713Y-93229342D02*
X105148094Y-93324580D01*
X105148094Y-93324580D02*
X105100475Y-93372200D01*
X105100475Y-93372200D02*
X105005237Y-93419819D01*
X105005237Y-93419819D02*
X104814761Y-93419819D01*
X104814761Y-93419819D02*
X104719523Y-93372200D01*
X104719523Y-93372200D02*
X104671904Y-93324580D01*
X104671904Y-93324580D02*
X104624285Y-93229342D01*
X104624285Y-93229342D02*
X104624285Y-92991247D01*
X104624285Y-92991247D02*
X104671904Y-92896009D01*
X104671904Y-92896009D02*
X104719523Y-92848390D01*
X104719523Y-92848390D02*
X104814761Y-92800771D01*
X104814761Y-92800771D02*
X105005237Y-92800771D01*
X105005237Y-92800771D02*
X105100475Y-92848390D01*
X105100475Y-92848390D02*
X105148094Y-92896009D01*
X105148094Y-92896009D02*
X105195713Y-92991247D01*
X43539580Y-63968333D02*
X43587200Y-63920714D01*
X43587200Y-63920714D02*
X43634819Y-63777857D01*
X43634819Y-63777857D02*
X43634819Y-63682619D01*
X43634819Y-63682619D02*
X43587200Y-63539762D01*
X43587200Y-63539762D02*
X43491961Y-63444524D01*
X43491961Y-63444524D02*
X43396723Y-63396905D01*
X43396723Y-63396905D02*
X43206247Y-63349286D01*
X43206247Y-63349286D02*
X43063390Y-63349286D01*
X43063390Y-63349286D02*
X42872914Y-63396905D01*
X42872914Y-63396905D02*
X42777676Y-63444524D01*
X42777676Y-63444524D02*
X42682438Y-63539762D01*
X42682438Y-63539762D02*
X42634819Y-63682619D01*
X42634819Y-63682619D02*
X42634819Y-63777857D01*
X42634819Y-63777857D02*
X42682438Y-63920714D01*
X42682438Y-63920714D02*
X42730057Y-63968333D01*
X43634819Y-64920714D02*
X43634819Y-64349286D01*
X43634819Y-64635000D02*
X42634819Y-64635000D01*
X42634819Y-64635000D02*
X42777676Y-64539762D01*
X42777676Y-64539762D02*
X42872914Y-64444524D01*
X42872914Y-64444524D02*
X42920533Y-64349286D01*
X132439580Y-63968333D02*
X132487200Y-63920714D01*
X132487200Y-63920714D02*
X132534819Y-63777857D01*
X132534819Y-63777857D02*
X132534819Y-63682619D01*
X132534819Y-63682619D02*
X132487200Y-63539762D01*
X132487200Y-63539762D02*
X132391961Y-63444524D01*
X132391961Y-63444524D02*
X132296723Y-63396905D01*
X132296723Y-63396905D02*
X132106247Y-63349286D01*
X132106247Y-63349286D02*
X131963390Y-63349286D01*
X131963390Y-63349286D02*
X131772914Y-63396905D01*
X131772914Y-63396905D02*
X131677676Y-63444524D01*
X131677676Y-63444524D02*
X131582438Y-63539762D01*
X131582438Y-63539762D02*
X131534819Y-63682619D01*
X131534819Y-63682619D02*
X131534819Y-63777857D01*
X131534819Y-63777857D02*
X131582438Y-63920714D01*
X131582438Y-63920714D02*
X131630057Y-63968333D01*
X131630057Y-64349286D02*
X131582438Y-64396905D01*
X131582438Y-64396905D02*
X131534819Y-64492143D01*
X131534819Y-64492143D02*
X131534819Y-64730238D01*
X131534819Y-64730238D02*
X131582438Y-64825476D01*
X131582438Y-64825476D02*
X131630057Y-64873095D01*
X131630057Y-64873095D02*
X131725295Y-64920714D01*
X131725295Y-64920714D02*
X131820533Y-64920714D01*
X131820533Y-64920714D02*
X131963390Y-64873095D01*
X131963390Y-64873095D02*
X132534819Y-64301667D01*
X132534819Y-64301667D02*
X132534819Y-64920714D01*
X51794580Y-100480833D02*
X51842200Y-100433214D01*
X51842200Y-100433214D02*
X51889819Y-100290357D01*
X51889819Y-100290357D02*
X51889819Y-100195119D01*
X51889819Y-100195119D02*
X51842200Y-100052262D01*
X51842200Y-100052262D02*
X51746961Y-99957024D01*
X51746961Y-99957024D02*
X51651723Y-99909405D01*
X51651723Y-99909405D02*
X51461247Y-99861786D01*
X51461247Y-99861786D02*
X51318390Y-99861786D01*
X51318390Y-99861786D02*
X51127914Y-99909405D01*
X51127914Y-99909405D02*
X51032676Y-99957024D01*
X51032676Y-99957024D02*
X50937438Y-100052262D01*
X50937438Y-100052262D02*
X50889819Y-100195119D01*
X50889819Y-100195119D02*
X50889819Y-100290357D01*
X50889819Y-100290357D02*
X50937438Y-100433214D01*
X50937438Y-100433214D02*
X50985057Y-100480833D01*
X50889819Y-100814167D02*
X50889819Y-101433214D01*
X50889819Y-101433214D02*
X51270771Y-101099881D01*
X51270771Y-101099881D02*
X51270771Y-101242738D01*
X51270771Y-101242738D02*
X51318390Y-101337976D01*
X51318390Y-101337976D02*
X51366009Y-101385595D01*
X51366009Y-101385595D02*
X51461247Y-101433214D01*
X51461247Y-101433214D02*
X51699342Y-101433214D01*
X51699342Y-101433214D02*
X51794580Y-101385595D01*
X51794580Y-101385595D02*
X51842200Y-101337976D01*
X51842200Y-101337976D02*
X51889819Y-101242738D01*
X51889819Y-101242738D02*
X51889819Y-100957024D01*
X51889819Y-100957024D02*
X51842200Y-100861786D01*
X51842200Y-100861786D02*
X51794580Y-100814167D01*
X105134580Y-100480833D02*
X105182200Y-100433214D01*
X105182200Y-100433214D02*
X105229819Y-100290357D01*
X105229819Y-100290357D02*
X105229819Y-100195119D01*
X105229819Y-100195119D02*
X105182200Y-100052262D01*
X105182200Y-100052262D02*
X105086961Y-99957024D01*
X105086961Y-99957024D02*
X104991723Y-99909405D01*
X104991723Y-99909405D02*
X104801247Y-99861786D01*
X104801247Y-99861786D02*
X104658390Y-99861786D01*
X104658390Y-99861786D02*
X104467914Y-99909405D01*
X104467914Y-99909405D02*
X104372676Y-99957024D01*
X104372676Y-99957024D02*
X104277438Y-100052262D01*
X104277438Y-100052262D02*
X104229819Y-100195119D01*
X104229819Y-100195119D02*
X104229819Y-100290357D01*
X104229819Y-100290357D02*
X104277438Y-100433214D01*
X104277438Y-100433214D02*
X104325057Y-100480833D01*
X104563152Y-101337976D02*
X105229819Y-101337976D01*
X104182200Y-101099881D02*
X104896485Y-100861786D01*
X104896485Y-100861786D02*
X104896485Y-101480833D01*
X32340057Y-98647261D02*
X32292438Y-98552023D01*
X32292438Y-98552023D02*
X32197200Y-98456785D01*
X32197200Y-98456785D02*
X32054342Y-98313928D01*
X32054342Y-98313928D02*
X32006723Y-98218690D01*
X32006723Y-98218690D02*
X32006723Y-98123452D01*
X32244819Y-98171071D02*
X32197200Y-98075833D01*
X32197200Y-98075833D02*
X32101961Y-97980595D01*
X32101961Y-97980595D02*
X31911485Y-97932976D01*
X31911485Y-97932976D02*
X31578152Y-97932976D01*
X31578152Y-97932976D02*
X31387676Y-97980595D01*
X31387676Y-97980595D02*
X31292438Y-98075833D01*
X31292438Y-98075833D02*
X31244819Y-98171071D01*
X31244819Y-98171071D02*
X31244819Y-98361547D01*
X31244819Y-98361547D02*
X31292438Y-98456785D01*
X31292438Y-98456785D02*
X31387676Y-98552023D01*
X31387676Y-98552023D02*
X31578152Y-98599642D01*
X31578152Y-98599642D02*
X31911485Y-98599642D01*
X31911485Y-98599642D02*
X32101961Y-98552023D01*
X32101961Y-98552023D02*
X32197200Y-98456785D01*
X32197200Y-98456785D02*
X32244819Y-98361547D01*
X32244819Y-98361547D02*
X32244819Y-98171071D01*
X32244819Y-99552023D02*
X32244819Y-98980595D01*
X32244819Y-99266309D02*
X31244819Y-99266309D01*
X31244819Y-99266309D02*
X31387676Y-99171071D01*
X31387676Y-99171071D02*
X31482914Y-99075833D01*
X31482914Y-99075833D02*
X31530533Y-98980595D01*
X120499166Y-101674819D02*
X120832499Y-101198628D01*
X121070594Y-101674819D02*
X121070594Y-100674819D01*
X121070594Y-100674819D02*
X120689642Y-100674819D01*
X120689642Y-100674819D02*
X120594404Y-100722438D01*
X120594404Y-100722438D02*
X120546785Y-100770057D01*
X120546785Y-100770057D02*
X120499166Y-100865295D01*
X120499166Y-100865295D02*
X120499166Y-101008152D01*
X120499166Y-101008152D02*
X120546785Y-101103390D01*
X120546785Y-101103390D02*
X120594404Y-101151009D01*
X120594404Y-101151009D02*
X120689642Y-101198628D01*
X120689642Y-101198628D02*
X121070594Y-101198628D01*
X120165832Y-100674819D02*
X119499166Y-100674819D01*
X119499166Y-100674819D02*
X119927737Y-101674819D01*
X141303333Y-64454819D02*
X141303333Y-65169104D01*
X141303333Y-65169104D02*
X141350952Y-65311961D01*
X141350952Y-65311961D02*
X141446190Y-65407200D01*
X141446190Y-65407200D02*
X141589047Y-65454819D01*
X141589047Y-65454819D02*
X141684285Y-65454819D01*
X140303333Y-65454819D02*
X140874761Y-65454819D01*
X140589047Y-65454819D02*
X140589047Y-64454819D01*
X140589047Y-64454819D02*
X140684285Y-64597676D01*
X140684285Y-64597676D02*
X140779523Y-64692914D01*
X140779523Y-64692914D02*
X140874761Y-64740533D01*
X123523333Y-64454819D02*
X123523333Y-65169104D01*
X123523333Y-65169104D02*
X123570952Y-65311961D01*
X123570952Y-65311961D02*
X123666190Y-65407200D01*
X123666190Y-65407200D02*
X123809047Y-65454819D01*
X123809047Y-65454819D02*
X123904285Y-65454819D01*
X123094761Y-64550057D02*
X123047142Y-64502438D01*
X123047142Y-64502438D02*
X122951904Y-64454819D01*
X122951904Y-64454819D02*
X122713809Y-64454819D01*
X122713809Y-64454819D02*
X122618571Y-64502438D01*
X122618571Y-64502438D02*
X122570952Y-64550057D01*
X122570952Y-64550057D02*
X122523333Y-64645295D01*
X122523333Y-64645295D02*
X122523333Y-64740533D01*
X122523333Y-64740533D02*
X122570952Y-64883390D01*
X122570952Y-64883390D02*
X123142380Y-65454819D01*
X123142380Y-65454819D02*
X122523333Y-65454819D01*
X105743333Y-64454819D02*
X105743333Y-65169104D01*
X105743333Y-65169104D02*
X105790952Y-65311961D01*
X105790952Y-65311961D02*
X105886190Y-65407200D01*
X105886190Y-65407200D02*
X106029047Y-65454819D01*
X106029047Y-65454819D02*
X106124285Y-65454819D01*
X105362380Y-64454819D02*
X104743333Y-64454819D01*
X104743333Y-64454819D02*
X105076666Y-64835771D01*
X105076666Y-64835771D02*
X104933809Y-64835771D01*
X104933809Y-64835771D02*
X104838571Y-64883390D01*
X104838571Y-64883390D02*
X104790952Y-64931009D01*
X104790952Y-64931009D02*
X104743333Y-65026247D01*
X104743333Y-65026247D02*
X104743333Y-65264342D01*
X104743333Y-65264342D02*
X104790952Y-65359580D01*
X104790952Y-65359580D02*
X104838571Y-65407200D01*
X104838571Y-65407200D02*
X104933809Y-65454819D01*
X104933809Y-65454819D02*
X105219523Y-65454819D01*
X105219523Y-65454819D02*
X105314761Y-65407200D01*
X105314761Y-65407200D02*
X105362380Y-65359580D01*
X87963333Y-64454819D02*
X87963333Y-65169104D01*
X87963333Y-65169104D02*
X88010952Y-65311961D01*
X88010952Y-65311961D02*
X88106190Y-65407200D01*
X88106190Y-65407200D02*
X88249047Y-65454819D01*
X88249047Y-65454819D02*
X88344285Y-65454819D01*
X87058571Y-64788152D02*
X87058571Y-65454819D01*
X87296666Y-64407200D02*
X87534761Y-65121485D01*
X87534761Y-65121485D02*
X86915714Y-65121485D01*
X70183333Y-64454819D02*
X70183333Y-65169104D01*
X70183333Y-65169104D02*
X70230952Y-65311961D01*
X70230952Y-65311961D02*
X70326190Y-65407200D01*
X70326190Y-65407200D02*
X70469047Y-65454819D01*
X70469047Y-65454819D02*
X70564285Y-65454819D01*
X69230952Y-64454819D02*
X69707142Y-64454819D01*
X69707142Y-64454819D02*
X69754761Y-64931009D01*
X69754761Y-64931009D02*
X69707142Y-64883390D01*
X69707142Y-64883390D02*
X69611904Y-64835771D01*
X69611904Y-64835771D02*
X69373809Y-64835771D01*
X69373809Y-64835771D02*
X69278571Y-64883390D01*
X69278571Y-64883390D02*
X69230952Y-64931009D01*
X69230952Y-64931009D02*
X69183333Y-65026247D01*
X69183333Y-65026247D02*
X69183333Y-65264342D01*
X69183333Y-65264342D02*
X69230952Y-65359580D01*
X69230952Y-65359580D02*
X69278571Y-65407200D01*
X69278571Y-65407200D02*
X69373809Y-65454819D01*
X69373809Y-65454819D02*
X69611904Y-65454819D01*
X69611904Y-65454819D02*
X69707142Y-65407200D01*
X69707142Y-65407200D02*
X69754761Y-65359580D01*
X52403333Y-64454819D02*
X52403333Y-65169104D01*
X52403333Y-65169104D02*
X52450952Y-65311961D01*
X52450952Y-65311961D02*
X52546190Y-65407200D01*
X52546190Y-65407200D02*
X52689047Y-65454819D01*
X52689047Y-65454819D02*
X52784285Y-65454819D01*
X51498571Y-64454819D02*
X51689047Y-64454819D01*
X51689047Y-64454819D02*
X51784285Y-64502438D01*
X51784285Y-64502438D02*
X51831904Y-64550057D01*
X51831904Y-64550057D02*
X51927142Y-64692914D01*
X51927142Y-64692914D02*
X51974761Y-64883390D01*
X51974761Y-64883390D02*
X51974761Y-65264342D01*
X51974761Y-65264342D02*
X51927142Y-65359580D01*
X51927142Y-65359580D02*
X51879523Y-65407200D01*
X51879523Y-65407200D02*
X51784285Y-65454819D01*
X51784285Y-65454819D02*
X51593809Y-65454819D01*
X51593809Y-65454819D02*
X51498571Y-65407200D01*
X51498571Y-65407200D02*
X51450952Y-65359580D01*
X51450952Y-65359580D02*
X51403333Y-65264342D01*
X51403333Y-65264342D02*
X51403333Y-65026247D01*
X51403333Y-65026247D02*
X51450952Y-64931009D01*
X51450952Y-64931009D02*
X51498571Y-64883390D01*
X51498571Y-64883390D02*
X51593809Y-64835771D01*
X51593809Y-64835771D02*
X51784285Y-64835771D01*
X51784285Y-64835771D02*
X51879523Y-64883390D01*
X51879523Y-64883390D02*
X51927142Y-64931009D01*
X51927142Y-64931009D02*
X51974761Y-65026247D01*
X34623333Y-64454819D02*
X34623333Y-65169104D01*
X34623333Y-65169104D02*
X34670952Y-65311961D01*
X34670952Y-65311961D02*
X34766190Y-65407200D01*
X34766190Y-65407200D02*
X34909047Y-65454819D01*
X34909047Y-65454819D02*
X35004285Y-65454819D01*
X34242380Y-64454819D02*
X33575714Y-64454819D01*
X33575714Y-64454819D02*
X34004285Y-65454819D01*
X16843333Y-64454819D02*
X16843333Y-65169104D01*
X16843333Y-65169104D02*
X16890952Y-65311961D01*
X16890952Y-65311961D02*
X16986190Y-65407200D01*
X16986190Y-65407200D02*
X17129047Y-65454819D01*
X17129047Y-65454819D02*
X17224285Y-65454819D01*
X16224285Y-64883390D02*
X16319523Y-64835771D01*
X16319523Y-64835771D02*
X16367142Y-64788152D01*
X16367142Y-64788152D02*
X16414761Y-64692914D01*
X16414761Y-64692914D02*
X16414761Y-64645295D01*
X16414761Y-64645295D02*
X16367142Y-64550057D01*
X16367142Y-64550057D02*
X16319523Y-64502438D01*
X16319523Y-64502438D02*
X16224285Y-64454819D01*
X16224285Y-64454819D02*
X16033809Y-64454819D01*
X16033809Y-64454819D02*
X15938571Y-64502438D01*
X15938571Y-64502438D02*
X15890952Y-64550057D01*
X15890952Y-64550057D02*
X15843333Y-64645295D01*
X15843333Y-64645295D02*
X15843333Y-64692914D01*
X15843333Y-64692914D02*
X15890952Y-64788152D01*
X15890952Y-64788152D02*
X15938571Y-64835771D01*
X15938571Y-64835771D02*
X16033809Y-64883390D01*
X16033809Y-64883390D02*
X16224285Y-64883390D01*
X16224285Y-64883390D02*
X16319523Y-64931009D01*
X16319523Y-64931009D02*
X16367142Y-64978628D01*
X16367142Y-64978628D02*
X16414761Y-65073866D01*
X16414761Y-65073866D02*
X16414761Y-65264342D01*
X16414761Y-65264342D02*
X16367142Y-65359580D01*
X16367142Y-65359580D02*
X16319523Y-65407200D01*
X16319523Y-65407200D02*
X16224285Y-65454819D01*
X16224285Y-65454819D02*
X16033809Y-65454819D01*
X16033809Y-65454819D02*
X15938571Y-65407200D01*
X15938571Y-65407200D02*
X15890952Y-65359580D01*
X15890952Y-65359580D02*
X15843333Y-65264342D01*
X15843333Y-65264342D02*
X15843333Y-65073866D01*
X15843333Y-65073866D02*
X15890952Y-64978628D01*
X15890952Y-64978628D02*
X15938571Y-64931009D01*
X15938571Y-64931009D02*
X16033809Y-64883390D01*
X89701666Y-96594819D02*
X90034999Y-96118628D01*
X90273094Y-96594819D02*
X90273094Y-95594819D01*
X90273094Y-95594819D02*
X89892142Y-95594819D01*
X89892142Y-95594819D02*
X89796904Y-95642438D01*
X89796904Y-95642438D02*
X89749285Y-95690057D01*
X89749285Y-95690057D02*
X89701666Y-95785295D01*
X89701666Y-95785295D02*
X89701666Y-95928152D01*
X89701666Y-95928152D02*
X89749285Y-96023390D01*
X89749285Y-96023390D02*
X89796904Y-96071009D01*
X89796904Y-96071009D02*
X89892142Y-96118628D01*
X89892142Y-96118628D02*
X90273094Y-96118628D01*
X88749285Y-96594819D02*
X89320713Y-96594819D01*
X89034999Y-96594819D02*
X89034999Y-95594819D01*
X89034999Y-95594819D02*
X89130237Y-95737676D01*
X89130237Y-95737676D02*
X89225475Y-95832914D01*
X89225475Y-95832914D02*
X89320713Y-95880533D01*
X98499819Y-98893333D02*
X98023628Y-98560000D01*
X98499819Y-98321905D02*
X97499819Y-98321905D01*
X97499819Y-98321905D02*
X97499819Y-98702857D01*
X97499819Y-98702857D02*
X97547438Y-98798095D01*
X97547438Y-98798095D02*
X97595057Y-98845714D01*
X97595057Y-98845714D02*
X97690295Y-98893333D01*
X97690295Y-98893333D02*
X97833152Y-98893333D01*
X97833152Y-98893333D02*
X97928390Y-98845714D01*
X97928390Y-98845714D02*
X97976009Y-98798095D01*
X97976009Y-98798095D02*
X98023628Y-98702857D01*
X98023628Y-98702857D02*
X98023628Y-98321905D01*
X97595057Y-99274286D02*
X97547438Y-99321905D01*
X97547438Y-99321905D02*
X97499819Y-99417143D01*
X97499819Y-99417143D02*
X97499819Y-99655238D01*
X97499819Y-99655238D02*
X97547438Y-99750476D01*
X97547438Y-99750476D02*
X97595057Y-99798095D01*
X97595057Y-99798095D02*
X97690295Y-99845714D01*
X97690295Y-99845714D02*
X97785533Y-99845714D01*
X97785533Y-99845714D02*
X97928390Y-99798095D01*
X97928390Y-99798095D02*
X98499819Y-99226667D01*
X98499819Y-99226667D02*
X98499819Y-99845714D01*
D11*
%TO.C,R5*%
X74195000Y-99287064D02*
X74195000Y-98832936D01*
X75665000Y-99287064D02*
X75665000Y-98832936D01*
%TO.C,R6*%
X105637064Y-93880000D02*
X105182936Y-93880000D01*
X105637064Y-95350000D02*
X105182936Y-95350000D01*
%TO.C,C1*%
X42445000Y-60698748D02*
X42445000Y-61221252D01*
X43915000Y-60698748D02*
X43915000Y-61221252D01*
%TO.C,C2*%
X131345000Y-60698748D02*
X131345000Y-61221252D01*
X132815000Y-60698748D02*
X132815000Y-61221252D01*
%TO.C,C3*%
X48795000Y-100386248D02*
X48795000Y-100908752D01*
X50265000Y-100386248D02*
X50265000Y-100908752D01*
%TO.C,C4*%
X102135000Y-100703748D02*
X102135000Y-101226252D01*
X103605000Y-100703748D02*
X103605000Y-101226252D01*
%TO.C,Q1*%
X32710000Y-99502500D02*
X32710000Y-97342500D01*
X32710000Y-99502500D02*
X33640000Y-99502500D01*
X35870000Y-99502500D02*
X34940000Y-99502500D01*
X35870000Y-99502500D02*
X35870000Y-98042500D01*
%TO.C,R7*%
X120559564Y-102135000D02*
X120105436Y-102135000D01*
X120559564Y-103605000D02*
X120105436Y-103605000D01*
%TO.C,J1*%
X139640000Y-25340000D02*
X142300000Y-25340000D01*
X139640000Y-60960000D02*
X139640000Y-25340000D01*
X139640000Y-60960000D02*
X142300000Y-60960000D01*
X140970000Y-63560000D02*
X142300000Y-63560000D01*
X142300000Y-60960000D02*
X142300000Y-25340000D01*
X142300000Y-63560000D02*
X142300000Y-62230000D01*
%TO.C,J2*%
X121860000Y-25340000D02*
X124520000Y-25340000D01*
X121860000Y-60960000D02*
X121860000Y-25340000D01*
X121860000Y-60960000D02*
X124520000Y-60960000D01*
X123190000Y-63560000D02*
X124520000Y-63560000D01*
X124520000Y-60960000D02*
X124520000Y-25340000D01*
X124520000Y-63560000D02*
X124520000Y-62230000D01*
%TO.C,J3*%
X104080000Y-25340000D02*
X106740000Y-25340000D01*
X104080000Y-60960000D02*
X104080000Y-25340000D01*
X104080000Y-60960000D02*
X106740000Y-60960000D01*
X105410000Y-63560000D02*
X106740000Y-63560000D01*
X106740000Y-60960000D02*
X106740000Y-25340000D01*
X106740000Y-63560000D02*
X106740000Y-62230000D01*
%TO.C,J4*%
X86300000Y-25340000D02*
X88960000Y-25340000D01*
X86300000Y-60960000D02*
X86300000Y-25340000D01*
X86300000Y-60960000D02*
X88960000Y-60960000D01*
X87630000Y-63560000D02*
X88960000Y-63560000D01*
X88960000Y-60960000D02*
X88960000Y-25340000D01*
X88960000Y-63560000D02*
X88960000Y-62230000D01*
%TO.C,J5*%
X68520000Y-25340000D02*
X71180000Y-25340000D01*
X68520000Y-60960000D02*
X68520000Y-25340000D01*
X68520000Y-60960000D02*
X71180000Y-60960000D01*
X69850000Y-63560000D02*
X71180000Y-63560000D01*
X71180000Y-60960000D02*
X71180000Y-25340000D01*
X71180000Y-63560000D02*
X71180000Y-62230000D01*
%TO.C,J6*%
X50740000Y-25340000D02*
X53400000Y-25340000D01*
X50740000Y-60960000D02*
X50740000Y-25340000D01*
X50740000Y-60960000D02*
X53400000Y-60960000D01*
X52070000Y-63560000D02*
X53400000Y-63560000D01*
X53400000Y-60960000D02*
X53400000Y-25340000D01*
X53400000Y-63560000D02*
X53400000Y-62230000D01*
%TO.C,J7*%
X32960000Y-25340000D02*
X35620000Y-25340000D01*
X32960000Y-60960000D02*
X32960000Y-25340000D01*
X32960000Y-60960000D02*
X35620000Y-60960000D01*
X34290000Y-63560000D02*
X35620000Y-63560000D01*
X35620000Y-60960000D02*
X35620000Y-25340000D01*
X35620000Y-63560000D02*
X35620000Y-62230000D01*
%TO.C,J8*%
X15180000Y-25340000D02*
X17840000Y-25340000D01*
X15180000Y-60960000D02*
X15180000Y-25340000D01*
X15180000Y-60960000D02*
X17840000Y-60960000D01*
X16510000Y-63560000D02*
X17840000Y-63560000D01*
X17840000Y-60960000D02*
X17840000Y-25340000D01*
X17840000Y-63560000D02*
X17840000Y-62230000D01*
%TO.C,R1*%
X89762064Y-97055000D02*
X89307936Y-97055000D01*
X89762064Y-98525000D02*
X89307936Y-98525000D01*
%TO.C,R2*%
X98960000Y-98832936D02*
X98960000Y-99287064D01*
X100430000Y-98832936D02*
X100430000Y-99287064D01*
%TD*%
M02*
