%TF.GenerationSoftware,KiCad,Pcbnew,9.0.6*%
%TF.CreationDate,2026-03-19T21:38:10+03:00*%
%TF.ProjectId,Regs-v6,52656773-2d76-4362-9e6b-696361645f70,rev?*%
%TF.SameCoordinates,Original*%
%TF.FileFunction,Soldermask,Bot*%
%TF.FilePolarity,Negative*%
%FSLAX46Y46*%
G04 Gerber Fmt 4.6, Leading zero omitted, Abs format (unit mm)*
G04 Created by KiCad (PCBNEW 9.0.6) date 2026-03-19 21:38:10*
%MOMM*%
%LPD*%
G01*
G04 APERTURE LIST*
G04 Aperture macros list*
%AMRoundRect*
0 Rectangle with rounded corners*
0 $1 Rounding radius*
0 $2 $3 $4 $5 $6 $7 $8 $9 X,Y pos of 4 corners*
0 Add a 4 corners polygon primitive as box body*
4,1,4,$2,$3,$4,$5,$6,$7,$8,$9,$2,$3,0*
0 Add four circle primitives for the rounded corners*
1,1,$1+$1,$2,$3*
1,1,$1+$1,$4,$5*
1,1,$1+$1,$6,$7*
1,1,$1+$1,$8,$9*
0 Add four rect primitives between the rounded corners*
20,1,$1+$1,$2,$3,$4,$5,0*
20,1,$1+$1,$4,$5,$6,$7,0*
20,1,$1+$1,$6,$7,$8,$9,0*
20,1,$1+$1,$8,$9,$2,$3,0*%
G04 Aperture macros list end*
%ADD10O,2.000000X1.500000*%
%ADD11C,3.200000*%
%ADD12R,2.200000X2.000000*%
%ADD13O,2.200000X2.000000*%
%ADD14R,1.700000X1.700000*%
%ADD15R,1.800000X1.600000*%
%ADD16R,1.500000X2.000000*%
%ADD17O,1.500000X1.800000*%
%ADD18R,2.600000X2.600000*%
%ADD19C,2.600000*%
%ADD20R,2.200000X2.100000*%
%ADD21O,2.200000X2.100000*%
%ADD22O,1.900000X1.900000*%
%ADD23O,1.900000X1.500000*%
%ADD24R,1.500000X1.800000*%
%ADD25R,1.800000X1.800000*%
%ADD26C,1.800000*%
%ADD27RoundRect,0.249999X0.450001X-0.350001X0.450001X0.350001X-0.450001X0.350001X-0.450001X-0.350001X0*%
%ADD28RoundRect,0.250000X-0.475000X0.337500X-0.475000X-0.337500X0.475000X-0.337500X0.475000X0.337500X0*%
%ADD29RoundRect,0.250000X0.475000X-0.337500X0.475000X0.337500X-0.475000X0.337500X-0.475000X-0.337500X0*%
%ADD30R,0.800000X0.900000*%
%ADD31RoundRect,0.250000X-0.350000X-0.450000X0.350000X-0.450000X0.350000X0.450000X-0.350000X0.450000X0*%
%ADD32R,2.000000X1.500000*%
%ADD33O,2.000000X1.200000*%
G04 APERTURE END LIST*
D10*
%TO.C,U3*%
X116840000Y-96520000D03*
X116840000Y-93980000D03*
X116840000Y-91440000D03*
X116840000Y-88900000D03*
X116840000Y-86360000D03*
X116840000Y-83820000D03*
X116840000Y-81280000D03*
X116840000Y-78740000D03*
X116840000Y-73660000D03*
X116840000Y-68580000D03*
X116840000Y-66040000D03*
X116840000Y-60960000D03*
X116840000Y-58420000D03*
X116840000Y-55880000D03*
X116840000Y-53340000D03*
X116840000Y-50800000D03*
X116840000Y-48260000D03*
X116840000Y-45720000D03*
X116840000Y-43180000D03*
X116840000Y-35560000D03*
X116840000Y-33020000D03*
X116840000Y-30480000D03*
%TD*%
%TO.C,U5*%
X81280000Y-96520000D03*
X81280000Y-93980000D03*
X81280000Y-91440000D03*
X81280000Y-88900000D03*
X81280000Y-86360000D03*
X81280000Y-83820000D03*
X81280000Y-81280000D03*
X81280000Y-78740000D03*
X81280000Y-73660000D03*
X81280000Y-68580000D03*
X81280000Y-66040000D03*
X81280000Y-60960000D03*
X81280000Y-58420000D03*
X81280000Y-55880000D03*
X81280000Y-53340000D03*
X81280000Y-50800000D03*
X81280000Y-48260000D03*
X81280000Y-45720000D03*
X81280000Y-43180000D03*
X81280000Y-35560000D03*
X81280000Y-33020000D03*
X81280000Y-30480000D03*
%TD*%
%TO.C,U7*%
X45720000Y-96520000D03*
X45720000Y-93980000D03*
X45720000Y-91440000D03*
X45720000Y-88900000D03*
X45720000Y-86360000D03*
X45720000Y-83820000D03*
X45720000Y-81280000D03*
X45720000Y-78740000D03*
X45720000Y-73660000D03*
X45720000Y-68580000D03*
X45720000Y-66040000D03*
X45720000Y-60960000D03*
X45720000Y-58420000D03*
X45720000Y-55880000D03*
X45720000Y-53340000D03*
X45720000Y-50800000D03*
X45720000Y-48260000D03*
X45720000Y-45720000D03*
X45720000Y-43180000D03*
X45720000Y-35560000D03*
X45720000Y-33020000D03*
X45720000Y-30480000D03*
%TD*%
%TO.C,U4*%
X99060000Y-96520000D03*
X99060000Y-93980000D03*
X99060000Y-91440000D03*
X99060000Y-88900000D03*
X99060000Y-86360000D03*
X99060000Y-83820000D03*
X99060000Y-81280000D03*
X99060000Y-78740000D03*
X99060000Y-73660000D03*
X99060000Y-68580000D03*
X99060000Y-66040000D03*
X99060000Y-60960000D03*
X99060000Y-58420000D03*
X99060000Y-55880000D03*
X99060000Y-53340000D03*
X99060000Y-50800000D03*
X99060000Y-48260000D03*
X99060000Y-45720000D03*
X99060000Y-43180000D03*
X99060000Y-35560000D03*
X99060000Y-33020000D03*
X99060000Y-30480000D03*
%TD*%
%TO.C,U6*%
X63500000Y-96520000D03*
X63500000Y-93980000D03*
X63500000Y-91440000D03*
X63500000Y-88900000D03*
X63500000Y-86360000D03*
X63500000Y-83820000D03*
X63500000Y-81280000D03*
X63500000Y-78740000D03*
X63500000Y-73660000D03*
X63500000Y-68580000D03*
X63500000Y-66040000D03*
X63500000Y-60960000D03*
X63500000Y-58420000D03*
X63500000Y-55880000D03*
X63500000Y-53340000D03*
X63500000Y-50800000D03*
X63500000Y-48260000D03*
X63500000Y-45720000D03*
X63500000Y-43180000D03*
X63500000Y-35560000D03*
X63500000Y-33020000D03*
X63500000Y-30480000D03*
%TD*%
%TO.C,U8*%
X27940000Y-96520000D03*
X27940000Y-93980000D03*
X27940000Y-91440000D03*
X27940000Y-88900000D03*
X27940000Y-86360000D03*
X27940000Y-83820000D03*
X27940000Y-81280000D03*
X27940000Y-78740000D03*
X27940000Y-73660000D03*
X27940000Y-68580000D03*
X27940000Y-66040000D03*
X27940000Y-60960000D03*
X27940000Y-58420000D03*
X27940000Y-55880000D03*
X27940000Y-53340000D03*
X27940000Y-50800000D03*
X27940000Y-48260000D03*
X27940000Y-45720000D03*
X27940000Y-43180000D03*
X27940000Y-35560000D03*
X27940000Y-33020000D03*
X27940000Y-30480000D03*
%TD*%
%TO.C,U1*%
X152400000Y-96520000D03*
X152400000Y-93980000D03*
X152400000Y-91440000D03*
X152400000Y-88900000D03*
X152400000Y-86360000D03*
X152400000Y-83820000D03*
X152400000Y-81280000D03*
X152400000Y-78740000D03*
X152400000Y-73660000D03*
X152400000Y-68580000D03*
X152400000Y-66040000D03*
X152400000Y-60960000D03*
X152400000Y-58420000D03*
X152400000Y-55880000D03*
X152400000Y-53340000D03*
X152400000Y-50800000D03*
X152400000Y-48260000D03*
X152400000Y-45720000D03*
X152400000Y-43180000D03*
X152400000Y-35560000D03*
X152400000Y-33020000D03*
X152400000Y-30480000D03*
%TD*%
D11*
%TO.C,H1*%
X22860000Y-17780000D03*
%TD*%
%TO.C,H3*%
X22860000Y-106680000D03*
%TD*%
%TO.C,H5*%
X92710000Y-17780000D03*
%TD*%
%TO.C,H2*%
X92710000Y-106680000D03*
%TD*%
%TO.C,H4*%
X162560000Y-17780000D03*
%TD*%
%TO.C,H6*%
X162560000Y-106680000D03*
%TD*%
D12*
%TO.C,J11*%
X140335000Y-109855000D03*
D13*
X140335000Y-107315000D03*
X140335000Y-104775000D03*
%TD*%
D14*
%TO.C,J13*%
X90170000Y-73660000D03*
%TD*%
D15*
%TO.C,J14*%
X59690000Y-109855000D03*
%TD*%
D14*
%TO.C,J15*%
X83185000Y-102235000D03*
%TD*%
D16*
%TO.C,U14*%
X78740000Y-102245000D03*
D17*
X76200000Y-102245000D03*
X73660000Y-102245000D03*
X71120000Y-102245000D03*
X68580000Y-102245000D03*
X66040000Y-102245000D03*
X63500000Y-102245000D03*
X63500000Y-109865000D03*
X66040000Y-109865000D03*
X68580000Y-109865000D03*
X71120000Y-109865000D03*
X73660000Y-109865000D03*
X76200000Y-109865000D03*
X78740000Y-109865000D03*
%TD*%
D18*
%TO.C,J16*%
X33020000Y-106680000D03*
D19*
X38020000Y-106680000D03*
%TD*%
D20*
%TO.C,J17*%
X170815000Y-82550000D03*
D21*
X170815000Y-85090000D03*
X170815000Y-87630000D03*
X170815000Y-90170000D03*
X170815000Y-92710000D03*
X170815000Y-95250000D03*
X170815000Y-97790000D03*
X170815000Y-100330000D03*
X170815000Y-102870000D03*
%TD*%
D20*
%TO.C,J18*%
X170815000Y-57150000D03*
D21*
X170815000Y-59690000D03*
X170815000Y-62230000D03*
X170815000Y-64770000D03*
X170815000Y-67310000D03*
X170815000Y-69850000D03*
X170815000Y-72390000D03*
X170815000Y-74930000D03*
X170815000Y-77470000D03*
%TD*%
D14*
%TO.C,J19*%
X36830000Y-73660000D03*
%TD*%
D10*
%TO.C,U9*%
X147320000Y-96520000D03*
X147320000Y-93980000D03*
X147320000Y-91440000D03*
X147320000Y-88900000D03*
X147320000Y-86360000D03*
X147320000Y-83820000D03*
X147320000Y-81280000D03*
X147320000Y-78740000D03*
X147320000Y-73660000D03*
X147320000Y-68580000D03*
X147320000Y-66040000D03*
X147320000Y-60960000D03*
X147320000Y-58420000D03*
X147320000Y-55880000D03*
X147320000Y-53340000D03*
X147320000Y-50800000D03*
X147320000Y-48260000D03*
X147320000Y-45720000D03*
X147320000Y-43180000D03*
X147320000Y-35560000D03*
X147320000Y-33020000D03*
X147320000Y-30480000D03*
%TD*%
%TO.C,U10*%
X129540000Y-96520000D03*
X129540000Y-93980000D03*
X129540000Y-91440000D03*
X129540000Y-88900000D03*
X129540000Y-86360000D03*
X129540000Y-83820000D03*
X129540000Y-81280000D03*
X129540000Y-78740000D03*
X129540000Y-73660000D03*
X129540000Y-68580000D03*
X129540000Y-66040000D03*
X129540000Y-60960000D03*
X129540000Y-58420000D03*
X129540000Y-55880000D03*
X129540000Y-53340000D03*
X129540000Y-50800000D03*
X129540000Y-48260000D03*
X129540000Y-45720000D03*
X129540000Y-43180000D03*
X129540000Y-35560000D03*
X129540000Y-33020000D03*
X129540000Y-30480000D03*
%TD*%
%TO.C,U11*%
X111760000Y-96520000D03*
X111760000Y-93980000D03*
X111760000Y-91440000D03*
X111760000Y-88900000D03*
X111760000Y-86360000D03*
X111760000Y-83820000D03*
X111760000Y-81280000D03*
X111760000Y-78740000D03*
X111760000Y-73660000D03*
X111760000Y-68580000D03*
X111760000Y-66040000D03*
X111760000Y-60960000D03*
X111760000Y-58420000D03*
X111760000Y-55880000D03*
X111760000Y-53340000D03*
X111760000Y-50800000D03*
X111760000Y-48260000D03*
X111760000Y-45720000D03*
X111760000Y-43180000D03*
X111760000Y-35560000D03*
X111760000Y-33020000D03*
X111760000Y-30480000D03*
%TD*%
%TO.C,U12*%
X93980000Y-96520000D03*
X93980000Y-93980000D03*
X93980000Y-91440000D03*
X93980000Y-88900000D03*
X93980000Y-86360000D03*
X93980000Y-83820000D03*
X93980000Y-81280000D03*
X93980000Y-78740000D03*
X93980000Y-73660000D03*
X93980000Y-68580000D03*
X93980000Y-66040000D03*
X93980000Y-60960000D03*
X93980000Y-58420000D03*
X93980000Y-55880000D03*
X93980000Y-53340000D03*
X93980000Y-50800000D03*
X93980000Y-48260000D03*
X93980000Y-45720000D03*
X93980000Y-43180000D03*
X93980000Y-35560000D03*
X93980000Y-33020000D03*
X93980000Y-30480000D03*
%TD*%
%TO.C,U16*%
X76200000Y-96520000D03*
X76200000Y-93980000D03*
X76200000Y-91440000D03*
X76200000Y-88900000D03*
X76200000Y-86360000D03*
X76200000Y-83820000D03*
X76200000Y-81280000D03*
X76200000Y-78740000D03*
X76200000Y-73660000D03*
X76200000Y-68580000D03*
X76200000Y-66040000D03*
X76200000Y-60960000D03*
X76200000Y-58420000D03*
X76200000Y-55880000D03*
X76200000Y-53340000D03*
X76200000Y-50800000D03*
X76200000Y-48260000D03*
X76200000Y-45720000D03*
X76200000Y-43180000D03*
X76200000Y-35560000D03*
X76200000Y-33020000D03*
X76200000Y-30480000D03*
%TD*%
%TO.C,U17*%
X58420000Y-96520000D03*
X58420000Y-93980000D03*
X58420000Y-91440000D03*
X58420000Y-88900000D03*
X58420000Y-86360000D03*
X58420000Y-83820000D03*
X58420000Y-81280000D03*
X58420000Y-78740000D03*
X58420000Y-73660000D03*
X58420000Y-68580000D03*
X58420000Y-66040000D03*
X58420000Y-60960000D03*
X58420000Y-58420000D03*
X58420000Y-55880000D03*
X58420000Y-53340000D03*
X58420000Y-50800000D03*
X58420000Y-48260000D03*
X58420000Y-45720000D03*
X58420000Y-43180000D03*
X58420000Y-35560000D03*
X58420000Y-33020000D03*
X58420000Y-30480000D03*
%TD*%
%TO.C,U18*%
X40640000Y-96520000D03*
X40640000Y-93980000D03*
X40640000Y-91440000D03*
X40640000Y-88900000D03*
X40640000Y-86360000D03*
X40640000Y-83820000D03*
X40640000Y-81280000D03*
X40640000Y-78740000D03*
X40640000Y-73660000D03*
X40640000Y-68580000D03*
X40640000Y-66040000D03*
X40640000Y-60960000D03*
X40640000Y-58420000D03*
X40640000Y-55880000D03*
X40640000Y-53340000D03*
X40640000Y-50800000D03*
X40640000Y-48260000D03*
X40640000Y-45720000D03*
X40640000Y-43180000D03*
X40640000Y-35560000D03*
X40640000Y-33020000D03*
X40640000Y-30480000D03*
%TD*%
%TO.C,U19*%
X22860000Y-96520000D03*
X22860000Y-93980000D03*
X22860000Y-91440000D03*
X22860000Y-88900000D03*
X22860000Y-86360000D03*
X22860000Y-83820000D03*
X22860000Y-81280000D03*
X22860000Y-78740000D03*
X22860000Y-73660000D03*
X22860000Y-68580000D03*
X22860000Y-66040000D03*
X22860000Y-60960000D03*
X22860000Y-58420000D03*
X22860000Y-55880000D03*
X22860000Y-53340000D03*
X22860000Y-50800000D03*
X22860000Y-48260000D03*
X22860000Y-45720000D03*
X22860000Y-43180000D03*
X22860000Y-35560000D03*
X22860000Y-33020000D03*
X22860000Y-30480000D03*
%TD*%
%TO.C,U2*%
X134620000Y-96520000D03*
X134620000Y-93980000D03*
X134620000Y-91440000D03*
X134620000Y-88900000D03*
X134620000Y-86360000D03*
X134620000Y-83820000D03*
X134620000Y-81280000D03*
X134620000Y-78740000D03*
X134620000Y-73660000D03*
X134620000Y-68580000D03*
X134620000Y-66040000D03*
X134620000Y-60960000D03*
X134620000Y-58420000D03*
X134620000Y-55880000D03*
X134620000Y-53340000D03*
X134620000Y-50800000D03*
X134620000Y-48260000D03*
X134620000Y-45720000D03*
X134620000Y-43180000D03*
X134620000Y-35560000D03*
X134620000Y-33020000D03*
X134620000Y-30480000D03*
%TD*%
D22*
%TO.C,U15*%
X162560000Y-100330000D03*
X162560000Y-97790000D03*
X162560000Y-95250000D03*
D23*
X162560000Y-92710000D03*
X162560000Y-90170000D03*
X162560000Y-87630000D03*
X162560000Y-85090000D03*
D22*
X162560000Y-82550000D03*
X162560000Y-77470000D03*
X162560000Y-74930000D03*
X162560000Y-72390000D03*
X162560000Y-69850000D03*
X162560000Y-67310000D03*
X162560000Y-64770000D03*
X162560000Y-62230000D03*
X162560000Y-59690000D03*
X162560000Y-54610000D03*
X162560000Y-52070000D03*
X162560000Y-49530000D03*
X162560000Y-46990000D03*
X162560000Y-44450000D03*
X162560000Y-41910000D03*
X162560000Y-39370000D03*
X162560000Y-36830000D03*
X162560000Y-31750000D03*
X162560000Y-29210000D03*
X162560000Y-26670000D03*
X162560000Y-24130000D03*
%TD*%
D24*
%TO.C,U13*%
X134620000Y-102235000D03*
D17*
X132080000Y-102235000D03*
X129540000Y-102235000D03*
X127000000Y-102235000D03*
X124460000Y-102235000D03*
X121920000Y-102235000D03*
X119380000Y-102235000D03*
X116840000Y-102235000D03*
X116840000Y-109855000D03*
X119380000Y-109855000D03*
X121920000Y-109855000D03*
X124460000Y-109855000D03*
X127000000Y-109855000D03*
X129540000Y-109855000D03*
X132080000Y-109855000D03*
X134620000Y-109855000D03*
%TD*%
D14*
%TO.C,J20*%
X54610000Y-73660000D03*
%TD*%
D25*
%TO.C,J12*%
X82550000Y-109855000D03*
%TD*%
%TO.C,D1*%
X49530000Y-108585000D03*
D26*
X46990000Y-108585000D03*
%TD*%
D15*
%TO.C,J9*%
X86995000Y-102235000D03*
%TD*%
D14*
%TO.C,J10*%
X143510000Y-73660000D03*
%TD*%
%TO.C,J21*%
X107950000Y-73660000D03*
%TD*%
%TO.C,J22*%
X31115000Y-73660000D03*
%TD*%
%TO.C,J23*%
X125730000Y-73660000D03*
%TD*%
%TO.C,J24*%
X72390000Y-73660000D03*
%TD*%
D27*
%TO.C,R5*%
X85090000Y-109585000D03*
X85090000Y-107585000D03*
%TD*%
D28*
%TO.C,C1*%
X43180000Y-66272500D03*
X43180000Y-68347500D03*
%TD*%
%TO.C,C2*%
X132080000Y-66272500D03*
X132080000Y-68347500D03*
%TD*%
D29*
%TO.C,C3*%
X116840000Y-107485000D03*
X116840000Y-105410000D03*
%TD*%
%TO.C,C4*%
X67310000Y-106680000D03*
X67310000Y-104605000D03*
%TD*%
D30*
%TO.C,Q1*%
X34610000Y-101505000D03*
X36510000Y-101505000D03*
X35560000Y-103505000D03*
%TD*%
D31*
%TO.C,R1*%
X53880000Y-109855000D03*
X55880000Y-109855000D03*
%TD*%
D32*
%TO.C,J2*%
X123190000Y-77470000D03*
D10*
X123190000Y-74930000D03*
X123190000Y-72390000D03*
X123190000Y-69850000D03*
X123190000Y-67310000D03*
X123190000Y-64770000D03*
X123190000Y-62230000D03*
X123190000Y-59690000D03*
X123190000Y-57150000D03*
X123190000Y-54610000D03*
X123190000Y-52070000D03*
X123190000Y-49530000D03*
X123190000Y-46990000D03*
X123190000Y-44450000D03*
X123190000Y-41910000D03*
X123190000Y-39370000D03*
X123190000Y-36830000D03*
X123190000Y-34290000D03*
X123190000Y-31750000D03*
X123190000Y-29210000D03*
X123190000Y-26670000D03*
X123190000Y-24130000D03*
%TD*%
D32*
%TO.C,J6*%
X52070000Y-77470000D03*
D10*
X52070000Y-74930000D03*
X52070000Y-72390000D03*
X52070000Y-69850000D03*
X52070000Y-67310000D03*
X52070000Y-64770000D03*
X52070000Y-62230000D03*
X52070000Y-59690000D03*
X52070000Y-57150000D03*
X52070000Y-54610000D03*
X52070000Y-52070000D03*
X52070000Y-49530000D03*
X52070000Y-46990000D03*
X52070000Y-44450000D03*
X52070000Y-41910000D03*
X52070000Y-39370000D03*
X52070000Y-36830000D03*
X52070000Y-34290000D03*
X52070000Y-31750000D03*
X52070000Y-29210000D03*
X52070000Y-26670000D03*
X52070000Y-24130000D03*
%TD*%
D28*
%TO.C,C9*%
X96520000Y-66251000D03*
X96520000Y-68326000D03*
%TD*%
D32*
%TO.C,J5*%
X69850000Y-77470000D03*
D10*
X69850000Y-74930000D03*
X69850000Y-72390000D03*
X69850000Y-69850000D03*
X69850000Y-67310000D03*
X69850000Y-64770000D03*
X69850000Y-62230000D03*
X69850000Y-59690000D03*
X69850000Y-57150000D03*
X69850000Y-54610000D03*
X69850000Y-52070000D03*
X69850000Y-49530000D03*
X69850000Y-46990000D03*
X69850000Y-44450000D03*
X69850000Y-41910000D03*
X69850000Y-39370000D03*
X69850000Y-36830000D03*
X69850000Y-34290000D03*
X69850000Y-31750000D03*
X69850000Y-29210000D03*
X69850000Y-26670000D03*
X69850000Y-24130000D03*
%TD*%
D28*
%TO.C,C7*%
X149860000Y-66294000D03*
X149860000Y-68369000D03*
%TD*%
D32*
%TO.C,J7*%
X34290000Y-77470000D03*
D10*
X34290000Y-74930000D03*
X34290000Y-72390000D03*
X34290000Y-69850000D03*
X34290000Y-67310000D03*
X34290000Y-64770000D03*
X34290000Y-62230000D03*
X34290000Y-59690000D03*
X34290000Y-57150000D03*
X34290000Y-54610000D03*
X34290000Y-52070000D03*
X34290000Y-49530000D03*
X34290000Y-46990000D03*
X34290000Y-44450000D03*
X34290000Y-41910000D03*
X34290000Y-39370000D03*
X34290000Y-36830000D03*
X34290000Y-34290000D03*
X34290000Y-31750000D03*
X34290000Y-29210000D03*
X34290000Y-26670000D03*
X34290000Y-24130000D03*
%TD*%
D32*
%TO.C,J8*%
X16510000Y-77470000D03*
D10*
X16510000Y-74930000D03*
X16510000Y-72390000D03*
X16510000Y-69850000D03*
X16510000Y-67310000D03*
X16510000Y-64770000D03*
X16510000Y-62230000D03*
X16510000Y-59690000D03*
X16510000Y-57150000D03*
X16510000Y-54610000D03*
X16510000Y-52070000D03*
X16510000Y-49530000D03*
X16510000Y-46990000D03*
X16510000Y-44450000D03*
X16510000Y-41910000D03*
X16510000Y-39370000D03*
X16510000Y-36830000D03*
X16510000Y-34290000D03*
X16510000Y-31750000D03*
X16510000Y-29210000D03*
X16510000Y-26670000D03*
X16510000Y-24130000D03*
%TD*%
D28*
%TO.C,C5*%
X25400000Y-66294000D03*
X25400000Y-68369000D03*
%TD*%
D32*
%TO.C,J4*%
X87630000Y-77450000D03*
D10*
X87630000Y-74910000D03*
X87630000Y-72370000D03*
X87630000Y-69830000D03*
X87630000Y-67290000D03*
X87630000Y-64750000D03*
X87630000Y-62210000D03*
X87630000Y-59670000D03*
X87630000Y-57130000D03*
X87630000Y-54590000D03*
X87630000Y-52050000D03*
X87630000Y-49510000D03*
X87630000Y-46970000D03*
X87630000Y-44430000D03*
X87630000Y-41890000D03*
X87630000Y-39350000D03*
X87630000Y-36810000D03*
X87630000Y-34270000D03*
X87630000Y-31730000D03*
X87630000Y-29190000D03*
X87630000Y-26650000D03*
X87630000Y-24110000D03*
%TD*%
D28*
%TO.C,C8*%
X114300000Y-66251000D03*
X114300000Y-68326000D03*
%TD*%
D32*
%TO.C,J3*%
X105410000Y-77470000D03*
D10*
X105410000Y-74930000D03*
X105410000Y-72390000D03*
X105410000Y-69850000D03*
X105410000Y-67310000D03*
X105410000Y-64770000D03*
X105410000Y-62230000D03*
X105410000Y-59690000D03*
X105410000Y-57150000D03*
X105410000Y-54610000D03*
X105410000Y-52070000D03*
X105410000Y-49530000D03*
X105410000Y-46990000D03*
X105410000Y-44450000D03*
X105410000Y-41910000D03*
X105410000Y-39370000D03*
X105410000Y-36830000D03*
X105410000Y-34290000D03*
D33*
X105410000Y-31750000D03*
D10*
X105410000Y-29210000D03*
X105410000Y-26670000D03*
X105410000Y-24130000D03*
%TD*%
D32*
%TO.C,J1*%
X140970000Y-77470000D03*
D10*
X140970000Y-74930000D03*
X140970000Y-72390000D03*
X140970000Y-69850000D03*
X140970000Y-67310000D03*
X140970000Y-64770000D03*
X140970000Y-62230000D03*
X140970000Y-59690000D03*
X140970000Y-57150000D03*
X140970000Y-54610000D03*
X140970000Y-52070000D03*
X140970000Y-49530000D03*
X140970000Y-46990000D03*
X140970000Y-44450000D03*
X140970000Y-41910000D03*
X140970000Y-39370000D03*
X140970000Y-36830000D03*
X140970000Y-34290000D03*
X140970000Y-31750000D03*
X140970000Y-29210000D03*
X140970000Y-26670000D03*
X140970000Y-24130000D03*
%TD*%
D28*
%TO.C,C6*%
X60960000Y-66294000D03*
X60960000Y-68369000D03*
%TD*%
%TO.C,C10*%
X78740000Y-66294000D03*
X78740000Y-68369000D03*
%TD*%
M02*
