%TF.GenerationSoftware,KiCad,Pcbnew,9.0.6*%
%TF.CreationDate,2026-03-19T21:38:09+03:00*%
%TF.ProjectId,Regs-v6,52656773-2d76-4362-9e6b-696361645f70,rev?*%
%TF.SameCoordinates,Original*%
%TF.FileFunction,Legend,Top*%
%TF.FilePolarity,Positive*%
%FSLAX46Y46*%
G04 Gerber Fmt 4.6, Leading zero omitted, Abs format (unit mm)*
G04 Created by KiCad (PCBNEW 9.0.6) date 2026-03-19 21:38:09*
%MOMM*%
%LPD*%
G01*
G04 APERTURE LIST*
%ADD10C,0.120000*%
%ADD11C,0.300000*%
%ADD12C,0.250000*%
%ADD13C,0.150000*%
%ADD14C,0.500000*%
G04 APERTURE END LIST*
D10*
X57150000Y-25400000D02*
X57150000Y-27940000D01*
X74930000Y-25400000D02*
X74930000Y-27940000D01*
X110490000Y-25400000D02*
X110490000Y-27940000D01*
X39370000Y-25400000D02*
X39370000Y-27940000D01*
X39370000Y-25400000D02*
X32385000Y-25400000D01*
X74930000Y-25400000D02*
X67945000Y-25400000D01*
X92710000Y-25400000D02*
X92710000Y-27940000D01*
X92710000Y-25400000D02*
X99695000Y-25400000D01*
X57150000Y-25400000D02*
X64135000Y-25400000D01*
X146050000Y-25400000D02*
X146050000Y-27940000D01*
X128270000Y-25400000D02*
X135255000Y-25400000D01*
X128270000Y-25400000D02*
X128270000Y-27940000D01*
X146050000Y-25400000D02*
X139065000Y-25400000D01*
X110490000Y-25400000D02*
X103505000Y-25400000D01*
X21590000Y-25400000D02*
X21590000Y-27940000D01*
X21590000Y-25400000D02*
X28575000Y-25400000D01*
D11*
X131604285Y-17593328D02*
X132604285Y-17593328D01*
X132604285Y-17593328D02*
X131961428Y-19093328D01*
X133818571Y-18093328D02*
X133818571Y-19093328D01*
X133461428Y-17521900D02*
X133104285Y-18593328D01*
X133104285Y-18593328D02*
X134032856Y-18593328D01*
X134604284Y-19093328D02*
X134604284Y-17593328D01*
X134604284Y-18307614D02*
X135461427Y-18307614D01*
X135461427Y-19093328D02*
X135461427Y-17593328D01*
X137032856Y-18950471D02*
X136961428Y-19021900D01*
X136961428Y-19021900D02*
X136747142Y-19093328D01*
X136747142Y-19093328D02*
X136604285Y-19093328D01*
X136604285Y-19093328D02*
X136389999Y-19021900D01*
X136389999Y-19021900D02*
X136247142Y-18879042D01*
X136247142Y-18879042D02*
X136175713Y-18736185D01*
X136175713Y-18736185D02*
X136104285Y-18450471D01*
X136104285Y-18450471D02*
X136104285Y-18236185D01*
X136104285Y-18236185D02*
X136175713Y-17950471D01*
X136175713Y-17950471D02*
X136247142Y-17807614D01*
X136247142Y-17807614D02*
X136389999Y-17664757D01*
X136389999Y-17664757D02*
X136604285Y-17593328D01*
X136604285Y-17593328D02*
X136747142Y-17593328D01*
X136747142Y-17593328D02*
X136961428Y-17664757D01*
X136961428Y-17664757D02*
X137032856Y-17736185D01*
X137675713Y-19093328D02*
X137675713Y-17593328D01*
X137675713Y-17593328D02*
X138247142Y-17593328D01*
X138247142Y-17593328D02*
X138389999Y-17664757D01*
X138389999Y-17664757D02*
X138461428Y-17736185D01*
X138461428Y-17736185D02*
X138532856Y-17879042D01*
X138532856Y-17879042D02*
X138532856Y-18093328D01*
X138532856Y-18093328D02*
X138461428Y-18236185D01*
X138461428Y-18236185D02*
X138389999Y-18307614D01*
X138389999Y-18307614D02*
X138247142Y-18379042D01*
X138247142Y-18379042D02*
X137675713Y-18379042D01*
X139175713Y-17593328D02*
X139175713Y-18807614D01*
X139175713Y-18807614D02*
X139247142Y-18950471D01*
X139247142Y-18950471D02*
X139318571Y-19021900D01*
X139318571Y-19021900D02*
X139461428Y-19093328D01*
X139461428Y-19093328D02*
X139747142Y-19093328D01*
X139747142Y-19093328D02*
X139889999Y-19021900D01*
X139889999Y-19021900D02*
X139961428Y-18950471D01*
X139961428Y-18950471D02*
X140032856Y-18807614D01*
X140032856Y-18807614D02*
X140032856Y-17593328D01*
D12*
X76295119Y-107132761D02*
X76104642Y-107132761D01*
X76104642Y-107132761D02*
X75914166Y-107037523D01*
X75914166Y-107037523D02*
X75818928Y-106942285D01*
X75818928Y-106942285D02*
X75723690Y-106751809D01*
X75723690Y-106751809D02*
X75628452Y-106370857D01*
X75628452Y-106370857D02*
X75628452Y-105894666D01*
X75628452Y-105894666D02*
X75723690Y-105513714D01*
X75723690Y-105513714D02*
X75818928Y-105323238D01*
X75818928Y-105323238D02*
X75914166Y-105228000D01*
X75914166Y-105228000D02*
X76104642Y-105132761D01*
X76104642Y-105132761D02*
X76295119Y-105132761D01*
X76295119Y-105132761D02*
X76485595Y-105228000D01*
X76485595Y-105228000D02*
X76580833Y-105323238D01*
X76580833Y-105323238D02*
X76676071Y-105513714D01*
X76676071Y-105513714D02*
X76771309Y-105894666D01*
X76771309Y-105894666D02*
X76771309Y-106370857D01*
X76771309Y-106370857D02*
X76676071Y-106751809D01*
X76676071Y-106751809D02*
X76580833Y-106942285D01*
X76580833Y-106942285D02*
X76485595Y-107037523D01*
X76485595Y-107037523D02*
X76295119Y-107132761D01*
X74390357Y-107132761D02*
X74199880Y-107132761D01*
X74199880Y-107132761D02*
X74009404Y-107037523D01*
X74009404Y-107037523D02*
X73914166Y-106942285D01*
X73914166Y-106942285D02*
X73818928Y-106751809D01*
X73818928Y-106751809D02*
X73723690Y-106370857D01*
X73723690Y-106370857D02*
X73723690Y-105894666D01*
X73723690Y-105894666D02*
X73818928Y-105513714D01*
X73818928Y-105513714D02*
X73914166Y-105323238D01*
X73914166Y-105323238D02*
X74009404Y-105228000D01*
X74009404Y-105228000D02*
X74199880Y-105132761D01*
X74199880Y-105132761D02*
X74390357Y-105132761D01*
X74390357Y-105132761D02*
X74580833Y-105228000D01*
X74580833Y-105228000D02*
X74676071Y-105323238D01*
X74676071Y-105323238D02*
X74771309Y-105513714D01*
X74771309Y-105513714D02*
X74866547Y-105894666D01*
X74866547Y-105894666D02*
X74866547Y-106370857D01*
X74866547Y-106370857D02*
X74771309Y-106751809D01*
X74771309Y-106751809D02*
X74676071Y-106942285D01*
X74676071Y-106942285D02*
X74580833Y-107037523D01*
X74580833Y-107037523D02*
X74390357Y-107132761D01*
D11*
X32659638Y-94948333D02*
X31707257Y-95615000D01*
X32659638Y-96091190D02*
X30659638Y-96091190D01*
X30659638Y-96091190D02*
X30659638Y-95329285D01*
X30659638Y-95329285D02*
X30754876Y-95138809D01*
X30754876Y-95138809D02*
X30850114Y-95043571D01*
X30850114Y-95043571D02*
X31040590Y-94948333D01*
X31040590Y-94948333D02*
X31326304Y-94948333D01*
X31326304Y-94948333D02*
X31516780Y-95043571D01*
X31516780Y-95043571D02*
X31612019Y-95138809D01*
X31612019Y-95138809D02*
X31707257Y-95329285D01*
X31707257Y-95329285D02*
X31707257Y-96091190D01*
X30659638Y-94281666D02*
X30659638Y-92948333D01*
X30659638Y-92948333D02*
X32659638Y-93805476D01*
D13*
X143964819Y-110291190D02*
X142964819Y-110291190D01*
X142964819Y-110291190D02*
X142964819Y-110053095D01*
X142964819Y-110053095D02*
X143012438Y-109910238D01*
X143012438Y-109910238D02*
X143107676Y-109815000D01*
X143107676Y-109815000D02*
X143202914Y-109767381D01*
X143202914Y-109767381D02*
X143393390Y-109719762D01*
X143393390Y-109719762D02*
X143536247Y-109719762D01*
X143536247Y-109719762D02*
X143726723Y-109767381D01*
X143726723Y-109767381D02*
X143821961Y-109815000D01*
X143821961Y-109815000D02*
X143917200Y-109910238D01*
X143917200Y-109910238D02*
X143964819Y-110053095D01*
X143964819Y-110053095D02*
X143964819Y-110291190D01*
X143917200Y-109338809D02*
X143964819Y-109195952D01*
X143964819Y-109195952D02*
X143964819Y-108957857D01*
X143964819Y-108957857D02*
X143917200Y-108862619D01*
X143917200Y-108862619D02*
X143869580Y-108815000D01*
X143869580Y-108815000D02*
X143774342Y-108767381D01*
X143774342Y-108767381D02*
X143679104Y-108767381D01*
X143679104Y-108767381D02*
X143583866Y-108815000D01*
X143583866Y-108815000D02*
X143536247Y-108862619D01*
X143536247Y-108862619D02*
X143488628Y-108957857D01*
X143488628Y-108957857D02*
X143441009Y-109148333D01*
X143441009Y-109148333D02*
X143393390Y-109243571D01*
X143393390Y-109243571D02*
X143345771Y-109291190D01*
X143345771Y-109291190D02*
X143250533Y-109338809D01*
X143250533Y-109338809D02*
X143155295Y-109338809D01*
X143155295Y-109338809D02*
X143060057Y-109291190D01*
X143060057Y-109291190D02*
X143012438Y-109243571D01*
X143012438Y-109243571D02*
X142964819Y-109148333D01*
X142964819Y-109148333D02*
X142964819Y-108910238D01*
X142964819Y-108910238D02*
X143012438Y-108767381D01*
X142964819Y-108481666D02*
X142964819Y-107910238D01*
X143964819Y-108195952D02*
X142964819Y-108195952D01*
X144298152Y-107291190D02*
X144298152Y-107529285D01*
X144298152Y-107529285D02*
X142869580Y-107529285D01*
X142869580Y-107529285D02*
X142869580Y-107291190D01*
X142964819Y-106719761D02*
X142964819Y-106624523D01*
X142964819Y-106624523D02*
X143012438Y-106529285D01*
X143012438Y-106529285D02*
X143060057Y-106481666D01*
X143060057Y-106481666D02*
X143155295Y-106434047D01*
X143155295Y-106434047D02*
X143345771Y-106386428D01*
X143345771Y-106386428D02*
X143583866Y-106386428D01*
X143583866Y-106386428D02*
X143774342Y-106434047D01*
X143774342Y-106434047D02*
X143869580Y-106481666D01*
X143869580Y-106481666D02*
X143917200Y-106529285D01*
X143917200Y-106529285D02*
X143964819Y-106624523D01*
X143964819Y-106624523D02*
X143964819Y-106719761D01*
X143964819Y-106719761D02*
X143917200Y-106814999D01*
X143917200Y-106814999D02*
X143869580Y-106862618D01*
X143869580Y-106862618D02*
X143774342Y-106910237D01*
X143774342Y-106910237D02*
X143583866Y-106957856D01*
X143583866Y-106957856D02*
X143345771Y-106957856D01*
X143345771Y-106957856D02*
X143155295Y-106910237D01*
X143155295Y-106910237D02*
X143060057Y-106862618D01*
X143060057Y-106862618D02*
X143012438Y-106814999D01*
X143012438Y-106814999D02*
X142964819Y-106719761D01*
X143869580Y-105957856D02*
X143917200Y-105910237D01*
X143917200Y-105910237D02*
X143964819Y-105957856D01*
X143964819Y-105957856D02*
X143917200Y-106005475D01*
X143917200Y-106005475D02*
X143869580Y-105957856D01*
X143869580Y-105957856D02*
X143964819Y-105957856D01*
X143345771Y-105957856D02*
X143393390Y-105910237D01*
X143393390Y-105910237D02*
X143441009Y-105957856D01*
X143441009Y-105957856D02*
X143393390Y-106005475D01*
X143393390Y-106005475D02*
X143345771Y-105957856D01*
X143345771Y-105957856D02*
X143441009Y-105957856D01*
X143060057Y-105529285D02*
X143012438Y-105481666D01*
X143012438Y-105481666D02*
X142964819Y-105386428D01*
X142964819Y-105386428D02*
X142964819Y-105148333D01*
X142964819Y-105148333D02*
X143012438Y-105053095D01*
X143012438Y-105053095D02*
X143060057Y-105005476D01*
X143060057Y-105005476D02*
X143155295Y-104957857D01*
X143155295Y-104957857D02*
X143250533Y-104957857D01*
X143250533Y-104957857D02*
X143393390Y-105005476D01*
X143393390Y-105005476D02*
X143964819Y-105576904D01*
X143964819Y-105576904D02*
X143964819Y-104957857D01*
X144298152Y-104624523D02*
X144298152Y-104386428D01*
X144298152Y-104386428D02*
X142869580Y-104386428D01*
X142869580Y-104386428D02*
X142869580Y-104624523D01*
D11*
X101874757Y-25400000D02*
X102827138Y-25400000D01*
X100827138Y-26066666D02*
X101874757Y-25400000D01*
X101874757Y-25400000D02*
X100827138Y-24733333D01*
X136387138Y-26066666D02*
X138387138Y-24733333D01*
X136387138Y-24733333D02*
X138387138Y-26066666D01*
D13*
X168094938Y-83192857D02*
X168047319Y-83288095D01*
X168047319Y-83288095D02*
X168047319Y-83430952D01*
X168047319Y-83430952D02*
X168094938Y-83573809D01*
X168094938Y-83573809D02*
X168190176Y-83669047D01*
X168190176Y-83669047D02*
X168285414Y-83716666D01*
X168285414Y-83716666D02*
X168475890Y-83764285D01*
X168475890Y-83764285D02*
X168618747Y-83764285D01*
X168618747Y-83764285D02*
X168809223Y-83716666D01*
X168809223Y-83716666D02*
X168904461Y-83669047D01*
X168904461Y-83669047D02*
X168999700Y-83573809D01*
X168999700Y-83573809D02*
X169047319Y-83430952D01*
X169047319Y-83430952D02*
X169047319Y-83335714D01*
X169047319Y-83335714D02*
X168999700Y-83192857D01*
X168999700Y-83192857D02*
X168952080Y-83145238D01*
X168952080Y-83145238D02*
X168618747Y-83145238D01*
X168618747Y-83145238D02*
X168618747Y-83335714D01*
X168380652Y-82716666D02*
X169047319Y-82716666D01*
X168475890Y-82716666D02*
X168428271Y-82669047D01*
X168428271Y-82669047D02*
X168380652Y-82573809D01*
X168380652Y-82573809D02*
X168380652Y-82430952D01*
X168380652Y-82430952D02*
X168428271Y-82335714D01*
X168428271Y-82335714D02*
X168523509Y-82288095D01*
X168523509Y-82288095D02*
X169047319Y-82288095D01*
X169047319Y-81383333D02*
X168047319Y-81383333D01*
X168999700Y-81383333D02*
X169047319Y-81478571D01*
X169047319Y-81478571D02*
X169047319Y-81669047D01*
X169047319Y-81669047D02*
X168999700Y-81764285D01*
X168999700Y-81764285D02*
X168952080Y-81811904D01*
X168952080Y-81811904D02*
X168856842Y-81859523D01*
X168856842Y-81859523D02*
X168571128Y-81859523D01*
X168571128Y-81859523D02*
X168475890Y-81811904D01*
X168475890Y-81811904D02*
X168428271Y-81764285D01*
X168428271Y-81764285D02*
X168380652Y-81669047D01*
X168380652Y-81669047D02*
X168380652Y-81478571D01*
X168380652Y-81478571D02*
X168428271Y-81383333D01*
X168047319Y-85137618D02*
X168047319Y-85042380D01*
X168047319Y-85042380D02*
X168094938Y-84947142D01*
X168094938Y-84947142D02*
X168142557Y-84899523D01*
X168142557Y-84899523D02*
X168237795Y-84851904D01*
X168237795Y-84851904D02*
X168428271Y-84804285D01*
X168428271Y-84804285D02*
X168666366Y-84804285D01*
X168666366Y-84804285D02*
X168856842Y-84851904D01*
X168856842Y-84851904D02*
X168952080Y-84899523D01*
X168952080Y-84899523D02*
X168999700Y-84947142D01*
X168999700Y-84947142D02*
X169047319Y-85042380D01*
X169047319Y-85042380D02*
X169047319Y-85137618D01*
X169047319Y-85137618D02*
X168999700Y-85232856D01*
X168999700Y-85232856D02*
X168952080Y-85280475D01*
X168952080Y-85280475D02*
X168856842Y-85328094D01*
X168856842Y-85328094D02*
X168666366Y-85375713D01*
X168666366Y-85375713D02*
X168428271Y-85375713D01*
X168428271Y-85375713D02*
X168237795Y-85328094D01*
X168237795Y-85328094D02*
X168142557Y-85280475D01*
X168142557Y-85280475D02*
X168094938Y-85232856D01*
X168094938Y-85232856D02*
X168047319Y-85137618D01*
X168047319Y-103203332D02*
X168047319Y-102536666D01*
X168047319Y-102536666D02*
X169047319Y-102965237D01*
X168047319Y-59737618D02*
X168047319Y-59642380D01*
X168047319Y-59642380D02*
X168094938Y-59547142D01*
X168094938Y-59547142D02*
X168142557Y-59499523D01*
X168142557Y-59499523D02*
X168237795Y-59451904D01*
X168237795Y-59451904D02*
X168428271Y-59404285D01*
X168428271Y-59404285D02*
X168666366Y-59404285D01*
X168666366Y-59404285D02*
X168856842Y-59451904D01*
X168856842Y-59451904D02*
X168952080Y-59499523D01*
X168952080Y-59499523D02*
X168999700Y-59547142D01*
X168999700Y-59547142D02*
X169047319Y-59642380D01*
X169047319Y-59642380D02*
X169047319Y-59737618D01*
X169047319Y-59737618D02*
X168999700Y-59832856D01*
X168999700Y-59832856D02*
X168952080Y-59880475D01*
X168952080Y-59880475D02*
X168856842Y-59928094D01*
X168856842Y-59928094D02*
X168666366Y-59975713D01*
X168666366Y-59975713D02*
X168428271Y-59975713D01*
X168428271Y-59975713D02*
X168237795Y-59928094D01*
X168237795Y-59928094D02*
X168142557Y-59880475D01*
X168142557Y-59880475D02*
X168094938Y-59832856D01*
X168094938Y-59832856D02*
X168047319Y-59737618D01*
X168047319Y-77803332D02*
X168047319Y-77136666D01*
X168047319Y-77136666D02*
X169047319Y-77565237D01*
X168094938Y-57792857D02*
X168047319Y-57888095D01*
X168047319Y-57888095D02*
X168047319Y-58030952D01*
X168047319Y-58030952D02*
X168094938Y-58173809D01*
X168094938Y-58173809D02*
X168190176Y-58269047D01*
X168190176Y-58269047D02*
X168285414Y-58316666D01*
X168285414Y-58316666D02*
X168475890Y-58364285D01*
X168475890Y-58364285D02*
X168618747Y-58364285D01*
X168618747Y-58364285D02*
X168809223Y-58316666D01*
X168809223Y-58316666D02*
X168904461Y-58269047D01*
X168904461Y-58269047D02*
X168999700Y-58173809D01*
X168999700Y-58173809D02*
X169047319Y-58030952D01*
X169047319Y-58030952D02*
X169047319Y-57935714D01*
X169047319Y-57935714D02*
X168999700Y-57792857D01*
X168999700Y-57792857D02*
X168952080Y-57745238D01*
X168952080Y-57745238D02*
X168618747Y-57745238D01*
X168618747Y-57745238D02*
X168618747Y-57935714D01*
X168380652Y-57316666D02*
X169047319Y-57316666D01*
X168475890Y-57316666D02*
X168428271Y-57269047D01*
X168428271Y-57269047D02*
X168380652Y-57173809D01*
X168380652Y-57173809D02*
X168380652Y-57030952D01*
X168380652Y-57030952D02*
X168428271Y-56935714D01*
X168428271Y-56935714D02*
X168523509Y-56888095D01*
X168523509Y-56888095D02*
X169047319Y-56888095D01*
X169047319Y-55983333D02*
X168047319Y-55983333D01*
X168999700Y-55983333D02*
X169047319Y-56078571D01*
X169047319Y-56078571D02*
X169047319Y-56269047D01*
X169047319Y-56269047D02*
X168999700Y-56364285D01*
X168999700Y-56364285D02*
X168952080Y-56411904D01*
X168952080Y-56411904D02*
X168856842Y-56459523D01*
X168856842Y-56459523D02*
X168571128Y-56459523D01*
X168571128Y-56459523D02*
X168475890Y-56411904D01*
X168475890Y-56411904D02*
X168428271Y-56364285D01*
X168428271Y-56364285D02*
X168380652Y-56269047D01*
X168380652Y-56269047D02*
X168380652Y-56078571D01*
X168380652Y-56078571D02*
X168428271Y-55983333D01*
X168761604Y-72452857D02*
X168761604Y-71976667D01*
X169047319Y-72548095D02*
X168047319Y-72214762D01*
X168047319Y-72214762D02*
X169047319Y-71881429D01*
X169047319Y-71071905D02*
X169047319Y-71548095D01*
X169047319Y-71548095D02*
X168047319Y-71548095D01*
X168047319Y-70738571D02*
X168856842Y-70738571D01*
X168856842Y-70738571D02*
X168952080Y-70690952D01*
X168952080Y-70690952D02*
X168999700Y-70643333D01*
X168999700Y-70643333D02*
X169047319Y-70548095D01*
X169047319Y-70548095D02*
X169047319Y-70357619D01*
X169047319Y-70357619D02*
X168999700Y-70262381D01*
X168999700Y-70262381D02*
X168952080Y-70214762D01*
X168952080Y-70214762D02*
X168856842Y-70167143D01*
X168856842Y-70167143D02*
X168047319Y-70167143D01*
X169047319Y-68929047D02*
X168047319Y-68929047D01*
X168523509Y-68929047D02*
X168523509Y-68357619D01*
X169047319Y-68357619D02*
X168047319Y-68357619D01*
X169047319Y-67881428D02*
X168380652Y-67881428D01*
X168047319Y-67881428D02*
X168094938Y-67929047D01*
X168094938Y-67929047D02*
X168142557Y-67881428D01*
X168142557Y-67881428D02*
X168094938Y-67833809D01*
X168094938Y-67833809D02*
X168047319Y-67881428D01*
X168047319Y-67881428D02*
X168142557Y-67881428D01*
X168380652Y-66976667D02*
X169190176Y-66976667D01*
X169190176Y-66976667D02*
X169285414Y-67024286D01*
X169285414Y-67024286D02*
X169333033Y-67071905D01*
X169333033Y-67071905D02*
X169380652Y-67167143D01*
X169380652Y-67167143D02*
X169380652Y-67310000D01*
X169380652Y-67310000D02*
X169333033Y-67405238D01*
X168999700Y-66976667D02*
X169047319Y-67071905D01*
X169047319Y-67071905D02*
X169047319Y-67262381D01*
X169047319Y-67262381D02*
X168999700Y-67357619D01*
X168999700Y-67357619D02*
X168952080Y-67405238D01*
X168952080Y-67405238D02*
X168856842Y-67452857D01*
X168856842Y-67452857D02*
X168571128Y-67452857D01*
X168571128Y-67452857D02*
X168475890Y-67405238D01*
X168475890Y-67405238D02*
X168428271Y-67357619D01*
X168428271Y-67357619D02*
X168380652Y-67262381D01*
X168380652Y-67262381D02*
X168380652Y-67071905D01*
X168380652Y-67071905D02*
X168428271Y-66976667D01*
X169047319Y-66500476D02*
X168047319Y-66500476D01*
X169047319Y-66071905D02*
X168523509Y-66071905D01*
X168523509Y-66071905D02*
X168428271Y-66119524D01*
X168428271Y-66119524D02*
X168380652Y-66214762D01*
X168380652Y-66214762D02*
X168380652Y-66357619D01*
X168380652Y-66357619D02*
X168428271Y-66452857D01*
X168428271Y-66452857D02*
X168475890Y-66500476D01*
X169047319Y-64833809D02*
X168047319Y-64833809D01*
X168428271Y-64833809D02*
X168380652Y-64738571D01*
X168380652Y-64738571D02*
X168380652Y-64548095D01*
X168380652Y-64548095D02*
X168428271Y-64452857D01*
X168428271Y-64452857D02*
X168475890Y-64405238D01*
X168475890Y-64405238D02*
X168571128Y-64357619D01*
X168571128Y-64357619D02*
X168856842Y-64357619D01*
X168856842Y-64357619D02*
X168952080Y-64405238D01*
X168952080Y-64405238D02*
X168999700Y-64452857D01*
X168999700Y-64452857D02*
X169047319Y-64548095D01*
X169047319Y-64548095D02*
X169047319Y-64738571D01*
X169047319Y-64738571D02*
X168999700Y-64833809D01*
X168380652Y-64024285D02*
X169047319Y-63786190D01*
X168380652Y-63548095D02*
X169047319Y-63786190D01*
X169047319Y-63786190D02*
X169285414Y-63881428D01*
X169285414Y-63881428D02*
X169333033Y-63929047D01*
X169333033Y-63929047D02*
X169380652Y-64024285D01*
X168380652Y-63309999D02*
X168380652Y-62929047D01*
X168047319Y-63167142D02*
X168904461Y-63167142D01*
X168904461Y-63167142D02*
X168999700Y-63119523D01*
X168999700Y-63119523D02*
X169047319Y-63024285D01*
X169047319Y-63024285D02*
X169047319Y-62929047D01*
X168999700Y-62214761D02*
X169047319Y-62309999D01*
X169047319Y-62309999D02*
X169047319Y-62500475D01*
X169047319Y-62500475D02*
X168999700Y-62595713D01*
X168999700Y-62595713D02*
X168904461Y-62643332D01*
X168904461Y-62643332D02*
X168523509Y-62643332D01*
X168523509Y-62643332D02*
X168428271Y-62595713D01*
X168428271Y-62595713D02*
X168380652Y-62500475D01*
X168380652Y-62500475D02*
X168380652Y-62309999D01*
X168380652Y-62309999D02*
X168428271Y-62214761D01*
X168428271Y-62214761D02*
X168523509Y-62167142D01*
X168523509Y-62167142D02*
X168618747Y-62167142D01*
X168618747Y-62167142D02*
X168713985Y-62643332D01*
X156299819Y-53911428D02*
X156299819Y-53720952D01*
X156299819Y-53720952D02*
X156347438Y-53625714D01*
X156347438Y-53625714D02*
X156442676Y-53530476D01*
X156442676Y-53530476D02*
X156633152Y-53482857D01*
X156633152Y-53482857D02*
X156966485Y-53482857D01*
X156966485Y-53482857D02*
X157156961Y-53530476D01*
X157156961Y-53530476D02*
X157252200Y-53625714D01*
X157252200Y-53625714D02*
X157299819Y-53720952D01*
X157299819Y-53720952D02*
X157299819Y-53911428D01*
X157299819Y-53911428D02*
X157252200Y-54006666D01*
X157252200Y-54006666D02*
X157156961Y-54101904D01*
X157156961Y-54101904D02*
X156966485Y-54149523D01*
X156966485Y-54149523D02*
X156633152Y-54149523D01*
X156633152Y-54149523D02*
X156442676Y-54101904D01*
X156442676Y-54101904D02*
X156347438Y-54006666D01*
X156347438Y-54006666D02*
X156299819Y-53911428D01*
X156299819Y-53149523D02*
X156299819Y-52530476D01*
X156299819Y-52530476D02*
X156680771Y-52863809D01*
X156680771Y-52863809D02*
X156680771Y-52720952D01*
X156680771Y-52720952D02*
X156728390Y-52625714D01*
X156728390Y-52625714D02*
X156776009Y-52578095D01*
X156776009Y-52578095D02*
X156871247Y-52530476D01*
X156871247Y-52530476D02*
X157109342Y-52530476D01*
X157109342Y-52530476D02*
X157204580Y-52578095D01*
X157204580Y-52578095D02*
X157252200Y-52625714D01*
X157252200Y-52625714D02*
X157299819Y-52720952D01*
X157299819Y-52720952D02*
X157299819Y-53006666D01*
X157299819Y-53006666D02*
X157252200Y-53101904D01*
X157252200Y-53101904D02*
X157204580Y-53149523D01*
X157299819Y-96996189D02*
X156299819Y-96996189D01*
X156299819Y-96615237D02*
X156299819Y-95948571D01*
X156299819Y-95948571D02*
X157299819Y-96377142D01*
X157299819Y-81756189D02*
X156299819Y-81756189D01*
X157299819Y-80756190D02*
X157299819Y-81327618D01*
X157299819Y-81041904D02*
X156299819Y-81041904D01*
X156299819Y-81041904D02*
X156442676Y-81137142D01*
X156442676Y-81137142D02*
X156537914Y-81232380D01*
X156537914Y-81232380D02*
X156585533Y-81327618D01*
X156299819Y-61531428D02*
X156299819Y-61340952D01*
X156299819Y-61340952D02*
X156347438Y-61245714D01*
X156347438Y-61245714D02*
X156442676Y-61150476D01*
X156442676Y-61150476D02*
X156633152Y-61102857D01*
X156633152Y-61102857D02*
X156966485Y-61102857D01*
X156966485Y-61102857D02*
X157156961Y-61150476D01*
X157156961Y-61150476D02*
X157252200Y-61245714D01*
X157252200Y-61245714D02*
X157299819Y-61340952D01*
X157299819Y-61340952D02*
X157299819Y-61531428D01*
X157299819Y-61531428D02*
X157252200Y-61626666D01*
X157252200Y-61626666D02*
X157156961Y-61721904D01*
X157156961Y-61721904D02*
X156966485Y-61769523D01*
X156966485Y-61769523D02*
X156633152Y-61769523D01*
X156633152Y-61769523D02*
X156442676Y-61721904D01*
X156442676Y-61721904D02*
X156347438Y-61626666D01*
X156347438Y-61626666D02*
X156299819Y-61531428D01*
X156299819Y-60483809D02*
X156299819Y-60388571D01*
X156299819Y-60388571D02*
X156347438Y-60293333D01*
X156347438Y-60293333D02*
X156395057Y-60245714D01*
X156395057Y-60245714D02*
X156490295Y-60198095D01*
X156490295Y-60198095D02*
X156680771Y-60150476D01*
X156680771Y-60150476D02*
X156918866Y-60150476D01*
X156918866Y-60150476D02*
X157109342Y-60198095D01*
X157109342Y-60198095D02*
X157204580Y-60245714D01*
X157204580Y-60245714D02*
X157252200Y-60293333D01*
X157252200Y-60293333D02*
X157299819Y-60388571D01*
X157299819Y-60388571D02*
X157299819Y-60483809D01*
X157299819Y-60483809D02*
X157252200Y-60579047D01*
X157252200Y-60579047D02*
X157204580Y-60626666D01*
X157204580Y-60626666D02*
X157109342Y-60674285D01*
X157109342Y-60674285D02*
X156918866Y-60721904D01*
X156918866Y-60721904D02*
X156680771Y-60721904D01*
X156680771Y-60721904D02*
X156490295Y-60674285D01*
X156490295Y-60674285D02*
X156395057Y-60626666D01*
X156395057Y-60626666D02*
X156347438Y-60579047D01*
X156347438Y-60579047D02*
X156299819Y-60483809D01*
X157299819Y-30511666D02*
X156823628Y-30844999D01*
X157299819Y-31083094D02*
X156299819Y-31083094D01*
X156299819Y-31083094D02*
X156299819Y-30702142D01*
X156299819Y-30702142D02*
X156347438Y-30606904D01*
X156347438Y-30606904D02*
X156395057Y-30559285D01*
X156395057Y-30559285D02*
X156490295Y-30511666D01*
X156490295Y-30511666D02*
X156633152Y-30511666D01*
X156633152Y-30511666D02*
X156728390Y-30559285D01*
X156728390Y-30559285D02*
X156776009Y-30606904D01*
X156776009Y-30606904D02*
X156823628Y-30702142D01*
X156823628Y-30702142D02*
X156823628Y-31083094D01*
X157299819Y-29940237D02*
X157252200Y-30035475D01*
X157252200Y-30035475D02*
X157204580Y-30083094D01*
X157204580Y-30083094D02*
X157109342Y-30130713D01*
X157109342Y-30130713D02*
X156823628Y-30130713D01*
X156823628Y-30130713D02*
X156728390Y-30083094D01*
X156728390Y-30083094D02*
X156680771Y-30035475D01*
X156680771Y-30035475D02*
X156633152Y-29940237D01*
X156633152Y-29940237D02*
X156633152Y-29797380D01*
X156633152Y-29797380D02*
X156680771Y-29702142D01*
X156680771Y-29702142D02*
X156728390Y-29654523D01*
X156728390Y-29654523D02*
X156823628Y-29606904D01*
X156823628Y-29606904D02*
X157109342Y-29606904D01*
X157109342Y-29606904D02*
X157204580Y-29654523D01*
X157204580Y-29654523D02*
X157252200Y-29702142D01*
X157252200Y-29702142D02*
X157299819Y-29797380D01*
X157299819Y-29797380D02*
X157299819Y-29940237D01*
X156633152Y-29273570D02*
X157299819Y-29083094D01*
X157299819Y-29083094D02*
X156823628Y-28892618D01*
X156823628Y-28892618D02*
X157299819Y-28702142D01*
X157299819Y-28702142D02*
X156633152Y-28511666D01*
X156022200Y-31221190D02*
X156022200Y-28468809D01*
X157299819Y-86836189D02*
X156299819Y-86836189D01*
X156299819Y-86455237D02*
X156299819Y-85836190D01*
X156299819Y-85836190D02*
X156680771Y-86169523D01*
X156680771Y-86169523D02*
X156680771Y-86026666D01*
X156680771Y-86026666D02*
X156728390Y-85931428D01*
X156728390Y-85931428D02*
X156776009Y-85883809D01*
X156776009Y-85883809D02*
X156871247Y-85836190D01*
X156871247Y-85836190D02*
X157109342Y-85836190D01*
X157109342Y-85836190D02*
X157204580Y-85883809D01*
X157204580Y-85883809D02*
X157252200Y-85931428D01*
X157252200Y-85931428D02*
X157299819Y-86026666D01*
X157299819Y-86026666D02*
X157299819Y-86312380D01*
X157299819Y-86312380D02*
X157252200Y-86407618D01*
X157252200Y-86407618D02*
X157204580Y-86455237D01*
X157204580Y-36044166D02*
X157252200Y-36091785D01*
X157252200Y-36091785D02*
X157299819Y-36234642D01*
X157299819Y-36234642D02*
X157299819Y-36329880D01*
X157299819Y-36329880D02*
X157252200Y-36472737D01*
X157252200Y-36472737D02*
X157156961Y-36567975D01*
X157156961Y-36567975D02*
X157061723Y-36615594D01*
X157061723Y-36615594D02*
X156871247Y-36663213D01*
X156871247Y-36663213D02*
X156728390Y-36663213D01*
X156728390Y-36663213D02*
X156537914Y-36615594D01*
X156537914Y-36615594D02*
X156442676Y-36567975D01*
X156442676Y-36567975D02*
X156347438Y-36472737D01*
X156347438Y-36472737D02*
X156299819Y-36329880D01*
X156299819Y-36329880D02*
X156299819Y-36234642D01*
X156299819Y-36234642D02*
X156347438Y-36091785D01*
X156347438Y-36091785D02*
X156395057Y-36044166D01*
X157252200Y-35663213D02*
X157299819Y-35520356D01*
X157299819Y-35520356D02*
X157299819Y-35282261D01*
X157299819Y-35282261D02*
X157252200Y-35187023D01*
X157252200Y-35187023D02*
X157204580Y-35139404D01*
X157204580Y-35139404D02*
X157109342Y-35091785D01*
X157109342Y-35091785D02*
X157014104Y-35091785D01*
X157014104Y-35091785D02*
X156918866Y-35139404D01*
X156918866Y-35139404D02*
X156871247Y-35187023D01*
X156871247Y-35187023D02*
X156823628Y-35282261D01*
X156823628Y-35282261D02*
X156776009Y-35472737D01*
X156776009Y-35472737D02*
X156728390Y-35567975D01*
X156728390Y-35567975D02*
X156680771Y-35615594D01*
X156680771Y-35615594D02*
X156585533Y-35663213D01*
X156585533Y-35663213D02*
X156490295Y-35663213D01*
X156490295Y-35663213D02*
X156395057Y-35615594D01*
X156395057Y-35615594D02*
X156347438Y-35567975D01*
X156347438Y-35567975D02*
X156299819Y-35472737D01*
X156299819Y-35472737D02*
X156299819Y-35234642D01*
X156299819Y-35234642D02*
X156347438Y-35091785D01*
X156022200Y-36753690D02*
X156022200Y-35001309D01*
X156299819Y-56451428D02*
X156299819Y-56260952D01*
X156299819Y-56260952D02*
X156347438Y-56165714D01*
X156347438Y-56165714D02*
X156442676Y-56070476D01*
X156442676Y-56070476D02*
X156633152Y-56022857D01*
X156633152Y-56022857D02*
X156966485Y-56022857D01*
X156966485Y-56022857D02*
X157156961Y-56070476D01*
X157156961Y-56070476D02*
X157252200Y-56165714D01*
X157252200Y-56165714D02*
X157299819Y-56260952D01*
X157299819Y-56260952D02*
X157299819Y-56451428D01*
X157299819Y-56451428D02*
X157252200Y-56546666D01*
X157252200Y-56546666D02*
X157156961Y-56641904D01*
X157156961Y-56641904D02*
X156966485Y-56689523D01*
X156966485Y-56689523D02*
X156633152Y-56689523D01*
X156633152Y-56689523D02*
X156442676Y-56641904D01*
X156442676Y-56641904D02*
X156347438Y-56546666D01*
X156347438Y-56546666D02*
X156299819Y-56451428D01*
X156395057Y-55641904D02*
X156347438Y-55594285D01*
X156347438Y-55594285D02*
X156299819Y-55499047D01*
X156299819Y-55499047D02*
X156299819Y-55260952D01*
X156299819Y-55260952D02*
X156347438Y-55165714D01*
X156347438Y-55165714D02*
X156395057Y-55118095D01*
X156395057Y-55118095D02*
X156490295Y-55070476D01*
X156490295Y-55070476D02*
X156585533Y-55070476D01*
X156585533Y-55070476D02*
X156728390Y-55118095D01*
X156728390Y-55118095D02*
X157299819Y-55689523D01*
X157299819Y-55689523D02*
X157299819Y-55070476D01*
X157299819Y-84296189D02*
X156299819Y-84296189D01*
X156395057Y-83867618D02*
X156347438Y-83819999D01*
X156347438Y-83819999D02*
X156299819Y-83724761D01*
X156299819Y-83724761D02*
X156299819Y-83486666D01*
X156299819Y-83486666D02*
X156347438Y-83391428D01*
X156347438Y-83391428D02*
X156395057Y-83343809D01*
X156395057Y-83343809D02*
X156490295Y-83296190D01*
X156490295Y-83296190D02*
X156585533Y-83296190D01*
X156585533Y-83296190D02*
X156728390Y-83343809D01*
X156728390Y-83343809D02*
X157299819Y-83915237D01*
X157299819Y-83915237D02*
X157299819Y-83296190D01*
X156299819Y-48831428D02*
X156299819Y-48640952D01*
X156299819Y-48640952D02*
X156347438Y-48545714D01*
X156347438Y-48545714D02*
X156442676Y-48450476D01*
X156442676Y-48450476D02*
X156633152Y-48402857D01*
X156633152Y-48402857D02*
X156966485Y-48402857D01*
X156966485Y-48402857D02*
X157156961Y-48450476D01*
X157156961Y-48450476D02*
X157252200Y-48545714D01*
X157252200Y-48545714D02*
X157299819Y-48640952D01*
X157299819Y-48640952D02*
X157299819Y-48831428D01*
X157299819Y-48831428D02*
X157252200Y-48926666D01*
X157252200Y-48926666D02*
X157156961Y-49021904D01*
X157156961Y-49021904D02*
X156966485Y-49069523D01*
X156966485Y-49069523D02*
X156633152Y-49069523D01*
X156633152Y-49069523D02*
X156442676Y-49021904D01*
X156442676Y-49021904D02*
X156347438Y-48926666D01*
X156347438Y-48926666D02*
X156299819Y-48831428D01*
X156299819Y-47498095D02*
X156299819Y-47974285D01*
X156299819Y-47974285D02*
X156776009Y-48021904D01*
X156776009Y-48021904D02*
X156728390Y-47974285D01*
X156728390Y-47974285D02*
X156680771Y-47879047D01*
X156680771Y-47879047D02*
X156680771Y-47640952D01*
X156680771Y-47640952D02*
X156728390Y-47545714D01*
X156728390Y-47545714D02*
X156776009Y-47498095D01*
X156776009Y-47498095D02*
X156871247Y-47450476D01*
X156871247Y-47450476D02*
X157109342Y-47450476D01*
X157109342Y-47450476D02*
X157204580Y-47498095D01*
X157204580Y-47498095D02*
X157252200Y-47545714D01*
X157252200Y-47545714D02*
X157299819Y-47640952D01*
X157299819Y-47640952D02*
X157299819Y-47879047D01*
X157299819Y-47879047D02*
X157252200Y-47974285D01*
X157252200Y-47974285D02*
X157204580Y-48021904D01*
X156299819Y-58991428D02*
X156299819Y-58800952D01*
X156299819Y-58800952D02*
X156347438Y-58705714D01*
X156347438Y-58705714D02*
X156442676Y-58610476D01*
X156442676Y-58610476D02*
X156633152Y-58562857D01*
X156633152Y-58562857D02*
X156966485Y-58562857D01*
X156966485Y-58562857D02*
X157156961Y-58610476D01*
X157156961Y-58610476D02*
X157252200Y-58705714D01*
X157252200Y-58705714D02*
X157299819Y-58800952D01*
X157299819Y-58800952D02*
X157299819Y-58991428D01*
X157299819Y-58991428D02*
X157252200Y-59086666D01*
X157252200Y-59086666D02*
X157156961Y-59181904D01*
X157156961Y-59181904D02*
X156966485Y-59229523D01*
X156966485Y-59229523D02*
X156633152Y-59229523D01*
X156633152Y-59229523D02*
X156442676Y-59181904D01*
X156442676Y-59181904D02*
X156347438Y-59086666D01*
X156347438Y-59086666D02*
X156299819Y-58991428D01*
X157299819Y-57610476D02*
X157299819Y-58181904D01*
X157299819Y-57896190D02*
X156299819Y-57896190D01*
X156299819Y-57896190D02*
X156442676Y-57991428D01*
X156442676Y-57991428D02*
X156537914Y-58086666D01*
X156537914Y-58086666D02*
X156585533Y-58181904D01*
X156299819Y-43751428D02*
X156299819Y-43560952D01*
X156299819Y-43560952D02*
X156347438Y-43465714D01*
X156347438Y-43465714D02*
X156442676Y-43370476D01*
X156442676Y-43370476D02*
X156633152Y-43322857D01*
X156633152Y-43322857D02*
X156966485Y-43322857D01*
X156966485Y-43322857D02*
X157156961Y-43370476D01*
X157156961Y-43370476D02*
X157252200Y-43465714D01*
X157252200Y-43465714D02*
X157299819Y-43560952D01*
X157299819Y-43560952D02*
X157299819Y-43751428D01*
X157299819Y-43751428D02*
X157252200Y-43846666D01*
X157252200Y-43846666D02*
X157156961Y-43941904D01*
X157156961Y-43941904D02*
X156966485Y-43989523D01*
X156966485Y-43989523D02*
X156633152Y-43989523D01*
X156633152Y-43989523D02*
X156442676Y-43941904D01*
X156442676Y-43941904D02*
X156347438Y-43846666D01*
X156347438Y-43846666D02*
X156299819Y-43751428D01*
X156299819Y-42989523D02*
X156299819Y-42322857D01*
X156299819Y-42322857D02*
X157299819Y-42751428D01*
X157204580Y-33424762D02*
X157252200Y-33472381D01*
X157252200Y-33472381D02*
X157299819Y-33615238D01*
X157299819Y-33615238D02*
X157299819Y-33710476D01*
X157299819Y-33710476D02*
X157252200Y-33853333D01*
X157252200Y-33853333D02*
X157156961Y-33948571D01*
X157156961Y-33948571D02*
X157061723Y-33996190D01*
X157061723Y-33996190D02*
X156871247Y-34043809D01*
X156871247Y-34043809D02*
X156728390Y-34043809D01*
X156728390Y-34043809D02*
X156537914Y-33996190D01*
X156537914Y-33996190D02*
X156442676Y-33948571D01*
X156442676Y-33948571D02*
X156347438Y-33853333D01*
X156347438Y-33853333D02*
X156299819Y-33710476D01*
X156299819Y-33710476D02*
X156299819Y-33615238D01*
X156299819Y-33615238D02*
X156347438Y-33472381D01*
X156347438Y-33472381D02*
X156395057Y-33424762D01*
X157299819Y-32853333D02*
X157252200Y-32948571D01*
X157252200Y-32948571D02*
X157204580Y-32996190D01*
X157204580Y-32996190D02*
X157109342Y-33043809D01*
X157109342Y-33043809D02*
X156823628Y-33043809D01*
X156823628Y-33043809D02*
X156728390Y-32996190D01*
X156728390Y-32996190D02*
X156680771Y-32948571D01*
X156680771Y-32948571D02*
X156633152Y-32853333D01*
X156633152Y-32853333D02*
X156633152Y-32710476D01*
X156633152Y-32710476D02*
X156680771Y-32615238D01*
X156680771Y-32615238D02*
X156728390Y-32567619D01*
X156728390Y-32567619D02*
X156823628Y-32520000D01*
X156823628Y-32520000D02*
X157109342Y-32520000D01*
X157109342Y-32520000D02*
X157204580Y-32567619D01*
X157204580Y-32567619D02*
X157252200Y-32615238D01*
X157252200Y-32615238D02*
X157299819Y-32710476D01*
X157299819Y-32710476D02*
X157299819Y-32853333D01*
X157299819Y-31948571D02*
X157252200Y-32043809D01*
X157252200Y-32043809D02*
X157156961Y-32091428D01*
X157156961Y-32091428D02*
X156299819Y-32091428D01*
X156022200Y-34134286D02*
X156022200Y-31905714D01*
X157299819Y-94456189D02*
X156299819Y-94456189D01*
X156299819Y-93551428D02*
X156299819Y-93741904D01*
X156299819Y-93741904D02*
X156347438Y-93837142D01*
X156347438Y-93837142D02*
X156395057Y-93884761D01*
X156395057Y-93884761D02*
X156537914Y-93979999D01*
X156537914Y-93979999D02*
X156728390Y-94027618D01*
X156728390Y-94027618D02*
X157109342Y-94027618D01*
X157109342Y-94027618D02*
X157204580Y-93979999D01*
X157204580Y-93979999D02*
X157252200Y-93932380D01*
X157252200Y-93932380D02*
X157299819Y-93837142D01*
X157299819Y-93837142D02*
X157299819Y-93646666D01*
X157299819Y-93646666D02*
X157252200Y-93551428D01*
X157252200Y-93551428D02*
X157204580Y-93503809D01*
X157204580Y-93503809D02*
X157109342Y-93456190D01*
X157109342Y-93456190D02*
X156871247Y-93456190D01*
X156871247Y-93456190D02*
X156776009Y-93503809D01*
X156776009Y-93503809D02*
X156728390Y-93551428D01*
X156728390Y-93551428D02*
X156680771Y-93646666D01*
X156680771Y-93646666D02*
X156680771Y-93837142D01*
X156680771Y-93837142D02*
X156728390Y-93932380D01*
X156728390Y-93932380D02*
X156776009Y-93979999D01*
X156776009Y-93979999D02*
X156871247Y-94027618D01*
X157299819Y-79216189D02*
X156299819Y-79216189D01*
X156299819Y-78549523D02*
X156299819Y-78454285D01*
X156299819Y-78454285D02*
X156347438Y-78359047D01*
X156347438Y-78359047D02*
X156395057Y-78311428D01*
X156395057Y-78311428D02*
X156490295Y-78263809D01*
X156490295Y-78263809D02*
X156680771Y-78216190D01*
X156680771Y-78216190D02*
X156918866Y-78216190D01*
X156918866Y-78216190D02*
X157109342Y-78263809D01*
X157109342Y-78263809D02*
X157204580Y-78311428D01*
X157204580Y-78311428D02*
X157252200Y-78359047D01*
X157252200Y-78359047D02*
X157299819Y-78454285D01*
X157299819Y-78454285D02*
X157299819Y-78549523D01*
X157299819Y-78549523D02*
X157252200Y-78644761D01*
X157252200Y-78644761D02*
X157204580Y-78692380D01*
X157204580Y-78692380D02*
X157109342Y-78739999D01*
X157109342Y-78739999D02*
X156918866Y-78787618D01*
X156918866Y-78787618D02*
X156680771Y-78787618D01*
X156680771Y-78787618D02*
X156490295Y-78739999D01*
X156490295Y-78739999D02*
X156395057Y-78692380D01*
X156395057Y-78692380D02*
X156347438Y-78644761D01*
X156347438Y-78644761D02*
X156299819Y-78549523D01*
X156299819Y-51371428D02*
X156299819Y-51180952D01*
X156299819Y-51180952D02*
X156347438Y-51085714D01*
X156347438Y-51085714D02*
X156442676Y-50990476D01*
X156442676Y-50990476D02*
X156633152Y-50942857D01*
X156633152Y-50942857D02*
X156966485Y-50942857D01*
X156966485Y-50942857D02*
X157156961Y-50990476D01*
X157156961Y-50990476D02*
X157252200Y-51085714D01*
X157252200Y-51085714D02*
X157299819Y-51180952D01*
X157299819Y-51180952D02*
X157299819Y-51371428D01*
X157299819Y-51371428D02*
X157252200Y-51466666D01*
X157252200Y-51466666D02*
X157156961Y-51561904D01*
X157156961Y-51561904D02*
X156966485Y-51609523D01*
X156966485Y-51609523D02*
X156633152Y-51609523D01*
X156633152Y-51609523D02*
X156442676Y-51561904D01*
X156442676Y-51561904D02*
X156347438Y-51466666D01*
X156347438Y-51466666D02*
X156299819Y-51371428D01*
X156633152Y-50085714D02*
X157299819Y-50085714D01*
X156252200Y-50323809D02*
X156966485Y-50561904D01*
X156966485Y-50561904D02*
X156966485Y-49942857D01*
X156299819Y-46291428D02*
X156299819Y-46100952D01*
X156299819Y-46100952D02*
X156347438Y-46005714D01*
X156347438Y-46005714D02*
X156442676Y-45910476D01*
X156442676Y-45910476D02*
X156633152Y-45862857D01*
X156633152Y-45862857D02*
X156966485Y-45862857D01*
X156966485Y-45862857D02*
X157156961Y-45910476D01*
X157156961Y-45910476D02*
X157252200Y-46005714D01*
X157252200Y-46005714D02*
X157299819Y-46100952D01*
X157299819Y-46100952D02*
X157299819Y-46291428D01*
X157299819Y-46291428D02*
X157252200Y-46386666D01*
X157252200Y-46386666D02*
X157156961Y-46481904D01*
X157156961Y-46481904D02*
X156966485Y-46529523D01*
X156966485Y-46529523D02*
X156633152Y-46529523D01*
X156633152Y-46529523D02*
X156442676Y-46481904D01*
X156442676Y-46481904D02*
X156347438Y-46386666D01*
X156347438Y-46386666D02*
X156299819Y-46291428D01*
X156299819Y-45005714D02*
X156299819Y-45196190D01*
X156299819Y-45196190D02*
X156347438Y-45291428D01*
X156347438Y-45291428D02*
X156395057Y-45339047D01*
X156395057Y-45339047D02*
X156537914Y-45434285D01*
X156537914Y-45434285D02*
X156728390Y-45481904D01*
X156728390Y-45481904D02*
X157109342Y-45481904D01*
X157109342Y-45481904D02*
X157204580Y-45434285D01*
X157204580Y-45434285D02*
X157252200Y-45386666D01*
X157252200Y-45386666D02*
X157299819Y-45291428D01*
X157299819Y-45291428D02*
X157299819Y-45100952D01*
X157299819Y-45100952D02*
X157252200Y-45005714D01*
X157252200Y-45005714D02*
X157204580Y-44958095D01*
X157204580Y-44958095D02*
X157109342Y-44910476D01*
X157109342Y-44910476D02*
X156871247Y-44910476D01*
X156871247Y-44910476D02*
X156776009Y-44958095D01*
X156776009Y-44958095D02*
X156728390Y-45005714D01*
X156728390Y-45005714D02*
X156680771Y-45100952D01*
X156680771Y-45100952D02*
X156680771Y-45291428D01*
X156680771Y-45291428D02*
X156728390Y-45386666D01*
X156728390Y-45386666D02*
X156776009Y-45434285D01*
X156776009Y-45434285D02*
X156871247Y-45481904D01*
X157299819Y-74183809D02*
X156823628Y-74517142D01*
X157299819Y-74755237D02*
X156299819Y-74755237D01*
X156299819Y-74755237D02*
X156299819Y-74374285D01*
X156299819Y-74374285D02*
X156347438Y-74279047D01*
X156347438Y-74279047D02*
X156395057Y-74231428D01*
X156395057Y-74231428D02*
X156490295Y-74183809D01*
X156490295Y-74183809D02*
X156633152Y-74183809D01*
X156633152Y-74183809D02*
X156728390Y-74231428D01*
X156728390Y-74231428D02*
X156776009Y-74279047D01*
X156776009Y-74279047D02*
X156823628Y-74374285D01*
X156823628Y-74374285D02*
X156823628Y-74755237D01*
X157252200Y-73374285D02*
X157299819Y-73469523D01*
X157299819Y-73469523D02*
X157299819Y-73659999D01*
X157299819Y-73659999D02*
X157252200Y-73755237D01*
X157252200Y-73755237D02*
X157156961Y-73802856D01*
X157156961Y-73802856D02*
X156776009Y-73802856D01*
X156776009Y-73802856D02*
X156680771Y-73755237D01*
X156680771Y-73755237D02*
X156633152Y-73659999D01*
X156633152Y-73659999D02*
X156633152Y-73469523D01*
X156633152Y-73469523D02*
X156680771Y-73374285D01*
X156680771Y-73374285D02*
X156776009Y-73326666D01*
X156776009Y-73326666D02*
X156871247Y-73326666D01*
X156871247Y-73326666D02*
X156966485Y-73802856D01*
X157252200Y-72945713D02*
X157299819Y-72850475D01*
X157299819Y-72850475D02*
X157299819Y-72659999D01*
X157299819Y-72659999D02*
X157252200Y-72564761D01*
X157252200Y-72564761D02*
X157156961Y-72517142D01*
X157156961Y-72517142D02*
X157109342Y-72517142D01*
X157109342Y-72517142D02*
X157014104Y-72564761D01*
X157014104Y-72564761D02*
X156966485Y-72659999D01*
X156966485Y-72659999D02*
X156966485Y-72802856D01*
X156966485Y-72802856D02*
X156918866Y-72898094D01*
X156918866Y-72898094D02*
X156823628Y-72945713D01*
X156823628Y-72945713D02*
X156776009Y-72945713D01*
X156776009Y-72945713D02*
X156680771Y-72898094D01*
X156680771Y-72898094D02*
X156633152Y-72802856D01*
X156633152Y-72802856D02*
X156633152Y-72659999D01*
X156633152Y-72659999D02*
X156680771Y-72564761D01*
X156022200Y-74893333D02*
X156022200Y-72426666D01*
X157299819Y-91916189D02*
X156299819Y-91916189D01*
X156299819Y-90963809D02*
X156299819Y-91439999D01*
X156299819Y-91439999D02*
X156776009Y-91487618D01*
X156776009Y-91487618D02*
X156728390Y-91439999D01*
X156728390Y-91439999D02*
X156680771Y-91344761D01*
X156680771Y-91344761D02*
X156680771Y-91106666D01*
X156680771Y-91106666D02*
X156728390Y-91011428D01*
X156728390Y-91011428D02*
X156776009Y-90963809D01*
X156776009Y-90963809D02*
X156871247Y-90916190D01*
X156871247Y-90916190D02*
X157109342Y-90916190D01*
X157109342Y-90916190D02*
X157204580Y-90963809D01*
X157204580Y-90963809D02*
X157252200Y-91011428D01*
X157252200Y-91011428D02*
X157299819Y-91106666D01*
X157299819Y-91106666D02*
X157299819Y-91344761D01*
X157299819Y-91344761D02*
X157252200Y-91439999D01*
X157252200Y-91439999D02*
X157204580Y-91487618D01*
X157299819Y-89376189D02*
X156299819Y-89376189D01*
X156633152Y-88471428D02*
X157299819Y-88471428D01*
X156252200Y-88709523D02*
X156966485Y-88947618D01*
X156966485Y-88947618D02*
X156966485Y-88328571D01*
X156347438Y-69540357D02*
X156299819Y-69635595D01*
X156299819Y-69635595D02*
X156299819Y-69778452D01*
X156299819Y-69778452D02*
X156347438Y-69921309D01*
X156347438Y-69921309D02*
X156442676Y-70016547D01*
X156442676Y-70016547D02*
X156537914Y-70064166D01*
X156537914Y-70064166D02*
X156728390Y-70111785D01*
X156728390Y-70111785D02*
X156871247Y-70111785D01*
X156871247Y-70111785D02*
X157061723Y-70064166D01*
X157061723Y-70064166D02*
X157156961Y-70016547D01*
X157156961Y-70016547D02*
X157252200Y-69921309D01*
X157252200Y-69921309D02*
X157299819Y-69778452D01*
X157299819Y-69778452D02*
X157299819Y-69683214D01*
X157299819Y-69683214D02*
X157252200Y-69540357D01*
X157252200Y-69540357D02*
X157204580Y-69492738D01*
X157204580Y-69492738D02*
X156871247Y-69492738D01*
X156871247Y-69492738D02*
X156871247Y-69683214D01*
X156633152Y-69064166D02*
X157299819Y-69064166D01*
X156728390Y-69064166D02*
X156680771Y-69016547D01*
X156680771Y-69016547D02*
X156633152Y-68921309D01*
X156633152Y-68921309D02*
X156633152Y-68778452D01*
X156633152Y-68778452D02*
X156680771Y-68683214D01*
X156680771Y-68683214D02*
X156776009Y-68635595D01*
X156776009Y-68635595D02*
X157299819Y-68635595D01*
X157299819Y-67730833D02*
X156299819Y-67730833D01*
X157252200Y-67730833D02*
X157299819Y-67826071D01*
X157299819Y-67826071D02*
X157299819Y-68016547D01*
X157299819Y-68016547D02*
X157252200Y-68111785D01*
X157252200Y-68111785D02*
X157204580Y-68159404D01*
X157204580Y-68159404D02*
X157109342Y-68207023D01*
X157109342Y-68207023D02*
X156823628Y-68207023D01*
X156823628Y-68207023D02*
X156728390Y-68159404D01*
X156728390Y-68159404D02*
X156680771Y-68111785D01*
X156680771Y-68111785D02*
X156633152Y-68016547D01*
X156633152Y-68016547D02*
X156633152Y-67826071D01*
X156633152Y-67826071D02*
X156680771Y-67730833D01*
X156299819Y-66912975D02*
X157299819Y-66579642D01*
X157299819Y-66579642D02*
X156299819Y-66246309D01*
X157252200Y-65484404D02*
X157299819Y-65579642D01*
X157299819Y-65579642D02*
X157299819Y-65770118D01*
X157299819Y-65770118D02*
X157252200Y-65865356D01*
X157252200Y-65865356D02*
X157204580Y-65912975D01*
X157204580Y-65912975D02*
X157109342Y-65960594D01*
X157109342Y-65960594D02*
X156823628Y-65960594D01*
X156823628Y-65960594D02*
X156728390Y-65912975D01*
X156728390Y-65912975D02*
X156680771Y-65865356D01*
X156680771Y-65865356D02*
X156633152Y-65770118D01*
X156633152Y-65770118D02*
X156633152Y-65579642D01*
X156633152Y-65579642D02*
X156680771Y-65484404D01*
X157252200Y-64627261D02*
X157299819Y-64722499D01*
X157299819Y-64722499D02*
X157299819Y-64912975D01*
X157299819Y-64912975D02*
X157252200Y-65008213D01*
X157252200Y-65008213D02*
X157204580Y-65055832D01*
X157204580Y-65055832D02*
X157109342Y-65103451D01*
X157109342Y-65103451D02*
X156823628Y-65103451D01*
X156823628Y-65103451D02*
X156728390Y-65055832D01*
X156728390Y-65055832D02*
X156680771Y-65008213D01*
X156680771Y-65008213D02*
X156633152Y-64912975D01*
X156633152Y-64912975D02*
X156633152Y-64722499D01*
X156633152Y-64722499D02*
X156680771Y-64627261D01*
X36941190Y-77289819D02*
X36607857Y-76813628D01*
X36369762Y-77289819D02*
X36369762Y-76289819D01*
X36369762Y-76289819D02*
X36750714Y-76289819D01*
X36750714Y-76289819D02*
X36845952Y-76337438D01*
X36845952Y-76337438D02*
X36893571Y-76385057D01*
X36893571Y-76385057D02*
X36941190Y-76480295D01*
X36941190Y-76480295D02*
X36941190Y-76623152D01*
X36941190Y-76623152D02*
X36893571Y-76718390D01*
X36893571Y-76718390D02*
X36845952Y-76766009D01*
X36845952Y-76766009D02*
X36750714Y-76813628D01*
X36750714Y-76813628D02*
X36369762Y-76813628D01*
X37750714Y-77242200D02*
X37655476Y-77289819D01*
X37655476Y-77289819D02*
X37465000Y-77289819D01*
X37465000Y-77289819D02*
X37369762Y-77242200D01*
X37369762Y-77242200D02*
X37322143Y-77146961D01*
X37322143Y-77146961D02*
X37322143Y-76766009D01*
X37322143Y-76766009D02*
X37369762Y-76670771D01*
X37369762Y-76670771D02*
X37465000Y-76623152D01*
X37465000Y-76623152D02*
X37655476Y-76623152D01*
X37655476Y-76623152D02*
X37750714Y-76670771D01*
X37750714Y-76670771D02*
X37798333Y-76766009D01*
X37798333Y-76766009D02*
X37798333Y-76861247D01*
X37798333Y-76861247D02*
X37322143Y-76956485D01*
X38179286Y-77242200D02*
X38274524Y-77289819D01*
X38274524Y-77289819D02*
X38465000Y-77289819D01*
X38465000Y-77289819D02*
X38560238Y-77242200D01*
X38560238Y-77242200D02*
X38607857Y-77146961D01*
X38607857Y-77146961D02*
X38607857Y-77099342D01*
X38607857Y-77099342D02*
X38560238Y-77004104D01*
X38560238Y-77004104D02*
X38465000Y-76956485D01*
X38465000Y-76956485D02*
X38322143Y-76956485D01*
X38322143Y-76956485D02*
X38226905Y-76908866D01*
X38226905Y-76908866D02*
X38179286Y-76813628D01*
X38179286Y-76813628D02*
X38179286Y-76766009D01*
X38179286Y-76766009D02*
X38226905Y-76670771D01*
X38226905Y-76670771D02*
X38322143Y-76623152D01*
X38322143Y-76623152D02*
X38465000Y-76623152D01*
X38465000Y-76623152D02*
X38560238Y-76670771D01*
X36231667Y-76012200D02*
X38698334Y-76012200D01*
D11*
X67171900Y-26336428D02*
X67267138Y-26050714D01*
X67267138Y-26050714D02*
X67267138Y-25574523D01*
X67267138Y-25574523D02*
X67171900Y-25384047D01*
X67171900Y-25384047D02*
X67076661Y-25288809D01*
X67076661Y-25288809D02*
X66886185Y-25193571D01*
X66886185Y-25193571D02*
X66695709Y-25193571D01*
X66695709Y-25193571D02*
X66505233Y-25288809D01*
X66505233Y-25288809D02*
X66409995Y-25384047D01*
X66409995Y-25384047D02*
X66314757Y-25574523D01*
X66314757Y-25574523D02*
X66219519Y-25955476D01*
X66219519Y-25955476D02*
X66124280Y-26145952D01*
X66124280Y-26145952D02*
X66029042Y-26241190D01*
X66029042Y-26241190D02*
X65838566Y-26336428D01*
X65838566Y-26336428D02*
X65648090Y-26336428D01*
X65648090Y-26336428D02*
X65457614Y-26241190D01*
X65457614Y-26241190D02*
X65362376Y-26145952D01*
X65362376Y-26145952D02*
X65267138Y-25955476D01*
X65267138Y-25955476D02*
X65267138Y-25479285D01*
X65267138Y-25479285D02*
X65362376Y-25193571D01*
X67267138Y-24336428D02*
X65267138Y-24336428D01*
X65267138Y-24336428D02*
X65267138Y-23574523D01*
X65267138Y-23574523D02*
X65362376Y-23384047D01*
X65362376Y-23384047D02*
X65457614Y-23288809D01*
X65457614Y-23288809D02*
X65648090Y-23193571D01*
X65648090Y-23193571D02*
X65933804Y-23193571D01*
X65933804Y-23193571D02*
X66124280Y-23288809D01*
X66124280Y-23288809D02*
X66219519Y-23384047D01*
X66219519Y-23384047D02*
X66314757Y-23574523D01*
X66314757Y-23574523D02*
X66314757Y-24336428D01*
D13*
X90281190Y-77289819D02*
X89947857Y-76813628D01*
X89709762Y-77289819D02*
X89709762Y-76289819D01*
X89709762Y-76289819D02*
X90090714Y-76289819D01*
X90090714Y-76289819D02*
X90185952Y-76337438D01*
X90185952Y-76337438D02*
X90233571Y-76385057D01*
X90233571Y-76385057D02*
X90281190Y-76480295D01*
X90281190Y-76480295D02*
X90281190Y-76623152D01*
X90281190Y-76623152D02*
X90233571Y-76718390D01*
X90233571Y-76718390D02*
X90185952Y-76766009D01*
X90185952Y-76766009D02*
X90090714Y-76813628D01*
X90090714Y-76813628D02*
X89709762Y-76813628D01*
X91090714Y-77242200D02*
X90995476Y-77289819D01*
X90995476Y-77289819D02*
X90805000Y-77289819D01*
X90805000Y-77289819D02*
X90709762Y-77242200D01*
X90709762Y-77242200D02*
X90662143Y-77146961D01*
X90662143Y-77146961D02*
X90662143Y-76766009D01*
X90662143Y-76766009D02*
X90709762Y-76670771D01*
X90709762Y-76670771D02*
X90805000Y-76623152D01*
X90805000Y-76623152D02*
X90995476Y-76623152D01*
X90995476Y-76623152D02*
X91090714Y-76670771D01*
X91090714Y-76670771D02*
X91138333Y-76766009D01*
X91138333Y-76766009D02*
X91138333Y-76861247D01*
X91138333Y-76861247D02*
X90662143Y-76956485D01*
X91519286Y-77242200D02*
X91614524Y-77289819D01*
X91614524Y-77289819D02*
X91805000Y-77289819D01*
X91805000Y-77289819D02*
X91900238Y-77242200D01*
X91900238Y-77242200D02*
X91947857Y-77146961D01*
X91947857Y-77146961D02*
X91947857Y-77099342D01*
X91947857Y-77099342D02*
X91900238Y-77004104D01*
X91900238Y-77004104D02*
X91805000Y-76956485D01*
X91805000Y-76956485D02*
X91662143Y-76956485D01*
X91662143Y-76956485D02*
X91566905Y-76908866D01*
X91566905Y-76908866D02*
X91519286Y-76813628D01*
X91519286Y-76813628D02*
X91519286Y-76766009D01*
X91519286Y-76766009D02*
X91566905Y-76670771D01*
X91566905Y-76670771D02*
X91662143Y-76623152D01*
X91662143Y-76623152D02*
X91805000Y-76623152D01*
X91805000Y-76623152D02*
X91900238Y-76670771D01*
X89571667Y-76012200D02*
X92038334Y-76012200D01*
D11*
X18689638Y-95343571D02*
X17737257Y-95943571D01*
X18689638Y-96372142D02*
X16689638Y-96372142D01*
X16689638Y-96372142D02*
X16689638Y-95686428D01*
X16689638Y-95686428D02*
X16784876Y-95514999D01*
X16784876Y-95514999D02*
X16880114Y-95429285D01*
X16880114Y-95429285D02*
X17070590Y-95343571D01*
X17070590Y-95343571D02*
X17356304Y-95343571D01*
X17356304Y-95343571D02*
X17546780Y-95429285D01*
X17546780Y-95429285D02*
X17642019Y-95514999D01*
X17642019Y-95514999D02*
X17737257Y-95686428D01*
X17737257Y-95686428D02*
X17737257Y-96372142D01*
X16689638Y-94743571D02*
X16689638Y-93543571D01*
X16689638Y-93543571D02*
X18689638Y-94314999D01*
X16689638Y-92772142D02*
X17070590Y-92943570D01*
X36469638Y-95343571D02*
X35517257Y-95943571D01*
X36469638Y-96372142D02*
X34469638Y-96372142D01*
X34469638Y-96372142D02*
X34469638Y-95686428D01*
X34469638Y-95686428D02*
X34564876Y-95514999D01*
X34564876Y-95514999D02*
X34660114Y-95429285D01*
X34660114Y-95429285D02*
X34850590Y-95343571D01*
X34850590Y-95343571D02*
X35136304Y-95343571D01*
X35136304Y-95343571D02*
X35326780Y-95429285D01*
X35326780Y-95429285D02*
X35422019Y-95514999D01*
X35422019Y-95514999D02*
X35517257Y-95686428D01*
X35517257Y-95686428D02*
X35517257Y-96372142D01*
X34469638Y-93800714D02*
X34469638Y-94143571D01*
X34469638Y-94143571D02*
X34564876Y-94314999D01*
X34564876Y-94314999D02*
X34660114Y-94400714D01*
X34660114Y-94400714D02*
X34945828Y-94572142D01*
X34945828Y-94572142D02*
X35326780Y-94657856D01*
X35326780Y-94657856D02*
X36088685Y-94657856D01*
X36088685Y-94657856D02*
X36279161Y-94572142D01*
X36279161Y-94572142D02*
X36374400Y-94486428D01*
X36374400Y-94486428D02*
X36469638Y-94314999D01*
X36469638Y-94314999D02*
X36469638Y-93972142D01*
X36469638Y-93972142D02*
X36374400Y-93800714D01*
X36374400Y-93800714D02*
X36279161Y-93714999D01*
X36279161Y-93714999D02*
X36088685Y-93629285D01*
X36088685Y-93629285D02*
X35612495Y-93629285D01*
X35612495Y-93629285D02*
X35422019Y-93714999D01*
X35422019Y-93714999D02*
X35326780Y-93800714D01*
X35326780Y-93800714D02*
X35231542Y-93972142D01*
X35231542Y-93972142D02*
X35231542Y-94314999D01*
X35231542Y-94314999D02*
X35326780Y-94486428D01*
X35326780Y-94486428D02*
X35422019Y-94572142D01*
X35422019Y-94572142D02*
X35612495Y-94657856D01*
X34469638Y-92772142D02*
X34850590Y-92943570D01*
X54249638Y-95343571D02*
X53297257Y-95943571D01*
X54249638Y-96372142D02*
X52249638Y-96372142D01*
X52249638Y-96372142D02*
X52249638Y-95686428D01*
X52249638Y-95686428D02*
X52344876Y-95514999D01*
X52344876Y-95514999D02*
X52440114Y-95429285D01*
X52440114Y-95429285D02*
X52630590Y-95343571D01*
X52630590Y-95343571D02*
X52916304Y-95343571D01*
X52916304Y-95343571D02*
X53106780Y-95429285D01*
X53106780Y-95429285D02*
X53202019Y-95514999D01*
X53202019Y-95514999D02*
X53297257Y-95686428D01*
X53297257Y-95686428D02*
X53297257Y-96372142D01*
X52249638Y-93714999D02*
X52249638Y-94572142D01*
X52249638Y-94572142D02*
X53202019Y-94657856D01*
X53202019Y-94657856D02*
X53106780Y-94572142D01*
X53106780Y-94572142D02*
X53011542Y-94400714D01*
X53011542Y-94400714D02*
X53011542Y-93972142D01*
X53011542Y-93972142D02*
X53106780Y-93800714D01*
X53106780Y-93800714D02*
X53202019Y-93714999D01*
X53202019Y-93714999D02*
X53392495Y-93629285D01*
X53392495Y-93629285D02*
X53868685Y-93629285D01*
X53868685Y-93629285D02*
X54059161Y-93714999D01*
X54059161Y-93714999D02*
X54154400Y-93800714D01*
X54154400Y-93800714D02*
X54249638Y-93972142D01*
X54249638Y-93972142D02*
X54249638Y-94400714D01*
X54249638Y-94400714D02*
X54154400Y-94572142D01*
X54154400Y-94572142D02*
X54059161Y-94657856D01*
X52249638Y-92772142D02*
X52630590Y-92943570D01*
X72029638Y-95343571D02*
X71077257Y-95943571D01*
X72029638Y-96372142D02*
X70029638Y-96372142D01*
X70029638Y-96372142D02*
X70029638Y-95686428D01*
X70029638Y-95686428D02*
X70124876Y-95514999D01*
X70124876Y-95514999D02*
X70220114Y-95429285D01*
X70220114Y-95429285D02*
X70410590Y-95343571D01*
X70410590Y-95343571D02*
X70696304Y-95343571D01*
X70696304Y-95343571D02*
X70886780Y-95429285D01*
X70886780Y-95429285D02*
X70982019Y-95514999D01*
X70982019Y-95514999D02*
X71077257Y-95686428D01*
X71077257Y-95686428D02*
X71077257Y-96372142D01*
X70696304Y-93800714D02*
X72029638Y-93800714D01*
X69934400Y-94229285D02*
X71362971Y-94657856D01*
X71362971Y-94657856D02*
X71362971Y-93543571D01*
X70029638Y-92772142D02*
X70410590Y-92943570D01*
X89809638Y-95343571D02*
X88857257Y-95943571D01*
X89809638Y-96372142D02*
X87809638Y-96372142D01*
X87809638Y-96372142D02*
X87809638Y-95686428D01*
X87809638Y-95686428D02*
X87904876Y-95514999D01*
X87904876Y-95514999D02*
X88000114Y-95429285D01*
X88000114Y-95429285D02*
X88190590Y-95343571D01*
X88190590Y-95343571D02*
X88476304Y-95343571D01*
X88476304Y-95343571D02*
X88666780Y-95429285D01*
X88666780Y-95429285D02*
X88762019Y-95514999D01*
X88762019Y-95514999D02*
X88857257Y-95686428D01*
X88857257Y-95686428D02*
X88857257Y-96372142D01*
X87809638Y-94743571D02*
X87809638Y-93629285D01*
X87809638Y-93629285D02*
X88571542Y-94229285D01*
X88571542Y-94229285D02*
X88571542Y-93972142D01*
X88571542Y-93972142D02*
X88666780Y-93800714D01*
X88666780Y-93800714D02*
X88762019Y-93714999D01*
X88762019Y-93714999D02*
X88952495Y-93629285D01*
X88952495Y-93629285D02*
X89428685Y-93629285D01*
X89428685Y-93629285D02*
X89619161Y-93714999D01*
X89619161Y-93714999D02*
X89714400Y-93800714D01*
X89714400Y-93800714D02*
X89809638Y-93972142D01*
X89809638Y-93972142D02*
X89809638Y-94486428D01*
X89809638Y-94486428D02*
X89714400Y-94657856D01*
X89714400Y-94657856D02*
X89619161Y-94743571D01*
X87809638Y-92772142D02*
X88190590Y-92943570D01*
X107589638Y-95343571D02*
X106637257Y-95943571D01*
X107589638Y-96372142D02*
X105589638Y-96372142D01*
X105589638Y-96372142D02*
X105589638Y-95686428D01*
X105589638Y-95686428D02*
X105684876Y-95514999D01*
X105684876Y-95514999D02*
X105780114Y-95429285D01*
X105780114Y-95429285D02*
X105970590Y-95343571D01*
X105970590Y-95343571D02*
X106256304Y-95343571D01*
X106256304Y-95343571D02*
X106446780Y-95429285D01*
X106446780Y-95429285D02*
X106542019Y-95514999D01*
X106542019Y-95514999D02*
X106637257Y-95686428D01*
X106637257Y-95686428D02*
X106637257Y-96372142D01*
X105780114Y-94657856D02*
X105684876Y-94572142D01*
X105684876Y-94572142D02*
X105589638Y-94400714D01*
X105589638Y-94400714D02*
X105589638Y-93972142D01*
X105589638Y-93972142D02*
X105684876Y-93800714D01*
X105684876Y-93800714D02*
X105780114Y-93714999D01*
X105780114Y-93714999D02*
X105970590Y-93629285D01*
X105970590Y-93629285D02*
X106161066Y-93629285D01*
X106161066Y-93629285D02*
X106446780Y-93714999D01*
X106446780Y-93714999D02*
X107589638Y-94743571D01*
X107589638Y-94743571D02*
X107589638Y-93629285D01*
X105589638Y-92772142D02*
X105970590Y-92943570D01*
X125369638Y-95343571D02*
X124417257Y-95943571D01*
X125369638Y-96372142D02*
X123369638Y-96372142D01*
X123369638Y-96372142D02*
X123369638Y-95686428D01*
X123369638Y-95686428D02*
X123464876Y-95514999D01*
X123464876Y-95514999D02*
X123560114Y-95429285D01*
X123560114Y-95429285D02*
X123750590Y-95343571D01*
X123750590Y-95343571D02*
X124036304Y-95343571D01*
X124036304Y-95343571D02*
X124226780Y-95429285D01*
X124226780Y-95429285D02*
X124322019Y-95514999D01*
X124322019Y-95514999D02*
X124417257Y-95686428D01*
X124417257Y-95686428D02*
X124417257Y-96372142D01*
X125369638Y-93629285D02*
X125369638Y-94657856D01*
X125369638Y-94143571D02*
X123369638Y-94143571D01*
X123369638Y-94143571D02*
X123655352Y-94314999D01*
X123655352Y-94314999D02*
X123845828Y-94486428D01*
X123845828Y-94486428D02*
X123941066Y-94657856D01*
X123369638Y-92772142D02*
X123750590Y-92943570D01*
X145956428Y-101874638D02*
X145356428Y-100922257D01*
X144927857Y-101874638D02*
X144927857Y-99874638D01*
X144927857Y-99874638D02*
X145613571Y-99874638D01*
X145613571Y-99874638D02*
X145785000Y-99969876D01*
X145785000Y-99969876D02*
X145870714Y-100065114D01*
X145870714Y-100065114D02*
X145956428Y-100255590D01*
X145956428Y-100255590D02*
X145956428Y-100541304D01*
X145956428Y-100541304D02*
X145870714Y-100731780D01*
X145870714Y-100731780D02*
X145785000Y-100827019D01*
X145785000Y-100827019D02*
X145613571Y-100922257D01*
X145613571Y-100922257D02*
X144927857Y-100922257D01*
X147070714Y-99874638D02*
X147242143Y-99874638D01*
X147242143Y-99874638D02*
X147413571Y-99969876D01*
X147413571Y-99969876D02*
X147499286Y-100065114D01*
X147499286Y-100065114D02*
X147585000Y-100255590D01*
X147585000Y-100255590D02*
X147670714Y-100636542D01*
X147670714Y-100636542D02*
X147670714Y-101112733D01*
X147670714Y-101112733D02*
X147585000Y-101493685D01*
X147585000Y-101493685D02*
X147499286Y-101684161D01*
X147499286Y-101684161D02*
X147413571Y-101779400D01*
X147413571Y-101779400D02*
X147242143Y-101874638D01*
X147242143Y-101874638D02*
X147070714Y-101874638D01*
X147070714Y-101874638D02*
X146899286Y-101779400D01*
X146899286Y-101779400D02*
X146813571Y-101684161D01*
X146813571Y-101684161D02*
X146727857Y-101493685D01*
X146727857Y-101493685D02*
X146642143Y-101112733D01*
X146642143Y-101112733D02*
X146642143Y-100636542D01*
X146642143Y-100636542D02*
X146727857Y-100255590D01*
X146727857Y-100255590D02*
X146813571Y-100065114D01*
X146813571Y-100065114D02*
X146899286Y-99969876D01*
X146899286Y-99969876D02*
X147070714Y-99874638D01*
X148527857Y-99874638D02*
X148356429Y-100255590D01*
D13*
X87106190Y-100467319D02*
X86772857Y-99991128D01*
X86534762Y-100467319D02*
X86534762Y-99467319D01*
X86534762Y-99467319D02*
X86915714Y-99467319D01*
X86915714Y-99467319D02*
X87010952Y-99514938D01*
X87010952Y-99514938D02*
X87058571Y-99562557D01*
X87058571Y-99562557D02*
X87106190Y-99657795D01*
X87106190Y-99657795D02*
X87106190Y-99800652D01*
X87106190Y-99800652D02*
X87058571Y-99895890D01*
X87058571Y-99895890D02*
X87010952Y-99943509D01*
X87010952Y-99943509D02*
X86915714Y-99991128D01*
X86915714Y-99991128D02*
X86534762Y-99991128D01*
X87915714Y-100419700D02*
X87820476Y-100467319D01*
X87820476Y-100467319D02*
X87630000Y-100467319D01*
X87630000Y-100467319D02*
X87534762Y-100419700D01*
X87534762Y-100419700D02*
X87487143Y-100324461D01*
X87487143Y-100324461D02*
X87487143Y-99943509D01*
X87487143Y-99943509D02*
X87534762Y-99848271D01*
X87534762Y-99848271D02*
X87630000Y-99800652D01*
X87630000Y-99800652D02*
X87820476Y-99800652D01*
X87820476Y-99800652D02*
X87915714Y-99848271D01*
X87915714Y-99848271D02*
X87963333Y-99943509D01*
X87963333Y-99943509D02*
X87963333Y-100038747D01*
X87963333Y-100038747D02*
X87487143Y-100133985D01*
X88344286Y-100419700D02*
X88439524Y-100467319D01*
X88439524Y-100467319D02*
X88630000Y-100467319D01*
X88630000Y-100467319D02*
X88725238Y-100419700D01*
X88725238Y-100419700D02*
X88772857Y-100324461D01*
X88772857Y-100324461D02*
X88772857Y-100276842D01*
X88772857Y-100276842D02*
X88725238Y-100181604D01*
X88725238Y-100181604D02*
X88630000Y-100133985D01*
X88630000Y-100133985D02*
X88487143Y-100133985D01*
X88487143Y-100133985D02*
X88391905Y-100086366D01*
X88391905Y-100086366D02*
X88344286Y-99991128D01*
X88344286Y-99991128D02*
X88344286Y-99943509D01*
X88344286Y-99943509D02*
X88391905Y-99848271D01*
X88391905Y-99848271D02*
X88487143Y-99800652D01*
X88487143Y-99800652D02*
X88630000Y-99800652D01*
X88630000Y-99800652D02*
X88725238Y-99848271D01*
X86396667Y-99189700D02*
X88863334Y-99189700D01*
X46545714Y-102631037D02*
X46688571Y-102678656D01*
X46688571Y-102678656D02*
X46736190Y-102726275D01*
X46736190Y-102726275D02*
X46783809Y-102821513D01*
X46783809Y-102821513D02*
X46783809Y-102964370D01*
X46783809Y-102964370D02*
X46736190Y-103059608D01*
X46736190Y-103059608D02*
X46688571Y-103107228D01*
X46688571Y-103107228D02*
X46593333Y-103154847D01*
X46593333Y-103154847D02*
X46212381Y-103154847D01*
X46212381Y-103154847D02*
X46212381Y-102154847D01*
X46212381Y-102154847D02*
X46545714Y-102154847D01*
X46545714Y-102154847D02*
X46640952Y-102202466D01*
X46640952Y-102202466D02*
X46688571Y-102250085D01*
X46688571Y-102250085D02*
X46736190Y-102345323D01*
X46736190Y-102345323D02*
X46736190Y-102440561D01*
X46736190Y-102440561D02*
X46688571Y-102535799D01*
X46688571Y-102535799D02*
X46640952Y-102583418D01*
X46640952Y-102583418D02*
X46545714Y-102631037D01*
X46545714Y-102631037D02*
X46212381Y-102631037D01*
X47640952Y-103154847D02*
X47640952Y-102631037D01*
X47640952Y-102631037D02*
X47593333Y-102535799D01*
X47593333Y-102535799D02*
X47498095Y-102488180D01*
X47498095Y-102488180D02*
X47307619Y-102488180D01*
X47307619Y-102488180D02*
X47212381Y-102535799D01*
X47640952Y-103107228D02*
X47545714Y-103154847D01*
X47545714Y-103154847D02*
X47307619Y-103154847D01*
X47307619Y-103154847D02*
X47212381Y-103107228D01*
X47212381Y-103107228D02*
X47164762Y-103011989D01*
X47164762Y-103011989D02*
X47164762Y-102916751D01*
X47164762Y-102916751D02*
X47212381Y-102821513D01*
X47212381Y-102821513D02*
X47307619Y-102773894D01*
X47307619Y-102773894D02*
X47545714Y-102773894D01*
X47545714Y-102773894D02*
X47640952Y-102726275D01*
X48117143Y-102488180D02*
X48117143Y-103154847D01*
X48117143Y-102583418D02*
X48164762Y-102535799D01*
X48164762Y-102535799D02*
X48260000Y-102488180D01*
X48260000Y-102488180D02*
X48402857Y-102488180D01*
X48402857Y-102488180D02*
X48498095Y-102535799D01*
X48498095Y-102535799D02*
X48545714Y-102631037D01*
X48545714Y-102631037D02*
X48545714Y-103154847D01*
X49021905Y-103154847D02*
X49021905Y-102154847D01*
X49117143Y-102773894D02*
X49402857Y-103154847D01*
X49402857Y-102488180D02*
X49021905Y-102869132D01*
X50355238Y-103154847D02*
X49783810Y-103154847D01*
X50069524Y-103154847D02*
X50069524Y-102154847D01*
X50069524Y-102154847D02*
X49974286Y-102297704D01*
X49974286Y-102297704D02*
X49879048Y-102392942D01*
X49879048Y-102392942D02*
X49783810Y-102440561D01*
X45283809Y-104764791D02*
X45283809Y-104098124D01*
X45283809Y-103764791D02*
X45236190Y-103812410D01*
X45236190Y-103812410D02*
X45283809Y-103860029D01*
X45283809Y-103860029D02*
X45331428Y-103812410D01*
X45331428Y-103812410D02*
X45283809Y-103764791D01*
X45283809Y-103764791D02*
X45283809Y-103860029D01*
X45712380Y-104717172D02*
X45807618Y-104764791D01*
X45807618Y-104764791D02*
X45998094Y-104764791D01*
X45998094Y-104764791D02*
X46093332Y-104717172D01*
X46093332Y-104717172D02*
X46140951Y-104621933D01*
X46140951Y-104621933D02*
X46140951Y-104574314D01*
X46140951Y-104574314D02*
X46093332Y-104479076D01*
X46093332Y-104479076D02*
X45998094Y-104431457D01*
X45998094Y-104431457D02*
X45855237Y-104431457D01*
X45855237Y-104431457D02*
X45759999Y-104383838D01*
X45759999Y-104383838D02*
X45712380Y-104288600D01*
X45712380Y-104288600D02*
X45712380Y-104240981D01*
X45712380Y-104240981D02*
X45759999Y-104145743D01*
X45759999Y-104145743D02*
X45855237Y-104098124D01*
X45855237Y-104098124D02*
X45998094Y-104098124D01*
X45998094Y-104098124D02*
X46093332Y-104145743D01*
X47283809Y-104479076D02*
X47759999Y-104479076D01*
X47188571Y-104764791D02*
X47521904Y-103764791D01*
X47521904Y-103764791D02*
X47855237Y-104764791D01*
X48617142Y-104717172D02*
X48521904Y-104764791D01*
X48521904Y-104764791D02*
X48331428Y-104764791D01*
X48331428Y-104764791D02*
X48236190Y-104717172D01*
X48236190Y-104717172D02*
X48188571Y-104669552D01*
X48188571Y-104669552D02*
X48140952Y-104574314D01*
X48140952Y-104574314D02*
X48140952Y-104288600D01*
X48140952Y-104288600D02*
X48188571Y-104193362D01*
X48188571Y-104193362D02*
X48236190Y-104145743D01*
X48236190Y-104145743D02*
X48331428Y-104098124D01*
X48331428Y-104098124D02*
X48521904Y-104098124D01*
X48521904Y-104098124D02*
X48617142Y-104145743D01*
X48902857Y-104098124D02*
X49283809Y-104098124D01*
X49045714Y-103764791D02*
X49045714Y-104621933D01*
X49045714Y-104621933D02*
X49093333Y-104717172D01*
X49093333Y-104717172D02*
X49188571Y-104764791D01*
X49188571Y-104764791D02*
X49283809Y-104764791D01*
X49617143Y-104764791D02*
X49617143Y-104098124D01*
X49617143Y-103764791D02*
X49569524Y-103812410D01*
X49569524Y-103812410D02*
X49617143Y-103860029D01*
X49617143Y-103860029D02*
X49664762Y-103812410D01*
X49664762Y-103812410D02*
X49617143Y-103764791D01*
X49617143Y-103764791D02*
X49617143Y-103860029D01*
X49998095Y-104098124D02*
X50236190Y-104764791D01*
X50236190Y-104764791D02*
X50474285Y-104098124D01*
X51236190Y-104717172D02*
X51140952Y-104764791D01*
X51140952Y-104764791D02*
X50950476Y-104764791D01*
X50950476Y-104764791D02*
X50855238Y-104717172D01*
X50855238Y-104717172D02*
X50807619Y-104621933D01*
X50807619Y-104621933D02*
X50807619Y-104240981D01*
X50807619Y-104240981D02*
X50855238Y-104145743D01*
X50855238Y-104145743D02*
X50950476Y-104098124D01*
X50950476Y-104098124D02*
X51140952Y-104098124D01*
X51140952Y-104098124D02*
X51236190Y-104145743D01*
X51236190Y-104145743D02*
X51283809Y-104240981D01*
X51283809Y-104240981D02*
X51283809Y-104336219D01*
X51283809Y-104336219D02*
X50807619Y-104431457D01*
X21409819Y-81756189D02*
X20409819Y-81756189D01*
X21409819Y-80756190D02*
X21409819Y-81327618D01*
X21409819Y-81041904D02*
X20409819Y-81041904D01*
X20409819Y-81041904D02*
X20552676Y-81137142D01*
X20552676Y-81137142D02*
X20647914Y-81232380D01*
X20647914Y-81232380D02*
X20695533Y-81327618D01*
X21409819Y-74183809D02*
X20933628Y-74517142D01*
X21409819Y-74755237D02*
X20409819Y-74755237D01*
X20409819Y-74755237D02*
X20409819Y-74374285D01*
X20409819Y-74374285D02*
X20457438Y-74279047D01*
X20457438Y-74279047D02*
X20505057Y-74231428D01*
X20505057Y-74231428D02*
X20600295Y-74183809D01*
X20600295Y-74183809D02*
X20743152Y-74183809D01*
X20743152Y-74183809D02*
X20838390Y-74231428D01*
X20838390Y-74231428D02*
X20886009Y-74279047D01*
X20886009Y-74279047D02*
X20933628Y-74374285D01*
X20933628Y-74374285D02*
X20933628Y-74755237D01*
X21362200Y-73374285D02*
X21409819Y-73469523D01*
X21409819Y-73469523D02*
X21409819Y-73659999D01*
X21409819Y-73659999D02*
X21362200Y-73755237D01*
X21362200Y-73755237D02*
X21266961Y-73802856D01*
X21266961Y-73802856D02*
X20886009Y-73802856D01*
X20886009Y-73802856D02*
X20790771Y-73755237D01*
X20790771Y-73755237D02*
X20743152Y-73659999D01*
X20743152Y-73659999D02*
X20743152Y-73469523D01*
X20743152Y-73469523D02*
X20790771Y-73374285D01*
X20790771Y-73374285D02*
X20886009Y-73326666D01*
X20886009Y-73326666D02*
X20981247Y-73326666D01*
X20981247Y-73326666D02*
X21076485Y-73802856D01*
X21362200Y-72945713D02*
X21409819Y-72850475D01*
X21409819Y-72850475D02*
X21409819Y-72659999D01*
X21409819Y-72659999D02*
X21362200Y-72564761D01*
X21362200Y-72564761D02*
X21266961Y-72517142D01*
X21266961Y-72517142D02*
X21219342Y-72517142D01*
X21219342Y-72517142D02*
X21124104Y-72564761D01*
X21124104Y-72564761D02*
X21076485Y-72659999D01*
X21076485Y-72659999D02*
X21076485Y-72802856D01*
X21076485Y-72802856D02*
X21028866Y-72898094D01*
X21028866Y-72898094D02*
X20933628Y-72945713D01*
X20933628Y-72945713D02*
X20886009Y-72945713D01*
X20886009Y-72945713D02*
X20790771Y-72898094D01*
X20790771Y-72898094D02*
X20743152Y-72802856D01*
X20743152Y-72802856D02*
X20743152Y-72659999D01*
X20743152Y-72659999D02*
X20790771Y-72564761D01*
X20132200Y-74893333D02*
X20132200Y-72426666D01*
X80099819Y-110092975D02*
X81099819Y-109759642D01*
X81099819Y-109759642D02*
X80099819Y-109426309D01*
X81052200Y-108664404D02*
X81099819Y-108759642D01*
X81099819Y-108759642D02*
X81099819Y-108950118D01*
X81099819Y-108950118D02*
X81052200Y-109045356D01*
X81052200Y-109045356D02*
X81004580Y-109092975D01*
X81004580Y-109092975D02*
X80909342Y-109140594D01*
X80909342Y-109140594D02*
X80623628Y-109140594D01*
X80623628Y-109140594D02*
X80528390Y-109092975D01*
X80528390Y-109092975D02*
X80480771Y-109045356D01*
X80480771Y-109045356D02*
X80433152Y-108950118D01*
X80433152Y-108950118D02*
X80433152Y-108759642D01*
X80433152Y-108759642D02*
X80480771Y-108664404D01*
X81052200Y-107807261D02*
X81099819Y-107902499D01*
X81099819Y-107902499D02*
X81099819Y-108092975D01*
X81099819Y-108092975D02*
X81052200Y-108188213D01*
X81052200Y-108188213D02*
X81004580Y-108235832D01*
X81004580Y-108235832D02*
X80909342Y-108283451D01*
X80909342Y-108283451D02*
X80623628Y-108283451D01*
X80623628Y-108283451D02*
X80528390Y-108235832D01*
X80528390Y-108235832D02*
X80480771Y-108188213D01*
X80480771Y-108188213D02*
X80433152Y-108092975D01*
X80433152Y-108092975D02*
X80433152Y-107902499D01*
X80433152Y-107902499D02*
X80480771Y-107807261D01*
X29321190Y-76654819D02*
X28987857Y-76178628D01*
X28749762Y-76654819D02*
X28749762Y-75654819D01*
X28749762Y-75654819D02*
X29130714Y-75654819D01*
X29130714Y-75654819D02*
X29225952Y-75702438D01*
X29225952Y-75702438D02*
X29273571Y-75750057D01*
X29273571Y-75750057D02*
X29321190Y-75845295D01*
X29321190Y-75845295D02*
X29321190Y-75988152D01*
X29321190Y-75988152D02*
X29273571Y-76083390D01*
X29273571Y-76083390D02*
X29225952Y-76131009D01*
X29225952Y-76131009D02*
X29130714Y-76178628D01*
X29130714Y-76178628D02*
X28749762Y-76178628D01*
X30130714Y-76607200D02*
X30035476Y-76654819D01*
X30035476Y-76654819D02*
X29845000Y-76654819D01*
X29845000Y-76654819D02*
X29749762Y-76607200D01*
X29749762Y-76607200D02*
X29702143Y-76511961D01*
X29702143Y-76511961D02*
X29702143Y-76131009D01*
X29702143Y-76131009D02*
X29749762Y-76035771D01*
X29749762Y-76035771D02*
X29845000Y-75988152D01*
X29845000Y-75988152D02*
X30035476Y-75988152D01*
X30035476Y-75988152D02*
X30130714Y-76035771D01*
X30130714Y-76035771D02*
X30178333Y-76131009D01*
X30178333Y-76131009D02*
X30178333Y-76226247D01*
X30178333Y-76226247D02*
X29702143Y-76321485D01*
X30559286Y-76607200D02*
X30654524Y-76654819D01*
X30654524Y-76654819D02*
X30845000Y-76654819D01*
X30845000Y-76654819D02*
X30940238Y-76607200D01*
X30940238Y-76607200D02*
X30987857Y-76511961D01*
X30987857Y-76511961D02*
X30987857Y-76464342D01*
X30987857Y-76464342D02*
X30940238Y-76369104D01*
X30940238Y-76369104D02*
X30845000Y-76321485D01*
X30845000Y-76321485D02*
X30702143Y-76321485D01*
X30702143Y-76321485D02*
X30606905Y-76273866D01*
X30606905Y-76273866D02*
X30559286Y-76178628D01*
X30559286Y-76178628D02*
X30559286Y-76131009D01*
X30559286Y-76131009D02*
X30606905Y-76035771D01*
X30606905Y-76035771D02*
X30702143Y-75988152D01*
X30702143Y-75988152D02*
X30845000Y-75988152D01*
X30845000Y-75988152D02*
X30940238Y-76035771D01*
X28611667Y-75377200D02*
X31078334Y-75377200D01*
X27289286Y-108023866D02*
X28051191Y-108023866D01*
X27670238Y-108404819D02*
X27670238Y-107642914D01*
X29003571Y-107404819D02*
X28527381Y-107404819D01*
X28527381Y-107404819D02*
X28479762Y-107881009D01*
X28479762Y-107881009D02*
X28527381Y-107833390D01*
X28527381Y-107833390D02*
X28622619Y-107785771D01*
X28622619Y-107785771D02*
X28860714Y-107785771D01*
X28860714Y-107785771D02*
X28955952Y-107833390D01*
X28955952Y-107833390D02*
X29003571Y-107881009D01*
X29003571Y-107881009D02*
X29051190Y-107976247D01*
X29051190Y-107976247D02*
X29051190Y-108214342D01*
X29051190Y-108214342D02*
X29003571Y-108309580D01*
X29003571Y-108309580D02*
X28955952Y-108357200D01*
X28955952Y-108357200D02*
X28860714Y-108404819D01*
X28860714Y-108404819D02*
X28622619Y-108404819D01*
X28622619Y-108404819D02*
X28527381Y-108357200D01*
X28527381Y-108357200D02*
X28479762Y-108309580D01*
X29336905Y-107404819D02*
X29670238Y-108404819D01*
X29670238Y-108404819D02*
X30003571Y-107404819D01*
X20409819Y-51371428D02*
X20409819Y-51180952D01*
X20409819Y-51180952D02*
X20457438Y-51085714D01*
X20457438Y-51085714D02*
X20552676Y-50990476D01*
X20552676Y-50990476D02*
X20743152Y-50942857D01*
X20743152Y-50942857D02*
X21076485Y-50942857D01*
X21076485Y-50942857D02*
X21266961Y-50990476D01*
X21266961Y-50990476D02*
X21362200Y-51085714D01*
X21362200Y-51085714D02*
X21409819Y-51180952D01*
X21409819Y-51180952D02*
X21409819Y-51371428D01*
X21409819Y-51371428D02*
X21362200Y-51466666D01*
X21362200Y-51466666D02*
X21266961Y-51561904D01*
X21266961Y-51561904D02*
X21076485Y-51609523D01*
X21076485Y-51609523D02*
X20743152Y-51609523D01*
X20743152Y-51609523D02*
X20552676Y-51561904D01*
X20552676Y-51561904D02*
X20457438Y-51466666D01*
X20457438Y-51466666D02*
X20409819Y-51371428D01*
X20743152Y-50085714D02*
X21409819Y-50085714D01*
X20362200Y-50323809D02*
X21076485Y-50561904D01*
X21076485Y-50561904D02*
X21076485Y-49942857D01*
D11*
X141244638Y-95583333D02*
X140292257Y-96250000D01*
X141244638Y-96726190D02*
X139244638Y-96726190D01*
X139244638Y-96726190D02*
X139244638Y-95964285D01*
X139244638Y-95964285D02*
X139339876Y-95773809D01*
X139339876Y-95773809D02*
X139435114Y-95678571D01*
X139435114Y-95678571D02*
X139625590Y-95583333D01*
X139625590Y-95583333D02*
X139911304Y-95583333D01*
X139911304Y-95583333D02*
X140101780Y-95678571D01*
X140101780Y-95678571D02*
X140197019Y-95773809D01*
X140197019Y-95773809D02*
X140292257Y-95964285D01*
X140292257Y-95964285D02*
X140292257Y-96726190D01*
X141244638Y-93678571D02*
X141244638Y-94821428D01*
X141244638Y-94250000D02*
X139244638Y-94250000D01*
X139244638Y-94250000D02*
X139530352Y-94440476D01*
X139530352Y-94440476D02*
X139720828Y-94630952D01*
X139720828Y-94630952D02*
X139816066Y-94821428D01*
D13*
X20409819Y-66595475D02*
X21409819Y-66262142D01*
X21409819Y-66262142D02*
X20409819Y-65928809D01*
X21362200Y-65166904D02*
X21409819Y-65262142D01*
X21409819Y-65262142D02*
X21409819Y-65452618D01*
X21409819Y-65452618D02*
X21362200Y-65547856D01*
X21362200Y-65547856D02*
X21314580Y-65595475D01*
X21314580Y-65595475D02*
X21219342Y-65643094D01*
X21219342Y-65643094D02*
X20933628Y-65643094D01*
X20933628Y-65643094D02*
X20838390Y-65595475D01*
X20838390Y-65595475D02*
X20790771Y-65547856D01*
X20790771Y-65547856D02*
X20743152Y-65452618D01*
X20743152Y-65452618D02*
X20743152Y-65262142D01*
X20743152Y-65262142D02*
X20790771Y-65166904D01*
X21362200Y-64309761D02*
X21409819Y-64404999D01*
X21409819Y-64404999D02*
X21409819Y-64595475D01*
X21409819Y-64595475D02*
X21362200Y-64690713D01*
X21362200Y-64690713D02*
X21314580Y-64738332D01*
X21314580Y-64738332D02*
X21219342Y-64785951D01*
X21219342Y-64785951D02*
X20933628Y-64785951D01*
X20933628Y-64785951D02*
X20838390Y-64738332D01*
X20838390Y-64738332D02*
X20790771Y-64690713D01*
X20790771Y-64690713D02*
X20743152Y-64595475D01*
X20743152Y-64595475D02*
X20743152Y-64404999D01*
X20743152Y-64404999D02*
X20790771Y-64309761D01*
X21409819Y-91916189D02*
X20409819Y-91916189D01*
X20409819Y-90963809D02*
X20409819Y-91439999D01*
X20409819Y-91439999D02*
X20886009Y-91487618D01*
X20886009Y-91487618D02*
X20838390Y-91439999D01*
X20838390Y-91439999D02*
X20790771Y-91344761D01*
X20790771Y-91344761D02*
X20790771Y-91106666D01*
X20790771Y-91106666D02*
X20838390Y-91011428D01*
X20838390Y-91011428D02*
X20886009Y-90963809D01*
X20886009Y-90963809D02*
X20981247Y-90916190D01*
X20981247Y-90916190D02*
X21219342Y-90916190D01*
X21219342Y-90916190D02*
X21314580Y-90963809D01*
X21314580Y-90963809D02*
X21362200Y-91011428D01*
X21362200Y-91011428D02*
X21409819Y-91106666D01*
X21409819Y-91106666D02*
X21409819Y-91344761D01*
X21409819Y-91344761D02*
X21362200Y-91439999D01*
X21362200Y-91439999D02*
X21314580Y-91487618D01*
D11*
X50439638Y-94948333D02*
X49487257Y-95615000D01*
X50439638Y-96091190D02*
X48439638Y-96091190D01*
X48439638Y-96091190D02*
X48439638Y-95329285D01*
X48439638Y-95329285D02*
X48534876Y-95138809D01*
X48534876Y-95138809D02*
X48630114Y-95043571D01*
X48630114Y-95043571D02*
X48820590Y-94948333D01*
X48820590Y-94948333D02*
X49106304Y-94948333D01*
X49106304Y-94948333D02*
X49296780Y-95043571D01*
X49296780Y-95043571D02*
X49392019Y-95138809D01*
X49392019Y-95138809D02*
X49487257Y-95329285D01*
X49487257Y-95329285D02*
X49487257Y-96091190D01*
X48439638Y-93234047D02*
X48439638Y-93615000D01*
X48439638Y-93615000D02*
X48534876Y-93805476D01*
X48534876Y-93805476D02*
X48630114Y-93900714D01*
X48630114Y-93900714D02*
X48915828Y-94091190D01*
X48915828Y-94091190D02*
X49296780Y-94186428D01*
X49296780Y-94186428D02*
X50058685Y-94186428D01*
X50058685Y-94186428D02*
X50249161Y-94091190D01*
X50249161Y-94091190D02*
X50344400Y-93995952D01*
X50344400Y-93995952D02*
X50439638Y-93805476D01*
X50439638Y-93805476D02*
X50439638Y-93424523D01*
X50439638Y-93424523D02*
X50344400Y-93234047D01*
X50344400Y-93234047D02*
X50249161Y-93138809D01*
X50249161Y-93138809D02*
X50058685Y-93043571D01*
X50058685Y-93043571D02*
X49582495Y-93043571D01*
X49582495Y-93043571D02*
X49392019Y-93138809D01*
X49392019Y-93138809D02*
X49296780Y-93234047D01*
X49296780Y-93234047D02*
X49201542Y-93424523D01*
X49201542Y-93424523D02*
X49201542Y-93805476D01*
X49201542Y-93805476D02*
X49296780Y-93995952D01*
X49296780Y-93995952D02*
X49392019Y-94091190D01*
X49392019Y-94091190D02*
X49582495Y-94186428D01*
D13*
X21314580Y-33424762D02*
X21362200Y-33472381D01*
X21362200Y-33472381D02*
X21409819Y-33615238D01*
X21409819Y-33615238D02*
X21409819Y-33710476D01*
X21409819Y-33710476D02*
X21362200Y-33853333D01*
X21362200Y-33853333D02*
X21266961Y-33948571D01*
X21266961Y-33948571D02*
X21171723Y-33996190D01*
X21171723Y-33996190D02*
X20981247Y-34043809D01*
X20981247Y-34043809D02*
X20838390Y-34043809D01*
X20838390Y-34043809D02*
X20647914Y-33996190D01*
X20647914Y-33996190D02*
X20552676Y-33948571D01*
X20552676Y-33948571D02*
X20457438Y-33853333D01*
X20457438Y-33853333D02*
X20409819Y-33710476D01*
X20409819Y-33710476D02*
X20409819Y-33615238D01*
X20409819Y-33615238D02*
X20457438Y-33472381D01*
X20457438Y-33472381D02*
X20505057Y-33424762D01*
X21409819Y-32853333D02*
X21362200Y-32948571D01*
X21362200Y-32948571D02*
X21314580Y-32996190D01*
X21314580Y-32996190D02*
X21219342Y-33043809D01*
X21219342Y-33043809D02*
X20933628Y-33043809D01*
X20933628Y-33043809D02*
X20838390Y-32996190D01*
X20838390Y-32996190D02*
X20790771Y-32948571D01*
X20790771Y-32948571D02*
X20743152Y-32853333D01*
X20743152Y-32853333D02*
X20743152Y-32710476D01*
X20743152Y-32710476D02*
X20790771Y-32615238D01*
X20790771Y-32615238D02*
X20838390Y-32567619D01*
X20838390Y-32567619D02*
X20933628Y-32520000D01*
X20933628Y-32520000D02*
X21219342Y-32520000D01*
X21219342Y-32520000D02*
X21314580Y-32567619D01*
X21314580Y-32567619D02*
X21362200Y-32615238D01*
X21362200Y-32615238D02*
X21409819Y-32710476D01*
X21409819Y-32710476D02*
X21409819Y-32853333D01*
X21409819Y-31948571D02*
X21362200Y-32043809D01*
X21362200Y-32043809D02*
X21266961Y-32091428D01*
X21266961Y-32091428D02*
X20409819Y-32091428D01*
X20132200Y-34134286D02*
X20132200Y-31905714D01*
X125206190Y-77289819D02*
X124872857Y-76813628D01*
X124634762Y-77289819D02*
X124634762Y-76289819D01*
X124634762Y-76289819D02*
X125015714Y-76289819D01*
X125015714Y-76289819D02*
X125110952Y-76337438D01*
X125110952Y-76337438D02*
X125158571Y-76385057D01*
X125158571Y-76385057D02*
X125206190Y-76480295D01*
X125206190Y-76480295D02*
X125206190Y-76623152D01*
X125206190Y-76623152D02*
X125158571Y-76718390D01*
X125158571Y-76718390D02*
X125110952Y-76766009D01*
X125110952Y-76766009D02*
X125015714Y-76813628D01*
X125015714Y-76813628D02*
X124634762Y-76813628D01*
X126015714Y-77242200D02*
X125920476Y-77289819D01*
X125920476Y-77289819D02*
X125730000Y-77289819D01*
X125730000Y-77289819D02*
X125634762Y-77242200D01*
X125634762Y-77242200D02*
X125587143Y-77146961D01*
X125587143Y-77146961D02*
X125587143Y-76766009D01*
X125587143Y-76766009D02*
X125634762Y-76670771D01*
X125634762Y-76670771D02*
X125730000Y-76623152D01*
X125730000Y-76623152D02*
X125920476Y-76623152D01*
X125920476Y-76623152D02*
X126015714Y-76670771D01*
X126015714Y-76670771D02*
X126063333Y-76766009D01*
X126063333Y-76766009D02*
X126063333Y-76861247D01*
X126063333Y-76861247D02*
X125587143Y-76956485D01*
X126444286Y-77242200D02*
X126539524Y-77289819D01*
X126539524Y-77289819D02*
X126730000Y-77289819D01*
X126730000Y-77289819D02*
X126825238Y-77242200D01*
X126825238Y-77242200D02*
X126872857Y-77146961D01*
X126872857Y-77146961D02*
X126872857Y-77099342D01*
X126872857Y-77099342D02*
X126825238Y-77004104D01*
X126825238Y-77004104D02*
X126730000Y-76956485D01*
X126730000Y-76956485D02*
X126587143Y-76956485D01*
X126587143Y-76956485D02*
X126491905Y-76908866D01*
X126491905Y-76908866D02*
X126444286Y-76813628D01*
X126444286Y-76813628D02*
X126444286Y-76766009D01*
X126444286Y-76766009D02*
X126491905Y-76670771D01*
X126491905Y-76670771D02*
X126587143Y-76623152D01*
X126587143Y-76623152D02*
X126730000Y-76623152D01*
X126730000Y-76623152D02*
X126825238Y-76670771D01*
X124496667Y-76012200D02*
X126963334Y-76012200D01*
X81875475Y-100467319D02*
X81399285Y-100467319D01*
X81399285Y-100467319D02*
X81399285Y-99467319D01*
X82637380Y-100467319D02*
X82637380Y-99943509D01*
X82637380Y-99943509D02*
X82589761Y-99848271D01*
X82589761Y-99848271D02*
X82494523Y-99800652D01*
X82494523Y-99800652D02*
X82304047Y-99800652D01*
X82304047Y-99800652D02*
X82208809Y-99848271D01*
X82637380Y-100419700D02*
X82542142Y-100467319D01*
X82542142Y-100467319D02*
X82304047Y-100467319D01*
X82304047Y-100467319D02*
X82208809Y-100419700D01*
X82208809Y-100419700D02*
X82161190Y-100324461D01*
X82161190Y-100324461D02*
X82161190Y-100229223D01*
X82161190Y-100229223D02*
X82208809Y-100133985D01*
X82208809Y-100133985D02*
X82304047Y-100086366D01*
X82304047Y-100086366D02*
X82542142Y-100086366D01*
X82542142Y-100086366D02*
X82637380Y-100038747D01*
X82970714Y-99800652D02*
X83351666Y-99800652D01*
X83113571Y-99467319D02*
X83113571Y-100324461D01*
X83113571Y-100324461D02*
X83161190Y-100419700D01*
X83161190Y-100419700D02*
X83256428Y-100467319D01*
X83256428Y-100467319D02*
X83351666Y-100467319D01*
X84113571Y-100419700D02*
X84018333Y-100467319D01*
X84018333Y-100467319D02*
X83827857Y-100467319D01*
X83827857Y-100467319D02*
X83732619Y-100419700D01*
X83732619Y-100419700D02*
X83685000Y-100372080D01*
X83685000Y-100372080D02*
X83637381Y-100276842D01*
X83637381Y-100276842D02*
X83637381Y-99991128D01*
X83637381Y-99991128D02*
X83685000Y-99895890D01*
X83685000Y-99895890D02*
X83732619Y-99848271D01*
X83732619Y-99848271D02*
X83827857Y-99800652D01*
X83827857Y-99800652D02*
X84018333Y-99800652D01*
X84018333Y-99800652D02*
X84113571Y-99848271D01*
X84542143Y-100467319D02*
X84542143Y-99467319D01*
X84970714Y-100467319D02*
X84970714Y-99943509D01*
X84970714Y-99943509D02*
X84923095Y-99848271D01*
X84923095Y-99848271D02*
X84827857Y-99800652D01*
X84827857Y-99800652D02*
X84685000Y-99800652D01*
X84685000Y-99800652D02*
X84589762Y-99848271D01*
X84589762Y-99848271D02*
X84542143Y-99895890D01*
X20409819Y-58991428D02*
X20409819Y-58800952D01*
X20409819Y-58800952D02*
X20457438Y-58705714D01*
X20457438Y-58705714D02*
X20552676Y-58610476D01*
X20552676Y-58610476D02*
X20743152Y-58562857D01*
X20743152Y-58562857D02*
X21076485Y-58562857D01*
X21076485Y-58562857D02*
X21266961Y-58610476D01*
X21266961Y-58610476D02*
X21362200Y-58705714D01*
X21362200Y-58705714D02*
X21409819Y-58800952D01*
X21409819Y-58800952D02*
X21409819Y-58991428D01*
X21409819Y-58991428D02*
X21362200Y-59086666D01*
X21362200Y-59086666D02*
X21266961Y-59181904D01*
X21266961Y-59181904D02*
X21076485Y-59229523D01*
X21076485Y-59229523D02*
X20743152Y-59229523D01*
X20743152Y-59229523D02*
X20552676Y-59181904D01*
X20552676Y-59181904D02*
X20457438Y-59086666D01*
X20457438Y-59086666D02*
X20409819Y-58991428D01*
X21409819Y-57610476D02*
X21409819Y-58181904D01*
X21409819Y-57896190D02*
X20409819Y-57896190D01*
X20409819Y-57896190D02*
X20552676Y-57991428D01*
X20552676Y-57991428D02*
X20647914Y-58086666D01*
X20647914Y-58086666D02*
X20695533Y-58181904D01*
X27384524Y-105499819D02*
X27717857Y-106499819D01*
X27717857Y-106499819D02*
X28051190Y-105499819D01*
X28813095Y-106452200D02*
X28717857Y-106499819D01*
X28717857Y-106499819D02*
X28527381Y-106499819D01*
X28527381Y-106499819D02*
X28432143Y-106452200D01*
X28432143Y-106452200D02*
X28384524Y-106404580D01*
X28384524Y-106404580D02*
X28336905Y-106309342D01*
X28336905Y-106309342D02*
X28336905Y-106023628D01*
X28336905Y-106023628D02*
X28384524Y-105928390D01*
X28384524Y-105928390D02*
X28432143Y-105880771D01*
X28432143Y-105880771D02*
X28527381Y-105833152D01*
X28527381Y-105833152D02*
X28717857Y-105833152D01*
X28717857Y-105833152D02*
X28813095Y-105880771D01*
X29670238Y-106452200D02*
X29575000Y-106499819D01*
X29575000Y-106499819D02*
X29384524Y-106499819D01*
X29384524Y-106499819D02*
X29289286Y-106452200D01*
X29289286Y-106452200D02*
X29241667Y-106404580D01*
X29241667Y-106404580D02*
X29194048Y-106309342D01*
X29194048Y-106309342D02*
X29194048Y-106023628D01*
X29194048Y-106023628D02*
X29241667Y-105928390D01*
X29241667Y-105928390D02*
X29289286Y-105880771D01*
X29289286Y-105880771D02*
X29384524Y-105833152D01*
X29384524Y-105833152D02*
X29575000Y-105833152D01*
X29575000Y-105833152D02*
X29670238Y-105880771D01*
X20409819Y-61531428D02*
X20409819Y-61340952D01*
X20409819Y-61340952D02*
X20457438Y-61245714D01*
X20457438Y-61245714D02*
X20552676Y-61150476D01*
X20552676Y-61150476D02*
X20743152Y-61102857D01*
X20743152Y-61102857D02*
X21076485Y-61102857D01*
X21076485Y-61102857D02*
X21266961Y-61150476D01*
X21266961Y-61150476D02*
X21362200Y-61245714D01*
X21362200Y-61245714D02*
X21409819Y-61340952D01*
X21409819Y-61340952D02*
X21409819Y-61531428D01*
X21409819Y-61531428D02*
X21362200Y-61626666D01*
X21362200Y-61626666D02*
X21266961Y-61721904D01*
X21266961Y-61721904D02*
X21076485Y-61769523D01*
X21076485Y-61769523D02*
X20743152Y-61769523D01*
X20743152Y-61769523D02*
X20552676Y-61721904D01*
X20552676Y-61721904D02*
X20457438Y-61626666D01*
X20457438Y-61626666D02*
X20409819Y-61531428D01*
X20409819Y-60483809D02*
X20409819Y-60388571D01*
X20409819Y-60388571D02*
X20457438Y-60293333D01*
X20457438Y-60293333D02*
X20505057Y-60245714D01*
X20505057Y-60245714D02*
X20600295Y-60198095D01*
X20600295Y-60198095D02*
X20790771Y-60150476D01*
X20790771Y-60150476D02*
X21028866Y-60150476D01*
X21028866Y-60150476D02*
X21219342Y-60198095D01*
X21219342Y-60198095D02*
X21314580Y-60245714D01*
X21314580Y-60245714D02*
X21362200Y-60293333D01*
X21362200Y-60293333D02*
X21409819Y-60388571D01*
X21409819Y-60388571D02*
X21409819Y-60483809D01*
X21409819Y-60483809D02*
X21362200Y-60579047D01*
X21362200Y-60579047D02*
X21314580Y-60626666D01*
X21314580Y-60626666D02*
X21219342Y-60674285D01*
X21219342Y-60674285D02*
X21028866Y-60721904D01*
X21028866Y-60721904D02*
X20790771Y-60721904D01*
X20790771Y-60721904D02*
X20600295Y-60674285D01*
X20600295Y-60674285D02*
X20505057Y-60626666D01*
X20505057Y-60626666D02*
X20457438Y-60579047D01*
X20457438Y-60579047D02*
X20409819Y-60483809D01*
X20409819Y-43751428D02*
X20409819Y-43560952D01*
X20409819Y-43560952D02*
X20457438Y-43465714D01*
X20457438Y-43465714D02*
X20552676Y-43370476D01*
X20552676Y-43370476D02*
X20743152Y-43322857D01*
X20743152Y-43322857D02*
X21076485Y-43322857D01*
X21076485Y-43322857D02*
X21266961Y-43370476D01*
X21266961Y-43370476D02*
X21362200Y-43465714D01*
X21362200Y-43465714D02*
X21409819Y-43560952D01*
X21409819Y-43560952D02*
X21409819Y-43751428D01*
X21409819Y-43751428D02*
X21362200Y-43846666D01*
X21362200Y-43846666D02*
X21266961Y-43941904D01*
X21266961Y-43941904D02*
X21076485Y-43989523D01*
X21076485Y-43989523D02*
X20743152Y-43989523D01*
X20743152Y-43989523D02*
X20552676Y-43941904D01*
X20552676Y-43941904D02*
X20457438Y-43846666D01*
X20457438Y-43846666D02*
X20409819Y-43751428D01*
X20409819Y-42989523D02*
X20409819Y-42322857D01*
X20409819Y-42322857D02*
X21409819Y-42751428D01*
D11*
X85999638Y-94948333D02*
X85047257Y-95615000D01*
X85999638Y-96091190D02*
X83999638Y-96091190D01*
X83999638Y-96091190D02*
X83999638Y-95329285D01*
X83999638Y-95329285D02*
X84094876Y-95138809D01*
X84094876Y-95138809D02*
X84190114Y-95043571D01*
X84190114Y-95043571D02*
X84380590Y-94948333D01*
X84380590Y-94948333D02*
X84666304Y-94948333D01*
X84666304Y-94948333D02*
X84856780Y-95043571D01*
X84856780Y-95043571D02*
X84952019Y-95138809D01*
X84952019Y-95138809D02*
X85047257Y-95329285D01*
X85047257Y-95329285D02*
X85047257Y-96091190D01*
X84666304Y-93234047D02*
X85999638Y-93234047D01*
X83904400Y-93710238D02*
X85332971Y-94186428D01*
X85332971Y-94186428D02*
X85332971Y-92948333D01*
D13*
X84145595Y-110309819D02*
X84145595Y-109309819D01*
X84145595Y-109309819D02*
X84478928Y-110024104D01*
X84478928Y-110024104D02*
X84812261Y-109309819D01*
X84812261Y-109309819D02*
X84812261Y-110309819D01*
X85288452Y-109309819D02*
X85288452Y-110119342D01*
X85288452Y-110119342D02*
X85336071Y-110214580D01*
X85336071Y-110214580D02*
X85383690Y-110262200D01*
X85383690Y-110262200D02*
X85478928Y-110309819D01*
X85478928Y-110309819D02*
X85669404Y-110309819D01*
X85669404Y-110309819D02*
X85764642Y-110262200D01*
X85764642Y-110262200D02*
X85812261Y-110214580D01*
X85812261Y-110214580D02*
X85859880Y-110119342D01*
X85859880Y-110119342D02*
X85859880Y-109309819D01*
X86812261Y-110309819D02*
X86336071Y-110309819D01*
X86336071Y-110309819D02*
X86336071Y-109309819D01*
X84007500Y-109032200D02*
X86807500Y-109032200D01*
X54721190Y-77289819D02*
X54387857Y-76813628D01*
X54149762Y-77289819D02*
X54149762Y-76289819D01*
X54149762Y-76289819D02*
X54530714Y-76289819D01*
X54530714Y-76289819D02*
X54625952Y-76337438D01*
X54625952Y-76337438D02*
X54673571Y-76385057D01*
X54673571Y-76385057D02*
X54721190Y-76480295D01*
X54721190Y-76480295D02*
X54721190Y-76623152D01*
X54721190Y-76623152D02*
X54673571Y-76718390D01*
X54673571Y-76718390D02*
X54625952Y-76766009D01*
X54625952Y-76766009D02*
X54530714Y-76813628D01*
X54530714Y-76813628D02*
X54149762Y-76813628D01*
X55530714Y-77242200D02*
X55435476Y-77289819D01*
X55435476Y-77289819D02*
X55245000Y-77289819D01*
X55245000Y-77289819D02*
X55149762Y-77242200D01*
X55149762Y-77242200D02*
X55102143Y-77146961D01*
X55102143Y-77146961D02*
X55102143Y-76766009D01*
X55102143Y-76766009D02*
X55149762Y-76670771D01*
X55149762Y-76670771D02*
X55245000Y-76623152D01*
X55245000Y-76623152D02*
X55435476Y-76623152D01*
X55435476Y-76623152D02*
X55530714Y-76670771D01*
X55530714Y-76670771D02*
X55578333Y-76766009D01*
X55578333Y-76766009D02*
X55578333Y-76861247D01*
X55578333Y-76861247D02*
X55102143Y-76956485D01*
X55959286Y-77242200D02*
X56054524Y-77289819D01*
X56054524Y-77289819D02*
X56245000Y-77289819D01*
X56245000Y-77289819D02*
X56340238Y-77242200D01*
X56340238Y-77242200D02*
X56387857Y-77146961D01*
X56387857Y-77146961D02*
X56387857Y-77099342D01*
X56387857Y-77099342D02*
X56340238Y-77004104D01*
X56340238Y-77004104D02*
X56245000Y-76956485D01*
X56245000Y-76956485D02*
X56102143Y-76956485D01*
X56102143Y-76956485D02*
X56006905Y-76908866D01*
X56006905Y-76908866D02*
X55959286Y-76813628D01*
X55959286Y-76813628D02*
X55959286Y-76766009D01*
X55959286Y-76766009D02*
X56006905Y-76670771D01*
X56006905Y-76670771D02*
X56102143Y-76623152D01*
X56102143Y-76623152D02*
X56245000Y-76623152D01*
X56245000Y-76623152D02*
X56340238Y-76670771D01*
X54011667Y-76012200D02*
X56478334Y-76012200D01*
X21409819Y-96996189D02*
X20409819Y-96996189D01*
X20409819Y-96615237D02*
X20409819Y-95948571D01*
X20409819Y-95948571D02*
X21409819Y-96377142D01*
X21409819Y-30511666D02*
X20933628Y-30844999D01*
X21409819Y-31083094D02*
X20409819Y-31083094D01*
X20409819Y-31083094D02*
X20409819Y-30702142D01*
X20409819Y-30702142D02*
X20457438Y-30606904D01*
X20457438Y-30606904D02*
X20505057Y-30559285D01*
X20505057Y-30559285D02*
X20600295Y-30511666D01*
X20600295Y-30511666D02*
X20743152Y-30511666D01*
X20743152Y-30511666D02*
X20838390Y-30559285D01*
X20838390Y-30559285D02*
X20886009Y-30606904D01*
X20886009Y-30606904D02*
X20933628Y-30702142D01*
X20933628Y-30702142D02*
X20933628Y-31083094D01*
X21409819Y-29940237D02*
X21362200Y-30035475D01*
X21362200Y-30035475D02*
X21314580Y-30083094D01*
X21314580Y-30083094D02*
X21219342Y-30130713D01*
X21219342Y-30130713D02*
X20933628Y-30130713D01*
X20933628Y-30130713D02*
X20838390Y-30083094D01*
X20838390Y-30083094D02*
X20790771Y-30035475D01*
X20790771Y-30035475D02*
X20743152Y-29940237D01*
X20743152Y-29940237D02*
X20743152Y-29797380D01*
X20743152Y-29797380D02*
X20790771Y-29702142D01*
X20790771Y-29702142D02*
X20838390Y-29654523D01*
X20838390Y-29654523D02*
X20933628Y-29606904D01*
X20933628Y-29606904D02*
X21219342Y-29606904D01*
X21219342Y-29606904D02*
X21314580Y-29654523D01*
X21314580Y-29654523D02*
X21362200Y-29702142D01*
X21362200Y-29702142D02*
X21409819Y-29797380D01*
X21409819Y-29797380D02*
X21409819Y-29940237D01*
X20743152Y-29273570D02*
X21409819Y-29083094D01*
X21409819Y-29083094D02*
X20933628Y-28892618D01*
X20933628Y-28892618D02*
X21409819Y-28702142D01*
X21409819Y-28702142D02*
X20743152Y-28511666D01*
X20132200Y-31221190D02*
X20132200Y-28468809D01*
X57975714Y-107563509D02*
X58118571Y-107611128D01*
X58118571Y-107611128D02*
X58166190Y-107658747D01*
X58166190Y-107658747D02*
X58213809Y-107753985D01*
X58213809Y-107753985D02*
X58213809Y-107896842D01*
X58213809Y-107896842D02*
X58166190Y-107992080D01*
X58166190Y-107992080D02*
X58118571Y-108039700D01*
X58118571Y-108039700D02*
X58023333Y-108087319D01*
X58023333Y-108087319D02*
X57642381Y-108087319D01*
X57642381Y-108087319D02*
X57642381Y-107087319D01*
X57642381Y-107087319D02*
X57975714Y-107087319D01*
X57975714Y-107087319D02*
X58070952Y-107134938D01*
X58070952Y-107134938D02*
X58118571Y-107182557D01*
X58118571Y-107182557D02*
X58166190Y-107277795D01*
X58166190Y-107277795D02*
X58166190Y-107373033D01*
X58166190Y-107373033D02*
X58118571Y-107468271D01*
X58118571Y-107468271D02*
X58070952Y-107515890D01*
X58070952Y-107515890D02*
X57975714Y-107563509D01*
X57975714Y-107563509D02*
X57642381Y-107563509D01*
X59070952Y-108087319D02*
X59070952Y-107563509D01*
X59070952Y-107563509D02*
X59023333Y-107468271D01*
X59023333Y-107468271D02*
X58928095Y-107420652D01*
X58928095Y-107420652D02*
X58737619Y-107420652D01*
X58737619Y-107420652D02*
X58642381Y-107468271D01*
X59070952Y-108039700D02*
X58975714Y-108087319D01*
X58975714Y-108087319D02*
X58737619Y-108087319D01*
X58737619Y-108087319D02*
X58642381Y-108039700D01*
X58642381Y-108039700D02*
X58594762Y-107944461D01*
X58594762Y-107944461D02*
X58594762Y-107849223D01*
X58594762Y-107849223D02*
X58642381Y-107753985D01*
X58642381Y-107753985D02*
X58737619Y-107706366D01*
X58737619Y-107706366D02*
X58975714Y-107706366D01*
X58975714Y-107706366D02*
X59070952Y-107658747D01*
X59547143Y-107420652D02*
X59547143Y-108087319D01*
X59547143Y-107515890D02*
X59594762Y-107468271D01*
X59594762Y-107468271D02*
X59690000Y-107420652D01*
X59690000Y-107420652D02*
X59832857Y-107420652D01*
X59832857Y-107420652D02*
X59928095Y-107468271D01*
X59928095Y-107468271D02*
X59975714Y-107563509D01*
X59975714Y-107563509D02*
X59975714Y-108087319D01*
X60451905Y-108087319D02*
X60451905Y-107087319D01*
X60547143Y-107706366D02*
X60832857Y-108087319D01*
X60832857Y-107420652D02*
X60451905Y-107801604D01*
X61451905Y-107087319D02*
X61547143Y-107087319D01*
X61547143Y-107087319D02*
X61642381Y-107134938D01*
X61642381Y-107134938D02*
X61690000Y-107182557D01*
X61690000Y-107182557D02*
X61737619Y-107277795D01*
X61737619Y-107277795D02*
X61785238Y-107468271D01*
X61785238Y-107468271D02*
X61785238Y-107706366D01*
X61785238Y-107706366D02*
X61737619Y-107896842D01*
X61737619Y-107896842D02*
X61690000Y-107992080D01*
X61690000Y-107992080D02*
X61642381Y-108039700D01*
X61642381Y-108039700D02*
X61547143Y-108087319D01*
X61547143Y-108087319D02*
X61451905Y-108087319D01*
X61451905Y-108087319D02*
X61356667Y-108039700D01*
X61356667Y-108039700D02*
X61309048Y-107992080D01*
X61309048Y-107992080D02*
X61261429Y-107896842D01*
X61261429Y-107896842D02*
X61213810Y-107706366D01*
X61213810Y-107706366D02*
X61213810Y-107468271D01*
X61213810Y-107468271D02*
X61261429Y-107277795D01*
X61261429Y-107277795D02*
X61309048Y-107182557D01*
X61309048Y-107182557D02*
X61356667Y-107134938D01*
X61356667Y-107134938D02*
X61451905Y-107087319D01*
X57504286Y-106809700D02*
X61875715Y-106809700D01*
X41902142Y-106817438D02*
X41806904Y-106769819D01*
X41806904Y-106769819D02*
X41664047Y-106769819D01*
X41664047Y-106769819D02*
X41521190Y-106817438D01*
X41521190Y-106817438D02*
X41425952Y-106912676D01*
X41425952Y-106912676D02*
X41378333Y-107007914D01*
X41378333Y-107007914D02*
X41330714Y-107198390D01*
X41330714Y-107198390D02*
X41330714Y-107341247D01*
X41330714Y-107341247D02*
X41378333Y-107531723D01*
X41378333Y-107531723D02*
X41425952Y-107626961D01*
X41425952Y-107626961D02*
X41521190Y-107722200D01*
X41521190Y-107722200D02*
X41664047Y-107769819D01*
X41664047Y-107769819D02*
X41759285Y-107769819D01*
X41759285Y-107769819D02*
X41902142Y-107722200D01*
X41902142Y-107722200D02*
X41949761Y-107674580D01*
X41949761Y-107674580D02*
X41949761Y-107341247D01*
X41949761Y-107341247D02*
X41759285Y-107341247D01*
X42378333Y-107103152D02*
X42378333Y-107769819D01*
X42378333Y-107198390D02*
X42425952Y-107150771D01*
X42425952Y-107150771D02*
X42521190Y-107103152D01*
X42521190Y-107103152D02*
X42664047Y-107103152D01*
X42664047Y-107103152D02*
X42759285Y-107150771D01*
X42759285Y-107150771D02*
X42806904Y-107246009D01*
X42806904Y-107246009D02*
X42806904Y-107769819D01*
X43711666Y-107769819D02*
X43711666Y-106769819D01*
X43711666Y-107722200D02*
X43616428Y-107769819D01*
X43616428Y-107769819D02*
X43425952Y-107769819D01*
X43425952Y-107769819D02*
X43330714Y-107722200D01*
X43330714Y-107722200D02*
X43283095Y-107674580D01*
X43283095Y-107674580D02*
X43235476Y-107579342D01*
X43235476Y-107579342D02*
X43235476Y-107293628D01*
X43235476Y-107293628D02*
X43283095Y-107198390D01*
X43283095Y-107198390D02*
X43330714Y-107150771D01*
X43330714Y-107150771D02*
X43425952Y-107103152D01*
X43425952Y-107103152D02*
X43616428Y-107103152D01*
X43616428Y-107103152D02*
X43711666Y-107150771D01*
X21409819Y-86836189D02*
X20409819Y-86836189D01*
X20409819Y-86455237D02*
X20409819Y-85836190D01*
X20409819Y-85836190D02*
X20790771Y-86169523D01*
X20790771Y-86169523D02*
X20790771Y-86026666D01*
X20790771Y-86026666D02*
X20838390Y-85931428D01*
X20838390Y-85931428D02*
X20886009Y-85883809D01*
X20886009Y-85883809D02*
X20981247Y-85836190D01*
X20981247Y-85836190D02*
X21219342Y-85836190D01*
X21219342Y-85836190D02*
X21314580Y-85883809D01*
X21314580Y-85883809D02*
X21362200Y-85931428D01*
X21362200Y-85931428D02*
X21409819Y-86026666D01*
X21409819Y-86026666D02*
X21409819Y-86312380D01*
X21409819Y-86312380D02*
X21362200Y-86407618D01*
X21362200Y-86407618D02*
X21314580Y-86455237D01*
X166824819Y-48243808D02*
X165824819Y-48243808D01*
X165824819Y-48243808D02*
X166539104Y-47910475D01*
X166539104Y-47910475D02*
X165824819Y-47577142D01*
X165824819Y-47577142D02*
X166824819Y-47577142D01*
X165824819Y-47100951D02*
X166634342Y-47100951D01*
X166634342Y-47100951D02*
X166729580Y-47053332D01*
X166729580Y-47053332D02*
X166777200Y-47005713D01*
X166777200Y-47005713D02*
X166824819Y-46910475D01*
X166824819Y-46910475D02*
X166824819Y-46719999D01*
X166824819Y-46719999D02*
X166777200Y-46624761D01*
X166777200Y-46624761D02*
X166729580Y-46577142D01*
X166729580Y-46577142D02*
X166634342Y-46529523D01*
X166634342Y-46529523D02*
X165824819Y-46529523D01*
X165824819Y-46148570D02*
X166824819Y-45481904D01*
X165824819Y-45481904D02*
X166824819Y-46148570D01*
X165920057Y-45148570D02*
X165872438Y-45100951D01*
X165872438Y-45100951D02*
X165824819Y-45005713D01*
X165824819Y-45005713D02*
X165824819Y-44767618D01*
X165824819Y-44767618D02*
X165872438Y-44672380D01*
X165872438Y-44672380D02*
X165920057Y-44624761D01*
X165920057Y-44624761D02*
X166015295Y-44577142D01*
X166015295Y-44577142D02*
X166110533Y-44577142D01*
X166110533Y-44577142D02*
X166253390Y-44624761D01*
X166253390Y-44624761D02*
X166824819Y-45196189D01*
X166824819Y-45196189D02*
X166824819Y-44577142D01*
X166729580Y-44148570D02*
X166777200Y-44100951D01*
X166777200Y-44100951D02*
X166824819Y-44148570D01*
X166824819Y-44148570D02*
X166777200Y-44196189D01*
X166777200Y-44196189D02*
X166729580Y-44148570D01*
X166729580Y-44148570D02*
X166824819Y-44148570D01*
X166205771Y-44148570D02*
X166253390Y-44100951D01*
X166253390Y-44100951D02*
X166301009Y-44148570D01*
X166301009Y-44148570D02*
X166253390Y-44196189D01*
X166253390Y-44196189D02*
X166205771Y-44148570D01*
X166205771Y-44148570D02*
X166301009Y-44148570D01*
X166824819Y-43148571D02*
X166824819Y-43719999D01*
X166824819Y-43434285D02*
X165824819Y-43434285D01*
X165824819Y-43434285D02*
X165967676Y-43529523D01*
X165967676Y-43529523D02*
X166062914Y-43624761D01*
X166062914Y-43624761D02*
X166110533Y-43719999D01*
X72501190Y-77289819D02*
X72167857Y-76813628D01*
X71929762Y-77289819D02*
X71929762Y-76289819D01*
X71929762Y-76289819D02*
X72310714Y-76289819D01*
X72310714Y-76289819D02*
X72405952Y-76337438D01*
X72405952Y-76337438D02*
X72453571Y-76385057D01*
X72453571Y-76385057D02*
X72501190Y-76480295D01*
X72501190Y-76480295D02*
X72501190Y-76623152D01*
X72501190Y-76623152D02*
X72453571Y-76718390D01*
X72453571Y-76718390D02*
X72405952Y-76766009D01*
X72405952Y-76766009D02*
X72310714Y-76813628D01*
X72310714Y-76813628D02*
X71929762Y-76813628D01*
X73310714Y-77242200D02*
X73215476Y-77289819D01*
X73215476Y-77289819D02*
X73025000Y-77289819D01*
X73025000Y-77289819D02*
X72929762Y-77242200D01*
X72929762Y-77242200D02*
X72882143Y-77146961D01*
X72882143Y-77146961D02*
X72882143Y-76766009D01*
X72882143Y-76766009D02*
X72929762Y-76670771D01*
X72929762Y-76670771D02*
X73025000Y-76623152D01*
X73025000Y-76623152D02*
X73215476Y-76623152D01*
X73215476Y-76623152D02*
X73310714Y-76670771D01*
X73310714Y-76670771D02*
X73358333Y-76766009D01*
X73358333Y-76766009D02*
X73358333Y-76861247D01*
X73358333Y-76861247D02*
X72882143Y-76956485D01*
X73739286Y-77242200D02*
X73834524Y-77289819D01*
X73834524Y-77289819D02*
X74025000Y-77289819D01*
X74025000Y-77289819D02*
X74120238Y-77242200D01*
X74120238Y-77242200D02*
X74167857Y-77146961D01*
X74167857Y-77146961D02*
X74167857Y-77099342D01*
X74167857Y-77099342D02*
X74120238Y-77004104D01*
X74120238Y-77004104D02*
X74025000Y-76956485D01*
X74025000Y-76956485D02*
X73882143Y-76956485D01*
X73882143Y-76956485D02*
X73786905Y-76908866D01*
X73786905Y-76908866D02*
X73739286Y-76813628D01*
X73739286Y-76813628D02*
X73739286Y-76766009D01*
X73739286Y-76766009D02*
X73786905Y-76670771D01*
X73786905Y-76670771D02*
X73882143Y-76623152D01*
X73882143Y-76623152D02*
X74025000Y-76623152D01*
X74025000Y-76623152D02*
X74120238Y-76670771D01*
X71791667Y-76012200D02*
X74258334Y-76012200D01*
X108061190Y-77289819D02*
X107727857Y-76813628D01*
X107489762Y-77289819D02*
X107489762Y-76289819D01*
X107489762Y-76289819D02*
X107870714Y-76289819D01*
X107870714Y-76289819D02*
X107965952Y-76337438D01*
X107965952Y-76337438D02*
X108013571Y-76385057D01*
X108013571Y-76385057D02*
X108061190Y-76480295D01*
X108061190Y-76480295D02*
X108061190Y-76623152D01*
X108061190Y-76623152D02*
X108013571Y-76718390D01*
X108013571Y-76718390D02*
X107965952Y-76766009D01*
X107965952Y-76766009D02*
X107870714Y-76813628D01*
X107870714Y-76813628D02*
X107489762Y-76813628D01*
X108870714Y-77242200D02*
X108775476Y-77289819D01*
X108775476Y-77289819D02*
X108585000Y-77289819D01*
X108585000Y-77289819D02*
X108489762Y-77242200D01*
X108489762Y-77242200D02*
X108442143Y-77146961D01*
X108442143Y-77146961D02*
X108442143Y-76766009D01*
X108442143Y-76766009D02*
X108489762Y-76670771D01*
X108489762Y-76670771D02*
X108585000Y-76623152D01*
X108585000Y-76623152D02*
X108775476Y-76623152D01*
X108775476Y-76623152D02*
X108870714Y-76670771D01*
X108870714Y-76670771D02*
X108918333Y-76766009D01*
X108918333Y-76766009D02*
X108918333Y-76861247D01*
X108918333Y-76861247D02*
X108442143Y-76956485D01*
X109299286Y-77242200D02*
X109394524Y-77289819D01*
X109394524Y-77289819D02*
X109585000Y-77289819D01*
X109585000Y-77289819D02*
X109680238Y-77242200D01*
X109680238Y-77242200D02*
X109727857Y-77146961D01*
X109727857Y-77146961D02*
X109727857Y-77099342D01*
X109727857Y-77099342D02*
X109680238Y-77004104D01*
X109680238Y-77004104D02*
X109585000Y-76956485D01*
X109585000Y-76956485D02*
X109442143Y-76956485D01*
X109442143Y-76956485D02*
X109346905Y-76908866D01*
X109346905Y-76908866D02*
X109299286Y-76813628D01*
X109299286Y-76813628D02*
X109299286Y-76766009D01*
X109299286Y-76766009D02*
X109346905Y-76670771D01*
X109346905Y-76670771D02*
X109442143Y-76623152D01*
X109442143Y-76623152D02*
X109585000Y-76623152D01*
X109585000Y-76623152D02*
X109680238Y-76670771D01*
X107351667Y-76012200D02*
X109818334Y-76012200D01*
X20409819Y-46291428D02*
X20409819Y-46100952D01*
X20409819Y-46100952D02*
X20457438Y-46005714D01*
X20457438Y-46005714D02*
X20552676Y-45910476D01*
X20552676Y-45910476D02*
X20743152Y-45862857D01*
X20743152Y-45862857D02*
X21076485Y-45862857D01*
X21076485Y-45862857D02*
X21266961Y-45910476D01*
X21266961Y-45910476D02*
X21362200Y-46005714D01*
X21362200Y-46005714D02*
X21409819Y-46100952D01*
X21409819Y-46100952D02*
X21409819Y-46291428D01*
X21409819Y-46291428D02*
X21362200Y-46386666D01*
X21362200Y-46386666D02*
X21266961Y-46481904D01*
X21266961Y-46481904D02*
X21076485Y-46529523D01*
X21076485Y-46529523D02*
X20743152Y-46529523D01*
X20743152Y-46529523D02*
X20552676Y-46481904D01*
X20552676Y-46481904D02*
X20457438Y-46386666D01*
X20457438Y-46386666D02*
X20409819Y-46291428D01*
X20409819Y-45005714D02*
X20409819Y-45196190D01*
X20409819Y-45196190D02*
X20457438Y-45291428D01*
X20457438Y-45291428D02*
X20505057Y-45339047D01*
X20505057Y-45339047D02*
X20647914Y-45434285D01*
X20647914Y-45434285D02*
X20838390Y-45481904D01*
X20838390Y-45481904D02*
X21219342Y-45481904D01*
X21219342Y-45481904D02*
X21314580Y-45434285D01*
X21314580Y-45434285D02*
X21362200Y-45386666D01*
X21362200Y-45386666D02*
X21409819Y-45291428D01*
X21409819Y-45291428D02*
X21409819Y-45100952D01*
X21409819Y-45100952D02*
X21362200Y-45005714D01*
X21362200Y-45005714D02*
X21314580Y-44958095D01*
X21314580Y-44958095D02*
X21219342Y-44910476D01*
X21219342Y-44910476D02*
X20981247Y-44910476D01*
X20981247Y-44910476D02*
X20886009Y-44958095D01*
X20886009Y-44958095D02*
X20838390Y-45005714D01*
X20838390Y-45005714D02*
X20790771Y-45100952D01*
X20790771Y-45100952D02*
X20790771Y-45291428D01*
X20790771Y-45291428D02*
X20838390Y-45386666D01*
X20838390Y-45386666D02*
X20886009Y-45434285D01*
X20886009Y-45434285D02*
X20981247Y-45481904D01*
X21314580Y-36044166D02*
X21362200Y-36091785D01*
X21362200Y-36091785D02*
X21409819Y-36234642D01*
X21409819Y-36234642D02*
X21409819Y-36329880D01*
X21409819Y-36329880D02*
X21362200Y-36472737D01*
X21362200Y-36472737D02*
X21266961Y-36567975D01*
X21266961Y-36567975D02*
X21171723Y-36615594D01*
X21171723Y-36615594D02*
X20981247Y-36663213D01*
X20981247Y-36663213D02*
X20838390Y-36663213D01*
X20838390Y-36663213D02*
X20647914Y-36615594D01*
X20647914Y-36615594D02*
X20552676Y-36567975D01*
X20552676Y-36567975D02*
X20457438Y-36472737D01*
X20457438Y-36472737D02*
X20409819Y-36329880D01*
X20409819Y-36329880D02*
X20409819Y-36234642D01*
X20409819Y-36234642D02*
X20457438Y-36091785D01*
X20457438Y-36091785D02*
X20505057Y-36044166D01*
X21362200Y-35663213D02*
X21409819Y-35520356D01*
X21409819Y-35520356D02*
X21409819Y-35282261D01*
X21409819Y-35282261D02*
X21362200Y-35187023D01*
X21362200Y-35187023D02*
X21314580Y-35139404D01*
X21314580Y-35139404D02*
X21219342Y-35091785D01*
X21219342Y-35091785D02*
X21124104Y-35091785D01*
X21124104Y-35091785D02*
X21028866Y-35139404D01*
X21028866Y-35139404D02*
X20981247Y-35187023D01*
X20981247Y-35187023D02*
X20933628Y-35282261D01*
X20933628Y-35282261D02*
X20886009Y-35472737D01*
X20886009Y-35472737D02*
X20838390Y-35567975D01*
X20838390Y-35567975D02*
X20790771Y-35615594D01*
X20790771Y-35615594D02*
X20695533Y-35663213D01*
X20695533Y-35663213D02*
X20600295Y-35663213D01*
X20600295Y-35663213D02*
X20505057Y-35615594D01*
X20505057Y-35615594D02*
X20457438Y-35567975D01*
X20457438Y-35567975D02*
X20409819Y-35472737D01*
X20409819Y-35472737D02*
X20409819Y-35234642D01*
X20409819Y-35234642D02*
X20457438Y-35091785D01*
X20132200Y-36753690D02*
X20132200Y-35001309D01*
X21409819Y-94456189D02*
X20409819Y-94456189D01*
X20409819Y-93551428D02*
X20409819Y-93741904D01*
X20409819Y-93741904D02*
X20457438Y-93837142D01*
X20457438Y-93837142D02*
X20505057Y-93884761D01*
X20505057Y-93884761D02*
X20647914Y-93979999D01*
X20647914Y-93979999D02*
X20838390Y-94027618D01*
X20838390Y-94027618D02*
X21219342Y-94027618D01*
X21219342Y-94027618D02*
X21314580Y-93979999D01*
X21314580Y-93979999D02*
X21362200Y-93932380D01*
X21362200Y-93932380D02*
X21409819Y-93837142D01*
X21409819Y-93837142D02*
X21409819Y-93646666D01*
X21409819Y-93646666D02*
X21362200Y-93551428D01*
X21362200Y-93551428D02*
X21314580Y-93503809D01*
X21314580Y-93503809D02*
X21219342Y-93456190D01*
X21219342Y-93456190D02*
X20981247Y-93456190D01*
X20981247Y-93456190D02*
X20886009Y-93503809D01*
X20886009Y-93503809D02*
X20838390Y-93551428D01*
X20838390Y-93551428D02*
X20790771Y-93646666D01*
X20790771Y-93646666D02*
X20790771Y-93837142D01*
X20790771Y-93837142D02*
X20838390Y-93932380D01*
X20838390Y-93932380D02*
X20886009Y-93979999D01*
X20886009Y-93979999D02*
X20981247Y-94027618D01*
X136614819Y-111045475D02*
X137614819Y-110712142D01*
X137614819Y-110712142D02*
X136614819Y-110378809D01*
X137567200Y-109616904D02*
X137614819Y-109712142D01*
X137614819Y-109712142D02*
X137614819Y-109902618D01*
X137614819Y-109902618D02*
X137567200Y-109997856D01*
X137567200Y-109997856D02*
X137519580Y-110045475D01*
X137519580Y-110045475D02*
X137424342Y-110093094D01*
X137424342Y-110093094D02*
X137138628Y-110093094D01*
X137138628Y-110093094D02*
X137043390Y-110045475D01*
X137043390Y-110045475D02*
X136995771Y-109997856D01*
X136995771Y-109997856D02*
X136948152Y-109902618D01*
X136948152Y-109902618D02*
X136948152Y-109712142D01*
X136948152Y-109712142D02*
X136995771Y-109616904D01*
X137567200Y-108759761D02*
X137614819Y-108854999D01*
X137614819Y-108854999D02*
X137614819Y-109045475D01*
X137614819Y-109045475D02*
X137567200Y-109140713D01*
X137567200Y-109140713D02*
X137519580Y-109188332D01*
X137519580Y-109188332D02*
X137424342Y-109235951D01*
X137424342Y-109235951D02*
X137138628Y-109235951D01*
X137138628Y-109235951D02*
X137043390Y-109188332D01*
X137043390Y-109188332D02*
X136995771Y-109140713D01*
X136995771Y-109140713D02*
X136948152Y-109045475D01*
X136948152Y-109045475D02*
X136948152Y-108854999D01*
X136948152Y-108854999D02*
X136995771Y-108759761D01*
X20409819Y-53911428D02*
X20409819Y-53720952D01*
X20409819Y-53720952D02*
X20457438Y-53625714D01*
X20457438Y-53625714D02*
X20552676Y-53530476D01*
X20552676Y-53530476D02*
X20743152Y-53482857D01*
X20743152Y-53482857D02*
X21076485Y-53482857D01*
X21076485Y-53482857D02*
X21266961Y-53530476D01*
X21266961Y-53530476D02*
X21362200Y-53625714D01*
X21362200Y-53625714D02*
X21409819Y-53720952D01*
X21409819Y-53720952D02*
X21409819Y-53911428D01*
X21409819Y-53911428D02*
X21362200Y-54006666D01*
X21362200Y-54006666D02*
X21266961Y-54101904D01*
X21266961Y-54101904D02*
X21076485Y-54149523D01*
X21076485Y-54149523D02*
X20743152Y-54149523D01*
X20743152Y-54149523D02*
X20552676Y-54101904D01*
X20552676Y-54101904D02*
X20457438Y-54006666D01*
X20457438Y-54006666D02*
X20409819Y-53911428D01*
X20409819Y-53149523D02*
X20409819Y-52530476D01*
X20409819Y-52530476D02*
X20790771Y-52863809D01*
X20790771Y-52863809D02*
X20790771Y-52720952D01*
X20790771Y-52720952D02*
X20838390Y-52625714D01*
X20838390Y-52625714D02*
X20886009Y-52578095D01*
X20886009Y-52578095D02*
X20981247Y-52530476D01*
X20981247Y-52530476D02*
X21219342Y-52530476D01*
X21219342Y-52530476D02*
X21314580Y-52578095D01*
X21314580Y-52578095D02*
X21362200Y-52625714D01*
X21362200Y-52625714D02*
X21409819Y-52720952D01*
X21409819Y-52720952D02*
X21409819Y-53006666D01*
X21409819Y-53006666D02*
X21362200Y-53101904D01*
X21362200Y-53101904D02*
X21314580Y-53149523D01*
X20409819Y-56451428D02*
X20409819Y-56260952D01*
X20409819Y-56260952D02*
X20457438Y-56165714D01*
X20457438Y-56165714D02*
X20552676Y-56070476D01*
X20552676Y-56070476D02*
X20743152Y-56022857D01*
X20743152Y-56022857D02*
X21076485Y-56022857D01*
X21076485Y-56022857D02*
X21266961Y-56070476D01*
X21266961Y-56070476D02*
X21362200Y-56165714D01*
X21362200Y-56165714D02*
X21409819Y-56260952D01*
X21409819Y-56260952D02*
X21409819Y-56451428D01*
X21409819Y-56451428D02*
X21362200Y-56546666D01*
X21362200Y-56546666D02*
X21266961Y-56641904D01*
X21266961Y-56641904D02*
X21076485Y-56689523D01*
X21076485Y-56689523D02*
X20743152Y-56689523D01*
X20743152Y-56689523D02*
X20552676Y-56641904D01*
X20552676Y-56641904D02*
X20457438Y-56546666D01*
X20457438Y-56546666D02*
X20409819Y-56451428D01*
X20505057Y-55641904D02*
X20457438Y-55594285D01*
X20457438Y-55594285D02*
X20409819Y-55499047D01*
X20409819Y-55499047D02*
X20409819Y-55260952D01*
X20409819Y-55260952D02*
X20457438Y-55165714D01*
X20457438Y-55165714D02*
X20505057Y-55118095D01*
X20505057Y-55118095D02*
X20600295Y-55070476D01*
X20600295Y-55070476D02*
X20695533Y-55070476D01*
X20695533Y-55070476D02*
X20838390Y-55118095D01*
X20838390Y-55118095D02*
X21409819Y-55689523D01*
X21409819Y-55689523D02*
X21409819Y-55070476D01*
D12*
X131508333Y-105259761D02*
X132651190Y-105259761D01*
X132079762Y-105259761D02*
X132079762Y-107259761D01*
X132079762Y-107259761D02*
X132270238Y-106974047D01*
X132270238Y-106974047D02*
X132460714Y-106783571D01*
X132460714Y-106783571D02*
X132651190Y-106688333D01*
X130841666Y-107259761D02*
X129603571Y-107259761D01*
X129603571Y-107259761D02*
X130270238Y-106497857D01*
X130270238Y-106497857D02*
X129984523Y-106497857D01*
X129984523Y-106497857D02*
X129794047Y-106402619D01*
X129794047Y-106402619D02*
X129698809Y-106307380D01*
X129698809Y-106307380D02*
X129603571Y-106116904D01*
X129603571Y-106116904D02*
X129603571Y-105640714D01*
X129603571Y-105640714D02*
X129698809Y-105450238D01*
X129698809Y-105450238D02*
X129794047Y-105355000D01*
X129794047Y-105355000D02*
X129984523Y-105259761D01*
X129984523Y-105259761D02*
X130555952Y-105259761D01*
X130555952Y-105259761D02*
X130746428Y-105355000D01*
X130746428Y-105355000D02*
X130841666Y-105450238D01*
X128651190Y-105259761D02*
X128270238Y-105259761D01*
X128270238Y-105259761D02*
X128079761Y-105355000D01*
X128079761Y-105355000D02*
X127984523Y-105450238D01*
X127984523Y-105450238D02*
X127794047Y-105735952D01*
X127794047Y-105735952D02*
X127698809Y-106116904D01*
X127698809Y-106116904D02*
X127698809Y-106878809D01*
X127698809Y-106878809D02*
X127794047Y-107069285D01*
X127794047Y-107069285D02*
X127889285Y-107164523D01*
X127889285Y-107164523D02*
X128079761Y-107259761D01*
X128079761Y-107259761D02*
X128460714Y-107259761D01*
X128460714Y-107259761D02*
X128651190Y-107164523D01*
X128651190Y-107164523D02*
X128746428Y-107069285D01*
X128746428Y-107069285D02*
X128841666Y-106878809D01*
X128841666Y-106878809D02*
X128841666Y-106402619D01*
X128841666Y-106402619D02*
X128746428Y-106212142D01*
X128746428Y-106212142D02*
X128651190Y-106116904D01*
X128651190Y-106116904D02*
X128460714Y-106021666D01*
X128460714Y-106021666D02*
X128079761Y-106021666D01*
X128079761Y-106021666D02*
X127889285Y-106116904D01*
X127889285Y-106116904D02*
X127794047Y-106212142D01*
X127794047Y-106212142D02*
X127698809Y-106402619D01*
D13*
X21409819Y-79216189D02*
X20409819Y-79216189D01*
X20409819Y-78549523D02*
X20409819Y-78454285D01*
X20409819Y-78454285D02*
X20457438Y-78359047D01*
X20457438Y-78359047D02*
X20505057Y-78311428D01*
X20505057Y-78311428D02*
X20600295Y-78263809D01*
X20600295Y-78263809D02*
X20790771Y-78216190D01*
X20790771Y-78216190D02*
X21028866Y-78216190D01*
X21028866Y-78216190D02*
X21219342Y-78263809D01*
X21219342Y-78263809D02*
X21314580Y-78311428D01*
X21314580Y-78311428D02*
X21362200Y-78359047D01*
X21362200Y-78359047D02*
X21409819Y-78454285D01*
X21409819Y-78454285D02*
X21409819Y-78549523D01*
X21409819Y-78549523D02*
X21362200Y-78644761D01*
X21362200Y-78644761D02*
X21314580Y-78692380D01*
X21314580Y-78692380D02*
X21219342Y-78739999D01*
X21219342Y-78739999D02*
X21028866Y-78787618D01*
X21028866Y-78787618D02*
X20790771Y-78787618D01*
X20790771Y-78787618D02*
X20600295Y-78739999D01*
X20600295Y-78739999D02*
X20505057Y-78692380D01*
X20505057Y-78692380D02*
X20457438Y-78644761D01*
X20457438Y-78644761D02*
X20409819Y-78549523D01*
X21409819Y-84296189D02*
X20409819Y-84296189D01*
X20505057Y-83867618D02*
X20457438Y-83819999D01*
X20457438Y-83819999D02*
X20409819Y-83724761D01*
X20409819Y-83724761D02*
X20409819Y-83486666D01*
X20409819Y-83486666D02*
X20457438Y-83391428D01*
X20457438Y-83391428D02*
X20505057Y-83343809D01*
X20505057Y-83343809D02*
X20600295Y-83296190D01*
X20600295Y-83296190D02*
X20695533Y-83296190D01*
X20695533Y-83296190D02*
X20838390Y-83343809D01*
X20838390Y-83343809D02*
X21409819Y-83915237D01*
X21409819Y-83915237D02*
X21409819Y-83296190D01*
X168761604Y-97567143D02*
X168761604Y-97090953D01*
X169047319Y-97662381D02*
X168047319Y-97329048D01*
X168047319Y-97329048D02*
X169047319Y-96995715D01*
X169047319Y-96186191D02*
X169047319Y-96662381D01*
X169047319Y-96662381D02*
X168047319Y-96662381D01*
X168047319Y-95852857D02*
X168856842Y-95852857D01*
X168856842Y-95852857D02*
X168952080Y-95805238D01*
X168952080Y-95805238D02*
X168999700Y-95757619D01*
X168999700Y-95757619D02*
X169047319Y-95662381D01*
X169047319Y-95662381D02*
X169047319Y-95471905D01*
X169047319Y-95471905D02*
X168999700Y-95376667D01*
X168999700Y-95376667D02*
X168952080Y-95329048D01*
X168952080Y-95329048D02*
X168856842Y-95281429D01*
X168856842Y-95281429D02*
X168047319Y-95281429D01*
X169047319Y-93567143D02*
X169047319Y-94043333D01*
X169047319Y-94043333D02*
X168047319Y-94043333D01*
X169047319Y-93090952D02*
X168999700Y-93186190D01*
X168999700Y-93186190D02*
X168952080Y-93233809D01*
X168952080Y-93233809D02*
X168856842Y-93281428D01*
X168856842Y-93281428D02*
X168571128Y-93281428D01*
X168571128Y-93281428D02*
X168475890Y-93233809D01*
X168475890Y-93233809D02*
X168428271Y-93186190D01*
X168428271Y-93186190D02*
X168380652Y-93090952D01*
X168380652Y-93090952D02*
X168380652Y-92948095D01*
X168380652Y-92948095D02*
X168428271Y-92852857D01*
X168428271Y-92852857D02*
X168475890Y-92805238D01*
X168475890Y-92805238D02*
X168571128Y-92757619D01*
X168571128Y-92757619D02*
X168856842Y-92757619D01*
X168856842Y-92757619D02*
X168952080Y-92805238D01*
X168952080Y-92805238D02*
X168999700Y-92852857D01*
X168999700Y-92852857D02*
X169047319Y-92948095D01*
X169047319Y-92948095D02*
X169047319Y-93090952D01*
X168380652Y-92424285D02*
X169047319Y-92233809D01*
X169047319Y-92233809D02*
X168571128Y-92043333D01*
X168571128Y-92043333D02*
X169047319Y-91852857D01*
X169047319Y-91852857D02*
X168380652Y-91662381D01*
X169047319Y-90519523D02*
X168047319Y-90519523D01*
X168428271Y-90519523D02*
X168380652Y-90424285D01*
X168380652Y-90424285D02*
X168380652Y-90233809D01*
X168380652Y-90233809D02*
X168428271Y-90138571D01*
X168428271Y-90138571D02*
X168475890Y-90090952D01*
X168475890Y-90090952D02*
X168571128Y-90043333D01*
X168571128Y-90043333D02*
X168856842Y-90043333D01*
X168856842Y-90043333D02*
X168952080Y-90090952D01*
X168952080Y-90090952D02*
X168999700Y-90138571D01*
X168999700Y-90138571D02*
X169047319Y-90233809D01*
X169047319Y-90233809D02*
X169047319Y-90424285D01*
X169047319Y-90424285D02*
X168999700Y-90519523D01*
X168380652Y-89709999D02*
X169047319Y-89471904D01*
X168380652Y-89233809D02*
X169047319Y-89471904D01*
X169047319Y-89471904D02*
X169285414Y-89567142D01*
X169285414Y-89567142D02*
X169333033Y-89614761D01*
X169333033Y-89614761D02*
X169380652Y-89709999D01*
X168380652Y-88995713D02*
X168380652Y-88614761D01*
X168047319Y-88852856D02*
X168904461Y-88852856D01*
X168904461Y-88852856D02*
X168999700Y-88805237D01*
X168999700Y-88805237D02*
X169047319Y-88709999D01*
X169047319Y-88709999D02*
X169047319Y-88614761D01*
X168999700Y-87900475D02*
X169047319Y-87995713D01*
X169047319Y-87995713D02*
X169047319Y-88186189D01*
X169047319Y-88186189D02*
X168999700Y-88281427D01*
X168999700Y-88281427D02*
X168904461Y-88329046D01*
X168904461Y-88329046D02*
X168523509Y-88329046D01*
X168523509Y-88329046D02*
X168428271Y-88281427D01*
X168428271Y-88281427D02*
X168380652Y-88186189D01*
X168380652Y-88186189D02*
X168380652Y-87995713D01*
X168380652Y-87995713D02*
X168428271Y-87900475D01*
X168428271Y-87900475D02*
X168523509Y-87852856D01*
X168523509Y-87852856D02*
X168618747Y-87852856D01*
X168618747Y-87852856D02*
X168713985Y-88329046D01*
D11*
X121559638Y-94948333D02*
X120607257Y-95615000D01*
X121559638Y-96091190D02*
X119559638Y-96091190D01*
X119559638Y-96091190D02*
X119559638Y-95329285D01*
X119559638Y-95329285D02*
X119654876Y-95138809D01*
X119654876Y-95138809D02*
X119750114Y-95043571D01*
X119750114Y-95043571D02*
X119940590Y-94948333D01*
X119940590Y-94948333D02*
X120226304Y-94948333D01*
X120226304Y-94948333D02*
X120416780Y-95043571D01*
X120416780Y-95043571D02*
X120512019Y-95138809D01*
X120512019Y-95138809D02*
X120607257Y-95329285D01*
X120607257Y-95329285D02*
X120607257Y-96091190D01*
X119750114Y-94186428D02*
X119654876Y-94091190D01*
X119654876Y-94091190D02*
X119559638Y-93900714D01*
X119559638Y-93900714D02*
X119559638Y-93424523D01*
X119559638Y-93424523D02*
X119654876Y-93234047D01*
X119654876Y-93234047D02*
X119750114Y-93138809D01*
X119750114Y-93138809D02*
X119940590Y-93043571D01*
X119940590Y-93043571D02*
X120131066Y-93043571D01*
X120131066Y-93043571D02*
X120416780Y-93138809D01*
X120416780Y-93138809D02*
X121559638Y-94281666D01*
X121559638Y-94281666D02*
X121559638Y-93043571D01*
X103779638Y-94948333D02*
X102827257Y-95615000D01*
X103779638Y-96091190D02*
X101779638Y-96091190D01*
X101779638Y-96091190D02*
X101779638Y-95329285D01*
X101779638Y-95329285D02*
X101874876Y-95138809D01*
X101874876Y-95138809D02*
X101970114Y-95043571D01*
X101970114Y-95043571D02*
X102160590Y-94948333D01*
X102160590Y-94948333D02*
X102446304Y-94948333D01*
X102446304Y-94948333D02*
X102636780Y-95043571D01*
X102636780Y-95043571D02*
X102732019Y-95138809D01*
X102732019Y-95138809D02*
X102827257Y-95329285D01*
X102827257Y-95329285D02*
X102827257Y-96091190D01*
X101779638Y-94281666D02*
X101779638Y-93043571D01*
X101779638Y-93043571D02*
X102541542Y-93710238D01*
X102541542Y-93710238D02*
X102541542Y-93424523D01*
X102541542Y-93424523D02*
X102636780Y-93234047D01*
X102636780Y-93234047D02*
X102732019Y-93138809D01*
X102732019Y-93138809D02*
X102922495Y-93043571D01*
X102922495Y-93043571D02*
X103398685Y-93043571D01*
X103398685Y-93043571D02*
X103589161Y-93138809D01*
X103589161Y-93138809D02*
X103684400Y-93234047D01*
X103684400Y-93234047D02*
X103779638Y-93424523D01*
X103779638Y-93424523D02*
X103779638Y-93995952D01*
X103779638Y-93995952D02*
X103684400Y-94186428D01*
X103684400Y-94186428D02*
X103589161Y-94281666D01*
X152066666Y-101874638D02*
X151399999Y-100922257D01*
X150923809Y-101874638D02*
X150923809Y-99874638D01*
X150923809Y-99874638D02*
X151685714Y-99874638D01*
X151685714Y-99874638D02*
X151876190Y-99969876D01*
X151876190Y-99969876D02*
X151971428Y-100065114D01*
X151971428Y-100065114D02*
X152066666Y-100255590D01*
X152066666Y-100255590D02*
X152066666Y-100541304D01*
X152066666Y-100541304D02*
X151971428Y-100731780D01*
X151971428Y-100731780D02*
X151876190Y-100827019D01*
X151876190Y-100827019D02*
X151685714Y-100922257D01*
X151685714Y-100922257D02*
X150923809Y-100922257D01*
X153304761Y-99874638D02*
X153495238Y-99874638D01*
X153495238Y-99874638D02*
X153685714Y-99969876D01*
X153685714Y-99969876D02*
X153780952Y-100065114D01*
X153780952Y-100065114D02*
X153876190Y-100255590D01*
X153876190Y-100255590D02*
X153971428Y-100636542D01*
X153971428Y-100636542D02*
X153971428Y-101112733D01*
X153971428Y-101112733D02*
X153876190Y-101493685D01*
X153876190Y-101493685D02*
X153780952Y-101684161D01*
X153780952Y-101684161D02*
X153685714Y-101779400D01*
X153685714Y-101779400D02*
X153495238Y-101874638D01*
X153495238Y-101874638D02*
X153304761Y-101874638D01*
X153304761Y-101874638D02*
X153114285Y-101779400D01*
X153114285Y-101779400D02*
X153019047Y-101684161D01*
X153019047Y-101684161D02*
X152923809Y-101493685D01*
X152923809Y-101493685D02*
X152828571Y-101112733D01*
X152828571Y-101112733D02*
X152828571Y-100636542D01*
X152828571Y-100636542D02*
X152923809Y-100255590D01*
X152923809Y-100255590D02*
X153019047Y-100065114D01*
X153019047Y-100065114D02*
X153114285Y-99969876D01*
X153114285Y-99969876D02*
X153304761Y-99874638D01*
D13*
X20409819Y-48831428D02*
X20409819Y-48640952D01*
X20409819Y-48640952D02*
X20457438Y-48545714D01*
X20457438Y-48545714D02*
X20552676Y-48450476D01*
X20552676Y-48450476D02*
X20743152Y-48402857D01*
X20743152Y-48402857D02*
X21076485Y-48402857D01*
X21076485Y-48402857D02*
X21266961Y-48450476D01*
X21266961Y-48450476D02*
X21362200Y-48545714D01*
X21362200Y-48545714D02*
X21409819Y-48640952D01*
X21409819Y-48640952D02*
X21409819Y-48831428D01*
X21409819Y-48831428D02*
X21362200Y-48926666D01*
X21362200Y-48926666D02*
X21266961Y-49021904D01*
X21266961Y-49021904D02*
X21076485Y-49069523D01*
X21076485Y-49069523D02*
X20743152Y-49069523D01*
X20743152Y-49069523D02*
X20552676Y-49021904D01*
X20552676Y-49021904D02*
X20457438Y-48926666D01*
X20457438Y-48926666D02*
X20409819Y-48831428D01*
X20409819Y-47498095D02*
X20409819Y-47974285D01*
X20409819Y-47974285D02*
X20886009Y-48021904D01*
X20886009Y-48021904D02*
X20838390Y-47974285D01*
X20838390Y-47974285D02*
X20790771Y-47879047D01*
X20790771Y-47879047D02*
X20790771Y-47640952D01*
X20790771Y-47640952D02*
X20838390Y-47545714D01*
X20838390Y-47545714D02*
X20886009Y-47498095D01*
X20886009Y-47498095D02*
X20981247Y-47450476D01*
X20981247Y-47450476D02*
X21219342Y-47450476D01*
X21219342Y-47450476D02*
X21314580Y-47498095D01*
X21314580Y-47498095D02*
X21362200Y-47545714D01*
X21362200Y-47545714D02*
X21409819Y-47640952D01*
X21409819Y-47640952D02*
X21409819Y-47879047D01*
X21409819Y-47879047D02*
X21362200Y-47974285D01*
X21362200Y-47974285D02*
X21314580Y-48021904D01*
X20457438Y-69540357D02*
X20409819Y-69635595D01*
X20409819Y-69635595D02*
X20409819Y-69778452D01*
X20409819Y-69778452D02*
X20457438Y-69921309D01*
X20457438Y-69921309D02*
X20552676Y-70016547D01*
X20552676Y-70016547D02*
X20647914Y-70064166D01*
X20647914Y-70064166D02*
X20838390Y-70111785D01*
X20838390Y-70111785D02*
X20981247Y-70111785D01*
X20981247Y-70111785D02*
X21171723Y-70064166D01*
X21171723Y-70064166D02*
X21266961Y-70016547D01*
X21266961Y-70016547D02*
X21362200Y-69921309D01*
X21362200Y-69921309D02*
X21409819Y-69778452D01*
X21409819Y-69778452D02*
X21409819Y-69683214D01*
X21409819Y-69683214D02*
X21362200Y-69540357D01*
X21362200Y-69540357D02*
X21314580Y-69492738D01*
X21314580Y-69492738D02*
X20981247Y-69492738D01*
X20981247Y-69492738D02*
X20981247Y-69683214D01*
X20743152Y-69064166D02*
X21409819Y-69064166D01*
X20838390Y-69064166D02*
X20790771Y-69016547D01*
X20790771Y-69016547D02*
X20743152Y-68921309D01*
X20743152Y-68921309D02*
X20743152Y-68778452D01*
X20743152Y-68778452D02*
X20790771Y-68683214D01*
X20790771Y-68683214D02*
X20886009Y-68635595D01*
X20886009Y-68635595D02*
X21409819Y-68635595D01*
X21409819Y-67730833D02*
X20409819Y-67730833D01*
X21362200Y-67730833D02*
X21409819Y-67826071D01*
X21409819Y-67826071D02*
X21409819Y-68016547D01*
X21409819Y-68016547D02*
X21362200Y-68111785D01*
X21362200Y-68111785D02*
X21314580Y-68159404D01*
X21314580Y-68159404D02*
X21219342Y-68207023D01*
X21219342Y-68207023D02*
X20933628Y-68207023D01*
X20933628Y-68207023D02*
X20838390Y-68159404D01*
X20838390Y-68159404D02*
X20790771Y-68111785D01*
X20790771Y-68111785D02*
X20743152Y-68016547D01*
X20743152Y-68016547D02*
X20743152Y-67826071D01*
X20743152Y-67826071D02*
X20790771Y-67730833D01*
D11*
X68219638Y-94948333D02*
X67267257Y-95615000D01*
X68219638Y-96091190D02*
X66219638Y-96091190D01*
X66219638Y-96091190D02*
X66219638Y-95329285D01*
X66219638Y-95329285D02*
X66314876Y-95138809D01*
X66314876Y-95138809D02*
X66410114Y-95043571D01*
X66410114Y-95043571D02*
X66600590Y-94948333D01*
X66600590Y-94948333D02*
X66886304Y-94948333D01*
X66886304Y-94948333D02*
X67076780Y-95043571D01*
X67076780Y-95043571D02*
X67172019Y-95138809D01*
X67172019Y-95138809D02*
X67267257Y-95329285D01*
X67267257Y-95329285D02*
X67267257Y-96091190D01*
X66219638Y-93138809D02*
X66219638Y-94091190D01*
X66219638Y-94091190D02*
X67172019Y-94186428D01*
X67172019Y-94186428D02*
X67076780Y-94091190D01*
X67076780Y-94091190D02*
X66981542Y-93900714D01*
X66981542Y-93900714D02*
X66981542Y-93424523D01*
X66981542Y-93424523D02*
X67076780Y-93234047D01*
X67076780Y-93234047D02*
X67172019Y-93138809D01*
X67172019Y-93138809D02*
X67362495Y-93043571D01*
X67362495Y-93043571D02*
X67838685Y-93043571D01*
X67838685Y-93043571D02*
X68029161Y-93138809D01*
X68029161Y-93138809D02*
X68124400Y-93234047D01*
X68124400Y-93234047D02*
X68219638Y-93424523D01*
X68219638Y-93424523D02*
X68219638Y-93900714D01*
X68219638Y-93900714D02*
X68124400Y-94091190D01*
X68124400Y-94091190D02*
X68029161Y-94186428D01*
D13*
X142986190Y-77289819D02*
X142652857Y-76813628D01*
X142414762Y-77289819D02*
X142414762Y-76289819D01*
X142414762Y-76289819D02*
X142795714Y-76289819D01*
X142795714Y-76289819D02*
X142890952Y-76337438D01*
X142890952Y-76337438D02*
X142938571Y-76385057D01*
X142938571Y-76385057D02*
X142986190Y-76480295D01*
X142986190Y-76480295D02*
X142986190Y-76623152D01*
X142986190Y-76623152D02*
X142938571Y-76718390D01*
X142938571Y-76718390D02*
X142890952Y-76766009D01*
X142890952Y-76766009D02*
X142795714Y-76813628D01*
X142795714Y-76813628D02*
X142414762Y-76813628D01*
X143795714Y-77242200D02*
X143700476Y-77289819D01*
X143700476Y-77289819D02*
X143510000Y-77289819D01*
X143510000Y-77289819D02*
X143414762Y-77242200D01*
X143414762Y-77242200D02*
X143367143Y-77146961D01*
X143367143Y-77146961D02*
X143367143Y-76766009D01*
X143367143Y-76766009D02*
X143414762Y-76670771D01*
X143414762Y-76670771D02*
X143510000Y-76623152D01*
X143510000Y-76623152D02*
X143700476Y-76623152D01*
X143700476Y-76623152D02*
X143795714Y-76670771D01*
X143795714Y-76670771D02*
X143843333Y-76766009D01*
X143843333Y-76766009D02*
X143843333Y-76861247D01*
X143843333Y-76861247D02*
X143367143Y-76956485D01*
X144224286Y-77242200D02*
X144319524Y-77289819D01*
X144319524Y-77289819D02*
X144510000Y-77289819D01*
X144510000Y-77289819D02*
X144605238Y-77242200D01*
X144605238Y-77242200D02*
X144652857Y-77146961D01*
X144652857Y-77146961D02*
X144652857Y-77099342D01*
X144652857Y-77099342D02*
X144605238Y-77004104D01*
X144605238Y-77004104D02*
X144510000Y-76956485D01*
X144510000Y-76956485D02*
X144367143Y-76956485D01*
X144367143Y-76956485D02*
X144271905Y-76908866D01*
X144271905Y-76908866D02*
X144224286Y-76813628D01*
X144224286Y-76813628D02*
X144224286Y-76766009D01*
X144224286Y-76766009D02*
X144271905Y-76670771D01*
X144271905Y-76670771D02*
X144367143Y-76623152D01*
X144367143Y-76623152D02*
X144510000Y-76623152D01*
X144510000Y-76623152D02*
X144605238Y-76670771D01*
X142276667Y-76012200D02*
X144743334Y-76012200D01*
D14*
X108768571Y-19776857D02*
X107768571Y-18348285D01*
X107054285Y-19776857D02*
X107054285Y-16776857D01*
X107054285Y-16776857D02*
X108197142Y-16776857D01*
X108197142Y-16776857D02*
X108482857Y-16919714D01*
X108482857Y-16919714D02*
X108625714Y-17062571D01*
X108625714Y-17062571D02*
X108768571Y-17348285D01*
X108768571Y-17348285D02*
X108768571Y-17776857D01*
X108768571Y-17776857D02*
X108625714Y-18062571D01*
X108625714Y-18062571D02*
X108482857Y-18205428D01*
X108482857Y-18205428D02*
X108197142Y-18348285D01*
X108197142Y-18348285D02*
X107054285Y-18348285D01*
X110054285Y-18205428D02*
X111054285Y-18205428D01*
X111482857Y-19776857D02*
X110054285Y-19776857D01*
X110054285Y-19776857D02*
X110054285Y-16776857D01*
X110054285Y-16776857D02*
X111482857Y-16776857D01*
X114340000Y-16919714D02*
X114054286Y-16776857D01*
X114054286Y-16776857D02*
X113625714Y-16776857D01*
X113625714Y-16776857D02*
X113197143Y-16919714D01*
X113197143Y-16919714D02*
X112911428Y-17205428D01*
X112911428Y-17205428D02*
X112768571Y-17491142D01*
X112768571Y-17491142D02*
X112625714Y-18062571D01*
X112625714Y-18062571D02*
X112625714Y-18491142D01*
X112625714Y-18491142D02*
X112768571Y-19062571D01*
X112768571Y-19062571D02*
X112911428Y-19348285D01*
X112911428Y-19348285D02*
X113197143Y-19634000D01*
X113197143Y-19634000D02*
X113625714Y-19776857D01*
X113625714Y-19776857D02*
X113911428Y-19776857D01*
X113911428Y-19776857D02*
X114340000Y-19634000D01*
X114340000Y-19634000D02*
X114482857Y-19491142D01*
X114482857Y-19491142D02*
X114482857Y-18491142D01*
X114482857Y-18491142D02*
X113911428Y-18491142D01*
X115625714Y-19634000D02*
X116054286Y-19776857D01*
X116054286Y-19776857D02*
X116768571Y-19776857D01*
X116768571Y-19776857D02*
X117054286Y-19634000D01*
X117054286Y-19634000D02*
X117197143Y-19491142D01*
X117197143Y-19491142D02*
X117340000Y-19205428D01*
X117340000Y-19205428D02*
X117340000Y-18919714D01*
X117340000Y-18919714D02*
X117197143Y-18634000D01*
X117197143Y-18634000D02*
X117054286Y-18491142D01*
X117054286Y-18491142D02*
X116768571Y-18348285D01*
X116768571Y-18348285D02*
X116197143Y-18205428D01*
X116197143Y-18205428D02*
X115911428Y-18062571D01*
X115911428Y-18062571D02*
X115768571Y-17919714D01*
X115768571Y-17919714D02*
X115625714Y-17634000D01*
X115625714Y-17634000D02*
X115625714Y-17348285D01*
X115625714Y-17348285D02*
X115768571Y-17062571D01*
X115768571Y-17062571D02*
X115911428Y-16919714D01*
X115911428Y-16919714D02*
X116197143Y-16776857D01*
X116197143Y-16776857D02*
X116911428Y-16776857D01*
X116911428Y-16776857D02*
X117340000Y-16919714D01*
X118340000Y-17776857D02*
X119054286Y-19776857D01*
X119054286Y-19776857D02*
X119768571Y-17776857D01*
X122197143Y-16776857D02*
X121625714Y-16776857D01*
X121625714Y-16776857D02*
X121340000Y-16919714D01*
X121340000Y-16919714D02*
X121197143Y-17062571D01*
X121197143Y-17062571D02*
X120911428Y-17491142D01*
X120911428Y-17491142D02*
X120768571Y-18062571D01*
X120768571Y-18062571D02*
X120768571Y-19205428D01*
X120768571Y-19205428D02*
X120911428Y-19491142D01*
X120911428Y-19491142D02*
X121054285Y-19634000D01*
X121054285Y-19634000D02*
X121340000Y-19776857D01*
X121340000Y-19776857D02*
X121911428Y-19776857D01*
X121911428Y-19776857D02*
X122197143Y-19634000D01*
X122197143Y-19634000D02*
X122340000Y-19491142D01*
X122340000Y-19491142D02*
X122482857Y-19205428D01*
X122482857Y-19205428D02*
X122482857Y-18491142D01*
X122482857Y-18491142D02*
X122340000Y-18205428D01*
X122340000Y-18205428D02*
X122197143Y-18062571D01*
X122197143Y-18062571D02*
X121911428Y-17919714D01*
X121911428Y-17919714D02*
X121340000Y-17919714D01*
X121340000Y-17919714D02*
X121054285Y-18062571D01*
X121054285Y-18062571D02*
X120911428Y-18205428D01*
X120911428Y-18205428D02*
X120768571Y-18491142D01*
X123768571Y-19491142D02*
X123911428Y-19634000D01*
X123911428Y-19634000D02*
X123768571Y-19776857D01*
X123768571Y-19776857D02*
X123625714Y-19634000D01*
X123625714Y-19634000D02*
X123768571Y-19491142D01*
X123768571Y-19491142D02*
X123768571Y-19776857D01*
X126768571Y-19776857D02*
X125054285Y-19776857D01*
X125911428Y-19776857D02*
X125911428Y-16776857D01*
X125911428Y-16776857D02*
X125625714Y-17205428D01*
X125625714Y-17205428D02*
X125339999Y-17491142D01*
X125339999Y-17491142D02*
X125054285Y-17634000D01*
D13*
X21409819Y-89376189D02*
X20409819Y-89376189D01*
X20743152Y-88471428D02*
X21409819Y-88471428D01*
X20362200Y-88709523D02*
X21076485Y-88947618D01*
X21076485Y-88947618D02*
X21076485Y-88328571D01*
D11*
X29389638Y-26066666D02*
X31389638Y-25400000D01*
X31389638Y-25400000D02*
X29389638Y-24733333D01*
D13*
X80417319Y-103473094D02*
X81226842Y-103473094D01*
X81226842Y-103473094D02*
X81322080Y-103425475D01*
X81322080Y-103425475D02*
X81369700Y-103377856D01*
X81369700Y-103377856D02*
X81417319Y-103282618D01*
X81417319Y-103282618D02*
X81417319Y-103092142D01*
X81417319Y-103092142D02*
X81369700Y-102996904D01*
X81369700Y-102996904D02*
X81322080Y-102949285D01*
X81322080Y-102949285D02*
X81226842Y-102901666D01*
X81226842Y-102901666D02*
X80417319Y-102901666D01*
X81417319Y-101901666D02*
X81417319Y-102473094D01*
X81417319Y-102187380D02*
X80417319Y-102187380D01*
X80417319Y-102187380D02*
X80560176Y-102282618D01*
X80560176Y-102282618D02*
X80655414Y-102377856D01*
X80655414Y-102377856D02*
X80703033Y-102473094D01*
X80750652Y-101044523D02*
X81417319Y-101044523D01*
X80369700Y-101282618D02*
X81083985Y-101520713D01*
X81083985Y-101520713D02*
X81083985Y-100901666D01*
X83018333Y-105547319D02*
X82685000Y-105071128D01*
X82446905Y-105547319D02*
X82446905Y-104547319D01*
X82446905Y-104547319D02*
X82827857Y-104547319D01*
X82827857Y-104547319D02*
X82923095Y-104594938D01*
X82923095Y-104594938D02*
X82970714Y-104642557D01*
X82970714Y-104642557D02*
X83018333Y-104737795D01*
X83018333Y-104737795D02*
X83018333Y-104880652D01*
X83018333Y-104880652D02*
X82970714Y-104975890D01*
X82970714Y-104975890D02*
X82923095Y-105023509D01*
X82923095Y-105023509D02*
X82827857Y-105071128D01*
X82827857Y-105071128D02*
X82446905Y-105071128D01*
X83875476Y-104547319D02*
X83685000Y-104547319D01*
X83685000Y-104547319D02*
X83589762Y-104594938D01*
X83589762Y-104594938D02*
X83542143Y-104642557D01*
X83542143Y-104642557D02*
X83446905Y-104785414D01*
X83446905Y-104785414D02*
X83399286Y-104975890D01*
X83399286Y-104975890D02*
X83399286Y-105356842D01*
X83399286Y-105356842D02*
X83446905Y-105452080D01*
X83446905Y-105452080D02*
X83494524Y-105499700D01*
X83494524Y-105499700D02*
X83589762Y-105547319D01*
X83589762Y-105547319D02*
X83780238Y-105547319D01*
X83780238Y-105547319D02*
X83875476Y-105499700D01*
X83875476Y-105499700D02*
X83923095Y-105452080D01*
X83923095Y-105452080D02*
X83970714Y-105356842D01*
X83970714Y-105356842D02*
X83970714Y-105118747D01*
X83970714Y-105118747D02*
X83923095Y-105023509D01*
X83923095Y-105023509D02*
X83875476Y-104975890D01*
X83875476Y-104975890D02*
X83780238Y-104928271D01*
X83780238Y-104928271D02*
X83589762Y-104928271D01*
X83589762Y-104928271D02*
X83494524Y-104975890D01*
X83494524Y-104975890D02*
X83446905Y-105023509D01*
X83446905Y-105023509D02*
X83399286Y-105118747D01*
X58494819Y-105306666D02*
X58018628Y-105639999D01*
X58494819Y-105878094D02*
X57494819Y-105878094D01*
X57494819Y-105878094D02*
X57494819Y-105497142D01*
X57494819Y-105497142D02*
X57542438Y-105401904D01*
X57542438Y-105401904D02*
X57590057Y-105354285D01*
X57590057Y-105354285D02*
X57685295Y-105306666D01*
X57685295Y-105306666D02*
X57828152Y-105306666D01*
X57828152Y-105306666D02*
X57923390Y-105354285D01*
X57923390Y-105354285D02*
X57971009Y-105401904D01*
X57971009Y-105401904D02*
X58018628Y-105497142D01*
X58018628Y-105497142D02*
X58018628Y-105878094D01*
X57494819Y-104973332D02*
X57494819Y-104306666D01*
X57494819Y-104306666D02*
X58494819Y-104735237D01*
X160686905Y-101689819D02*
X160686905Y-102499342D01*
X160686905Y-102499342D02*
X160734524Y-102594580D01*
X160734524Y-102594580D02*
X160782143Y-102642200D01*
X160782143Y-102642200D02*
X160877381Y-102689819D01*
X160877381Y-102689819D02*
X161067857Y-102689819D01*
X161067857Y-102689819D02*
X161163095Y-102642200D01*
X161163095Y-102642200D02*
X161210714Y-102594580D01*
X161210714Y-102594580D02*
X161258333Y-102499342D01*
X161258333Y-102499342D02*
X161258333Y-101689819D01*
X162258333Y-102689819D02*
X161686905Y-102689819D01*
X161972619Y-102689819D02*
X161972619Y-101689819D01*
X161972619Y-101689819D02*
X161877381Y-101832676D01*
X161877381Y-101832676D02*
X161782143Y-101927914D01*
X161782143Y-101927914D02*
X161686905Y-101975533D01*
X163163095Y-101689819D02*
X162686905Y-101689819D01*
X162686905Y-101689819D02*
X162639286Y-102166009D01*
X162639286Y-102166009D02*
X162686905Y-102118390D01*
X162686905Y-102118390D02*
X162782143Y-102070771D01*
X162782143Y-102070771D02*
X163020238Y-102070771D01*
X163020238Y-102070771D02*
X163115476Y-102118390D01*
X163115476Y-102118390D02*
X163163095Y-102166009D01*
X163163095Y-102166009D02*
X163210714Y-102261247D01*
X163210714Y-102261247D02*
X163210714Y-102499342D01*
X163210714Y-102499342D02*
X163163095Y-102594580D01*
X163163095Y-102594580D02*
X163115476Y-102642200D01*
X163115476Y-102642200D02*
X163020238Y-102689819D01*
X163020238Y-102689819D02*
X162782143Y-102689819D01*
X162782143Y-102689819D02*
X162686905Y-102642200D01*
X162686905Y-102642200D02*
X162639286Y-102594580D01*
X136614819Y-104108094D02*
X137424342Y-104108094D01*
X137424342Y-104108094D02*
X137519580Y-104060475D01*
X137519580Y-104060475D02*
X137567200Y-104012856D01*
X137567200Y-104012856D02*
X137614819Y-103917618D01*
X137614819Y-103917618D02*
X137614819Y-103727142D01*
X137614819Y-103727142D02*
X137567200Y-103631904D01*
X137567200Y-103631904D02*
X137519580Y-103584285D01*
X137519580Y-103584285D02*
X137424342Y-103536666D01*
X137424342Y-103536666D02*
X136614819Y-103536666D01*
X137614819Y-102536666D02*
X137614819Y-103108094D01*
X137614819Y-102822380D02*
X136614819Y-102822380D01*
X136614819Y-102822380D02*
X136757676Y-102917618D01*
X136757676Y-102917618D02*
X136852914Y-103012856D01*
X136852914Y-103012856D02*
X136900533Y-103108094D01*
X136614819Y-102203332D02*
X136614819Y-101584285D01*
X136614819Y-101584285D02*
X136995771Y-101917618D01*
X136995771Y-101917618D02*
X136995771Y-101774761D01*
X136995771Y-101774761D02*
X137043390Y-101679523D01*
X137043390Y-101679523D02*
X137091009Y-101631904D01*
X137091009Y-101631904D02*
X137186247Y-101584285D01*
X137186247Y-101584285D02*
X137424342Y-101584285D01*
X137424342Y-101584285D02*
X137519580Y-101631904D01*
X137519580Y-101631904D02*
X137567200Y-101679523D01*
X137567200Y-101679523D02*
X137614819Y-101774761D01*
X137614819Y-101774761D02*
X137614819Y-102060475D01*
X137614819Y-102060475D02*
X137567200Y-102155713D01*
X137567200Y-102155713D02*
X137519580Y-102203332D01*
X51649405Y-109039819D02*
X51649405Y-108039819D01*
X51649405Y-108039819D02*
X51887500Y-108039819D01*
X51887500Y-108039819D02*
X52030357Y-108087438D01*
X52030357Y-108087438D02*
X52125595Y-108182676D01*
X52125595Y-108182676D02*
X52173214Y-108277914D01*
X52173214Y-108277914D02*
X52220833Y-108468390D01*
X52220833Y-108468390D02*
X52220833Y-108611247D01*
X52220833Y-108611247D02*
X52173214Y-108801723D01*
X52173214Y-108801723D02*
X52125595Y-108896961D01*
X52125595Y-108896961D02*
X52030357Y-108992200D01*
X52030357Y-108992200D02*
X51887500Y-109039819D01*
X51887500Y-109039819D02*
X51649405Y-109039819D01*
X53173214Y-109039819D02*
X52601786Y-109039819D01*
X52887500Y-109039819D02*
X52887500Y-108039819D01*
X52887500Y-108039819D02*
X52792262Y-108182676D01*
X52792262Y-108182676D02*
X52697024Y-108277914D01*
X52697024Y-108277914D02*
X52601786Y-108325533D01*
%TO.C,U3*%
X113030000Y-27940000D02*
X119380000Y-27940000D01*
X113030000Y-99060000D02*
X113030000Y-27940000D01*
X119380000Y-27940000D02*
X119380000Y-99060000D01*
X119380000Y-99060000D02*
X113030000Y-99060000D01*
%TO.C,U5*%
X77470000Y-27940000D02*
X83820000Y-27940000D01*
X77470000Y-99060000D02*
X77470000Y-27940000D01*
X83820000Y-27940000D02*
X83820000Y-99060000D01*
X83820000Y-99060000D02*
X77470000Y-99060000D01*
%TO.C,U7*%
X41910000Y-27940000D02*
X48260000Y-27940000D01*
X41910000Y-99060000D02*
X41910000Y-27940000D01*
X48260000Y-27940000D02*
X48260000Y-99060000D01*
X48260000Y-99060000D02*
X41910000Y-99060000D01*
%TO.C,U4*%
X95250000Y-27940000D02*
X101600000Y-27940000D01*
X95250000Y-99060000D02*
X95250000Y-27940000D01*
X101600000Y-27940000D02*
X101600000Y-99060000D01*
X101600000Y-99060000D02*
X95250000Y-99060000D01*
%TO.C,U6*%
X59690000Y-27940000D02*
X66040000Y-27940000D01*
X59690000Y-99060000D02*
X59690000Y-27940000D01*
X66040000Y-27940000D02*
X66040000Y-99060000D01*
X66040000Y-99060000D02*
X59690000Y-99060000D01*
%TO.C,U8*%
X24130000Y-27940000D02*
X30480000Y-27940000D01*
X24130000Y-99060000D02*
X24130000Y-27940000D01*
X30480000Y-27940000D02*
X30480000Y-99060000D01*
X30480000Y-99060000D02*
X24130000Y-99060000D01*
%TO.C,U1*%
X148590000Y-27940000D02*
X154940000Y-27940000D01*
X148590000Y-99060000D02*
X148590000Y-27940000D01*
X154940000Y-27940000D02*
X154940000Y-99060000D01*
X154940000Y-99060000D02*
X148590000Y-99060000D01*
D10*
%TO.C,J11*%
X139005000Y-108585000D02*
X139005000Y-103445000D01*
X141665000Y-103445000D02*
X139005000Y-103445000D01*
X141665000Y-108585000D02*
X139005000Y-108585000D01*
X141665000Y-108585000D02*
X141665000Y-103445000D01*
X141665000Y-109855000D02*
X141665000Y-111185000D01*
X141665000Y-111185000D02*
X140335000Y-111185000D01*
%TO.C,J13*%
X88840000Y-72330000D02*
X90170000Y-72330000D01*
X88840000Y-73660000D02*
X88840000Y-72330000D01*
X88840000Y-74930000D02*
X88840000Y-74990000D01*
X88840000Y-74930000D02*
X91500000Y-74930000D01*
X88840000Y-74990000D02*
X91500000Y-74990000D01*
X91500000Y-74930000D02*
X91500000Y-74990000D01*
%TO.C,J14*%
X58360000Y-108525000D02*
X59690000Y-108525000D01*
X58360000Y-109855000D02*
X58360000Y-108525000D01*
X58360000Y-111125000D02*
X58360000Y-111185000D01*
X58360000Y-111125000D02*
X61020000Y-111125000D01*
X58360000Y-111185000D02*
X61020000Y-111185000D01*
X61020000Y-111125000D02*
X61020000Y-111185000D01*
%TO.C,J15*%
X81855000Y-100905000D02*
X83185000Y-100905000D01*
X81855000Y-102235000D02*
X81855000Y-100905000D01*
X81855000Y-103505000D02*
X81855000Y-103565000D01*
X81855000Y-103505000D02*
X84515000Y-103505000D01*
X81855000Y-103565000D02*
X84515000Y-103565000D01*
X84515000Y-103505000D02*
X84515000Y-103565000D01*
%TO.C,U14*%
X62110000Y-100915000D02*
X62110000Y-111195000D01*
X62110000Y-111195000D02*
X80130000Y-111195000D01*
X62170000Y-103405000D02*
X62170000Y-108705000D01*
X62170000Y-108705000D02*
X80070000Y-108705000D01*
X80070000Y-103405000D02*
X62170000Y-103405000D01*
X80070000Y-105055000D02*
X80070000Y-103405000D01*
X80070000Y-108705000D02*
X80070000Y-107055000D01*
X80130000Y-100915000D02*
X62110000Y-100915000D01*
X80130000Y-111195000D02*
X80130000Y-100915000D01*
X80070000Y-107055000D02*
G75*
G02*
X80070000Y-105055000I0J1000000D01*
G01*
%TO.C,J16*%
X30220000Y-110840000D02*
X30220000Y-111580000D01*
X30220000Y-111580000D02*
X30720000Y-111580000D01*
X30460000Y-101419000D02*
X30460000Y-111340000D01*
X30460000Y-101419000D02*
X40580000Y-101419000D01*
X30460000Y-104379000D02*
X40580000Y-104379000D01*
X30460000Y-109280000D02*
X40580000Y-109280000D01*
X30460000Y-110780000D02*
X40580000Y-110780000D01*
X30460000Y-111340000D02*
X40580000Y-111340000D01*
X36793000Y-107703000D02*
X36746000Y-107749000D01*
X36986000Y-107919000D02*
X36951000Y-107954000D01*
X39090000Y-105405000D02*
X39055000Y-105441000D01*
X39295000Y-105611000D02*
X39248000Y-105657000D01*
X40580000Y-101419000D02*
X40580000Y-111340000D01*
X31484573Y-107363042D02*
G75*
G02*
X31485000Y-105996000I1535420J683041D01*
G01*
X32336958Y-105144573D02*
G75*
G02*
X33704000Y-105145000I683041J-1535420D01*
G01*
X33048805Y-108360253D02*
G75*
G02*
X32336000Y-108215000I-28806J1680254D01*
G01*
X33703318Y-108214756D02*
G75*
G02*
X33020000Y-108360000I-683318J1534756D01*
G01*
X34555427Y-105996958D02*
G75*
G02*
X34555000Y-107364000I-1535427J-683042D01*
G01*
X39700000Y-106680000D02*
G75*
G02*
X36340000Y-106680000I-1680000J0D01*
G01*
X36340000Y-106680000D02*
G75*
G02*
X39700000Y-106680000I1680000J0D01*
G01*
%TO.C,J17*%
X169485000Y-81220000D02*
X170815000Y-81220000D01*
X169485000Y-82550000D02*
X169485000Y-81220000D01*
X169485000Y-83820000D02*
X169485000Y-104200000D01*
X169485000Y-83820000D02*
X172145000Y-83820000D01*
X169485000Y-104200000D02*
X172145000Y-104200000D01*
X172145000Y-83820000D02*
X172145000Y-104200000D01*
%TO.C,J18*%
X169485000Y-55820000D02*
X170815000Y-55820000D01*
X169485000Y-57150000D02*
X169485000Y-55820000D01*
X169485000Y-58420000D02*
X169485000Y-78800000D01*
X169485000Y-58420000D02*
X172145000Y-58420000D01*
X169485000Y-78800000D02*
X172145000Y-78800000D01*
X172145000Y-58420000D02*
X172145000Y-78800000D01*
%TO.C,R6*%
X86222064Y-104357500D02*
X85767936Y-104357500D01*
X86222064Y-105827500D02*
X85767936Y-105827500D01*
%TO.C,R7*%
X58955000Y-105367064D02*
X58955000Y-104912936D01*
X60425000Y-105367064D02*
X60425000Y-104912936D01*
%TO.C,J19*%
X35500000Y-72330000D02*
X36830000Y-72330000D01*
X35500000Y-73660000D02*
X35500000Y-72330000D01*
X35500000Y-74930000D02*
X35500000Y-74990000D01*
X35500000Y-74930000D02*
X38160000Y-74930000D01*
X35500000Y-74990000D02*
X38160000Y-74990000D01*
X38160000Y-74930000D02*
X38160000Y-74990000D01*
D13*
%TO.C,U9*%
X143510000Y-27940000D02*
X149860000Y-27940000D01*
X143510000Y-99060000D02*
X143510000Y-27940000D01*
X149860000Y-27940000D02*
X149860000Y-99060000D01*
X149860000Y-99060000D02*
X143510000Y-99060000D01*
%TO.C,U10*%
X125730000Y-27940000D02*
X132080000Y-27940000D01*
X125730000Y-99060000D02*
X125730000Y-27940000D01*
X132080000Y-27940000D02*
X132080000Y-99060000D01*
X132080000Y-99060000D02*
X125730000Y-99060000D01*
%TO.C,U11*%
X107950000Y-27940000D02*
X114300000Y-27940000D01*
X107950000Y-99060000D02*
X107950000Y-27940000D01*
X114300000Y-27940000D02*
X114300000Y-99060000D01*
X114300000Y-99060000D02*
X107950000Y-99060000D01*
%TO.C,U12*%
X90170000Y-27940000D02*
X96520000Y-27940000D01*
X90170000Y-99060000D02*
X90170000Y-27940000D01*
X96520000Y-27940000D02*
X96520000Y-99060000D01*
X96520000Y-99060000D02*
X90170000Y-99060000D01*
%TO.C,U16*%
X72390000Y-27940000D02*
X78740000Y-27940000D01*
X72390000Y-99060000D02*
X72390000Y-27940000D01*
X78740000Y-27940000D02*
X78740000Y-99060000D01*
X78740000Y-99060000D02*
X72390000Y-99060000D01*
%TO.C,U17*%
X54610000Y-27940000D02*
X60960000Y-27940000D01*
X54610000Y-99060000D02*
X54610000Y-27940000D01*
X60960000Y-27940000D02*
X60960000Y-99060000D01*
X60960000Y-99060000D02*
X54610000Y-99060000D01*
%TO.C,U18*%
X36830000Y-27940000D02*
X43180000Y-27940000D01*
X36830000Y-99060000D02*
X36830000Y-27940000D01*
X43180000Y-27940000D02*
X43180000Y-99060000D01*
X43180000Y-99060000D02*
X36830000Y-99060000D01*
%TO.C,U19*%
X19050000Y-27940000D02*
X25400000Y-27940000D01*
X19050000Y-99060000D02*
X19050000Y-27940000D01*
X25400000Y-27940000D02*
X25400000Y-99060000D01*
X25400000Y-99060000D02*
X19050000Y-99060000D01*
%TO.C,U2*%
X130810000Y-27940000D02*
X137160000Y-27940000D01*
X130810000Y-99060000D02*
X130810000Y-27940000D01*
X137160000Y-27940000D02*
X137160000Y-99060000D01*
X137160000Y-99060000D02*
X130810000Y-99060000D01*
%TO.C,U15*%
X160020000Y-21590000D02*
X167640000Y-21590000D01*
X160020000Y-102870000D02*
X160020000Y-21590000D01*
X167640000Y-21590000D02*
X167640000Y-102870000D01*
X167640000Y-102870000D02*
X160020000Y-102870000D01*
D10*
%TO.C,U13*%
X115450000Y-100905000D02*
X115450000Y-111185000D01*
X115450000Y-111185000D02*
X136010000Y-111185000D01*
X115510000Y-103395000D02*
X115510000Y-108695000D01*
X115510000Y-108695000D02*
X135950000Y-108695000D01*
X135950000Y-103395000D02*
X115510000Y-103395000D01*
X135950000Y-105045000D02*
X135950000Y-103395000D01*
X135950000Y-108695000D02*
X135950000Y-107045000D01*
X136010000Y-100905000D02*
X115450000Y-100905000D01*
X136010000Y-111185000D02*
X136010000Y-100905000D01*
X135950000Y-107045000D02*
G75*
G02*
X135950000Y-105045000I0J1000000D01*
G01*
%TO.C,J20*%
X53280000Y-72330000D02*
X54610000Y-72330000D01*
X53280000Y-73660000D02*
X53280000Y-72330000D01*
X53280000Y-74930000D02*
X53280000Y-74990000D01*
X53280000Y-74930000D02*
X55940000Y-74930000D01*
X53280000Y-74990000D02*
X55940000Y-74990000D01*
X55940000Y-74930000D02*
X55940000Y-74990000D01*
%TO.C,J12*%
X81220000Y-108525000D02*
X82550000Y-108525000D01*
X81220000Y-109855000D02*
X81220000Y-108525000D01*
X81220000Y-111125000D02*
X81220000Y-111185000D01*
X81220000Y-111125000D02*
X83880000Y-111125000D01*
X81220000Y-111185000D02*
X83880000Y-111185000D01*
X83880000Y-111125000D02*
X83880000Y-111185000D01*
%TO.C,D1*%
X50820000Y-110130000D02*
X50820000Y-107040000D01*
X45270000Y-108585462D02*
G75*
G02*
X50820000Y-107040170I2990000J462D01*
G01*
X50820000Y-110129830D02*
G75*
G02*
X45270000Y-108584538I-2560000J1544830D01*
G01*
X50760000Y-108585000D02*
G75*
G02*
X45760000Y-108585000I-2500000J0D01*
G01*
X45760000Y-108585000D02*
G75*
G02*
X50760000Y-108585000I2500000J0D01*
G01*
%TO.C,J9*%
X85665000Y-100905000D02*
X86995000Y-100905000D01*
X85665000Y-102235000D02*
X85665000Y-100905000D01*
X85665000Y-103505000D02*
X85665000Y-103565000D01*
X85665000Y-103505000D02*
X88325000Y-103505000D01*
X85665000Y-103565000D02*
X88325000Y-103565000D01*
X88325000Y-103505000D02*
X88325000Y-103565000D01*
%TO.C,J10*%
X142180000Y-72330000D02*
X143510000Y-72330000D01*
X142180000Y-73660000D02*
X142180000Y-72330000D01*
X142180000Y-74930000D02*
X142180000Y-74990000D01*
X142180000Y-74930000D02*
X144840000Y-74930000D01*
X142180000Y-74990000D02*
X144840000Y-74990000D01*
X144840000Y-74930000D02*
X144840000Y-74990000D01*
%TO.C,J21*%
X106620000Y-72330000D02*
X107950000Y-72330000D01*
X106620000Y-73660000D02*
X106620000Y-72330000D01*
X106620000Y-74930000D02*
X106620000Y-74990000D01*
X106620000Y-74930000D02*
X109280000Y-74930000D01*
X106620000Y-74990000D02*
X109280000Y-74990000D01*
X109280000Y-74930000D02*
X109280000Y-74990000D01*
%TO.C,J22*%
X29785000Y-72330000D02*
X31115000Y-72330000D01*
X29785000Y-73660000D02*
X29785000Y-72330000D01*
X29785000Y-74930000D02*
X29785000Y-74990000D01*
X29785000Y-74930000D02*
X32445000Y-74930000D01*
X29785000Y-74990000D02*
X32445000Y-74990000D01*
X32445000Y-74930000D02*
X32445000Y-74990000D01*
%TO.C,J23*%
X124400000Y-72330000D02*
X125730000Y-72330000D01*
X124400000Y-73660000D02*
X124400000Y-72330000D01*
X124400000Y-74930000D02*
X124400000Y-74990000D01*
X124400000Y-74930000D02*
X127060000Y-74930000D01*
X124400000Y-74990000D02*
X127060000Y-74990000D01*
X127060000Y-74930000D02*
X127060000Y-74990000D01*
%TO.C,J24*%
X71060000Y-72330000D02*
X72390000Y-72330000D01*
X71060000Y-73660000D02*
X71060000Y-72330000D01*
X71060000Y-74930000D02*
X71060000Y-74990000D01*
X71060000Y-74930000D02*
X73720000Y-74930000D01*
X71060000Y-74990000D02*
X73720000Y-74990000D01*
X73720000Y-74930000D02*
X73720000Y-74990000D01*
%TD*%
M02*
