%TF.GenerationSoftware,KiCad,Pcbnew,9.0.6*%
%TF.CreationDate,2026-01-09T18:10:27+03:00*%
%TF.ProjectId,Regs-v6,52656773-2d76-4362-9e6b-696361645f70,rev?*%
%TF.SameCoordinates,Original*%
%TF.FileFunction,Legend,Top*%
%TF.FilePolarity,Positive*%
%FSLAX46Y46*%
G04 Gerber Fmt 4.6, Leading zero omitted, Abs format (unit mm)*
G04 Created by KiCad (PCBNEW 9.0.6) date 2026-01-09 18:10:27*
%MOMM*%
%LPD*%
G01*
G04 APERTURE LIST*
%ADD10C,0.120000*%
%ADD11C,0.300000*%
%ADD12C,0.250000*%
%ADD13C,0.150000*%
%ADD14C,0.500000*%
G04 APERTURE END LIST*
D10*
X21590000Y-93345000D02*
X21590000Y-94615000D01*
X39370000Y-93345000D02*
X39370000Y-94615000D01*
X21590000Y-94615000D02*
X31750000Y-94615000D01*
X39370000Y-94615000D02*
X36195000Y-94615000D01*
X110490000Y-93345000D02*
X110490000Y-94615000D01*
X74930000Y-93345000D02*
X74930000Y-94615000D01*
X128270000Y-94615000D02*
X138430000Y-94615000D01*
X74930000Y-94615000D02*
X71755000Y-94615000D01*
X92710000Y-93345000D02*
X92710000Y-94615000D01*
X146050000Y-93345000D02*
X146050000Y-94615000D01*
X146050000Y-94615000D02*
X142875000Y-94615000D01*
X128270000Y-93345000D02*
X128270000Y-94615000D01*
X92710000Y-94615000D02*
X102870000Y-94615000D01*
X57150000Y-93345000D02*
X57150000Y-94615000D01*
X110490000Y-94615000D02*
X107315000Y-94615000D01*
X57150000Y-94615000D02*
X67310000Y-94615000D01*
D11*
X141129285Y-104588328D02*
X142129285Y-104588328D01*
X142129285Y-104588328D02*
X141486428Y-106088328D01*
X143343571Y-105088328D02*
X143343571Y-106088328D01*
X142986428Y-104516900D02*
X142629285Y-105588328D01*
X142629285Y-105588328D02*
X143557856Y-105588328D01*
X144129284Y-106088328D02*
X144129284Y-104588328D01*
X144129284Y-105302614D02*
X144986427Y-105302614D01*
X144986427Y-106088328D02*
X144986427Y-104588328D01*
X146557856Y-105945471D02*
X146486428Y-106016900D01*
X146486428Y-106016900D02*
X146272142Y-106088328D01*
X146272142Y-106088328D02*
X146129285Y-106088328D01*
X146129285Y-106088328D02*
X145914999Y-106016900D01*
X145914999Y-106016900D02*
X145772142Y-105874042D01*
X145772142Y-105874042D02*
X145700713Y-105731185D01*
X145700713Y-105731185D02*
X145629285Y-105445471D01*
X145629285Y-105445471D02*
X145629285Y-105231185D01*
X145629285Y-105231185D02*
X145700713Y-104945471D01*
X145700713Y-104945471D02*
X145772142Y-104802614D01*
X145772142Y-104802614D02*
X145914999Y-104659757D01*
X145914999Y-104659757D02*
X146129285Y-104588328D01*
X146129285Y-104588328D02*
X146272142Y-104588328D01*
X146272142Y-104588328D02*
X146486428Y-104659757D01*
X146486428Y-104659757D02*
X146557856Y-104731185D01*
X147200713Y-106088328D02*
X147200713Y-104588328D01*
X147200713Y-104588328D02*
X147772142Y-104588328D01*
X147772142Y-104588328D02*
X147914999Y-104659757D01*
X147914999Y-104659757D02*
X147986428Y-104731185D01*
X147986428Y-104731185D02*
X148057856Y-104874042D01*
X148057856Y-104874042D02*
X148057856Y-105088328D01*
X148057856Y-105088328D02*
X147986428Y-105231185D01*
X147986428Y-105231185D02*
X147914999Y-105302614D01*
X147914999Y-105302614D02*
X147772142Y-105374042D01*
X147772142Y-105374042D02*
X147200713Y-105374042D01*
X148700713Y-104588328D02*
X148700713Y-105802614D01*
X148700713Y-105802614D02*
X148772142Y-105945471D01*
X148772142Y-105945471D02*
X148843571Y-106016900D01*
X148843571Y-106016900D02*
X148986428Y-106088328D01*
X148986428Y-106088328D02*
X149272142Y-106088328D01*
X149272142Y-106088328D02*
X149414999Y-106016900D01*
X149414999Y-106016900D02*
X149486428Y-105945471D01*
X149486428Y-105945471D02*
X149557856Y-105802614D01*
X149557856Y-105802614D02*
X149557856Y-104588328D01*
D12*
X105632380Y-100512238D02*
X105822857Y-100512238D01*
X105822857Y-100512238D02*
X106013333Y-100607476D01*
X106013333Y-100607476D02*
X106108571Y-100702714D01*
X106108571Y-100702714D02*
X106203809Y-100893190D01*
X106203809Y-100893190D02*
X106299047Y-101274142D01*
X106299047Y-101274142D02*
X106299047Y-101750333D01*
X106299047Y-101750333D02*
X106203809Y-102131285D01*
X106203809Y-102131285D02*
X106108571Y-102321761D01*
X106108571Y-102321761D02*
X106013333Y-102417000D01*
X106013333Y-102417000D02*
X105822857Y-102512238D01*
X105822857Y-102512238D02*
X105632380Y-102512238D01*
X105632380Y-102512238D02*
X105441904Y-102417000D01*
X105441904Y-102417000D02*
X105346666Y-102321761D01*
X105346666Y-102321761D02*
X105251428Y-102131285D01*
X105251428Y-102131285D02*
X105156190Y-101750333D01*
X105156190Y-101750333D02*
X105156190Y-101274142D01*
X105156190Y-101274142D02*
X105251428Y-100893190D01*
X105251428Y-100893190D02*
X105346666Y-100702714D01*
X105346666Y-100702714D02*
X105441904Y-100607476D01*
X105441904Y-100607476D02*
X105632380Y-100512238D01*
X107537142Y-100512238D02*
X107727619Y-100512238D01*
X107727619Y-100512238D02*
X107918095Y-100607476D01*
X107918095Y-100607476D02*
X108013333Y-100702714D01*
X108013333Y-100702714D02*
X108108571Y-100893190D01*
X108108571Y-100893190D02*
X108203809Y-101274142D01*
X108203809Y-101274142D02*
X108203809Y-101750333D01*
X108203809Y-101750333D02*
X108108571Y-102131285D01*
X108108571Y-102131285D02*
X108013333Y-102321761D01*
X108013333Y-102321761D02*
X107918095Y-102417000D01*
X107918095Y-102417000D02*
X107727619Y-102512238D01*
X107727619Y-102512238D02*
X107537142Y-102512238D01*
X107537142Y-102512238D02*
X107346666Y-102417000D01*
X107346666Y-102417000D02*
X107251428Y-102321761D01*
X107251428Y-102321761D02*
X107156190Y-102131285D01*
X107156190Y-102131285D02*
X107060952Y-101750333D01*
X107060952Y-101750333D02*
X107060952Y-101274142D01*
X107060952Y-101274142D02*
X107156190Y-100893190D01*
X107156190Y-100893190D02*
X107251428Y-100702714D01*
X107251428Y-100702714D02*
X107346666Y-100607476D01*
X107346666Y-100607476D02*
X107537142Y-100512238D01*
D11*
X28849638Y-18113333D02*
X27897257Y-18780000D01*
X28849638Y-19256190D02*
X26849638Y-19256190D01*
X26849638Y-19256190D02*
X26849638Y-18494285D01*
X26849638Y-18494285D02*
X26944876Y-18303809D01*
X26944876Y-18303809D02*
X27040114Y-18208571D01*
X27040114Y-18208571D02*
X27230590Y-18113333D01*
X27230590Y-18113333D02*
X27516304Y-18113333D01*
X27516304Y-18113333D02*
X27706780Y-18208571D01*
X27706780Y-18208571D02*
X27802019Y-18303809D01*
X27802019Y-18303809D02*
X27897257Y-18494285D01*
X27897257Y-18494285D02*
X27897257Y-19256190D01*
X26849638Y-17446666D02*
X26849638Y-16113333D01*
X26849638Y-16113333D02*
X28849638Y-16970476D01*
D13*
X56713809Y-109674819D02*
X56713809Y-108674819D01*
X56713809Y-108674819D02*
X56951904Y-108674819D01*
X56951904Y-108674819D02*
X57094761Y-108722438D01*
X57094761Y-108722438D02*
X57189999Y-108817676D01*
X57189999Y-108817676D02*
X57237618Y-108912914D01*
X57237618Y-108912914D02*
X57285237Y-109103390D01*
X57285237Y-109103390D02*
X57285237Y-109246247D01*
X57285237Y-109246247D02*
X57237618Y-109436723D01*
X57237618Y-109436723D02*
X57189999Y-109531961D01*
X57189999Y-109531961D02*
X57094761Y-109627200D01*
X57094761Y-109627200D02*
X56951904Y-109674819D01*
X56951904Y-109674819D02*
X56713809Y-109674819D01*
X57666190Y-109627200D02*
X57809047Y-109674819D01*
X57809047Y-109674819D02*
X58047142Y-109674819D01*
X58047142Y-109674819D02*
X58142380Y-109627200D01*
X58142380Y-109627200D02*
X58189999Y-109579580D01*
X58189999Y-109579580D02*
X58237618Y-109484342D01*
X58237618Y-109484342D02*
X58237618Y-109389104D01*
X58237618Y-109389104D02*
X58189999Y-109293866D01*
X58189999Y-109293866D02*
X58142380Y-109246247D01*
X58142380Y-109246247D02*
X58047142Y-109198628D01*
X58047142Y-109198628D02*
X57856666Y-109151009D01*
X57856666Y-109151009D02*
X57761428Y-109103390D01*
X57761428Y-109103390D02*
X57713809Y-109055771D01*
X57713809Y-109055771D02*
X57666190Y-108960533D01*
X57666190Y-108960533D02*
X57666190Y-108865295D01*
X57666190Y-108865295D02*
X57713809Y-108770057D01*
X57713809Y-108770057D02*
X57761428Y-108722438D01*
X57761428Y-108722438D02*
X57856666Y-108674819D01*
X57856666Y-108674819D02*
X58094761Y-108674819D01*
X58094761Y-108674819D02*
X58237618Y-108722438D01*
X58523333Y-108674819D02*
X59094761Y-108674819D01*
X58809047Y-109674819D02*
X58809047Y-108674819D01*
X59713809Y-110008152D02*
X59475714Y-110008152D01*
X59475714Y-110008152D02*
X59475714Y-108579580D01*
X59475714Y-108579580D02*
X59713809Y-108579580D01*
X60285238Y-108674819D02*
X60380476Y-108674819D01*
X60380476Y-108674819D02*
X60475714Y-108722438D01*
X60475714Y-108722438D02*
X60523333Y-108770057D01*
X60523333Y-108770057D02*
X60570952Y-108865295D01*
X60570952Y-108865295D02*
X60618571Y-109055771D01*
X60618571Y-109055771D02*
X60618571Y-109293866D01*
X60618571Y-109293866D02*
X60570952Y-109484342D01*
X60570952Y-109484342D02*
X60523333Y-109579580D01*
X60523333Y-109579580D02*
X60475714Y-109627200D01*
X60475714Y-109627200D02*
X60380476Y-109674819D01*
X60380476Y-109674819D02*
X60285238Y-109674819D01*
X60285238Y-109674819D02*
X60190000Y-109627200D01*
X60190000Y-109627200D02*
X60142381Y-109579580D01*
X60142381Y-109579580D02*
X60094762Y-109484342D01*
X60094762Y-109484342D02*
X60047143Y-109293866D01*
X60047143Y-109293866D02*
X60047143Y-109055771D01*
X60047143Y-109055771D02*
X60094762Y-108865295D01*
X60094762Y-108865295D02*
X60142381Y-108770057D01*
X60142381Y-108770057D02*
X60190000Y-108722438D01*
X60190000Y-108722438D02*
X60285238Y-108674819D01*
X61047143Y-109579580D02*
X61094762Y-109627200D01*
X61094762Y-109627200D02*
X61047143Y-109674819D01*
X61047143Y-109674819D02*
X60999524Y-109627200D01*
X60999524Y-109627200D02*
X61047143Y-109579580D01*
X61047143Y-109579580D02*
X61047143Y-109674819D01*
X61047143Y-109055771D02*
X61094762Y-109103390D01*
X61094762Y-109103390D02*
X61047143Y-109151009D01*
X61047143Y-109151009D02*
X60999524Y-109103390D01*
X60999524Y-109103390D02*
X61047143Y-109055771D01*
X61047143Y-109055771D02*
X61047143Y-109151009D01*
X61475714Y-108770057D02*
X61523333Y-108722438D01*
X61523333Y-108722438D02*
X61618571Y-108674819D01*
X61618571Y-108674819D02*
X61856666Y-108674819D01*
X61856666Y-108674819D02*
X61951904Y-108722438D01*
X61951904Y-108722438D02*
X61999523Y-108770057D01*
X61999523Y-108770057D02*
X62047142Y-108865295D01*
X62047142Y-108865295D02*
X62047142Y-108960533D01*
X62047142Y-108960533D02*
X61999523Y-109103390D01*
X61999523Y-109103390D02*
X61428095Y-109674819D01*
X61428095Y-109674819D02*
X62047142Y-109674819D01*
X62380476Y-110008152D02*
X62618571Y-110008152D01*
X62618571Y-110008152D02*
X62618571Y-108579580D01*
X62618571Y-108579580D02*
X62380476Y-108579580D01*
X85179819Y-62277618D02*
X85179819Y-62182380D01*
X85179819Y-62182380D02*
X85227438Y-62087142D01*
X85227438Y-62087142D02*
X85275057Y-62039523D01*
X85275057Y-62039523D02*
X85370295Y-61991904D01*
X85370295Y-61991904D02*
X85560771Y-61944285D01*
X85560771Y-61944285D02*
X85798866Y-61944285D01*
X85798866Y-61944285D02*
X85989342Y-61991904D01*
X85989342Y-61991904D02*
X86084580Y-62039523D01*
X86084580Y-62039523D02*
X86132200Y-62087142D01*
X86132200Y-62087142D02*
X86179819Y-62182380D01*
X86179819Y-62182380D02*
X86179819Y-62277618D01*
X86179819Y-62277618D02*
X86132200Y-62372856D01*
X86132200Y-62372856D02*
X86084580Y-62420475D01*
X86084580Y-62420475D02*
X85989342Y-62468094D01*
X85989342Y-62468094D02*
X85798866Y-62515713D01*
X85798866Y-62515713D02*
X85560771Y-62515713D01*
X85560771Y-62515713D02*
X85370295Y-62468094D01*
X85370295Y-62468094D02*
X85275057Y-62420475D01*
X85275057Y-62420475D02*
X85227438Y-62372856D01*
X85227438Y-62372856D02*
X85179819Y-62277618D01*
X85179819Y-27003332D02*
X85179819Y-26336666D01*
X85179819Y-26336666D02*
X86179819Y-26765237D01*
D11*
X105367257Y-94615000D02*
X106319638Y-94615000D01*
X104319638Y-95281666D02*
X105367257Y-94615000D01*
X105367257Y-94615000D02*
X104319638Y-93948333D01*
X139879638Y-95281666D02*
X141879638Y-93948333D01*
X139879638Y-93948333D02*
X141879638Y-95281666D01*
D13*
X168094938Y-83192857D02*
X168047319Y-83288095D01*
X168047319Y-83288095D02*
X168047319Y-83430952D01*
X168047319Y-83430952D02*
X168094938Y-83573809D01*
X168094938Y-83573809D02*
X168190176Y-83669047D01*
X168190176Y-83669047D02*
X168285414Y-83716666D01*
X168285414Y-83716666D02*
X168475890Y-83764285D01*
X168475890Y-83764285D02*
X168618747Y-83764285D01*
X168618747Y-83764285D02*
X168809223Y-83716666D01*
X168809223Y-83716666D02*
X168904461Y-83669047D01*
X168904461Y-83669047D02*
X168999700Y-83573809D01*
X168999700Y-83573809D02*
X169047319Y-83430952D01*
X169047319Y-83430952D02*
X169047319Y-83335714D01*
X169047319Y-83335714D02*
X168999700Y-83192857D01*
X168999700Y-83192857D02*
X168952080Y-83145238D01*
X168952080Y-83145238D02*
X168618747Y-83145238D01*
X168618747Y-83145238D02*
X168618747Y-83335714D01*
X168380652Y-82716666D02*
X169047319Y-82716666D01*
X168475890Y-82716666D02*
X168428271Y-82669047D01*
X168428271Y-82669047D02*
X168380652Y-82573809D01*
X168380652Y-82573809D02*
X168380652Y-82430952D01*
X168380652Y-82430952D02*
X168428271Y-82335714D01*
X168428271Y-82335714D02*
X168523509Y-82288095D01*
X168523509Y-82288095D02*
X169047319Y-82288095D01*
X169047319Y-81383333D02*
X168047319Y-81383333D01*
X168999700Y-81383333D02*
X169047319Y-81478571D01*
X169047319Y-81478571D02*
X169047319Y-81669047D01*
X169047319Y-81669047D02*
X168999700Y-81764285D01*
X168999700Y-81764285D02*
X168952080Y-81811904D01*
X168952080Y-81811904D02*
X168856842Y-81859523D01*
X168856842Y-81859523D02*
X168571128Y-81859523D01*
X168571128Y-81859523D02*
X168475890Y-81811904D01*
X168475890Y-81811904D02*
X168428271Y-81764285D01*
X168428271Y-81764285D02*
X168380652Y-81669047D01*
X168380652Y-81669047D02*
X168380652Y-81478571D01*
X168380652Y-81478571D02*
X168428271Y-81383333D01*
X168047319Y-85137618D02*
X168047319Y-85042380D01*
X168047319Y-85042380D02*
X168094938Y-84947142D01*
X168094938Y-84947142D02*
X168142557Y-84899523D01*
X168142557Y-84899523D02*
X168237795Y-84851904D01*
X168237795Y-84851904D02*
X168428271Y-84804285D01*
X168428271Y-84804285D02*
X168666366Y-84804285D01*
X168666366Y-84804285D02*
X168856842Y-84851904D01*
X168856842Y-84851904D02*
X168952080Y-84899523D01*
X168952080Y-84899523D02*
X168999700Y-84947142D01*
X168999700Y-84947142D02*
X169047319Y-85042380D01*
X169047319Y-85042380D02*
X169047319Y-85137618D01*
X169047319Y-85137618D02*
X168999700Y-85232856D01*
X168999700Y-85232856D02*
X168952080Y-85280475D01*
X168952080Y-85280475D02*
X168856842Y-85328094D01*
X168856842Y-85328094D02*
X168666366Y-85375713D01*
X168666366Y-85375713D02*
X168428271Y-85375713D01*
X168428271Y-85375713D02*
X168237795Y-85328094D01*
X168237795Y-85328094D02*
X168142557Y-85280475D01*
X168142557Y-85280475D02*
X168094938Y-85232856D01*
X168094938Y-85232856D02*
X168047319Y-85137618D01*
X168047319Y-103203332D02*
X168047319Y-102536666D01*
X168047319Y-102536666D02*
X169047319Y-102965237D01*
X168047319Y-59737618D02*
X168047319Y-59642380D01*
X168047319Y-59642380D02*
X168094938Y-59547142D01*
X168094938Y-59547142D02*
X168142557Y-59499523D01*
X168142557Y-59499523D02*
X168237795Y-59451904D01*
X168237795Y-59451904D02*
X168428271Y-59404285D01*
X168428271Y-59404285D02*
X168666366Y-59404285D01*
X168666366Y-59404285D02*
X168856842Y-59451904D01*
X168856842Y-59451904D02*
X168952080Y-59499523D01*
X168952080Y-59499523D02*
X168999700Y-59547142D01*
X168999700Y-59547142D02*
X169047319Y-59642380D01*
X169047319Y-59642380D02*
X169047319Y-59737618D01*
X169047319Y-59737618D02*
X168999700Y-59832856D01*
X168999700Y-59832856D02*
X168952080Y-59880475D01*
X168952080Y-59880475D02*
X168856842Y-59928094D01*
X168856842Y-59928094D02*
X168666366Y-59975713D01*
X168666366Y-59975713D02*
X168428271Y-59975713D01*
X168428271Y-59975713D02*
X168237795Y-59928094D01*
X168237795Y-59928094D02*
X168142557Y-59880475D01*
X168142557Y-59880475D02*
X168094938Y-59832856D01*
X168094938Y-59832856D02*
X168047319Y-59737618D01*
X168047319Y-77803332D02*
X168047319Y-77136666D01*
X168047319Y-77136666D02*
X169047319Y-77565237D01*
X168094938Y-57792857D02*
X168047319Y-57888095D01*
X168047319Y-57888095D02*
X168047319Y-58030952D01*
X168047319Y-58030952D02*
X168094938Y-58173809D01*
X168094938Y-58173809D02*
X168190176Y-58269047D01*
X168190176Y-58269047D02*
X168285414Y-58316666D01*
X168285414Y-58316666D02*
X168475890Y-58364285D01*
X168475890Y-58364285D02*
X168618747Y-58364285D01*
X168618747Y-58364285D02*
X168809223Y-58316666D01*
X168809223Y-58316666D02*
X168904461Y-58269047D01*
X168904461Y-58269047D02*
X168999700Y-58173809D01*
X168999700Y-58173809D02*
X169047319Y-58030952D01*
X169047319Y-58030952D02*
X169047319Y-57935714D01*
X169047319Y-57935714D02*
X168999700Y-57792857D01*
X168999700Y-57792857D02*
X168952080Y-57745238D01*
X168952080Y-57745238D02*
X168618747Y-57745238D01*
X168618747Y-57745238D02*
X168618747Y-57935714D01*
X168380652Y-57316666D02*
X169047319Y-57316666D01*
X168475890Y-57316666D02*
X168428271Y-57269047D01*
X168428271Y-57269047D02*
X168380652Y-57173809D01*
X168380652Y-57173809D02*
X168380652Y-57030952D01*
X168380652Y-57030952D02*
X168428271Y-56935714D01*
X168428271Y-56935714D02*
X168523509Y-56888095D01*
X168523509Y-56888095D02*
X169047319Y-56888095D01*
X169047319Y-55983333D02*
X168047319Y-55983333D01*
X168999700Y-55983333D02*
X169047319Y-56078571D01*
X169047319Y-56078571D02*
X169047319Y-56269047D01*
X169047319Y-56269047D02*
X168999700Y-56364285D01*
X168999700Y-56364285D02*
X168952080Y-56411904D01*
X168952080Y-56411904D02*
X168856842Y-56459523D01*
X168856842Y-56459523D02*
X168571128Y-56459523D01*
X168571128Y-56459523D02*
X168475890Y-56411904D01*
X168475890Y-56411904D02*
X168428271Y-56364285D01*
X168428271Y-56364285D02*
X168380652Y-56269047D01*
X168380652Y-56269047D02*
X168380652Y-56078571D01*
X168380652Y-56078571D02*
X168428271Y-55983333D01*
X168761604Y-72452857D02*
X168761604Y-71976667D01*
X169047319Y-72548095D02*
X168047319Y-72214762D01*
X168047319Y-72214762D02*
X169047319Y-71881429D01*
X169047319Y-71071905D02*
X169047319Y-71548095D01*
X169047319Y-71548095D02*
X168047319Y-71548095D01*
X168047319Y-70738571D02*
X168856842Y-70738571D01*
X168856842Y-70738571D02*
X168952080Y-70690952D01*
X168952080Y-70690952D02*
X168999700Y-70643333D01*
X168999700Y-70643333D02*
X169047319Y-70548095D01*
X169047319Y-70548095D02*
X169047319Y-70357619D01*
X169047319Y-70357619D02*
X168999700Y-70262381D01*
X168999700Y-70262381D02*
X168952080Y-70214762D01*
X168952080Y-70214762D02*
X168856842Y-70167143D01*
X168856842Y-70167143D02*
X168047319Y-70167143D01*
X169047319Y-68929047D02*
X168047319Y-68929047D01*
X168523509Y-68929047D02*
X168523509Y-68357619D01*
X169047319Y-68357619D02*
X168047319Y-68357619D01*
X169047319Y-67881428D02*
X168380652Y-67881428D01*
X168047319Y-67881428D02*
X168094938Y-67929047D01*
X168094938Y-67929047D02*
X168142557Y-67881428D01*
X168142557Y-67881428D02*
X168094938Y-67833809D01*
X168094938Y-67833809D02*
X168047319Y-67881428D01*
X168047319Y-67881428D02*
X168142557Y-67881428D01*
X168380652Y-66976667D02*
X169190176Y-66976667D01*
X169190176Y-66976667D02*
X169285414Y-67024286D01*
X169285414Y-67024286D02*
X169333033Y-67071905D01*
X169333033Y-67071905D02*
X169380652Y-67167143D01*
X169380652Y-67167143D02*
X169380652Y-67310000D01*
X169380652Y-67310000D02*
X169333033Y-67405238D01*
X168999700Y-66976667D02*
X169047319Y-67071905D01*
X169047319Y-67071905D02*
X169047319Y-67262381D01*
X169047319Y-67262381D02*
X168999700Y-67357619D01*
X168999700Y-67357619D02*
X168952080Y-67405238D01*
X168952080Y-67405238D02*
X168856842Y-67452857D01*
X168856842Y-67452857D02*
X168571128Y-67452857D01*
X168571128Y-67452857D02*
X168475890Y-67405238D01*
X168475890Y-67405238D02*
X168428271Y-67357619D01*
X168428271Y-67357619D02*
X168380652Y-67262381D01*
X168380652Y-67262381D02*
X168380652Y-67071905D01*
X168380652Y-67071905D02*
X168428271Y-66976667D01*
X169047319Y-66500476D02*
X168047319Y-66500476D01*
X169047319Y-66071905D02*
X168523509Y-66071905D01*
X168523509Y-66071905D02*
X168428271Y-66119524D01*
X168428271Y-66119524D02*
X168380652Y-66214762D01*
X168380652Y-66214762D02*
X168380652Y-66357619D01*
X168380652Y-66357619D02*
X168428271Y-66452857D01*
X168428271Y-66452857D02*
X168475890Y-66500476D01*
X169047319Y-64833809D02*
X168047319Y-64833809D01*
X168428271Y-64833809D02*
X168380652Y-64738571D01*
X168380652Y-64738571D02*
X168380652Y-64548095D01*
X168380652Y-64548095D02*
X168428271Y-64452857D01*
X168428271Y-64452857D02*
X168475890Y-64405238D01*
X168475890Y-64405238D02*
X168571128Y-64357619D01*
X168571128Y-64357619D02*
X168856842Y-64357619D01*
X168856842Y-64357619D02*
X168952080Y-64405238D01*
X168952080Y-64405238D02*
X168999700Y-64452857D01*
X168999700Y-64452857D02*
X169047319Y-64548095D01*
X169047319Y-64548095D02*
X169047319Y-64738571D01*
X169047319Y-64738571D02*
X168999700Y-64833809D01*
X168380652Y-64024285D02*
X169047319Y-63786190D01*
X168380652Y-63548095D02*
X169047319Y-63786190D01*
X169047319Y-63786190D02*
X169285414Y-63881428D01*
X169285414Y-63881428D02*
X169333033Y-63929047D01*
X169333033Y-63929047D02*
X169380652Y-64024285D01*
X168380652Y-63309999D02*
X168380652Y-62929047D01*
X168047319Y-63167142D02*
X168904461Y-63167142D01*
X168904461Y-63167142D02*
X168999700Y-63119523D01*
X168999700Y-63119523D02*
X169047319Y-63024285D01*
X169047319Y-63024285D02*
X169047319Y-62929047D01*
X168999700Y-62214761D02*
X169047319Y-62309999D01*
X169047319Y-62309999D02*
X169047319Y-62500475D01*
X169047319Y-62500475D02*
X168999700Y-62595713D01*
X168999700Y-62595713D02*
X168904461Y-62643332D01*
X168904461Y-62643332D02*
X168523509Y-62643332D01*
X168523509Y-62643332D02*
X168428271Y-62595713D01*
X168428271Y-62595713D02*
X168380652Y-62500475D01*
X168380652Y-62500475D02*
X168380652Y-62309999D01*
X168380652Y-62309999D02*
X168428271Y-62214761D01*
X168428271Y-62214761D02*
X168523509Y-62167142D01*
X168523509Y-62167142D02*
X168618747Y-62167142D01*
X168618747Y-62167142D02*
X168713985Y-62643332D01*
X156299819Y-47561428D02*
X156299819Y-47370952D01*
X156299819Y-47370952D02*
X156347438Y-47275714D01*
X156347438Y-47275714D02*
X156442676Y-47180476D01*
X156442676Y-47180476D02*
X156633152Y-47132857D01*
X156633152Y-47132857D02*
X156966485Y-47132857D01*
X156966485Y-47132857D02*
X157156961Y-47180476D01*
X157156961Y-47180476D02*
X157252200Y-47275714D01*
X157252200Y-47275714D02*
X157299819Y-47370952D01*
X157299819Y-47370952D02*
X157299819Y-47561428D01*
X157299819Y-47561428D02*
X157252200Y-47656666D01*
X157252200Y-47656666D02*
X157156961Y-47751904D01*
X157156961Y-47751904D02*
X156966485Y-47799523D01*
X156966485Y-47799523D02*
X156633152Y-47799523D01*
X156633152Y-47799523D02*
X156442676Y-47751904D01*
X156442676Y-47751904D02*
X156347438Y-47656666D01*
X156347438Y-47656666D02*
X156299819Y-47561428D01*
X156299819Y-46799523D02*
X156299819Y-46180476D01*
X156299819Y-46180476D02*
X156680771Y-46513809D01*
X156680771Y-46513809D02*
X156680771Y-46370952D01*
X156680771Y-46370952D02*
X156728390Y-46275714D01*
X156728390Y-46275714D02*
X156776009Y-46228095D01*
X156776009Y-46228095D02*
X156871247Y-46180476D01*
X156871247Y-46180476D02*
X157109342Y-46180476D01*
X157109342Y-46180476D02*
X157204580Y-46228095D01*
X157204580Y-46228095D02*
X157252200Y-46275714D01*
X157252200Y-46275714D02*
X157299819Y-46370952D01*
X157299819Y-46370952D02*
X157299819Y-46656666D01*
X157299819Y-46656666D02*
X157252200Y-46751904D01*
X157252200Y-46751904D02*
X157204580Y-46799523D01*
X157299819Y-90646189D02*
X156299819Y-90646189D01*
X156299819Y-90265237D02*
X156299819Y-89598571D01*
X156299819Y-89598571D02*
X157299819Y-90027142D01*
X157299819Y-75406189D02*
X156299819Y-75406189D01*
X157299819Y-74406190D02*
X157299819Y-74977618D01*
X157299819Y-74691904D02*
X156299819Y-74691904D01*
X156299819Y-74691904D02*
X156442676Y-74787142D01*
X156442676Y-74787142D02*
X156537914Y-74882380D01*
X156537914Y-74882380D02*
X156585533Y-74977618D01*
X156299819Y-55181428D02*
X156299819Y-54990952D01*
X156299819Y-54990952D02*
X156347438Y-54895714D01*
X156347438Y-54895714D02*
X156442676Y-54800476D01*
X156442676Y-54800476D02*
X156633152Y-54752857D01*
X156633152Y-54752857D02*
X156966485Y-54752857D01*
X156966485Y-54752857D02*
X157156961Y-54800476D01*
X157156961Y-54800476D02*
X157252200Y-54895714D01*
X157252200Y-54895714D02*
X157299819Y-54990952D01*
X157299819Y-54990952D02*
X157299819Y-55181428D01*
X157299819Y-55181428D02*
X157252200Y-55276666D01*
X157252200Y-55276666D02*
X157156961Y-55371904D01*
X157156961Y-55371904D02*
X156966485Y-55419523D01*
X156966485Y-55419523D02*
X156633152Y-55419523D01*
X156633152Y-55419523D02*
X156442676Y-55371904D01*
X156442676Y-55371904D02*
X156347438Y-55276666D01*
X156347438Y-55276666D02*
X156299819Y-55181428D01*
X156299819Y-54133809D02*
X156299819Y-54038571D01*
X156299819Y-54038571D02*
X156347438Y-53943333D01*
X156347438Y-53943333D02*
X156395057Y-53895714D01*
X156395057Y-53895714D02*
X156490295Y-53848095D01*
X156490295Y-53848095D02*
X156680771Y-53800476D01*
X156680771Y-53800476D02*
X156918866Y-53800476D01*
X156918866Y-53800476D02*
X157109342Y-53848095D01*
X157109342Y-53848095D02*
X157204580Y-53895714D01*
X157204580Y-53895714D02*
X157252200Y-53943333D01*
X157252200Y-53943333D02*
X157299819Y-54038571D01*
X157299819Y-54038571D02*
X157299819Y-54133809D01*
X157299819Y-54133809D02*
X157252200Y-54229047D01*
X157252200Y-54229047D02*
X157204580Y-54276666D01*
X157204580Y-54276666D02*
X157109342Y-54324285D01*
X157109342Y-54324285D02*
X156918866Y-54371904D01*
X156918866Y-54371904D02*
X156680771Y-54371904D01*
X156680771Y-54371904D02*
X156490295Y-54324285D01*
X156490295Y-54324285D02*
X156395057Y-54276666D01*
X156395057Y-54276666D02*
X156347438Y-54229047D01*
X156347438Y-54229047D02*
X156299819Y-54133809D01*
X157299819Y-24161666D02*
X156823628Y-24494999D01*
X157299819Y-24733094D02*
X156299819Y-24733094D01*
X156299819Y-24733094D02*
X156299819Y-24352142D01*
X156299819Y-24352142D02*
X156347438Y-24256904D01*
X156347438Y-24256904D02*
X156395057Y-24209285D01*
X156395057Y-24209285D02*
X156490295Y-24161666D01*
X156490295Y-24161666D02*
X156633152Y-24161666D01*
X156633152Y-24161666D02*
X156728390Y-24209285D01*
X156728390Y-24209285D02*
X156776009Y-24256904D01*
X156776009Y-24256904D02*
X156823628Y-24352142D01*
X156823628Y-24352142D02*
X156823628Y-24733094D01*
X157299819Y-23590237D02*
X157252200Y-23685475D01*
X157252200Y-23685475D02*
X157204580Y-23733094D01*
X157204580Y-23733094D02*
X157109342Y-23780713D01*
X157109342Y-23780713D02*
X156823628Y-23780713D01*
X156823628Y-23780713D02*
X156728390Y-23733094D01*
X156728390Y-23733094D02*
X156680771Y-23685475D01*
X156680771Y-23685475D02*
X156633152Y-23590237D01*
X156633152Y-23590237D02*
X156633152Y-23447380D01*
X156633152Y-23447380D02*
X156680771Y-23352142D01*
X156680771Y-23352142D02*
X156728390Y-23304523D01*
X156728390Y-23304523D02*
X156823628Y-23256904D01*
X156823628Y-23256904D02*
X157109342Y-23256904D01*
X157109342Y-23256904D02*
X157204580Y-23304523D01*
X157204580Y-23304523D02*
X157252200Y-23352142D01*
X157252200Y-23352142D02*
X157299819Y-23447380D01*
X157299819Y-23447380D02*
X157299819Y-23590237D01*
X156633152Y-22923570D02*
X157299819Y-22733094D01*
X157299819Y-22733094D02*
X156823628Y-22542618D01*
X156823628Y-22542618D02*
X157299819Y-22352142D01*
X157299819Y-22352142D02*
X156633152Y-22161666D01*
X156022200Y-24871190D02*
X156022200Y-22118809D01*
X157299819Y-80486189D02*
X156299819Y-80486189D01*
X156299819Y-80105237D02*
X156299819Y-79486190D01*
X156299819Y-79486190D02*
X156680771Y-79819523D01*
X156680771Y-79819523D02*
X156680771Y-79676666D01*
X156680771Y-79676666D02*
X156728390Y-79581428D01*
X156728390Y-79581428D02*
X156776009Y-79533809D01*
X156776009Y-79533809D02*
X156871247Y-79486190D01*
X156871247Y-79486190D02*
X157109342Y-79486190D01*
X157109342Y-79486190D02*
X157204580Y-79533809D01*
X157204580Y-79533809D02*
X157252200Y-79581428D01*
X157252200Y-79581428D02*
X157299819Y-79676666D01*
X157299819Y-79676666D02*
X157299819Y-79962380D01*
X157299819Y-79962380D02*
X157252200Y-80057618D01*
X157252200Y-80057618D02*
X157204580Y-80105237D01*
X157204580Y-29694166D02*
X157252200Y-29741785D01*
X157252200Y-29741785D02*
X157299819Y-29884642D01*
X157299819Y-29884642D02*
X157299819Y-29979880D01*
X157299819Y-29979880D02*
X157252200Y-30122737D01*
X157252200Y-30122737D02*
X157156961Y-30217975D01*
X157156961Y-30217975D02*
X157061723Y-30265594D01*
X157061723Y-30265594D02*
X156871247Y-30313213D01*
X156871247Y-30313213D02*
X156728390Y-30313213D01*
X156728390Y-30313213D02*
X156537914Y-30265594D01*
X156537914Y-30265594D02*
X156442676Y-30217975D01*
X156442676Y-30217975D02*
X156347438Y-30122737D01*
X156347438Y-30122737D02*
X156299819Y-29979880D01*
X156299819Y-29979880D02*
X156299819Y-29884642D01*
X156299819Y-29884642D02*
X156347438Y-29741785D01*
X156347438Y-29741785D02*
X156395057Y-29694166D01*
X157252200Y-29313213D02*
X157299819Y-29170356D01*
X157299819Y-29170356D02*
X157299819Y-28932261D01*
X157299819Y-28932261D02*
X157252200Y-28837023D01*
X157252200Y-28837023D02*
X157204580Y-28789404D01*
X157204580Y-28789404D02*
X157109342Y-28741785D01*
X157109342Y-28741785D02*
X157014104Y-28741785D01*
X157014104Y-28741785D02*
X156918866Y-28789404D01*
X156918866Y-28789404D02*
X156871247Y-28837023D01*
X156871247Y-28837023D02*
X156823628Y-28932261D01*
X156823628Y-28932261D02*
X156776009Y-29122737D01*
X156776009Y-29122737D02*
X156728390Y-29217975D01*
X156728390Y-29217975D02*
X156680771Y-29265594D01*
X156680771Y-29265594D02*
X156585533Y-29313213D01*
X156585533Y-29313213D02*
X156490295Y-29313213D01*
X156490295Y-29313213D02*
X156395057Y-29265594D01*
X156395057Y-29265594D02*
X156347438Y-29217975D01*
X156347438Y-29217975D02*
X156299819Y-29122737D01*
X156299819Y-29122737D02*
X156299819Y-28884642D01*
X156299819Y-28884642D02*
X156347438Y-28741785D01*
X156022200Y-30403690D02*
X156022200Y-28651309D01*
X156299819Y-50101428D02*
X156299819Y-49910952D01*
X156299819Y-49910952D02*
X156347438Y-49815714D01*
X156347438Y-49815714D02*
X156442676Y-49720476D01*
X156442676Y-49720476D02*
X156633152Y-49672857D01*
X156633152Y-49672857D02*
X156966485Y-49672857D01*
X156966485Y-49672857D02*
X157156961Y-49720476D01*
X157156961Y-49720476D02*
X157252200Y-49815714D01*
X157252200Y-49815714D02*
X157299819Y-49910952D01*
X157299819Y-49910952D02*
X157299819Y-50101428D01*
X157299819Y-50101428D02*
X157252200Y-50196666D01*
X157252200Y-50196666D02*
X157156961Y-50291904D01*
X157156961Y-50291904D02*
X156966485Y-50339523D01*
X156966485Y-50339523D02*
X156633152Y-50339523D01*
X156633152Y-50339523D02*
X156442676Y-50291904D01*
X156442676Y-50291904D02*
X156347438Y-50196666D01*
X156347438Y-50196666D02*
X156299819Y-50101428D01*
X156395057Y-49291904D02*
X156347438Y-49244285D01*
X156347438Y-49244285D02*
X156299819Y-49149047D01*
X156299819Y-49149047D02*
X156299819Y-48910952D01*
X156299819Y-48910952D02*
X156347438Y-48815714D01*
X156347438Y-48815714D02*
X156395057Y-48768095D01*
X156395057Y-48768095D02*
X156490295Y-48720476D01*
X156490295Y-48720476D02*
X156585533Y-48720476D01*
X156585533Y-48720476D02*
X156728390Y-48768095D01*
X156728390Y-48768095D02*
X157299819Y-49339523D01*
X157299819Y-49339523D02*
X157299819Y-48720476D01*
X157299819Y-77946189D02*
X156299819Y-77946189D01*
X156395057Y-77517618D02*
X156347438Y-77469999D01*
X156347438Y-77469999D02*
X156299819Y-77374761D01*
X156299819Y-77374761D02*
X156299819Y-77136666D01*
X156299819Y-77136666D02*
X156347438Y-77041428D01*
X156347438Y-77041428D02*
X156395057Y-76993809D01*
X156395057Y-76993809D02*
X156490295Y-76946190D01*
X156490295Y-76946190D02*
X156585533Y-76946190D01*
X156585533Y-76946190D02*
X156728390Y-76993809D01*
X156728390Y-76993809D02*
X157299819Y-77565237D01*
X157299819Y-77565237D02*
X157299819Y-76946190D01*
X156299819Y-42481428D02*
X156299819Y-42290952D01*
X156299819Y-42290952D02*
X156347438Y-42195714D01*
X156347438Y-42195714D02*
X156442676Y-42100476D01*
X156442676Y-42100476D02*
X156633152Y-42052857D01*
X156633152Y-42052857D02*
X156966485Y-42052857D01*
X156966485Y-42052857D02*
X157156961Y-42100476D01*
X157156961Y-42100476D02*
X157252200Y-42195714D01*
X157252200Y-42195714D02*
X157299819Y-42290952D01*
X157299819Y-42290952D02*
X157299819Y-42481428D01*
X157299819Y-42481428D02*
X157252200Y-42576666D01*
X157252200Y-42576666D02*
X157156961Y-42671904D01*
X157156961Y-42671904D02*
X156966485Y-42719523D01*
X156966485Y-42719523D02*
X156633152Y-42719523D01*
X156633152Y-42719523D02*
X156442676Y-42671904D01*
X156442676Y-42671904D02*
X156347438Y-42576666D01*
X156347438Y-42576666D02*
X156299819Y-42481428D01*
X156299819Y-41148095D02*
X156299819Y-41624285D01*
X156299819Y-41624285D02*
X156776009Y-41671904D01*
X156776009Y-41671904D02*
X156728390Y-41624285D01*
X156728390Y-41624285D02*
X156680771Y-41529047D01*
X156680771Y-41529047D02*
X156680771Y-41290952D01*
X156680771Y-41290952D02*
X156728390Y-41195714D01*
X156728390Y-41195714D02*
X156776009Y-41148095D01*
X156776009Y-41148095D02*
X156871247Y-41100476D01*
X156871247Y-41100476D02*
X157109342Y-41100476D01*
X157109342Y-41100476D02*
X157204580Y-41148095D01*
X157204580Y-41148095D02*
X157252200Y-41195714D01*
X157252200Y-41195714D02*
X157299819Y-41290952D01*
X157299819Y-41290952D02*
X157299819Y-41529047D01*
X157299819Y-41529047D02*
X157252200Y-41624285D01*
X157252200Y-41624285D02*
X157204580Y-41671904D01*
X156299819Y-52641428D02*
X156299819Y-52450952D01*
X156299819Y-52450952D02*
X156347438Y-52355714D01*
X156347438Y-52355714D02*
X156442676Y-52260476D01*
X156442676Y-52260476D02*
X156633152Y-52212857D01*
X156633152Y-52212857D02*
X156966485Y-52212857D01*
X156966485Y-52212857D02*
X157156961Y-52260476D01*
X157156961Y-52260476D02*
X157252200Y-52355714D01*
X157252200Y-52355714D02*
X157299819Y-52450952D01*
X157299819Y-52450952D02*
X157299819Y-52641428D01*
X157299819Y-52641428D02*
X157252200Y-52736666D01*
X157252200Y-52736666D02*
X157156961Y-52831904D01*
X157156961Y-52831904D02*
X156966485Y-52879523D01*
X156966485Y-52879523D02*
X156633152Y-52879523D01*
X156633152Y-52879523D02*
X156442676Y-52831904D01*
X156442676Y-52831904D02*
X156347438Y-52736666D01*
X156347438Y-52736666D02*
X156299819Y-52641428D01*
X157299819Y-51260476D02*
X157299819Y-51831904D01*
X157299819Y-51546190D02*
X156299819Y-51546190D01*
X156299819Y-51546190D02*
X156442676Y-51641428D01*
X156442676Y-51641428D02*
X156537914Y-51736666D01*
X156537914Y-51736666D02*
X156585533Y-51831904D01*
X156299819Y-37401428D02*
X156299819Y-37210952D01*
X156299819Y-37210952D02*
X156347438Y-37115714D01*
X156347438Y-37115714D02*
X156442676Y-37020476D01*
X156442676Y-37020476D02*
X156633152Y-36972857D01*
X156633152Y-36972857D02*
X156966485Y-36972857D01*
X156966485Y-36972857D02*
X157156961Y-37020476D01*
X157156961Y-37020476D02*
X157252200Y-37115714D01*
X157252200Y-37115714D02*
X157299819Y-37210952D01*
X157299819Y-37210952D02*
X157299819Y-37401428D01*
X157299819Y-37401428D02*
X157252200Y-37496666D01*
X157252200Y-37496666D02*
X157156961Y-37591904D01*
X157156961Y-37591904D02*
X156966485Y-37639523D01*
X156966485Y-37639523D02*
X156633152Y-37639523D01*
X156633152Y-37639523D02*
X156442676Y-37591904D01*
X156442676Y-37591904D02*
X156347438Y-37496666D01*
X156347438Y-37496666D02*
X156299819Y-37401428D01*
X156299819Y-36639523D02*
X156299819Y-35972857D01*
X156299819Y-35972857D02*
X157299819Y-36401428D01*
X157204580Y-27074762D02*
X157252200Y-27122381D01*
X157252200Y-27122381D02*
X157299819Y-27265238D01*
X157299819Y-27265238D02*
X157299819Y-27360476D01*
X157299819Y-27360476D02*
X157252200Y-27503333D01*
X157252200Y-27503333D02*
X157156961Y-27598571D01*
X157156961Y-27598571D02*
X157061723Y-27646190D01*
X157061723Y-27646190D02*
X156871247Y-27693809D01*
X156871247Y-27693809D02*
X156728390Y-27693809D01*
X156728390Y-27693809D02*
X156537914Y-27646190D01*
X156537914Y-27646190D02*
X156442676Y-27598571D01*
X156442676Y-27598571D02*
X156347438Y-27503333D01*
X156347438Y-27503333D02*
X156299819Y-27360476D01*
X156299819Y-27360476D02*
X156299819Y-27265238D01*
X156299819Y-27265238D02*
X156347438Y-27122381D01*
X156347438Y-27122381D02*
X156395057Y-27074762D01*
X157299819Y-26503333D02*
X157252200Y-26598571D01*
X157252200Y-26598571D02*
X157204580Y-26646190D01*
X157204580Y-26646190D02*
X157109342Y-26693809D01*
X157109342Y-26693809D02*
X156823628Y-26693809D01*
X156823628Y-26693809D02*
X156728390Y-26646190D01*
X156728390Y-26646190D02*
X156680771Y-26598571D01*
X156680771Y-26598571D02*
X156633152Y-26503333D01*
X156633152Y-26503333D02*
X156633152Y-26360476D01*
X156633152Y-26360476D02*
X156680771Y-26265238D01*
X156680771Y-26265238D02*
X156728390Y-26217619D01*
X156728390Y-26217619D02*
X156823628Y-26170000D01*
X156823628Y-26170000D02*
X157109342Y-26170000D01*
X157109342Y-26170000D02*
X157204580Y-26217619D01*
X157204580Y-26217619D02*
X157252200Y-26265238D01*
X157252200Y-26265238D02*
X157299819Y-26360476D01*
X157299819Y-26360476D02*
X157299819Y-26503333D01*
X157299819Y-25598571D02*
X157252200Y-25693809D01*
X157252200Y-25693809D02*
X157156961Y-25741428D01*
X157156961Y-25741428D02*
X156299819Y-25741428D01*
X156022200Y-27784286D02*
X156022200Y-25555714D01*
X157299819Y-88106189D02*
X156299819Y-88106189D01*
X156299819Y-87201428D02*
X156299819Y-87391904D01*
X156299819Y-87391904D02*
X156347438Y-87487142D01*
X156347438Y-87487142D02*
X156395057Y-87534761D01*
X156395057Y-87534761D02*
X156537914Y-87629999D01*
X156537914Y-87629999D02*
X156728390Y-87677618D01*
X156728390Y-87677618D02*
X157109342Y-87677618D01*
X157109342Y-87677618D02*
X157204580Y-87629999D01*
X157204580Y-87629999D02*
X157252200Y-87582380D01*
X157252200Y-87582380D02*
X157299819Y-87487142D01*
X157299819Y-87487142D02*
X157299819Y-87296666D01*
X157299819Y-87296666D02*
X157252200Y-87201428D01*
X157252200Y-87201428D02*
X157204580Y-87153809D01*
X157204580Y-87153809D02*
X157109342Y-87106190D01*
X157109342Y-87106190D02*
X156871247Y-87106190D01*
X156871247Y-87106190D02*
X156776009Y-87153809D01*
X156776009Y-87153809D02*
X156728390Y-87201428D01*
X156728390Y-87201428D02*
X156680771Y-87296666D01*
X156680771Y-87296666D02*
X156680771Y-87487142D01*
X156680771Y-87487142D02*
X156728390Y-87582380D01*
X156728390Y-87582380D02*
X156776009Y-87629999D01*
X156776009Y-87629999D02*
X156871247Y-87677618D01*
X157299819Y-72866189D02*
X156299819Y-72866189D01*
X156299819Y-72199523D02*
X156299819Y-72104285D01*
X156299819Y-72104285D02*
X156347438Y-72009047D01*
X156347438Y-72009047D02*
X156395057Y-71961428D01*
X156395057Y-71961428D02*
X156490295Y-71913809D01*
X156490295Y-71913809D02*
X156680771Y-71866190D01*
X156680771Y-71866190D02*
X156918866Y-71866190D01*
X156918866Y-71866190D02*
X157109342Y-71913809D01*
X157109342Y-71913809D02*
X157204580Y-71961428D01*
X157204580Y-71961428D02*
X157252200Y-72009047D01*
X157252200Y-72009047D02*
X157299819Y-72104285D01*
X157299819Y-72104285D02*
X157299819Y-72199523D01*
X157299819Y-72199523D02*
X157252200Y-72294761D01*
X157252200Y-72294761D02*
X157204580Y-72342380D01*
X157204580Y-72342380D02*
X157109342Y-72389999D01*
X157109342Y-72389999D02*
X156918866Y-72437618D01*
X156918866Y-72437618D02*
X156680771Y-72437618D01*
X156680771Y-72437618D02*
X156490295Y-72389999D01*
X156490295Y-72389999D02*
X156395057Y-72342380D01*
X156395057Y-72342380D02*
X156347438Y-72294761D01*
X156347438Y-72294761D02*
X156299819Y-72199523D01*
X156299819Y-45021428D02*
X156299819Y-44830952D01*
X156299819Y-44830952D02*
X156347438Y-44735714D01*
X156347438Y-44735714D02*
X156442676Y-44640476D01*
X156442676Y-44640476D02*
X156633152Y-44592857D01*
X156633152Y-44592857D02*
X156966485Y-44592857D01*
X156966485Y-44592857D02*
X157156961Y-44640476D01*
X157156961Y-44640476D02*
X157252200Y-44735714D01*
X157252200Y-44735714D02*
X157299819Y-44830952D01*
X157299819Y-44830952D02*
X157299819Y-45021428D01*
X157299819Y-45021428D02*
X157252200Y-45116666D01*
X157252200Y-45116666D02*
X157156961Y-45211904D01*
X157156961Y-45211904D02*
X156966485Y-45259523D01*
X156966485Y-45259523D02*
X156633152Y-45259523D01*
X156633152Y-45259523D02*
X156442676Y-45211904D01*
X156442676Y-45211904D02*
X156347438Y-45116666D01*
X156347438Y-45116666D02*
X156299819Y-45021428D01*
X156633152Y-43735714D02*
X157299819Y-43735714D01*
X156252200Y-43973809D02*
X156966485Y-44211904D01*
X156966485Y-44211904D02*
X156966485Y-43592857D01*
X156299819Y-39941428D02*
X156299819Y-39750952D01*
X156299819Y-39750952D02*
X156347438Y-39655714D01*
X156347438Y-39655714D02*
X156442676Y-39560476D01*
X156442676Y-39560476D02*
X156633152Y-39512857D01*
X156633152Y-39512857D02*
X156966485Y-39512857D01*
X156966485Y-39512857D02*
X157156961Y-39560476D01*
X157156961Y-39560476D02*
X157252200Y-39655714D01*
X157252200Y-39655714D02*
X157299819Y-39750952D01*
X157299819Y-39750952D02*
X157299819Y-39941428D01*
X157299819Y-39941428D02*
X157252200Y-40036666D01*
X157252200Y-40036666D02*
X157156961Y-40131904D01*
X157156961Y-40131904D02*
X156966485Y-40179523D01*
X156966485Y-40179523D02*
X156633152Y-40179523D01*
X156633152Y-40179523D02*
X156442676Y-40131904D01*
X156442676Y-40131904D02*
X156347438Y-40036666D01*
X156347438Y-40036666D02*
X156299819Y-39941428D01*
X156299819Y-38655714D02*
X156299819Y-38846190D01*
X156299819Y-38846190D02*
X156347438Y-38941428D01*
X156347438Y-38941428D02*
X156395057Y-38989047D01*
X156395057Y-38989047D02*
X156537914Y-39084285D01*
X156537914Y-39084285D02*
X156728390Y-39131904D01*
X156728390Y-39131904D02*
X157109342Y-39131904D01*
X157109342Y-39131904D02*
X157204580Y-39084285D01*
X157204580Y-39084285D02*
X157252200Y-39036666D01*
X157252200Y-39036666D02*
X157299819Y-38941428D01*
X157299819Y-38941428D02*
X157299819Y-38750952D01*
X157299819Y-38750952D02*
X157252200Y-38655714D01*
X157252200Y-38655714D02*
X157204580Y-38608095D01*
X157204580Y-38608095D02*
X157109342Y-38560476D01*
X157109342Y-38560476D02*
X156871247Y-38560476D01*
X156871247Y-38560476D02*
X156776009Y-38608095D01*
X156776009Y-38608095D02*
X156728390Y-38655714D01*
X156728390Y-38655714D02*
X156680771Y-38750952D01*
X156680771Y-38750952D02*
X156680771Y-38941428D01*
X156680771Y-38941428D02*
X156728390Y-39036666D01*
X156728390Y-39036666D02*
X156776009Y-39084285D01*
X156776009Y-39084285D02*
X156871247Y-39131904D01*
X157299819Y-67833809D02*
X156823628Y-68167142D01*
X157299819Y-68405237D02*
X156299819Y-68405237D01*
X156299819Y-68405237D02*
X156299819Y-68024285D01*
X156299819Y-68024285D02*
X156347438Y-67929047D01*
X156347438Y-67929047D02*
X156395057Y-67881428D01*
X156395057Y-67881428D02*
X156490295Y-67833809D01*
X156490295Y-67833809D02*
X156633152Y-67833809D01*
X156633152Y-67833809D02*
X156728390Y-67881428D01*
X156728390Y-67881428D02*
X156776009Y-67929047D01*
X156776009Y-67929047D02*
X156823628Y-68024285D01*
X156823628Y-68024285D02*
X156823628Y-68405237D01*
X157252200Y-67024285D02*
X157299819Y-67119523D01*
X157299819Y-67119523D02*
X157299819Y-67309999D01*
X157299819Y-67309999D02*
X157252200Y-67405237D01*
X157252200Y-67405237D02*
X157156961Y-67452856D01*
X157156961Y-67452856D02*
X156776009Y-67452856D01*
X156776009Y-67452856D02*
X156680771Y-67405237D01*
X156680771Y-67405237D02*
X156633152Y-67309999D01*
X156633152Y-67309999D02*
X156633152Y-67119523D01*
X156633152Y-67119523D02*
X156680771Y-67024285D01*
X156680771Y-67024285D02*
X156776009Y-66976666D01*
X156776009Y-66976666D02*
X156871247Y-66976666D01*
X156871247Y-66976666D02*
X156966485Y-67452856D01*
X157252200Y-66595713D02*
X157299819Y-66500475D01*
X157299819Y-66500475D02*
X157299819Y-66309999D01*
X157299819Y-66309999D02*
X157252200Y-66214761D01*
X157252200Y-66214761D02*
X157156961Y-66167142D01*
X157156961Y-66167142D02*
X157109342Y-66167142D01*
X157109342Y-66167142D02*
X157014104Y-66214761D01*
X157014104Y-66214761D02*
X156966485Y-66309999D01*
X156966485Y-66309999D02*
X156966485Y-66452856D01*
X156966485Y-66452856D02*
X156918866Y-66548094D01*
X156918866Y-66548094D02*
X156823628Y-66595713D01*
X156823628Y-66595713D02*
X156776009Y-66595713D01*
X156776009Y-66595713D02*
X156680771Y-66548094D01*
X156680771Y-66548094D02*
X156633152Y-66452856D01*
X156633152Y-66452856D02*
X156633152Y-66309999D01*
X156633152Y-66309999D02*
X156680771Y-66214761D01*
X156022200Y-68543333D02*
X156022200Y-66076666D01*
X157299819Y-85566189D02*
X156299819Y-85566189D01*
X156299819Y-84613809D02*
X156299819Y-85089999D01*
X156299819Y-85089999D02*
X156776009Y-85137618D01*
X156776009Y-85137618D02*
X156728390Y-85089999D01*
X156728390Y-85089999D02*
X156680771Y-84994761D01*
X156680771Y-84994761D02*
X156680771Y-84756666D01*
X156680771Y-84756666D02*
X156728390Y-84661428D01*
X156728390Y-84661428D02*
X156776009Y-84613809D01*
X156776009Y-84613809D02*
X156871247Y-84566190D01*
X156871247Y-84566190D02*
X157109342Y-84566190D01*
X157109342Y-84566190D02*
X157204580Y-84613809D01*
X157204580Y-84613809D02*
X157252200Y-84661428D01*
X157252200Y-84661428D02*
X157299819Y-84756666D01*
X157299819Y-84756666D02*
X157299819Y-84994761D01*
X157299819Y-84994761D02*
X157252200Y-85089999D01*
X157252200Y-85089999D02*
X157204580Y-85137618D01*
X157299819Y-83026189D02*
X156299819Y-83026189D01*
X156633152Y-82121428D02*
X157299819Y-82121428D01*
X156252200Y-82359523D02*
X156966485Y-82597618D01*
X156966485Y-82597618D02*
X156966485Y-81978571D01*
X156347438Y-63190357D02*
X156299819Y-63285595D01*
X156299819Y-63285595D02*
X156299819Y-63428452D01*
X156299819Y-63428452D02*
X156347438Y-63571309D01*
X156347438Y-63571309D02*
X156442676Y-63666547D01*
X156442676Y-63666547D02*
X156537914Y-63714166D01*
X156537914Y-63714166D02*
X156728390Y-63761785D01*
X156728390Y-63761785D02*
X156871247Y-63761785D01*
X156871247Y-63761785D02*
X157061723Y-63714166D01*
X157061723Y-63714166D02*
X157156961Y-63666547D01*
X157156961Y-63666547D02*
X157252200Y-63571309D01*
X157252200Y-63571309D02*
X157299819Y-63428452D01*
X157299819Y-63428452D02*
X157299819Y-63333214D01*
X157299819Y-63333214D02*
X157252200Y-63190357D01*
X157252200Y-63190357D02*
X157204580Y-63142738D01*
X157204580Y-63142738D02*
X156871247Y-63142738D01*
X156871247Y-63142738D02*
X156871247Y-63333214D01*
X156633152Y-62714166D02*
X157299819Y-62714166D01*
X156728390Y-62714166D02*
X156680771Y-62666547D01*
X156680771Y-62666547D02*
X156633152Y-62571309D01*
X156633152Y-62571309D02*
X156633152Y-62428452D01*
X156633152Y-62428452D02*
X156680771Y-62333214D01*
X156680771Y-62333214D02*
X156776009Y-62285595D01*
X156776009Y-62285595D02*
X157299819Y-62285595D01*
X157299819Y-61380833D02*
X156299819Y-61380833D01*
X157252200Y-61380833D02*
X157299819Y-61476071D01*
X157299819Y-61476071D02*
X157299819Y-61666547D01*
X157299819Y-61666547D02*
X157252200Y-61761785D01*
X157252200Y-61761785D02*
X157204580Y-61809404D01*
X157204580Y-61809404D02*
X157109342Y-61857023D01*
X157109342Y-61857023D02*
X156823628Y-61857023D01*
X156823628Y-61857023D02*
X156728390Y-61809404D01*
X156728390Y-61809404D02*
X156680771Y-61761785D01*
X156680771Y-61761785D02*
X156633152Y-61666547D01*
X156633152Y-61666547D02*
X156633152Y-61476071D01*
X156633152Y-61476071D02*
X156680771Y-61380833D01*
X156299819Y-60562975D02*
X157299819Y-60229642D01*
X157299819Y-60229642D02*
X156299819Y-59896309D01*
X157252200Y-59134404D02*
X157299819Y-59229642D01*
X157299819Y-59229642D02*
X157299819Y-59420118D01*
X157299819Y-59420118D02*
X157252200Y-59515356D01*
X157252200Y-59515356D02*
X157204580Y-59562975D01*
X157204580Y-59562975D02*
X157109342Y-59610594D01*
X157109342Y-59610594D02*
X156823628Y-59610594D01*
X156823628Y-59610594D02*
X156728390Y-59562975D01*
X156728390Y-59562975D02*
X156680771Y-59515356D01*
X156680771Y-59515356D02*
X156633152Y-59420118D01*
X156633152Y-59420118D02*
X156633152Y-59229642D01*
X156633152Y-59229642D02*
X156680771Y-59134404D01*
X157252200Y-58277261D02*
X157299819Y-58372499D01*
X157299819Y-58372499D02*
X157299819Y-58562975D01*
X157299819Y-58562975D02*
X157252200Y-58658213D01*
X157252200Y-58658213D02*
X157204580Y-58705832D01*
X157204580Y-58705832D02*
X157109342Y-58753451D01*
X157109342Y-58753451D02*
X156823628Y-58753451D01*
X156823628Y-58753451D02*
X156728390Y-58705832D01*
X156728390Y-58705832D02*
X156680771Y-58658213D01*
X156680771Y-58658213D02*
X156633152Y-58562975D01*
X156633152Y-58562975D02*
X156633152Y-58372499D01*
X156633152Y-58372499D02*
X156680771Y-58277261D01*
D11*
X124099638Y-23193333D02*
X123147257Y-23860000D01*
X124099638Y-24336190D02*
X122099638Y-24336190D01*
X122099638Y-24336190D02*
X122099638Y-23574285D01*
X122099638Y-23574285D02*
X122194876Y-23383809D01*
X122194876Y-23383809D02*
X122290114Y-23288571D01*
X122290114Y-23288571D02*
X122480590Y-23193333D01*
X122480590Y-23193333D02*
X122766304Y-23193333D01*
X122766304Y-23193333D02*
X122956780Y-23288571D01*
X122956780Y-23288571D02*
X123052019Y-23383809D01*
X123052019Y-23383809D02*
X123147257Y-23574285D01*
X123147257Y-23574285D02*
X123147257Y-24336190D01*
X124099638Y-21288571D02*
X124099638Y-22431428D01*
X124099638Y-21860000D02*
X122099638Y-21860000D01*
X122099638Y-21860000D02*
X122385352Y-22050476D01*
X122385352Y-22050476D02*
X122575828Y-22240952D01*
X122575828Y-22240952D02*
X122671066Y-22431428D01*
X88539638Y-23193333D02*
X87587257Y-23860000D01*
X88539638Y-24336190D02*
X86539638Y-24336190D01*
X86539638Y-24336190D02*
X86539638Y-23574285D01*
X86539638Y-23574285D02*
X86634876Y-23383809D01*
X86634876Y-23383809D02*
X86730114Y-23288571D01*
X86730114Y-23288571D02*
X86920590Y-23193333D01*
X86920590Y-23193333D02*
X87206304Y-23193333D01*
X87206304Y-23193333D02*
X87396780Y-23288571D01*
X87396780Y-23288571D02*
X87492019Y-23383809D01*
X87492019Y-23383809D02*
X87587257Y-23574285D01*
X87587257Y-23574285D02*
X87587257Y-24336190D01*
X86539638Y-22526666D02*
X86539638Y-21288571D01*
X86539638Y-21288571D02*
X87301542Y-21955238D01*
X87301542Y-21955238D02*
X87301542Y-21669523D01*
X87301542Y-21669523D02*
X87396780Y-21479047D01*
X87396780Y-21479047D02*
X87492019Y-21383809D01*
X87492019Y-21383809D02*
X87682495Y-21288571D01*
X87682495Y-21288571D02*
X88158685Y-21288571D01*
X88158685Y-21288571D02*
X88349161Y-21383809D01*
X88349161Y-21383809D02*
X88444400Y-21479047D01*
X88444400Y-21479047D02*
X88539638Y-21669523D01*
X88539638Y-21669523D02*
X88539638Y-22240952D01*
X88539638Y-22240952D02*
X88444400Y-22431428D01*
X88444400Y-22431428D02*
X88349161Y-22526666D01*
X52979638Y-23193333D02*
X52027257Y-23860000D01*
X52979638Y-24336190D02*
X50979638Y-24336190D01*
X50979638Y-24336190D02*
X50979638Y-23574285D01*
X50979638Y-23574285D02*
X51074876Y-23383809D01*
X51074876Y-23383809D02*
X51170114Y-23288571D01*
X51170114Y-23288571D02*
X51360590Y-23193333D01*
X51360590Y-23193333D02*
X51646304Y-23193333D01*
X51646304Y-23193333D02*
X51836780Y-23288571D01*
X51836780Y-23288571D02*
X51932019Y-23383809D01*
X51932019Y-23383809D02*
X52027257Y-23574285D01*
X52027257Y-23574285D02*
X52027257Y-24336190D01*
X50979638Y-21383809D02*
X50979638Y-22336190D01*
X50979638Y-22336190D02*
X51932019Y-22431428D01*
X51932019Y-22431428D02*
X51836780Y-22336190D01*
X51836780Y-22336190D02*
X51741542Y-22145714D01*
X51741542Y-22145714D02*
X51741542Y-21669523D01*
X51741542Y-21669523D02*
X51836780Y-21479047D01*
X51836780Y-21479047D02*
X51932019Y-21383809D01*
X51932019Y-21383809D02*
X52122495Y-21288571D01*
X52122495Y-21288571D02*
X52598685Y-21288571D01*
X52598685Y-21288571D02*
X52789161Y-21383809D01*
X52789161Y-21383809D02*
X52884400Y-21479047D01*
X52884400Y-21479047D02*
X52979638Y-21669523D01*
X52979638Y-21669523D02*
X52979638Y-22145714D01*
X52979638Y-22145714D02*
X52884400Y-22336190D01*
X52884400Y-22336190D02*
X52789161Y-22431428D01*
X17419638Y-23193333D02*
X16467257Y-23860000D01*
X17419638Y-24336190D02*
X15419638Y-24336190D01*
X15419638Y-24336190D02*
X15419638Y-23574285D01*
X15419638Y-23574285D02*
X15514876Y-23383809D01*
X15514876Y-23383809D02*
X15610114Y-23288571D01*
X15610114Y-23288571D02*
X15800590Y-23193333D01*
X15800590Y-23193333D02*
X16086304Y-23193333D01*
X16086304Y-23193333D02*
X16276780Y-23288571D01*
X16276780Y-23288571D02*
X16372019Y-23383809D01*
X16372019Y-23383809D02*
X16467257Y-23574285D01*
X16467257Y-23574285D02*
X16467257Y-24336190D01*
X15419638Y-22526666D02*
X15419638Y-21193333D01*
X15419638Y-21193333D02*
X17419638Y-22050476D01*
X70759638Y-23193333D02*
X69807257Y-23860000D01*
X70759638Y-24336190D02*
X68759638Y-24336190D01*
X68759638Y-24336190D02*
X68759638Y-23574285D01*
X68759638Y-23574285D02*
X68854876Y-23383809D01*
X68854876Y-23383809D02*
X68950114Y-23288571D01*
X68950114Y-23288571D02*
X69140590Y-23193333D01*
X69140590Y-23193333D02*
X69426304Y-23193333D01*
X69426304Y-23193333D02*
X69616780Y-23288571D01*
X69616780Y-23288571D02*
X69712019Y-23383809D01*
X69712019Y-23383809D02*
X69807257Y-23574285D01*
X69807257Y-23574285D02*
X69807257Y-24336190D01*
X69426304Y-21479047D02*
X70759638Y-21479047D01*
X68664400Y-21955238D02*
X70092971Y-22431428D01*
X70092971Y-22431428D02*
X70092971Y-21193333D01*
X106319638Y-23193333D02*
X105367257Y-23860000D01*
X106319638Y-24336190D02*
X104319638Y-24336190D01*
X104319638Y-24336190D02*
X104319638Y-23574285D01*
X104319638Y-23574285D02*
X104414876Y-23383809D01*
X104414876Y-23383809D02*
X104510114Y-23288571D01*
X104510114Y-23288571D02*
X104700590Y-23193333D01*
X104700590Y-23193333D02*
X104986304Y-23193333D01*
X104986304Y-23193333D02*
X105176780Y-23288571D01*
X105176780Y-23288571D02*
X105272019Y-23383809D01*
X105272019Y-23383809D02*
X105367257Y-23574285D01*
X105367257Y-23574285D02*
X105367257Y-24336190D01*
X104510114Y-22431428D02*
X104414876Y-22336190D01*
X104414876Y-22336190D02*
X104319638Y-22145714D01*
X104319638Y-22145714D02*
X104319638Y-21669523D01*
X104319638Y-21669523D02*
X104414876Y-21479047D01*
X104414876Y-21479047D02*
X104510114Y-21383809D01*
X104510114Y-21383809D02*
X104700590Y-21288571D01*
X104700590Y-21288571D02*
X104891066Y-21288571D01*
X104891066Y-21288571D02*
X105176780Y-21383809D01*
X105176780Y-21383809D02*
X106319638Y-22526666D01*
X106319638Y-22526666D02*
X106319638Y-21288571D01*
X141879638Y-23193333D02*
X140927257Y-23860000D01*
X141879638Y-24336190D02*
X139879638Y-24336190D01*
X139879638Y-24336190D02*
X139879638Y-23574285D01*
X139879638Y-23574285D02*
X139974876Y-23383809D01*
X139974876Y-23383809D02*
X140070114Y-23288571D01*
X140070114Y-23288571D02*
X140260590Y-23193333D01*
X140260590Y-23193333D02*
X140546304Y-23193333D01*
X140546304Y-23193333D02*
X140736780Y-23288571D01*
X140736780Y-23288571D02*
X140832019Y-23383809D01*
X140832019Y-23383809D02*
X140927257Y-23574285D01*
X140927257Y-23574285D02*
X140927257Y-24336190D01*
X139879638Y-21955238D02*
X139879638Y-21764761D01*
X139879638Y-21764761D02*
X139974876Y-21574285D01*
X139974876Y-21574285D02*
X140070114Y-21479047D01*
X140070114Y-21479047D02*
X140260590Y-21383809D01*
X140260590Y-21383809D02*
X140641542Y-21288571D01*
X140641542Y-21288571D02*
X141117733Y-21288571D01*
X141117733Y-21288571D02*
X141498685Y-21383809D01*
X141498685Y-21383809D02*
X141689161Y-21479047D01*
X141689161Y-21479047D02*
X141784400Y-21574285D01*
X141784400Y-21574285D02*
X141879638Y-21764761D01*
X141879638Y-21764761D02*
X141879638Y-21955238D01*
X141879638Y-21955238D02*
X141784400Y-22145714D01*
X141784400Y-22145714D02*
X141689161Y-22240952D01*
X141689161Y-22240952D02*
X141498685Y-22336190D01*
X141498685Y-22336190D02*
X141117733Y-22431428D01*
X141117733Y-22431428D02*
X140641542Y-22431428D01*
X140641542Y-22431428D02*
X140260590Y-22336190D01*
X140260590Y-22336190D02*
X140070114Y-22240952D01*
X140070114Y-22240952D02*
X139974876Y-22145714D01*
X139974876Y-22145714D02*
X139879638Y-21955238D01*
D13*
X33131190Y-70939819D02*
X32797857Y-70463628D01*
X32559762Y-70939819D02*
X32559762Y-69939819D01*
X32559762Y-69939819D02*
X32940714Y-69939819D01*
X32940714Y-69939819D02*
X33035952Y-69987438D01*
X33035952Y-69987438D02*
X33083571Y-70035057D01*
X33083571Y-70035057D02*
X33131190Y-70130295D01*
X33131190Y-70130295D02*
X33131190Y-70273152D01*
X33131190Y-70273152D02*
X33083571Y-70368390D01*
X33083571Y-70368390D02*
X33035952Y-70416009D01*
X33035952Y-70416009D02*
X32940714Y-70463628D01*
X32940714Y-70463628D02*
X32559762Y-70463628D01*
X33940714Y-70892200D02*
X33845476Y-70939819D01*
X33845476Y-70939819D02*
X33655000Y-70939819D01*
X33655000Y-70939819D02*
X33559762Y-70892200D01*
X33559762Y-70892200D02*
X33512143Y-70796961D01*
X33512143Y-70796961D02*
X33512143Y-70416009D01*
X33512143Y-70416009D02*
X33559762Y-70320771D01*
X33559762Y-70320771D02*
X33655000Y-70273152D01*
X33655000Y-70273152D02*
X33845476Y-70273152D01*
X33845476Y-70273152D02*
X33940714Y-70320771D01*
X33940714Y-70320771D02*
X33988333Y-70416009D01*
X33988333Y-70416009D02*
X33988333Y-70511247D01*
X33988333Y-70511247D02*
X33512143Y-70606485D01*
X34369286Y-70892200D02*
X34464524Y-70939819D01*
X34464524Y-70939819D02*
X34655000Y-70939819D01*
X34655000Y-70939819D02*
X34750238Y-70892200D01*
X34750238Y-70892200D02*
X34797857Y-70796961D01*
X34797857Y-70796961D02*
X34797857Y-70749342D01*
X34797857Y-70749342D02*
X34750238Y-70654104D01*
X34750238Y-70654104D02*
X34655000Y-70606485D01*
X34655000Y-70606485D02*
X34512143Y-70606485D01*
X34512143Y-70606485D02*
X34416905Y-70558866D01*
X34416905Y-70558866D02*
X34369286Y-70463628D01*
X34369286Y-70463628D02*
X34369286Y-70416009D01*
X34369286Y-70416009D02*
X34416905Y-70320771D01*
X34416905Y-70320771D02*
X34512143Y-70273152D01*
X34512143Y-70273152D02*
X34655000Y-70273152D01*
X34655000Y-70273152D02*
X34750238Y-70320771D01*
X32421667Y-69662200D02*
X34888334Y-69662200D01*
D11*
X35104400Y-96186428D02*
X35199638Y-95900714D01*
X35199638Y-95900714D02*
X35199638Y-95424523D01*
X35199638Y-95424523D02*
X35104400Y-95234047D01*
X35104400Y-95234047D02*
X35009161Y-95138809D01*
X35009161Y-95138809D02*
X34818685Y-95043571D01*
X34818685Y-95043571D02*
X34628209Y-95043571D01*
X34628209Y-95043571D02*
X34437733Y-95138809D01*
X34437733Y-95138809D02*
X34342495Y-95234047D01*
X34342495Y-95234047D02*
X34247257Y-95424523D01*
X34247257Y-95424523D02*
X34152019Y-95805476D01*
X34152019Y-95805476D02*
X34056780Y-95995952D01*
X34056780Y-95995952D02*
X33961542Y-96091190D01*
X33961542Y-96091190D02*
X33771066Y-96186428D01*
X33771066Y-96186428D02*
X33580590Y-96186428D01*
X33580590Y-96186428D02*
X33390114Y-96091190D01*
X33390114Y-96091190D02*
X33294876Y-95995952D01*
X33294876Y-95995952D02*
X33199638Y-95805476D01*
X33199638Y-95805476D02*
X33199638Y-95329285D01*
X33199638Y-95329285D02*
X33294876Y-95043571D01*
X35199638Y-94186428D02*
X33199638Y-94186428D01*
X33199638Y-94186428D02*
X33199638Y-93424523D01*
X33199638Y-93424523D02*
X33294876Y-93234047D01*
X33294876Y-93234047D02*
X33390114Y-93138809D01*
X33390114Y-93138809D02*
X33580590Y-93043571D01*
X33580590Y-93043571D02*
X33866304Y-93043571D01*
X33866304Y-93043571D02*
X34056780Y-93138809D01*
X34056780Y-93138809D02*
X34152019Y-93234047D01*
X34152019Y-93234047D02*
X34247257Y-93424523D01*
X34247257Y-93424523D02*
X34247257Y-94186428D01*
D13*
X49619819Y-62277618D02*
X49619819Y-62182380D01*
X49619819Y-62182380D02*
X49667438Y-62087142D01*
X49667438Y-62087142D02*
X49715057Y-62039523D01*
X49715057Y-62039523D02*
X49810295Y-61991904D01*
X49810295Y-61991904D02*
X50000771Y-61944285D01*
X50000771Y-61944285D02*
X50238866Y-61944285D01*
X50238866Y-61944285D02*
X50429342Y-61991904D01*
X50429342Y-61991904D02*
X50524580Y-62039523D01*
X50524580Y-62039523D02*
X50572200Y-62087142D01*
X50572200Y-62087142D02*
X50619819Y-62182380D01*
X50619819Y-62182380D02*
X50619819Y-62277618D01*
X50619819Y-62277618D02*
X50572200Y-62372856D01*
X50572200Y-62372856D02*
X50524580Y-62420475D01*
X50524580Y-62420475D02*
X50429342Y-62468094D01*
X50429342Y-62468094D02*
X50238866Y-62515713D01*
X50238866Y-62515713D02*
X50000771Y-62515713D01*
X50000771Y-62515713D02*
X49810295Y-62468094D01*
X49810295Y-62468094D02*
X49715057Y-62420475D01*
X49715057Y-62420475D02*
X49667438Y-62372856D01*
X49667438Y-62372856D02*
X49619819Y-62277618D01*
X87106190Y-70939819D02*
X86772857Y-70463628D01*
X86534762Y-70939819D02*
X86534762Y-69939819D01*
X86534762Y-69939819D02*
X86915714Y-69939819D01*
X86915714Y-69939819D02*
X87010952Y-69987438D01*
X87010952Y-69987438D02*
X87058571Y-70035057D01*
X87058571Y-70035057D02*
X87106190Y-70130295D01*
X87106190Y-70130295D02*
X87106190Y-70273152D01*
X87106190Y-70273152D02*
X87058571Y-70368390D01*
X87058571Y-70368390D02*
X87010952Y-70416009D01*
X87010952Y-70416009D02*
X86915714Y-70463628D01*
X86915714Y-70463628D02*
X86534762Y-70463628D01*
X87915714Y-70892200D02*
X87820476Y-70939819D01*
X87820476Y-70939819D02*
X87630000Y-70939819D01*
X87630000Y-70939819D02*
X87534762Y-70892200D01*
X87534762Y-70892200D02*
X87487143Y-70796961D01*
X87487143Y-70796961D02*
X87487143Y-70416009D01*
X87487143Y-70416009D02*
X87534762Y-70320771D01*
X87534762Y-70320771D02*
X87630000Y-70273152D01*
X87630000Y-70273152D02*
X87820476Y-70273152D01*
X87820476Y-70273152D02*
X87915714Y-70320771D01*
X87915714Y-70320771D02*
X87963333Y-70416009D01*
X87963333Y-70416009D02*
X87963333Y-70511247D01*
X87963333Y-70511247D02*
X87487143Y-70606485D01*
X88344286Y-70892200D02*
X88439524Y-70939819D01*
X88439524Y-70939819D02*
X88630000Y-70939819D01*
X88630000Y-70939819D02*
X88725238Y-70892200D01*
X88725238Y-70892200D02*
X88772857Y-70796961D01*
X88772857Y-70796961D02*
X88772857Y-70749342D01*
X88772857Y-70749342D02*
X88725238Y-70654104D01*
X88725238Y-70654104D02*
X88630000Y-70606485D01*
X88630000Y-70606485D02*
X88487143Y-70606485D01*
X88487143Y-70606485D02*
X88391905Y-70558866D01*
X88391905Y-70558866D02*
X88344286Y-70463628D01*
X88344286Y-70463628D02*
X88344286Y-70416009D01*
X88344286Y-70416009D02*
X88391905Y-70320771D01*
X88391905Y-70320771D02*
X88487143Y-70273152D01*
X88487143Y-70273152D02*
X88630000Y-70273152D01*
X88630000Y-70273152D02*
X88725238Y-70320771D01*
X86396667Y-69662200D02*
X88863334Y-69662200D01*
D11*
X19324638Y-17954523D02*
X18372257Y-18621190D01*
X19324638Y-19097380D02*
X17324638Y-19097380D01*
X17324638Y-19097380D02*
X17324638Y-18335475D01*
X17324638Y-18335475D02*
X17419876Y-18144999D01*
X17419876Y-18144999D02*
X17515114Y-18049761D01*
X17515114Y-18049761D02*
X17705590Y-17954523D01*
X17705590Y-17954523D02*
X17991304Y-17954523D01*
X17991304Y-17954523D02*
X18181780Y-18049761D01*
X18181780Y-18049761D02*
X18277019Y-18144999D01*
X18277019Y-18144999D02*
X18372257Y-18335475D01*
X18372257Y-18335475D02*
X18372257Y-19097380D01*
X17324638Y-17287856D02*
X17324638Y-15954523D01*
X17324638Y-15954523D02*
X19324638Y-16811666D01*
X17324638Y-15097380D02*
X17705590Y-15287856D01*
X40279638Y-18589523D02*
X39327257Y-19256190D01*
X40279638Y-19732380D02*
X38279638Y-19732380D01*
X38279638Y-19732380D02*
X38279638Y-18970475D01*
X38279638Y-18970475D02*
X38374876Y-18779999D01*
X38374876Y-18779999D02*
X38470114Y-18684761D01*
X38470114Y-18684761D02*
X38660590Y-18589523D01*
X38660590Y-18589523D02*
X38946304Y-18589523D01*
X38946304Y-18589523D02*
X39136780Y-18684761D01*
X39136780Y-18684761D02*
X39232019Y-18779999D01*
X39232019Y-18779999D02*
X39327257Y-18970475D01*
X39327257Y-18970475D02*
X39327257Y-19732380D01*
X38279638Y-16875237D02*
X38279638Y-17256190D01*
X38279638Y-17256190D02*
X38374876Y-17446666D01*
X38374876Y-17446666D02*
X38470114Y-17541904D01*
X38470114Y-17541904D02*
X38755828Y-17732380D01*
X38755828Y-17732380D02*
X39136780Y-17827618D01*
X39136780Y-17827618D02*
X39898685Y-17827618D01*
X39898685Y-17827618D02*
X40089161Y-17732380D01*
X40089161Y-17732380D02*
X40184400Y-17637142D01*
X40184400Y-17637142D02*
X40279638Y-17446666D01*
X40279638Y-17446666D02*
X40279638Y-17065713D01*
X40279638Y-17065713D02*
X40184400Y-16875237D01*
X40184400Y-16875237D02*
X40089161Y-16779999D01*
X40089161Y-16779999D02*
X39898685Y-16684761D01*
X39898685Y-16684761D02*
X39422495Y-16684761D01*
X39422495Y-16684761D02*
X39232019Y-16779999D01*
X39232019Y-16779999D02*
X39136780Y-16875237D01*
X39136780Y-16875237D02*
X39041542Y-17065713D01*
X39041542Y-17065713D02*
X39041542Y-17446666D01*
X39041542Y-17446666D02*
X39136780Y-17637142D01*
X39136780Y-17637142D02*
X39232019Y-17732380D01*
X39232019Y-17732380D02*
X39422495Y-17827618D01*
X38279638Y-15732380D02*
X38660590Y-15922856D01*
X58059638Y-18589523D02*
X57107257Y-19256190D01*
X58059638Y-19732380D02*
X56059638Y-19732380D01*
X56059638Y-19732380D02*
X56059638Y-18970475D01*
X56059638Y-18970475D02*
X56154876Y-18779999D01*
X56154876Y-18779999D02*
X56250114Y-18684761D01*
X56250114Y-18684761D02*
X56440590Y-18589523D01*
X56440590Y-18589523D02*
X56726304Y-18589523D01*
X56726304Y-18589523D02*
X56916780Y-18684761D01*
X56916780Y-18684761D02*
X57012019Y-18779999D01*
X57012019Y-18779999D02*
X57107257Y-18970475D01*
X57107257Y-18970475D02*
X57107257Y-19732380D01*
X56059638Y-16779999D02*
X56059638Y-17732380D01*
X56059638Y-17732380D02*
X57012019Y-17827618D01*
X57012019Y-17827618D02*
X56916780Y-17732380D01*
X56916780Y-17732380D02*
X56821542Y-17541904D01*
X56821542Y-17541904D02*
X56821542Y-17065713D01*
X56821542Y-17065713D02*
X56916780Y-16875237D01*
X56916780Y-16875237D02*
X57012019Y-16779999D01*
X57012019Y-16779999D02*
X57202495Y-16684761D01*
X57202495Y-16684761D02*
X57678685Y-16684761D01*
X57678685Y-16684761D02*
X57869161Y-16779999D01*
X57869161Y-16779999D02*
X57964400Y-16875237D01*
X57964400Y-16875237D02*
X58059638Y-17065713D01*
X58059638Y-17065713D02*
X58059638Y-17541904D01*
X58059638Y-17541904D02*
X57964400Y-17732380D01*
X57964400Y-17732380D02*
X57869161Y-17827618D01*
X56059638Y-15732380D02*
X56440590Y-15922856D01*
X75839638Y-18589523D02*
X74887257Y-19256190D01*
X75839638Y-19732380D02*
X73839638Y-19732380D01*
X73839638Y-19732380D02*
X73839638Y-18970475D01*
X73839638Y-18970475D02*
X73934876Y-18779999D01*
X73934876Y-18779999D02*
X74030114Y-18684761D01*
X74030114Y-18684761D02*
X74220590Y-18589523D01*
X74220590Y-18589523D02*
X74506304Y-18589523D01*
X74506304Y-18589523D02*
X74696780Y-18684761D01*
X74696780Y-18684761D02*
X74792019Y-18779999D01*
X74792019Y-18779999D02*
X74887257Y-18970475D01*
X74887257Y-18970475D02*
X74887257Y-19732380D01*
X74506304Y-16875237D02*
X75839638Y-16875237D01*
X73744400Y-17351428D02*
X75172971Y-17827618D01*
X75172971Y-17827618D02*
X75172971Y-16589523D01*
X73839638Y-15732380D02*
X74220590Y-15922856D01*
X89174638Y-18589523D02*
X88222257Y-19256190D01*
X89174638Y-19732380D02*
X87174638Y-19732380D01*
X87174638Y-19732380D02*
X87174638Y-18970475D01*
X87174638Y-18970475D02*
X87269876Y-18779999D01*
X87269876Y-18779999D02*
X87365114Y-18684761D01*
X87365114Y-18684761D02*
X87555590Y-18589523D01*
X87555590Y-18589523D02*
X87841304Y-18589523D01*
X87841304Y-18589523D02*
X88031780Y-18684761D01*
X88031780Y-18684761D02*
X88127019Y-18779999D01*
X88127019Y-18779999D02*
X88222257Y-18970475D01*
X88222257Y-18970475D02*
X88222257Y-19732380D01*
X87174638Y-17922856D02*
X87174638Y-16684761D01*
X87174638Y-16684761D02*
X87936542Y-17351428D01*
X87936542Y-17351428D02*
X87936542Y-17065713D01*
X87936542Y-17065713D02*
X88031780Y-16875237D01*
X88031780Y-16875237D02*
X88127019Y-16779999D01*
X88127019Y-16779999D02*
X88317495Y-16684761D01*
X88317495Y-16684761D02*
X88793685Y-16684761D01*
X88793685Y-16684761D02*
X88984161Y-16779999D01*
X88984161Y-16779999D02*
X89079400Y-16875237D01*
X89079400Y-16875237D02*
X89174638Y-17065713D01*
X89174638Y-17065713D02*
X89174638Y-17637142D01*
X89174638Y-17637142D02*
X89079400Y-17827618D01*
X89079400Y-17827618D02*
X88984161Y-17922856D01*
X87174638Y-15732380D02*
X87555590Y-15922856D01*
X111399638Y-18589523D02*
X110447257Y-19256190D01*
X111399638Y-19732380D02*
X109399638Y-19732380D01*
X109399638Y-19732380D02*
X109399638Y-18970475D01*
X109399638Y-18970475D02*
X109494876Y-18779999D01*
X109494876Y-18779999D02*
X109590114Y-18684761D01*
X109590114Y-18684761D02*
X109780590Y-18589523D01*
X109780590Y-18589523D02*
X110066304Y-18589523D01*
X110066304Y-18589523D02*
X110256780Y-18684761D01*
X110256780Y-18684761D02*
X110352019Y-18779999D01*
X110352019Y-18779999D02*
X110447257Y-18970475D01*
X110447257Y-18970475D02*
X110447257Y-19732380D01*
X109590114Y-17827618D02*
X109494876Y-17732380D01*
X109494876Y-17732380D02*
X109399638Y-17541904D01*
X109399638Y-17541904D02*
X109399638Y-17065713D01*
X109399638Y-17065713D02*
X109494876Y-16875237D01*
X109494876Y-16875237D02*
X109590114Y-16779999D01*
X109590114Y-16779999D02*
X109780590Y-16684761D01*
X109780590Y-16684761D02*
X109971066Y-16684761D01*
X109971066Y-16684761D02*
X110256780Y-16779999D01*
X110256780Y-16779999D02*
X111399638Y-17922856D01*
X111399638Y-17922856D02*
X111399638Y-16684761D01*
X109399638Y-15732380D02*
X109780590Y-15922856D01*
X129179638Y-18589523D02*
X128227257Y-19256190D01*
X129179638Y-19732380D02*
X127179638Y-19732380D01*
X127179638Y-19732380D02*
X127179638Y-18970475D01*
X127179638Y-18970475D02*
X127274876Y-18779999D01*
X127274876Y-18779999D02*
X127370114Y-18684761D01*
X127370114Y-18684761D02*
X127560590Y-18589523D01*
X127560590Y-18589523D02*
X127846304Y-18589523D01*
X127846304Y-18589523D02*
X128036780Y-18684761D01*
X128036780Y-18684761D02*
X128132019Y-18779999D01*
X128132019Y-18779999D02*
X128227257Y-18970475D01*
X128227257Y-18970475D02*
X128227257Y-19732380D01*
X129179638Y-16684761D02*
X129179638Y-17827618D01*
X129179638Y-17256190D02*
X127179638Y-17256190D01*
X127179638Y-17256190D02*
X127465352Y-17446666D01*
X127465352Y-17446666D02*
X127655828Y-17637142D01*
X127655828Y-17637142D02*
X127751066Y-17827618D01*
X127179638Y-15732380D02*
X127560590Y-15922856D01*
X146959638Y-18589523D02*
X146007257Y-19256190D01*
X146959638Y-19732380D02*
X144959638Y-19732380D01*
X144959638Y-19732380D02*
X144959638Y-18970475D01*
X144959638Y-18970475D02*
X145054876Y-18779999D01*
X145054876Y-18779999D02*
X145150114Y-18684761D01*
X145150114Y-18684761D02*
X145340590Y-18589523D01*
X145340590Y-18589523D02*
X145626304Y-18589523D01*
X145626304Y-18589523D02*
X145816780Y-18684761D01*
X145816780Y-18684761D02*
X145912019Y-18779999D01*
X145912019Y-18779999D02*
X146007257Y-18970475D01*
X146007257Y-18970475D02*
X146007257Y-19732380D01*
X144959638Y-17351428D02*
X144959638Y-17160951D01*
X144959638Y-17160951D02*
X145054876Y-16970475D01*
X145054876Y-16970475D02*
X145150114Y-16875237D01*
X145150114Y-16875237D02*
X145340590Y-16779999D01*
X145340590Y-16779999D02*
X145721542Y-16684761D01*
X145721542Y-16684761D02*
X146197733Y-16684761D01*
X146197733Y-16684761D02*
X146578685Y-16779999D01*
X146578685Y-16779999D02*
X146769161Y-16875237D01*
X146769161Y-16875237D02*
X146864400Y-16970475D01*
X146864400Y-16970475D02*
X146959638Y-17160951D01*
X146959638Y-17160951D02*
X146959638Y-17351428D01*
X146959638Y-17351428D02*
X146864400Y-17541904D01*
X146864400Y-17541904D02*
X146769161Y-17637142D01*
X146769161Y-17637142D02*
X146578685Y-17732380D01*
X146578685Y-17732380D02*
X146197733Y-17827618D01*
X146197733Y-17827618D02*
X145721542Y-17827618D01*
X145721542Y-17827618D02*
X145340590Y-17732380D01*
X145340590Y-17732380D02*
X145150114Y-17637142D01*
X145150114Y-17637142D02*
X145054876Y-17541904D01*
X145054876Y-17541904D02*
X144959638Y-17351428D01*
X144959638Y-15732380D02*
X145340590Y-15922856D01*
D13*
X121396190Y-97609819D02*
X121062857Y-97133628D01*
X120824762Y-97609819D02*
X120824762Y-96609819D01*
X120824762Y-96609819D02*
X121205714Y-96609819D01*
X121205714Y-96609819D02*
X121300952Y-96657438D01*
X121300952Y-96657438D02*
X121348571Y-96705057D01*
X121348571Y-96705057D02*
X121396190Y-96800295D01*
X121396190Y-96800295D02*
X121396190Y-96943152D01*
X121396190Y-96943152D02*
X121348571Y-97038390D01*
X121348571Y-97038390D02*
X121300952Y-97086009D01*
X121300952Y-97086009D02*
X121205714Y-97133628D01*
X121205714Y-97133628D02*
X120824762Y-97133628D01*
X122205714Y-97562200D02*
X122110476Y-97609819D01*
X122110476Y-97609819D02*
X121920000Y-97609819D01*
X121920000Y-97609819D02*
X121824762Y-97562200D01*
X121824762Y-97562200D02*
X121777143Y-97466961D01*
X121777143Y-97466961D02*
X121777143Y-97086009D01*
X121777143Y-97086009D02*
X121824762Y-96990771D01*
X121824762Y-96990771D02*
X121920000Y-96943152D01*
X121920000Y-96943152D02*
X122110476Y-96943152D01*
X122110476Y-96943152D02*
X122205714Y-96990771D01*
X122205714Y-96990771D02*
X122253333Y-97086009D01*
X122253333Y-97086009D02*
X122253333Y-97181247D01*
X122253333Y-97181247D02*
X121777143Y-97276485D01*
X122634286Y-97562200D02*
X122729524Y-97609819D01*
X122729524Y-97609819D02*
X122920000Y-97609819D01*
X122920000Y-97609819D02*
X123015238Y-97562200D01*
X123015238Y-97562200D02*
X123062857Y-97466961D01*
X123062857Y-97466961D02*
X123062857Y-97419342D01*
X123062857Y-97419342D02*
X123015238Y-97324104D01*
X123015238Y-97324104D02*
X122920000Y-97276485D01*
X122920000Y-97276485D02*
X122777143Y-97276485D01*
X122777143Y-97276485D02*
X122681905Y-97228866D01*
X122681905Y-97228866D02*
X122634286Y-97133628D01*
X122634286Y-97133628D02*
X122634286Y-97086009D01*
X122634286Y-97086009D02*
X122681905Y-96990771D01*
X122681905Y-96990771D02*
X122777143Y-96943152D01*
X122777143Y-96943152D02*
X122920000Y-96943152D01*
X122920000Y-96943152D02*
X123015238Y-96990771D01*
X120686667Y-96332200D02*
X123153334Y-96332200D01*
X88987975Y-101848509D02*
X89130832Y-101896128D01*
X89130832Y-101896128D02*
X89178451Y-101943747D01*
X89178451Y-101943747D02*
X89226070Y-102038985D01*
X89226070Y-102038985D02*
X89226070Y-102181842D01*
X89226070Y-102181842D02*
X89178451Y-102277080D01*
X89178451Y-102277080D02*
X89130832Y-102324700D01*
X89130832Y-102324700D02*
X89035594Y-102372319D01*
X89035594Y-102372319D02*
X88654642Y-102372319D01*
X88654642Y-102372319D02*
X88654642Y-101372319D01*
X88654642Y-101372319D02*
X88987975Y-101372319D01*
X88987975Y-101372319D02*
X89083213Y-101419938D01*
X89083213Y-101419938D02*
X89130832Y-101467557D01*
X89130832Y-101467557D02*
X89178451Y-101562795D01*
X89178451Y-101562795D02*
X89178451Y-101658033D01*
X89178451Y-101658033D02*
X89130832Y-101753271D01*
X89130832Y-101753271D02*
X89083213Y-101800890D01*
X89083213Y-101800890D02*
X88987975Y-101848509D01*
X88987975Y-101848509D02*
X88654642Y-101848509D01*
X90083213Y-102372319D02*
X90083213Y-101848509D01*
X90083213Y-101848509D02*
X90035594Y-101753271D01*
X90035594Y-101753271D02*
X89940356Y-101705652D01*
X89940356Y-101705652D02*
X89749880Y-101705652D01*
X89749880Y-101705652D02*
X89654642Y-101753271D01*
X90083213Y-102324700D02*
X89987975Y-102372319D01*
X89987975Y-102372319D02*
X89749880Y-102372319D01*
X89749880Y-102372319D02*
X89654642Y-102324700D01*
X89654642Y-102324700D02*
X89607023Y-102229461D01*
X89607023Y-102229461D02*
X89607023Y-102134223D01*
X89607023Y-102134223D02*
X89654642Y-102038985D01*
X89654642Y-102038985D02*
X89749880Y-101991366D01*
X89749880Y-101991366D02*
X89987975Y-101991366D01*
X89987975Y-101991366D02*
X90083213Y-101943747D01*
X90559404Y-101705652D02*
X90559404Y-102372319D01*
X90559404Y-101800890D02*
X90607023Y-101753271D01*
X90607023Y-101753271D02*
X90702261Y-101705652D01*
X90702261Y-101705652D02*
X90845118Y-101705652D01*
X90845118Y-101705652D02*
X90940356Y-101753271D01*
X90940356Y-101753271D02*
X90987975Y-101848509D01*
X90987975Y-101848509D02*
X90987975Y-102372319D01*
X91464166Y-102372319D02*
X91464166Y-101372319D01*
X91559404Y-101991366D02*
X91845118Y-102372319D01*
X91845118Y-101705652D02*
X91464166Y-102086604D01*
X92797499Y-102372319D02*
X92226071Y-102372319D01*
X92511785Y-102372319D02*
X92511785Y-101372319D01*
X92511785Y-101372319D02*
X92416547Y-101515176D01*
X92416547Y-101515176D02*
X92321309Y-101610414D01*
X92321309Y-101610414D02*
X92226071Y-101658033D01*
X93987976Y-102372319D02*
X93987976Y-101705652D01*
X93987976Y-101372319D02*
X93940357Y-101419938D01*
X93940357Y-101419938D02*
X93987976Y-101467557D01*
X93987976Y-101467557D02*
X94035595Y-101419938D01*
X94035595Y-101419938D02*
X93987976Y-101372319D01*
X93987976Y-101372319D02*
X93987976Y-101467557D01*
X94416547Y-102324700D02*
X94511785Y-102372319D01*
X94511785Y-102372319D02*
X94702261Y-102372319D01*
X94702261Y-102372319D02*
X94797499Y-102324700D01*
X94797499Y-102324700D02*
X94845118Y-102229461D01*
X94845118Y-102229461D02*
X94845118Y-102181842D01*
X94845118Y-102181842D02*
X94797499Y-102086604D01*
X94797499Y-102086604D02*
X94702261Y-102038985D01*
X94702261Y-102038985D02*
X94559404Y-102038985D01*
X94559404Y-102038985D02*
X94464166Y-101991366D01*
X94464166Y-101991366D02*
X94416547Y-101896128D01*
X94416547Y-101896128D02*
X94416547Y-101848509D01*
X94416547Y-101848509D02*
X94464166Y-101753271D01*
X94464166Y-101753271D02*
X94559404Y-101705652D01*
X94559404Y-101705652D02*
X94702261Y-101705652D01*
X94702261Y-101705652D02*
X94797499Y-101753271D01*
X95987976Y-102086604D02*
X96464166Y-102086604D01*
X95892738Y-102372319D02*
X96226071Y-101372319D01*
X96226071Y-101372319D02*
X96559404Y-102372319D01*
X97321309Y-102324700D02*
X97226071Y-102372319D01*
X97226071Y-102372319D02*
X97035595Y-102372319D01*
X97035595Y-102372319D02*
X96940357Y-102324700D01*
X96940357Y-102324700D02*
X96892738Y-102277080D01*
X96892738Y-102277080D02*
X96845119Y-102181842D01*
X96845119Y-102181842D02*
X96845119Y-101896128D01*
X96845119Y-101896128D02*
X96892738Y-101800890D01*
X96892738Y-101800890D02*
X96940357Y-101753271D01*
X96940357Y-101753271D02*
X97035595Y-101705652D01*
X97035595Y-101705652D02*
X97226071Y-101705652D01*
X97226071Y-101705652D02*
X97321309Y-101753271D01*
X97607024Y-101705652D02*
X97987976Y-101705652D01*
X97749881Y-101372319D02*
X97749881Y-102229461D01*
X97749881Y-102229461D02*
X97797500Y-102324700D01*
X97797500Y-102324700D02*
X97892738Y-102372319D01*
X97892738Y-102372319D02*
X97987976Y-102372319D01*
X98321310Y-102372319D02*
X98321310Y-101705652D01*
X98321310Y-101372319D02*
X98273691Y-101419938D01*
X98273691Y-101419938D02*
X98321310Y-101467557D01*
X98321310Y-101467557D02*
X98368929Y-101419938D01*
X98368929Y-101419938D02*
X98321310Y-101372319D01*
X98321310Y-101372319D02*
X98321310Y-101467557D01*
X98702262Y-101705652D02*
X98940357Y-102372319D01*
X98940357Y-102372319D02*
X99178452Y-101705652D01*
X99940357Y-102324700D02*
X99845119Y-102372319D01*
X99845119Y-102372319D02*
X99654643Y-102372319D01*
X99654643Y-102372319D02*
X99559405Y-102324700D01*
X99559405Y-102324700D02*
X99511786Y-102229461D01*
X99511786Y-102229461D02*
X99511786Y-101848509D01*
X99511786Y-101848509D02*
X99559405Y-101753271D01*
X99559405Y-101753271D02*
X99654643Y-101705652D01*
X99654643Y-101705652D02*
X99845119Y-101705652D01*
X99845119Y-101705652D02*
X99940357Y-101753271D01*
X99940357Y-101753271D02*
X99987976Y-101848509D01*
X99987976Y-101848509D02*
X99987976Y-101943747D01*
X99987976Y-101943747D02*
X99511786Y-102038985D01*
X14059819Y-31559523D02*
X14059819Y-31749999D01*
X14059819Y-31749999D02*
X14107438Y-31845237D01*
X14107438Y-31845237D02*
X14155057Y-31892856D01*
X14155057Y-31892856D02*
X14297914Y-31988094D01*
X14297914Y-31988094D02*
X14488390Y-32035713D01*
X14488390Y-32035713D02*
X14869342Y-32035713D01*
X14869342Y-32035713D02*
X14964580Y-31988094D01*
X14964580Y-31988094D02*
X15012200Y-31940475D01*
X15012200Y-31940475D02*
X15059819Y-31845237D01*
X15059819Y-31845237D02*
X15059819Y-31654761D01*
X15059819Y-31654761D02*
X15012200Y-31559523D01*
X15012200Y-31559523D02*
X14964580Y-31511904D01*
X14964580Y-31511904D02*
X14869342Y-31464285D01*
X14869342Y-31464285D02*
X14631247Y-31464285D01*
X14631247Y-31464285D02*
X14536009Y-31511904D01*
X14536009Y-31511904D02*
X14488390Y-31559523D01*
X14488390Y-31559523D02*
X14440771Y-31654761D01*
X14440771Y-31654761D02*
X14440771Y-31845237D01*
X14440771Y-31845237D02*
X14488390Y-31940475D01*
X14488390Y-31940475D02*
X14536009Y-31988094D01*
X14536009Y-31988094D02*
X14631247Y-32035713D01*
X138519819Y-31559523D02*
X138519819Y-31749999D01*
X138519819Y-31749999D02*
X138567438Y-31845237D01*
X138567438Y-31845237D02*
X138615057Y-31892856D01*
X138615057Y-31892856D02*
X138757914Y-31988094D01*
X138757914Y-31988094D02*
X138948390Y-32035713D01*
X138948390Y-32035713D02*
X139329342Y-32035713D01*
X139329342Y-32035713D02*
X139424580Y-31988094D01*
X139424580Y-31988094D02*
X139472200Y-31940475D01*
X139472200Y-31940475D02*
X139519819Y-31845237D01*
X139519819Y-31845237D02*
X139519819Y-31654761D01*
X139519819Y-31654761D02*
X139472200Y-31559523D01*
X139472200Y-31559523D02*
X139424580Y-31511904D01*
X139424580Y-31511904D02*
X139329342Y-31464285D01*
X139329342Y-31464285D02*
X139091247Y-31464285D01*
X139091247Y-31464285D02*
X138996009Y-31511904D01*
X138996009Y-31511904D02*
X138948390Y-31559523D01*
X138948390Y-31559523D02*
X138900771Y-31654761D01*
X138900771Y-31654761D02*
X138900771Y-31845237D01*
X138900771Y-31845237D02*
X138948390Y-31940475D01*
X138948390Y-31940475D02*
X138996009Y-31988094D01*
X138996009Y-31988094D02*
X139091247Y-32035713D01*
X138519819Y-47323332D02*
X138519819Y-46704285D01*
X138519819Y-46704285D02*
X138900771Y-47037618D01*
X138900771Y-47037618D02*
X138900771Y-46894761D01*
X138900771Y-46894761D02*
X138948390Y-46799523D01*
X138948390Y-46799523D02*
X138996009Y-46751904D01*
X138996009Y-46751904D02*
X139091247Y-46704285D01*
X139091247Y-46704285D02*
X139329342Y-46704285D01*
X139329342Y-46704285D02*
X139424580Y-46751904D01*
X139424580Y-46751904D02*
X139472200Y-46799523D01*
X139472200Y-46799523D02*
X139519819Y-46894761D01*
X139519819Y-46894761D02*
X139519819Y-47180475D01*
X139519819Y-47180475D02*
X139472200Y-47275713D01*
X139472200Y-47275713D02*
X139424580Y-47323332D01*
X139519819Y-56864285D02*
X139519819Y-57435713D01*
X139519819Y-57149999D02*
X138519819Y-57149999D01*
X138519819Y-57149999D02*
X138662676Y-57245237D01*
X138662676Y-57245237D02*
X138757914Y-57340475D01*
X138757914Y-57340475D02*
X138805533Y-57435713D01*
X138853152Y-41719523D02*
X139519819Y-41719523D01*
X138472200Y-41957618D02*
X139186485Y-42195713D01*
X139186485Y-42195713D02*
X139186485Y-41576666D01*
X138615057Y-52355713D02*
X138567438Y-52308094D01*
X138567438Y-52308094D02*
X138519819Y-52212856D01*
X138519819Y-52212856D02*
X138519819Y-51974761D01*
X138519819Y-51974761D02*
X138567438Y-51879523D01*
X138567438Y-51879523D02*
X138615057Y-51831904D01*
X138615057Y-51831904D02*
X138710295Y-51784285D01*
X138710295Y-51784285D02*
X138805533Y-51784285D01*
X138805533Y-51784285D02*
X138948390Y-51831904D01*
X138948390Y-51831904D02*
X139519819Y-52403332D01*
X139519819Y-52403332D02*
X139519819Y-51784285D01*
X138519819Y-36591904D02*
X138519819Y-37068094D01*
X138519819Y-37068094D02*
X138996009Y-37115713D01*
X138996009Y-37115713D02*
X138948390Y-37068094D01*
X138948390Y-37068094D02*
X138900771Y-36972856D01*
X138900771Y-36972856D02*
X138900771Y-36734761D01*
X138900771Y-36734761D02*
X138948390Y-36639523D01*
X138948390Y-36639523D02*
X138996009Y-36591904D01*
X138996009Y-36591904D02*
X139091247Y-36544285D01*
X139091247Y-36544285D02*
X139329342Y-36544285D01*
X139329342Y-36544285D02*
X139424580Y-36591904D01*
X139424580Y-36591904D02*
X139472200Y-36639523D01*
X139472200Y-36639523D02*
X139519819Y-36734761D01*
X139519819Y-36734761D02*
X139519819Y-36972856D01*
X139519819Y-36972856D02*
X139472200Y-37068094D01*
X139472200Y-37068094D02*
X139424580Y-37115713D01*
X21409819Y-75406189D02*
X20409819Y-75406189D01*
X21409819Y-74406190D02*
X21409819Y-74977618D01*
X21409819Y-74691904D02*
X20409819Y-74691904D01*
X20409819Y-74691904D02*
X20552676Y-74787142D01*
X20552676Y-74787142D02*
X20647914Y-74882380D01*
X20647914Y-74882380D02*
X20695533Y-74977618D01*
X67399819Y-27003332D02*
X67399819Y-26336666D01*
X67399819Y-26336666D02*
X68399819Y-26765237D01*
X102959819Y-31559523D02*
X102959819Y-31749999D01*
X102959819Y-31749999D02*
X103007438Y-31845237D01*
X103007438Y-31845237D02*
X103055057Y-31892856D01*
X103055057Y-31892856D02*
X103197914Y-31988094D01*
X103197914Y-31988094D02*
X103388390Y-32035713D01*
X103388390Y-32035713D02*
X103769342Y-32035713D01*
X103769342Y-32035713D02*
X103864580Y-31988094D01*
X103864580Y-31988094D02*
X103912200Y-31940475D01*
X103912200Y-31940475D02*
X103959819Y-31845237D01*
X103959819Y-31845237D02*
X103959819Y-31654761D01*
X103959819Y-31654761D02*
X103912200Y-31559523D01*
X103912200Y-31559523D02*
X103864580Y-31511904D01*
X103864580Y-31511904D02*
X103769342Y-31464285D01*
X103769342Y-31464285D02*
X103531247Y-31464285D01*
X103531247Y-31464285D02*
X103436009Y-31511904D01*
X103436009Y-31511904D02*
X103388390Y-31559523D01*
X103388390Y-31559523D02*
X103340771Y-31654761D01*
X103340771Y-31654761D02*
X103340771Y-31845237D01*
X103340771Y-31845237D02*
X103388390Y-31940475D01*
X103388390Y-31940475D02*
X103436009Y-31988094D01*
X103436009Y-31988094D02*
X103531247Y-32035713D01*
X21409819Y-67833809D02*
X20933628Y-68167142D01*
X21409819Y-68405237D02*
X20409819Y-68405237D01*
X20409819Y-68405237D02*
X20409819Y-68024285D01*
X20409819Y-68024285D02*
X20457438Y-67929047D01*
X20457438Y-67929047D02*
X20505057Y-67881428D01*
X20505057Y-67881428D02*
X20600295Y-67833809D01*
X20600295Y-67833809D02*
X20743152Y-67833809D01*
X20743152Y-67833809D02*
X20838390Y-67881428D01*
X20838390Y-67881428D02*
X20886009Y-67929047D01*
X20886009Y-67929047D02*
X20933628Y-68024285D01*
X20933628Y-68024285D02*
X20933628Y-68405237D01*
X21362200Y-67024285D02*
X21409819Y-67119523D01*
X21409819Y-67119523D02*
X21409819Y-67309999D01*
X21409819Y-67309999D02*
X21362200Y-67405237D01*
X21362200Y-67405237D02*
X21266961Y-67452856D01*
X21266961Y-67452856D02*
X20886009Y-67452856D01*
X20886009Y-67452856D02*
X20790771Y-67405237D01*
X20790771Y-67405237D02*
X20743152Y-67309999D01*
X20743152Y-67309999D02*
X20743152Y-67119523D01*
X20743152Y-67119523D02*
X20790771Y-67024285D01*
X20790771Y-67024285D02*
X20886009Y-66976666D01*
X20886009Y-66976666D02*
X20981247Y-66976666D01*
X20981247Y-66976666D02*
X21076485Y-67452856D01*
X21362200Y-66595713D02*
X21409819Y-66500475D01*
X21409819Y-66500475D02*
X21409819Y-66309999D01*
X21409819Y-66309999D02*
X21362200Y-66214761D01*
X21362200Y-66214761D02*
X21266961Y-66167142D01*
X21266961Y-66167142D02*
X21219342Y-66167142D01*
X21219342Y-66167142D02*
X21124104Y-66214761D01*
X21124104Y-66214761D02*
X21076485Y-66309999D01*
X21076485Y-66309999D02*
X21076485Y-66452856D01*
X21076485Y-66452856D02*
X21028866Y-66548094D01*
X21028866Y-66548094D02*
X20933628Y-66595713D01*
X20933628Y-66595713D02*
X20886009Y-66595713D01*
X20886009Y-66595713D02*
X20790771Y-66548094D01*
X20790771Y-66548094D02*
X20743152Y-66452856D01*
X20743152Y-66452856D02*
X20743152Y-66309999D01*
X20743152Y-66309999D02*
X20790771Y-66214761D01*
X20132200Y-68543333D02*
X20132200Y-66076666D01*
X103293152Y-41719523D02*
X103959819Y-41719523D01*
X102912200Y-41957618D02*
X103626485Y-42195713D01*
X103626485Y-42195713D02*
X103626485Y-41576666D01*
X85179819Y-47323332D02*
X85179819Y-46704285D01*
X85179819Y-46704285D02*
X85560771Y-47037618D01*
X85560771Y-47037618D02*
X85560771Y-46894761D01*
X85560771Y-46894761D02*
X85608390Y-46799523D01*
X85608390Y-46799523D02*
X85656009Y-46751904D01*
X85656009Y-46751904D02*
X85751247Y-46704285D01*
X85751247Y-46704285D02*
X85989342Y-46704285D01*
X85989342Y-46704285D02*
X86084580Y-46751904D01*
X86084580Y-46751904D02*
X86132200Y-46799523D01*
X86132200Y-46799523D02*
X86179819Y-46894761D01*
X86179819Y-46894761D02*
X86179819Y-47180475D01*
X86179819Y-47180475D02*
X86132200Y-47275713D01*
X86132200Y-47275713D02*
X86084580Y-47323332D01*
X28559286Y-106753866D02*
X29321191Y-106753866D01*
X28940238Y-107134819D02*
X28940238Y-106372914D01*
X30273571Y-106134819D02*
X29797381Y-106134819D01*
X29797381Y-106134819D02*
X29749762Y-106611009D01*
X29749762Y-106611009D02*
X29797381Y-106563390D01*
X29797381Y-106563390D02*
X29892619Y-106515771D01*
X29892619Y-106515771D02*
X30130714Y-106515771D01*
X30130714Y-106515771D02*
X30225952Y-106563390D01*
X30225952Y-106563390D02*
X30273571Y-106611009D01*
X30273571Y-106611009D02*
X30321190Y-106706247D01*
X30321190Y-106706247D02*
X30321190Y-106944342D01*
X30321190Y-106944342D02*
X30273571Y-107039580D01*
X30273571Y-107039580D02*
X30225952Y-107087200D01*
X30225952Y-107087200D02*
X30130714Y-107134819D01*
X30130714Y-107134819D02*
X29892619Y-107134819D01*
X29892619Y-107134819D02*
X29797381Y-107087200D01*
X29797381Y-107087200D02*
X29749762Y-107039580D01*
X30606905Y-106134819D02*
X30940238Y-107134819D01*
X30940238Y-107134819D02*
X31273571Y-106134819D01*
X121073152Y-41719523D02*
X121739819Y-41719523D01*
X120692200Y-41957618D02*
X121406485Y-42195713D01*
X121406485Y-42195713D02*
X121406485Y-41576666D01*
X20409819Y-45021428D02*
X20409819Y-44830952D01*
X20409819Y-44830952D02*
X20457438Y-44735714D01*
X20457438Y-44735714D02*
X20552676Y-44640476D01*
X20552676Y-44640476D02*
X20743152Y-44592857D01*
X20743152Y-44592857D02*
X21076485Y-44592857D01*
X21076485Y-44592857D02*
X21266961Y-44640476D01*
X21266961Y-44640476D02*
X21362200Y-44735714D01*
X21362200Y-44735714D02*
X21409819Y-44830952D01*
X21409819Y-44830952D02*
X21409819Y-45021428D01*
X21409819Y-45021428D02*
X21362200Y-45116666D01*
X21362200Y-45116666D02*
X21266961Y-45211904D01*
X21266961Y-45211904D02*
X21076485Y-45259523D01*
X21076485Y-45259523D02*
X20743152Y-45259523D01*
X20743152Y-45259523D02*
X20552676Y-45211904D01*
X20552676Y-45211904D02*
X20457438Y-45116666D01*
X20457438Y-45116666D02*
X20409819Y-45021428D01*
X20743152Y-43735714D02*
X21409819Y-43735714D01*
X20362200Y-43973809D02*
X21076485Y-44211904D01*
X21076485Y-44211904D02*
X21076485Y-43592857D01*
D11*
X135529638Y-18113333D02*
X134577257Y-18780000D01*
X135529638Y-19256190D02*
X133529638Y-19256190D01*
X133529638Y-19256190D02*
X133529638Y-18494285D01*
X133529638Y-18494285D02*
X133624876Y-18303809D01*
X133624876Y-18303809D02*
X133720114Y-18208571D01*
X133720114Y-18208571D02*
X133910590Y-18113333D01*
X133910590Y-18113333D02*
X134196304Y-18113333D01*
X134196304Y-18113333D02*
X134386780Y-18208571D01*
X134386780Y-18208571D02*
X134482019Y-18303809D01*
X134482019Y-18303809D02*
X134577257Y-18494285D01*
X134577257Y-18494285D02*
X134577257Y-19256190D01*
X135529638Y-16208571D02*
X135529638Y-17351428D01*
X135529638Y-16780000D02*
X133529638Y-16780000D01*
X133529638Y-16780000D02*
X133815352Y-16970476D01*
X133815352Y-16970476D02*
X134005828Y-17160952D01*
X134005828Y-17160952D02*
X134101066Y-17351428D01*
D13*
X103055057Y-52355713D02*
X103007438Y-52308094D01*
X103007438Y-52308094D02*
X102959819Y-52212856D01*
X102959819Y-52212856D02*
X102959819Y-51974761D01*
X102959819Y-51974761D02*
X103007438Y-51879523D01*
X103007438Y-51879523D02*
X103055057Y-51831904D01*
X103055057Y-51831904D02*
X103150295Y-51784285D01*
X103150295Y-51784285D02*
X103245533Y-51784285D01*
X103245533Y-51784285D02*
X103388390Y-51831904D01*
X103388390Y-51831904D02*
X103959819Y-52403332D01*
X103959819Y-52403332D02*
X103959819Y-51784285D01*
X14059819Y-27003332D02*
X14059819Y-26336666D01*
X14059819Y-26336666D02*
X15059819Y-26765237D01*
X31935057Y-52355713D02*
X31887438Y-52308094D01*
X31887438Y-52308094D02*
X31839819Y-52212856D01*
X31839819Y-52212856D02*
X31839819Y-51974761D01*
X31839819Y-51974761D02*
X31887438Y-51879523D01*
X31887438Y-51879523D02*
X31935057Y-51831904D01*
X31935057Y-51831904D02*
X32030295Y-51784285D01*
X32030295Y-51784285D02*
X32125533Y-51784285D01*
X32125533Y-51784285D02*
X32268390Y-51831904D01*
X32268390Y-51831904D02*
X32839819Y-52403332D01*
X32839819Y-52403332D02*
X32839819Y-51784285D01*
X49619819Y-47323332D02*
X49619819Y-46704285D01*
X49619819Y-46704285D02*
X50000771Y-47037618D01*
X50000771Y-47037618D02*
X50000771Y-46894761D01*
X50000771Y-46894761D02*
X50048390Y-46799523D01*
X50048390Y-46799523D02*
X50096009Y-46751904D01*
X50096009Y-46751904D02*
X50191247Y-46704285D01*
X50191247Y-46704285D02*
X50429342Y-46704285D01*
X50429342Y-46704285D02*
X50524580Y-46751904D01*
X50524580Y-46751904D02*
X50572200Y-46799523D01*
X50572200Y-46799523D02*
X50619819Y-46894761D01*
X50619819Y-46894761D02*
X50619819Y-47180475D01*
X50619819Y-47180475D02*
X50572200Y-47275713D01*
X50572200Y-47275713D02*
X50524580Y-47323332D01*
X49953152Y-41719523D02*
X50619819Y-41719523D01*
X49572200Y-41957618D02*
X50286485Y-42195713D01*
X50286485Y-42195713D02*
X50286485Y-41576666D01*
X20409819Y-60245475D02*
X21409819Y-59912142D01*
X21409819Y-59912142D02*
X20409819Y-59578809D01*
X21362200Y-58816904D02*
X21409819Y-58912142D01*
X21409819Y-58912142D02*
X21409819Y-59102618D01*
X21409819Y-59102618D02*
X21362200Y-59197856D01*
X21362200Y-59197856D02*
X21314580Y-59245475D01*
X21314580Y-59245475D02*
X21219342Y-59293094D01*
X21219342Y-59293094D02*
X20933628Y-59293094D01*
X20933628Y-59293094D02*
X20838390Y-59245475D01*
X20838390Y-59245475D02*
X20790771Y-59197856D01*
X20790771Y-59197856D02*
X20743152Y-59102618D01*
X20743152Y-59102618D02*
X20743152Y-58912142D01*
X20743152Y-58912142D02*
X20790771Y-58816904D01*
X21362200Y-57959761D02*
X21409819Y-58054999D01*
X21409819Y-58054999D02*
X21409819Y-58245475D01*
X21409819Y-58245475D02*
X21362200Y-58340713D01*
X21362200Y-58340713D02*
X21314580Y-58388332D01*
X21314580Y-58388332D02*
X21219342Y-58435951D01*
X21219342Y-58435951D02*
X20933628Y-58435951D01*
X20933628Y-58435951D02*
X20838390Y-58388332D01*
X20838390Y-58388332D02*
X20790771Y-58340713D01*
X20790771Y-58340713D02*
X20743152Y-58245475D01*
X20743152Y-58245475D02*
X20743152Y-58054999D01*
X20743152Y-58054999D02*
X20790771Y-57959761D01*
X21409819Y-85566189D02*
X20409819Y-85566189D01*
X20409819Y-84613809D02*
X20409819Y-85089999D01*
X20409819Y-85089999D02*
X20886009Y-85137618D01*
X20886009Y-85137618D02*
X20838390Y-85089999D01*
X20838390Y-85089999D02*
X20790771Y-84994761D01*
X20790771Y-84994761D02*
X20790771Y-84756666D01*
X20790771Y-84756666D02*
X20838390Y-84661428D01*
X20838390Y-84661428D02*
X20886009Y-84613809D01*
X20886009Y-84613809D02*
X20981247Y-84566190D01*
X20981247Y-84566190D02*
X21219342Y-84566190D01*
X21219342Y-84566190D02*
X21314580Y-84613809D01*
X21314580Y-84613809D02*
X21362200Y-84661428D01*
X21362200Y-84661428D02*
X21409819Y-84756666D01*
X21409819Y-84756666D02*
X21409819Y-84994761D01*
X21409819Y-84994761D02*
X21362200Y-85089999D01*
X21362200Y-85089999D02*
X21314580Y-85137618D01*
D11*
X46629638Y-18113333D02*
X45677257Y-18780000D01*
X46629638Y-19256190D02*
X44629638Y-19256190D01*
X44629638Y-19256190D02*
X44629638Y-18494285D01*
X44629638Y-18494285D02*
X44724876Y-18303809D01*
X44724876Y-18303809D02*
X44820114Y-18208571D01*
X44820114Y-18208571D02*
X45010590Y-18113333D01*
X45010590Y-18113333D02*
X45296304Y-18113333D01*
X45296304Y-18113333D02*
X45486780Y-18208571D01*
X45486780Y-18208571D02*
X45582019Y-18303809D01*
X45582019Y-18303809D02*
X45677257Y-18494285D01*
X45677257Y-18494285D02*
X45677257Y-19256190D01*
X44629638Y-16399047D02*
X44629638Y-16780000D01*
X44629638Y-16780000D02*
X44724876Y-16970476D01*
X44724876Y-16970476D02*
X44820114Y-17065714D01*
X44820114Y-17065714D02*
X45105828Y-17256190D01*
X45105828Y-17256190D02*
X45486780Y-17351428D01*
X45486780Y-17351428D02*
X46248685Y-17351428D01*
X46248685Y-17351428D02*
X46439161Y-17256190D01*
X46439161Y-17256190D02*
X46534400Y-17160952D01*
X46534400Y-17160952D02*
X46629638Y-16970476D01*
X46629638Y-16970476D02*
X46629638Y-16589523D01*
X46629638Y-16589523D02*
X46534400Y-16399047D01*
X46534400Y-16399047D02*
X46439161Y-16303809D01*
X46439161Y-16303809D02*
X46248685Y-16208571D01*
X46248685Y-16208571D02*
X45772495Y-16208571D01*
X45772495Y-16208571D02*
X45582019Y-16303809D01*
X45582019Y-16303809D02*
X45486780Y-16399047D01*
X45486780Y-16399047D02*
X45391542Y-16589523D01*
X45391542Y-16589523D02*
X45391542Y-16970476D01*
X45391542Y-16970476D02*
X45486780Y-17160952D01*
X45486780Y-17160952D02*
X45582019Y-17256190D01*
X45582019Y-17256190D02*
X45772495Y-17351428D01*
D13*
X31839819Y-62277618D02*
X31839819Y-62182380D01*
X31839819Y-62182380D02*
X31887438Y-62087142D01*
X31887438Y-62087142D02*
X31935057Y-62039523D01*
X31935057Y-62039523D02*
X32030295Y-61991904D01*
X32030295Y-61991904D02*
X32220771Y-61944285D01*
X32220771Y-61944285D02*
X32458866Y-61944285D01*
X32458866Y-61944285D02*
X32649342Y-61991904D01*
X32649342Y-61991904D02*
X32744580Y-62039523D01*
X32744580Y-62039523D02*
X32792200Y-62087142D01*
X32792200Y-62087142D02*
X32839819Y-62182380D01*
X32839819Y-62182380D02*
X32839819Y-62277618D01*
X32839819Y-62277618D02*
X32792200Y-62372856D01*
X32792200Y-62372856D02*
X32744580Y-62420475D01*
X32744580Y-62420475D02*
X32649342Y-62468094D01*
X32649342Y-62468094D02*
X32458866Y-62515713D01*
X32458866Y-62515713D02*
X32220771Y-62515713D01*
X32220771Y-62515713D02*
X32030295Y-62468094D01*
X32030295Y-62468094D02*
X31935057Y-62420475D01*
X31935057Y-62420475D02*
X31887438Y-62372856D01*
X31887438Y-62372856D02*
X31839819Y-62277618D01*
X68399819Y-56864285D02*
X68399819Y-57435713D01*
X68399819Y-57149999D02*
X67399819Y-57149999D01*
X67399819Y-57149999D02*
X67542676Y-57245237D01*
X67542676Y-57245237D02*
X67637914Y-57340475D01*
X67637914Y-57340475D02*
X67685533Y-57435713D01*
X67399819Y-47323332D02*
X67399819Y-46704285D01*
X67399819Y-46704285D02*
X67780771Y-47037618D01*
X67780771Y-47037618D02*
X67780771Y-46894761D01*
X67780771Y-46894761D02*
X67828390Y-46799523D01*
X67828390Y-46799523D02*
X67876009Y-46751904D01*
X67876009Y-46751904D02*
X67971247Y-46704285D01*
X67971247Y-46704285D02*
X68209342Y-46704285D01*
X68209342Y-46704285D02*
X68304580Y-46751904D01*
X68304580Y-46751904D02*
X68352200Y-46799523D01*
X68352200Y-46799523D02*
X68399819Y-46894761D01*
X68399819Y-46894761D02*
X68399819Y-47180475D01*
X68399819Y-47180475D02*
X68352200Y-47275713D01*
X68352200Y-47275713D02*
X68304580Y-47323332D01*
X21314580Y-27074762D02*
X21362200Y-27122381D01*
X21362200Y-27122381D02*
X21409819Y-27265238D01*
X21409819Y-27265238D02*
X21409819Y-27360476D01*
X21409819Y-27360476D02*
X21362200Y-27503333D01*
X21362200Y-27503333D02*
X21266961Y-27598571D01*
X21266961Y-27598571D02*
X21171723Y-27646190D01*
X21171723Y-27646190D02*
X20981247Y-27693809D01*
X20981247Y-27693809D02*
X20838390Y-27693809D01*
X20838390Y-27693809D02*
X20647914Y-27646190D01*
X20647914Y-27646190D02*
X20552676Y-27598571D01*
X20552676Y-27598571D02*
X20457438Y-27503333D01*
X20457438Y-27503333D02*
X20409819Y-27360476D01*
X20409819Y-27360476D02*
X20409819Y-27265238D01*
X20409819Y-27265238D02*
X20457438Y-27122381D01*
X20457438Y-27122381D02*
X20505057Y-27074762D01*
X21409819Y-26503333D02*
X21362200Y-26598571D01*
X21362200Y-26598571D02*
X21314580Y-26646190D01*
X21314580Y-26646190D02*
X21219342Y-26693809D01*
X21219342Y-26693809D02*
X20933628Y-26693809D01*
X20933628Y-26693809D02*
X20838390Y-26646190D01*
X20838390Y-26646190D02*
X20790771Y-26598571D01*
X20790771Y-26598571D02*
X20743152Y-26503333D01*
X20743152Y-26503333D02*
X20743152Y-26360476D01*
X20743152Y-26360476D02*
X20790771Y-26265238D01*
X20790771Y-26265238D02*
X20838390Y-26217619D01*
X20838390Y-26217619D02*
X20933628Y-26170000D01*
X20933628Y-26170000D02*
X21219342Y-26170000D01*
X21219342Y-26170000D02*
X21314580Y-26217619D01*
X21314580Y-26217619D02*
X21362200Y-26265238D01*
X21362200Y-26265238D02*
X21409819Y-26360476D01*
X21409819Y-26360476D02*
X21409819Y-26503333D01*
X21409819Y-25598571D02*
X21362200Y-25693809D01*
X21362200Y-25693809D02*
X21266961Y-25741428D01*
X21266961Y-25741428D02*
X20409819Y-25741428D01*
X20132200Y-27784286D02*
X20132200Y-25555714D01*
X102959819Y-47323332D02*
X102959819Y-46704285D01*
X102959819Y-46704285D02*
X103340771Y-47037618D01*
X103340771Y-47037618D02*
X103340771Y-46894761D01*
X103340771Y-46894761D02*
X103388390Y-46799523D01*
X103388390Y-46799523D02*
X103436009Y-46751904D01*
X103436009Y-46751904D02*
X103531247Y-46704285D01*
X103531247Y-46704285D02*
X103769342Y-46704285D01*
X103769342Y-46704285D02*
X103864580Y-46751904D01*
X103864580Y-46751904D02*
X103912200Y-46799523D01*
X103912200Y-46799523D02*
X103959819Y-46894761D01*
X103959819Y-46894761D02*
X103959819Y-47180475D01*
X103959819Y-47180475D02*
X103912200Y-47275713D01*
X103912200Y-47275713D02*
X103864580Y-47323332D01*
D11*
X35199638Y-23193333D02*
X34247257Y-23860000D01*
X35199638Y-24336190D02*
X33199638Y-24336190D01*
X33199638Y-24336190D02*
X33199638Y-23574285D01*
X33199638Y-23574285D02*
X33294876Y-23383809D01*
X33294876Y-23383809D02*
X33390114Y-23288571D01*
X33390114Y-23288571D02*
X33580590Y-23193333D01*
X33580590Y-23193333D02*
X33866304Y-23193333D01*
X33866304Y-23193333D02*
X34056780Y-23288571D01*
X34056780Y-23288571D02*
X34152019Y-23383809D01*
X34152019Y-23383809D02*
X34247257Y-23574285D01*
X34247257Y-23574285D02*
X34247257Y-24336190D01*
X33199638Y-21479047D02*
X33199638Y-21860000D01*
X33199638Y-21860000D02*
X33294876Y-22050476D01*
X33294876Y-22050476D02*
X33390114Y-22145714D01*
X33390114Y-22145714D02*
X33675828Y-22336190D01*
X33675828Y-22336190D02*
X34056780Y-22431428D01*
X34056780Y-22431428D02*
X34818685Y-22431428D01*
X34818685Y-22431428D02*
X35009161Y-22336190D01*
X35009161Y-22336190D02*
X35104400Y-22240952D01*
X35104400Y-22240952D02*
X35199638Y-22050476D01*
X35199638Y-22050476D02*
X35199638Y-21669523D01*
X35199638Y-21669523D02*
X35104400Y-21479047D01*
X35104400Y-21479047D02*
X35009161Y-21383809D01*
X35009161Y-21383809D02*
X34818685Y-21288571D01*
X34818685Y-21288571D02*
X34342495Y-21288571D01*
X34342495Y-21288571D02*
X34152019Y-21383809D01*
X34152019Y-21383809D02*
X34056780Y-21479047D01*
X34056780Y-21479047D02*
X33961542Y-21669523D01*
X33961542Y-21669523D02*
X33961542Y-22050476D01*
X33961542Y-22050476D02*
X34056780Y-22240952D01*
X34056780Y-22240952D02*
X34152019Y-22336190D01*
X34152019Y-22336190D02*
X34342495Y-22431428D01*
D13*
X49619819Y-36591904D02*
X49619819Y-37068094D01*
X49619819Y-37068094D02*
X50096009Y-37115713D01*
X50096009Y-37115713D02*
X50048390Y-37068094D01*
X50048390Y-37068094D02*
X50000771Y-36972856D01*
X50000771Y-36972856D02*
X50000771Y-36734761D01*
X50000771Y-36734761D02*
X50048390Y-36639523D01*
X50048390Y-36639523D02*
X50096009Y-36591904D01*
X50096009Y-36591904D02*
X50191247Y-36544285D01*
X50191247Y-36544285D02*
X50429342Y-36544285D01*
X50429342Y-36544285D02*
X50524580Y-36591904D01*
X50524580Y-36591904D02*
X50572200Y-36639523D01*
X50572200Y-36639523D02*
X50619819Y-36734761D01*
X50619819Y-36734761D02*
X50619819Y-36972856D01*
X50619819Y-36972856D02*
X50572200Y-37068094D01*
X50572200Y-37068094D02*
X50524580Y-37115713D01*
X49619819Y-27003332D02*
X49619819Y-26336666D01*
X49619819Y-26336666D02*
X50619819Y-26765237D01*
X122666190Y-70939819D02*
X122332857Y-70463628D01*
X122094762Y-70939819D02*
X122094762Y-69939819D01*
X122094762Y-69939819D02*
X122475714Y-69939819D01*
X122475714Y-69939819D02*
X122570952Y-69987438D01*
X122570952Y-69987438D02*
X122618571Y-70035057D01*
X122618571Y-70035057D02*
X122666190Y-70130295D01*
X122666190Y-70130295D02*
X122666190Y-70273152D01*
X122666190Y-70273152D02*
X122618571Y-70368390D01*
X122618571Y-70368390D02*
X122570952Y-70416009D01*
X122570952Y-70416009D02*
X122475714Y-70463628D01*
X122475714Y-70463628D02*
X122094762Y-70463628D01*
X123475714Y-70892200D02*
X123380476Y-70939819D01*
X123380476Y-70939819D02*
X123190000Y-70939819D01*
X123190000Y-70939819D02*
X123094762Y-70892200D01*
X123094762Y-70892200D02*
X123047143Y-70796961D01*
X123047143Y-70796961D02*
X123047143Y-70416009D01*
X123047143Y-70416009D02*
X123094762Y-70320771D01*
X123094762Y-70320771D02*
X123190000Y-70273152D01*
X123190000Y-70273152D02*
X123380476Y-70273152D01*
X123380476Y-70273152D02*
X123475714Y-70320771D01*
X123475714Y-70320771D02*
X123523333Y-70416009D01*
X123523333Y-70416009D02*
X123523333Y-70511247D01*
X123523333Y-70511247D02*
X123047143Y-70606485D01*
X123904286Y-70892200D02*
X123999524Y-70939819D01*
X123999524Y-70939819D02*
X124190000Y-70939819D01*
X124190000Y-70939819D02*
X124285238Y-70892200D01*
X124285238Y-70892200D02*
X124332857Y-70796961D01*
X124332857Y-70796961D02*
X124332857Y-70749342D01*
X124332857Y-70749342D02*
X124285238Y-70654104D01*
X124285238Y-70654104D02*
X124190000Y-70606485D01*
X124190000Y-70606485D02*
X124047143Y-70606485D01*
X124047143Y-70606485D02*
X123951905Y-70558866D01*
X123951905Y-70558866D02*
X123904286Y-70463628D01*
X123904286Y-70463628D02*
X123904286Y-70416009D01*
X123904286Y-70416009D02*
X123951905Y-70320771D01*
X123951905Y-70320771D02*
X124047143Y-70273152D01*
X124047143Y-70273152D02*
X124190000Y-70273152D01*
X124190000Y-70273152D02*
X124285238Y-70320771D01*
X121956667Y-69662200D02*
X124423334Y-69662200D01*
X121739819Y-56864285D02*
X121739819Y-57435713D01*
X121739819Y-57149999D02*
X120739819Y-57149999D01*
X120739819Y-57149999D02*
X120882676Y-57245237D01*
X120882676Y-57245237D02*
X120977914Y-57340475D01*
X120977914Y-57340475D02*
X121025533Y-57435713D01*
X67495057Y-52355713D02*
X67447438Y-52308094D01*
X67447438Y-52308094D02*
X67399819Y-52212856D01*
X67399819Y-52212856D02*
X67399819Y-51974761D01*
X67399819Y-51974761D02*
X67447438Y-51879523D01*
X67447438Y-51879523D02*
X67495057Y-51831904D01*
X67495057Y-51831904D02*
X67590295Y-51784285D01*
X67590295Y-51784285D02*
X67685533Y-51784285D01*
X67685533Y-51784285D02*
X67828390Y-51831904D01*
X67828390Y-51831904D02*
X68399819Y-52403332D01*
X68399819Y-52403332D02*
X68399819Y-51784285D01*
X15059819Y-56864285D02*
X15059819Y-57435713D01*
X15059819Y-57149999D02*
X14059819Y-57149999D01*
X14059819Y-57149999D02*
X14202676Y-57245237D01*
X14202676Y-57245237D02*
X14297914Y-57340475D01*
X14297914Y-57340475D02*
X14345533Y-57435713D01*
X31839819Y-27003332D02*
X31839819Y-26336666D01*
X31839819Y-26336666D02*
X32839819Y-26765237D01*
X67399819Y-36591904D02*
X67399819Y-37068094D01*
X67399819Y-37068094D02*
X67876009Y-37115713D01*
X67876009Y-37115713D02*
X67828390Y-37068094D01*
X67828390Y-37068094D02*
X67780771Y-36972856D01*
X67780771Y-36972856D02*
X67780771Y-36734761D01*
X67780771Y-36734761D02*
X67828390Y-36639523D01*
X67828390Y-36639523D02*
X67876009Y-36591904D01*
X67876009Y-36591904D02*
X67971247Y-36544285D01*
X67971247Y-36544285D02*
X68209342Y-36544285D01*
X68209342Y-36544285D02*
X68304580Y-36591904D01*
X68304580Y-36591904D02*
X68352200Y-36639523D01*
X68352200Y-36639523D02*
X68399819Y-36734761D01*
X68399819Y-36734761D02*
X68399819Y-36972856D01*
X68399819Y-36972856D02*
X68352200Y-37068094D01*
X68352200Y-37068094D02*
X68304580Y-37115713D01*
X107910475Y-109674819D02*
X107434285Y-109674819D01*
X107434285Y-109674819D02*
X107434285Y-108674819D01*
X108672380Y-109674819D02*
X108672380Y-109151009D01*
X108672380Y-109151009D02*
X108624761Y-109055771D01*
X108624761Y-109055771D02*
X108529523Y-109008152D01*
X108529523Y-109008152D02*
X108339047Y-109008152D01*
X108339047Y-109008152D02*
X108243809Y-109055771D01*
X108672380Y-109627200D02*
X108577142Y-109674819D01*
X108577142Y-109674819D02*
X108339047Y-109674819D01*
X108339047Y-109674819D02*
X108243809Y-109627200D01*
X108243809Y-109627200D02*
X108196190Y-109531961D01*
X108196190Y-109531961D02*
X108196190Y-109436723D01*
X108196190Y-109436723D02*
X108243809Y-109341485D01*
X108243809Y-109341485D02*
X108339047Y-109293866D01*
X108339047Y-109293866D02*
X108577142Y-109293866D01*
X108577142Y-109293866D02*
X108672380Y-109246247D01*
X109005714Y-109008152D02*
X109386666Y-109008152D01*
X109148571Y-108674819D02*
X109148571Y-109531961D01*
X109148571Y-109531961D02*
X109196190Y-109627200D01*
X109196190Y-109627200D02*
X109291428Y-109674819D01*
X109291428Y-109674819D02*
X109386666Y-109674819D01*
X110148571Y-109627200D02*
X110053333Y-109674819D01*
X110053333Y-109674819D02*
X109862857Y-109674819D01*
X109862857Y-109674819D02*
X109767619Y-109627200D01*
X109767619Y-109627200D02*
X109720000Y-109579580D01*
X109720000Y-109579580D02*
X109672381Y-109484342D01*
X109672381Y-109484342D02*
X109672381Y-109198628D01*
X109672381Y-109198628D02*
X109720000Y-109103390D01*
X109720000Y-109103390D02*
X109767619Y-109055771D01*
X109767619Y-109055771D02*
X109862857Y-109008152D01*
X109862857Y-109008152D02*
X110053333Y-109008152D01*
X110053333Y-109008152D02*
X110148571Y-109055771D01*
X110577143Y-109674819D02*
X110577143Y-108674819D01*
X111005714Y-109674819D02*
X111005714Y-109151009D01*
X111005714Y-109151009D02*
X110958095Y-109055771D01*
X110958095Y-109055771D02*
X110862857Y-109008152D01*
X110862857Y-109008152D02*
X110720000Y-109008152D01*
X110720000Y-109008152D02*
X110624762Y-109055771D01*
X110624762Y-109055771D02*
X110577143Y-109103390D01*
X120739819Y-31559523D02*
X120739819Y-31749999D01*
X120739819Y-31749999D02*
X120787438Y-31845237D01*
X120787438Y-31845237D02*
X120835057Y-31892856D01*
X120835057Y-31892856D02*
X120977914Y-31988094D01*
X120977914Y-31988094D02*
X121168390Y-32035713D01*
X121168390Y-32035713D02*
X121549342Y-32035713D01*
X121549342Y-32035713D02*
X121644580Y-31988094D01*
X121644580Y-31988094D02*
X121692200Y-31940475D01*
X121692200Y-31940475D02*
X121739819Y-31845237D01*
X121739819Y-31845237D02*
X121739819Y-31654761D01*
X121739819Y-31654761D02*
X121692200Y-31559523D01*
X121692200Y-31559523D02*
X121644580Y-31511904D01*
X121644580Y-31511904D02*
X121549342Y-31464285D01*
X121549342Y-31464285D02*
X121311247Y-31464285D01*
X121311247Y-31464285D02*
X121216009Y-31511904D01*
X121216009Y-31511904D02*
X121168390Y-31559523D01*
X121168390Y-31559523D02*
X121120771Y-31654761D01*
X121120771Y-31654761D02*
X121120771Y-31845237D01*
X121120771Y-31845237D02*
X121168390Y-31940475D01*
X121168390Y-31940475D02*
X121216009Y-31988094D01*
X121216009Y-31988094D02*
X121311247Y-32035713D01*
X138519819Y-27003332D02*
X138519819Y-26336666D01*
X138519819Y-26336666D02*
X139519819Y-26765237D01*
X20409819Y-52641428D02*
X20409819Y-52450952D01*
X20409819Y-52450952D02*
X20457438Y-52355714D01*
X20457438Y-52355714D02*
X20552676Y-52260476D01*
X20552676Y-52260476D02*
X20743152Y-52212857D01*
X20743152Y-52212857D02*
X21076485Y-52212857D01*
X21076485Y-52212857D02*
X21266961Y-52260476D01*
X21266961Y-52260476D02*
X21362200Y-52355714D01*
X21362200Y-52355714D02*
X21409819Y-52450952D01*
X21409819Y-52450952D02*
X21409819Y-52641428D01*
X21409819Y-52641428D02*
X21362200Y-52736666D01*
X21362200Y-52736666D02*
X21266961Y-52831904D01*
X21266961Y-52831904D02*
X21076485Y-52879523D01*
X21076485Y-52879523D02*
X20743152Y-52879523D01*
X20743152Y-52879523D02*
X20552676Y-52831904D01*
X20552676Y-52831904D02*
X20457438Y-52736666D01*
X20457438Y-52736666D02*
X20409819Y-52641428D01*
X21409819Y-51260476D02*
X21409819Y-51831904D01*
X21409819Y-51546190D02*
X20409819Y-51546190D01*
X20409819Y-51546190D02*
X20552676Y-51641428D01*
X20552676Y-51641428D02*
X20647914Y-51736666D01*
X20647914Y-51736666D02*
X20695533Y-51831904D01*
X85275057Y-52355713D02*
X85227438Y-52308094D01*
X85227438Y-52308094D02*
X85179819Y-52212856D01*
X85179819Y-52212856D02*
X85179819Y-51974761D01*
X85179819Y-51974761D02*
X85227438Y-51879523D01*
X85227438Y-51879523D02*
X85275057Y-51831904D01*
X85275057Y-51831904D02*
X85370295Y-51784285D01*
X85370295Y-51784285D02*
X85465533Y-51784285D01*
X85465533Y-51784285D02*
X85608390Y-51831904D01*
X85608390Y-51831904D02*
X86179819Y-52403332D01*
X86179819Y-52403332D02*
X86179819Y-51784285D01*
X28654524Y-104229819D02*
X28987857Y-105229819D01*
X28987857Y-105229819D02*
X29321190Y-104229819D01*
X30083095Y-105182200D02*
X29987857Y-105229819D01*
X29987857Y-105229819D02*
X29797381Y-105229819D01*
X29797381Y-105229819D02*
X29702143Y-105182200D01*
X29702143Y-105182200D02*
X29654524Y-105134580D01*
X29654524Y-105134580D02*
X29606905Y-105039342D01*
X29606905Y-105039342D02*
X29606905Y-104753628D01*
X29606905Y-104753628D02*
X29654524Y-104658390D01*
X29654524Y-104658390D02*
X29702143Y-104610771D01*
X29702143Y-104610771D02*
X29797381Y-104563152D01*
X29797381Y-104563152D02*
X29987857Y-104563152D01*
X29987857Y-104563152D02*
X30083095Y-104610771D01*
X30940238Y-105182200D02*
X30845000Y-105229819D01*
X30845000Y-105229819D02*
X30654524Y-105229819D01*
X30654524Y-105229819D02*
X30559286Y-105182200D01*
X30559286Y-105182200D02*
X30511667Y-105134580D01*
X30511667Y-105134580D02*
X30464048Y-105039342D01*
X30464048Y-105039342D02*
X30464048Y-104753628D01*
X30464048Y-104753628D02*
X30511667Y-104658390D01*
X30511667Y-104658390D02*
X30559286Y-104610771D01*
X30559286Y-104610771D02*
X30654524Y-104563152D01*
X30654524Y-104563152D02*
X30845000Y-104563152D01*
X30845000Y-104563152D02*
X30940238Y-104610771D01*
X102959819Y-27003332D02*
X102959819Y-26336666D01*
X102959819Y-26336666D02*
X103959819Y-26765237D01*
X20409819Y-55181428D02*
X20409819Y-54990952D01*
X20409819Y-54990952D02*
X20457438Y-54895714D01*
X20457438Y-54895714D02*
X20552676Y-54800476D01*
X20552676Y-54800476D02*
X20743152Y-54752857D01*
X20743152Y-54752857D02*
X21076485Y-54752857D01*
X21076485Y-54752857D02*
X21266961Y-54800476D01*
X21266961Y-54800476D02*
X21362200Y-54895714D01*
X21362200Y-54895714D02*
X21409819Y-54990952D01*
X21409819Y-54990952D02*
X21409819Y-55181428D01*
X21409819Y-55181428D02*
X21362200Y-55276666D01*
X21362200Y-55276666D02*
X21266961Y-55371904D01*
X21266961Y-55371904D02*
X21076485Y-55419523D01*
X21076485Y-55419523D02*
X20743152Y-55419523D01*
X20743152Y-55419523D02*
X20552676Y-55371904D01*
X20552676Y-55371904D02*
X20457438Y-55276666D01*
X20457438Y-55276666D02*
X20409819Y-55181428D01*
X20409819Y-54133809D02*
X20409819Y-54038571D01*
X20409819Y-54038571D02*
X20457438Y-53943333D01*
X20457438Y-53943333D02*
X20505057Y-53895714D01*
X20505057Y-53895714D02*
X20600295Y-53848095D01*
X20600295Y-53848095D02*
X20790771Y-53800476D01*
X20790771Y-53800476D02*
X21028866Y-53800476D01*
X21028866Y-53800476D02*
X21219342Y-53848095D01*
X21219342Y-53848095D02*
X21314580Y-53895714D01*
X21314580Y-53895714D02*
X21362200Y-53943333D01*
X21362200Y-53943333D02*
X21409819Y-54038571D01*
X21409819Y-54038571D02*
X21409819Y-54133809D01*
X21409819Y-54133809D02*
X21362200Y-54229047D01*
X21362200Y-54229047D02*
X21314580Y-54276666D01*
X21314580Y-54276666D02*
X21219342Y-54324285D01*
X21219342Y-54324285D02*
X21028866Y-54371904D01*
X21028866Y-54371904D02*
X20790771Y-54371904D01*
X20790771Y-54371904D02*
X20600295Y-54324285D01*
X20600295Y-54324285D02*
X20505057Y-54276666D01*
X20505057Y-54276666D02*
X20457438Y-54229047D01*
X20457438Y-54229047D02*
X20409819Y-54133809D01*
X20409819Y-37401428D02*
X20409819Y-37210952D01*
X20409819Y-37210952D02*
X20457438Y-37115714D01*
X20457438Y-37115714D02*
X20552676Y-37020476D01*
X20552676Y-37020476D02*
X20743152Y-36972857D01*
X20743152Y-36972857D02*
X21076485Y-36972857D01*
X21076485Y-36972857D02*
X21266961Y-37020476D01*
X21266961Y-37020476D02*
X21362200Y-37115714D01*
X21362200Y-37115714D02*
X21409819Y-37210952D01*
X21409819Y-37210952D02*
X21409819Y-37401428D01*
X21409819Y-37401428D02*
X21362200Y-37496666D01*
X21362200Y-37496666D02*
X21266961Y-37591904D01*
X21266961Y-37591904D02*
X21076485Y-37639523D01*
X21076485Y-37639523D02*
X20743152Y-37639523D01*
X20743152Y-37639523D02*
X20552676Y-37591904D01*
X20552676Y-37591904D02*
X20457438Y-37496666D01*
X20457438Y-37496666D02*
X20409819Y-37401428D01*
X20409819Y-36639523D02*
X20409819Y-35972857D01*
X20409819Y-35972857D02*
X21409819Y-36401428D01*
X32839819Y-56864285D02*
X32839819Y-57435713D01*
X32839819Y-57149999D02*
X31839819Y-57149999D01*
X31839819Y-57149999D02*
X31982676Y-57245237D01*
X31982676Y-57245237D02*
X32077914Y-57340475D01*
X32077914Y-57340475D02*
X32125533Y-57435713D01*
X31839819Y-47323332D02*
X31839819Y-46704285D01*
X31839819Y-46704285D02*
X32220771Y-47037618D01*
X32220771Y-47037618D02*
X32220771Y-46894761D01*
X32220771Y-46894761D02*
X32268390Y-46799523D01*
X32268390Y-46799523D02*
X32316009Y-46751904D01*
X32316009Y-46751904D02*
X32411247Y-46704285D01*
X32411247Y-46704285D02*
X32649342Y-46704285D01*
X32649342Y-46704285D02*
X32744580Y-46751904D01*
X32744580Y-46751904D02*
X32792200Y-46799523D01*
X32792200Y-46799523D02*
X32839819Y-46894761D01*
X32839819Y-46894761D02*
X32839819Y-47180475D01*
X32839819Y-47180475D02*
X32792200Y-47275713D01*
X32792200Y-47275713D02*
X32744580Y-47323332D01*
X32173152Y-41719523D02*
X32839819Y-41719523D01*
X31792200Y-41957618D02*
X32506485Y-42195713D01*
X32506485Y-42195713D02*
X32506485Y-41576666D01*
D11*
X82189638Y-18113333D02*
X81237257Y-18780000D01*
X82189638Y-19256190D02*
X80189638Y-19256190D01*
X80189638Y-19256190D02*
X80189638Y-18494285D01*
X80189638Y-18494285D02*
X80284876Y-18303809D01*
X80284876Y-18303809D02*
X80380114Y-18208571D01*
X80380114Y-18208571D02*
X80570590Y-18113333D01*
X80570590Y-18113333D02*
X80856304Y-18113333D01*
X80856304Y-18113333D02*
X81046780Y-18208571D01*
X81046780Y-18208571D02*
X81142019Y-18303809D01*
X81142019Y-18303809D02*
X81237257Y-18494285D01*
X81237257Y-18494285D02*
X81237257Y-19256190D01*
X80856304Y-16399047D02*
X82189638Y-16399047D01*
X80094400Y-16875238D02*
X81522971Y-17351428D01*
X81522971Y-17351428D02*
X81522971Y-16113333D01*
D13*
X76843095Y-103959819D02*
X76843095Y-102959819D01*
X76843095Y-102959819D02*
X77176428Y-103674104D01*
X77176428Y-103674104D02*
X77509761Y-102959819D01*
X77509761Y-102959819D02*
X77509761Y-103959819D01*
X77985952Y-102959819D02*
X77985952Y-103769342D01*
X77985952Y-103769342D02*
X78033571Y-103864580D01*
X78033571Y-103864580D02*
X78081190Y-103912200D01*
X78081190Y-103912200D02*
X78176428Y-103959819D01*
X78176428Y-103959819D02*
X78366904Y-103959819D01*
X78366904Y-103959819D02*
X78462142Y-103912200D01*
X78462142Y-103912200D02*
X78509761Y-103864580D01*
X78509761Y-103864580D02*
X78557380Y-103769342D01*
X78557380Y-103769342D02*
X78557380Y-102959819D01*
X79509761Y-103959819D02*
X79033571Y-103959819D01*
X79033571Y-103959819D02*
X79033571Y-102959819D01*
X76705000Y-102682200D02*
X79505000Y-102682200D01*
X14059819Y-36591904D02*
X14059819Y-37068094D01*
X14059819Y-37068094D02*
X14536009Y-37115713D01*
X14536009Y-37115713D02*
X14488390Y-37068094D01*
X14488390Y-37068094D02*
X14440771Y-36972856D01*
X14440771Y-36972856D02*
X14440771Y-36734761D01*
X14440771Y-36734761D02*
X14488390Y-36639523D01*
X14488390Y-36639523D02*
X14536009Y-36591904D01*
X14536009Y-36591904D02*
X14631247Y-36544285D01*
X14631247Y-36544285D02*
X14869342Y-36544285D01*
X14869342Y-36544285D02*
X14964580Y-36591904D01*
X14964580Y-36591904D02*
X15012200Y-36639523D01*
X15012200Y-36639523D02*
X15059819Y-36734761D01*
X15059819Y-36734761D02*
X15059819Y-36972856D01*
X15059819Y-36972856D02*
X15012200Y-37068094D01*
X15012200Y-37068094D02*
X14964580Y-37115713D01*
X51546190Y-70939819D02*
X51212857Y-70463628D01*
X50974762Y-70939819D02*
X50974762Y-69939819D01*
X50974762Y-69939819D02*
X51355714Y-69939819D01*
X51355714Y-69939819D02*
X51450952Y-69987438D01*
X51450952Y-69987438D02*
X51498571Y-70035057D01*
X51498571Y-70035057D02*
X51546190Y-70130295D01*
X51546190Y-70130295D02*
X51546190Y-70273152D01*
X51546190Y-70273152D02*
X51498571Y-70368390D01*
X51498571Y-70368390D02*
X51450952Y-70416009D01*
X51450952Y-70416009D02*
X51355714Y-70463628D01*
X51355714Y-70463628D02*
X50974762Y-70463628D01*
X52355714Y-70892200D02*
X52260476Y-70939819D01*
X52260476Y-70939819D02*
X52070000Y-70939819D01*
X52070000Y-70939819D02*
X51974762Y-70892200D01*
X51974762Y-70892200D02*
X51927143Y-70796961D01*
X51927143Y-70796961D02*
X51927143Y-70416009D01*
X51927143Y-70416009D02*
X51974762Y-70320771D01*
X51974762Y-70320771D02*
X52070000Y-70273152D01*
X52070000Y-70273152D02*
X52260476Y-70273152D01*
X52260476Y-70273152D02*
X52355714Y-70320771D01*
X52355714Y-70320771D02*
X52403333Y-70416009D01*
X52403333Y-70416009D02*
X52403333Y-70511247D01*
X52403333Y-70511247D02*
X51927143Y-70606485D01*
X52784286Y-70892200D02*
X52879524Y-70939819D01*
X52879524Y-70939819D02*
X53070000Y-70939819D01*
X53070000Y-70939819D02*
X53165238Y-70892200D01*
X53165238Y-70892200D02*
X53212857Y-70796961D01*
X53212857Y-70796961D02*
X53212857Y-70749342D01*
X53212857Y-70749342D02*
X53165238Y-70654104D01*
X53165238Y-70654104D02*
X53070000Y-70606485D01*
X53070000Y-70606485D02*
X52927143Y-70606485D01*
X52927143Y-70606485D02*
X52831905Y-70558866D01*
X52831905Y-70558866D02*
X52784286Y-70463628D01*
X52784286Y-70463628D02*
X52784286Y-70416009D01*
X52784286Y-70416009D02*
X52831905Y-70320771D01*
X52831905Y-70320771D02*
X52927143Y-70273152D01*
X52927143Y-70273152D02*
X53070000Y-70273152D01*
X53070000Y-70273152D02*
X53165238Y-70320771D01*
X50836667Y-69662200D02*
X53303334Y-69662200D01*
X31839819Y-31559523D02*
X31839819Y-31749999D01*
X31839819Y-31749999D02*
X31887438Y-31845237D01*
X31887438Y-31845237D02*
X31935057Y-31892856D01*
X31935057Y-31892856D02*
X32077914Y-31988094D01*
X32077914Y-31988094D02*
X32268390Y-32035713D01*
X32268390Y-32035713D02*
X32649342Y-32035713D01*
X32649342Y-32035713D02*
X32744580Y-31988094D01*
X32744580Y-31988094D02*
X32792200Y-31940475D01*
X32792200Y-31940475D02*
X32839819Y-31845237D01*
X32839819Y-31845237D02*
X32839819Y-31654761D01*
X32839819Y-31654761D02*
X32792200Y-31559523D01*
X32792200Y-31559523D02*
X32744580Y-31511904D01*
X32744580Y-31511904D02*
X32649342Y-31464285D01*
X32649342Y-31464285D02*
X32411247Y-31464285D01*
X32411247Y-31464285D02*
X32316009Y-31511904D01*
X32316009Y-31511904D02*
X32268390Y-31559523D01*
X32268390Y-31559523D02*
X32220771Y-31654761D01*
X32220771Y-31654761D02*
X32220771Y-31845237D01*
X32220771Y-31845237D02*
X32268390Y-31940475D01*
X32268390Y-31940475D02*
X32316009Y-31988094D01*
X32316009Y-31988094D02*
X32411247Y-32035713D01*
X21409819Y-90646189D02*
X20409819Y-90646189D01*
X20409819Y-90265237D02*
X20409819Y-89598571D01*
X20409819Y-89598571D02*
X21409819Y-90027142D01*
X103959819Y-56864285D02*
X103959819Y-57435713D01*
X103959819Y-57149999D02*
X102959819Y-57149999D01*
X102959819Y-57149999D02*
X103102676Y-57245237D01*
X103102676Y-57245237D02*
X103197914Y-57340475D01*
X103197914Y-57340475D02*
X103245533Y-57435713D01*
X120835057Y-52355713D02*
X120787438Y-52308094D01*
X120787438Y-52308094D02*
X120739819Y-52212856D01*
X120739819Y-52212856D02*
X120739819Y-51974761D01*
X120739819Y-51974761D02*
X120787438Y-51879523D01*
X120787438Y-51879523D02*
X120835057Y-51831904D01*
X120835057Y-51831904D02*
X120930295Y-51784285D01*
X120930295Y-51784285D02*
X121025533Y-51784285D01*
X121025533Y-51784285D02*
X121168390Y-51831904D01*
X121168390Y-51831904D02*
X121739819Y-52403332D01*
X121739819Y-52403332D02*
X121739819Y-51784285D01*
X21409819Y-24161666D02*
X20933628Y-24494999D01*
X21409819Y-24733094D02*
X20409819Y-24733094D01*
X20409819Y-24733094D02*
X20409819Y-24352142D01*
X20409819Y-24352142D02*
X20457438Y-24256904D01*
X20457438Y-24256904D02*
X20505057Y-24209285D01*
X20505057Y-24209285D02*
X20600295Y-24161666D01*
X20600295Y-24161666D02*
X20743152Y-24161666D01*
X20743152Y-24161666D02*
X20838390Y-24209285D01*
X20838390Y-24209285D02*
X20886009Y-24256904D01*
X20886009Y-24256904D02*
X20933628Y-24352142D01*
X20933628Y-24352142D02*
X20933628Y-24733094D01*
X21409819Y-23590237D02*
X21362200Y-23685475D01*
X21362200Y-23685475D02*
X21314580Y-23733094D01*
X21314580Y-23733094D02*
X21219342Y-23780713D01*
X21219342Y-23780713D02*
X20933628Y-23780713D01*
X20933628Y-23780713D02*
X20838390Y-23733094D01*
X20838390Y-23733094D02*
X20790771Y-23685475D01*
X20790771Y-23685475D02*
X20743152Y-23590237D01*
X20743152Y-23590237D02*
X20743152Y-23447380D01*
X20743152Y-23447380D02*
X20790771Y-23352142D01*
X20790771Y-23352142D02*
X20838390Y-23304523D01*
X20838390Y-23304523D02*
X20933628Y-23256904D01*
X20933628Y-23256904D02*
X21219342Y-23256904D01*
X21219342Y-23256904D02*
X21314580Y-23304523D01*
X21314580Y-23304523D02*
X21362200Y-23352142D01*
X21362200Y-23352142D02*
X21409819Y-23447380D01*
X21409819Y-23447380D02*
X21409819Y-23590237D01*
X20743152Y-22923570D02*
X21409819Y-22733094D01*
X21409819Y-22733094D02*
X20933628Y-22542618D01*
X20933628Y-22542618D02*
X21409819Y-22352142D01*
X21409819Y-22352142D02*
X20743152Y-22161666D01*
X20132200Y-24871190D02*
X20132200Y-22118809D01*
X120739819Y-27003332D02*
X120739819Y-26336666D01*
X120739819Y-26336666D02*
X121739819Y-26765237D01*
X124333214Y-105023509D02*
X124476071Y-105071128D01*
X124476071Y-105071128D02*
X124523690Y-105118747D01*
X124523690Y-105118747D02*
X124571309Y-105213985D01*
X124571309Y-105213985D02*
X124571309Y-105356842D01*
X124571309Y-105356842D02*
X124523690Y-105452080D01*
X124523690Y-105452080D02*
X124476071Y-105499700D01*
X124476071Y-105499700D02*
X124380833Y-105547319D01*
X124380833Y-105547319D02*
X123999881Y-105547319D01*
X123999881Y-105547319D02*
X123999881Y-104547319D01*
X123999881Y-104547319D02*
X124333214Y-104547319D01*
X124333214Y-104547319D02*
X124428452Y-104594938D01*
X124428452Y-104594938D02*
X124476071Y-104642557D01*
X124476071Y-104642557D02*
X124523690Y-104737795D01*
X124523690Y-104737795D02*
X124523690Y-104833033D01*
X124523690Y-104833033D02*
X124476071Y-104928271D01*
X124476071Y-104928271D02*
X124428452Y-104975890D01*
X124428452Y-104975890D02*
X124333214Y-105023509D01*
X124333214Y-105023509D02*
X123999881Y-105023509D01*
X125428452Y-105547319D02*
X125428452Y-105023509D01*
X125428452Y-105023509D02*
X125380833Y-104928271D01*
X125380833Y-104928271D02*
X125285595Y-104880652D01*
X125285595Y-104880652D02*
X125095119Y-104880652D01*
X125095119Y-104880652D02*
X124999881Y-104928271D01*
X125428452Y-105499700D02*
X125333214Y-105547319D01*
X125333214Y-105547319D02*
X125095119Y-105547319D01*
X125095119Y-105547319D02*
X124999881Y-105499700D01*
X124999881Y-105499700D02*
X124952262Y-105404461D01*
X124952262Y-105404461D02*
X124952262Y-105309223D01*
X124952262Y-105309223D02*
X124999881Y-105213985D01*
X124999881Y-105213985D02*
X125095119Y-105166366D01*
X125095119Y-105166366D02*
X125333214Y-105166366D01*
X125333214Y-105166366D02*
X125428452Y-105118747D01*
X125904643Y-104880652D02*
X125904643Y-105547319D01*
X125904643Y-104975890D02*
X125952262Y-104928271D01*
X125952262Y-104928271D02*
X126047500Y-104880652D01*
X126047500Y-104880652D02*
X126190357Y-104880652D01*
X126190357Y-104880652D02*
X126285595Y-104928271D01*
X126285595Y-104928271D02*
X126333214Y-105023509D01*
X126333214Y-105023509D02*
X126333214Y-105547319D01*
X126809405Y-105547319D02*
X126809405Y-104547319D01*
X126904643Y-105166366D02*
X127190357Y-105547319D01*
X127190357Y-104880652D02*
X126809405Y-105261604D01*
X127809405Y-104547319D02*
X127904643Y-104547319D01*
X127904643Y-104547319D02*
X127999881Y-104594938D01*
X127999881Y-104594938D02*
X128047500Y-104642557D01*
X128047500Y-104642557D02*
X128095119Y-104737795D01*
X128095119Y-104737795D02*
X128142738Y-104928271D01*
X128142738Y-104928271D02*
X128142738Y-105166366D01*
X128142738Y-105166366D02*
X128095119Y-105356842D01*
X128095119Y-105356842D02*
X128047500Y-105452080D01*
X128047500Y-105452080D02*
X127999881Y-105499700D01*
X127999881Y-105499700D02*
X127904643Y-105547319D01*
X127904643Y-105547319D02*
X127809405Y-105547319D01*
X127809405Y-105547319D02*
X127714167Y-105499700D01*
X127714167Y-105499700D02*
X127666548Y-105452080D01*
X127666548Y-105452080D02*
X127618929Y-105356842D01*
X127618929Y-105356842D02*
X127571310Y-105166366D01*
X127571310Y-105166366D02*
X127571310Y-104928271D01*
X127571310Y-104928271D02*
X127618929Y-104737795D01*
X127618929Y-104737795D02*
X127666548Y-104642557D01*
X127666548Y-104642557D02*
X127714167Y-104594938D01*
X127714167Y-104594938D02*
X127809405Y-104547319D01*
X123861786Y-104269700D02*
X128233215Y-104269700D01*
X102959819Y-62277618D02*
X102959819Y-62182380D01*
X102959819Y-62182380D02*
X103007438Y-62087142D01*
X103007438Y-62087142D02*
X103055057Y-62039523D01*
X103055057Y-62039523D02*
X103150295Y-61991904D01*
X103150295Y-61991904D02*
X103340771Y-61944285D01*
X103340771Y-61944285D02*
X103578866Y-61944285D01*
X103578866Y-61944285D02*
X103769342Y-61991904D01*
X103769342Y-61991904D02*
X103864580Y-62039523D01*
X103864580Y-62039523D02*
X103912200Y-62087142D01*
X103912200Y-62087142D02*
X103959819Y-62182380D01*
X103959819Y-62182380D02*
X103959819Y-62277618D01*
X103959819Y-62277618D02*
X103912200Y-62372856D01*
X103912200Y-62372856D02*
X103864580Y-62420475D01*
X103864580Y-62420475D02*
X103769342Y-62468094D01*
X103769342Y-62468094D02*
X103578866Y-62515713D01*
X103578866Y-62515713D02*
X103340771Y-62515713D01*
X103340771Y-62515713D02*
X103150295Y-62468094D01*
X103150295Y-62468094D02*
X103055057Y-62420475D01*
X103055057Y-62420475D02*
X103007438Y-62372856D01*
X103007438Y-62372856D02*
X102959819Y-62277618D01*
X43172142Y-104912438D02*
X43076904Y-104864819D01*
X43076904Y-104864819D02*
X42934047Y-104864819D01*
X42934047Y-104864819D02*
X42791190Y-104912438D01*
X42791190Y-104912438D02*
X42695952Y-105007676D01*
X42695952Y-105007676D02*
X42648333Y-105102914D01*
X42648333Y-105102914D02*
X42600714Y-105293390D01*
X42600714Y-105293390D02*
X42600714Y-105436247D01*
X42600714Y-105436247D02*
X42648333Y-105626723D01*
X42648333Y-105626723D02*
X42695952Y-105721961D01*
X42695952Y-105721961D02*
X42791190Y-105817200D01*
X42791190Y-105817200D02*
X42934047Y-105864819D01*
X42934047Y-105864819D02*
X43029285Y-105864819D01*
X43029285Y-105864819D02*
X43172142Y-105817200D01*
X43172142Y-105817200D02*
X43219761Y-105769580D01*
X43219761Y-105769580D02*
X43219761Y-105436247D01*
X43219761Y-105436247D02*
X43029285Y-105436247D01*
X43648333Y-105198152D02*
X43648333Y-105864819D01*
X43648333Y-105293390D02*
X43695952Y-105245771D01*
X43695952Y-105245771D02*
X43791190Y-105198152D01*
X43791190Y-105198152D02*
X43934047Y-105198152D01*
X43934047Y-105198152D02*
X44029285Y-105245771D01*
X44029285Y-105245771D02*
X44076904Y-105341009D01*
X44076904Y-105341009D02*
X44076904Y-105864819D01*
X44981666Y-105864819D02*
X44981666Y-104864819D01*
X44981666Y-105817200D02*
X44886428Y-105864819D01*
X44886428Y-105864819D02*
X44695952Y-105864819D01*
X44695952Y-105864819D02*
X44600714Y-105817200D01*
X44600714Y-105817200D02*
X44553095Y-105769580D01*
X44553095Y-105769580D02*
X44505476Y-105674342D01*
X44505476Y-105674342D02*
X44505476Y-105388628D01*
X44505476Y-105388628D02*
X44553095Y-105293390D01*
X44553095Y-105293390D02*
X44600714Y-105245771D01*
X44600714Y-105245771D02*
X44695952Y-105198152D01*
X44695952Y-105198152D02*
X44886428Y-105198152D01*
X44886428Y-105198152D02*
X44981666Y-105245771D01*
X50619819Y-56864285D02*
X50619819Y-57435713D01*
X50619819Y-57149999D02*
X49619819Y-57149999D01*
X49619819Y-57149999D02*
X49762676Y-57245237D01*
X49762676Y-57245237D02*
X49857914Y-57340475D01*
X49857914Y-57340475D02*
X49905533Y-57435713D01*
X21409819Y-80486189D02*
X20409819Y-80486189D01*
X20409819Y-80105237D02*
X20409819Y-79486190D01*
X20409819Y-79486190D02*
X20790771Y-79819523D01*
X20790771Y-79819523D02*
X20790771Y-79676666D01*
X20790771Y-79676666D02*
X20838390Y-79581428D01*
X20838390Y-79581428D02*
X20886009Y-79533809D01*
X20886009Y-79533809D02*
X20981247Y-79486190D01*
X20981247Y-79486190D02*
X21219342Y-79486190D01*
X21219342Y-79486190D02*
X21314580Y-79533809D01*
X21314580Y-79533809D02*
X21362200Y-79581428D01*
X21362200Y-79581428D02*
X21409819Y-79676666D01*
X21409819Y-79676666D02*
X21409819Y-79962380D01*
X21409819Y-79962380D02*
X21362200Y-80057618D01*
X21362200Y-80057618D02*
X21314580Y-80105237D01*
X166824819Y-48243808D02*
X165824819Y-48243808D01*
X165824819Y-48243808D02*
X166539104Y-47910475D01*
X166539104Y-47910475D02*
X165824819Y-47577142D01*
X165824819Y-47577142D02*
X166824819Y-47577142D01*
X165824819Y-47100951D02*
X166634342Y-47100951D01*
X166634342Y-47100951D02*
X166729580Y-47053332D01*
X166729580Y-47053332D02*
X166777200Y-47005713D01*
X166777200Y-47005713D02*
X166824819Y-46910475D01*
X166824819Y-46910475D02*
X166824819Y-46719999D01*
X166824819Y-46719999D02*
X166777200Y-46624761D01*
X166777200Y-46624761D02*
X166729580Y-46577142D01*
X166729580Y-46577142D02*
X166634342Y-46529523D01*
X166634342Y-46529523D02*
X165824819Y-46529523D01*
X165824819Y-46148570D02*
X166824819Y-45481904D01*
X165824819Y-45481904D02*
X166824819Y-46148570D01*
X165920057Y-45148570D02*
X165872438Y-45100951D01*
X165872438Y-45100951D02*
X165824819Y-45005713D01*
X165824819Y-45005713D02*
X165824819Y-44767618D01*
X165824819Y-44767618D02*
X165872438Y-44672380D01*
X165872438Y-44672380D02*
X165920057Y-44624761D01*
X165920057Y-44624761D02*
X166015295Y-44577142D01*
X166015295Y-44577142D02*
X166110533Y-44577142D01*
X166110533Y-44577142D02*
X166253390Y-44624761D01*
X166253390Y-44624761D02*
X166824819Y-45196189D01*
X166824819Y-45196189D02*
X166824819Y-44577142D01*
X166729580Y-44148570D02*
X166777200Y-44100951D01*
X166777200Y-44100951D02*
X166824819Y-44148570D01*
X166824819Y-44148570D02*
X166777200Y-44196189D01*
X166777200Y-44196189D02*
X166729580Y-44148570D01*
X166729580Y-44148570D02*
X166824819Y-44148570D01*
X166205771Y-44148570D02*
X166253390Y-44100951D01*
X166253390Y-44100951D02*
X166301009Y-44148570D01*
X166301009Y-44148570D02*
X166253390Y-44196189D01*
X166253390Y-44196189D02*
X166205771Y-44148570D01*
X166205771Y-44148570D02*
X166301009Y-44148570D01*
X166824819Y-43148571D02*
X166824819Y-43719999D01*
X166824819Y-43434285D02*
X165824819Y-43434285D01*
X165824819Y-43434285D02*
X165967676Y-43529523D01*
X165967676Y-43529523D02*
X166062914Y-43624761D01*
X166062914Y-43624761D02*
X166110533Y-43719999D01*
X69326190Y-70939819D02*
X68992857Y-70463628D01*
X68754762Y-70939819D02*
X68754762Y-69939819D01*
X68754762Y-69939819D02*
X69135714Y-69939819D01*
X69135714Y-69939819D02*
X69230952Y-69987438D01*
X69230952Y-69987438D02*
X69278571Y-70035057D01*
X69278571Y-70035057D02*
X69326190Y-70130295D01*
X69326190Y-70130295D02*
X69326190Y-70273152D01*
X69326190Y-70273152D02*
X69278571Y-70368390D01*
X69278571Y-70368390D02*
X69230952Y-70416009D01*
X69230952Y-70416009D02*
X69135714Y-70463628D01*
X69135714Y-70463628D02*
X68754762Y-70463628D01*
X70135714Y-70892200D02*
X70040476Y-70939819D01*
X70040476Y-70939819D02*
X69850000Y-70939819D01*
X69850000Y-70939819D02*
X69754762Y-70892200D01*
X69754762Y-70892200D02*
X69707143Y-70796961D01*
X69707143Y-70796961D02*
X69707143Y-70416009D01*
X69707143Y-70416009D02*
X69754762Y-70320771D01*
X69754762Y-70320771D02*
X69850000Y-70273152D01*
X69850000Y-70273152D02*
X70040476Y-70273152D01*
X70040476Y-70273152D02*
X70135714Y-70320771D01*
X70135714Y-70320771D02*
X70183333Y-70416009D01*
X70183333Y-70416009D02*
X70183333Y-70511247D01*
X70183333Y-70511247D02*
X69707143Y-70606485D01*
X70564286Y-70892200D02*
X70659524Y-70939819D01*
X70659524Y-70939819D02*
X70850000Y-70939819D01*
X70850000Y-70939819D02*
X70945238Y-70892200D01*
X70945238Y-70892200D02*
X70992857Y-70796961D01*
X70992857Y-70796961D02*
X70992857Y-70749342D01*
X70992857Y-70749342D02*
X70945238Y-70654104D01*
X70945238Y-70654104D02*
X70850000Y-70606485D01*
X70850000Y-70606485D02*
X70707143Y-70606485D01*
X70707143Y-70606485D02*
X70611905Y-70558866D01*
X70611905Y-70558866D02*
X70564286Y-70463628D01*
X70564286Y-70463628D02*
X70564286Y-70416009D01*
X70564286Y-70416009D02*
X70611905Y-70320771D01*
X70611905Y-70320771D02*
X70707143Y-70273152D01*
X70707143Y-70273152D02*
X70850000Y-70273152D01*
X70850000Y-70273152D02*
X70945238Y-70320771D01*
X68616667Y-69662200D02*
X71083334Y-69662200D01*
X67399819Y-31559523D02*
X67399819Y-31749999D01*
X67399819Y-31749999D02*
X67447438Y-31845237D01*
X67447438Y-31845237D02*
X67495057Y-31892856D01*
X67495057Y-31892856D02*
X67637914Y-31988094D01*
X67637914Y-31988094D02*
X67828390Y-32035713D01*
X67828390Y-32035713D02*
X68209342Y-32035713D01*
X68209342Y-32035713D02*
X68304580Y-31988094D01*
X68304580Y-31988094D02*
X68352200Y-31940475D01*
X68352200Y-31940475D02*
X68399819Y-31845237D01*
X68399819Y-31845237D02*
X68399819Y-31654761D01*
X68399819Y-31654761D02*
X68352200Y-31559523D01*
X68352200Y-31559523D02*
X68304580Y-31511904D01*
X68304580Y-31511904D02*
X68209342Y-31464285D01*
X68209342Y-31464285D02*
X67971247Y-31464285D01*
X67971247Y-31464285D02*
X67876009Y-31511904D01*
X67876009Y-31511904D02*
X67828390Y-31559523D01*
X67828390Y-31559523D02*
X67780771Y-31654761D01*
X67780771Y-31654761D02*
X67780771Y-31845237D01*
X67780771Y-31845237D02*
X67828390Y-31940475D01*
X67828390Y-31940475D02*
X67876009Y-31988094D01*
X67876009Y-31988094D02*
X67971247Y-32035713D01*
X86179819Y-56864285D02*
X86179819Y-57435713D01*
X86179819Y-57149999D02*
X85179819Y-57149999D01*
X85179819Y-57149999D02*
X85322676Y-57245237D01*
X85322676Y-57245237D02*
X85417914Y-57340475D01*
X85417914Y-57340475D02*
X85465533Y-57435713D01*
X104886190Y-70939819D02*
X104552857Y-70463628D01*
X104314762Y-70939819D02*
X104314762Y-69939819D01*
X104314762Y-69939819D02*
X104695714Y-69939819D01*
X104695714Y-69939819D02*
X104790952Y-69987438D01*
X104790952Y-69987438D02*
X104838571Y-70035057D01*
X104838571Y-70035057D02*
X104886190Y-70130295D01*
X104886190Y-70130295D02*
X104886190Y-70273152D01*
X104886190Y-70273152D02*
X104838571Y-70368390D01*
X104838571Y-70368390D02*
X104790952Y-70416009D01*
X104790952Y-70416009D02*
X104695714Y-70463628D01*
X104695714Y-70463628D02*
X104314762Y-70463628D01*
X105695714Y-70892200D02*
X105600476Y-70939819D01*
X105600476Y-70939819D02*
X105410000Y-70939819D01*
X105410000Y-70939819D02*
X105314762Y-70892200D01*
X105314762Y-70892200D02*
X105267143Y-70796961D01*
X105267143Y-70796961D02*
X105267143Y-70416009D01*
X105267143Y-70416009D02*
X105314762Y-70320771D01*
X105314762Y-70320771D02*
X105410000Y-70273152D01*
X105410000Y-70273152D02*
X105600476Y-70273152D01*
X105600476Y-70273152D02*
X105695714Y-70320771D01*
X105695714Y-70320771D02*
X105743333Y-70416009D01*
X105743333Y-70416009D02*
X105743333Y-70511247D01*
X105743333Y-70511247D02*
X105267143Y-70606485D01*
X106124286Y-70892200D02*
X106219524Y-70939819D01*
X106219524Y-70939819D02*
X106410000Y-70939819D01*
X106410000Y-70939819D02*
X106505238Y-70892200D01*
X106505238Y-70892200D02*
X106552857Y-70796961D01*
X106552857Y-70796961D02*
X106552857Y-70749342D01*
X106552857Y-70749342D02*
X106505238Y-70654104D01*
X106505238Y-70654104D02*
X106410000Y-70606485D01*
X106410000Y-70606485D02*
X106267143Y-70606485D01*
X106267143Y-70606485D02*
X106171905Y-70558866D01*
X106171905Y-70558866D02*
X106124286Y-70463628D01*
X106124286Y-70463628D02*
X106124286Y-70416009D01*
X106124286Y-70416009D02*
X106171905Y-70320771D01*
X106171905Y-70320771D02*
X106267143Y-70273152D01*
X106267143Y-70273152D02*
X106410000Y-70273152D01*
X106410000Y-70273152D02*
X106505238Y-70320771D01*
X104176667Y-69662200D02*
X106643334Y-69662200D01*
X138519819Y-62277618D02*
X138519819Y-62182380D01*
X138519819Y-62182380D02*
X138567438Y-62087142D01*
X138567438Y-62087142D02*
X138615057Y-62039523D01*
X138615057Y-62039523D02*
X138710295Y-61991904D01*
X138710295Y-61991904D02*
X138900771Y-61944285D01*
X138900771Y-61944285D02*
X139138866Y-61944285D01*
X139138866Y-61944285D02*
X139329342Y-61991904D01*
X139329342Y-61991904D02*
X139424580Y-62039523D01*
X139424580Y-62039523D02*
X139472200Y-62087142D01*
X139472200Y-62087142D02*
X139519819Y-62182380D01*
X139519819Y-62182380D02*
X139519819Y-62277618D01*
X139519819Y-62277618D02*
X139472200Y-62372856D01*
X139472200Y-62372856D02*
X139424580Y-62420475D01*
X139424580Y-62420475D02*
X139329342Y-62468094D01*
X139329342Y-62468094D02*
X139138866Y-62515713D01*
X139138866Y-62515713D02*
X138900771Y-62515713D01*
X138900771Y-62515713D02*
X138710295Y-62468094D01*
X138710295Y-62468094D02*
X138615057Y-62420475D01*
X138615057Y-62420475D02*
X138567438Y-62372856D01*
X138567438Y-62372856D02*
X138519819Y-62277618D01*
X14059819Y-62277618D02*
X14059819Y-62182380D01*
X14059819Y-62182380D02*
X14107438Y-62087142D01*
X14107438Y-62087142D02*
X14155057Y-62039523D01*
X14155057Y-62039523D02*
X14250295Y-61991904D01*
X14250295Y-61991904D02*
X14440771Y-61944285D01*
X14440771Y-61944285D02*
X14678866Y-61944285D01*
X14678866Y-61944285D02*
X14869342Y-61991904D01*
X14869342Y-61991904D02*
X14964580Y-62039523D01*
X14964580Y-62039523D02*
X15012200Y-62087142D01*
X15012200Y-62087142D02*
X15059819Y-62182380D01*
X15059819Y-62182380D02*
X15059819Y-62277618D01*
X15059819Y-62277618D02*
X15012200Y-62372856D01*
X15012200Y-62372856D02*
X14964580Y-62420475D01*
X14964580Y-62420475D02*
X14869342Y-62468094D01*
X14869342Y-62468094D02*
X14678866Y-62515713D01*
X14678866Y-62515713D02*
X14440771Y-62515713D01*
X14440771Y-62515713D02*
X14250295Y-62468094D01*
X14250295Y-62468094D02*
X14155057Y-62420475D01*
X14155057Y-62420475D02*
X14107438Y-62372856D01*
X14107438Y-62372856D02*
X14059819Y-62277618D01*
X20409819Y-39941428D02*
X20409819Y-39750952D01*
X20409819Y-39750952D02*
X20457438Y-39655714D01*
X20457438Y-39655714D02*
X20552676Y-39560476D01*
X20552676Y-39560476D02*
X20743152Y-39512857D01*
X20743152Y-39512857D02*
X21076485Y-39512857D01*
X21076485Y-39512857D02*
X21266961Y-39560476D01*
X21266961Y-39560476D02*
X21362200Y-39655714D01*
X21362200Y-39655714D02*
X21409819Y-39750952D01*
X21409819Y-39750952D02*
X21409819Y-39941428D01*
X21409819Y-39941428D02*
X21362200Y-40036666D01*
X21362200Y-40036666D02*
X21266961Y-40131904D01*
X21266961Y-40131904D02*
X21076485Y-40179523D01*
X21076485Y-40179523D02*
X20743152Y-40179523D01*
X20743152Y-40179523D02*
X20552676Y-40131904D01*
X20552676Y-40131904D02*
X20457438Y-40036666D01*
X20457438Y-40036666D02*
X20409819Y-39941428D01*
X20409819Y-38655714D02*
X20409819Y-38846190D01*
X20409819Y-38846190D02*
X20457438Y-38941428D01*
X20457438Y-38941428D02*
X20505057Y-38989047D01*
X20505057Y-38989047D02*
X20647914Y-39084285D01*
X20647914Y-39084285D02*
X20838390Y-39131904D01*
X20838390Y-39131904D02*
X21219342Y-39131904D01*
X21219342Y-39131904D02*
X21314580Y-39084285D01*
X21314580Y-39084285D02*
X21362200Y-39036666D01*
X21362200Y-39036666D02*
X21409819Y-38941428D01*
X21409819Y-38941428D02*
X21409819Y-38750952D01*
X21409819Y-38750952D02*
X21362200Y-38655714D01*
X21362200Y-38655714D02*
X21314580Y-38608095D01*
X21314580Y-38608095D02*
X21219342Y-38560476D01*
X21219342Y-38560476D02*
X20981247Y-38560476D01*
X20981247Y-38560476D02*
X20886009Y-38608095D01*
X20886009Y-38608095D02*
X20838390Y-38655714D01*
X20838390Y-38655714D02*
X20790771Y-38750952D01*
X20790771Y-38750952D02*
X20790771Y-38941428D01*
X20790771Y-38941428D02*
X20838390Y-39036666D01*
X20838390Y-39036666D02*
X20886009Y-39084285D01*
X20886009Y-39084285D02*
X20981247Y-39131904D01*
X21314580Y-29694166D02*
X21362200Y-29741785D01*
X21362200Y-29741785D02*
X21409819Y-29884642D01*
X21409819Y-29884642D02*
X21409819Y-29979880D01*
X21409819Y-29979880D02*
X21362200Y-30122737D01*
X21362200Y-30122737D02*
X21266961Y-30217975D01*
X21266961Y-30217975D02*
X21171723Y-30265594D01*
X21171723Y-30265594D02*
X20981247Y-30313213D01*
X20981247Y-30313213D02*
X20838390Y-30313213D01*
X20838390Y-30313213D02*
X20647914Y-30265594D01*
X20647914Y-30265594D02*
X20552676Y-30217975D01*
X20552676Y-30217975D02*
X20457438Y-30122737D01*
X20457438Y-30122737D02*
X20409819Y-29979880D01*
X20409819Y-29979880D02*
X20409819Y-29884642D01*
X20409819Y-29884642D02*
X20457438Y-29741785D01*
X20457438Y-29741785D02*
X20505057Y-29694166D01*
X21362200Y-29313213D02*
X21409819Y-29170356D01*
X21409819Y-29170356D02*
X21409819Y-28932261D01*
X21409819Y-28932261D02*
X21362200Y-28837023D01*
X21362200Y-28837023D02*
X21314580Y-28789404D01*
X21314580Y-28789404D02*
X21219342Y-28741785D01*
X21219342Y-28741785D02*
X21124104Y-28741785D01*
X21124104Y-28741785D02*
X21028866Y-28789404D01*
X21028866Y-28789404D02*
X20981247Y-28837023D01*
X20981247Y-28837023D02*
X20933628Y-28932261D01*
X20933628Y-28932261D02*
X20886009Y-29122737D01*
X20886009Y-29122737D02*
X20838390Y-29217975D01*
X20838390Y-29217975D02*
X20790771Y-29265594D01*
X20790771Y-29265594D02*
X20695533Y-29313213D01*
X20695533Y-29313213D02*
X20600295Y-29313213D01*
X20600295Y-29313213D02*
X20505057Y-29265594D01*
X20505057Y-29265594D02*
X20457438Y-29217975D01*
X20457438Y-29217975D02*
X20409819Y-29122737D01*
X20409819Y-29122737D02*
X20409819Y-28884642D01*
X20409819Y-28884642D02*
X20457438Y-28741785D01*
X20132200Y-30403690D02*
X20132200Y-28651309D01*
X14393152Y-41719523D02*
X15059819Y-41719523D01*
X14012200Y-41957618D02*
X14726485Y-42195713D01*
X14726485Y-42195713D02*
X14726485Y-41576666D01*
X21409819Y-88106189D02*
X20409819Y-88106189D01*
X20409819Y-87201428D02*
X20409819Y-87391904D01*
X20409819Y-87391904D02*
X20457438Y-87487142D01*
X20457438Y-87487142D02*
X20505057Y-87534761D01*
X20505057Y-87534761D02*
X20647914Y-87629999D01*
X20647914Y-87629999D02*
X20838390Y-87677618D01*
X20838390Y-87677618D02*
X21219342Y-87677618D01*
X21219342Y-87677618D02*
X21314580Y-87629999D01*
X21314580Y-87629999D02*
X21362200Y-87582380D01*
X21362200Y-87582380D02*
X21409819Y-87487142D01*
X21409819Y-87487142D02*
X21409819Y-87296666D01*
X21409819Y-87296666D02*
X21362200Y-87201428D01*
X21362200Y-87201428D02*
X21314580Y-87153809D01*
X21314580Y-87153809D02*
X21219342Y-87106190D01*
X21219342Y-87106190D02*
X20981247Y-87106190D01*
X20981247Y-87106190D02*
X20886009Y-87153809D01*
X20886009Y-87153809D02*
X20838390Y-87201428D01*
X20838390Y-87201428D02*
X20790771Y-87296666D01*
X20790771Y-87296666D02*
X20790771Y-87487142D01*
X20790771Y-87487142D02*
X20838390Y-87582380D01*
X20838390Y-87582380D02*
X20886009Y-87629999D01*
X20886009Y-87629999D02*
X20981247Y-87677618D01*
X20409819Y-47561428D02*
X20409819Y-47370952D01*
X20409819Y-47370952D02*
X20457438Y-47275714D01*
X20457438Y-47275714D02*
X20552676Y-47180476D01*
X20552676Y-47180476D02*
X20743152Y-47132857D01*
X20743152Y-47132857D02*
X21076485Y-47132857D01*
X21076485Y-47132857D02*
X21266961Y-47180476D01*
X21266961Y-47180476D02*
X21362200Y-47275714D01*
X21362200Y-47275714D02*
X21409819Y-47370952D01*
X21409819Y-47370952D02*
X21409819Y-47561428D01*
X21409819Y-47561428D02*
X21362200Y-47656666D01*
X21362200Y-47656666D02*
X21266961Y-47751904D01*
X21266961Y-47751904D02*
X21076485Y-47799523D01*
X21076485Y-47799523D02*
X20743152Y-47799523D01*
X20743152Y-47799523D02*
X20552676Y-47751904D01*
X20552676Y-47751904D02*
X20457438Y-47656666D01*
X20457438Y-47656666D02*
X20409819Y-47561428D01*
X20409819Y-46799523D02*
X20409819Y-46180476D01*
X20409819Y-46180476D02*
X20790771Y-46513809D01*
X20790771Y-46513809D02*
X20790771Y-46370952D01*
X20790771Y-46370952D02*
X20838390Y-46275714D01*
X20838390Y-46275714D02*
X20886009Y-46228095D01*
X20886009Y-46228095D02*
X20981247Y-46180476D01*
X20981247Y-46180476D02*
X21219342Y-46180476D01*
X21219342Y-46180476D02*
X21314580Y-46228095D01*
X21314580Y-46228095D02*
X21362200Y-46275714D01*
X21362200Y-46275714D02*
X21409819Y-46370952D01*
X21409819Y-46370952D02*
X21409819Y-46656666D01*
X21409819Y-46656666D02*
X21362200Y-46751904D01*
X21362200Y-46751904D02*
X21314580Y-46799523D01*
X67733152Y-41719523D02*
X68399819Y-41719523D01*
X67352200Y-41957618D02*
X68066485Y-42195713D01*
X68066485Y-42195713D02*
X68066485Y-41576666D01*
X85179819Y-36591904D02*
X85179819Y-37068094D01*
X85179819Y-37068094D02*
X85656009Y-37115713D01*
X85656009Y-37115713D02*
X85608390Y-37068094D01*
X85608390Y-37068094D02*
X85560771Y-36972856D01*
X85560771Y-36972856D02*
X85560771Y-36734761D01*
X85560771Y-36734761D02*
X85608390Y-36639523D01*
X85608390Y-36639523D02*
X85656009Y-36591904D01*
X85656009Y-36591904D02*
X85751247Y-36544285D01*
X85751247Y-36544285D02*
X85989342Y-36544285D01*
X85989342Y-36544285D02*
X86084580Y-36591904D01*
X86084580Y-36591904D02*
X86132200Y-36639523D01*
X86132200Y-36639523D02*
X86179819Y-36734761D01*
X86179819Y-36734761D02*
X86179819Y-36972856D01*
X86179819Y-36972856D02*
X86132200Y-37068094D01*
X86132200Y-37068094D02*
X86084580Y-37115713D01*
X31839819Y-36591904D02*
X31839819Y-37068094D01*
X31839819Y-37068094D02*
X32316009Y-37115713D01*
X32316009Y-37115713D02*
X32268390Y-37068094D01*
X32268390Y-37068094D02*
X32220771Y-36972856D01*
X32220771Y-36972856D02*
X32220771Y-36734761D01*
X32220771Y-36734761D02*
X32268390Y-36639523D01*
X32268390Y-36639523D02*
X32316009Y-36591904D01*
X32316009Y-36591904D02*
X32411247Y-36544285D01*
X32411247Y-36544285D02*
X32649342Y-36544285D01*
X32649342Y-36544285D02*
X32744580Y-36591904D01*
X32744580Y-36591904D02*
X32792200Y-36639523D01*
X32792200Y-36639523D02*
X32839819Y-36734761D01*
X32839819Y-36734761D02*
X32839819Y-36972856D01*
X32839819Y-36972856D02*
X32792200Y-37068094D01*
X32792200Y-37068094D02*
X32744580Y-37115713D01*
X49619819Y-31559523D02*
X49619819Y-31749999D01*
X49619819Y-31749999D02*
X49667438Y-31845237D01*
X49667438Y-31845237D02*
X49715057Y-31892856D01*
X49715057Y-31892856D02*
X49857914Y-31988094D01*
X49857914Y-31988094D02*
X50048390Y-32035713D01*
X50048390Y-32035713D02*
X50429342Y-32035713D01*
X50429342Y-32035713D02*
X50524580Y-31988094D01*
X50524580Y-31988094D02*
X50572200Y-31940475D01*
X50572200Y-31940475D02*
X50619819Y-31845237D01*
X50619819Y-31845237D02*
X50619819Y-31654761D01*
X50619819Y-31654761D02*
X50572200Y-31559523D01*
X50572200Y-31559523D02*
X50524580Y-31511904D01*
X50524580Y-31511904D02*
X50429342Y-31464285D01*
X50429342Y-31464285D02*
X50191247Y-31464285D01*
X50191247Y-31464285D02*
X50096009Y-31511904D01*
X50096009Y-31511904D02*
X50048390Y-31559523D01*
X50048390Y-31559523D02*
X50000771Y-31654761D01*
X50000771Y-31654761D02*
X50000771Y-31845237D01*
X50000771Y-31845237D02*
X50048390Y-31940475D01*
X50048390Y-31940475D02*
X50096009Y-31988094D01*
X50096009Y-31988094D02*
X50191247Y-32035713D01*
X120739819Y-36591904D02*
X120739819Y-37068094D01*
X120739819Y-37068094D02*
X121216009Y-37115713D01*
X121216009Y-37115713D02*
X121168390Y-37068094D01*
X121168390Y-37068094D02*
X121120771Y-36972856D01*
X121120771Y-36972856D02*
X121120771Y-36734761D01*
X121120771Y-36734761D02*
X121168390Y-36639523D01*
X121168390Y-36639523D02*
X121216009Y-36591904D01*
X121216009Y-36591904D02*
X121311247Y-36544285D01*
X121311247Y-36544285D02*
X121549342Y-36544285D01*
X121549342Y-36544285D02*
X121644580Y-36591904D01*
X121644580Y-36591904D02*
X121692200Y-36639523D01*
X121692200Y-36639523D02*
X121739819Y-36734761D01*
X121739819Y-36734761D02*
X121739819Y-36972856D01*
X121739819Y-36972856D02*
X121692200Y-37068094D01*
X121692200Y-37068094D02*
X121644580Y-37115713D01*
X102959819Y-36591904D02*
X102959819Y-37068094D01*
X102959819Y-37068094D02*
X103436009Y-37115713D01*
X103436009Y-37115713D02*
X103388390Y-37068094D01*
X103388390Y-37068094D02*
X103340771Y-36972856D01*
X103340771Y-36972856D02*
X103340771Y-36734761D01*
X103340771Y-36734761D02*
X103388390Y-36639523D01*
X103388390Y-36639523D02*
X103436009Y-36591904D01*
X103436009Y-36591904D02*
X103531247Y-36544285D01*
X103531247Y-36544285D02*
X103769342Y-36544285D01*
X103769342Y-36544285D02*
X103864580Y-36591904D01*
X103864580Y-36591904D02*
X103912200Y-36639523D01*
X103912200Y-36639523D02*
X103959819Y-36734761D01*
X103959819Y-36734761D02*
X103959819Y-36972856D01*
X103959819Y-36972856D02*
X103912200Y-37068094D01*
X103912200Y-37068094D02*
X103864580Y-37115713D01*
X85513152Y-41719523D02*
X86179819Y-41719523D01*
X85132200Y-41957618D02*
X85846485Y-42195713D01*
X85846485Y-42195713D02*
X85846485Y-41576666D01*
X120739819Y-47323332D02*
X120739819Y-46704285D01*
X120739819Y-46704285D02*
X121120771Y-47037618D01*
X121120771Y-47037618D02*
X121120771Y-46894761D01*
X121120771Y-46894761D02*
X121168390Y-46799523D01*
X121168390Y-46799523D02*
X121216009Y-46751904D01*
X121216009Y-46751904D02*
X121311247Y-46704285D01*
X121311247Y-46704285D02*
X121549342Y-46704285D01*
X121549342Y-46704285D02*
X121644580Y-46751904D01*
X121644580Y-46751904D02*
X121692200Y-46799523D01*
X121692200Y-46799523D02*
X121739819Y-46894761D01*
X121739819Y-46894761D02*
X121739819Y-47180475D01*
X121739819Y-47180475D02*
X121692200Y-47275713D01*
X121692200Y-47275713D02*
X121644580Y-47323332D01*
X20409819Y-50101428D02*
X20409819Y-49910952D01*
X20409819Y-49910952D02*
X20457438Y-49815714D01*
X20457438Y-49815714D02*
X20552676Y-49720476D01*
X20552676Y-49720476D02*
X20743152Y-49672857D01*
X20743152Y-49672857D02*
X21076485Y-49672857D01*
X21076485Y-49672857D02*
X21266961Y-49720476D01*
X21266961Y-49720476D02*
X21362200Y-49815714D01*
X21362200Y-49815714D02*
X21409819Y-49910952D01*
X21409819Y-49910952D02*
X21409819Y-50101428D01*
X21409819Y-50101428D02*
X21362200Y-50196666D01*
X21362200Y-50196666D02*
X21266961Y-50291904D01*
X21266961Y-50291904D02*
X21076485Y-50339523D01*
X21076485Y-50339523D02*
X20743152Y-50339523D01*
X20743152Y-50339523D02*
X20552676Y-50291904D01*
X20552676Y-50291904D02*
X20457438Y-50196666D01*
X20457438Y-50196666D02*
X20409819Y-50101428D01*
X20505057Y-49291904D02*
X20457438Y-49244285D01*
X20457438Y-49244285D02*
X20409819Y-49149047D01*
X20409819Y-49149047D02*
X20409819Y-48910952D01*
X20409819Y-48910952D02*
X20457438Y-48815714D01*
X20457438Y-48815714D02*
X20505057Y-48768095D01*
X20505057Y-48768095D02*
X20600295Y-48720476D01*
X20600295Y-48720476D02*
X20695533Y-48720476D01*
X20695533Y-48720476D02*
X20838390Y-48768095D01*
X20838390Y-48768095D02*
X21409819Y-49339523D01*
X21409819Y-49339523D02*
X21409819Y-48720476D01*
D12*
X53276666Y-102512238D02*
X52133809Y-102512238D01*
X52705237Y-102512238D02*
X52705237Y-100512238D01*
X52705237Y-100512238D02*
X52514761Y-100797952D01*
X52514761Y-100797952D02*
X52324285Y-100988428D01*
X52324285Y-100988428D02*
X52133809Y-101083666D01*
X53943333Y-100512238D02*
X55181428Y-100512238D01*
X55181428Y-100512238D02*
X54514761Y-101274142D01*
X54514761Y-101274142D02*
X54800476Y-101274142D01*
X54800476Y-101274142D02*
X54990952Y-101369380D01*
X54990952Y-101369380D02*
X55086190Y-101464619D01*
X55086190Y-101464619D02*
X55181428Y-101655095D01*
X55181428Y-101655095D02*
X55181428Y-102131285D01*
X55181428Y-102131285D02*
X55086190Y-102321761D01*
X55086190Y-102321761D02*
X54990952Y-102417000D01*
X54990952Y-102417000D02*
X54800476Y-102512238D01*
X54800476Y-102512238D02*
X54229047Y-102512238D01*
X54229047Y-102512238D02*
X54038571Y-102417000D01*
X54038571Y-102417000D02*
X53943333Y-102321761D01*
X56133809Y-102512238D02*
X56514761Y-102512238D01*
X56514761Y-102512238D02*
X56705238Y-102417000D01*
X56705238Y-102417000D02*
X56800476Y-102321761D01*
X56800476Y-102321761D02*
X56990952Y-102036047D01*
X56990952Y-102036047D02*
X57086190Y-101655095D01*
X57086190Y-101655095D02*
X57086190Y-100893190D01*
X57086190Y-100893190D02*
X56990952Y-100702714D01*
X56990952Y-100702714D02*
X56895714Y-100607476D01*
X56895714Y-100607476D02*
X56705238Y-100512238D01*
X56705238Y-100512238D02*
X56324285Y-100512238D01*
X56324285Y-100512238D02*
X56133809Y-100607476D01*
X56133809Y-100607476D02*
X56038571Y-100702714D01*
X56038571Y-100702714D02*
X55943333Y-100893190D01*
X55943333Y-100893190D02*
X55943333Y-101369380D01*
X55943333Y-101369380D02*
X56038571Y-101559857D01*
X56038571Y-101559857D02*
X56133809Y-101655095D01*
X56133809Y-101655095D02*
X56324285Y-101750333D01*
X56324285Y-101750333D02*
X56705238Y-101750333D01*
X56705238Y-101750333D02*
X56895714Y-101655095D01*
X56895714Y-101655095D02*
X56990952Y-101559857D01*
X56990952Y-101559857D02*
X57086190Y-101369380D01*
D13*
X120739819Y-62277618D02*
X120739819Y-62182380D01*
X120739819Y-62182380D02*
X120787438Y-62087142D01*
X120787438Y-62087142D02*
X120835057Y-62039523D01*
X120835057Y-62039523D02*
X120930295Y-61991904D01*
X120930295Y-61991904D02*
X121120771Y-61944285D01*
X121120771Y-61944285D02*
X121358866Y-61944285D01*
X121358866Y-61944285D02*
X121549342Y-61991904D01*
X121549342Y-61991904D02*
X121644580Y-62039523D01*
X121644580Y-62039523D02*
X121692200Y-62087142D01*
X121692200Y-62087142D02*
X121739819Y-62182380D01*
X121739819Y-62182380D02*
X121739819Y-62277618D01*
X121739819Y-62277618D02*
X121692200Y-62372856D01*
X121692200Y-62372856D02*
X121644580Y-62420475D01*
X121644580Y-62420475D02*
X121549342Y-62468094D01*
X121549342Y-62468094D02*
X121358866Y-62515713D01*
X121358866Y-62515713D02*
X121120771Y-62515713D01*
X121120771Y-62515713D02*
X120930295Y-62468094D01*
X120930295Y-62468094D02*
X120835057Y-62420475D01*
X120835057Y-62420475D02*
X120787438Y-62372856D01*
X120787438Y-62372856D02*
X120739819Y-62277618D01*
X49715057Y-52355713D02*
X49667438Y-52308094D01*
X49667438Y-52308094D02*
X49619819Y-52212856D01*
X49619819Y-52212856D02*
X49619819Y-51974761D01*
X49619819Y-51974761D02*
X49667438Y-51879523D01*
X49667438Y-51879523D02*
X49715057Y-51831904D01*
X49715057Y-51831904D02*
X49810295Y-51784285D01*
X49810295Y-51784285D02*
X49905533Y-51784285D01*
X49905533Y-51784285D02*
X50048390Y-51831904D01*
X50048390Y-51831904D02*
X50619819Y-52403332D01*
X50619819Y-52403332D02*
X50619819Y-51784285D01*
X67399819Y-62277618D02*
X67399819Y-62182380D01*
X67399819Y-62182380D02*
X67447438Y-62087142D01*
X67447438Y-62087142D02*
X67495057Y-62039523D01*
X67495057Y-62039523D02*
X67590295Y-61991904D01*
X67590295Y-61991904D02*
X67780771Y-61944285D01*
X67780771Y-61944285D02*
X68018866Y-61944285D01*
X68018866Y-61944285D02*
X68209342Y-61991904D01*
X68209342Y-61991904D02*
X68304580Y-62039523D01*
X68304580Y-62039523D02*
X68352200Y-62087142D01*
X68352200Y-62087142D02*
X68399819Y-62182380D01*
X68399819Y-62182380D02*
X68399819Y-62277618D01*
X68399819Y-62277618D02*
X68352200Y-62372856D01*
X68352200Y-62372856D02*
X68304580Y-62420475D01*
X68304580Y-62420475D02*
X68209342Y-62468094D01*
X68209342Y-62468094D02*
X68018866Y-62515713D01*
X68018866Y-62515713D02*
X67780771Y-62515713D01*
X67780771Y-62515713D02*
X67590295Y-62468094D01*
X67590295Y-62468094D02*
X67495057Y-62420475D01*
X67495057Y-62420475D02*
X67447438Y-62372856D01*
X67447438Y-62372856D02*
X67399819Y-62277618D01*
X21409819Y-72866189D02*
X20409819Y-72866189D01*
X20409819Y-72199523D02*
X20409819Y-72104285D01*
X20409819Y-72104285D02*
X20457438Y-72009047D01*
X20457438Y-72009047D02*
X20505057Y-71961428D01*
X20505057Y-71961428D02*
X20600295Y-71913809D01*
X20600295Y-71913809D02*
X20790771Y-71866190D01*
X20790771Y-71866190D02*
X21028866Y-71866190D01*
X21028866Y-71866190D02*
X21219342Y-71913809D01*
X21219342Y-71913809D02*
X21314580Y-71961428D01*
X21314580Y-71961428D02*
X21362200Y-72009047D01*
X21362200Y-72009047D02*
X21409819Y-72104285D01*
X21409819Y-72104285D02*
X21409819Y-72199523D01*
X21409819Y-72199523D02*
X21362200Y-72294761D01*
X21362200Y-72294761D02*
X21314580Y-72342380D01*
X21314580Y-72342380D02*
X21219342Y-72389999D01*
X21219342Y-72389999D02*
X21028866Y-72437618D01*
X21028866Y-72437618D02*
X20790771Y-72437618D01*
X20790771Y-72437618D02*
X20600295Y-72389999D01*
X20600295Y-72389999D02*
X20505057Y-72342380D01*
X20505057Y-72342380D02*
X20457438Y-72294761D01*
X20457438Y-72294761D02*
X20409819Y-72199523D01*
X21409819Y-77946189D02*
X20409819Y-77946189D01*
X20505057Y-77517618D02*
X20457438Y-77469999D01*
X20457438Y-77469999D02*
X20409819Y-77374761D01*
X20409819Y-77374761D02*
X20409819Y-77136666D01*
X20409819Y-77136666D02*
X20457438Y-77041428D01*
X20457438Y-77041428D02*
X20505057Y-76993809D01*
X20505057Y-76993809D02*
X20600295Y-76946190D01*
X20600295Y-76946190D02*
X20695533Y-76946190D01*
X20695533Y-76946190D02*
X20838390Y-76993809D01*
X20838390Y-76993809D02*
X21409819Y-77565237D01*
X21409819Y-77565237D02*
X21409819Y-76946190D01*
X14059819Y-47323332D02*
X14059819Y-46704285D01*
X14059819Y-46704285D02*
X14440771Y-47037618D01*
X14440771Y-47037618D02*
X14440771Y-46894761D01*
X14440771Y-46894761D02*
X14488390Y-46799523D01*
X14488390Y-46799523D02*
X14536009Y-46751904D01*
X14536009Y-46751904D02*
X14631247Y-46704285D01*
X14631247Y-46704285D02*
X14869342Y-46704285D01*
X14869342Y-46704285D02*
X14964580Y-46751904D01*
X14964580Y-46751904D02*
X15012200Y-46799523D01*
X15012200Y-46799523D02*
X15059819Y-46894761D01*
X15059819Y-46894761D02*
X15059819Y-47180475D01*
X15059819Y-47180475D02*
X15012200Y-47275713D01*
X15012200Y-47275713D02*
X14964580Y-47323332D01*
X85179819Y-31559523D02*
X85179819Y-31749999D01*
X85179819Y-31749999D02*
X85227438Y-31845237D01*
X85227438Y-31845237D02*
X85275057Y-31892856D01*
X85275057Y-31892856D02*
X85417914Y-31988094D01*
X85417914Y-31988094D02*
X85608390Y-32035713D01*
X85608390Y-32035713D02*
X85989342Y-32035713D01*
X85989342Y-32035713D02*
X86084580Y-31988094D01*
X86084580Y-31988094D02*
X86132200Y-31940475D01*
X86132200Y-31940475D02*
X86179819Y-31845237D01*
X86179819Y-31845237D02*
X86179819Y-31654761D01*
X86179819Y-31654761D02*
X86132200Y-31559523D01*
X86132200Y-31559523D02*
X86084580Y-31511904D01*
X86084580Y-31511904D02*
X85989342Y-31464285D01*
X85989342Y-31464285D02*
X85751247Y-31464285D01*
X85751247Y-31464285D02*
X85656009Y-31511904D01*
X85656009Y-31511904D02*
X85608390Y-31559523D01*
X85608390Y-31559523D02*
X85560771Y-31654761D01*
X85560771Y-31654761D02*
X85560771Y-31845237D01*
X85560771Y-31845237D02*
X85608390Y-31940475D01*
X85608390Y-31940475D02*
X85656009Y-31988094D01*
X85656009Y-31988094D02*
X85751247Y-32035713D01*
X168761604Y-97567143D02*
X168761604Y-97090953D01*
X169047319Y-97662381D02*
X168047319Y-97329048D01*
X168047319Y-97329048D02*
X169047319Y-96995715D01*
X169047319Y-96186191D02*
X169047319Y-96662381D01*
X169047319Y-96662381D02*
X168047319Y-96662381D01*
X168047319Y-95852857D02*
X168856842Y-95852857D01*
X168856842Y-95852857D02*
X168952080Y-95805238D01*
X168952080Y-95805238D02*
X168999700Y-95757619D01*
X168999700Y-95757619D02*
X169047319Y-95662381D01*
X169047319Y-95662381D02*
X169047319Y-95471905D01*
X169047319Y-95471905D02*
X168999700Y-95376667D01*
X168999700Y-95376667D02*
X168952080Y-95329048D01*
X168952080Y-95329048D02*
X168856842Y-95281429D01*
X168856842Y-95281429D02*
X168047319Y-95281429D01*
X169047319Y-93567143D02*
X169047319Y-94043333D01*
X169047319Y-94043333D02*
X168047319Y-94043333D01*
X169047319Y-93090952D02*
X168999700Y-93186190D01*
X168999700Y-93186190D02*
X168952080Y-93233809D01*
X168952080Y-93233809D02*
X168856842Y-93281428D01*
X168856842Y-93281428D02*
X168571128Y-93281428D01*
X168571128Y-93281428D02*
X168475890Y-93233809D01*
X168475890Y-93233809D02*
X168428271Y-93186190D01*
X168428271Y-93186190D02*
X168380652Y-93090952D01*
X168380652Y-93090952D02*
X168380652Y-92948095D01*
X168380652Y-92948095D02*
X168428271Y-92852857D01*
X168428271Y-92852857D02*
X168475890Y-92805238D01*
X168475890Y-92805238D02*
X168571128Y-92757619D01*
X168571128Y-92757619D02*
X168856842Y-92757619D01*
X168856842Y-92757619D02*
X168952080Y-92805238D01*
X168952080Y-92805238D02*
X168999700Y-92852857D01*
X168999700Y-92852857D02*
X169047319Y-92948095D01*
X169047319Y-92948095D02*
X169047319Y-93090952D01*
X168380652Y-92424285D02*
X169047319Y-92233809D01*
X169047319Y-92233809D02*
X168571128Y-92043333D01*
X168571128Y-92043333D02*
X169047319Y-91852857D01*
X169047319Y-91852857D02*
X168380652Y-91662381D01*
X169047319Y-90519523D02*
X168047319Y-90519523D01*
X168428271Y-90519523D02*
X168380652Y-90424285D01*
X168380652Y-90424285D02*
X168380652Y-90233809D01*
X168380652Y-90233809D02*
X168428271Y-90138571D01*
X168428271Y-90138571D02*
X168475890Y-90090952D01*
X168475890Y-90090952D02*
X168571128Y-90043333D01*
X168571128Y-90043333D02*
X168856842Y-90043333D01*
X168856842Y-90043333D02*
X168952080Y-90090952D01*
X168952080Y-90090952D02*
X168999700Y-90138571D01*
X168999700Y-90138571D02*
X169047319Y-90233809D01*
X169047319Y-90233809D02*
X169047319Y-90424285D01*
X169047319Y-90424285D02*
X168999700Y-90519523D01*
X168380652Y-89709999D02*
X169047319Y-89471904D01*
X168380652Y-89233809D02*
X169047319Y-89471904D01*
X169047319Y-89471904D02*
X169285414Y-89567142D01*
X169285414Y-89567142D02*
X169333033Y-89614761D01*
X169333033Y-89614761D02*
X169380652Y-89709999D01*
X168380652Y-88995713D02*
X168380652Y-88614761D01*
X168047319Y-88852856D02*
X168904461Y-88852856D01*
X168904461Y-88852856D02*
X168999700Y-88805237D01*
X168999700Y-88805237D02*
X169047319Y-88709999D01*
X169047319Y-88709999D02*
X169047319Y-88614761D01*
X168999700Y-87900475D02*
X169047319Y-87995713D01*
X169047319Y-87995713D02*
X169047319Y-88186189D01*
X169047319Y-88186189D02*
X168999700Y-88281427D01*
X168999700Y-88281427D02*
X168904461Y-88329046D01*
X168904461Y-88329046D02*
X168523509Y-88329046D01*
X168523509Y-88329046D02*
X168428271Y-88281427D01*
X168428271Y-88281427D02*
X168380652Y-88186189D01*
X168380652Y-88186189D02*
X168380652Y-87995713D01*
X168380652Y-87995713D02*
X168428271Y-87900475D01*
X168428271Y-87900475D02*
X168523509Y-87852856D01*
X168523509Y-87852856D02*
X168618747Y-87852856D01*
X168618747Y-87852856D02*
X168713985Y-88329046D01*
D11*
X117749638Y-18113333D02*
X116797257Y-18780000D01*
X117749638Y-19256190D02*
X115749638Y-19256190D01*
X115749638Y-19256190D02*
X115749638Y-18494285D01*
X115749638Y-18494285D02*
X115844876Y-18303809D01*
X115844876Y-18303809D02*
X115940114Y-18208571D01*
X115940114Y-18208571D02*
X116130590Y-18113333D01*
X116130590Y-18113333D02*
X116416304Y-18113333D01*
X116416304Y-18113333D02*
X116606780Y-18208571D01*
X116606780Y-18208571D02*
X116702019Y-18303809D01*
X116702019Y-18303809D02*
X116797257Y-18494285D01*
X116797257Y-18494285D02*
X116797257Y-19256190D01*
X115940114Y-17351428D02*
X115844876Y-17256190D01*
X115844876Y-17256190D02*
X115749638Y-17065714D01*
X115749638Y-17065714D02*
X115749638Y-16589523D01*
X115749638Y-16589523D02*
X115844876Y-16399047D01*
X115844876Y-16399047D02*
X115940114Y-16303809D01*
X115940114Y-16303809D02*
X116130590Y-16208571D01*
X116130590Y-16208571D02*
X116321066Y-16208571D01*
X116321066Y-16208571D02*
X116606780Y-16303809D01*
X116606780Y-16303809D02*
X117749638Y-17446666D01*
X117749638Y-17446666D02*
X117749638Y-16208571D01*
X99969638Y-18113333D02*
X99017257Y-18780000D01*
X99969638Y-19256190D02*
X97969638Y-19256190D01*
X97969638Y-19256190D02*
X97969638Y-18494285D01*
X97969638Y-18494285D02*
X98064876Y-18303809D01*
X98064876Y-18303809D02*
X98160114Y-18208571D01*
X98160114Y-18208571D02*
X98350590Y-18113333D01*
X98350590Y-18113333D02*
X98636304Y-18113333D01*
X98636304Y-18113333D02*
X98826780Y-18208571D01*
X98826780Y-18208571D02*
X98922019Y-18303809D01*
X98922019Y-18303809D02*
X99017257Y-18494285D01*
X99017257Y-18494285D02*
X99017257Y-19256190D01*
X97969638Y-17446666D02*
X97969638Y-16208571D01*
X97969638Y-16208571D02*
X98731542Y-16875238D01*
X98731542Y-16875238D02*
X98731542Y-16589523D01*
X98731542Y-16589523D02*
X98826780Y-16399047D01*
X98826780Y-16399047D02*
X98922019Y-16303809D01*
X98922019Y-16303809D02*
X99112495Y-16208571D01*
X99112495Y-16208571D02*
X99588685Y-16208571D01*
X99588685Y-16208571D02*
X99779161Y-16303809D01*
X99779161Y-16303809D02*
X99874400Y-16399047D01*
X99874400Y-16399047D02*
X99969638Y-16589523D01*
X99969638Y-16589523D02*
X99969638Y-17160952D01*
X99969638Y-17160952D02*
X99874400Y-17351428D01*
X99874400Y-17351428D02*
X99779161Y-17446666D01*
X153309638Y-18113333D02*
X152357257Y-18780000D01*
X153309638Y-19256190D02*
X151309638Y-19256190D01*
X151309638Y-19256190D02*
X151309638Y-18494285D01*
X151309638Y-18494285D02*
X151404876Y-18303809D01*
X151404876Y-18303809D02*
X151500114Y-18208571D01*
X151500114Y-18208571D02*
X151690590Y-18113333D01*
X151690590Y-18113333D02*
X151976304Y-18113333D01*
X151976304Y-18113333D02*
X152166780Y-18208571D01*
X152166780Y-18208571D02*
X152262019Y-18303809D01*
X152262019Y-18303809D02*
X152357257Y-18494285D01*
X152357257Y-18494285D02*
X152357257Y-19256190D01*
X151309638Y-16875238D02*
X151309638Y-16684761D01*
X151309638Y-16684761D02*
X151404876Y-16494285D01*
X151404876Y-16494285D02*
X151500114Y-16399047D01*
X151500114Y-16399047D02*
X151690590Y-16303809D01*
X151690590Y-16303809D02*
X152071542Y-16208571D01*
X152071542Y-16208571D02*
X152547733Y-16208571D01*
X152547733Y-16208571D02*
X152928685Y-16303809D01*
X152928685Y-16303809D02*
X153119161Y-16399047D01*
X153119161Y-16399047D02*
X153214400Y-16494285D01*
X153214400Y-16494285D02*
X153309638Y-16684761D01*
X153309638Y-16684761D02*
X153309638Y-16875238D01*
X153309638Y-16875238D02*
X153214400Y-17065714D01*
X153214400Y-17065714D02*
X153119161Y-17160952D01*
X153119161Y-17160952D02*
X152928685Y-17256190D01*
X152928685Y-17256190D02*
X152547733Y-17351428D01*
X152547733Y-17351428D02*
X152071542Y-17351428D01*
X152071542Y-17351428D02*
X151690590Y-17256190D01*
X151690590Y-17256190D02*
X151500114Y-17160952D01*
X151500114Y-17160952D02*
X151404876Y-17065714D01*
X151404876Y-17065714D02*
X151309638Y-16875238D01*
D13*
X20409819Y-42481428D02*
X20409819Y-42290952D01*
X20409819Y-42290952D02*
X20457438Y-42195714D01*
X20457438Y-42195714D02*
X20552676Y-42100476D01*
X20552676Y-42100476D02*
X20743152Y-42052857D01*
X20743152Y-42052857D02*
X21076485Y-42052857D01*
X21076485Y-42052857D02*
X21266961Y-42100476D01*
X21266961Y-42100476D02*
X21362200Y-42195714D01*
X21362200Y-42195714D02*
X21409819Y-42290952D01*
X21409819Y-42290952D02*
X21409819Y-42481428D01*
X21409819Y-42481428D02*
X21362200Y-42576666D01*
X21362200Y-42576666D02*
X21266961Y-42671904D01*
X21266961Y-42671904D02*
X21076485Y-42719523D01*
X21076485Y-42719523D02*
X20743152Y-42719523D01*
X20743152Y-42719523D02*
X20552676Y-42671904D01*
X20552676Y-42671904D02*
X20457438Y-42576666D01*
X20457438Y-42576666D02*
X20409819Y-42481428D01*
X20409819Y-41148095D02*
X20409819Y-41624285D01*
X20409819Y-41624285D02*
X20886009Y-41671904D01*
X20886009Y-41671904D02*
X20838390Y-41624285D01*
X20838390Y-41624285D02*
X20790771Y-41529047D01*
X20790771Y-41529047D02*
X20790771Y-41290952D01*
X20790771Y-41290952D02*
X20838390Y-41195714D01*
X20838390Y-41195714D02*
X20886009Y-41148095D01*
X20886009Y-41148095D02*
X20981247Y-41100476D01*
X20981247Y-41100476D02*
X21219342Y-41100476D01*
X21219342Y-41100476D02*
X21314580Y-41148095D01*
X21314580Y-41148095D02*
X21362200Y-41195714D01*
X21362200Y-41195714D02*
X21409819Y-41290952D01*
X21409819Y-41290952D02*
X21409819Y-41529047D01*
X21409819Y-41529047D02*
X21362200Y-41624285D01*
X21362200Y-41624285D02*
X21314580Y-41671904D01*
X14155057Y-52355713D02*
X14107438Y-52308094D01*
X14107438Y-52308094D02*
X14059819Y-52212856D01*
X14059819Y-52212856D02*
X14059819Y-51974761D01*
X14059819Y-51974761D02*
X14107438Y-51879523D01*
X14107438Y-51879523D02*
X14155057Y-51831904D01*
X14155057Y-51831904D02*
X14250295Y-51784285D01*
X14250295Y-51784285D02*
X14345533Y-51784285D01*
X14345533Y-51784285D02*
X14488390Y-51831904D01*
X14488390Y-51831904D02*
X15059819Y-52403332D01*
X15059819Y-52403332D02*
X15059819Y-51784285D01*
X20457438Y-63190357D02*
X20409819Y-63285595D01*
X20409819Y-63285595D02*
X20409819Y-63428452D01*
X20409819Y-63428452D02*
X20457438Y-63571309D01*
X20457438Y-63571309D02*
X20552676Y-63666547D01*
X20552676Y-63666547D02*
X20647914Y-63714166D01*
X20647914Y-63714166D02*
X20838390Y-63761785D01*
X20838390Y-63761785D02*
X20981247Y-63761785D01*
X20981247Y-63761785D02*
X21171723Y-63714166D01*
X21171723Y-63714166D02*
X21266961Y-63666547D01*
X21266961Y-63666547D02*
X21362200Y-63571309D01*
X21362200Y-63571309D02*
X21409819Y-63428452D01*
X21409819Y-63428452D02*
X21409819Y-63333214D01*
X21409819Y-63333214D02*
X21362200Y-63190357D01*
X21362200Y-63190357D02*
X21314580Y-63142738D01*
X21314580Y-63142738D02*
X20981247Y-63142738D01*
X20981247Y-63142738D02*
X20981247Y-63333214D01*
X20743152Y-62714166D02*
X21409819Y-62714166D01*
X20838390Y-62714166D02*
X20790771Y-62666547D01*
X20790771Y-62666547D02*
X20743152Y-62571309D01*
X20743152Y-62571309D02*
X20743152Y-62428452D01*
X20743152Y-62428452D02*
X20790771Y-62333214D01*
X20790771Y-62333214D02*
X20886009Y-62285595D01*
X20886009Y-62285595D02*
X21409819Y-62285595D01*
X21409819Y-61380833D02*
X20409819Y-61380833D01*
X21362200Y-61380833D02*
X21409819Y-61476071D01*
X21409819Y-61476071D02*
X21409819Y-61666547D01*
X21409819Y-61666547D02*
X21362200Y-61761785D01*
X21362200Y-61761785D02*
X21314580Y-61809404D01*
X21314580Y-61809404D02*
X21219342Y-61857023D01*
X21219342Y-61857023D02*
X20933628Y-61857023D01*
X20933628Y-61857023D02*
X20838390Y-61809404D01*
X20838390Y-61809404D02*
X20790771Y-61761785D01*
X20790771Y-61761785D02*
X20743152Y-61666547D01*
X20743152Y-61666547D02*
X20743152Y-61476071D01*
X20743152Y-61476071D02*
X20790771Y-61380833D01*
D11*
X64409638Y-18113333D02*
X63457257Y-18780000D01*
X64409638Y-19256190D02*
X62409638Y-19256190D01*
X62409638Y-19256190D02*
X62409638Y-18494285D01*
X62409638Y-18494285D02*
X62504876Y-18303809D01*
X62504876Y-18303809D02*
X62600114Y-18208571D01*
X62600114Y-18208571D02*
X62790590Y-18113333D01*
X62790590Y-18113333D02*
X63076304Y-18113333D01*
X63076304Y-18113333D02*
X63266780Y-18208571D01*
X63266780Y-18208571D02*
X63362019Y-18303809D01*
X63362019Y-18303809D02*
X63457257Y-18494285D01*
X63457257Y-18494285D02*
X63457257Y-19256190D01*
X62409638Y-16303809D02*
X62409638Y-17256190D01*
X62409638Y-17256190D02*
X63362019Y-17351428D01*
X63362019Y-17351428D02*
X63266780Y-17256190D01*
X63266780Y-17256190D02*
X63171542Y-17065714D01*
X63171542Y-17065714D02*
X63171542Y-16589523D01*
X63171542Y-16589523D02*
X63266780Y-16399047D01*
X63266780Y-16399047D02*
X63362019Y-16303809D01*
X63362019Y-16303809D02*
X63552495Y-16208571D01*
X63552495Y-16208571D02*
X64028685Y-16208571D01*
X64028685Y-16208571D02*
X64219161Y-16303809D01*
X64219161Y-16303809D02*
X64314400Y-16399047D01*
X64314400Y-16399047D02*
X64409638Y-16589523D01*
X64409638Y-16589523D02*
X64409638Y-17065714D01*
X64409638Y-17065714D02*
X64314400Y-17256190D01*
X64314400Y-17256190D02*
X64219161Y-17351428D01*
D13*
X140446190Y-70939819D02*
X140112857Y-70463628D01*
X139874762Y-70939819D02*
X139874762Y-69939819D01*
X139874762Y-69939819D02*
X140255714Y-69939819D01*
X140255714Y-69939819D02*
X140350952Y-69987438D01*
X140350952Y-69987438D02*
X140398571Y-70035057D01*
X140398571Y-70035057D02*
X140446190Y-70130295D01*
X140446190Y-70130295D02*
X140446190Y-70273152D01*
X140446190Y-70273152D02*
X140398571Y-70368390D01*
X140398571Y-70368390D02*
X140350952Y-70416009D01*
X140350952Y-70416009D02*
X140255714Y-70463628D01*
X140255714Y-70463628D02*
X139874762Y-70463628D01*
X141255714Y-70892200D02*
X141160476Y-70939819D01*
X141160476Y-70939819D02*
X140970000Y-70939819D01*
X140970000Y-70939819D02*
X140874762Y-70892200D01*
X140874762Y-70892200D02*
X140827143Y-70796961D01*
X140827143Y-70796961D02*
X140827143Y-70416009D01*
X140827143Y-70416009D02*
X140874762Y-70320771D01*
X140874762Y-70320771D02*
X140970000Y-70273152D01*
X140970000Y-70273152D02*
X141160476Y-70273152D01*
X141160476Y-70273152D02*
X141255714Y-70320771D01*
X141255714Y-70320771D02*
X141303333Y-70416009D01*
X141303333Y-70416009D02*
X141303333Y-70511247D01*
X141303333Y-70511247D02*
X140827143Y-70606485D01*
X141684286Y-70892200D02*
X141779524Y-70939819D01*
X141779524Y-70939819D02*
X141970000Y-70939819D01*
X141970000Y-70939819D02*
X142065238Y-70892200D01*
X142065238Y-70892200D02*
X142112857Y-70796961D01*
X142112857Y-70796961D02*
X142112857Y-70749342D01*
X142112857Y-70749342D02*
X142065238Y-70654104D01*
X142065238Y-70654104D02*
X141970000Y-70606485D01*
X141970000Y-70606485D02*
X141827143Y-70606485D01*
X141827143Y-70606485D02*
X141731905Y-70558866D01*
X141731905Y-70558866D02*
X141684286Y-70463628D01*
X141684286Y-70463628D02*
X141684286Y-70416009D01*
X141684286Y-70416009D02*
X141731905Y-70320771D01*
X141731905Y-70320771D02*
X141827143Y-70273152D01*
X141827143Y-70273152D02*
X141970000Y-70273152D01*
X141970000Y-70273152D02*
X142065238Y-70320771D01*
X139736667Y-69662200D02*
X142203334Y-69662200D01*
D14*
X139486428Y-101691857D02*
X138486428Y-100263285D01*
X137772142Y-101691857D02*
X137772142Y-98691857D01*
X137772142Y-98691857D02*
X138914999Y-98691857D01*
X138914999Y-98691857D02*
X139200714Y-98834714D01*
X139200714Y-98834714D02*
X139343571Y-98977571D01*
X139343571Y-98977571D02*
X139486428Y-99263285D01*
X139486428Y-99263285D02*
X139486428Y-99691857D01*
X139486428Y-99691857D02*
X139343571Y-99977571D01*
X139343571Y-99977571D02*
X139200714Y-100120428D01*
X139200714Y-100120428D02*
X138914999Y-100263285D01*
X138914999Y-100263285D02*
X137772142Y-100263285D01*
X140772142Y-100120428D02*
X141772142Y-100120428D01*
X142200714Y-101691857D02*
X140772142Y-101691857D01*
X140772142Y-101691857D02*
X140772142Y-98691857D01*
X140772142Y-98691857D02*
X142200714Y-98691857D01*
X145057857Y-98834714D02*
X144772143Y-98691857D01*
X144772143Y-98691857D02*
X144343571Y-98691857D01*
X144343571Y-98691857D02*
X143915000Y-98834714D01*
X143915000Y-98834714D02*
X143629285Y-99120428D01*
X143629285Y-99120428D02*
X143486428Y-99406142D01*
X143486428Y-99406142D02*
X143343571Y-99977571D01*
X143343571Y-99977571D02*
X143343571Y-100406142D01*
X143343571Y-100406142D02*
X143486428Y-100977571D01*
X143486428Y-100977571D02*
X143629285Y-101263285D01*
X143629285Y-101263285D02*
X143915000Y-101549000D01*
X143915000Y-101549000D02*
X144343571Y-101691857D01*
X144343571Y-101691857D02*
X144629285Y-101691857D01*
X144629285Y-101691857D02*
X145057857Y-101549000D01*
X145057857Y-101549000D02*
X145200714Y-101406142D01*
X145200714Y-101406142D02*
X145200714Y-100406142D01*
X145200714Y-100406142D02*
X144629285Y-100406142D01*
X146343571Y-101549000D02*
X146772143Y-101691857D01*
X146772143Y-101691857D02*
X147486428Y-101691857D01*
X147486428Y-101691857D02*
X147772143Y-101549000D01*
X147772143Y-101549000D02*
X147915000Y-101406142D01*
X147915000Y-101406142D02*
X148057857Y-101120428D01*
X148057857Y-101120428D02*
X148057857Y-100834714D01*
X148057857Y-100834714D02*
X147915000Y-100549000D01*
X147915000Y-100549000D02*
X147772143Y-100406142D01*
X147772143Y-100406142D02*
X147486428Y-100263285D01*
X147486428Y-100263285D02*
X146915000Y-100120428D01*
X146915000Y-100120428D02*
X146629285Y-99977571D01*
X146629285Y-99977571D02*
X146486428Y-99834714D01*
X146486428Y-99834714D02*
X146343571Y-99549000D01*
X146343571Y-99549000D02*
X146343571Y-99263285D01*
X146343571Y-99263285D02*
X146486428Y-98977571D01*
X146486428Y-98977571D02*
X146629285Y-98834714D01*
X146629285Y-98834714D02*
X146915000Y-98691857D01*
X146915000Y-98691857D02*
X147629285Y-98691857D01*
X147629285Y-98691857D02*
X148057857Y-98834714D01*
X149057857Y-99691857D02*
X149772143Y-101691857D01*
X149772143Y-101691857D02*
X150486428Y-99691857D01*
X152915000Y-98691857D02*
X152343571Y-98691857D01*
X152343571Y-98691857D02*
X152057857Y-98834714D01*
X152057857Y-98834714D02*
X151915000Y-98977571D01*
X151915000Y-98977571D02*
X151629285Y-99406142D01*
X151629285Y-99406142D02*
X151486428Y-99977571D01*
X151486428Y-99977571D02*
X151486428Y-101120428D01*
X151486428Y-101120428D02*
X151629285Y-101406142D01*
X151629285Y-101406142D02*
X151772142Y-101549000D01*
X151772142Y-101549000D02*
X152057857Y-101691857D01*
X152057857Y-101691857D02*
X152629285Y-101691857D01*
X152629285Y-101691857D02*
X152915000Y-101549000D01*
X152915000Y-101549000D02*
X153057857Y-101406142D01*
X153057857Y-101406142D02*
X153200714Y-101120428D01*
X153200714Y-101120428D02*
X153200714Y-100406142D01*
X153200714Y-100406142D02*
X153057857Y-100120428D01*
X153057857Y-100120428D02*
X152915000Y-99977571D01*
X152915000Y-99977571D02*
X152629285Y-99834714D01*
X152629285Y-99834714D02*
X152057857Y-99834714D01*
X152057857Y-99834714D02*
X151772142Y-99977571D01*
X151772142Y-99977571D02*
X151629285Y-100120428D01*
X151629285Y-100120428D02*
X151486428Y-100406142D01*
D13*
X21409819Y-83026189D02*
X20409819Y-83026189D01*
X20743152Y-82121428D02*
X21409819Y-82121428D01*
X20362200Y-82359523D02*
X21076485Y-82597618D01*
X21076485Y-82597618D02*
X21076485Y-81978571D01*
D11*
X68759638Y-95281666D02*
X70759638Y-94615000D01*
X70759638Y-94615000D02*
X68759638Y-93948333D01*
D13*
X99994819Y-106648094D02*
X100804342Y-106648094D01*
X100804342Y-106648094D02*
X100899580Y-106600475D01*
X100899580Y-106600475D02*
X100947200Y-106552856D01*
X100947200Y-106552856D02*
X100994819Y-106457618D01*
X100994819Y-106457618D02*
X100994819Y-106267142D01*
X100994819Y-106267142D02*
X100947200Y-106171904D01*
X100947200Y-106171904D02*
X100899580Y-106124285D01*
X100899580Y-106124285D02*
X100804342Y-106076666D01*
X100804342Y-106076666D02*
X99994819Y-106076666D01*
X100994819Y-105076666D02*
X100994819Y-105648094D01*
X100994819Y-105362380D02*
X99994819Y-105362380D01*
X99994819Y-105362380D02*
X100137676Y-105457618D01*
X100137676Y-105457618D02*
X100232914Y-105552856D01*
X100232914Y-105552856D02*
X100280533Y-105648094D01*
X100328152Y-104219523D02*
X100994819Y-104219523D01*
X99947200Y-104457618D02*
X100661485Y-104695713D01*
X100661485Y-104695713D02*
X100661485Y-104076666D01*
X160686905Y-101689819D02*
X160686905Y-102499342D01*
X160686905Y-102499342D02*
X160734524Y-102594580D01*
X160734524Y-102594580D02*
X160782143Y-102642200D01*
X160782143Y-102642200D02*
X160877381Y-102689819D01*
X160877381Y-102689819D02*
X161067857Y-102689819D01*
X161067857Y-102689819D02*
X161163095Y-102642200D01*
X161163095Y-102642200D02*
X161210714Y-102594580D01*
X161210714Y-102594580D02*
X161258333Y-102499342D01*
X161258333Y-102499342D02*
X161258333Y-101689819D01*
X162258333Y-102689819D02*
X161686905Y-102689819D01*
X161972619Y-102689819D02*
X161972619Y-101689819D01*
X161972619Y-101689819D02*
X161877381Y-101832676D01*
X161877381Y-101832676D02*
X161782143Y-101927914D01*
X161782143Y-101927914D02*
X161686905Y-101975533D01*
X163163095Y-101689819D02*
X162686905Y-101689819D01*
X162686905Y-101689819D02*
X162639286Y-102166009D01*
X162639286Y-102166009D02*
X162686905Y-102118390D01*
X162686905Y-102118390D02*
X162782143Y-102070771D01*
X162782143Y-102070771D02*
X163020238Y-102070771D01*
X163020238Y-102070771D02*
X163115476Y-102118390D01*
X163115476Y-102118390D02*
X163163095Y-102166009D01*
X163163095Y-102166009D02*
X163210714Y-102261247D01*
X163210714Y-102261247D02*
X163210714Y-102499342D01*
X163210714Y-102499342D02*
X163163095Y-102594580D01*
X163163095Y-102594580D02*
X163115476Y-102642200D01*
X163115476Y-102642200D02*
X163020238Y-102689819D01*
X163020238Y-102689819D02*
X162782143Y-102689819D01*
X162782143Y-102689819D02*
X162686905Y-102642200D01*
X162686905Y-102642200D02*
X162639286Y-102594580D01*
X46654819Y-99663094D02*
X47464342Y-99663094D01*
X47464342Y-99663094D02*
X47559580Y-99615475D01*
X47559580Y-99615475D02*
X47607200Y-99567856D01*
X47607200Y-99567856D02*
X47654819Y-99472618D01*
X47654819Y-99472618D02*
X47654819Y-99282142D01*
X47654819Y-99282142D02*
X47607200Y-99186904D01*
X47607200Y-99186904D02*
X47559580Y-99139285D01*
X47559580Y-99139285D02*
X47464342Y-99091666D01*
X47464342Y-99091666D02*
X46654819Y-99091666D01*
X47654819Y-98091666D02*
X47654819Y-98663094D01*
X47654819Y-98377380D02*
X46654819Y-98377380D01*
X46654819Y-98377380D02*
X46797676Y-98472618D01*
X46797676Y-98472618D02*
X46892914Y-98567856D01*
X46892914Y-98567856D02*
X46940533Y-98663094D01*
X46654819Y-97758332D02*
X46654819Y-97139285D01*
X46654819Y-97139285D02*
X47035771Y-97472618D01*
X47035771Y-97472618D02*
X47035771Y-97329761D01*
X47035771Y-97329761D02*
X47083390Y-97234523D01*
X47083390Y-97234523D02*
X47131009Y-97186904D01*
X47131009Y-97186904D02*
X47226247Y-97139285D01*
X47226247Y-97139285D02*
X47464342Y-97139285D01*
X47464342Y-97139285D02*
X47559580Y-97186904D01*
X47559580Y-97186904D02*
X47607200Y-97234523D01*
X47607200Y-97234523D02*
X47654819Y-97329761D01*
X47654819Y-97329761D02*
X47654819Y-97615475D01*
X47654819Y-97615475D02*
X47607200Y-97710713D01*
X47607200Y-97710713D02*
X47559580Y-97758332D01*
X89431905Y-98244819D02*
X89431905Y-97244819D01*
X89431905Y-97244819D02*
X89670000Y-97244819D01*
X89670000Y-97244819D02*
X89812857Y-97292438D01*
X89812857Y-97292438D02*
X89908095Y-97387676D01*
X89908095Y-97387676D02*
X89955714Y-97482914D01*
X89955714Y-97482914D02*
X90003333Y-97673390D01*
X90003333Y-97673390D02*
X90003333Y-97816247D01*
X90003333Y-97816247D02*
X89955714Y-98006723D01*
X89955714Y-98006723D02*
X89908095Y-98101961D01*
X89908095Y-98101961D02*
X89812857Y-98197200D01*
X89812857Y-98197200D02*
X89670000Y-98244819D01*
X89670000Y-98244819D02*
X89431905Y-98244819D01*
X90955714Y-98244819D02*
X90384286Y-98244819D01*
X90670000Y-98244819D02*
X90670000Y-97244819D01*
X90670000Y-97244819D02*
X90574762Y-97387676D01*
X90574762Y-97387676D02*
X90479524Y-97482914D01*
X90479524Y-97482914D02*
X90384286Y-97530533D01*
%TO.C,U3*%
X113030000Y-21590000D02*
X119380000Y-21590000D01*
X113030000Y-92710000D02*
X113030000Y-21590000D01*
X119380000Y-21590000D02*
X119380000Y-92710000D01*
X119380000Y-92710000D02*
X113030000Y-92710000D01*
%TO.C,U5*%
X77470000Y-21590000D02*
X83820000Y-21590000D01*
X77470000Y-92710000D02*
X77470000Y-21590000D01*
X83820000Y-21590000D02*
X83820000Y-92710000D01*
X83820000Y-92710000D02*
X77470000Y-92710000D01*
%TO.C,U7*%
X41910000Y-21590000D02*
X48260000Y-21590000D01*
X41910000Y-92710000D02*
X41910000Y-21590000D01*
X48260000Y-21590000D02*
X48260000Y-92710000D01*
X48260000Y-92710000D02*
X41910000Y-92710000D01*
%TO.C,U4*%
X95250000Y-21590000D02*
X101600000Y-21590000D01*
X95250000Y-92710000D02*
X95250000Y-21590000D01*
X101600000Y-21590000D02*
X101600000Y-92710000D01*
X101600000Y-92710000D02*
X95250000Y-92710000D01*
%TO.C,U6*%
X59690000Y-21590000D02*
X66040000Y-21590000D01*
X59690000Y-92710000D02*
X59690000Y-21590000D01*
X66040000Y-21590000D02*
X66040000Y-92710000D01*
X66040000Y-92710000D02*
X59690000Y-92710000D01*
%TO.C,U8*%
X24130000Y-21590000D02*
X30480000Y-21590000D01*
X24130000Y-92710000D02*
X24130000Y-21590000D01*
X30480000Y-21590000D02*
X30480000Y-92710000D01*
X30480000Y-92710000D02*
X24130000Y-92710000D01*
%TO.C,U1*%
X148590000Y-21590000D02*
X154940000Y-21590000D01*
X148590000Y-92710000D02*
X148590000Y-21590000D01*
X154940000Y-21590000D02*
X154940000Y-92710000D01*
X154940000Y-92710000D02*
X148590000Y-92710000D01*
D10*
%TO.C,J11*%
X48200000Y-110550000D02*
X48200000Y-109220000D01*
X49530000Y-110550000D02*
X48200000Y-110550000D01*
X50800000Y-107890000D02*
X55940000Y-107890000D01*
X50800000Y-110550000D02*
X50800000Y-107890000D01*
X50800000Y-110550000D02*
X55940000Y-110550000D01*
X55940000Y-110550000D02*
X55940000Y-107890000D01*
%TO.C,J13*%
X86300000Y-65980000D02*
X87630000Y-65980000D01*
X86300000Y-67310000D02*
X86300000Y-65980000D01*
X86300000Y-68580000D02*
X86300000Y-68640000D01*
X86300000Y-68580000D02*
X88960000Y-68580000D01*
X86300000Y-68640000D02*
X88960000Y-68640000D01*
X88960000Y-68580000D02*
X88960000Y-68640000D01*
%TO.C,J14*%
X124717500Y-100905000D02*
X126047500Y-100905000D01*
X124717500Y-102235000D02*
X124717500Y-100905000D01*
X124717500Y-103505000D02*
X124717500Y-103565000D01*
X124717500Y-103505000D02*
X127377500Y-103505000D01*
X124717500Y-103565000D02*
X127377500Y-103565000D01*
X127377500Y-103505000D02*
X127377500Y-103565000D01*
%TO.C,J15*%
X104080000Y-107890000D02*
X105410000Y-107890000D01*
X104080000Y-109220000D02*
X104080000Y-107890000D01*
X104080000Y-110490000D02*
X104080000Y-110550000D01*
X104080000Y-110490000D02*
X106740000Y-110490000D01*
X104080000Y-110550000D02*
X106740000Y-110550000D01*
X106740000Y-110490000D02*
X106740000Y-110550000D01*
%TO.C,U14*%
X101480000Y-96460000D02*
X101480000Y-106740000D01*
X101480000Y-106740000D02*
X119500000Y-106740000D01*
X101540000Y-98950000D02*
X101540000Y-100600000D01*
X101540000Y-102600000D02*
X101540000Y-104250000D01*
X101540000Y-104250000D02*
X119440000Y-104250000D01*
X119440000Y-98950000D02*
X101540000Y-98950000D01*
X119440000Y-104250000D02*
X119440000Y-98950000D01*
X119500000Y-96460000D02*
X101480000Y-96460000D01*
X119500000Y-106740000D02*
X119500000Y-96460000D01*
X101540000Y-100600000D02*
G75*
G02*
X101540000Y-102600000I0J-1000000D01*
G01*
%TO.C,J16*%
X31490000Y-109570000D02*
X31490000Y-110310000D01*
X31490000Y-110310000D02*
X31990000Y-110310000D01*
X31730000Y-100149000D02*
X31730000Y-110070000D01*
X31730000Y-100149000D02*
X41850000Y-100149000D01*
X31730000Y-103109000D02*
X41850000Y-103109000D01*
X31730000Y-108010000D02*
X41850000Y-108010000D01*
X31730000Y-109510000D02*
X41850000Y-109510000D01*
X31730000Y-110070000D02*
X41850000Y-110070000D01*
X38063000Y-106433000D02*
X38016000Y-106479000D01*
X38256000Y-106649000D02*
X38221000Y-106684000D01*
X40360000Y-104135000D02*
X40325000Y-104171000D01*
X40565000Y-104341000D02*
X40518000Y-104387000D01*
X41850000Y-100149000D02*
X41850000Y-110070000D01*
X32754573Y-106093042D02*
G75*
G02*
X32755000Y-104726000I1535420J683041D01*
G01*
X33606958Y-103874573D02*
G75*
G02*
X34974000Y-103875000I683041J-1535420D01*
G01*
X34318805Y-107090253D02*
G75*
G02*
X33606000Y-106945000I-28806J1680254D01*
G01*
X34973318Y-106944756D02*
G75*
G02*
X34290000Y-107090000I-683318J1534756D01*
G01*
X35825427Y-104726958D02*
G75*
G02*
X35825000Y-106094000I-1535427J-683042D01*
G01*
X40970000Y-105410000D02*
G75*
G02*
X37610000Y-105410000I-1680000J0D01*
G01*
X37610000Y-105410000D02*
G75*
G02*
X40970000Y-105410000I1680000J0D01*
G01*
%TO.C,J17*%
X169485000Y-81220000D02*
X170815000Y-81220000D01*
X169485000Y-82550000D02*
X169485000Y-81220000D01*
X169485000Y-83820000D02*
X169485000Y-104200000D01*
X169485000Y-83820000D02*
X172145000Y-83820000D01*
X169485000Y-104200000D02*
X172145000Y-104200000D01*
X172145000Y-83820000D02*
X172145000Y-104200000D01*
%TO.C,J18*%
X169485000Y-55820000D02*
X170815000Y-55820000D01*
X169485000Y-57150000D02*
X169485000Y-55820000D01*
X169485000Y-58420000D02*
X169485000Y-78800000D01*
X169485000Y-58420000D02*
X172145000Y-58420000D01*
X169485000Y-78800000D02*
X172145000Y-78800000D01*
X172145000Y-58420000D02*
X172145000Y-78800000D01*
%TO.C,J19*%
X34230000Y-65980000D02*
X35560000Y-65980000D01*
X34230000Y-67310000D02*
X34230000Y-65980000D01*
X34230000Y-68580000D02*
X34230000Y-68640000D01*
X34230000Y-68580000D02*
X36890000Y-68580000D01*
X34230000Y-68640000D02*
X36890000Y-68640000D01*
X36890000Y-68580000D02*
X36890000Y-68640000D01*
D13*
%TO.C,U9*%
X143510000Y-21590000D02*
X149860000Y-21590000D01*
X143510000Y-92710000D02*
X143510000Y-21590000D01*
X149860000Y-21590000D02*
X149860000Y-92710000D01*
X149860000Y-92710000D02*
X143510000Y-92710000D01*
%TO.C,U10*%
X125730000Y-21590000D02*
X132080000Y-21590000D01*
X125730000Y-92710000D02*
X125730000Y-21590000D01*
X132080000Y-21590000D02*
X132080000Y-92710000D01*
X132080000Y-92710000D02*
X125730000Y-92710000D01*
%TO.C,U11*%
X107950000Y-21590000D02*
X114300000Y-21590000D01*
X107950000Y-92710000D02*
X107950000Y-21590000D01*
X114300000Y-21590000D02*
X114300000Y-92710000D01*
X114300000Y-92710000D02*
X107950000Y-92710000D01*
%TO.C,U12*%
X90170000Y-21590000D02*
X96520000Y-21590000D01*
X90170000Y-92710000D02*
X90170000Y-21590000D01*
X96520000Y-21590000D02*
X96520000Y-92710000D01*
X96520000Y-92710000D02*
X90170000Y-92710000D01*
%TO.C,U16*%
X72390000Y-21590000D02*
X78740000Y-21590000D01*
X72390000Y-92710000D02*
X72390000Y-21590000D01*
X78740000Y-21590000D02*
X78740000Y-92710000D01*
X78740000Y-92710000D02*
X72390000Y-92710000D01*
%TO.C,U17*%
X54610000Y-21590000D02*
X60960000Y-21590000D01*
X54610000Y-92710000D02*
X54610000Y-21590000D01*
X60960000Y-21590000D02*
X60960000Y-92710000D01*
X60960000Y-92710000D02*
X54610000Y-92710000D01*
%TO.C,U18*%
X36830000Y-21590000D02*
X43180000Y-21590000D01*
X36830000Y-92710000D02*
X36830000Y-21590000D01*
X43180000Y-21590000D02*
X43180000Y-92710000D01*
X43180000Y-92710000D02*
X36830000Y-92710000D01*
%TO.C,U19*%
X19050000Y-21590000D02*
X25400000Y-21590000D01*
X19050000Y-92710000D02*
X19050000Y-21590000D01*
X25400000Y-21590000D02*
X25400000Y-92710000D01*
X25400000Y-92710000D02*
X19050000Y-92710000D01*
%TO.C,U2*%
X130810000Y-21590000D02*
X137160000Y-21590000D01*
X130810000Y-92710000D02*
X130810000Y-21590000D01*
X137160000Y-21590000D02*
X137160000Y-92710000D01*
X137160000Y-92710000D02*
X130810000Y-92710000D01*
%TO.C,U15*%
X160020000Y-21590000D02*
X167640000Y-21590000D01*
X160020000Y-102870000D02*
X160020000Y-21590000D01*
X167640000Y-21590000D02*
X167640000Y-102870000D01*
X167640000Y-102870000D02*
X160020000Y-102870000D01*
D10*
%TO.C,U13*%
X48140000Y-96460000D02*
X48140000Y-106740000D01*
X48140000Y-106740000D02*
X68700000Y-106740000D01*
X48200000Y-98950000D02*
X48200000Y-100600000D01*
X48200000Y-102600000D02*
X48200000Y-104250000D01*
X48200000Y-104250000D02*
X68640000Y-104250000D01*
X68640000Y-98950000D02*
X48200000Y-98950000D01*
X68640000Y-104250000D02*
X68640000Y-98950000D01*
X68700000Y-96460000D02*
X48140000Y-96460000D01*
X68700000Y-106740000D02*
X68700000Y-96460000D01*
X48200000Y-100600000D02*
G75*
G02*
X48200000Y-102600000I0J-1000000D01*
G01*
%TO.C,J20*%
X50740000Y-65980000D02*
X52070000Y-65980000D01*
X50740000Y-67310000D02*
X50740000Y-65980000D01*
X50740000Y-68580000D02*
X50740000Y-68640000D01*
X50740000Y-68580000D02*
X53400000Y-68580000D01*
X50740000Y-68640000D02*
X53400000Y-68640000D01*
X53400000Y-68580000D02*
X53400000Y-68640000D01*
%TO.C,J12*%
X76775000Y-99000000D02*
X78105000Y-99000000D01*
X76775000Y-100330000D02*
X76775000Y-99000000D01*
X76775000Y-101600000D02*
X76775000Y-101660000D01*
X76775000Y-101600000D02*
X79435000Y-101600000D01*
X76775000Y-101660000D02*
X79435000Y-101660000D01*
X79435000Y-101600000D02*
X79435000Y-101660000D01*
%TO.C,D1*%
X92372500Y-96245000D02*
X92372500Y-99335000D01*
X92372500Y-96245170D02*
G75*
G02*
X97922500Y-97790462I2560000J-1544830D01*
G01*
X97922500Y-97789538D02*
G75*
G02*
X92372500Y-99334830I-2990000J-462D01*
G01*
X97432500Y-97790000D02*
G75*
G02*
X92432500Y-97790000I-2500000J0D01*
G01*
X92432500Y-97790000D02*
G75*
G02*
X97432500Y-97790000I2500000J0D01*
G01*
%TO.C,J9*%
X120590000Y-92650000D02*
X121920000Y-92650000D01*
X120590000Y-93980000D02*
X120590000Y-92650000D01*
X120590000Y-95250000D02*
X120590000Y-95310000D01*
X120590000Y-95250000D02*
X123250000Y-95250000D01*
X120590000Y-95310000D02*
X123250000Y-95310000D01*
X123250000Y-95250000D02*
X123250000Y-95310000D01*
%TO.C,J10*%
X139640000Y-65980000D02*
X140970000Y-65980000D01*
X139640000Y-67310000D02*
X139640000Y-65980000D01*
X139640000Y-68580000D02*
X139640000Y-68640000D01*
X139640000Y-68580000D02*
X142300000Y-68580000D01*
X139640000Y-68640000D02*
X142300000Y-68640000D01*
X142300000Y-68580000D02*
X142300000Y-68640000D01*
%TO.C,J21*%
X104080000Y-65980000D02*
X105410000Y-65980000D01*
X104080000Y-67310000D02*
X104080000Y-65980000D01*
X104080000Y-68580000D02*
X104080000Y-68640000D01*
X104080000Y-68580000D02*
X106740000Y-68580000D01*
X104080000Y-68640000D02*
X106740000Y-68640000D01*
X106740000Y-68580000D02*
X106740000Y-68640000D01*
%TO.C,J22*%
X30420000Y-65980000D02*
X31750000Y-65980000D01*
X30420000Y-67310000D02*
X30420000Y-65980000D01*
X30420000Y-68580000D02*
X30420000Y-68640000D01*
X30420000Y-68580000D02*
X33080000Y-68580000D01*
X30420000Y-68640000D02*
X33080000Y-68640000D01*
X33080000Y-68580000D02*
X33080000Y-68640000D01*
%TO.C,J23*%
X121860000Y-65980000D02*
X123190000Y-65980000D01*
X121860000Y-67310000D02*
X121860000Y-65980000D01*
X121860000Y-68580000D02*
X121860000Y-68640000D01*
X121860000Y-68580000D02*
X124520000Y-68580000D01*
X121860000Y-68640000D02*
X124520000Y-68640000D01*
X124520000Y-68580000D02*
X124520000Y-68640000D01*
%TO.C,J24*%
X68520000Y-65980000D02*
X69850000Y-65980000D01*
X68520000Y-67310000D02*
X68520000Y-65980000D01*
X68520000Y-68580000D02*
X68520000Y-68640000D01*
X68520000Y-68580000D02*
X71180000Y-68580000D01*
X68520000Y-68640000D02*
X71180000Y-68640000D01*
X71180000Y-68580000D02*
X71180000Y-68640000D01*
%TD*%
M02*
