M48
; DRILL file {KiCad 9.0.6} date 2026-03-19T21:38:37+0300
; FORMAT={-:-/ absolute / metric / decimal}
; #@! TF.CreationDate,2026-03-19T21:38:37+03:00
; #@! TF.GenerationSoftware,Kicad,Pcbnew,9.0.6
; #@! TF.FileFunction,Plated,1,2,PTH
FMAT,2
METRIC
; #@! TA.AperFunction,Plated,PTH,ViaDrill
T1C0.400
; #@! TA.AperFunction,Plated,PTH,ViaDrill
T2C0.500
; #@! TA.AperFunction,Plated,PTH,ComponentDrill
T3C0.800
; #@! TA.AperFunction,Plated,PTH,ComponentDrill
T4C0.900
; #@! TA.AperFunction,Plated,PTH,ComponentDrill
T5C1.000
; #@! TA.AperFunction,Plated,PTH,ComponentDrill
T6C1.300
%
G90
G05
T1
X43.18Y-104.775
T2
X43.18Y-35.56
X43.18Y-39.37
X43.18Y-64.135
X48.895Y-99.695
X60.96Y-33.02
X65.405Y-35.56
X65.405Y-39.37
X67.31Y-36.195
X76.2Y-76.2
X77.47Y-104.14
X78.74Y-33.02
X83.185Y-35.56
X83.185Y-39.37
X83.82Y-73.66
X85.725Y-99.06
X86.995Y-107.315
X100.965Y-35.56
X100.965Y-39.37
X118.745Y-35.56
X118.745Y-39.37
X132.08Y-30.48
X137.795Y-78.74
X137.795Y-81.28
X137.795Y-83.82
X137.795Y-86.36
X137.795Y-88.9
X137.795Y-91.44
X137.795Y-93.98
X137.795Y-96.52
X165.735Y-81.28
T3
X63.5Y-102.245
X63.5Y-109.865
X66.04Y-102.245
X66.04Y-109.865
X68.58Y-102.245
X68.58Y-109.865
X71.12Y-102.245
X71.12Y-109.865
X73.66Y-102.245
X73.66Y-109.865
X76.2Y-102.245
X76.2Y-109.865
X78.74Y-109.865
X116.84Y-102.235
X116.84Y-109.855
X119.38Y-102.235
X119.38Y-109.855
X121.92Y-102.235
X121.92Y-109.855
X124.46Y-102.235
X124.46Y-109.855
X127.0Y-102.235
X127.0Y-109.855
X129.54Y-102.235
X129.54Y-109.855
X132.08Y-102.235
X132.08Y-109.855
X134.62Y-102.235
X134.62Y-109.855
T4
X16.51Y-24.13
X16.51Y-26.67
X16.51Y-29.21
X16.51Y-31.75
X16.51Y-34.29
X16.51Y-36.83
X16.51Y-39.37
X16.51Y-41.91
X16.51Y-44.45
X16.51Y-46.99
X16.51Y-49.53
X16.51Y-52.07
X16.51Y-54.61
X16.51Y-57.15
X16.51Y-59.69
X16.51Y-62.23
X16.51Y-64.77
X16.51Y-67.31
X16.51Y-69.85
X16.51Y-72.39
X16.51Y-74.93
X16.51Y-77.47
X22.86Y-30.48
X22.86Y-33.02
X22.86Y-35.56
X22.86Y-43.18
X22.86Y-45.72
X22.86Y-48.26
X22.86Y-50.8
X22.86Y-53.34
X22.86Y-55.88
X22.86Y-58.42
X22.86Y-60.96
X22.86Y-66.04
X22.86Y-68.58
X22.86Y-73.66
X22.86Y-78.74
X22.86Y-81.28
X22.86Y-83.82
X22.86Y-86.36
X22.86Y-88.9
X22.86Y-91.44
X22.86Y-93.98
X22.86Y-96.52
X27.94Y-30.48
X27.94Y-33.02
X27.94Y-35.56
X27.94Y-43.18
X27.94Y-45.72
X27.94Y-48.26
X27.94Y-50.8
X27.94Y-53.34
X27.94Y-55.88
X27.94Y-58.42
X27.94Y-60.96
X27.94Y-66.04
X27.94Y-68.58
X27.94Y-73.66
X27.94Y-78.74
X27.94Y-81.28
X27.94Y-83.82
X27.94Y-86.36
X27.94Y-88.9
X27.94Y-91.44
X27.94Y-93.98
X27.94Y-96.52
X34.29Y-24.13
X34.29Y-26.67
X34.29Y-29.21
X34.29Y-31.75
X34.29Y-34.29
X34.29Y-36.83
X34.29Y-39.37
X34.29Y-41.91
X34.29Y-44.45
X34.29Y-46.99
X34.29Y-49.53
X34.29Y-52.07
X34.29Y-54.61
X34.29Y-57.15
X34.29Y-59.69
X34.29Y-62.23
X34.29Y-64.77
X34.29Y-67.31
X34.29Y-69.85
X34.29Y-72.39
X34.29Y-74.93
X34.29Y-77.47
X40.64Y-30.48
X40.64Y-33.02
X40.64Y-35.56
X40.64Y-43.18
X40.64Y-45.72
X40.64Y-48.26
X40.64Y-50.8
X40.64Y-53.34
X40.64Y-55.88
X40.64Y-58.42
X40.64Y-60.96
X40.64Y-66.04
X40.64Y-68.58
X40.64Y-73.66
X40.64Y-78.74
X40.64Y-81.28
X40.64Y-83.82
X40.64Y-86.36
X40.64Y-88.9
X40.64Y-91.44
X40.64Y-93.98
X40.64Y-96.52
X45.72Y-30.48
X45.72Y-33.02
X45.72Y-35.56
X45.72Y-43.18
X45.72Y-45.72
X45.72Y-48.26
X45.72Y-50.8
X45.72Y-53.34
X45.72Y-55.88
X45.72Y-58.42
X45.72Y-60.96
X45.72Y-66.04
X45.72Y-68.58
X45.72Y-73.66
X45.72Y-78.74
X45.72Y-81.28
X45.72Y-83.82
X45.72Y-86.36
X45.72Y-88.9
X45.72Y-91.44
X45.72Y-93.98
X45.72Y-96.52
X46.99Y-108.585
X49.53Y-108.585
X52.07Y-24.13
X52.07Y-26.67
X52.07Y-29.21
X52.07Y-31.75
X52.07Y-34.29
X52.07Y-36.83
X52.07Y-39.37
X52.07Y-41.91
X52.07Y-44.45
X52.07Y-46.99
X52.07Y-49.53
X52.07Y-52.07
X52.07Y-54.61
X52.07Y-57.15
X52.07Y-59.69
X52.07Y-62.23
X52.07Y-64.77
X52.07Y-67.31
X52.07Y-69.85
X52.07Y-72.39
X52.07Y-74.93
X52.07Y-77.47
X58.42Y-30.48
X58.42Y-33.02
X58.42Y-35.56
X58.42Y-43.18
X58.42Y-45.72
X58.42Y-48.26
X58.42Y-50.8
X58.42Y-53.34
X58.42Y-55.88
X58.42Y-58.42
X58.42Y-60.96
X58.42Y-66.04
X58.42Y-68.58
X58.42Y-73.66
X58.42Y-78.74
X58.42Y-81.28
X58.42Y-83.82
X58.42Y-86.36
X58.42Y-88.9
X58.42Y-91.44
X58.42Y-93.98
X58.42Y-96.52
X63.5Y-30.48
X63.5Y-33.02
X63.5Y-35.56
X63.5Y-43.18
X63.5Y-45.72
X63.5Y-48.26
X63.5Y-50.8
X63.5Y-53.34
X63.5Y-55.88
X63.5Y-58.42
X63.5Y-60.96
X63.5Y-66.04
X63.5Y-68.58
X63.5Y-73.66
X63.5Y-78.74
X63.5Y-81.28
X63.5Y-83.82
X63.5Y-86.36
X63.5Y-88.9
X63.5Y-91.44
X63.5Y-93.98
X63.5Y-96.52
X69.85Y-24.13
X69.85Y-26.67
X69.85Y-29.21
X69.85Y-31.75
X69.85Y-34.29
X69.85Y-36.83
X69.85Y-39.37
X69.85Y-41.91
X69.85Y-44.45
X69.85Y-46.99
X69.85Y-49.53
X69.85Y-52.07
X69.85Y-54.61
X69.85Y-57.15
X69.85Y-59.69
X69.85Y-62.23
X69.85Y-64.77
X69.85Y-67.31
X69.85Y-69.85
X69.85Y-72.39
X69.85Y-74.93
X69.85Y-77.47
X76.2Y-30.48
X76.2Y-33.02
X76.2Y-35.56
X76.2Y-43.18
X76.2Y-45.72
X76.2Y-48.26
X76.2Y-50.8
X76.2Y-53.34
X76.2Y-55.88
X76.2Y-58.42
X76.2Y-60.96
X76.2Y-66.04
X76.2Y-68.58
X76.2Y-73.66
X76.2Y-78.74
X76.2Y-81.28
X76.2Y-83.82
X76.2Y-86.36
X76.2Y-88.9
X76.2Y-91.44
X76.2Y-93.98
X76.2Y-96.52
X81.28Y-30.48
X81.28Y-33.02
X81.28Y-35.56
X81.28Y-43.18
X81.28Y-45.72
X81.28Y-48.26
X81.28Y-50.8
X81.28Y-53.34
X81.28Y-55.88
X81.28Y-58.42
X81.28Y-60.96
X81.28Y-66.04
X81.28Y-68.58
X81.28Y-73.66
X81.28Y-78.74
X81.28Y-81.28
X81.28Y-83.82
X81.28Y-86.36
X81.28Y-88.9
X81.28Y-91.44
X81.28Y-93.98
X81.28Y-96.52
X87.63Y-24.11
X87.63Y-26.65
X87.63Y-29.19
X87.63Y-31.73
X87.63Y-34.27
X87.63Y-36.81
X87.63Y-39.35
X87.63Y-41.89
X87.63Y-44.43
X87.63Y-46.97
X87.63Y-49.51
X87.63Y-52.05
X87.63Y-54.59
X87.63Y-57.13
X87.63Y-59.67
X87.63Y-62.21
X87.63Y-64.75
X87.63Y-67.29
X87.63Y-69.83
X87.63Y-72.37
X87.63Y-74.91
X87.63Y-77.45
X93.98Y-30.48
X93.98Y-33.02
X93.98Y-35.56
X93.98Y-43.18
X93.98Y-45.72
X93.98Y-48.26
X93.98Y-50.8
X93.98Y-53.34
X93.98Y-55.88
X93.98Y-58.42
X93.98Y-60.96
X93.98Y-66.04
X93.98Y-68.58
X93.98Y-73.66
X93.98Y-78.74
X93.98Y-81.28
X93.98Y-83.82
X93.98Y-86.36
X93.98Y-88.9
X93.98Y-91.44
X93.98Y-93.98
X93.98Y-96.52
X99.06Y-30.48
X99.06Y-33.02
X99.06Y-35.56
X99.06Y-43.18
X99.06Y-45.72
X99.06Y-48.26
X99.06Y-50.8
X99.06Y-53.34
X99.06Y-55.88
X99.06Y-58.42
X99.06Y-60.96
X99.06Y-66.04
X99.06Y-68.58
X99.06Y-73.66
X99.06Y-78.74
X99.06Y-81.28
X99.06Y-83.82
X99.06Y-86.36
X99.06Y-88.9
X99.06Y-91.44
X99.06Y-93.98
X99.06Y-96.52
X105.41Y-24.13
X105.41Y-26.67
X105.41Y-29.21
X105.41Y-31.75
X105.41Y-34.29
X105.41Y-36.83
X105.41Y-39.37
X105.41Y-41.91
X105.41Y-44.45
X105.41Y-46.99
X105.41Y-49.53
X105.41Y-52.07
X105.41Y-54.61
X105.41Y-57.15
X105.41Y-59.69
X105.41Y-62.23
X105.41Y-64.77
X105.41Y-67.31
X105.41Y-69.85
X105.41Y-72.39
X105.41Y-74.93
X105.41Y-77.47
X111.76Y-30.48
X111.76Y-33.02
X111.76Y-35.56
X111.76Y-43.18
X111.76Y-45.72
X111.76Y-48.26
X111.76Y-50.8
X111.76Y-53.34
X111.76Y-55.88
X111.76Y-58.42
X111.76Y-60.96
X111.76Y-66.04
X111.76Y-68.58
X111.76Y-73.66
X111.76Y-78.74
X111.76Y-81.28
X111.76Y-83.82
X111.76Y-86.36
X111.76Y-88.9
X111.76Y-91.44
X111.76Y-93.98
X111.76Y-96.52
X116.84Y-30.48
X116.84Y-33.02
X116.84Y-35.56
X116.84Y-43.18
X116.84Y-45.72
X116.84Y-48.26
X116.84Y-50.8
X116.84Y-53.34
X116.84Y-55.88
X116.84Y-58.42
X116.84Y-60.96
X116.84Y-66.04
X116.84Y-68.58
X116.84Y-73.66
X116.84Y-78.74
X116.84Y-81.28
X116.84Y-83.82
X116.84Y-86.36
X116.84Y-88.9
X116.84Y-91.44
X116.84Y-93.98
X116.84Y-96.52
X123.19Y-24.13
X123.19Y-26.67
X123.19Y-29.21
X123.19Y-31.75
X123.19Y-34.29
X123.19Y-36.83
X123.19Y-39.37
X123.19Y-41.91
X123.19Y-44.45
X123.19Y-46.99
X123.19Y-49.53
X123.19Y-52.07
X123.19Y-54.61
X123.19Y-57.15
X123.19Y-59.69
X123.19Y-62.23
X123.19Y-64.77
X123.19Y-67.31
X123.19Y-69.85
X123.19Y-72.39
X123.19Y-74.93
X123.19Y-77.47
X129.54Y-30.48
X129.54Y-33.02
X129.54Y-35.56
X129.54Y-43.18
X129.54Y-45.72
X129.54Y-48.26
X129.54Y-50.8
X129.54Y-53.34
X129.54Y-55.88
X129.54Y-58.42
X129.54Y-60.96
X129.54Y-66.04
X129.54Y-68.58
X129.54Y-73.66
X129.54Y-78.74
X129.54Y-81.28
X129.54Y-83.82
X129.54Y-86.36
X129.54Y-88.9
X129.54Y-91.44
X129.54Y-93.98
X129.54Y-96.52
X134.62Y-30.48
X134.62Y-33.02
X134.62Y-35.56
X134.62Y-43.18
X134.62Y-45.72
X134.62Y-48.26
X134.62Y-50.8
X134.62Y-53.34
X134.62Y-55.88
X134.62Y-58.42
X134.62Y-60.96
X134.62Y-66.04
X134.62Y-68.58
X134.62Y-73.66
X134.62Y-78.74
X134.62Y-81.28
X134.62Y-83.82
X134.62Y-86.36
X134.62Y-88.9
X134.62Y-91.44
X134.62Y-93.98
X134.62Y-96.52
X140.97Y-24.13
X140.97Y-26.67
X140.97Y-29.21
X140.97Y-31.75
X140.97Y-34.29
X140.97Y-36.83
X140.97Y-39.37
X140.97Y-41.91
X140.97Y-44.45
X140.97Y-46.99
X140.97Y-49.53
X140.97Y-52.07
X140.97Y-54.61
X140.97Y-57.15
X140.97Y-59.69
X140.97Y-62.23
X140.97Y-64.77
X140.97Y-67.31
X140.97Y-69.85
X140.97Y-72.39
X140.97Y-74.93
X147.32Y-30.48
X147.32Y-33.02
X147.32Y-35.56
X147.32Y-43.18
X147.32Y-45.72
X147.32Y-48.26
X147.32Y-50.8
X147.32Y-53.34
X147.32Y-55.88
X147.32Y-58.42
X147.32Y-60.96
X147.32Y-66.04
X147.32Y-68.58
X147.32Y-73.66
X147.32Y-78.74
X147.32Y-81.28
X147.32Y-83.82
X147.32Y-86.36
X147.32Y-88.9
X147.32Y-91.44
X147.32Y-93.98
X147.32Y-96.52
X152.4Y-30.48
X152.4Y-33.02
X152.4Y-35.56
X152.4Y-43.18
X152.4Y-45.72
X152.4Y-48.26
X152.4Y-50.8
X152.4Y-53.34
X152.4Y-55.88
X152.4Y-58.42
X152.4Y-60.96
X152.4Y-66.04
X152.4Y-68.58
X152.4Y-73.66
X152.4Y-78.74
X152.4Y-81.28
X152.4Y-83.82
X152.4Y-86.36
X152.4Y-88.9
X152.4Y-91.44
X152.4Y-93.98
X152.4Y-96.52
X162.56Y-24.13
X162.56Y-26.67
X162.56Y-29.21
X162.56Y-31.75
X162.56Y-36.83
X162.56Y-39.37
X162.56Y-41.91
X162.56Y-44.45
X162.56Y-46.99
X162.56Y-49.53
X162.56Y-52.07
X162.56Y-54.61
X162.56Y-59.69
X162.56Y-62.23
X162.56Y-64.77
X162.56Y-67.31
X162.56Y-69.85
X162.56Y-72.39
X162.56Y-74.93
X162.56Y-77.47
X162.56Y-82.55
X162.56Y-85.09
X162.56Y-87.63
X162.56Y-90.17
X162.56Y-92.71
X162.56Y-95.25
X162.56Y-97.79
X162.56Y-100.33
T5
X31.115Y-73.66
X36.83Y-73.66
X54.61Y-73.66
X59.69Y-109.855
X72.39Y-73.66
X78.74Y-102.245
X82.55Y-109.855
X83.185Y-102.235
X86.995Y-102.235
X90.17Y-73.66
X107.95Y-73.66
X125.73Y-73.66
X140.335Y-104.775
X140.335Y-107.315
X140.335Y-109.855
X140.97Y-77.47
X143.51Y-73.66
X170.815Y-57.15
X170.815Y-59.69
X170.815Y-62.23
X170.815Y-64.77
X170.815Y-67.31
X170.815Y-69.85
X170.815Y-72.39
X170.815Y-74.93
X170.815Y-77.47
X170.815Y-82.55
X170.815Y-85.09
X170.815Y-87.63
X170.815Y-90.17
X170.815Y-92.71
X170.815Y-95.25
X170.815Y-97.79
X170.815Y-100.33
X170.815Y-102.87
T6
X33.02Y-106.68
X38.02Y-106.68
M30
