%TF.GenerationSoftware,KiCad,Pcbnew,9.0.6*%
%TF.CreationDate,2026-03-19T21:38:09+03:00*%
%TF.ProjectId,Regs-v6,52656773-2d76-4362-9e6b-696361645f70,rev?*%
%TF.SameCoordinates,Original*%
%TF.FileFunction,Legend,Bot*%
%TF.FilePolarity,Positive*%
%FSLAX46Y46*%
G04 Gerber Fmt 4.6, Leading zero omitted, Abs format (unit mm)*
G04 Created by KiCad (PCBNEW 9.0.6) date 2026-03-19 21:38:09*
%MOMM*%
%LPD*%
G01*
G04 APERTURE LIST*
%ADD10C,0.300000*%
%ADD11C,0.150000*%
%ADD12C,0.120000*%
G04 APERTURE END LIST*
D10*
X124158333Y-82189638D02*
X124825000Y-81237257D01*
X125301190Y-82189638D02*
X125301190Y-80189638D01*
X125301190Y-80189638D02*
X124539285Y-80189638D01*
X124539285Y-80189638D02*
X124348809Y-80284876D01*
X124348809Y-80284876D02*
X124253571Y-80380114D01*
X124253571Y-80380114D02*
X124158333Y-80570590D01*
X124158333Y-80570590D02*
X124158333Y-80856304D01*
X124158333Y-80856304D02*
X124253571Y-81046780D01*
X124253571Y-81046780D02*
X124348809Y-81142019D01*
X124348809Y-81142019D02*
X124539285Y-81237257D01*
X124539285Y-81237257D02*
X125301190Y-81237257D01*
X122253571Y-82189638D02*
X123396428Y-82189638D01*
X122825000Y-82189638D02*
X122825000Y-80189638D01*
X122825000Y-80189638D02*
X123015476Y-80475352D01*
X123015476Y-80475352D02*
X123205952Y-80665828D01*
X123205952Y-80665828D02*
X123396428Y-80761066D01*
X88598333Y-82189638D02*
X89265000Y-81237257D01*
X89741190Y-82189638D02*
X89741190Y-80189638D01*
X89741190Y-80189638D02*
X88979285Y-80189638D01*
X88979285Y-80189638D02*
X88788809Y-80284876D01*
X88788809Y-80284876D02*
X88693571Y-80380114D01*
X88693571Y-80380114D02*
X88598333Y-80570590D01*
X88598333Y-80570590D02*
X88598333Y-80856304D01*
X88598333Y-80856304D02*
X88693571Y-81046780D01*
X88693571Y-81046780D02*
X88788809Y-81142019D01*
X88788809Y-81142019D02*
X88979285Y-81237257D01*
X88979285Y-81237257D02*
X89741190Y-81237257D01*
X87931666Y-80189638D02*
X86693571Y-80189638D01*
X86693571Y-80189638D02*
X87360238Y-80951542D01*
X87360238Y-80951542D02*
X87074523Y-80951542D01*
X87074523Y-80951542D02*
X86884047Y-81046780D01*
X86884047Y-81046780D02*
X86788809Y-81142019D01*
X86788809Y-81142019D02*
X86693571Y-81332495D01*
X86693571Y-81332495D02*
X86693571Y-81808685D01*
X86693571Y-81808685D02*
X86788809Y-81999161D01*
X86788809Y-81999161D02*
X86884047Y-82094400D01*
X86884047Y-82094400D02*
X87074523Y-82189638D01*
X87074523Y-82189638D02*
X87645952Y-82189638D01*
X87645952Y-82189638D02*
X87836428Y-82094400D01*
X87836428Y-82094400D02*
X87931666Y-81999161D01*
X53038333Y-82189638D02*
X53705000Y-81237257D01*
X54181190Y-82189638D02*
X54181190Y-80189638D01*
X54181190Y-80189638D02*
X53419285Y-80189638D01*
X53419285Y-80189638D02*
X53228809Y-80284876D01*
X53228809Y-80284876D02*
X53133571Y-80380114D01*
X53133571Y-80380114D02*
X53038333Y-80570590D01*
X53038333Y-80570590D02*
X53038333Y-80856304D01*
X53038333Y-80856304D02*
X53133571Y-81046780D01*
X53133571Y-81046780D02*
X53228809Y-81142019D01*
X53228809Y-81142019D02*
X53419285Y-81237257D01*
X53419285Y-81237257D02*
X54181190Y-81237257D01*
X51228809Y-80189638D02*
X52181190Y-80189638D01*
X52181190Y-80189638D02*
X52276428Y-81142019D01*
X52276428Y-81142019D02*
X52181190Y-81046780D01*
X52181190Y-81046780D02*
X51990714Y-80951542D01*
X51990714Y-80951542D02*
X51514523Y-80951542D01*
X51514523Y-80951542D02*
X51324047Y-81046780D01*
X51324047Y-81046780D02*
X51228809Y-81142019D01*
X51228809Y-81142019D02*
X51133571Y-81332495D01*
X51133571Y-81332495D02*
X51133571Y-81808685D01*
X51133571Y-81808685D02*
X51228809Y-81999161D01*
X51228809Y-81999161D02*
X51324047Y-82094400D01*
X51324047Y-82094400D02*
X51514523Y-82189638D01*
X51514523Y-82189638D02*
X51990714Y-82189638D01*
X51990714Y-82189638D02*
X52181190Y-82094400D01*
X52181190Y-82094400D02*
X52276428Y-81999161D01*
X17478333Y-82189638D02*
X18145000Y-81237257D01*
X18621190Y-82189638D02*
X18621190Y-80189638D01*
X18621190Y-80189638D02*
X17859285Y-80189638D01*
X17859285Y-80189638D02*
X17668809Y-80284876D01*
X17668809Y-80284876D02*
X17573571Y-80380114D01*
X17573571Y-80380114D02*
X17478333Y-80570590D01*
X17478333Y-80570590D02*
X17478333Y-80856304D01*
X17478333Y-80856304D02*
X17573571Y-81046780D01*
X17573571Y-81046780D02*
X17668809Y-81142019D01*
X17668809Y-81142019D02*
X17859285Y-81237257D01*
X17859285Y-81237257D02*
X18621190Y-81237257D01*
X16811666Y-80189638D02*
X15478333Y-80189638D01*
X15478333Y-80189638D02*
X16335476Y-82189638D01*
X70818333Y-82189638D02*
X71485000Y-81237257D01*
X71961190Y-82189638D02*
X71961190Y-80189638D01*
X71961190Y-80189638D02*
X71199285Y-80189638D01*
X71199285Y-80189638D02*
X71008809Y-80284876D01*
X71008809Y-80284876D02*
X70913571Y-80380114D01*
X70913571Y-80380114D02*
X70818333Y-80570590D01*
X70818333Y-80570590D02*
X70818333Y-80856304D01*
X70818333Y-80856304D02*
X70913571Y-81046780D01*
X70913571Y-81046780D02*
X71008809Y-81142019D01*
X71008809Y-81142019D02*
X71199285Y-81237257D01*
X71199285Y-81237257D02*
X71961190Y-81237257D01*
X69104047Y-80856304D02*
X69104047Y-82189638D01*
X69580238Y-80094400D02*
X70056428Y-81522971D01*
X70056428Y-81522971D02*
X68818333Y-81522971D01*
X106378333Y-82189638D02*
X107045000Y-81237257D01*
X107521190Y-82189638D02*
X107521190Y-80189638D01*
X107521190Y-80189638D02*
X106759285Y-80189638D01*
X106759285Y-80189638D02*
X106568809Y-80284876D01*
X106568809Y-80284876D02*
X106473571Y-80380114D01*
X106473571Y-80380114D02*
X106378333Y-80570590D01*
X106378333Y-80570590D02*
X106378333Y-80856304D01*
X106378333Y-80856304D02*
X106473571Y-81046780D01*
X106473571Y-81046780D02*
X106568809Y-81142019D01*
X106568809Y-81142019D02*
X106759285Y-81237257D01*
X106759285Y-81237257D02*
X107521190Y-81237257D01*
X105616428Y-80380114D02*
X105521190Y-80284876D01*
X105521190Y-80284876D02*
X105330714Y-80189638D01*
X105330714Y-80189638D02*
X104854523Y-80189638D01*
X104854523Y-80189638D02*
X104664047Y-80284876D01*
X104664047Y-80284876D02*
X104568809Y-80380114D01*
X104568809Y-80380114D02*
X104473571Y-80570590D01*
X104473571Y-80570590D02*
X104473571Y-80761066D01*
X104473571Y-80761066D02*
X104568809Y-81046780D01*
X104568809Y-81046780D02*
X105711666Y-82189638D01*
X105711666Y-82189638D02*
X104473571Y-82189638D01*
X141938333Y-82189638D02*
X142605000Y-81237257D01*
X143081190Y-82189638D02*
X143081190Y-80189638D01*
X143081190Y-80189638D02*
X142319285Y-80189638D01*
X142319285Y-80189638D02*
X142128809Y-80284876D01*
X142128809Y-80284876D02*
X142033571Y-80380114D01*
X142033571Y-80380114D02*
X141938333Y-80570590D01*
X141938333Y-80570590D02*
X141938333Y-80856304D01*
X141938333Y-80856304D02*
X142033571Y-81046780D01*
X142033571Y-81046780D02*
X142128809Y-81142019D01*
X142128809Y-81142019D02*
X142319285Y-81237257D01*
X142319285Y-81237257D02*
X143081190Y-81237257D01*
X140700238Y-80189638D02*
X140509761Y-80189638D01*
X140509761Y-80189638D02*
X140319285Y-80284876D01*
X140319285Y-80284876D02*
X140224047Y-80380114D01*
X140224047Y-80380114D02*
X140128809Y-80570590D01*
X140128809Y-80570590D02*
X140033571Y-80951542D01*
X140033571Y-80951542D02*
X140033571Y-81427733D01*
X140033571Y-81427733D02*
X140128809Y-81808685D01*
X140128809Y-81808685D02*
X140224047Y-81999161D01*
X140224047Y-81999161D02*
X140319285Y-82094400D01*
X140319285Y-82094400D02*
X140509761Y-82189638D01*
X140509761Y-82189638D02*
X140700238Y-82189638D01*
X140700238Y-82189638D02*
X140890714Y-82094400D01*
X140890714Y-82094400D02*
X140985952Y-81999161D01*
X140985952Y-81999161D02*
X141081190Y-81808685D01*
X141081190Y-81808685D02*
X141176428Y-81427733D01*
X141176428Y-81427733D02*
X141176428Y-80951542D01*
X141176428Y-80951542D02*
X141081190Y-80570590D01*
X141081190Y-80570590D02*
X140985952Y-80380114D01*
X140985952Y-80380114D02*
X140890714Y-80284876D01*
X140890714Y-80284876D02*
X140700238Y-80189638D01*
D11*
X14515180Y-54943332D02*
X14515180Y-54324285D01*
X14515180Y-54324285D02*
X14134228Y-54657618D01*
X14134228Y-54657618D02*
X14134228Y-54514761D01*
X14134228Y-54514761D02*
X14086609Y-54419523D01*
X14086609Y-54419523D02*
X14038990Y-54371904D01*
X14038990Y-54371904D02*
X13943752Y-54324285D01*
X13943752Y-54324285D02*
X13705657Y-54324285D01*
X13705657Y-54324285D02*
X13610419Y-54371904D01*
X13610419Y-54371904D02*
X13562800Y-54419523D01*
X13562800Y-54419523D02*
X13515180Y-54514761D01*
X13515180Y-54514761D02*
X13515180Y-54800475D01*
X13515180Y-54800475D02*
X13562800Y-54895713D01*
X13562800Y-54895713D02*
X13610419Y-54943332D01*
X31295180Y-69564285D02*
X31295180Y-70135713D01*
X31295180Y-69849999D02*
X32295180Y-69849999D01*
X32295180Y-69849999D02*
X32152323Y-69945237D01*
X32152323Y-69945237D02*
X32057085Y-70040475D01*
X32057085Y-70040475D02*
X32009466Y-70135713D01*
X31961847Y-46799523D02*
X31295180Y-46799523D01*
X32342800Y-47037618D02*
X31628514Y-47275713D01*
X31628514Y-47275713D02*
X31628514Y-46656666D01*
X32295180Y-24463332D02*
X32295180Y-23796666D01*
X32295180Y-23796666D02*
X31295180Y-24225237D01*
X138975180Y-24463332D02*
X138975180Y-23796666D01*
X138975180Y-23796666D02*
X137975180Y-24225237D01*
X50075180Y-54943332D02*
X50075180Y-54324285D01*
X50075180Y-54324285D02*
X49694228Y-54657618D01*
X49694228Y-54657618D02*
X49694228Y-54514761D01*
X49694228Y-54514761D02*
X49646609Y-54419523D01*
X49646609Y-54419523D02*
X49598990Y-54371904D01*
X49598990Y-54371904D02*
X49503752Y-54324285D01*
X49503752Y-54324285D02*
X49265657Y-54324285D01*
X49265657Y-54324285D02*
X49170419Y-54371904D01*
X49170419Y-54371904D02*
X49122800Y-54419523D01*
X49122800Y-54419523D02*
X49075180Y-54514761D01*
X49075180Y-54514761D02*
X49075180Y-54800475D01*
X49075180Y-54800475D02*
X49122800Y-54895713D01*
X49122800Y-54895713D02*
X49170419Y-54943332D01*
X103415180Y-77517618D02*
X103415180Y-77422380D01*
X103415180Y-77422380D02*
X103367561Y-77327142D01*
X103367561Y-77327142D02*
X103319942Y-77279523D01*
X103319942Y-77279523D02*
X103224704Y-77231904D01*
X103224704Y-77231904D02*
X103034228Y-77184285D01*
X103034228Y-77184285D02*
X102796133Y-77184285D01*
X102796133Y-77184285D02*
X102605657Y-77231904D01*
X102605657Y-77231904D02*
X102510419Y-77279523D01*
X102510419Y-77279523D02*
X102462800Y-77327142D01*
X102462800Y-77327142D02*
X102415180Y-77422380D01*
X102415180Y-77422380D02*
X102415180Y-77517618D01*
X102415180Y-77517618D02*
X102462800Y-77612856D01*
X102462800Y-77612856D02*
X102510419Y-77660475D01*
X102510419Y-77660475D02*
X102605657Y-77708094D01*
X102605657Y-77708094D02*
X102796133Y-77755713D01*
X102796133Y-77755713D02*
X103034228Y-77755713D01*
X103034228Y-77755713D02*
X103224704Y-77708094D01*
X103224704Y-77708094D02*
X103319942Y-77660475D01*
X103319942Y-77660475D02*
X103367561Y-77612856D01*
X103367561Y-77612856D02*
X103415180Y-77517618D01*
X32295180Y-39131904D02*
X32295180Y-39608094D01*
X32295180Y-39608094D02*
X31818990Y-39655713D01*
X31818990Y-39655713D02*
X31866609Y-39608094D01*
X31866609Y-39608094D02*
X31914228Y-39512856D01*
X31914228Y-39512856D02*
X31914228Y-39274761D01*
X31914228Y-39274761D02*
X31866609Y-39179523D01*
X31866609Y-39179523D02*
X31818990Y-39131904D01*
X31818990Y-39131904D02*
X31723752Y-39084285D01*
X31723752Y-39084285D02*
X31485657Y-39084285D01*
X31485657Y-39084285D02*
X31390419Y-39131904D01*
X31390419Y-39131904D02*
X31342800Y-39179523D01*
X31342800Y-39179523D02*
X31295180Y-39274761D01*
X31295180Y-39274761D02*
X31295180Y-39512856D01*
X31295180Y-39512856D02*
X31342800Y-39608094D01*
X31342800Y-39608094D02*
X31390419Y-39655713D01*
X85635180Y-31559523D02*
X85635180Y-31749999D01*
X85635180Y-31749999D02*
X85587561Y-31845237D01*
X85587561Y-31845237D02*
X85539942Y-31892856D01*
X85539942Y-31892856D02*
X85397085Y-31988094D01*
X85397085Y-31988094D02*
X85206609Y-32035713D01*
X85206609Y-32035713D02*
X84825657Y-32035713D01*
X84825657Y-32035713D02*
X84730419Y-31988094D01*
X84730419Y-31988094D02*
X84682800Y-31940475D01*
X84682800Y-31940475D02*
X84635180Y-31845237D01*
X84635180Y-31845237D02*
X84635180Y-31654761D01*
X84635180Y-31654761D02*
X84682800Y-31559523D01*
X84682800Y-31559523D02*
X84730419Y-31511904D01*
X84730419Y-31511904D02*
X84825657Y-31464285D01*
X84825657Y-31464285D02*
X85063752Y-31464285D01*
X85063752Y-31464285D02*
X85158990Y-31511904D01*
X85158990Y-31511904D02*
X85206609Y-31559523D01*
X85206609Y-31559523D02*
X85254228Y-31654761D01*
X85254228Y-31654761D02*
X85254228Y-31845237D01*
X85254228Y-31845237D02*
X85206609Y-31940475D01*
X85206609Y-31940475D02*
X85158990Y-31988094D01*
X85158990Y-31988094D02*
X85063752Y-32035713D01*
X85539942Y-62515713D02*
X85587561Y-62468094D01*
X85587561Y-62468094D02*
X85635180Y-62372856D01*
X85635180Y-62372856D02*
X85635180Y-62134761D01*
X85635180Y-62134761D02*
X85587561Y-62039523D01*
X85587561Y-62039523D02*
X85539942Y-61991904D01*
X85539942Y-61991904D02*
X85444704Y-61944285D01*
X85444704Y-61944285D02*
X85349466Y-61944285D01*
X85349466Y-61944285D02*
X85206609Y-61991904D01*
X85206609Y-61991904D02*
X84635180Y-62563332D01*
X84635180Y-62563332D02*
X84635180Y-61944285D01*
X120195180Y-69564285D02*
X120195180Y-70135713D01*
X120195180Y-69849999D02*
X121195180Y-69849999D01*
X121195180Y-69849999D02*
X121052323Y-69945237D01*
X121052323Y-69945237D02*
X120957085Y-70040475D01*
X120957085Y-70040475D02*
X120909466Y-70135713D01*
X67521847Y-46799523D02*
X66855180Y-46799523D01*
X67902800Y-47037618D02*
X67188514Y-47275713D01*
X67188514Y-47275713D02*
X67188514Y-46656666D01*
X121195180Y-24463332D02*
X121195180Y-23796666D01*
X121195180Y-23796666D02*
X120195180Y-24225237D01*
X32199942Y-62515713D02*
X32247561Y-62468094D01*
X32247561Y-62468094D02*
X32295180Y-62372856D01*
X32295180Y-62372856D02*
X32295180Y-62134761D01*
X32295180Y-62134761D02*
X32247561Y-62039523D01*
X32247561Y-62039523D02*
X32199942Y-61991904D01*
X32199942Y-61991904D02*
X32104704Y-61944285D01*
X32104704Y-61944285D02*
X32009466Y-61944285D01*
X32009466Y-61944285D02*
X31866609Y-61991904D01*
X31866609Y-61991904D02*
X31295180Y-62563332D01*
X31295180Y-62563332D02*
X31295180Y-61944285D01*
X32295180Y-54943332D02*
X32295180Y-54324285D01*
X32295180Y-54324285D02*
X31914228Y-54657618D01*
X31914228Y-54657618D02*
X31914228Y-54514761D01*
X31914228Y-54514761D02*
X31866609Y-54419523D01*
X31866609Y-54419523D02*
X31818990Y-54371904D01*
X31818990Y-54371904D02*
X31723752Y-54324285D01*
X31723752Y-54324285D02*
X31485657Y-54324285D01*
X31485657Y-54324285D02*
X31390419Y-54371904D01*
X31390419Y-54371904D02*
X31342800Y-54419523D01*
X31342800Y-54419523D02*
X31295180Y-54514761D01*
X31295180Y-54514761D02*
X31295180Y-54800475D01*
X31295180Y-54800475D02*
X31342800Y-54895713D01*
X31342800Y-54895713D02*
X31390419Y-54943332D01*
D10*
X35258333Y-82189638D02*
X35925000Y-81237257D01*
X36401190Y-82189638D02*
X36401190Y-80189638D01*
X36401190Y-80189638D02*
X35639285Y-80189638D01*
X35639285Y-80189638D02*
X35448809Y-80284876D01*
X35448809Y-80284876D02*
X35353571Y-80380114D01*
X35353571Y-80380114D02*
X35258333Y-80570590D01*
X35258333Y-80570590D02*
X35258333Y-80856304D01*
X35258333Y-80856304D02*
X35353571Y-81046780D01*
X35353571Y-81046780D02*
X35448809Y-81142019D01*
X35448809Y-81142019D02*
X35639285Y-81237257D01*
X35639285Y-81237257D02*
X36401190Y-81237257D01*
X33544047Y-80189638D02*
X33925000Y-80189638D01*
X33925000Y-80189638D02*
X34115476Y-80284876D01*
X34115476Y-80284876D02*
X34210714Y-80380114D01*
X34210714Y-80380114D02*
X34401190Y-80665828D01*
X34401190Y-80665828D02*
X34496428Y-81046780D01*
X34496428Y-81046780D02*
X34496428Y-81808685D01*
X34496428Y-81808685D02*
X34401190Y-81999161D01*
X34401190Y-81999161D02*
X34305952Y-82094400D01*
X34305952Y-82094400D02*
X34115476Y-82189638D01*
X34115476Y-82189638D02*
X33734523Y-82189638D01*
X33734523Y-82189638D02*
X33544047Y-82094400D01*
X33544047Y-82094400D02*
X33448809Y-81999161D01*
X33448809Y-81999161D02*
X33353571Y-81808685D01*
X33353571Y-81808685D02*
X33353571Y-81332495D01*
X33353571Y-81332495D02*
X33448809Y-81142019D01*
X33448809Y-81142019D02*
X33544047Y-81046780D01*
X33544047Y-81046780D02*
X33734523Y-80951542D01*
X33734523Y-80951542D02*
X34115476Y-80951542D01*
X34115476Y-80951542D02*
X34305952Y-81046780D01*
X34305952Y-81046780D02*
X34401190Y-81142019D01*
X34401190Y-81142019D02*
X34496428Y-81332495D01*
D11*
X138975180Y-31559523D02*
X138975180Y-31749999D01*
X138975180Y-31749999D02*
X138927561Y-31845237D01*
X138927561Y-31845237D02*
X138879942Y-31892856D01*
X138879942Y-31892856D02*
X138737085Y-31988094D01*
X138737085Y-31988094D02*
X138546609Y-32035713D01*
X138546609Y-32035713D02*
X138165657Y-32035713D01*
X138165657Y-32035713D02*
X138070419Y-31988094D01*
X138070419Y-31988094D02*
X138022800Y-31940475D01*
X138022800Y-31940475D02*
X137975180Y-31845237D01*
X137975180Y-31845237D02*
X137975180Y-31654761D01*
X137975180Y-31654761D02*
X138022800Y-31559523D01*
X138022800Y-31559523D02*
X138070419Y-31511904D01*
X138070419Y-31511904D02*
X138165657Y-31464285D01*
X138165657Y-31464285D02*
X138403752Y-31464285D01*
X138403752Y-31464285D02*
X138498990Y-31511904D01*
X138498990Y-31511904D02*
X138546609Y-31559523D01*
X138546609Y-31559523D02*
X138594228Y-31654761D01*
X138594228Y-31654761D02*
X138594228Y-31845237D01*
X138594228Y-31845237D02*
X138546609Y-31940475D01*
X138546609Y-31940475D02*
X138498990Y-31988094D01*
X138498990Y-31988094D02*
X138403752Y-32035713D01*
X103415180Y-39131904D02*
X103415180Y-39608094D01*
X103415180Y-39608094D02*
X102938990Y-39655713D01*
X102938990Y-39655713D02*
X102986609Y-39608094D01*
X102986609Y-39608094D02*
X103034228Y-39512856D01*
X103034228Y-39512856D02*
X103034228Y-39274761D01*
X103034228Y-39274761D02*
X102986609Y-39179523D01*
X102986609Y-39179523D02*
X102938990Y-39131904D01*
X102938990Y-39131904D02*
X102843752Y-39084285D01*
X102843752Y-39084285D02*
X102605657Y-39084285D01*
X102605657Y-39084285D02*
X102510419Y-39131904D01*
X102510419Y-39131904D02*
X102462800Y-39179523D01*
X102462800Y-39179523D02*
X102415180Y-39274761D01*
X102415180Y-39274761D02*
X102415180Y-39512856D01*
X102415180Y-39512856D02*
X102462800Y-39608094D01*
X102462800Y-39608094D02*
X102510419Y-39655713D01*
X85635180Y-54943332D02*
X85635180Y-54324285D01*
X85635180Y-54324285D02*
X85254228Y-54657618D01*
X85254228Y-54657618D02*
X85254228Y-54514761D01*
X85254228Y-54514761D02*
X85206609Y-54419523D01*
X85206609Y-54419523D02*
X85158990Y-54371904D01*
X85158990Y-54371904D02*
X85063752Y-54324285D01*
X85063752Y-54324285D02*
X84825657Y-54324285D01*
X84825657Y-54324285D02*
X84730419Y-54371904D01*
X84730419Y-54371904D02*
X84682800Y-54419523D01*
X84682800Y-54419523D02*
X84635180Y-54514761D01*
X84635180Y-54514761D02*
X84635180Y-54800475D01*
X84635180Y-54800475D02*
X84682800Y-54895713D01*
X84682800Y-54895713D02*
X84730419Y-54943332D01*
X138641847Y-46799523D02*
X137975180Y-46799523D01*
X139022800Y-47037618D02*
X138308514Y-47275713D01*
X138308514Y-47275713D02*
X138308514Y-46656666D01*
X14515180Y-24463332D02*
X14515180Y-23796666D01*
X14515180Y-23796666D02*
X13515180Y-24225237D01*
X49979942Y-62515713D02*
X50027561Y-62468094D01*
X50027561Y-62468094D02*
X50075180Y-62372856D01*
X50075180Y-62372856D02*
X50075180Y-62134761D01*
X50075180Y-62134761D02*
X50027561Y-62039523D01*
X50027561Y-62039523D02*
X49979942Y-61991904D01*
X49979942Y-61991904D02*
X49884704Y-61944285D01*
X49884704Y-61944285D02*
X49789466Y-61944285D01*
X49789466Y-61944285D02*
X49646609Y-61991904D01*
X49646609Y-61991904D02*
X49075180Y-62563332D01*
X49075180Y-62563332D02*
X49075180Y-61944285D01*
X14515180Y-31559523D02*
X14515180Y-31749999D01*
X14515180Y-31749999D02*
X14467561Y-31845237D01*
X14467561Y-31845237D02*
X14419942Y-31892856D01*
X14419942Y-31892856D02*
X14277085Y-31988094D01*
X14277085Y-31988094D02*
X14086609Y-32035713D01*
X14086609Y-32035713D02*
X13705657Y-32035713D01*
X13705657Y-32035713D02*
X13610419Y-31988094D01*
X13610419Y-31988094D02*
X13562800Y-31940475D01*
X13562800Y-31940475D02*
X13515180Y-31845237D01*
X13515180Y-31845237D02*
X13515180Y-31654761D01*
X13515180Y-31654761D02*
X13562800Y-31559523D01*
X13562800Y-31559523D02*
X13610419Y-31511904D01*
X13610419Y-31511904D02*
X13705657Y-31464285D01*
X13705657Y-31464285D02*
X13943752Y-31464285D01*
X13943752Y-31464285D02*
X14038990Y-31511904D01*
X14038990Y-31511904D02*
X14086609Y-31559523D01*
X14086609Y-31559523D02*
X14134228Y-31654761D01*
X14134228Y-31654761D02*
X14134228Y-31845237D01*
X14134228Y-31845237D02*
X14086609Y-31940475D01*
X14086609Y-31940475D02*
X14038990Y-31988094D01*
X14038990Y-31988094D02*
X13943752Y-32035713D01*
X138975180Y-39131904D02*
X138975180Y-39608094D01*
X138975180Y-39608094D02*
X138498990Y-39655713D01*
X138498990Y-39655713D02*
X138546609Y-39608094D01*
X138546609Y-39608094D02*
X138594228Y-39512856D01*
X138594228Y-39512856D02*
X138594228Y-39274761D01*
X138594228Y-39274761D02*
X138546609Y-39179523D01*
X138546609Y-39179523D02*
X138498990Y-39131904D01*
X138498990Y-39131904D02*
X138403752Y-39084285D01*
X138403752Y-39084285D02*
X138165657Y-39084285D01*
X138165657Y-39084285D02*
X138070419Y-39131904D01*
X138070419Y-39131904D02*
X138022800Y-39179523D01*
X138022800Y-39179523D02*
X137975180Y-39274761D01*
X137975180Y-39274761D02*
X137975180Y-39512856D01*
X137975180Y-39512856D02*
X138022800Y-39608094D01*
X138022800Y-39608094D02*
X138070419Y-39655713D01*
X67855180Y-39131904D02*
X67855180Y-39608094D01*
X67855180Y-39608094D02*
X67378990Y-39655713D01*
X67378990Y-39655713D02*
X67426609Y-39608094D01*
X67426609Y-39608094D02*
X67474228Y-39512856D01*
X67474228Y-39512856D02*
X67474228Y-39274761D01*
X67474228Y-39274761D02*
X67426609Y-39179523D01*
X67426609Y-39179523D02*
X67378990Y-39131904D01*
X67378990Y-39131904D02*
X67283752Y-39084285D01*
X67283752Y-39084285D02*
X67045657Y-39084285D01*
X67045657Y-39084285D02*
X66950419Y-39131904D01*
X66950419Y-39131904D02*
X66902800Y-39179523D01*
X66902800Y-39179523D02*
X66855180Y-39274761D01*
X66855180Y-39274761D02*
X66855180Y-39512856D01*
X66855180Y-39512856D02*
X66902800Y-39608094D01*
X66902800Y-39608094D02*
X66950419Y-39655713D01*
X85301847Y-46799523D02*
X84635180Y-46799523D01*
X85682800Y-47037618D02*
X84968514Y-47275713D01*
X84968514Y-47275713D02*
X84968514Y-46656666D01*
X120861847Y-46799523D02*
X120195180Y-46799523D01*
X121242800Y-47037618D02*
X120528514Y-47275713D01*
X120528514Y-47275713D02*
X120528514Y-46656666D01*
X49741847Y-46799523D02*
X49075180Y-46799523D01*
X50122800Y-47037618D02*
X49408514Y-47275713D01*
X49408514Y-47275713D02*
X49408514Y-46656666D01*
X66855180Y-69564285D02*
X66855180Y-70135713D01*
X66855180Y-69849999D02*
X67855180Y-69849999D01*
X67855180Y-69849999D02*
X67712323Y-69945237D01*
X67712323Y-69945237D02*
X67617085Y-70040475D01*
X67617085Y-70040475D02*
X67569466Y-70135713D01*
X138879942Y-62515713D02*
X138927561Y-62468094D01*
X138927561Y-62468094D02*
X138975180Y-62372856D01*
X138975180Y-62372856D02*
X138975180Y-62134761D01*
X138975180Y-62134761D02*
X138927561Y-62039523D01*
X138927561Y-62039523D02*
X138879942Y-61991904D01*
X138879942Y-61991904D02*
X138784704Y-61944285D01*
X138784704Y-61944285D02*
X138689466Y-61944285D01*
X138689466Y-61944285D02*
X138546609Y-61991904D01*
X138546609Y-61991904D02*
X137975180Y-62563332D01*
X137975180Y-62563332D02*
X137975180Y-61944285D01*
X137975180Y-69564285D02*
X137975180Y-70135713D01*
X137975180Y-69849999D02*
X138975180Y-69849999D01*
X138975180Y-69849999D02*
X138832323Y-69945237D01*
X138832323Y-69945237D02*
X138737085Y-70040475D01*
X138737085Y-70040475D02*
X138689466Y-70135713D01*
X103415180Y-31559523D02*
X103415180Y-31749999D01*
X103415180Y-31749999D02*
X103367561Y-31845237D01*
X103367561Y-31845237D02*
X103319942Y-31892856D01*
X103319942Y-31892856D02*
X103177085Y-31988094D01*
X103177085Y-31988094D02*
X102986609Y-32035713D01*
X102986609Y-32035713D02*
X102605657Y-32035713D01*
X102605657Y-32035713D02*
X102510419Y-31988094D01*
X102510419Y-31988094D02*
X102462800Y-31940475D01*
X102462800Y-31940475D02*
X102415180Y-31845237D01*
X102415180Y-31845237D02*
X102415180Y-31654761D01*
X102415180Y-31654761D02*
X102462800Y-31559523D01*
X102462800Y-31559523D02*
X102510419Y-31511904D01*
X102510419Y-31511904D02*
X102605657Y-31464285D01*
X102605657Y-31464285D02*
X102843752Y-31464285D01*
X102843752Y-31464285D02*
X102938990Y-31511904D01*
X102938990Y-31511904D02*
X102986609Y-31559523D01*
X102986609Y-31559523D02*
X103034228Y-31654761D01*
X103034228Y-31654761D02*
X103034228Y-31845237D01*
X103034228Y-31845237D02*
X102986609Y-31940475D01*
X102986609Y-31940475D02*
X102938990Y-31988094D01*
X102938990Y-31988094D02*
X102843752Y-32035713D01*
X67759942Y-62515713D02*
X67807561Y-62468094D01*
X67807561Y-62468094D02*
X67855180Y-62372856D01*
X67855180Y-62372856D02*
X67855180Y-62134761D01*
X67855180Y-62134761D02*
X67807561Y-62039523D01*
X67807561Y-62039523D02*
X67759942Y-61991904D01*
X67759942Y-61991904D02*
X67664704Y-61944285D01*
X67664704Y-61944285D02*
X67569466Y-61944285D01*
X67569466Y-61944285D02*
X67426609Y-61991904D01*
X67426609Y-61991904D02*
X66855180Y-62563332D01*
X66855180Y-62563332D02*
X66855180Y-61944285D01*
X32295180Y-77517618D02*
X32295180Y-77422380D01*
X32295180Y-77422380D02*
X32247561Y-77327142D01*
X32247561Y-77327142D02*
X32199942Y-77279523D01*
X32199942Y-77279523D02*
X32104704Y-77231904D01*
X32104704Y-77231904D02*
X31914228Y-77184285D01*
X31914228Y-77184285D02*
X31676133Y-77184285D01*
X31676133Y-77184285D02*
X31485657Y-77231904D01*
X31485657Y-77231904D02*
X31390419Y-77279523D01*
X31390419Y-77279523D02*
X31342800Y-77327142D01*
X31342800Y-77327142D02*
X31295180Y-77422380D01*
X31295180Y-77422380D02*
X31295180Y-77517618D01*
X31295180Y-77517618D02*
X31342800Y-77612856D01*
X31342800Y-77612856D02*
X31390419Y-77660475D01*
X31390419Y-77660475D02*
X31485657Y-77708094D01*
X31485657Y-77708094D02*
X31676133Y-77755713D01*
X31676133Y-77755713D02*
X31914228Y-77755713D01*
X31914228Y-77755713D02*
X32104704Y-77708094D01*
X32104704Y-77708094D02*
X32199942Y-77660475D01*
X32199942Y-77660475D02*
X32247561Y-77612856D01*
X32247561Y-77612856D02*
X32295180Y-77517618D01*
X121195180Y-31559523D02*
X121195180Y-31749999D01*
X121195180Y-31749999D02*
X121147561Y-31845237D01*
X121147561Y-31845237D02*
X121099942Y-31892856D01*
X121099942Y-31892856D02*
X120957085Y-31988094D01*
X120957085Y-31988094D02*
X120766609Y-32035713D01*
X120766609Y-32035713D02*
X120385657Y-32035713D01*
X120385657Y-32035713D02*
X120290419Y-31988094D01*
X120290419Y-31988094D02*
X120242800Y-31940475D01*
X120242800Y-31940475D02*
X120195180Y-31845237D01*
X120195180Y-31845237D02*
X120195180Y-31654761D01*
X120195180Y-31654761D02*
X120242800Y-31559523D01*
X120242800Y-31559523D02*
X120290419Y-31511904D01*
X120290419Y-31511904D02*
X120385657Y-31464285D01*
X120385657Y-31464285D02*
X120623752Y-31464285D01*
X120623752Y-31464285D02*
X120718990Y-31511904D01*
X120718990Y-31511904D02*
X120766609Y-31559523D01*
X120766609Y-31559523D02*
X120814228Y-31654761D01*
X120814228Y-31654761D02*
X120814228Y-31845237D01*
X120814228Y-31845237D02*
X120766609Y-31940475D01*
X120766609Y-31940475D02*
X120718990Y-31988094D01*
X120718990Y-31988094D02*
X120623752Y-32035713D01*
X50075180Y-31559523D02*
X50075180Y-31749999D01*
X50075180Y-31749999D02*
X50027561Y-31845237D01*
X50027561Y-31845237D02*
X49979942Y-31892856D01*
X49979942Y-31892856D02*
X49837085Y-31988094D01*
X49837085Y-31988094D02*
X49646609Y-32035713D01*
X49646609Y-32035713D02*
X49265657Y-32035713D01*
X49265657Y-32035713D02*
X49170419Y-31988094D01*
X49170419Y-31988094D02*
X49122800Y-31940475D01*
X49122800Y-31940475D02*
X49075180Y-31845237D01*
X49075180Y-31845237D02*
X49075180Y-31654761D01*
X49075180Y-31654761D02*
X49122800Y-31559523D01*
X49122800Y-31559523D02*
X49170419Y-31511904D01*
X49170419Y-31511904D02*
X49265657Y-31464285D01*
X49265657Y-31464285D02*
X49503752Y-31464285D01*
X49503752Y-31464285D02*
X49598990Y-31511904D01*
X49598990Y-31511904D02*
X49646609Y-31559523D01*
X49646609Y-31559523D02*
X49694228Y-31654761D01*
X49694228Y-31654761D02*
X49694228Y-31845237D01*
X49694228Y-31845237D02*
X49646609Y-31940475D01*
X49646609Y-31940475D02*
X49598990Y-31988094D01*
X49598990Y-31988094D02*
X49503752Y-32035713D01*
X103081847Y-46799523D02*
X102415180Y-46799523D01*
X103462800Y-47037618D02*
X102748514Y-47275713D01*
X102748514Y-47275713D02*
X102748514Y-46656666D01*
X103415180Y-24463332D02*
X103415180Y-23796666D01*
X103415180Y-23796666D02*
X102415180Y-24225237D01*
X121099942Y-62515713D02*
X121147561Y-62468094D01*
X121147561Y-62468094D02*
X121195180Y-62372856D01*
X121195180Y-62372856D02*
X121195180Y-62134761D01*
X121195180Y-62134761D02*
X121147561Y-62039523D01*
X121147561Y-62039523D02*
X121099942Y-61991904D01*
X121099942Y-61991904D02*
X121004704Y-61944285D01*
X121004704Y-61944285D02*
X120909466Y-61944285D01*
X120909466Y-61944285D02*
X120766609Y-61991904D01*
X120766609Y-61991904D02*
X120195180Y-62563332D01*
X120195180Y-62563332D02*
X120195180Y-61944285D01*
X13515180Y-69564285D02*
X13515180Y-70135713D01*
X13515180Y-69849999D02*
X14515180Y-69849999D01*
X14515180Y-69849999D02*
X14372323Y-69945237D01*
X14372323Y-69945237D02*
X14277085Y-70040475D01*
X14277085Y-70040475D02*
X14229466Y-70135713D01*
X67855180Y-24463332D02*
X67855180Y-23796666D01*
X67855180Y-23796666D02*
X66855180Y-24225237D01*
X85635180Y-24463332D02*
X85635180Y-23796666D01*
X85635180Y-23796666D02*
X84635180Y-24225237D01*
X121195180Y-77517618D02*
X121195180Y-77422380D01*
X121195180Y-77422380D02*
X121147561Y-77327142D01*
X121147561Y-77327142D02*
X121099942Y-77279523D01*
X121099942Y-77279523D02*
X121004704Y-77231904D01*
X121004704Y-77231904D02*
X120814228Y-77184285D01*
X120814228Y-77184285D02*
X120576133Y-77184285D01*
X120576133Y-77184285D02*
X120385657Y-77231904D01*
X120385657Y-77231904D02*
X120290419Y-77279523D01*
X120290419Y-77279523D02*
X120242800Y-77327142D01*
X120242800Y-77327142D02*
X120195180Y-77422380D01*
X120195180Y-77422380D02*
X120195180Y-77517618D01*
X120195180Y-77517618D02*
X120242800Y-77612856D01*
X120242800Y-77612856D02*
X120290419Y-77660475D01*
X120290419Y-77660475D02*
X120385657Y-77708094D01*
X120385657Y-77708094D02*
X120576133Y-77755713D01*
X120576133Y-77755713D02*
X120814228Y-77755713D01*
X120814228Y-77755713D02*
X121004704Y-77708094D01*
X121004704Y-77708094D02*
X121099942Y-77660475D01*
X121099942Y-77660475D02*
X121147561Y-77612856D01*
X121147561Y-77612856D02*
X121195180Y-77517618D01*
X38742857Y-108722438D02*
X38838095Y-108674819D01*
X38838095Y-108674819D02*
X38980952Y-108674819D01*
X38980952Y-108674819D02*
X39123809Y-108722438D01*
X39123809Y-108722438D02*
X39219047Y-108817676D01*
X39219047Y-108817676D02*
X39266666Y-108912914D01*
X39266666Y-108912914D02*
X39314285Y-109103390D01*
X39314285Y-109103390D02*
X39314285Y-109246247D01*
X39314285Y-109246247D02*
X39266666Y-109436723D01*
X39266666Y-109436723D02*
X39219047Y-109531961D01*
X39219047Y-109531961D02*
X39123809Y-109627200D01*
X39123809Y-109627200D02*
X38980952Y-109674819D01*
X38980952Y-109674819D02*
X38885714Y-109674819D01*
X38885714Y-109674819D02*
X38742857Y-109627200D01*
X38742857Y-109627200D02*
X38695238Y-109579580D01*
X38695238Y-109579580D02*
X38695238Y-109246247D01*
X38695238Y-109246247D02*
X38885714Y-109246247D01*
X38266666Y-109008152D02*
X38266666Y-109674819D01*
X38266666Y-109103390D02*
X38219047Y-109055771D01*
X38219047Y-109055771D02*
X38123809Y-109008152D01*
X38123809Y-109008152D02*
X37980952Y-109008152D01*
X37980952Y-109008152D02*
X37885714Y-109055771D01*
X37885714Y-109055771D02*
X37838095Y-109151009D01*
X37838095Y-109151009D02*
X37838095Y-109674819D01*
X36933333Y-109674819D02*
X36933333Y-108674819D01*
X36933333Y-109627200D02*
X37028571Y-109674819D01*
X37028571Y-109674819D02*
X37219047Y-109674819D01*
X37219047Y-109674819D02*
X37314285Y-109627200D01*
X37314285Y-109627200D02*
X37361904Y-109579580D01*
X37361904Y-109579580D02*
X37409523Y-109484342D01*
X37409523Y-109484342D02*
X37409523Y-109198628D01*
X37409523Y-109198628D02*
X37361904Y-109103390D01*
X37361904Y-109103390D02*
X37314285Y-109055771D01*
X37314285Y-109055771D02*
X37219047Y-109008152D01*
X37219047Y-109008152D02*
X37028571Y-109008152D01*
X37028571Y-109008152D02*
X36933333Y-109055771D01*
X50075180Y-24463332D02*
X50075180Y-23796666D01*
X50075180Y-23796666D02*
X49075180Y-24225237D01*
X85635180Y-77517618D02*
X85635180Y-77422380D01*
X85635180Y-77422380D02*
X85587561Y-77327142D01*
X85587561Y-77327142D02*
X85539942Y-77279523D01*
X85539942Y-77279523D02*
X85444704Y-77231904D01*
X85444704Y-77231904D02*
X85254228Y-77184285D01*
X85254228Y-77184285D02*
X85016133Y-77184285D01*
X85016133Y-77184285D02*
X84825657Y-77231904D01*
X84825657Y-77231904D02*
X84730419Y-77279523D01*
X84730419Y-77279523D02*
X84682800Y-77327142D01*
X84682800Y-77327142D02*
X84635180Y-77422380D01*
X84635180Y-77422380D02*
X84635180Y-77517618D01*
X84635180Y-77517618D02*
X84682800Y-77612856D01*
X84682800Y-77612856D02*
X84730419Y-77660475D01*
X84730419Y-77660475D02*
X84825657Y-77708094D01*
X84825657Y-77708094D02*
X85016133Y-77755713D01*
X85016133Y-77755713D02*
X85254228Y-77755713D01*
X85254228Y-77755713D02*
X85444704Y-77708094D01*
X85444704Y-77708094D02*
X85539942Y-77660475D01*
X85539942Y-77660475D02*
X85587561Y-77612856D01*
X85587561Y-77612856D02*
X85635180Y-77517618D01*
X85635180Y-39131904D02*
X85635180Y-39608094D01*
X85635180Y-39608094D02*
X85158990Y-39655713D01*
X85158990Y-39655713D02*
X85206609Y-39608094D01*
X85206609Y-39608094D02*
X85254228Y-39512856D01*
X85254228Y-39512856D02*
X85254228Y-39274761D01*
X85254228Y-39274761D02*
X85206609Y-39179523D01*
X85206609Y-39179523D02*
X85158990Y-39131904D01*
X85158990Y-39131904D02*
X85063752Y-39084285D01*
X85063752Y-39084285D02*
X84825657Y-39084285D01*
X84825657Y-39084285D02*
X84730419Y-39131904D01*
X84730419Y-39131904D02*
X84682800Y-39179523D01*
X84682800Y-39179523D02*
X84635180Y-39274761D01*
X84635180Y-39274761D02*
X84635180Y-39512856D01*
X84635180Y-39512856D02*
X84682800Y-39608094D01*
X84682800Y-39608094D02*
X84730419Y-39655713D01*
X34210475Y-108674819D02*
X33877142Y-109674819D01*
X33877142Y-109674819D02*
X33543809Y-108674819D01*
X32781904Y-109627200D02*
X32877142Y-109674819D01*
X32877142Y-109674819D02*
X33067618Y-109674819D01*
X33067618Y-109674819D02*
X33162856Y-109627200D01*
X33162856Y-109627200D02*
X33210475Y-109579580D01*
X33210475Y-109579580D02*
X33258094Y-109484342D01*
X33258094Y-109484342D02*
X33258094Y-109198628D01*
X33258094Y-109198628D02*
X33210475Y-109103390D01*
X33210475Y-109103390D02*
X33162856Y-109055771D01*
X33162856Y-109055771D02*
X33067618Y-109008152D01*
X33067618Y-109008152D02*
X32877142Y-109008152D01*
X32877142Y-109008152D02*
X32781904Y-109055771D01*
X31924761Y-109627200D02*
X32019999Y-109674819D01*
X32019999Y-109674819D02*
X32210475Y-109674819D01*
X32210475Y-109674819D02*
X32305713Y-109627200D01*
X32305713Y-109627200D02*
X32353332Y-109579580D01*
X32353332Y-109579580D02*
X32400951Y-109484342D01*
X32400951Y-109484342D02*
X32400951Y-109198628D01*
X32400951Y-109198628D02*
X32353332Y-109103390D01*
X32353332Y-109103390D02*
X32305713Y-109055771D01*
X32305713Y-109055771D02*
X32210475Y-109008152D01*
X32210475Y-109008152D02*
X32019999Y-109008152D01*
X32019999Y-109008152D02*
X31924761Y-109055771D01*
X14515180Y-39131904D02*
X14515180Y-39608094D01*
X14515180Y-39608094D02*
X14038990Y-39655713D01*
X14038990Y-39655713D02*
X14086609Y-39608094D01*
X14086609Y-39608094D02*
X14134228Y-39512856D01*
X14134228Y-39512856D02*
X14134228Y-39274761D01*
X14134228Y-39274761D02*
X14086609Y-39179523D01*
X14086609Y-39179523D02*
X14038990Y-39131904D01*
X14038990Y-39131904D02*
X13943752Y-39084285D01*
X13943752Y-39084285D02*
X13705657Y-39084285D01*
X13705657Y-39084285D02*
X13610419Y-39131904D01*
X13610419Y-39131904D02*
X13562800Y-39179523D01*
X13562800Y-39179523D02*
X13515180Y-39274761D01*
X13515180Y-39274761D02*
X13515180Y-39512856D01*
X13515180Y-39512856D02*
X13562800Y-39608094D01*
X13562800Y-39608094D02*
X13610419Y-39655713D01*
X103415180Y-54943332D02*
X103415180Y-54324285D01*
X103415180Y-54324285D02*
X103034228Y-54657618D01*
X103034228Y-54657618D02*
X103034228Y-54514761D01*
X103034228Y-54514761D02*
X102986609Y-54419523D01*
X102986609Y-54419523D02*
X102938990Y-54371904D01*
X102938990Y-54371904D02*
X102843752Y-54324285D01*
X102843752Y-54324285D02*
X102605657Y-54324285D01*
X102605657Y-54324285D02*
X102510419Y-54371904D01*
X102510419Y-54371904D02*
X102462800Y-54419523D01*
X102462800Y-54419523D02*
X102415180Y-54514761D01*
X102415180Y-54514761D02*
X102415180Y-54800475D01*
X102415180Y-54800475D02*
X102462800Y-54895713D01*
X102462800Y-54895713D02*
X102510419Y-54943332D01*
X14515180Y-77517618D02*
X14515180Y-77422380D01*
X14515180Y-77422380D02*
X14467561Y-77327142D01*
X14467561Y-77327142D02*
X14419942Y-77279523D01*
X14419942Y-77279523D02*
X14324704Y-77231904D01*
X14324704Y-77231904D02*
X14134228Y-77184285D01*
X14134228Y-77184285D02*
X13896133Y-77184285D01*
X13896133Y-77184285D02*
X13705657Y-77231904D01*
X13705657Y-77231904D02*
X13610419Y-77279523D01*
X13610419Y-77279523D02*
X13562800Y-77327142D01*
X13562800Y-77327142D02*
X13515180Y-77422380D01*
X13515180Y-77422380D02*
X13515180Y-77517618D01*
X13515180Y-77517618D02*
X13562800Y-77612856D01*
X13562800Y-77612856D02*
X13610419Y-77660475D01*
X13610419Y-77660475D02*
X13705657Y-77708094D01*
X13705657Y-77708094D02*
X13896133Y-77755713D01*
X13896133Y-77755713D02*
X14134228Y-77755713D01*
X14134228Y-77755713D02*
X14324704Y-77708094D01*
X14324704Y-77708094D02*
X14419942Y-77660475D01*
X14419942Y-77660475D02*
X14467561Y-77612856D01*
X14467561Y-77612856D02*
X14515180Y-77517618D01*
X84635180Y-69564285D02*
X84635180Y-70135713D01*
X84635180Y-69849999D02*
X85635180Y-69849999D01*
X85635180Y-69849999D02*
X85492323Y-69945237D01*
X85492323Y-69945237D02*
X85397085Y-70040475D01*
X85397085Y-70040475D02*
X85349466Y-70135713D01*
X67855180Y-77517618D02*
X67855180Y-77422380D01*
X67855180Y-77422380D02*
X67807561Y-77327142D01*
X67807561Y-77327142D02*
X67759942Y-77279523D01*
X67759942Y-77279523D02*
X67664704Y-77231904D01*
X67664704Y-77231904D02*
X67474228Y-77184285D01*
X67474228Y-77184285D02*
X67236133Y-77184285D01*
X67236133Y-77184285D02*
X67045657Y-77231904D01*
X67045657Y-77231904D02*
X66950419Y-77279523D01*
X66950419Y-77279523D02*
X66902800Y-77327142D01*
X66902800Y-77327142D02*
X66855180Y-77422380D01*
X66855180Y-77422380D02*
X66855180Y-77517618D01*
X66855180Y-77517618D02*
X66902800Y-77612856D01*
X66902800Y-77612856D02*
X66950419Y-77660475D01*
X66950419Y-77660475D02*
X67045657Y-77708094D01*
X67045657Y-77708094D02*
X67236133Y-77755713D01*
X67236133Y-77755713D02*
X67474228Y-77755713D01*
X67474228Y-77755713D02*
X67664704Y-77708094D01*
X67664704Y-77708094D02*
X67759942Y-77660475D01*
X67759942Y-77660475D02*
X67807561Y-77612856D01*
X67807561Y-77612856D02*
X67855180Y-77517618D01*
X138975180Y-54943332D02*
X138975180Y-54324285D01*
X138975180Y-54324285D02*
X138594228Y-54657618D01*
X138594228Y-54657618D02*
X138594228Y-54514761D01*
X138594228Y-54514761D02*
X138546609Y-54419523D01*
X138546609Y-54419523D02*
X138498990Y-54371904D01*
X138498990Y-54371904D02*
X138403752Y-54324285D01*
X138403752Y-54324285D02*
X138165657Y-54324285D01*
X138165657Y-54324285D02*
X138070419Y-54371904D01*
X138070419Y-54371904D02*
X138022800Y-54419523D01*
X138022800Y-54419523D02*
X137975180Y-54514761D01*
X137975180Y-54514761D02*
X137975180Y-54800475D01*
X137975180Y-54800475D02*
X138022800Y-54895713D01*
X138022800Y-54895713D02*
X138070419Y-54943332D01*
X49075180Y-69564285D02*
X49075180Y-70135713D01*
X49075180Y-69849999D02*
X50075180Y-69849999D01*
X50075180Y-69849999D02*
X49932323Y-69945237D01*
X49932323Y-69945237D02*
X49837085Y-70040475D01*
X49837085Y-70040475D02*
X49789466Y-70135713D01*
X14419942Y-62515713D02*
X14467561Y-62468094D01*
X14467561Y-62468094D02*
X14515180Y-62372856D01*
X14515180Y-62372856D02*
X14515180Y-62134761D01*
X14515180Y-62134761D02*
X14467561Y-62039523D01*
X14467561Y-62039523D02*
X14419942Y-61991904D01*
X14419942Y-61991904D02*
X14324704Y-61944285D01*
X14324704Y-61944285D02*
X14229466Y-61944285D01*
X14229466Y-61944285D02*
X14086609Y-61991904D01*
X14086609Y-61991904D02*
X13515180Y-62563332D01*
X13515180Y-62563332D02*
X13515180Y-61944285D01*
X121195180Y-39131904D02*
X121195180Y-39608094D01*
X121195180Y-39608094D02*
X120718990Y-39655713D01*
X120718990Y-39655713D02*
X120766609Y-39608094D01*
X120766609Y-39608094D02*
X120814228Y-39512856D01*
X120814228Y-39512856D02*
X120814228Y-39274761D01*
X120814228Y-39274761D02*
X120766609Y-39179523D01*
X120766609Y-39179523D02*
X120718990Y-39131904D01*
X120718990Y-39131904D02*
X120623752Y-39084285D01*
X120623752Y-39084285D02*
X120385657Y-39084285D01*
X120385657Y-39084285D02*
X120290419Y-39131904D01*
X120290419Y-39131904D02*
X120242800Y-39179523D01*
X120242800Y-39179523D02*
X120195180Y-39274761D01*
X120195180Y-39274761D02*
X120195180Y-39512856D01*
X120195180Y-39512856D02*
X120242800Y-39608094D01*
X120242800Y-39608094D02*
X120290419Y-39655713D01*
X50075180Y-77517618D02*
X50075180Y-77422380D01*
X50075180Y-77422380D02*
X50027561Y-77327142D01*
X50027561Y-77327142D02*
X49979942Y-77279523D01*
X49979942Y-77279523D02*
X49884704Y-77231904D01*
X49884704Y-77231904D02*
X49694228Y-77184285D01*
X49694228Y-77184285D02*
X49456133Y-77184285D01*
X49456133Y-77184285D02*
X49265657Y-77231904D01*
X49265657Y-77231904D02*
X49170419Y-77279523D01*
X49170419Y-77279523D02*
X49122800Y-77327142D01*
X49122800Y-77327142D02*
X49075180Y-77422380D01*
X49075180Y-77422380D02*
X49075180Y-77517618D01*
X49075180Y-77517618D02*
X49122800Y-77612856D01*
X49122800Y-77612856D02*
X49170419Y-77660475D01*
X49170419Y-77660475D02*
X49265657Y-77708094D01*
X49265657Y-77708094D02*
X49456133Y-77755713D01*
X49456133Y-77755713D02*
X49694228Y-77755713D01*
X49694228Y-77755713D02*
X49884704Y-77708094D01*
X49884704Y-77708094D02*
X49979942Y-77660475D01*
X49979942Y-77660475D02*
X50027561Y-77612856D01*
X50027561Y-77612856D02*
X50075180Y-77517618D01*
X50075180Y-39131904D02*
X50075180Y-39608094D01*
X50075180Y-39608094D02*
X49598990Y-39655713D01*
X49598990Y-39655713D02*
X49646609Y-39608094D01*
X49646609Y-39608094D02*
X49694228Y-39512856D01*
X49694228Y-39512856D02*
X49694228Y-39274761D01*
X49694228Y-39274761D02*
X49646609Y-39179523D01*
X49646609Y-39179523D02*
X49598990Y-39131904D01*
X49598990Y-39131904D02*
X49503752Y-39084285D01*
X49503752Y-39084285D02*
X49265657Y-39084285D01*
X49265657Y-39084285D02*
X49170419Y-39131904D01*
X49170419Y-39131904D02*
X49122800Y-39179523D01*
X49122800Y-39179523D02*
X49075180Y-39274761D01*
X49075180Y-39274761D02*
X49075180Y-39512856D01*
X49075180Y-39512856D02*
X49122800Y-39608094D01*
X49122800Y-39608094D02*
X49170419Y-39655713D01*
X14181847Y-46799523D02*
X13515180Y-46799523D01*
X14562800Y-47037618D02*
X13848514Y-47275713D01*
X13848514Y-47275713D02*
X13848514Y-46656666D01*
X67855180Y-54943332D02*
X67855180Y-54324285D01*
X67855180Y-54324285D02*
X67474228Y-54657618D01*
X67474228Y-54657618D02*
X67474228Y-54514761D01*
X67474228Y-54514761D02*
X67426609Y-54419523D01*
X67426609Y-54419523D02*
X67378990Y-54371904D01*
X67378990Y-54371904D02*
X67283752Y-54324285D01*
X67283752Y-54324285D02*
X67045657Y-54324285D01*
X67045657Y-54324285D02*
X66950419Y-54371904D01*
X66950419Y-54371904D02*
X66902800Y-54419523D01*
X66902800Y-54419523D02*
X66855180Y-54514761D01*
X66855180Y-54514761D02*
X66855180Y-54800475D01*
X66855180Y-54800475D02*
X66902800Y-54895713D01*
X66902800Y-54895713D02*
X66950419Y-54943332D01*
X103319942Y-62515713D02*
X103367561Y-62468094D01*
X103367561Y-62468094D02*
X103415180Y-62372856D01*
X103415180Y-62372856D02*
X103415180Y-62134761D01*
X103415180Y-62134761D02*
X103367561Y-62039523D01*
X103367561Y-62039523D02*
X103319942Y-61991904D01*
X103319942Y-61991904D02*
X103224704Y-61944285D01*
X103224704Y-61944285D02*
X103129466Y-61944285D01*
X103129466Y-61944285D02*
X102986609Y-61991904D01*
X102986609Y-61991904D02*
X102415180Y-62563332D01*
X102415180Y-62563332D02*
X102415180Y-61944285D01*
X138975180Y-77517618D02*
X138975180Y-77422380D01*
X138975180Y-77422380D02*
X138927561Y-77327142D01*
X138927561Y-77327142D02*
X138879942Y-77279523D01*
X138879942Y-77279523D02*
X138784704Y-77231904D01*
X138784704Y-77231904D02*
X138594228Y-77184285D01*
X138594228Y-77184285D02*
X138356133Y-77184285D01*
X138356133Y-77184285D02*
X138165657Y-77231904D01*
X138165657Y-77231904D02*
X138070419Y-77279523D01*
X138070419Y-77279523D02*
X138022800Y-77327142D01*
X138022800Y-77327142D02*
X137975180Y-77422380D01*
X137975180Y-77422380D02*
X137975180Y-77517618D01*
X137975180Y-77517618D02*
X138022800Y-77612856D01*
X138022800Y-77612856D02*
X138070419Y-77660475D01*
X138070419Y-77660475D02*
X138165657Y-77708094D01*
X138165657Y-77708094D02*
X138356133Y-77755713D01*
X138356133Y-77755713D02*
X138594228Y-77755713D01*
X138594228Y-77755713D02*
X138784704Y-77708094D01*
X138784704Y-77708094D02*
X138879942Y-77660475D01*
X138879942Y-77660475D02*
X138927561Y-77612856D01*
X138927561Y-77612856D02*
X138975180Y-77517618D01*
X67855180Y-31559523D02*
X67855180Y-31749999D01*
X67855180Y-31749999D02*
X67807561Y-31845237D01*
X67807561Y-31845237D02*
X67759942Y-31892856D01*
X67759942Y-31892856D02*
X67617085Y-31988094D01*
X67617085Y-31988094D02*
X67426609Y-32035713D01*
X67426609Y-32035713D02*
X67045657Y-32035713D01*
X67045657Y-32035713D02*
X66950419Y-31988094D01*
X66950419Y-31988094D02*
X66902800Y-31940475D01*
X66902800Y-31940475D02*
X66855180Y-31845237D01*
X66855180Y-31845237D02*
X66855180Y-31654761D01*
X66855180Y-31654761D02*
X66902800Y-31559523D01*
X66902800Y-31559523D02*
X66950419Y-31511904D01*
X66950419Y-31511904D02*
X67045657Y-31464285D01*
X67045657Y-31464285D02*
X67283752Y-31464285D01*
X67283752Y-31464285D02*
X67378990Y-31511904D01*
X67378990Y-31511904D02*
X67426609Y-31559523D01*
X67426609Y-31559523D02*
X67474228Y-31654761D01*
X67474228Y-31654761D02*
X67474228Y-31845237D01*
X67474228Y-31845237D02*
X67426609Y-31940475D01*
X67426609Y-31940475D02*
X67378990Y-31988094D01*
X67378990Y-31988094D02*
X67283752Y-32035713D01*
X32295180Y-31559523D02*
X32295180Y-31749999D01*
X32295180Y-31749999D02*
X32247561Y-31845237D01*
X32247561Y-31845237D02*
X32199942Y-31892856D01*
X32199942Y-31892856D02*
X32057085Y-31988094D01*
X32057085Y-31988094D02*
X31866609Y-32035713D01*
X31866609Y-32035713D02*
X31485657Y-32035713D01*
X31485657Y-32035713D02*
X31390419Y-31988094D01*
X31390419Y-31988094D02*
X31342800Y-31940475D01*
X31342800Y-31940475D02*
X31295180Y-31845237D01*
X31295180Y-31845237D02*
X31295180Y-31654761D01*
X31295180Y-31654761D02*
X31342800Y-31559523D01*
X31342800Y-31559523D02*
X31390419Y-31511904D01*
X31390419Y-31511904D02*
X31485657Y-31464285D01*
X31485657Y-31464285D02*
X31723752Y-31464285D01*
X31723752Y-31464285D02*
X31818990Y-31511904D01*
X31818990Y-31511904D02*
X31866609Y-31559523D01*
X31866609Y-31559523D02*
X31914228Y-31654761D01*
X31914228Y-31654761D02*
X31914228Y-31845237D01*
X31914228Y-31845237D02*
X31866609Y-31940475D01*
X31866609Y-31940475D02*
X31818990Y-31988094D01*
X31818990Y-31988094D02*
X31723752Y-32035713D01*
X121195180Y-54943332D02*
X121195180Y-54324285D01*
X121195180Y-54324285D02*
X120814228Y-54657618D01*
X120814228Y-54657618D02*
X120814228Y-54514761D01*
X120814228Y-54514761D02*
X120766609Y-54419523D01*
X120766609Y-54419523D02*
X120718990Y-54371904D01*
X120718990Y-54371904D02*
X120623752Y-54324285D01*
X120623752Y-54324285D02*
X120385657Y-54324285D01*
X120385657Y-54324285D02*
X120290419Y-54371904D01*
X120290419Y-54371904D02*
X120242800Y-54419523D01*
X120242800Y-54419523D02*
X120195180Y-54514761D01*
X120195180Y-54514761D02*
X120195180Y-54800475D01*
X120195180Y-54800475D02*
X120242800Y-54895713D01*
X120242800Y-54895713D02*
X120290419Y-54943332D01*
X102415180Y-69564285D02*
X102415180Y-70135713D01*
X102415180Y-69849999D02*
X103415180Y-69849999D01*
X103415180Y-69849999D02*
X103272323Y-69945237D01*
X103272323Y-69945237D02*
X103177085Y-70040475D01*
X103177085Y-70040475D02*
X103129466Y-70135713D01*
X85256666Y-106182319D02*
X85589999Y-105706128D01*
X85828094Y-106182319D02*
X85828094Y-105182319D01*
X85828094Y-105182319D02*
X85447142Y-105182319D01*
X85447142Y-105182319D02*
X85351904Y-105229938D01*
X85351904Y-105229938D02*
X85304285Y-105277557D01*
X85304285Y-105277557D02*
X85256666Y-105372795D01*
X85256666Y-105372795D02*
X85256666Y-105515652D01*
X85256666Y-105515652D02*
X85304285Y-105610890D01*
X85304285Y-105610890D02*
X85351904Y-105658509D01*
X85351904Y-105658509D02*
X85447142Y-105706128D01*
X85447142Y-105706128D02*
X85828094Y-105706128D01*
X84351904Y-105182319D02*
X84828094Y-105182319D01*
X84828094Y-105182319D02*
X84875713Y-105658509D01*
X84875713Y-105658509D02*
X84828094Y-105610890D01*
X84828094Y-105610890D02*
X84732856Y-105563271D01*
X84732856Y-105563271D02*
X84494761Y-105563271D01*
X84494761Y-105563271D02*
X84399523Y-105610890D01*
X84399523Y-105610890D02*
X84351904Y-105658509D01*
X84351904Y-105658509D02*
X84304285Y-105753747D01*
X84304285Y-105753747D02*
X84304285Y-105991842D01*
X84304285Y-105991842D02*
X84351904Y-106087080D01*
X84351904Y-106087080D02*
X84399523Y-106134700D01*
X84399523Y-106134700D02*
X84494761Y-106182319D01*
X84494761Y-106182319D02*
X84732856Y-106182319D01*
X84732856Y-106182319D02*
X84828094Y-106134700D01*
X84828094Y-106134700D02*
X84875713Y-106087080D01*
X43539580Y-70318333D02*
X43587200Y-70270714D01*
X43587200Y-70270714D02*
X43634819Y-70127857D01*
X43634819Y-70127857D02*
X43634819Y-70032619D01*
X43634819Y-70032619D02*
X43587200Y-69889762D01*
X43587200Y-69889762D02*
X43491961Y-69794524D01*
X43491961Y-69794524D02*
X43396723Y-69746905D01*
X43396723Y-69746905D02*
X43206247Y-69699286D01*
X43206247Y-69699286D02*
X43063390Y-69699286D01*
X43063390Y-69699286D02*
X42872914Y-69746905D01*
X42872914Y-69746905D02*
X42777676Y-69794524D01*
X42777676Y-69794524D02*
X42682438Y-69889762D01*
X42682438Y-69889762D02*
X42634819Y-70032619D01*
X42634819Y-70032619D02*
X42634819Y-70127857D01*
X42634819Y-70127857D02*
X42682438Y-70270714D01*
X42682438Y-70270714D02*
X42730057Y-70318333D01*
X43634819Y-71270714D02*
X43634819Y-70699286D01*
X43634819Y-70985000D02*
X42634819Y-70985000D01*
X42634819Y-70985000D02*
X42777676Y-70889762D01*
X42777676Y-70889762D02*
X42872914Y-70794524D01*
X42872914Y-70794524D02*
X42920533Y-70699286D01*
X132439580Y-70000833D02*
X132487200Y-69953214D01*
X132487200Y-69953214D02*
X132534819Y-69810357D01*
X132534819Y-69810357D02*
X132534819Y-69715119D01*
X132534819Y-69715119D02*
X132487200Y-69572262D01*
X132487200Y-69572262D02*
X132391961Y-69477024D01*
X132391961Y-69477024D02*
X132296723Y-69429405D01*
X132296723Y-69429405D02*
X132106247Y-69381786D01*
X132106247Y-69381786D02*
X131963390Y-69381786D01*
X131963390Y-69381786D02*
X131772914Y-69429405D01*
X131772914Y-69429405D02*
X131677676Y-69477024D01*
X131677676Y-69477024D02*
X131582438Y-69572262D01*
X131582438Y-69572262D02*
X131534819Y-69715119D01*
X131534819Y-69715119D02*
X131534819Y-69810357D01*
X131534819Y-69810357D02*
X131582438Y-69953214D01*
X131582438Y-69953214D02*
X131630057Y-70000833D01*
X131630057Y-70381786D02*
X131582438Y-70429405D01*
X131582438Y-70429405D02*
X131534819Y-70524643D01*
X131534819Y-70524643D02*
X131534819Y-70762738D01*
X131534819Y-70762738D02*
X131582438Y-70857976D01*
X131582438Y-70857976D02*
X131630057Y-70905595D01*
X131630057Y-70905595D02*
X131725295Y-70953214D01*
X131725295Y-70953214D02*
X131820533Y-70953214D01*
X131820533Y-70953214D02*
X131963390Y-70905595D01*
X131963390Y-70905595D02*
X132534819Y-70334167D01*
X132534819Y-70334167D02*
X132534819Y-70953214D01*
X115294580Y-106280833D02*
X115342200Y-106233214D01*
X115342200Y-106233214D02*
X115389819Y-106090357D01*
X115389819Y-106090357D02*
X115389819Y-105995119D01*
X115389819Y-105995119D02*
X115342200Y-105852262D01*
X115342200Y-105852262D02*
X115246961Y-105757024D01*
X115246961Y-105757024D02*
X115151723Y-105709405D01*
X115151723Y-105709405D02*
X114961247Y-105661786D01*
X114961247Y-105661786D02*
X114818390Y-105661786D01*
X114818390Y-105661786D02*
X114627914Y-105709405D01*
X114627914Y-105709405D02*
X114532676Y-105757024D01*
X114532676Y-105757024D02*
X114437438Y-105852262D01*
X114437438Y-105852262D02*
X114389819Y-105995119D01*
X114389819Y-105995119D02*
X114389819Y-106090357D01*
X114389819Y-106090357D02*
X114437438Y-106233214D01*
X114437438Y-106233214D02*
X114485057Y-106280833D01*
X114389819Y-106614167D02*
X114389819Y-107233214D01*
X114389819Y-107233214D02*
X114770771Y-106899881D01*
X114770771Y-106899881D02*
X114770771Y-107042738D01*
X114770771Y-107042738D02*
X114818390Y-107137976D01*
X114818390Y-107137976D02*
X114866009Y-107185595D01*
X114866009Y-107185595D02*
X114961247Y-107233214D01*
X114961247Y-107233214D02*
X115199342Y-107233214D01*
X115199342Y-107233214D02*
X115294580Y-107185595D01*
X115294580Y-107185595D02*
X115342200Y-107137976D01*
X115342200Y-107137976D02*
X115389819Y-107042738D01*
X115389819Y-107042738D02*
X115389819Y-106757024D01*
X115389819Y-106757024D02*
X115342200Y-106661786D01*
X115342200Y-106661786D02*
X115294580Y-106614167D01*
X65764580Y-105793333D02*
X65812200Y-105745714D01*
X65812200Y-105745714D02*
X65859819Y-105602857D01*
X65859819Y-105602857D02*
X65859819Y-105507619D01*
X65859819Y-105507619D02*
X65812200Y-105364762D01*
X65812200Y-105364762D02*
X65716961Y-105269524D01*
X65716961Y-105269524D02*
X65621723Y-105221905D01*
X65621723Y-105221905D02*
X65431247Y-105174286D01*
X65431247Y-105174286D02*
X65288390Y-105174286D01*
X65288390Y-105174286D02*
X65097914Y-105221905D01*
X65097914Y-105221905D02*
X65002676Y-105269524D01*
X65002676Y-105269524D02*
X64907438Y-105364762D01*
X64907438Y-105364762D02*
X64859819Y-105507619D01*
X64859819Y-105507619D02*
X64859819Y-105602857D01*
X64859819Y-105602857D02*
X64907438Y-105745714D01*
X64907438Y-105745714D02*
X64955057Y-105793333D01*
X65193152Y-106650476D02*
X65859819Y-106650476D01*
X64812200Y-106412381D02*
X65526485Y-106174286D01*
X65526485Y-106174286D02*
X65526485Y-106793333D01*
X33610057Y-102409761D02*
X33562438Y-102314523D01*
X33562438Y-102314523D02*
X33467200Y-102219285D01*
X33467200Y-102219285D02*
X33324342Y-102076428D01*
X33324342Y-102076428D02*
X33276723Y-101981190D01*
X33276723Y-101981190D02*
X33276723Y-101885952D01*
X33514819Y-101933571D02*
X33467200Y-101838333D01*
X33467200Y-101838333D02*
X33371961Y-101743095D01*
X33371961Y-101743095D02*
X33181485Y-101695476D01*
X33181485Y-101695476D02*
X32848152Y-101695476D01*
X32848152Y-101695476D02*
X32657676Y-101743095D01*
X32657676Y-101743095D02*
X32562438Y-101838333D01*
X32562438Y-101838333D02*
X32514819Y-101933571D01*
X32514819Y-101933571D02*
X32514819Y-102124047D01*
X32514819Y-102124047D02*
X32562438Y-102219285D01*
X32562438Y-102219285D02*
X32657676Y-102314523D01*
X32657676Y-102314523D02*
X32848152Y-102362142D01*
X32848152Y-102362142D02*
X33181485Y-102362142D01*
X33181485Y-102362142D02*
X33371961Y-102314523D01*
X33371961Y-102314523D02*
X33467200Y-102219285D01*
X33467200Y-102219285D02*
X33514819Y-102124047D01*
X33514819Y-102124047D02*
X33514819Y-101933571D01*
X33514819Y-103314523D02*
X33514819Y-102743095D01*
X33514819Y-103028809D02*
X32514819Y-103028809D01*
X32514819Y-103028809D02*
X32657676Y-102933571D01*
X32657676Y-102933571D02*
X32752914Y-102838333D01*
X32752914Y-102838333D02*
X32800533Y-102743095D01*
X54681666Y-108404819D02*
X55014999Y-107928628D01*
X55253094Y-108404819D02*
X55253094Y-107404819D01*
X55253094Y-107404819D02*
X54872142Y-107404819D01*
X54872142Y-107404819D02*
X54776904Y-107452438D01*
X54776904Y-107452438D02*
X54729285Y-107500057D01*
X54729285Y-107500057D02*
X54681666Y-107595295D01*
X54681666Y-107595295D02*
X54681666Y-107738152D01*
X54681666Y-107738152D02*
X54729285Y-107833390D01*
X54729285Y-107833390D02*
X54776904Y-107881009D01*
X54776904Y-107881009D02*
X54872142Y-107928628D01*
X54872142Y-107928628D02*
X55253094Y-107928628D01*
X53729285Y-108404819D02*
X54300713Y-108404819D01*
X54014999Y-108404819D02*
X54014999Y-107404819D01*
X54014999Y-107404819D02*
X54110237Y-107547676D01*
X54110237Y-107547676D02*
X54205475Y-107642914D01*
X54205475Y-107642914D02*
X54300713Y-107690533D01*
X96879580Y-70000833D02*
X96927200Y-69953214D01*
X96927200Y-69953214D02*
X96974819Y-69810357D01*
X96974819Y-69810357D02*
X96974819Y-69715119D01*
X96974819Y-69715119D02*
X96927200Y-69572262D01*
X96927200Y-69572262D02*
X96831961Y-69477024D01*
X96831961Y-69477024D02*
X96736723Y-69429405D01*
X96736723Y-69429405D02*
X96546247Y-69381786D01*
X96546247Y-69381786D02*
X96403390Y-69381786D01*
X96403390Y-69381786D02*
X96212914Y-69429405D01*
X96212914Y-69429405D02*
X96117676Y-69477024D01*
X96117676Y-69477024D02*
X96022438Y-69572262D01*
X96022438Y-69572262D02*
X95974819Y-69715119D01*
X95974819Y-69715119D02*
X95974819Y-69810357D01*
X95974819Y-69810357D02*
X96022438Y-69953214D01*
X96022438Y-69953214D02*
X96070057Y-70000833D01*
X96974819Y-70477024D02*
X96974819Y-70667500D01*
X96974819Y-70667500D02*
X96927200Y-70762738D01*
X96927200Y-70762738D02*
X96879580Y-70810357D01*
X96879580Y-70810357D02*
X96736723Y-70905595D01*
X96736723Y-70905595D02*
X96546247Y-70953214D01*
X96546247Y-70953214D02*
X96165295Y-70953214D01*
X96165295Y-70953214D02*
X96070057Y-70905595D01*
X96070057Y-70905595D02*
X96022438Y-70857976D01*
X96022438Y-70857976D02*
X95974819Y-70762738D01*
X95974819Y-70762738D02*
X95974819Y-70572262D01*
X95974819Y-70572262D02*
X96022438Y-70477024D01*
X96022438Y-70477024D02*
X96070057Y-70429405D01*
X96070057Y-70429405D02*
X96165295Y-70381786D01*
X96165295Y-70381786D02*
X96403390Y-70381786D01*
X96403390Y-70381786D02*
X96498628Y-70429405D01*
X96498628Y-70429405D02*
X96546247Y-70477024D01*
X96546247Y-70477024D02*
X96593866Y-70572262D01*
X96593866Y-70572262D02*
X96593866Y-70762738D01*
X96593866Y-70762738D02*
X96546247Y-70857976D01*
X96546247Y-70857976D02*
X96498628Y-70905595D01*
X96498628Y-70905595D02*
X96403390Y-70953214D01*
X150219580Y-70000833D02*
X150267200Y-69953214D01*
X150267200Y-69953214D02*
X150314819Y-69810357D01*
X150314819Y-69810357D02*
X150314819Y-69715119D01*
X150314819Y-69715119D02*
X150267200Y-69572262D01*
X150267200Y-69572262D02*
X150171961Y-69477024D01*
X150171961Y-69477024D02*
X150076723Y-69429405D01*
X150076723Y-69429405D02*
X149886247Y-69381786D01*
X149886247Y-69381786D02*
X149743390Y-69381786D01*
X149743390Y-69381786D02*
X149552914Y-69429405D01*
X149552914Y-69429405D02*
X149457676Y-69477024D01*
X149457676Y-69477024D02*
X149362438Y-69572262D01*
X149362438Y-69572262D02*
X149314819Y-69715119D01*
X149314819Y-69715119D02*
X149314819Y-69810357D01*
X149314819Y-69810357D02*
X149362438Y-69953214D01*
X149362438Y-69953214D02*
X149410057Y-70000833D01*
X149314819Y-70334167D02*
X149314819Y-71000833D01*
X149314819Y-71000833D02*
X150314819Y-70572262D01*
X25759580Y-70000833D02*
X25807200Y-69953214D01*
X25807200Y-69953214D02*
X25854819Y-69810357D01*
X25854819Y-69810357D02*
X25854819Y-69715119D01*
X25854819Y-69715119D02*
X25807200Y-69572262D01*
X25807200Y-69572262D02*
X25711961Y-69477024D01*
X25711961Y-69477024D02*
X25616723Y-69429405D01*
X25616723Y-69429405D02*
X25426247Y-69381786D01*
X25426247Y-69381786D02*
X25283390Y-69381786D01*
X25283390Y-69381786D02*
X25092914Y-69429405D01*
X25092914Y-69429405D02*
X24997676Y-69477024D01*
X24997676Y-69477024D02*
X24902438Y-69572262D01*
X24902438Y-69572262D02*
X24854819Y-69715119D01*
X24854819Y-69715119D02*
X24854819Y-69810357D01*
X24854819Y-69810357D02*
X24902438Y-69953214D01*
X24902438Y-69953214D02*
X24950057Y-70000833D01*
X24854819Y-70905595D02*
X24854819Y-70429405D01*
X24854819Y-70429405D02*
X25331009Y-70381786D01*
X25331009Y-70381786D02*
X25283390Y-70429405D01*
X25283390Y-70429405D02*
X25235771Y-70524643D01*
X25235771Y-70524643D02*
X25235771Y-70762738D01*
X25235771Y-70762738D02*
X25283390Y-70857976D01*
X25283390Y-70857976D02*
X25331009Y-70905595D01*
X25331009Y-70905595D02*
X25426247Y-70953214D01*
X25426247Y-70953214D02*
X25664342Y-70953214D01*
X25664342Y-70953214D02*
X25759580Y-70905595D01*
X25759580Y-70905595D02*
X25807200Y-70857976D01*
X25807200Y-70857976D02*
X25854819Y-70762738D01*
X25854819Y-70762738D02*
X25854819Y-70524643D01*
X25854819Y-70524643D02*
X25807200Y-70429405D01*
X25807200Y-70429405D02*
X25759580Y-70381786D01*
X114659580Y-70000833D02*
X114707200Y-69953214D01*
X114707200Y-69953214D02*
X114754819Y-69810357D01*
X114754819Y-69810357D02*
X114754819Y-69715119D01*
X114754819Y-69715119D02*
X114707200Y-69572262D01*
X114707200Y-69572262D02*
X114611961Y-69477024D01*
X114611961Y-69477024D02*
X114516723Y-69429405D01*
X114516723Y-69429405D02*
X114326247Y-69381786D01*
X114326247Y-69381786D02*
X114183390Y-69381786D01*
X114183390Y-69381786D02*
X113992914Y-69429405D01*
X113992914Y-69429405D02*
X113897676Y-69477024D01*
X113897676Y-69477024D02*
X113802438Y-69572262D01*
X113802438Y-69572262D02*
X113754819Y-69715119D01*
X113754819Y-69715119D02*
X113754819Y-69810357D01*
X113754819Y-69810357D02*
X113802438Y-69953214D01*
X113802438Y-69953214D02*
X113850057Y-70000833D01*
X114183390Y-70572262D02*
X114135771Y-70477024D01*
X114135771Y-70477024D02*
X114088152Y-70429405D01*
X114088152Y-70429405D02*
X113992914Y-70381786D01*
X113992914Y-70381786D02*
X113945295Y-70381786D01*
X113945295Y-70381786D02*
X113850057Y-70429405D01*
X113850057Y-70429405D02*
X113802438Y-70477024D01*
X113802438Y-70477024D02*
X113754819Y-70572262D01*
X113754819Y-70572262D02*
X113754819Y-70762738D01*
X113754819Y-70762738D02*
X113802438Y-70857976D01*
X113802438Y-70857976D02*
X113850057Y-70905595D01*
X113850057Y-70905595D02*
X113945295Y-70953214D01*
X113945295Y-70953214D02*
X113992914Y-70953214D01*
X113992914Y-70953214D02*
X114088152Y-70905595D01*
X114088152Y-70905595D02*
X114135771Y-70857976D01*
X114135771Y-70857976D02*
X114183390Y-70762738D01*
X114183390Y-70762738D02*
X114183390Y-70572262D01*
X114183390Y-70572262D02*
X114231009Y-70477024D01*
X114231009Y-70477024D02*
X114278628Y-70429405D01*
X114278628Y-70429405D02*
X114373866Y-70381786D01*
X114373866Y-70381786D02*
X114564342Y-70381786D01*
X114564342Y-70381786D02*
X114659580Y-70429405D01*
X114659580Y-70429405D02*
X114707200Y-70477024D01*
X114707200Y-70477024D02*
X114754819Y-70572262D01*
X114754819Y-70572262D02*
X114754819Y-70762738D01*
X114754819Y-70762738D02*
X114707200Y-70857976D01*
X114707200Y-70857976D02*
X114659580Y-70905595D01*
X114659580Y-70905595D02*
X114564342Y-70953214D01*
X114564342Y-70953214D02*
X114373866Y-70953214D01*
X114373866Y-70953214D02*
X114278628Y-70905595D01*
X114278628Y-70905595D02*
X114231009Y-70857976D01*
X114231009Y-70857976D02*
X114183390Y-70762738D01*
X61319580Y-70000833D02*
X61367200Y-69953214D01*
X61367200Y-69953214D02*
X61414819Y-69810357D01*
X61414819Y-69810357D02*
X61414819Y-69715119D01*
X61414819Y-69715119D02*
X61367200Y-69572262D01*
X61367200Y-69572262D02*
X61271961Y-69477024D01*
X61271961Y-69477024D02*
X61176723Y-69429405D01*
X61176723Y-69429405D02*
X60986247Y-69381786D01*
X60986247Y-69381786D02*
X60843390Y-69381786D01*
X60843390Y-69381786D02*
X60652914Y-69429405D01*
X60652914Y-69429405D02*
X60557676Y-69477024D01*
X60557676Y-69477024D02*
X60462438Y-69572262D01*
X60462438Y-69572262D02*
X60414819Y-69715119D01*
X60414819Y-69715119D02*
X60414819Y-69810357D01*
X60414819Y-69810357D02*
X60462438Y-69953214D01*
X60462438Y-69953214D02*
X60510057Y-70000833D01*
X60414819Y-70857976D02*
X60414819Y-70667500D01*
X60414819Y-70667500D02*
X60462438Y-70572262D01*
X60462438Y-70572262D02*
X60510057Y-70524643D01*
X60510057Y-70524643D02*
X60652914Y-70429405D01*
X60652914Y-70429405D02*
X60843390Y-70381786D01*
X60843390Y-70381786D02*
X61224342Y-70381786D01*
X61224342Y-70381786D02*
X61319580Y-70429405D01*
X61319580Y-70429405D02*
X61367200Y-70477024D01*
X61367200Y-70477024D02*
X61414819Y-70572262D01*
X61414819Y-70572262D02*
X61414819Y-70762738D01*
X61414819Y-70762738D02*
X61367200Y-70857976D01*
X61367200Y-70857976D02*
X61319580Y-70905595D01*
X61319580Y-70905595D02*
X61224342Y-70953214D01*
X61224342Y-70953214D02*
X60986247Y-70953214D01*
X60986247Y-70953214D02*
X60891009Y-70905595D01*
X60891009Y-70905595D02*
X60843390Y-70857976D01*
X60843390Y-70857976D02*
X60795771Y-70762738D01*
X60795771Y-70762738D02*
X60795771Y-70572262D01*
X60795771Y-70572262D02*
X60843390Y-70477024D01*
X60843390Y-70477024D02*
X60891009Y-70429405D01*
X60891009Y-70429405D02*
X60986247Y-70381786D01*
X79099580Y-70159642D02*
X79147200Y-70112023D01*
X79147200Y-70112023D02*
X79194819Y-69969166D01*
X79194819Y-69969166D02*
X79194819Y-69873928D01*
X79194819Y-69873928D02*
X79147200Y-69731071D01*
X79147200Y-69731071D02*
X79051961Y-69635833D01*
X79051961Y-69635833D02*
X78956723Y-69588214D01*
X78956723Y-69588214D02*
X78766247Y-69540595D01*
X78766247Y-69540595D02*
X78623390Y-69540595D01*
X78623390Y-69540595D02*
X78432914Y-69588214D01*
X78432914Y-69588214D02*
X78337676Y-69635833D01*
X78337676Y-69635833D02*
X78242438Y-69731071D01*
X78242438Y-69731071D02*
X78194819Y-69873928D01*
X78194819Y-69873928D02*
X78194819Y-69969166D01*
X78194819Y-69969166D02*
X78242438Y-70112023D01*
X78242438Y-70112023D02*
X78290057Y-70159642D01*
X79194819Y-71112023D02*
X79194819Y-70540595D01*
X79194819Y-70826309D02*
X78194819Y-70826309D01*
X78194819Y-70826309D02*
X78337676Y-70731071D01*
X78337676Y-70731071D02*
X78432914Y-70635833D01*
X78432914Y-70635833D02*
X78480533Y-70540595D01*
X78194819Y-71731071D02*
X78194819Y-71826309D01*
X78194819Y-71826309D02*
X78242438Y-71921547D01*
X78242438Y-71921547D02*
X78290057Y-71969166D01*
X78290057Y-71969166D02*
X78385295Y-72016785D01*
X78385295Y-72016785D02*
X78575771Y-72064404D01*
X78575771Y-72064404D02*
X78813866Y-72064404D01*
X78813866Y-72064404D02*
X79004342Y-72016785D01*
X79004342Y-72016785D02*
X79099580Y-71969166D01*
X79099580Y-71969166D02*
X79147200Y-71921547D01*
X79147200Y-71921547D02*
X79194819Y-71826309D01*
X79194819Y-71826309D02*
X79194819Y-71731071D01*
X79194819Y-71731071D02*
X79147200Y-71635833D01*
X79147200Y-71635833D02*
X79099580Y-71588214D01*
X79099580Y-71588214D02*
X79004342Y-71540595D01*
X79004342Y-71540595D02*
X78813866Y-71492976D01*
X78813866Y-71492976D02*
X78575771Y-71492976D01*
X78575771Y-71492976D02*
X78385295Y-71540595D01*
X78385295Y-71540595D02*
X78290057Y-71588214D01*
X78290057Y-71588214D02*
X78242438Y-71635833D01*
X78242438Y-71635833D02*
X78194819Y-71731071D01*
D12*
%TO.C,R5*%
X84355000Y-108812064D02*
X84355000Y-108357936D01*
X85825000Y-108812064D02*
X85825000Y-108357936D01*
%TO.C,C1*%
X42445000Y-67048748D02*
X42445000Y-67571252D01*
X43915000Y-67048748D02*
X43915000Y-67571252D01*
%TO.C,C2*%
X131345000Y-67048748D02*
X131345000Y-67571252D01*
X132815000Y-67048748D02*
X132815000Y-67571252D01*
%TO.C,C3*%
X116105000Y-106708752D02*
X116105000Y-106186248D01*
X117575000Y-106708752D02*
X117575000Y-106186248D01*
%TO.C,C4*%
X66575000Y-105903752D02*
X66575000Y-105381248D01*
X68045000Y-105903752D02*
X68045000Y-105381248D01*
%TO.C,Q1*%
X33980000Y-103265000D02*
X33980000Y-101105000D01*
X33980000Y-103265000D02*
X34910000Y-103265000D01*
X37140000Y-103265000D02*
X36210000Y-103265000D01*
X37140000Y-103265000D02*
X37140000Y-101805000D01*
%TO.C,R1*%
X54652936Y-109120000D02*
X55107064Y-109120000D01*
X54652936Y-110590000D02*
X55107064Y-110590000D01*
%TO.C,J2*%
X121860000Y-22800000D02*
X124520000Y-22800000D01*
X121860000Y-76200000D02*
X121860000Y-22800000D01*
X121860000Y-76200000D02*
X124520000Y-76200000D01*
X123190000Y-78800000D02*
X124520000Y-78800000D01*
X124520000Y-76200000D02*
X124520000Y-22800000D01*
X124520000Y-78800000D02*
X124520000Y-77470000D01*
%TO.C,J6*%
X50740000Y-22800000D02*
X53400000Y-22800000D01*
X50740000Y-76200000D02*
X50740000Y-22800000D01*
X50740000Y-76200000D02*
X53400000Y-76200000D01*
X52070000Y-78800000D02*
X53400000Y-78800000D01*
X53400000Y-76200000D02*
X53400000Y-22800000D01*
X53400000Y-78800000D02*
X53400000Y-77470000D01*
%TO.C,C9*%
X95785000Y-67027248D02*
X95785000Y-67549752D01*
X97255000Y-67027248D02*
X97255000Y-67549752D01*
%TO.C,J5*%
X68520000Y-22800000D02*
X71180000Y-22800000D01*
X68520000Y-76200000D02*
X68520000Y-22800000D01*
X68520000Y-76200000D02*
X71180000Y-76200000D01*
X69850000Y-78800000D02*
X71180000Y-78800000D01*
X71180000Y-76200000D02*
X71180000Y-22800000D01*
X71180000Y-78800000D02*
X71180000Y-77470000D01*
%TO.C,C7*%
X149125000Y-67070248D02*
X149125000Y-67592752D01*
X150595000Y-67070248D02*
X150595000Y-67592752D01*
%TO.C,J7*%
X32960000Y-22800000D02*
X35620000Y-22800000D01*
X32960000Y-76200000D02*
X32960000Y-22800000D01*
X32960000Y-76200000D02*
X35620000Y-76200000D01*
X34290000Y-78800000D02*
X35620000Y-78800000D01*
X35620000Y-76200000D02*
X35620000Y-22800000D01*
X35620000Y-78800000D02*
X35620000Y-77470000D01*
%TO.C,J8*%
X15180000Y-22800000D02*
X17840000Y-22800000D01*
X15180000Y-76200000D02*
X15180000Y-22800000D01*
X15180000Y-76200000D02*
X17840000Y-76200000D01*
X16510000Y-78800000D02*
X17840000Y-78800000D01*
X17840000Y-76200000D02*
X17840000Y-22800000D01*
X17840000Y-78800000D02*
X17840000Y-77470000D01*
%TO.C,C5*%
X24665000Y-67070248D02*
X24665000Y-67592752D01*
X26135000Y-67070248D02*
X26135000Y-67592752D01*
%TO.C,J4*%
X86300000Y-22780000D02*
X88960000Y-22780000D01*
X86300000Y-76180000D02*
X86300000Y-22780000D01*
X86300000Y-76180000D02*
X88960000Y-76180000D01*
X87630000Y-78780000D02*
X88960000Y-78780000D01*
X88960000Y-76180000D02*
X88960000Y-22780000D01*
X88960000Y-78780000D02*
X88960000Y-77450000D01*
%TO.C,C8*%
X113565000Y-67027248D02*
X113565000Y-67549752D01*
X115035000Y-67027248D02*
X115035000Y-67549752D01*
%TO.C,J3*%
X104080000Y-22800000D02*
X106740000Y-22800000D01*
X104080000Y-76200000D02*
X104080000Y-22800000D01*
X104080000Y-76200000D02*
X106740000Y-76200000D01*
X105410000Y-78800000D02*
X106740000Y-78800000D01*
X106740000Y-76200000D02*
X106740000Y-22800000D01*
X106740000Y-78800000D02*
X106740000Y-77470000D01*
%TO.C,J1*%
X139640000Y-22800000D02*
X142300000Y-22800000D01*
X139640000Y-76200000D02*
X139640000Y-22800000D01*
X139640000Y-76200000D02*
X142300000Y-76200000D01*
X140970000Y-78800000D02*
X142300000Y-78800000D01*
X142300000Y-76200000D02*
X142300000Y-22800000D01*
X142300000Y-78800000D02*
X142300000Y-77470000D01*
%TO.C,C6*%
X60225000Y-67070248D02*
X60225000Y-67592752D01*
X61695000Y-67070248D02*
X61695000Y-67592752D01*
%TO.C,C10*%
X78005000Y-67070248D02*
X78005000Y-67592752D01*
X79475000Y-67070248D02*
X79475000Y-67592752D01*
%TD*%
M02*
