%TF.GenerationSoftware,KiCad,Pcbnew,9.0.6*%
%TF.CreationDate,2026-03-19T21:38:09+03:00*%
%TF.ProjectId,Regs-v6,52656773-2d76-4362-9e6b-696361645f70,rev?*%
%TF.SameCoordinates,Original*%
%TF.FileFunction,Copper,L2,Bot*%
%TF.FilePolarity,Positive*%
%FSLAX46Y46*%
G04 Gerber Fmt 4.6, Leading zero omitted, Abs format (unit mm)*
G04 Created by KiCad (PCBNEW 9.0.6) date 2026-03-19 21:38:09*
%MOMM*%
%LPD*%
G01*
G04 APERTURE LIST*
G04 Aperture macros list*
%AMRoundRect*
0 Rectangle with rounded corners*
0 $1 Rounding radius*
0 $2 $3 $4 $5 $6 $7 $8 $9 X,Y pos of 4 corners*
0 Add a 4 corners polygon primitive as box body*
4,1,4,$2,$3,$4,$5,$6,$7,$8,$9,$2,$3,0*
0 Add four circle primitives for the rounded corners*
1,1,$1+$1,$2,$3*
1,1,$1+$1,$4,$5*
1,1,$1+$1,$6,$7*
1,1,$1+$1,$8,$9*
0 Add four rect primitives between the rounded corners*
20,1,$1+$1,$2,$3,$4,$5,0*
20,1,$1+$1,$4,$5,$6,$7,0*
20,1,$1+$1,$6,$7,$8,$9,0*
20,1,$1+$1,$8,$9,$2,$3,0*%
G04 Aperture macros list end*
%TA.AperFunction,ComponentPad*%
%ADD10O,2.000000X1.500000*%
%TD*%
%TA.AperFunction,ComponentPad*%
%ADD11R,2.200000X2.000000*%
%TD*%
%TA.AperFunction,ComponentPad*%
%ADD12O,2.200000X2.000000*%
%TD*%
%TA.AperFunction,ComponentPad*%
%ADD13R,1.700000X1.700000*%
%TD*%
%TA.AperFunction,ComponentPad*%
%ADD14R,1.800000X1.600000*%
%TD*%
%TA.AperFunction,ComponentPad*%
%ADD15R,1.500000X2.000000*%
%TD*%
%TA.AperFunction,ComponentPad*%
%ADD16O,1.500000X1.800000*%
%TD*%
%TA.AperFunction,ComponentPad*%
%ADD17R,2.600000X2.600000*%
%TD*%
%TA.AperFunction,ComponentPad*%
%ADD18C,2.600000*%
%TD*%
%TA.AperFunction,ComponentPad*%
%ADD19R,2.200000X2.100000*%
%TD*%
%TA.AperFunction,ComponentPad*%
%ADD20O,2.200000X2.100000*%
%TD*%
%TA.AperFunction,ComponentPad*%
%ADD21O,1.900000X1.900000*%
%TD*%
%TA.AperFunction,ComponentPad*%
%ADD22O,1.900000X1.500000*%
%TD*%
%TA.AperFunction,ComponentPad*%
%ADD23R,1.500000X1.800000*%
%TD*%
%TA.AperFunction,ComponentPad*%
%ADD24R,1.800000X1.800000*%
%TD*%
%TA.AperFunction,ComponentPad*%
%ADD25C,1.800000*%
%TD*%
%TA.AperFunction,SMDPad,CuDef*%
%ADD26RoundRect,0.249999X0.450001X-0.350001X0.450001X0.350001X-0.450001X0.350001X-0.450001X-0.350001X0*%
%TD*%
%TA.AperFunction,SMDPad,CuDef*%
%ADD27RoundRect,0.250000X-0.475000X0.337500X-0.475000X-0.337500X0.475000X-0.337500X0.475000X0.337500X0*%
%TD*%
%TA.AperFunction,SMDPad,CuDef*%
%ADD28RoundRect,0.250000X0.475000X-0.337500X0.475000X0.337500X-0.475000X0.337500X-0.475000X-0.337500X0*%
%TD*%
%TA.AperFunction,SMDPad,CuDef*%
%ADD29R,0.800000X0.900000*%
%TD*%
%TA.AperFunction,SMDPad,CuDef*%
%ADD30RoundRect,0.250000X-0.350000X-0.450000X0.350000X-0.450000X0.350000X0.450000X-0.350000X0.450000X0*%
%TD*%
%TA.AperFunction,ComponentPad*%
%ADD31R,2.000000X1.500000*%
%TD*%
%TA.AperFunction,ComponentPad*%
%ADD32O,2.000000X1.200000*%
%TD*%
%TA.AperFunction,ViaPad*%
%ADD33C,1.500000*%
%TD*%
%TA.AperFunction,ViaPad*%
%ADD34C,1.400000*%
%TD*%
%TA.AperFunction,Conductor*%
%ADD35C,0.600000*%
%TD*%
%TA.AperFunction,Conductor*%
%ADD36C,0.800000*%
%TD*%
%TA.AperFunction,Conductor*%
%ADD37C,0.500000*%
%TD*%
%TA.AperFunction,Conductor*%
%ADD38C,1.000000*%
%TD*%
G04 APERTURE END LIST*
D10*
%TO.P,U3,1,D7*%
%TO.N,/L7*%
X116840000Y-96520000D03*
%TO.P,U3,2,D6*%
%TO.N,/L6*%
X116840000Y-93980000D03*
%TO.P,U3,3,D5*%
%TO.N,/L5*%
X116840000Y-91440000D03*
%TO.P,U3,4,D4*%
%TO.N,/L4*%
X116840000Y-88900000D03*
%TO.P,U3,5,D3*%
%TO.N,/L3*%
X116840000Y-86360000D03*
%TO.P,U3,6,D2*%
%TO.N,/L2*%
X116840000Y-83820000D03*
%TO.P,U3,7,D1*%
%TO.N,/L1*%
X116840000Y-81280000D03*
%TO.P,U3,8,D0*%
%TO.N,/L0*%
X116840000Y-78740000D03*
%TO.P,U3,9,~{RES}*%
%TO.N,/~{Res}*%
X116840000Y-73660000D03*
%TO.P,U3,10,Gnd*%
%TO.N,GND*%
X116840000Y-68580000D03*
%TO.P,U3,11,Vcc*%
%TO.N,VCC*%
X116840000Y-66040000D03*
%TO.P,U3,12,Q0*%
%TO.N,/R2.0*%
X116840000Y-60960000D03*
%TO.P,U3,13,Q1*%
%TO.N,/R2.1*%
X116840000Y-58420000D03*
%TO.P,U3,14,Q2*%
%TO.N,/R2.2*%
X116840000Y-55880000D03*
%TO.P,U3,15,Q3*%
%TO.N,/R2.3*%
X116840000Y-53340000D03*
%TO.P,U3,16,Q4*%
%TO.N,/R2.4*%
X116840000Y-50800000D03*
%TO.P,U3,17,Q5*%
%TO.N,/R2.5*%
X116840000Y-48260000D03*
%TO.P,U3,18,Q6*%
%TO.N,/R2.6*%
X116840000Y-45720000D03*
%TO.P,U3,19,Q7*%
%TO.N,/R2.7*%
X116840000Y-43180000D03*
%TO.P,U3,20,~{CS}*%
%TO.N,/~{Bank0}*%
X116840000Y-35560000D03*
%TO.P,U3,21,~{Col}*%
%TO.N,/~{L}*%
X116840000Y-33020000D03*
%TO.P,U3,22,~{Row}*%
%TO.N,/~{R1}*%
X116840000Y-30480000D03*
%TD*%
%TO.P,U5,1,D7*%
%TO.N,/L7*%
X81280000Y-96520000D03*
%TO.P,U5,2,D6*%
%TO.N,/L6*%
X81280000Y-93980000D03*
%TO.P,U5,3,D5*%
%TO.N,/L5*%
X81280000Y-91440000D03*
%TO.P,U5,4,D4*%
%TO.N,/L4*%
X81280000Y-88900000D03*
%TO.P,U5,5,D3*%
%TO.N,/L3*%
X81280000Y-86360000D03*
%TO.P,U5,6,D2*%
%TO.N,/L2*%
X81280000Y-83820000D03*
%TO.P,U5,7,D1*%
%TO.N,/L1*%
X81280000Y-81280000D03*
%TO.P,U5,8,D0*%
%TO.N,/L0*%
X81280000Y-78740000D03*
%TO.P,U5,9,~{RES}*%
%TO.N,/~{Res}*%
X81280000Y-73660000D03*
%TO.P,U5,10,Gnd*%
%TO.N,GND*%
X81280000Y-68580000D03*
%TO.P,U5,11,Vcc*%
%TO.N,VCC*%
X81280000Y-66040000D03*
%TO.P,U5,12,Q0*%
%TO.N,/R4.0*%
X81280000Y-60960000D03*
%TO.P,U5,13,Q1*%
%TO.N,/R4.1*%
X81280000Y-58420000D03*
%TO.P,U5,14,Q2*%
%TO.N,/R4.2*%
X81280000Y-55880000D03*
%TO.P,U5,15,Q3*%
%TO.N,/R4.3*%
X81280000Y-53340000D03*
%TO.P,U5,16,Q4*%
%TO.N,/R4.4*%
X81280000Y-50800000D03*
%TO.P,U5,17,Q5*%
%TO.N,/R4.5*%
X81280000Y-48260000D03*
%TO.P,U5,18,Q6*%
%TO.N,/R4.6*%
X81280000Y-45720000D03*
%TO.P,U5,19,Q7*%
%TO.N,/R4.7*%
X81280000Y-43180000D03*
%TO.P,U5,20,~{CS}*%
%TO.N,/~{Bank0}*%
X81280000Y-35560000D03*
%TO.P,U5,21,~{Col}*%
%TO.N,/~{L}*%
X81280000Y-33020000D03*
%TO.P,U5,22,~{Row}*%
%TO.N,/~{R2}*%
X81280000Y-30480000D03*
%TD*%
%TO.P,U7,1,D7*%
%TO.N,/L7*%
X45720000Y-96520000D03*
%TO.P,U7,2,D6*%
%TO.N,/L6*%
X45720000Y-93980000D03*
%TO.P,U7,3,D5*%
%TO.N,/L5*%
X45720000Y-91440000D03*
%TO.P,U7,4,D4*%
%TO.N,/L4*%
X45720000Y-88900000D03*
%TO.P,U7,5,D3*%
%TO.N,/L3*%
X45720000Y-86360000D03*
%TO.P,U7,6,D2*%
%TO.N,/L2*%
X45720000Y-83820000D03*
%TO.P,U7,7,D1*%
%TO.N,/L1*%
X45720000Y-81280000D03*
%TO.P,U7,8,D0*%
%TO.N,/L0*%
X45720000Y-78740000D03*
%TO.P,U7,9,~{RES}*%
%TO.N,/~{Res}*%
X45720000Y-73660000D03*
%TO.P,U7,10,Gnd*%
%TO.N,GND*%
X45720000Y-68580000D03*
%TO.P,U7,11,Vcc*%
%TO.N,VCC*%
X45720000Y-66040000D03*
%TO.P,U7,12,Q0*%
%TO.N,/R6.0*%
X45720000Y-60960000D03*
%TO.P,U7,13,Q1*%
%TO.N,/R6.1*%
X45720000Y-58420000D03*
%TO.P,U7,14,Q2*%
%TO.N,/R6.2*%
X45720000Y-55880000D03*
%TO.P,U7,15,Q3*%
%TO.N,/R6.3*%
X45720000Y-53340000D03*
%TO.P,U7,16,Q4*%
%TO.N,/R6.4*%
X45720000Y-50800000D03*
%TO.P,U7,17,Q5*%
%TO.N,/R6.5*%
X45720000Y-48260000D03*
%TO.P,U7,18,Q6*%
%TO.N,/R6.6*%
X45720000Y-45720000D03*
%TO.P,U7,19,Q7*%
%TO.N,/R6.7*%
X45720000Y-43180000D03*
%TO.P,U7,20,~{CS}*%
%TO.N,/~{Bank0}*%
X45720000Y-35560000D03*
%TO.P,U7,21,~{Col}*%
%TO.N,/~{L}*%
X45720000Y-33020000D03*
%TO.P,U7,22,~{Row}*%
%TO.N,/~{R3}*%
X45720000Y-30480000D03*
%TD*%
%TO.P,U4,1,D7*%
%TO.N,/H7*%
X99060000Y-96520000D03*
%TO.P,U4,2,D6*%
%TO.N,/H6*%
X99060000Y-93980000D03*
%TO.P,U4,3,D5*%
%TO.N,/H5*%
X99060000Y-91440000D03*
%TO.P,U4,4,D4*%
%TO.N,/H4*%
X99060000Y-88900000D03*
%TO.P,U4,5,D3*%
%TO.N,/H3*%
X99060000Y-86360000D03*
%TO.P,U4,6,D2*%
%TO.N,/H2*%
X99060000Y-83820000D03*
%TO.P,U4,7,D1*%
%TO.N,/H1*%
X99060000Y-81280000D03*
%TO.P,U4,8,D0*%
%TO.N,/H0*%
X99060000Y-78740000D03*
%TO.P,U4,9,~{RES}*%
%TO.N,/~{Res}*%
X99060000Y-73660000D03*
%TO.P,U4,10,Gnd*%
%TO.N,GND*%
X99060000Y-68580000D03*
%TO.P,U4,11,Vcc*%
%TO.N,VCC*%
X99060000Y-66040000D03*
%TO.P,U4,12,Q0*%
%TO.N,/R3.0*%
X99060000Y-60960000D03*
%TO.P,U4,13,Q1*%
%TO.N,/R3.1*%
X99060000Y-58420000D03*
%TO.P,U4,14,Q2*%
%TO.N,/R3.2*%
X99060000Y-55880000D03*
%TO.P,U4,15,Q3*%
%TO.N,/R3.3*%
X99060000Y-53340000D03*
%TO.P,U4,16,Q4*%
%TO.N,/R3.4*%
X99060000Y-50800000D03*
%TO.P,U4,17,Q5*%
%TO.N,/R3.5*%
X99060000Y-48260000D03*
%TO.P,U4,18,Q6*%
%TO.N,/R3.6*%
X99060000Y-45720000D03*
%TO.P,U4,19,Q7*%
%TO.N,/R3.7*%
X99060000Y-43180000D03*
%TO.P,U4,20,~{CS}*%
%TO.N,/~{Bank0}*%
X99060000Y-35560000D03*
%TO.P,U4,21,~{Col}*%
%TO.N,/~{H}*%
X99060000Y-33020000D03*
%TO.P,U4,22,~{Row}*%
%TO.N,/~{R1}*%
X99060000Y-30480000D03*
%TD*%
%TO.P,U6,1,D7*%
%TO.N,/H7*%
X63500000Y-96520000D03*
%TO.P,U6,2,D6*%
%TO.N,/H6*%
X63500000Y-93980000D03*
%TO.P,U6,3,D5*%
%TO.N,/H5*%
X63500000Y-91440000D03*
%TO.P,U6,4,D4*%
%TO.N,/H4*%
X63500000Y-88900000D03*
%TO.P,U6,5,D3*%
%TO.N,/H3*%
X63500000Y-86360000D03*
%TO.P,U6,6,D2*%
%TO.N,/H2*%
X63500000Y-83820000D03*
%TO.P,U6,7,D1*%
%TO.N,/H1*%
X63500000Y-81280000D03*
%TO.P,U6,8,D0*%
%TO.N,/H0*%
X63500000Y-78740000D03*
%TO.P,U6,9,~{RES}*%
%TO.N,/~{Res}*%
X63500000Y-73660000D03*
%TO.P,U6,10,Gnd*%
%TO.N,GND*%
X63500000Y-68580000D03*
%TO.P,U6,11,Vcc*%
%TO.N,VCC*%
X63500000Y-66040000D03*
%TO.P,U6,12,Q0*%
%TO.N,/R5.0*%
X63500000Y-60960000D03*
%TO.P,U6,13,Q1*%
%TO.N,/R5.1*%
X63500000Y-58420000D03*
%TO.P,U6,14,Q2*%
%TO.N,/R5.2*%
X63500000Y-55880000D03*
%TO.P,U6,15,Q3*%
%TO.N,/R5.3*%
X63500000Y-53340000D03*
%TO.P,U6,16,Q4*%
%TO.N,/R5.4*%
X63500000Y-50800000D03*
%TO.P,U6,17,Q5*%
%TO.N,/R5.5*%
X63500000Y-48260000D03*
%TO.P,U6,18,Q6*%
%TO.N,/R5.6*%
X63500000Y-45720000D03*
%TO.P,U6,19,Q7*%
%TO.N,/R5.7*%
X63500000Y-43180000D03*
%TO.P,U6,20,~{CS}*%
%TO.N,/~{Bank0}*%
X63500000Y-35560000D03*
%TO.P,U6,21,~{Col}*%
%TO.N,/~{H}*%
X63500000Y-33020000D03*
%TO.P,U6,22,~{Row}*%
%TO.N,/~{R2}*%
X63500000Y-30480000D03*
%TD*%
%TO.P,U8,1,D7*%
%TO.N,/H7*%
X27940000Y-96520000D03*
%TO.P,U8,2,D6*%
%TO.N,/H6*%
X27940000Y-93980000D03*
%TO.P,U8,3,D5*%
%TO.N,/H5*%
X27940000Y-91440000D03*
%TO.P,U8,4,D4*%
%TO.N,/H4*%
X27940000Y-88900000D03*
%TO.P,U8,5,D3*%
%TO.N,/H3*%
X27940000Y-86360000D03*
%TO.P,U8,6,D2*%
%TO.N,/H2*%
X27940000Y-83820000D03*
%TO.P,U8,7,D1*%
%TO.N,/H1*%
X27940000Y-81280000D03*
%TO.P,U8,8,D0*%
%TO.N,/H0*%
X27940000Y-78740000D03*
%TO.P,U8,9,~{RES}*%
%TO.N,/~{Res}*%
X27940000Y-73660000D03*
%TO.P,U8,10,Gnd*%
%TO.N,GND*%
X27940000Y-68580000D03*
%TO.P,U8,11,Vcc*%
%TO.N,VCC*%
X27940000Y-66040000D03*
%TO.P,U8,12,Q0*%
%TO.N,/R7.0*%
X27940000Y-60960000D03*
%TO.P,U8,13,Q1*%
%TO.N,/R7.1*%
X27940000Y-58420000D03*
%TO.P,U8,14,Q2*%
%TO.N,/R7.2*%
X27940000Y-55880000D03*
%TO.P,U8,15,Q3*%
%TO.N,/R7.3*%
X27940000Y-53340000D03*
%TO.P,U8,16,Q4*%
%TO.N,/R7.4*%
X27940000Y-50800000D03*
%TO.P,U8,17,Q5*%
%TO.N,/R7.5*%
X27940000Y-48260000D03*
%TO.P,U8,18,Q6*%
%TO.N,/R7.6*%
X27940000Y-45720000D03*
%TO.P,U8,19,Q7*%
%TO.N,/R7.7*%
X27940000Y-43180000D03*
%TO.P,U8,20,~{CS}*%
%TO.N,/~{Bank0}*%
X27940000Y-35560000D03*
%TO.P,U8,21,~{Col}*%
%TO.N,/~{H}*%
X27940000Y-33020000D03*
%TO.P,U8,22,~{Row}*%
%TO.N,/~{R3}*%
X27940000Y-30480000D03*
%TD*%
%TO.P,U1,1,D7*%
%TO.N,/L7*%
X152400000Y-96520000D03*
%TO.P,U1,2,D6*%
%TO.N,/L6*%
X152400000Y-93980000D03*
%TO.P,U1,3,D5*%
%TO.N,/L5*%
X152400000Y-91440000D03*
%TO.P,U1,4,D4*%
%TO.N,/L4*%
X152400000Y-88900000D03*
%TO.P,U1,5,D3*%
%TO.N,/L3*%
X152400000Y-86360000D03*
%TO.P,U1,6,D2*%
%TO.N,/L2*%
X152400000Y-83820000D03*
%TO.P,U1,7,D1*%
%TO.N,/L1*%
X152400000Y-81280000D03*
%TO.P,U1,8,D0*%
%TO.N,/L0*%
X152400000Y-78740000D03*
%TO.P,U1,9,~{RES}*%
%TO.N,/~{Res}*%
X152400000Y-73660000D03*
%TO.P,U1,10,Gnd*%
%TO.N,GND*%
X152400000Y-68580000D03*
%TO.P,U1,11,Vcc*%
%TO.N,VCC*%
X152400000Y-66040000D03*
%TO.P,U1,12,Q0*%
%TO.N,/R0.0*%
X152400000Y-60960000D03*
%TO.P,U1,13,Q1*%
%TO.N,/R0.1*%
X152400000Y-58420000D03*
%TO.P,U1,14,Q2*%
%TO.N,/R0.2*%
X152400000Y-55880000D03*
%TO.P,U1,15,Q3*%
%TO.N,/R0.3*%
X152400000Y-53340000D03*
%TO.P,U1,16,Q4*%
%TO.N,/R0.4*%
X152400000Y-50800000D03*
%TO.P,U1,17,Q5*%
%TO.N,/R0.5*%
X152400000Y-48260000D03*
%TO.P,U1,18,Q6*%
%TO.N,/R0.6*%
X152400000Y-45720000D03*
%TO.P,U1,19,Q7*%
%TO.N,/R0.7*%
X152400000Y-43180000D03*
%TO.P,U1,20,~{CS}*%
%TO.N,/~{Bank0}*%
X152400000Y-35560000D03*
%TO.P,U1,21,~{Col}*%
%TO.N,/~{L}*%
X152400000Y-33020000D03*
%TO.P,U1,22,~{Row}*%
%TO.N,/~{R0}*%
X152400000Y-30480000D03*
%TD*%
D11*
%TO.P,J11,1,Pin_1*%
%TO.N,/DST[0]*%
X140335000Y-109855000D03*
D12*
%TO.P,J11,2,Pin_2*%
%TO.N,/DST[1]*%
X140335000Y-107315000D03*
%TO.P,J11,3,Pin_3*%
%TO.N,/DST[2]*%
X140335000Y-104775000D03*
%TD*%
D13*
%TO.P,J13,1,Pin_1*%
%TO.N,/~{Res}*%
X90170000Y-73660000D03*
%TD*%
D14*
%TO.P,J14,1,Pin_1*%
%TO.N,/~{Bank0}*%
X59690000Y-109855000D03*
%TD*%
D13*
%TO.P,J15,1,Pin_1*%
%TO.N,/Latch*%
X83185000Y-102235000D03*
%TD*%
D15*
%TO.P,U14,1*%
%TO.N,Net-(U13B-O2)*%
X78740000Y-102245000D03*
D16*
%TO.P,U14,2*%
%TO.N,/Latch*%
X76200000Y-102245000D03*
%TO.P,U14,3*%
%TO.N,/~{L}*%
X73660000Y-102245000D03*
%TO.P,U14,4*%
%TO.N,/Latch*%
X71120000Y-102245000D03*
%TO.P,U14,5*%
%TO.N,Net-(U13B-O3)*%
X68580000Y-102245000D03*
%TO.P,U14,6*%
%TO.N,/~{H}*%
X66040000Y-102245000D03*
%TO.P,U14,7,GND*%
%TO.N,GND*%
X63500000Y-102245000D03*
%TO.P,U14,8*%
%TO.N,/~{Bank1}*%
X63500000Y-109865000D03*
%TO.P,U14,9*%
%TO.N,/~{Bank0}*%
X66040000Y-109865000D03*
%TO.P,U14,10*%
X68580000Y-109865000D03*
%TO.P,U14,11*%
%TO.N,Net-(U15-S)*%
X71120000Y-109865000D03*
%TO.P,U14,12*%
%TO.N,/~{MUL}*%
X73660000Y-109865000D03*
%TO.P,U14,13*%
X76200000Y-109865000D03*
%TO.P,U14,14,VCC*%
%TO.N,VCC*%
X78740000Y-109865000D03*
%TD*%
D17*
%TO.P,J16,1,Pin_1*%
%TO.N,Net-(J16-Pin_1)*%
X33020000Y-106680000D03*
D18*
%TO.P,J16,2,Pin_2*%
%TO.N,GND*%
X38020000Y-106680000D03*
%TD*%
D19*
%TO.P,J17,1,Pin_1*%
%TO.N,GND*%
X170815000Y-82550000D03*
D20*
%TO.P,J17,2,Pin_2*%
%TO.N,/L0*%
X170815000Y-85090000D03*
%TO.P,J17,3,Pin_3*%
%TO.N,/L1*%
X170815000Y-87630000D03*
%TO.P,J17,4,Pin_4*%
%TO.N,/L2*%
X170815000Y-90170000D03*
%TO.P,J17,5,Pin_5*%
%TO.N,/L3*%
X170815000Y-92710000D03*
%TO.P,J17,6,Pin_6*%
%TO.N,/L4*%
X170815000Y-95250000D03*
%TO.P,J17,7,Pin_7*%
%TO.N,/L5*%
X170815000Y-97790000D03*
%TO.P,J17,8,Pin_8*%
%TO.N,/L6*%
X170815000Y-100330000D03*
%TO.P,J17,9,Pin_9*%
%TO.N,/L7*%
X170815000Y-102870000D03*
%TD*%
D19*
%TO.P,J18,1,Pin_1*%
%TO.N,GND*%
X170815000Y-57150000D03*
D20*
%TO.P,J18,2,Pin_2*%
%TO.N,/ALU_H0*%
X170815000Y-59690000D03*
%TO.P,J18,3,Pin_3*%
%TO.N,Net-(J18-Pin_3)*%
X170815000Y-62230000D03*
%TO.P,J18,4,Pin_4*%
%TO.N,Net-(J18-Pin_4)*%
X170815000Y-64770000D03*
%TO.P,J18,5,Pin_5*%
%TO.N,Net-(J18-Pin_5)*%
X170815000Y-67310000D03*
%TO.P,J18,6,Pin_6*%
%TO.N,Net-(J18-Pin_6)*%
X170815000Y-69850000D03*
%TO.P,J18,7,Pin_7*%
%TO.N,Net-(J18-Pin_7)*%
X170815000Y-72390000D03*
%TO.P,J18,8,Pin_8*%
%TO.N,Net-(J18-Pin_8)*%
X170815000Y-74930000D03*
%TO.P,J18,9,Pin_9*%
%TO.N,/ALU_H7*%
X170815000Y-77470000D03*
%TD*%
D13*
%TO.P,J19,1,Pin_1*%
%TO.N,/~{Res}*%
X36830000Y-73660000D03*
%TD*%
D10*
%TO.P,U9,1,D7*%
%TO.N,/L7*%
X147320000Y-96520000D03*
%TO.P,U9,2,D6*%
%TO.N,/L6*%
X147320000Y-93980000D03*
%TO.P,U9,3,D5*%
%TO.N,/L5*%
X147320000Y-91440000D03*
%TO.P,U9,4,D4*%
%TO.N,/L4*%
X147320000Y-88900000D03*
%TO.P,U9,5,D3*%
%TO.N,/L3*%
X147320000Y-86360000D03*
%TO.P,U9,6,D2*%
%TO.N,/L2*%
X147320000Y-83820000D03*
%TO.P,U9,7,D1*%
%TO.N,/L1*%
X147320000Y-81280000D03*
%TO.P,U9,8,D0*%
%TO.N,/L0*%
X147320000Y-78740000D03*
%TO.P,U9,9,~{RES}*%
%TO.N,/~{Res}*%
X147320000Y-73660000D03*
%TO.P,U9,10,Gnd*%
%TO.N,GND*%
X147320000Y-68580000D03*
%TO.P,U9,11,Vcc*%
%TO.N,VCC*%
X147320000Y-66040000D03*
%TO.P,U9,12,Q0*%
%TO.N,/R0.0*%
X147320000Y-60960000D03*
%TO.P,U9,13,Q1*%
%TO.N,/R0.1*%
X147320000Y-58420000D03*
%TO.P,U9,14,Q2*%
%TO.N,/R0.2*%
X147320000Y-55880000D03*
%TO.P,U9,15,Q3*%
%TO.N,/R0.3*%
X147320000Y-53340000D03*
%TO.P,U9,16,Q4*%
%TO.N,/R0.4*%
X147320000Y-50800000D03*
%TO.P,U9,17,Q5*%
%TO.N,/R0.5*%
X147320000Y-48260000D03*
%TO.P,U9,18,Q6*%
%TO.N,/R0.6*%
X147320000Y-45720000D03*
%TO.P,U9,19,Q7*%
%TO.N,/R0.7*%
X147320000Y-43180000D03*
%TO.P,U9,20,~{CS}*%
%TO.N,/~{Bank1}*%
X147320000Y-35560000D03*
%TO.P,U9,21,~{Col}*%
%TO.N,/~{L}*%
X147320000Y-33020000D03*
%TO.P,U9,22,~{Row}*%
%TO.N,/~{R0}*%
X147320000Y-30480000D03*
%TD*%
%TO.P,U10,1,D7*%
%TO.N,/H7*%
X129540000Y-96520000D03*
%TO.P,U10,2,D6*%
%TO.N,/H6*%
X129540000Y-93980000D03*
%TO.P,U10,3,D5*%
%TO.N,/H5*%
X129540000Y-91440000D03*
%TO.P,U10,4,D4*%
%TO.N,/H4*%
X129540000Y-88900000D03*
%TO.P,U10,5,D3*%
%TO.N,/H3*%
X129540000Y-86360000D03*
%TO.P,U10,6,D2*%
%TO.N,/H2*%
X129540000Y-83820000D03*
%TO.P,U10,7,D1*%
%TO.N,/H1*%
X129540000Y-81280000D03*
%TO.P,U10,8,D0*%
%TO.N,/H0*%
X129540000Y-78740000D03*
%TO.P,U10,9,~{RES}*%
%TO.N,/~{Res}*%
X129540000Y-73660000D03*
%TO.P,U10,10,Gnd*%
%TO.N,GND*%
X129540000Y-68580000D03*
%TO.P,U10,11,Vcc*%
%TO.N,VCC*%
X129540000Y-66040000D03*
%TO.P,U10,12,Q0*%
%TO.N,/R1.0*%
X129540000Y-60960000D03*
%TO.P,U10,13,Q1*%
%TO.N,/R1.1*%
X129540000Y-58420000D03*
%TO.P,U10,14,Q2*%
%TO.N,/R1.2*%
X129540000Y-55880000D03*
%TO.P,U10,15,Q3*%
%TO.N,/R1.3*%
X129540000Y-53340000D03*
%TO.P,U10,16,Q4*%
%TO.N,/R1.4*%
X129540000Y-50800000D03*
%TO.P,U10,17,Q5*%
%TO.N,/R1.5*%
X129540000Y-48260000D03*
%TO.P,U10,18,Q6*%
%TO.N,/R1.6*%
X129540000Y-45720000D03*
%TO.P,U10,19,Q7*%
%TO.N,/R1.7*%
X129540000Y-43180000D03*
%TO.P,U10,20,~{CS}*%
%TO.N,/~{Bank1}*%
X129540000Y-35560000D03*
%TO.P,U10,21,~{Col}*%
%TO.N,/~{H}*%
X129540000Y-33020000D03*
%TO.P,U10,22,~{Row}*%
%TO.N,/~{R0}*%
X129540000Y-30480000D03*
%TD*%
%TO.P,U11,1,D7*%
%TO.N,/L7*%
X111760000Y-96520000D03*
%TO.P,U11,2,D6*%
%TO.N,/L6*%
X111760000Y-93980000D03*
%TO.P,U11,3,D5*%
%TO.N,/L5*%
X111760000Y-91440000D03*
%TO.P,U11,4,D4*%
%TO.N,/L4*%
X111760000Y-88900000D03*
%TO.P,U11,5,D3*%
%TO.N,/L3*%
X111760000Y-86360000D03*
%TO.P,U11,6,D2*%
%TO.N,/L2*%
X111760000Y-83820000D03*
%TO.P,U11,7,D1*%
%TO.N,/L1*%
X111760000Y-81280000D03*
%TO.P,U11,8,D0*%
%TO.N,/L0*%
X111760000Y-78740000D03*
%TO.P,U11,9,~{RES}*%
%TO.N,/~{Res}*%
X111760000Y-73660000D03*
%TO.P,U11,10,Gnd*%
%TO.N,GND*%
X111760000Y-68580000D03*
%TO.P,U11,11,Vcc*%
%TO.N,VCC*%
X111760000Y-66040000D03*
%TO.P,U11,12,Q0*%
%TO.N,/R2.0*%
X111760000Y-60960000D03*
%TO.P,U11,13,Q1*%
%TO.N,/R2.1*%
X111760000Y-58420000D03*
%TO.P,U11,14,Q2*%
%TO.N,/R2.2*%
X111760000Y-55880000D03*
%TO.P,U11,15,Q3*%
%TO.N,/R2.3*%
X111760000Y-53340000D03*
%TO.P,U11,16,Q4*%
%TO.N,/R2.4*%
X111760000Y-50800000D03*
%TO.P,U11,17,Q5*%
%TO.N,/R2.5*%
X111760000Y-48260000D03*
%TO.P,U11,18,Q6*%
%TO.N,/R2.6*%
X111760000Y-45720000D03*
%TO.P,U11,19,Q7*%
%TO.N,/R2.7*%
X111760000Y-43180000D03*
%TO.P,U11,20,~{CS}*%
%TO.N,/~{Bank1}*%
X111760000Y-35560000D03*
%TO.P,U11,21,~{Col}*%
%TO.N,/~{L}*%
X111760000Y-33020000D03*
%TO.P,U11,22,~{Row}*%
%TO.N,/~{R1}*%
X111760000Y-30480000D03*
%TD*%
%TO.P,U12,1,D7*%
%TO.N,/H7*%
X93980000Y-96520000D03*
%TO.P,U12,2,D6*%
%TO.N,/H6*%
X93980000Y-93980000D03*
%TO.P,U12,3,D5*%
%TO.N,/H5*%
X93980000Y-91440000D03*
%TO.P,U12,4,D4*%
%TO.N,/H4*%
X93980000Y-88900000D03*
%TO.P,U12,5,D3*%
%TO.N,/H3*%
X93980000Y-86360000D03*
%TO.P,U12,6,D2*%
%TO.N,/H2*%
X93980000Y-83820000D03*
%TO.P,U12,7,D1*%
%TO.N,/H1*%
X93980000Y-81280000D03*
%TO.P,U12,8,D0*%
%TO.N,/H0*%
X93980000Y-78740000D03*
%TO.P,U12,9,~{RES}*%
%TO.N,/~{Res}*%
X93980000Y-73660000D03*
%TO.P,U12,10,Gnd*%
%TO.N,GND*%
X93980000Y-68580000D03*
%TO.P,U12,11,Vcc*%
%TO.N,VCC*%
X93980000Y-66040000D03*
%TO.P,U12,12,Q0*%
%TO.N,/R3.0*%
X93980000Y-60960000D03*
%TO.P,U12,13,Q1*%
%TO.N,/R3.1*%
X93980000Y-58420000D03*
%TO.P,U12,14,Q2*%
%TO.N,/R3.2*%
X93980000Y-55880000D03*
%TO.P,U12,15,Q3*%
%TO.N,/R3.3*%
X93980000Y-53340000D03*
%TO.P,U12,16,Q4*%
%TO.N,/R3.4*%
X93980000Y-50800000D03*
%TO.P,U12,17,Q5*%
%TO.N,/R3.5*%
X93980000Y-48260000D03*
%TO.P,U12,18,Q6*%
%TO.N,/R3.6*%
X93980000Y-45720000D03*
%TO.P,U12,19,Q7*%
%TO.N,/R3.7*%
X93980000Y-43180000D03*
%TO.P,U12,20,~{CS}*%
%TO.N,/~{Bank1}*%
X93980000Y-35560000D03*
%TO.P,U12,21,~{Col}*%
%TO.N,/~{H}*%
X93980000Y-33020000D03*
%TO.P,U12,22,~{Row}*%
%TO.N,/~{R1}*%
X93980000Y-30480000D03*
%TD*%
%TO.P,U16,1,D7*%
%TO.N,/L7*%
X76200000Y-96520000D03*
%TO.P,U16,2,D6*%
%TO.N,/L6*%
X76200000Y-93980000D03*
%TO.P,U16,3,D5*%
%TO.N,/L5*%
X76200000Y-91440000D03*
%TO.P,U16,4,D4*%
%TO.N,/L4*%
X76200000Y-88900000D03*
%TO.P,U16,5,D3*%
%TO.N,/L3*%
X76200000Y-86360000D03*
%TO.P,U16,6,D2*%
%TO.N,/L2*%
X76200000Y-83820000D03*
%TO.P,U16,7,D1*%
%TO.N,/L1*%
X76200000Y-81280000D03*
%TO.P,U16,8,D0*%
%TO.N,/L0*%
X76200000Y-78740000D03*
%TO.P,U16,9,~{RES}*%
%TO.N,/~{Res}*%
X76200000Y-73660000D03*
%TO.P,U16,10,Gnd*%
%TO.N,GND*%
X76200000Y-68580000D03*
%TO.P,U16,11,Vcc*%
%TO.N,VCC*%
X76200000Y-66040000D03*
%TO.P,U16,12,Q0*%
%TO.N,/R4.0*%
X76200000Y-60960000D03*
%TO.P,U16,13,Q1*%
%TO.N,/R4.1*%
X76200000Y-58420000D03*
%TO.P,U16,14,Q2*%
%TO.N,/R4.2*%
X76200000Y-55880000D03*
%TO.P,U16,15,Q3*%
%TO.N,/R4.3*%
X76200000Y-53340000D03*
%TO.P,U16,16,Q4*%
%TO.N,/R4.4*%
X76200000Y-50800000D03*
%TO.P,U16,17,Q5*%
%TO.N,/R4.5*%
X76200000Y-48260000D03*
%TO.P,U16,18,Q6*%
%TO.N,/R4.6*%
X76200000Y-45720000D03*
%TO.P,U16,19,Q7*%
%TO.N,/R4.7*%
X76200000Y-43180000D03*
%TO.P,U16,20,~{CS}*%
%TO.N,/~{Bank1}*%
X76200000Y-35560000D03*
%TO.P,U16,21,~{Col}*%
%TO.N,/~{L}*%
X76200000Y-33020000D03*
%TO.P,U16,22,~{Row}*%
%TO.N,/~{R2}*%
X76200000Y-30480000D03*
%TD*%
%TO.P,U17,1,D7*%
%TO.N,/H7*%
X58420000Y-96520000D03*
%TO.P,U17,2,D6*%
%TO.N,/H6*%
X58420000Y-93980000D03*
%TO.P,U17,3,D5*%
%TO.N,/H5*%
X58420000Y-91440000D03*
%TO.P,U17,4,D4*%
%TO.N,/H4*%
X58420000Y-88900000D03*
%TO.P,U17,5,D3*%
%TO.N,/H3*%
X58420000Y-86360000D03*
%TO.P,U17,6,D2*%
%TO.N,/H2*%
X58420000Y-83820000D03*
%TO.P,U17,7,D1*%
%TO.N,/H1*%
X58420000Y-81280000D03*
%TO.P,U17,8,D0*%
%TO.N,/H0*%
X58420000Y-78740000D03*
%TO.P,U17,9,~{RES}*%
%TO.N,/~{Res}*%
X58420000Y-73660000D03*
%TO.P,U17,10,Gnd*%
%TO.N,GND*%
X58420000Y-68580000D03*
%TO.P,U17,11,Vcc*%
%TO.N,VCC*%
X58420000Y-66040000D03*
%TO.P,U17,12,Q0*%
%TO.N,/R5.0*%
X58420000Y-60960000D03*
%TO.P,U17,13,Q1*%
%TO.N,/R5.1*%
X58420000Y-58420000D03*
%TO.P,U17,14,Q2*%
%TO.N,/R5.2*%
X58420000Y-55880000D03*
%TO.P,U17,15,Q3*%
%TO.N,/R5.3*%
X58420000Y-53340000D03*
%TO.P,U17,16,Q4*%
%TO.N,/R5.4*%
X58420000Y-50800000D03*
%TO.P,U17,17,Q5*%
%TO.N,/R5.5*%
X58420000Y-48260000D03*
%TO.P,U17,18,Q6*%
%TO.N,/R5.6*%
X58420000Y-45720000D03*
%TO.P,U17,19,Q7*%
%TO.N,/R5.7*%
X58420000Y-43180000D03*
%TO.P,U17,20,~{CS}*%
%TO.N,/~{Bank1}*%
X58420000Y-35560000D03*
%TO.P,U17,21,~{Col}*%
%TO.N,/~{H}*%
X58420000Y-33020000D03*
%TO.P,U17,22,~{Row}*%
%TO.N,/~{R2}*%
X58420000Y-30480000D03*
%TD*%
%TO.P,U18,1,D7*%
%TO.N,/L7*%
X40640000Y-96520000D03*
%TO.P,U18,2,D6*%
%TO.N,/L6*%
X40640000Y-93980000D03*
%TO.P,U18,3,D5*%
%TO.N,/L5*%
X40640000Y-91440000D03*
%TO.P,U18,4,D4*%
%TO.N,/L4*%
X40640000Y-88900000D03*
%TO.P,U18,5,D3*%
%TO.N,/L3*%
X40640000Y-86360000D03*
%TO.P,U18,6,D2*%
%TO.N,/L2*%
X40640000Y-83820000D03*
%TO.P,U18,7,D1*%
%TO.N,/L1*%
X40640000Y-81280000D03*
%TO.P,U18,8,D0*%
%TO.N,/L0*%
X40640000Y-78740000D03*
%TO.P,U18,9,~{RES}*%
%TO.N,/~{Res}*%
X40640000Y-73660000D03*
%TO.P,U18,10,Gnd*%
%TO.N,GND*%
X40640000Y-68580000D03*
%TO.P,U18,11,Vcc*%
%TO.N,VCC*%
X40640000Y-66040000D03*
%TO.P,U18,12,Q0*%
%TO.N,/R6.0*%
X40640000Y-60960000D03*
%TO.P,U18,13,Q1*%
%TO.N,/R6.1*%
X40640000Y-58420000D03*
%TO.P,U18,14,Q2*%
%TO.N,/R6.2*%
X40640000Y-55880000D03*
%TO.P,U18,15,Q3*%
%TO.N,/R6.3*%
X40640000Y-53340000D03*
%TO.P,U18,16,Q4*%
%TO.N,/R6.4*%
X40640000Y-50800000D03*
%TO.P,U18,17,Q5*%
%TO.N,/R6.5*%
X40640000Y-48260000D03*
%TO.P,U18,18,Q6*%
%TO.N,/R6.6*%
X40640000Y-45720000D03*
%TO.P,U18,19,Q7*%
%TO.N,/R6.7*%
X40640000Y-43180000D03*
%TO.P,U18,20,~{CS}*%
%TO.N,/~{Bank1}*%
X40640000Y-35560000D03*
%TO.P,U18,21,~{Col}*%
%TO.N,/~{L}*%
X40640000Y-33020000D03*
%TO.P,U18,22,~{Row}*%
%TO.N,/~{R3}*%
X40640000Y-30480000D03*
%TD*%
%TO.P,U19,1,D7*%
%TO.N,/H7*%
X22860000Y-96520000D03*
%TO.P,U19,2,D6*%
%TO.N,/H6*%
X22860000Y-93980000D03*
%TO.P,U19,3,D5*%
%TO.N,/H5*%
X22860000Y-91440000D03*
%TO.P,U19,4,D4*%
%TO.N,/H4*%
X22860000Y-88900000D03*
%TO.P,U19,5,D3*%
%TO.N,/H3*%
X22860000Y-86360000D03*
%TO.P,U19,6,D2*%
%TO.N,/H2*%
X22860000Y-83820000D03*
%TO.P,U19,7,D1*%
%TO.N,/H1*%
X22860000Y-81280000D03*
%TO.P,U19,8,D0*%
%TO.N,/H0*%
X22860000Y-78740000D03*
%TO.P,U19,9,~{RES}*%
%TO.N,/~{Res}*%
X22860000Y-73660000D03*
%TO.P,U19,10,Gnd*%
%TO.N,GND*%
X22860000Y-68580000D03*
%TO.P,U19,11,Vcc*%
%TO.N,VCC*%
X22860000Y-66040000D03*
%TO.P,U19,12,Q0*%
%TO.N,/R7.0*%
X22860000Y-60960000D03*
%TO.P,U19,13,Q1*%
%TO.N,/R7.1*%
X22860000Y-58420000D03*
%TO.P,U19,14,Q2*%
%TO.N,/R7.2*%
X22860000Y-55880000D03*
%TO.P,U19,15,Q3*%
%TO.N,/R7.3*%
X22860000Y-53340000D03*
%TO.P,U19,16,Q4*%
%TO.N,/R7.4*%
X22860000Y-50800000D03*
%TO.P,U19,17,Q5*%
%TO.N,/R7.5*%
X22860000Y-48260000D03*
%TO.P,U19,18,Q6*%
%TO.N,/R7.6*%
X22860000Y-45720000D03*
%TO.P,U19,19,Q7*%
%TO.N,/R7.7*%
X22860000Y-43180000D03*
%TO.P,U19,20,~{CS}*%
%TO.N,/~{Bank1}*%
X22860000Y-35560000D03*
%TO.P,U19,21,~{Col}*%
%TO.N,/~{H}*%
X22860000Y-33020000D03*
%TO.P,U19,22,~{Row}*%
%TO.N,/~{R3}*%
X22860000Y-30480000D03*
%TD*%
%TO.P,U2,1,D7*%
%TO.N,/H7*%
X134620000Y-96520000D03*
%TO.P,U2,2,D6*%
%TO.N,/H6*%
X134620000Y-93980000D03*
%TO.P,U2,3,D5*%
%TO.N,/H5*%
X134620000Y-91440000D03*
%TO.P,U2,4,D4*%
%TO.N,/H4*%
X134620000Y-88900000D03*
%TO.P,U2,5,D3*%
%TO.N,/H3*%
X134620000Y-86360000D03*
%TO.P,U2,6,D2*%
%TO.N,/H2*%
X134620000Y-83820000D03*
%TO.P,U2,7,D1*%
%TO.N,/H1*%
X134620000Y-81280000D03*
%TO.P,U2,8,D0*%
%TO.N,/H0*%
X134620000Y-78740000D03*
%TO.P,U2,9,~{RES}*%
%TO.N,/~{Res}*%
X134620000Y-73660000D03*
%TO.P,U2,10,Gnd*%
%TO.N,GND*%
X134620000Y-68580000D03*
%TO.P,U2,11,Vcc*%
%TO.N,VCC*%
X134620000Y-66040000D03*
%TO.P,U2,12,Q0*%
%TO.N,/R1.0*%
X134620000Y-60960000D03*
%TO.P,U2,13,Q1*%
%TO.N,/R1.1*%
X134620000Y-58420000D03*
%TO.P,U2,14,Q2*%
%TO.N,/R1.2*%
X134620000Y-55880000D03*
%TO.P,U2,15,Q3*%
%TO.N,/R1.3*%
X134620000Y-53340000D03*
%TO.P,U2,16,Q4*%
%TO.N,/R1.4*%
X134620000Y-50800000D03*
%TO.P,U2,17,Q5*%
%TO.N,/R1.5*%
X134620000Y-48260000D03*
%TO.P,U2,18,Q6*%
%TO.N,/R1.6*%
X134620000Y-45720000D03*
%TO.P,U2,19,Q7*%
%TO.N,/R1.7*%
X134620000Y-43180000D03*
%TO.P,U2,20,~{CS}*%
%TO.N,/~{Bank0}*%
X134620000Y-35560000D03*
%TO.P,U2,21,~{Col}*%
%TO.N,/~{H}*%
X134620000Y-33020000D03*
%TO.P,U2,22,~{Row}*%
%TO.N,/~{R0}*%
X134620000Y-30480000D03*
%TD*%
D21*
%TO.P,U15,1,A0*%
%TO.N,/L7*%
X162560000Y-100330000D03*
%TO.P,U15,2,A1*%
%TO.N,/L6*%
X162560000Y-97790000D03*
%TO.P,U15,3,A2*%
%TO.N,/L5*%
X162560000Y-95250000D03*
D22*
%TO.P,U15,4,A3*%
%TO.N,/L4*%
X162560000Y-92710000D03*
%TO.P,U15,5,A4*%
%TO.N,/L3*%
X162560000Y-90170000D03*
%TO.P,U15,6,A5*%
%TO.N,/L2*%
X162560000Y-87630000D03*
%TO.P,U15,7,A6*%
%TO.N,/L1*%
X162560000Y-85090000D03*
D21*
%TO.P,U15,8,A7*%
%TO.N,/L0*%
X162560000Y-82550000D03*
%TO.P,U15,9,B0*%
%TO.N,/ALU_H7*%
X162560000Y-77470000D03*
%TO.P,U15,10,B1*%
%TO.N,Net-(J18-Pin_8)*%
X162560000Y-74930000D03*
%TO.P,U15,11,B2*%
%TO.N,Net-(J18-Pin_7)*%
X162560000Y-72390000D03*
%TO.P,U15,12,B3*%
%TO.N,Net-(J18-Pin_6)*%
X162560000Y-69850000D03*
%TO.P,U15,13,B4*%
%TO.N,Net-(J18-Pin_5)*%
X162560000Y-67310000D03*
%TO.P,U15,14,B5*%
%TO.N,Net-(J18-Pin_4)*%
X162560000Y-64770000D03*
%TO.P,U15,15,B6*%
%TO.N,Net-(J18-Pin_3)*%
X162560000Y-62230000D03*
%TO.P,U15,16,B7*%
%TO.N,/ALU_H0*%
X162560000Y-59690000D03*
%TO.P,U15,17,O0*%
%TO.N,/H7*%
X162560000Y-54610000D03*
%TO.P,U15,18,O1*%
%TO.N,/H6*%
X162560000Y-52070000D03*
%TO.P,U15,19,O2*%
%TO.N,/H5*%
X162560000Y-49530000D03*
%TO.P,U15,20,O3*%
%TO.N,/H4*%
X162560000Y-46990000D03*
%TO.P,U15,21,O4*%
%TO.N,/H3*%
X162560000Y-44450000D03*
%TO.P,U15,22,O5*%
%TO.N,/H2*%
X162560000Y-41910000D03*
%TO.P,U15,23,O6*%
%TO.N,/H1*%
X162560000Y-39370000D03*
%TO.P,U15,24,O7*%
%TO.N,/H0*%
X162560000Y-36830000D03*
%TO.P,U15,25,S*%
%TO.N,Net-(U15-S)*%
X162560000Y-31750000D03*
%TO.P,U15,26,Vcc*%
%TO.N,VCC*%
X162560000Y-29210000D03*
%TO.P,U15,27,Gnd*%
%TO.N,GND*%
X162560000Y-26670000D03*
%TO.P,U15,28,~{OE}*%
X162560000Y-24130000D03*
%TD*%
D23*
%TO.P,U13,1,E*%
%TO.N,GND*%
X134620000Y-102235000D03*
D16*
%TO.P,U13,2,A0*%
%TO.N,/DST[1]*%
X132080000Y-102235000D03*
%TO.P,U13,3,A1*%
%TO.N,/DST[2]*%
X129540000Y-102235000D03*
%TO.P,U13,4,O0*%
%TO.N,/~{R0}*%
X127000000Y-102235000D03*
%TO.P,U13,5,O1*%
%TO.N,/~{R1}*%
X124460000Y-102235000D03*
%TO.P,U13,6,O2*%
%TO.N,/~{R2}*%
X121920000Y-102235000D03*
%TO.P,U13,7,O3*%
%TO.N,/~{R3}*%
X119380000Y-102235000D03*
%TO.P,U13,8,GND*%
%TO.N,GND*%
X116840000Y-102235000D03*
%TO.P,U13,9,O3*%
%TO.N,Net-(U13B-O3)*%
X116840000Y-109855000D03*
%TO.P,U13,10,O2*%
%TO.N,Net-(U13B-O2)*%
X119380000Y-109855000D03*
%TO.P,U13,11,O1*%
%TO.N,unconnected-(U13B-O1-Pad11)*%
X121920000Y-109855000D03*
%TO.P,U13,12,O0*%
%TO.N,unconnected-(U13B-O0-Pad12)*%
X124460000Y-109855000D03*
%TO.P,U13,13,A1*%
%TO.N,/~{MUL}*%
X127000000Y-109855000D03*
%TO.P,U13,14,A0*%
%TO.N,/DST[0]*%
X129540000Y-109855000D03*
%TO.P,U13,15,E*%
%TO.N,GND*%
X132080000Y-109855000D03*
%TO.P,U13,16,VCC*%
%TO.N,VCC*%
X134620000Y-109855000D03*
%TD*%
D13*
%TO.P,J20,1,Pin_1*%
%TO.N,/~{Res}*%
X54610000Y-73660000D03*
%TD*%
D24*
%TO.P,J12,1,Pin_1*%
%TO.N,/~{MUL}*%
X82550000Y-109855000D03*
%TD*%
%TO.P,D1,1,K*%
%TO.N,Net-(D1-K)*%
X49530000Y-108585000D03*
D25*
%TO.P,D1,2,A*%
%TO.N,VCC*%
X46990000Y-108585000D03*
%TD*%
D14*
%TO.P,J9,1,Pin_1*%
%TO.N,/~{Res}*%
X86995000Y-102235000D03*
%TD*%
D13*
%TO.P,J10,1,Pin_1*%
%TO.N,/~{Res}*%
X143510000Y-73660000D03*
%TD*%
%TO.P,J21,1,Pin_1*%
%TO.N,/~{Res}*%
X107950000Y-73660000D03*
%TD*%
%TO.P,J22,1,Pin_1*%
%TO.N,/~{Res}*%
X31115000Y-73660000D03*
%TD*%
%TO.P,J23,1,Pin_1*%
%TO.N,/~{Res}*%
X125730000Y-73660000D03*
%TD*%
%TO.P,J24,1,Pin_1*%
%TO.N,/~{Res}*%
X72390000Y-73660000D03*
%TD*%
D26*
%TO.P,R5,1*%
%TO.N,/~{MUL}*%
X85090000Y-109585000D03*
%TO.P,R5,2*%
%TO.N,VCC*%
X85090000Y-107585000D03*
%TD*%
D27*
%TO.P,C1,1*%
%TO.N,VCC*%
X43180000Y-66272500D03*
%TO.P,C1,2*%
%TO.N,GND*%
X43180000Y-68347500D03*
%TD*%
%TO.P,C2,1*%
%TO.N,VCC*%
X132080000Y-66272500D03*
%TO.P,C2,2*%
%TO.N,GND*%
X132080000Y-68347500D03*
%TD*%
D28*
%TO.P,C3,1*%
%TO.N,VCC*%
X116840000Y-107485000D03*
%TO.P,C3,2*%
%TO.N,GND*%
X116840000Y-105410000D03*
%TD*%
%TO.P,C4,1*%
%TO.N,VCC*%
X67310000Y-106680000D03*
%TO.P,C4,2*%
%TO.N,GND*%
X67310000Y-104605000D03*
%TD*%
D29*
%TO.P,Q1,1,G*%
%TO.N,GND*%
X34610000Y-101505000D03*
%TO.P,Q1,2,S*%
%TO.N,VCC*%
X36510000Y-101505000D03*
%TO.P,Q1,3,D*%
%TO.N,Net-(J16-Pin_1)*%
X35560000Y-103505000D03*
%TD*%
D30*
%TO.P,R1,1*%
%TO.N,Net-(D1-K)*%
X53880000Y-109855000D03*
%TO.P,R1,2*%
%TO.N,/~{Bank1}*%
X55880000Y-109855000D03*
%TD*%
D31*
%TO.P,J2,1,Pin_1*%
%TO.N,/R1.0*%
X123190000Y-77470000D03*
D10*
%TO.P,J2,2,Pin_2*%
%TO.N,unconnected-(J2-Pin_2-Pad2)*%
X123190000Y-74930000D03*
%TO.P,J2,3,Pin_3*%
%TO.N,unconnected-(J2-Pin_3-Pad3)*%
X123190000Y-72390000D03*
%TO.P,J2,4,Pin_4*%
%TO.N,/R1.1*%
X123190000Y-69850000D03*
%TO.P,J2,5,Pin_5*%
%TO.N,unconnected-(J2-Pin_5-Pad5)*%
X123190000Y-67310000D03*
%TO.P,J2,6,Pin_6*%
%TO.N,unconnected-(J2-Pin_6-Pad6)*%
X123190000Y-64770000D03*
%TO.P,J2,7,Pin_7*%
%TO.N,/R1.2*%
X123190000Y-62230000D03*
%TO.P,J2,8,Pin_8*%
%TO.N,unconnected-(J2-Pin_8-Pad8)*%
X123190000Y-59690000D03*
%TO.P,J2,9,Pin_9*%
%TO.N,unconnected-(J2-Pin_9-Pad9)*%
X123190000Y-57150000D03*
%TO.P,J2,10,Pin_10*%
%TO.N,/R1.3*%
X123190000Y-54610000D03*
%TO.P,J2,11,Pin_11*%
%TO.N,unconnected-(J2-Pin_11-Pad11)*%
X123190000Y-52070000D03*
%TO.P,J2,12,Pin_12*%
%TO.N,unconnected-(J2-Pin_12-Pad12)*%
X123190000Y-49530000D03*
%TO.P,J2,13,Pin_13*%
%TO.N,/R1.4*%
X123190000Y-46990000D03*
%TO.P,J2,14,Pin_14*%
%TO.N,unconnected-(J2-Pin_14-Pad14)*%
X123190000Y-44450000D03*
%TO.P,J2,15,Pin_15*%
%TO.N,unconnected-(J2-Pin_15-Pad15)*%
X123190000Y-41910000D03*
%TO.P,J2,16,Pin_16*%
%TO.N,/R1.5*%
X123190000Y-39370000D03*
%TO.P,J2,17,Pin_17*%
%TO.N,unconnected-(J2-Pin_17-Pad17)*%
X123190000Y-36830000D03*
%TO.P,J2,18,Pin_18*%
%TO.N,unconnected-(J2-Pin_18-Pad18)*%
X123190000Y-34290000D03*
%TO.P,J2,19,Pin_19*%
%TO.N,/R1.6*%
X123190000Y-31750000D03*
%TO.P,J2,20,Pin_20*%
%TO.N,unconnected-(J2-Pin_20-Pad20)*%
X123190000Y-29210000D03*
%TO.P,J2,21,Pin_21*%
%TO.N,unconnected-(J2-Pin_21-Pad21)*%
X123190000Y-26670000D03*
%TO.P,J2,22,Pin_22*%
%TO.N,/R1.7*%
X123190000Y-24130000D03*
%TD*%
D31*
%TO.P,J6,1,Pin_1*%
%TO.N,/R5.0*%
X52070000Y-77470000D03*
D10*
%TO.P,J6,2,Pin_2*%
%TO.N,unconnected-(J6-Pin_2-Pad2)*%
X52070000Y-74930000D03*
%TO.P,J6,3,Pin_3*%
%TO.N,unconnected-(J6-Pin_3-Pad3)*%
X52070000Y-72390000D03*
%TO.P,J6,4,Pin_4*%
%TO.N,/R5.1*%
X52070000Y-69850000D03*
%TO.P,J6,5,Pin_5*%
%TO.N,unconnected-(J6-Pin_5-Pad5)*%
X52070000Y-67310000D03*
%TO.P,J6,6,Pin_6*%
%TO.N,unconnected-(J6-Pin_6-Pad6)*%
X52070000Y-64770000D03*
%TO.P,J6,7,Pin_7*%
%TO.N,/R5.2*%
X52070000Y-62230000D03*
%TO.P,J6,8,Pin_8*%
%TO.N,unconnected-(J6-Pin_8-Pad8)*%
X52070000Y-59690000D03*
%TO.P,J6,9,Pin_9*%
%TO.N,unconnected-(J6-Pin_9-Pad9)*%
X52070000Y-57150000D03*
%TO.P,J6,10,Pin_10*%
%TO.N,/R5.3*%
X52070000Y-54610000D03*
%TO.P,J6,11,Pin_11*%
%TO.N,unconnected-(J6-Pin_11-Pad11)*%
X52070000Y-52070000D03*
%TO.P,J6,12,Pin_12*%
%TO.N,unconnected-(J6-Pin_12-Pad12)*%
X52070000Y-49530000D03*
%TO.P,J6,13,Pin_13*%
%TO.N,/R5.4*%
X52070000Y-46990000D03*
%TO.P,J6,14,Pin_14*%
%TO.N,unconnected-(J6-Pin_14-Pad14)*%
X52070000Y-44450000D03*
%TO.P,J6,15,Pin_15*%
%TO.N,unconnected-(J6-Pin_15-Pad15)*%
X52070000Y-41910000D03*
%TO.P,J6,16,Pin_16*%
%TO.N,/R5.5*%
X52070000Y-39370000D03*
%TO.P,J6,17,Pin_17*%
%TO.N,unconnected-(J6-Pin_17-Pad17)*%
X52070000Y-36830000D03*
%TO.P,J6,18,Pin_18*%
%TO.N,unconnected-(J6-Pin_18-Pad18)*%
X52070000Y-34290000D03*
%TO.P,J6,19,Pin_19*%
%TO.N,/R5.6*%
X52070000Y-31750000D03*
%TO.P,J6,20,Pin_20*%
%TO.N,unconnected-(J6-Pin_20-Pad20)*%
X52070000Y-29210000D03*
%TO.P,J6,21,Pin_21*%
%TO.N,unconnected-(J6-Pin_21-Pad21)*%
X52070000Y-26670000D03*
%TO.P,J6,22,Pin_22*%
%TO.N,/R5.7*%
X52070000Y-24130000D03*
%TD*%
D27*
%TO.P,C9,1*%
%TO.N,VCC*%
X96520000Y-66251000D03*
%TO.P,C9,2*%
%TO.N,GND*%
X96520000Y-68326000D03*
%TD*%
D31*
%TO.P,J5,1,Pin_1*%
%TO.N,/R4.0*%
X69850000Y-77470000D03*
D10*
%TO.P,J5,2,Pin_2*%
%TO.N,unconnected-(J5-Pin_2-Pad2)*%
X69850000Y-74930000D03*
%TO.P,J5,3,Pin_3*%
%TO.N,unconnected-(J5-Pin_3-Pad3)*%
X69850000Y-72390000D03*
%TO.P,J5,4,Pin_4*%
%TO.N,/R4.1*%
X69850000Y-69850000D03*
%TO.P,J5,5,Pin_5*%
%TO.N,unconnected-(J5-Pin_5-Pad5)*%
X69850000Y-67310000D03*
%TO.P,J5,6,Pin_6*%
%TO.N,unconnected-(J5-Pin_6-Pad6)*%
X69850000Y-64770000D03*
%TO.P,J5,7,Pin_7*%
%TO.N,/R4.2*%
X69850000Y-62230000D03*
%TO.P,J5,8,Pin_8*%
%TO.N,unconnected-(J5-Pin_8-Pad8)*%
X69850000Y-59690000D03*
%TO.P,J5,9,Pin_9*%
%TO.N,unconnected-(J5-Pin_9-Pad9)*%
X69850000Y-57150000D03*
%TO.P,J5,10,Pin_10*%
%TO.N,/R4.3*%
X69850000Y-54610000D03*
%TO.P,J5,11,Pin_11*%
%TO.N,unconnected-(J5-Pin_11-Pad11)*%
X69850000Y-52070000D03*
%TO.P,J5,12,Pin_12*%
%TO.N,unconnected-(J5-Pin_12-Pad12)*%
X69850000Y-49530000D03*
%TO.P,J5,13,Pin_13*%
%TO.N,/R4.4*%
X69850000Y-46990000D03*
%TO.P,J5,14,Pin_14*%
%TO.N,unconnected-(J5-Pin_14-Pad14)*%
X69850000Y-44450000D03*
%TO.P,J5,15,Pin_15*%
%TO.N,unconnected-(J5-Pin_15-Pad15)*%
X69850000Y-41910000D03*
%TO.P,J5,16,Pin_16*%
%TO.N,/R4.5*%
X69850000Y-39370000D03*
%TO.P,J5,17,Pin_17*%
%TO.N,unconnected-(J5-Pin_17-Pad17)*%
X69850000Y-36830000D03*
%TO.P,J5,18,Pin_18*%
%TO.N,unconnected-(J5-Pin_18-Pad18)*%
X69850000Y-34290000D03*
%TO.P,J5,19,Pin_19*%
%TO.N,/R4.6*%
X69850000Y-31750000D03*
%TO.P,J5,20,Pin_20*%
%TO.N,unconnected-(J5-Pin_20-Pad20)*%
X69850000Y-29210000D03*
%TO.P,J5,21,Pin_21*%
%TO.N,unconnected-(J5-Pin_21-Pad21)*%
X69850000Y-26670000D03*
%TO.P,J5,22,Pin_22*%
%TO.N,/R4.7*%
X69850000Y-24130000D03*
%TD*%
D27*
%TO.P,C7,1*%
%TO.N,VCC*%
X149860000Y-66294000D03*
%TO.P,C7,2*%
%TO.N,GND*%
X149860000Y-68369000D03*
%TD*%
D31*
%TO.P,J7,1,Pin_1*%
%TO.N,/R6.0*%
X34290000Y-77470000D03*
D10*
%TO.P,J7,2,Pin_2*%
%TO.N,unconnected-(J7-Pin_2-Pad2)*%
X34290000Y-74930000D03*
%TO.P,J7,3,Pin_3*%
%TO.N,unconnected-(J7-Pin_3-Pad3)*%
X34290000Y-72390000D03*
%TO.P,J7,4,Pin_4*%
%TO.N,/R6.1*%
X34290000Y-69850000D03*
%TO.P,J7,5,Pin_5*%
%TO.N,unconnected-(J7-Pin_5-Pad5)*%
X34290000Y-67310000D03*
%TO.P,J7,6,Pin_6*%
%TO.N,unconnected-(J7-Pin_6-Pad6)*%
X34290000Y-64770000D03*
%TO.P,J7,7,Pin_7*%
%TO.N,/R6.2*%
X34290000Y-62230000D03*
%TO.P,J7,8,Pin_8*%
%TO.N,unconnected-(J7-Pin_8-Pad8)*%
X34290000Y-59690000D03*
%TO.P,J7,9,Pin_9*%
%TO.N,unconnected-(J7-Pin_9-Pad9)*%
X34290000Y-57150000D03*
%TO.P,J7,10,Pin_10*%
%TO.N,/R6.3*%
X34290000Y-54610000D03*
%TO.P,J7,11,Pin_11*%
%TO.N,unconnected-(J7-Pin_11-Pad11)*%
X34290000Y-52070000D03*
%TO.P,J7,12,Pin_12*%
%TO.N,unconnected-(J7-Pin_12-Pad12)*%
X34290000Y-49530000D03*
%TO.P,J7,13,Pin_13*%
%TO.N,/R6.4*%
X34290000Y-46990000D03*
%TO.P,J7,14,Pin_14*%
%TO.N,unconnected-(J7-Pin_14-Pad14)*%
X34290000Y-44450000D03*
%TO.P,J7,15,Pin_15*%
%TO.N,unconnected-(J7-Pin_15-Pad15)*%
X34290000Y-41910000D03*
%TO.P,J7,16,Pin_16*%
%TO.N,/R6.5*%
X34290000Y-39370000D03*
%TO.P,J7,17,Pin_17*%
%TO.N,unconnected-(J7-Pin_17-Pad17)*%
X34290000Y-36830000D03*
%TO.P,J7,18,Pin_18*%
%TO.N,unconnected-(J7-Pin_18-Pad18)*%
X34290000Y-34290000D03*
%TO.P,J7,19,Pin_19*%
%TO.N,/R6.6*%
X34290000Y-31750000D03*
%TO.P,J7,20,Pin_20*%
%TO.N,unconnected-(J7-Pin_20-Pad20)*%
X34290000Y-29210000D03*
%TO.P,J7,21,Pin_21*%
%TO.N,unconnected-(J7-Pin_21-Pad21)*%
X34290000Y-26670000D03*
%TO.P,J7,22,Pin_22*%
%TO.N,/R6.7*%
X34290000Y-24130000D03*
%TD*%
D31*
%TO.P,J8,1,Pin_1*%
%TO.N,/R7.0*%
X16510000Y-77470000D03*
D10*
%TO.P,J8,2,Pin_2*%
%TO.N,unconnected-(J8-Pin_2-Pad2)*%
X16510000Y-74930000D03*
%TO.P,J8,3,Pin_3*%
%TO.N,unconnected-(J8-Pin_3-Pad3)*%
X16510000Y-72390000D03*
%TO.P,J8,4,Pin_4*%
%TO.N,/R7.1*%
X16510000Y-69850000D03*
%TO.P,J8,5,Pin_5*%
%TO.N,unconnected-(J8-Pin_5-Pad5)*%
X16510000Y-67310000D03*
%TO.P,J8,6,Pin_6*%
%TO.N,unconnected-(J8-Pin_6-Pad6)*%
X16510000Y-64770000D03*
%TO.P,J8,7,Pin_7*%
%TO.N,/R7.2*%
X16510000Y-62230000D03*
%TO.P,J8,8,Pin_8*%
%TO.N,unconnected-(J8-Pin_8-Pad8)*%
X16510000Y-59690000D03*
%TO.P,J8,9,Pin_9*%
%TO.N,unconnected-(J8-Pin_9-Pad9)*%
X16510000Y-57150000D03*
%TO.P,J8,10,Pin_10*%
%TO.N,/R7.3*%
X16510000Y-54610000D03*
%TO.P,J8,11,Pin_11*%
%TO.N,unconnected-(J8-Pin_11-Pad11)*%
X16510000Y-52070000D03*
%TO.P,J8,12,Pin_12*%
%TO.N,unconnected-(J8-Pin_12-Pad12)*%
X16510000Y-49530000D03*
%TO.P,J8,13,Pin_13*%
%TO.N,/R7.4*%
X16510000Y-46990000D03*
%TO.P,J8,14,Pin_14*%
%TO.N,unconnected-(J8-Pin_14-Pad14)*%
X16510000Y-44450000D03*
%TO.P,J8,15,Pin_15*%
%TO.N,unconnected-(J8-Pin_15-Pad15)*%
X16510000Y-41910000D03*
%TO.P,J8,16,Pin_16*%
%TO.N,/R7.5*%
X16510000Y-39370000D03*
%TO.P,J8,17,Pin_17*%
%TO.N,unconnected-(J8-Pin_17-Pad17)*%
X16510000Y-36830000D03*
%TO.P,J8,18,Pin_18*%
%TO.N,unconnected-(J8-Pin_18-Pad18)*%
X16510000Y-34290000D03*
%TO.P,J8,19,Pin_19*%
%TO.N,/R7.6*%
X16510000Y-31750000D03*
%TO.P,J8,20,Pin_20*%
%TO.N,unconnected-(J8-Pin_20-Pad20)*%
X16510000Y-29210000D03*
%TO.P,J8,21,Pin_21*%
%TO.N,unconnected-(J8-Pin_21-Pad21)*%
X16510000Y-26670000D03*
%TO.P,J8,22,Pin_22*%
%TO.N,/R7.7*%
X16510000Y-24130000D03*
%TD*%
D27*
%TO.P,C5,1*%
%TO.N,VCC*%
X25400000Y-66294000D03*
%TO.P,C5,2*%
%TO.N,GND*%
X25400000Y-68369000D03*
%TD*%
D31*
%TO.P,J4,1,Pin_1*%
%TO.N,/R3.0*%
X87630000Y-77450000D03*
D10*
%TO.P,J4,2,Pin_2*%
%TO.N,unconnected-(J4-Pin_2-Pad2)*%
X87630000Y-74910000D03*
%TO.P,J4,3,Pin_3*%
%TO.N,unconnected-(J4-Pin_3-Pad3)*%
X87630000Y-72370000D03*
%TO.P,J4,4,Pin_4*%
%TO.N,/R3.1*%
X87630000Y-69830000D03*
%TO.P,J4,5,Pin_5*%
%TO.N,unconnected-(J4-Pin_5-Pad5)*%
X87630000Y-67290000D03*
%TO.P,J4,6,Pin_6*%
%TO.N,unconnected-(J4-Pin_6-Pad6)*%
X87630000Y-64750000D03*
%TO.P,J4,7,Pin_7*%
%TO.N,/R3.2*%
X87630000Y-62210000D03*
%TO.P,J4,8,Pin_8*%
%TO.N,unconnected-(J4-Pin_8-Pad8)*%
X87630000Y-59670000D03*
%TO.P,J4,9,Pin_9*%
%TO.N,unconnected-(J4-Pin_9-Pad9)*%
X87630000Y-57130000D03*
%TO.P,J4,10,Pin_10*%
%TO.N,/R3.3*%
X87630000Y-54590000D03*
%TO.P,J4,11,Pin_11*%
%TO.N,unconnected-(J4-Pin_11-Pad11)*%
X87630000Y-52050000D03*
%TO.P,J4,12,Pin_12*%
%TO.N,unconnected-(J4-Pin_12-Pad12)*%
X87630000Y-49510000D03*
%TO.P,J4,13,Pin_13*%
%TO.N,/R3.4*%
X87630000Y-46970000D03*
%TO.P,J4,14,Pin_14*%
%TO.N,unconnected-(J4-Pin_14-Pad14)*%
X87630000Y-44430000D03*
%TO.P,J4,15,Pin_15*%
%TO.N,unconnected-(J4-Pin_15-Pad15)*%
X87630000Y-41890000D03*
%TO.P,J4,16,Pin_16*%
%TO.N,/R3.5*%
X87630000Y-39350000D03*
%TO.P,J4,17,Pin_17*%
%TO.N,unconnected-(J4-Pin_17-Pad17)*%
X87630000Y-36810000D03*
%TO.P,J4,18,Pin_18*%
%TO.N,unconnected-(J4-Pin_18-Pad18)*%
X87630000Y-34270000D03*
%TO.P,J4,19,Pin_19*%
%TO.N,/R3.6*%
X87630000Y-31730000D03*
%TO.P,J4,20,Pin_20*%
%TO.N,unconnected-(J4-Pin_20-Pad20)*%
X87630000Y-29190000D03*
%TO.P,J4,21,Pin_21*%
%TO.N,unconnected-(J4-Pin_21-Pad21)*%
X87630000Y-26650000D03*
%TO.P,J4,22,Pin_22*%
%TO.N,/R3.7*%
X87630000Y-24110000D03*
%TD*%
D27*
%TO.P,C8,1*%
%TO.N,VCC*%
X114300000Y-66251000D03*
%TO.P,C8,2*%
%TO.N,GND*%
X114300000Y-68326000D03*
%TD*%
D31*
%TO.P,J3,1,Pin_1*%
%TO.N,/R2.0*%
X105410000Y-77470000D03*
D10*
%TO.P,J3,2,Pin_2*%
%TO.N,unconnected-(J3-Pin_2-Pad2)*%
X105410000Y-74930000D03*
%TO.P,J3,3,Pin_3*%
%TO.N,unconnected-(J3-Pin_3-Pad3)*%
X105410000Y-72390000D03*
%TO.P,J3,4,Pin_4*%
%TO.N,/R2.1*%
X105410000Y-69850000D03*
%TO.P,J3,5,Pin_5*%
%TO.N,unconnected-(J3-Pin_5-Pad5)*%
X105410000Y-67310000D03*
%TO.P,J3,6,Pin_6*%
%TO.N,unconnected-(J3-Pin_6-Pad6)*%
X105410000Y-64770000D03*
%TO.P,J3,7,Pin_7*%
%TO.N,/R2.2*%
X105410000Y-62230000D03*
%TO.P,J3,8,Pin_8*%
%TO.N,unconnected-(J3-Pin_8-Pad8)*%
X105410000Y-59690000D03*
%TO.P,J3,9,Pin_9*%
%TO.N,unconnected-(J3-Pin_9-Pad9)*%
X105410000Y-57150000D03*
%TO.P,J3,10,Pin_10*%
%TO.N,/R2.3*%
X105410000Y-54610000D03*
%TO.P,J3,11,Pin_11*%
%TO.N,unconnected-(J3-Pin_11-Pad11)*%
X105410000Y-52070000D03*
%TO.P,J3,12,Pin_12*%
%TO.N,unconnected-(J3-Pin_12-Pad12)*%
X105410000Y-49530000D03*
%TO.P,J3,13,Pin_13*%
%TO.N,/R2.4*%
X105410000Y-46990000D03*
%TO.P,J3,14,Pin_14*%
%TO.N,unconnected-(J3-Pin_14-Pad14)*%
X105410000Y-44450000D03*
%TO.P,J3,15,Pin_15*%
%TO.N,unconnected-(J3-Pin_15-Pad15)*%
X105410000Y-41910000D03*
%TO.P,J3,16,Pin_16*%
%TO.N,/R2.5*%
X105410000Y-39370000D03*
%TO.P,J3,17,Pin_17*%
%TO.N,unconnected-(J3-Pin_17-Pad17)*%
X105410000Y-36830000D03*
%TO.P,J3,18,Pin_18*%
%TO.N,unconnected-(J3-Pin_18-Pad18)*%
X105410000Y-34290000D03*
D32*
%TO.P,J3,19,Pin_19*%
%TO.N,/R2.6*%
X105410000Y-31750000D03*
D10*
%TO.P,J3,20,Pin_20*%
%TO.N,unconnected-(J3-Pin_20-Pad20)*%
X105410000Y-29210000D03*
%TO.P,J3,21,Pin_21*%
%TO.N,unconnected-(J3-Pin_21-Pad21)*%
X105410000Y-26670000D03*
%TO.P,J3,22,Pin_22*%
%TO.N,/R2.7*%
X105410000Y-24130000D03*
%TD*%
D31*
%TO.P,J1,1,Pin_1*%
%TO.N,/R0.0*%
X140970000Y-77470000D03*
D10*
%TO.P,J1,2,Pin_2*%
%TO.N,unconnected-(J1-Pin_2-Pad2)*%
X140970000Y-74930000D03*
%TO.P,J1,3,Pin_3*%
%TO.N,unconnected-(J1-Pin_3-Pad3)*%
X140970000Y-72390000D03*
%TO.P,J1,4,Pin_4*%
%TO.N,/R0.1*%
X140970000Y-69850000D03*
%TO.P,J1,5,Pin_5*%
%TO.N,unconnected-(J1-Pin_5-Pad5)*%
X140970000Y-67310000D03*
%TO.P,J1,6,Pin_6*%
%TO.N,unconnected-(J1-Pin_6-Pad6)*%
X140970000Y-64770000D03*
%TO.P,J1,7,Pin_7*%
%TO.N,/R0.2*%
X140970000Y-62230000D03*
%TO.P,J1,8,Pin_8*%
%TO.N,unconnected-(J1-Pin_8-Pad8)*%
X140970000Y-59690000D03*
%TO.P,J1,9,Pin_9*%
%TO.N,unconnected-(J1-Pin_9-Pad9)*%
X140970000Y-57150000D03*
%TO.P,J1,10,Pin_10*%
%TO.N,/R0.3*%
X140970000Y-54610000D03*
%TO.P,J1,11,Pin_11*%
%TO.N,unconnected-(J1-Pin_11-Pad11)*%
X140970000Y-52070000D03*
%TO.P,J1,12,Pin_12*%
%TO.N,unconnected-(J1-Pin_12-Pad12)*%
X140970000Y-49530000D03*
%TO.P,J1,13,Pin_13*%
%TO.N,/R0.4*%
X140970000Y-46990000D03*
%TO.P,J1,14,Pin_14*%
%TO.N,unconnected-(J1-Pin_14-Pad14)*%
X140970000Y-44450000D03*
%TO.P,J1,15,Pin_15*%
%TO.N,unconnected-(J1-Pin_15-Pad15)*%
X140970000Y-41910000D03*
%TO.P,J1,16,Pin_16*%
%TO.N,/R0.5*%
X140970000Y-39370000D03*
%TO.P,J1,17,Pin_17*%
%TO.N,unconnected-(J1-Pin_17-Pad17)*%
X140970000Y-36830000D03*
%TO.P,J1,18,Pin_18*%
%TO.N,unconnected-(J1-Pin_18-Pad18)*%
X140970000Y-34290000D03*
%TO.P,J1,19,Pin_19*%
%TO.N,/R0.6*%
X140970000Y-31750000D03*
%TO.P,J1,20,Pin_20*%
%TO.N,unconnected-(J1-Pin_20-Pad20)*%
X140970000Y-29210000D03*
%TO.P,J1,21,Pin_21*%
%TO.N,unconnected-(J1-Pin_21-Pad21)*%
X140970000Y-26670000D03*
%TO.P,J1,22,Pin_22*%
%TO.N,/R0.7*%
X140970000Y-24130000D03*
%TD*%
D27*
%TO.P,C6,1*%
%TO.N,VCC*%
X60960000Y-66294000D03*
%TO.P,C6,2*%
%TO.N,GND*%
X60960000Y-68369000D03*
%TD*%
%TO.P,C10,1*%
%TO.N,VCC*%
X78740000Y-66294000D03*
%TO.P,C10,2*%
%TO.N,GND*%
X78740000Y-68369000D03*
%TD*%
D33*
%TO.N,/H0*%
X137795000Y-78740000D03*
%TO.N,/H1*%
X137795000Y-81280000D03*
%TO.N,/H2*%
X137795000Y-83820000D03*
%TO.N,/H3*%
X137795000Y-86360000D03*
%TO.N,/H4*%
X137795000Y-88900000D03*
%TO.N,/H5*%
X137795000Y-91440000D03*
%TO.N,/H6*%
X137795000Y-93980000D03*
%TO.N,/H7*%
X137795000Y-96520000D03*
%TO.N,VCC*%
X86995000Y-107315000D03*
X43180000Y-104775000D03*
X43180000Y-64135000D03*
%TO.N,/~{R0}*%
X132080000Y-30480000D03*
%TO.N,/~{L}*%
X78740000Y-33020000D03*
%TO.N,/~{Res}*%
X83820000Y-73660000D03*
%TO.N,/~{H}*%
X60960000Y-33020000D03*
D34*
%TO.N,/~{R2}*%
X85725000Y-99060000D03*
D33*
%TO.N,/~{R3}*%
X48895000Y-99695000D03*
%TO.N,/~{Bank0}*%
X118745000Y-35560000D03*
X43180000Y-39370000D03*
X65405000Y-35560000D03*
X43180000Y-35560000D03*
X100965000Y-39370000D03*
X65405000Y-39370000D03*
X118745000Y-39370000D03*
X83185000Y-39370000D03*
X83185000Y-35560000D03*
X100965000Y-35560000D03*
%TO.N,/~{Bank1}*%
X67310000Y-36195000D03*
%TO.N,Net-(U13B-O3)*%
X77470000Y-104140000D03*
%TO.N,Net-(U15-S)*%
X76200000Y-76200000D03*
X165735000Y-81280000D03*
%TD*%
D35*
%TO.N,/L0*%
X147320000Y-78740000D02*
X152400000Y-78740000D01*
X40640000Y-78740000D02*
X45720000Y-78740000D01*
D36*
X170815000Y-85090000D02*
X167005000Y-85090000D01*
D37*
X74930000Y-78740000D02*
X73660000Y-80010000D01*
X118110000Y-78740000D02*
X116840000Y-78740000D01*
D35*
X111760000Y-78740000D02*
X116840000Y-78740000D01*
D37*
X119449990Y-80079990D02*
X118110000Y-78740000D01*
X109220000Y-80010000D02*
X110490000Y-78740000D01*
X73660000Y-80010000D02*
X48260000Y-80010000D01*
D36*
X164465000Y-82550000D02*
X162560000Y-82550000D01*
D37*
X76200000Y-78740000D02*
X74930000Y-78740000D01*
X145415000Y-78740000D02*
X144075010Y-80079990D01*
X81280000Y-78740000D02*
X82550000Y-78740000D01*
D35*
X160020000Y-82550000D02*
X162560000Y-82550000D01*
D36*
X167005000Y-85090000D02*
X164465000Y-82550000D01*
D37*
X82550000Y-78740000D02*
X83820000Y-80010000D01*
X83820000Y-80010000D02*
X109220000Y-80010000D01*
D35*
X156210000Y-78740000D02*
X160020000Y-82550000D01*
X152400000Y-78740000D02*
X156210000Y-78740000D01*
D37*
X48260000Y-80010000D02*
X46990000Y-78740000D01*
X46990000Y-78740000D02*
X45720000Y-78740000D01*
X110490000Y-78740000D02*
X111760000Y-78740000D01*
X147320000Y-78740000D02*
X145415000Y-78740000D01*
D35*
X76200000Y-78740000D02*
X81280000Y-78740000D01*
D37*
X144075010Y-80079990D02*
X119449990Y-80079990D01*
D35*
%TO.N,/L1*%
X147320000Y-81280000D02*
X152400000Y-81280000D01*
D37*
X48260000Y-82550000D02*
X46990000Y-81280000D01*
X82550000Y-81280000D02*
X83820000Y-82550000D01*
X73660000Y-82550000D02*
X48260000Y-82550000D01*
X145415000Y-81280000D02*
X144145000Y-82550000D01*
D35*
X160020000Y-85090000D02*
X162560000Y-85090000D01*
D37*
X118110000Y-81280000D02*
X116840000Y-81280000D01*
D36*
X164465000Y-85090000D02*
X162560000Y-85090000D01*
D35*
X40640000Y-81280000D02*
X45720000Y-81280000D01*
D37*
X119380000Y-82550000D02*
X118110000Y-81280000D01*
D36*
X170815000Y-87630000D02*
X167005000Y-87630000D01*
X167005000Y-87630000D02*
X164465000Y-85090000D01*
D35*
X111760000Y-81280000D02*
X116840000Y-81280000D01*
D37*
X147320000Y-81280000D02*
X145415000Y-81280000D01*
D35*
X152400000Y-81280000D02*
X156210000Y-81280000D01*
X76200000Y-81280000D02*
X81280000Y-81280000D01*
X156210000Y-81280000D02*
X160020000Y-85090000D01*
D37*
X144145000Y-82550000D02*
X119380000Y-82550000D01*
X76200000Y-81280000D02*
X74930000Y-81280000D01*
X109220000Y-82550000D02*
X110490000Y-81280000D01*
X83820000Y-82550000D02*
X109220000Y-82550000D01*
X46990000Y-81280000D02*
X45720000Y-81280000D01*
X110490000Y-81280000D02*
X111760000Y-81280000D01*
X81280000Y-81280000D02*
X82550000Y-81280000D01*
X74930000Y-81280000D02*
X73660000Y-82550000D01*
D35*
%TO.N,/L2*%
X147320000Y-83820000D02*
X152400000Y-83820000D01*
D37*
X118110000Y-83820000D02*
X116840000Y-83820000D01*
X46990000Y-83820000D02*
X45720000Y-83820000D01*
D35*
X40640000Y-83820000D02*
X45720000Y-83820000D01*
D37*
X145415000Y-83820000D02*
X144145000Y-85090000D01*
X144145000Y-85090000D02*
X119380000Y-85090000D01*
X76200000Y-83820000D02*
X74930000Y-83820000D01*
D35*
X76200000Y-83820000D02*
X81280000Y-83820000D01*
D37*
X119380000Y-85090000D02*
X118110000Y-83820000D01*
D36*
X170815000Y-90170000D02*
X167005000Y-90170000D01*
D37*
X109220000Y-85090000D02*
X110490000Y-83820000D01*
X83820000Y-85090000D02*
X109220000Y-85090000D01*
D35*
X111760000Y-83820000D02*
X116840000Y-83820000D01*
D36*
X167005000Y-90170000D02*
X164465000Y-87630000D01*
D35*
X152400000Y-83820000D02*
X156210000Y-83820000D01*
D37*
X73660000Y-85090000D02*
X48260000Y-85090000D01*
X74930000Y-83820000D02*
X73660000Y-85090000D01*
X81280000Y-83820000D02*
X82550000Y-83820000D01*
D35*
X156210000Y-83820000D02*
X160020000Y-87630000D01*
D37*
X110490000Y-83820000D02*
X111760000Y-83820000D01*
X147320000Y-83820000D02*
X145415000Y-83820000D01*
D35*
X160020000Y-87630000D02*
X162560000Y-87630000D01*
D37*
X82550000Y-83820000D02*
X83820000Y-85090000D01*
X48260000Y-85090000D02*
X46990000Y-83820000D01*
D36*
X164465000Y-87630000D02*
X162560000Y-87630000D01*
D35*
%TO.N,/L3*%
X147320000Y-86360000D02*
X152400000Y-86360000D01*
X160020000Y-90170000D02*
X162560000Y-90170000D01*
X159385000Y-89535000D02*
X160020000Y-90170000D01*
D37*
X83820000Y-87630000D02*
X109220000Y-87630000D01*
X145415000Y-86360000D02*
X144145000Y-87630000D01*
X73660000Y-87630000D02*
X48260000Y-87630000D01*
X110490000Y-86360000D02*
X111760000Y-86360000D01*
X76200000Y-86360000D02*
X74930000Y-86360000D01*
X82550000Y-86360000D02*
X83820000Y-87630000D01*
X119380000Y-87630000D02*
X118110000Y-86360000D01*
X48260000Y-87630000D02*
X46990000Y-86360000D01*
D35*
X152400000Y-86360000D02*
X156210000Y-86360000D01*
X111760000Y-86360000D02*
X116840000Y-86360000D01*
X156210000Y-86360000D02*
X159385000Y-89535000D01*
D37*
X46990000Y-86360000D02*
X45720000Y-86360000D01*
D35*
X76200000Y-86360000D02*
X81280000Y-86360000D01*
D36*
X170815000Y-92710000D02*
X167005000Y-92710000D01*
D37*
X74930000Y-86360000D02*
X73660000Y-87630000D01*
X118110000Y-86360000D02*
X116840000Y-86360000D01*
X144145000Y-87630000D02*
X119380000Y-87630000D01*
X109220000Y-87630000D02*
X110490000Y-86360000D01*
D35*
X40640000Y-86360000D02*
X45720000Y-86360000D01*
D36*
X164465000Y-90170000D02*
X162560000Y-90170000D01*
D37*
X81280000Y-86360000D02*
X82550000Y-86360000D01*
X147320000Y-86360000D02*
X145415000Y-86360000D01*
D36*
X167005000Y-92710000D02*
X164465000Y-90170000D01*
D35*
%TO.N,/L4*%
X147320000Y-88900000D02*
X152400000Y-88900000D01*
D37*
X82550000Y-88900000D02*
X83889990Y-90239990D01*
X48260000Y-90170000D02*
X73660000Y-90170000D01*
D36*
X167005000Y-95250000D02*
X164465000Y-92710000D01*
D35*
X152400000Y-88900000D02*
X156210000Y-88900000D01*
X111760000Y-88900000D02*
X116840000Y-88900000D01*
D36*
X164465000Y-92710000D02*
X162560000Y-92710000D01*
D37*
X74930000Y-88900000D02*
X76200000Y-88900000D01*
X119380000Y-90170000D02*
X118110000Y-88900000D01*
X118110000Y-88900000D02*
X116840000Y-88900000D01*
X145415000Y-88900000D02*
X144145000Y-90170000D01*
D35*
X40640000Y-88900000D02*
X45720000Y-88900000D01*
X160020000Y-92710000D02*
X162560000Y-92710000D01*
D37*
X110490000Y-88900000D02*
X111760000Y-88900000D01*
X147320000Y-88900000D02*
X145415000Y-88900000D01*
X73660000Y-90170000D02*
X74930000Y-88900000D01*
X109150010Y-90239990D02*
X110490000Y-88900000D01*
X144145000Y-90170000D02*
X119380000Y-90170000D01*
D35*
X156210000Y-88900000D02*
X160020000Y-92710000D01*
D36*
X170815000Y-95250000D02*
X167005000Y-95250000D01*
D37*
X81280000Y-88900000D02*
X82550000Y-88900000D01*
X83889990Y-90239990D02*
X109150010Y-90239990D01*
X46990000Y-88900000D02*
X48260000Y-90170000D01*
D35*
X76200000Y-88900000D02*
X81280000Y-88900000D01*
D37*
X45720000Y-88900000D02*
X46990000Y-88900000D01*
D35*
%TO.N,/L5*%
X147320000Y-91440000D02*
X152400000Y-91440000D01*
X160020000Y-95250000D02*
X162560000Y-95250000D01*
D37*
X48260000Y-92710000D02*
X46990000Y-91440000D01*
X119380000Y-92710000D02*
X118110000Y-91440000D01*
X81280000Y-91440000D02*
X82550000Y-91440000D01*
X82550000Y-91440000D02*
X83820000Y-92710000D01*
X144145000Y-92710000D02*
X119380000Y-92710000D01*
D35*
X40640000Y-91440000D02*
X45720000Y-91440000D01*
D37*
X74930000Y-91440000D02*
X73660000Y-92710000D01*
D36*
X167005000Y-97790000D02*
X164465000Y-95250000D01*
X170815000Y-97790000D02*
X167005000Y-97790000D01*
D35*
X111760000Y-91440000D02*
X116840000Y-91440000D01*
D37*
X109220000Y-92710000D02*
X110490000Y-91440000D01*
X76200000Y-91440000D02*
X74930000Y-91440000D01*
D35*
X76200000Y-91440000D02*
X81280000Y-91440000D01*
D37*
X147320000Y-91440000D02*
X145415000Y-91440000D01*
X145415000Y-91440000D02*
X144145000Y-92710000D01*
X73660000Y-92710000D02*
X48260000Y-92710000D01*
X118110000Y-91440000D02*
X116840000Y-91440000D01*
X83820000Y-92710000D02*
X109220000Y-92710000D01*
X46990000Y-91440000D02*
X45720000Y-91440000D01*
D36*
X164465000Y-95250000D02*
X162560000Y-95250000D01*
D37*
X110490000Y-91440000D02*
X111760000Y-91440000D01*
D35*
X152400000Y-91440000D02*
X156210000Y-91440000D01*
X156210000Y-91440000D02*
X160020000Y-95250000D01*
%TO.N,/L6*%
X147320000Y-93980000D02*
X152400000Y-93980000D01*
D36*
X164465000Y-97790000D02*
X162560000Y-97790000D01*
X170815000Y-100330000D02*
X167005000Y-100330000D01*
D37*
X82550000Y-93980000D02*
X83820000Y-95250000D01*
X144145000Y-95250000D02*
X145415000Y-93980000D01*
X74930000Y-93980000D02*
X73660000Y-95250000D01*
X116840000Y-93980000D02*
X118110000Y-93980000D01*
D35*
X156210000Y-93980000D02*
X160020000Y-97790000D01*
D36*
X167005000Y-100330000D02*
X164465000Y-97790000D01*
D37*
X109220000Y-95250000D02*
X110490000Y-93980000D01*
X81280000Y-93980000D02*
X82550000Y-93980000D01*
X145415000Y-93980000D02*
X147320000Y-93980000D01*
D35*
X76200000Y-93980000D02*
X81280000Y-93980000D01*
D37*
X118110000Y-93980000D02*
X119380000Y-95250000D01*
X73660000Y-95250000D02*
X48260000Y-95250000D01*
X48260000Y-95250000D02*
X46990000Y-93980000D01*
D35*
X160020000Y-97790000D02*
X162560000Y-97790000D01*
D37*
X83820000Y-95250000D02*
X109220000Y-95250000D01*
X76200000Y-93980000D02*
X74930000Y-93980000D01*
D35*
X40640000Y-93980000D02*
X45720000Y-93980000D01*
D37*
X110490000Y-93980000D02*
X111760000Y-93980000D01*
D35*
X111760000Y-93980000D02*
X116840000Y-93980000D01*
D37*
X46990000Y-93980000D02*
X45720000Y-93980000D01*
X119380000Y-95250000D02*
X144145000Y-95250000D01*
D35*
X152400000Y-93980000D02*
X156210000Y-93980000D01*
%TO.N,/L7*%
X147320000Y-96520000D02*
X152400000Y-96520000D01*
D37*
X118110000Y-96520000D02*
X119380000Y-97790000D01*
D36*
X167005000Y-102870000D02*
X164465000Y-100330000D01*
D37*
X83820000Y-97790000D02*
X109220000Y-97790000D01*
X82550000Y-96520000D02*
X83820000Y-97790000D01*
X76200000Y-96520000D02*
X74930000Y-96520000D01*
D35*
X160020000Y-100330000D02*
X162560000Y-100330000D01*
D37*
X73660000Y-97790000D02*
X48260000Y-97790000D01*
D35*
X111760000Y-96520000D02*
X116840000Y-96520000D01*
X76200000Y-96520000D02*
X81280000Y-96520000D01*
X152400000Y-96520000D02*
X156210000Y-96520000D01*
D37*
X110490000Y-96520000D02*
X111760000Y-96520000D01*
X144145000Y-97790000D02*
X145415000Y-96520000D01*
X48260000Y-97790000D02*
X46990000Y-96520000D01*
D35*
X40640000Y-96520000D02*
X45720000Y-96520000D01*
D37*
X116840000Y-96520000D02*
X118110000Y-96520000D01*
X109220000Y-97790000D02*
X110490000Y-96520000D01*
D36*
X170815000Y-102870000D02*
X167005000Y-102870000D01*
D37*
X46990000Y-96520000D02*
X45720000Y-96520000D01*
D35*
X156210000Y-96520000D02*
X160020000Y-100330000D01*
D37*
X74930000Y-96520000D02*
X73660000Y-97790000D01*
X81280000Y-96520000D02*
X82550000Y-96520000D01*
X145415000Y-96520000D02*
X147320000Y-96520000D01*
D36*
X164465000Y-100330000D02*
X162560000Y-100330000D01*
D37*
X119380000Y-97790000D02*
X144145000Y-97790000D01*
D35*
%TO.N,/H0*%
X129540000Y-78740000D02*
X134620000Y-78740000D01*
D37*
X137795000Y-78740000D02*
X134620000Y-78740000D01*
D35*
X58420000Y-78740000D02*
X63500000Y-78740000D01*
D37*
X110490000Y-77470000D02*
X118110000Y-77470000D01*
X38100000Y-77470000D02*
X36830000Y-78740000D01*
X93980000Y-78740000D02*
X83820000Y-78740000D01*
X109220000Y-78740000D02*
X110490000Y-77470000D01*
X99060000Y-78740000D02*
X109220000Y-78740000D01*
X82550000Y-77470000D02*
X74930000Y-77470000D01*
D35*
X93980000Y-78740000D02*
X99060000Y-78740000D01*
D37*
X129540000Y-78740000D02*
X119380000Y-78740000D01*
D35*
X22860000Y-78740000D02*
X27940000Y-78740000D01*
D37*
X73660000Y-78740000D02*
X63500000Y-78740000D01*
X58420000Y-78740000D02*
X48895000Y-78740000D01*
X119380000Y-78740000D02*
X118110000Y-77470000D01*
X36830000Y-78740000D02*
X27940000Y-78740000D01*
X48895000Y-78740000D02*
X47625000Y-77470000D01*
X83820000Y-78740000D02*
X82550000Y-77470000D01*
X47625000Y-77470000D02*
X38100000Y-77470000D01*
X74930000Y-77470000D02*
X73660000Y-78740000D01*
D35*
%TO.N,/H1*%
X129540000Y-81280000D02*
X134620000Y-81280000D01*
D37*
X110490000Y-80010000D02*
X109220000Y-81280000D01*
X109220000Y-81280000D02*
X99060000Y-81280000D01*
D35*
X58420000Y-81280000D02*
X63500000Y-81280000D01*
D37*
X129540000Y-81280000D02*
X119380000Y-81280000D01*
X27940000Y-81280000D02*
X36830000Y-81280000D01*
X36830000Y-81280000D02*
X38100000Y-80010000D01*
X119380000Y-81280000D02*
X118110000Y-80010000D01*
X38100000Y-80010000D02*
X46990000Y-80010000D01*
D35*
X93980000Y-81280000D02*
X99060000Y-81280000D01*
D37*
X93980000Y-81280000D02*
X83820000Y-81280000D01*
X134620000Y-81280000D02*
X137795000Y-81280000D01*
X73660000Y-81280000D02*
X63500000Y-81280000D01*
X48260000Y-81280000D02*
X58420000Y-81280000D01*
X118110000Y-80010000D02*
X110490000Y-80010000D01*
X83820000Y-81280000D02*
X82550000Y-80010000D01*
X46990000Y-80010000D02*
X48260000Y-81280000D01*
X74930000Y-80010000D02*
X73660000Y-81280000D01*
D35*
X22860000Y-81280000D02*
X27940000Y-81280000D01*
D37*
X82550000Y-80010000D02*
X74930000Y-80010000D01*
D35*
%TO.N,/H2*%
X129540000Y-83820000D02*
X134620000Y-83820000D01*
D37*
X74930000Y-82550000D02*
X73660000Y-83820000D01*
X83820000Y-83820000D02*
X82550000Y-82550000D01*
X48260000Y-83820000D02*
X58420000Y-83820000D01*
X36830000Y-83820000D02*
X38100000Y-82550000D01*
X38100000Y-82550000D02*
X46990000Y-82550000D01*
X118110000Y-82550000D02*
X119380000Y-83820000D01*
X93980000Y-83820000D02*
X83820000Y-83820000D01*
D35*
X58420000Y-83820000D02*
X63500000Y-83820000D01*
D37*
X73660000Y-83820000D02*
X63500000Y-83820000D01*
X110490000Y-82550000D02*
X118110000Y-82550000D01*
X27940000Y-83820000D02*
X36830000Y-83820000D01*
X134620000Y-83820000D02*
X137795000Y-83820000D01*
X46990000Y-82550000D02*
X48260000Y-83820000D01*
D35*
X22860000Y-83820000D02*
X27940000Y-83820000D01*
D37*
X82550000Y-82550000D02*
X74930000Y-82550000D01*
X109220000Y-83820000D02*
X110490000Y-82550000D01*
X99060000Y-83820000D02*
X109220000Y-83820000D01*
X119380000Y-83820000D02*
X129540000Y-83820000D01*
D35*
X93980000Y-83820000D02*
X99060000Y-83820000D01*
%TO.N,/H3*%
X129540000Y-86360000D02*
X134620000Y-86360000D01*
D37*
X137795000Y-86360000D02*
X134620000Y-86360000D01*
X82550000Y-85090000D02*
X83820000Y-86360000D01*
X36830000Y-86360000D02*
X38100000Y-85090000D01*
X46990000Y-85090000D02*
X48260000Y-86360000D01*
D35*
X58420000Y-86360000D02*
X63500000Y-86360000D01*
X22860000Y-86360000D02*
X27940000Y-86360000D01*
D37*
X110490000Y-85090000D02*
X109220000Y-86360000D01*
X38100000Y-85090000D02*
X46990000Y-85090000D01*
X63500000Y-86360000D02*
X73660000Y-86360000D01*
X74930000Y-85090000D02*
X82550000Y-85090000D01*
X109220000Y-86360000D02*
X99060000Y-86360000D01*
X129540000Y-86360000D02*
X119380000Y-86360000D01*
X48260000Y-86360000D02*
X58420000Y-86360000D01*
X27940000Y-86360000D02*
X36830000Y-86360000D01*
X83820000Y-86360000D02*
X93980000Y-86360000D01*
X118110000Y-85090000D02*
X110490000Y-85090000D01*
X73660000Y-86360000D02*
X74930000Y-85090000D01*
D35*
X93980000Y-86360000D02*
X99060000Y-86360000D01*
D37*
X119380000Y-86360000D02*
X118110000Y-85090000D01*
D35*
%TO.N,/H4*%
X129540000Y-88900000D02*
X134620000Y-88900000D01*
D37*
X110490000Y-87630000D02*
X109220000Y-88900000D01*
X74930000Y-87630000D02*
X73660000Y-88900000D01*
X38100000Y-87630000D02*
X46990000Y-87630000D01*
X129540000Y-88900000D02*
X119380000Y-88900000D01*
D35*
X58420000Y-88900000D02*
X63500000Y-88900000D01*
X22860000Y-88900000D02*
X27940000Y-88900000D01*
X93980000Y-88900000D02*
X99060000Y-88900000D01*
D37*
X83820000Y-88900000D02*
X82550000Y-87630000D01*
X134620000Y-88900000D02*
X137795000Y-88900000D01*
X109220000Y-88900000D02*
X99060000Y-88900000D01*
X46990000Y-87630000D02*
X48260000Y-88900000D01*
X48260000Y-88900000D02*
X58420000Y-88900000D01*
X73660000Y-88900000D02*
X63500000Y-88900000D01*
X119380000Y-88900000D02*
X118110000Y-87630000D01*
X82550000Y-87630000D02*
X74930000Y-87630000D01*
X93980000Y-88900000D02*
X83820000Y-88900000D01*
X27940000Y-88900000D02*
X36830000Y-88900000D01*
X118110000Y-87630000D02*
X110490000Y-87630000D01*
X36830000Y-88900000D02*
X38100000Y-87630000D01*
D35*
%TO.N,/H5*%
X129540000Y-91440000D02*
X134620000Y-91440000D01*
D37*
X36830000Y-91440000D02*
X27940000Y-91440000D01*
D35*
X22860000Y-91440000D02*
X27940000Y-91440000D01*
X93980000Y-91440000D02*
X99060000Y-91440000D01*
D37*
X109220000Y-91440000D02*
X99060000Y-91440000D01*
X119380000Y-91440000D02*
X118110000Y-90170000D01*
X129540000Y-91440000D02*
X119380000Y-91440000D01*
X83820000Y-91440000D02*
X82550000Y-90170000D01*
X48260000Y-91440000D02*
X46990000Y-90170000D01*
X74930000Y-90170000D02*
X73660000Y-91440000D01*
X110490000Y-90170000D02*
X109220000Y-91440000D01*
X118110000Y-90170000D02*
X110490000Y-90170000D01*
X38100000Y-90170000D02*
X36830000Y-91440000D01*
X134620000Y-91440000D02*
X137795000Y-91440000D01*
D35*
X58420000Y-91440000D02*
X63500000Y-91440000D01*
D37*
X82550000Y-90170000D02*
X74930000Y-90170000D01*
X73660000Y-91440000D02*
X63500000Y-91440000D01*
X46990000Y-90170000D02*
X38100000Y-90170000D01*
X58420000Y-91440000D02*
X48260000Y-91440000D01*
X93980000Y-91440000D02*
X83820000Y-91440000D01*
D35*
%TO.N,/H6*%
X129540000Y-93980000D02*
X134620000Y-93980000D01*
D37*
X110490000Y-92710000D02*
X109220000Y-93980000D01*
X83820000Y-93980000D02*
X82550000Y-92710000D01*
X74930000Y-92710000D02*
X73660000Y-93980000D01*
X134620000Y-93980000D02*
X137795000Y-93980000D01*
D35*
X58420000Y-93980000D02*
X63500000Y-93980000D01*
D37*
X118110000Y-92710000D02*
X110490000Y-92710000D01*
X73660000Y-93980000D02*
X63500000Y-93980000D01*
X48260000Y-93980000D02*
X46990000Y-92710000D01*
X109220000Y-93980000D02*
X99060000Y-93980000D01*
X46990000Y-92710000D02*
X38100000Y-92710000D01*
X129540000Y-93980000D02*
X119380000Y-93980000D01*
X93980000Y-93980000D02*
X83820000Y-93980000D01*
X36830000Y-93980000D02*
X27940000Y-93980000D01*
X119380000Y-93980000D02*
X118110000Y-92710000D01*
X82550000Y-92710000D02*
X74930000Y-92710000D01*
X38100000Y-92710000D02*
X36830000Y-93980000D01*
D35*
X22860000Y-93980000D02*
X27940000Y-93980000D01*
D37*
X58420000Y-93980000D02*
X48260000Y-93980000D01*
D35*
X93980000Y-93980000D02*
X99060000Y-93980000D01*
%TO.N,/H7*%
X129540000Y-96520000D02*
X134620000Y-96520000D01*
D37*
X48260000Y-96520000D02*
X46990000Y-95250000D01*
X83820000Y-96520000D02*
X82550000Y-95250000D01*
X38100000Y-95250000D02*
X36830000Y-96520000D01*
X82550000Y-95250000D02*
X74930000Y-95250000D01*
X74930000Y-95250000D02*
X73660000Y-96520000D01*
D35*
X22860000Y-96520000D02*
X27940000Y-96520000D01*
D37*
X110490000Y-95250000D02*
X118110000Y-95250000D01*
D35*
X93980000Y-96520000D02*
X99060000Y-96520000D01*
D37*
X119380000Y-96520000D02*
X129540000Y-96520000D01*
X109220000Y-96520000D02*
X110490000Y-95250000D01*
X93980000Y-96520000D02*
X83820000Y-96520000D01*
X99060000Y-96520000D02*
X109220000Y-96520000D01*
D35*
X58420000Y-96520000D02*
X63500000Y-96520000D01*
D37*
X73660000Y-96520000D02*
X63500000Y-96520000D01*
X36830000Y-96520000D02*
X27940000Y-96520000D01*
X46990000Y-95250000D02*
X38100000Y-95250000D01*
X134620000Y-96520000D02*
X137795000Y-96520000D01*
X58420000Y-96520000D02*
X48260000Y-96520000D01*
X118110000Y-95250000D02*
X119380000Y-96520000D01*
D35*
%TO.N,/R0.7*%
X147320000Y-43180000D02*
X152400000Y-43180000D01*
%TO.N,/R0.6*%
X147320000Y-45720000D02*
X152400000Y-45720000D01*
D37*
%TO.N,/R0.5*%
X143510000Y-40005000D02*
X142875000Y-39370000D01*
X143510000Y-45720000D02*
X143510000Y-40005000D01*
D35*
X147320000Y-48260000D02*
X152400000Y-48260000D01*
D37*
X146050000Y-48260000D02*
X143510000Y-45720000D01*
X142875000Y-39370000D02*
X140970000Y-39370000D01*
X147320000Y-48260000D02*
X146050000Y-48260000D01*
%TO.N,/R0.4*%
X147320000Y-50800000D02*
X146050000Y-50800000D01*
D35*
X147320000Y-50800000D02*
X152400000Y-50800000D01*
D37*
X142240000Y-46990000D02*
X140970000Y-46990000D01*
X146050000Y-50800000D02*
X142240000Y-46990000D01*
%TO.N,/R0.3*%
X140970000Y-54610000D02*
X144780000Y-54610000D01*
X146050000Y-53340000D02*
X147320000Y-53340000D01*
X144780000Y-54610000D02*
X146050000Y-53340000D01*
D35*
X147320000Y-53340000D02*
X152400000Y-53340000D01*
%TO.N,/R0.2*%
X147320000Y-55880000D02*
X152400000Y-55880000D01*
D37*
X140970000Y-62230000D02*
X142240000Y-62230000D01*
X142240000Y-62230000D02*
X142875000Y-61595000D01*
X142875000Y-59055000D02*
X146050000Y-55880000D01*
X142875000Y-61595000D02*
X142875000Y-59055000D01*
X146050000Y-55880000D02*
X147320000Y-55880000D01*
D35*
%TO.N,/R0.1*%
X147320000Y-58420000D02*
X152400000Y-58420000D01*
%TO.N,/R0.0*%
X147320000Y-60960000D02*
X152400000Y-60960000D01*
D36*
%TO.N,GND*%
X129540000Y-68580000D02*
X134620000Y-68580000D01*
D38*
X98742500Y-105410000D02*
X116840000Y-105410000D01*
D36*
X147320000Y-68580000D02*
X152400000Y-68580000D01*
X111760000Y-68580000D02*
X107315000Y-68580000D01*
D38*
X30480000Y-110490000D02*
X36830000Y-110490000D01*
D36*
X129540000Y-68580000D02*
X125095000Y-68580000D01*
D35*
X116840000Y-105410000D02*
X133350000Y-105410000D01*
D38*
X36830000Y-110490000D02*
X38100000Y-109220000D01*
D36*
X116840000Y-102235000D02*
X116840000Y-105410000D01*
X170815000Y-57150000D02*
X161290000Y-57150000D01*
D37*
X32385000Y-68580000D02*
X36195000Y-68580000D01*
D38*
X80010000Y-105727500D02*
X80327500Y-105410000D01*
D36*
X58420000Y-68580000D02*
X53975000Y-68580000D01*
X93980000Y-68580000D02*
X89535000Y-68580000D01*
D38*
X38100000Y-106760000D02*
X38020000Y-106680000D01*
D36*
X152400000Y-68580000D02*
X155575000Y-68580000D01*
X22860000Y-68580000D02*
X27940000Y-68580000D01*
D37*
X50165000Y-68580000D02*
X53975000Y-68580000D01*
D38*
X20955000Y-68580000D02*
X22860000Y-68580000D01*
X68580000Y-104775000D02*
X69215000Y-105410000D01*
D37*
X139065000Y-68580000D02*
X142875000Y-68580000D01*
D35*
X34610000Y-101505000D02*
X34610000Y-99060000D01*
D38*
X87630000Y-105410000D02*
X90805000Y-102235000D01*
D37*
X85725000Y-68580000D02*
X89535000Y-68580000D01*
D36*
X40640000Y-68580000D02*
X36195000Y-68580000D01*
X162560000Y-24130000D02*
X167640000Y-24130000D01*
X63500000Y-104775000D02*
X63500000Y-102245000D01*
D37*
X121285000Y-68580000D02*
X125095000Y-68580000D01*
D38*
X76517500Y-105727500D02*
X80010000Y-105727500D01*
X95567500Y-102235000D02*
X98742500Y-105410000D01*
D36*
X170815000Y-80010000D02*
X170815000Y-82550000D01*
X63500000Y-68580000D02*
X67945000Y-68580000D01*
D38*
X38100000Y-109220000D02*
X38100000Y-106760000D01*
X63500000Y-104775000D02*
X68580000Y-104775000D01*
X63500000Y-104775000D02*
X55245000Y-104775000D01*
D36*
X161290000Y-57150000D02*
X160020000Y-58420000D01*
X99060000Y-68580000D02*
X103505000Y-68580000D01*
X160020000Y-78105000D02*
X161290000Y-79375000D01*
X167640000Y-24130000D02*
X170815000Y-27305000D01*
D37*
X103505000Y-68580000D02*
X107315000Y-68580000D01*
D36*
X155575000Y-68580000D02*
X160020000Y-73025000D01*
X160020000Y-73025000D02*
X160020000Y-78105000D01*
X76200000Y-68580000D02*
X81280000Y-68580000D01*
X168275000Y-80010000D02*
X170815000Y-80010000D01*
D38*
X42545000Y-99060000D02*
X29210000Y-99060000D01*
D36*
X170815000Y-27305000D02*
X170815000Y-57150000D01*
X134620000Y-68580000D02*
X139065000Y-68580000D01*
D38*
X29210000Y-109220000D02*
X30480000Y-110490000D01*
D36*
X111760000Y-68580000D02*
X116840000Y-68580000D01*
X81280000Y-68580000D02*
X85725000Y-68580000D01*
X58420000Y-68580000D02*
X63500000Y-68580000D01*
X93980000Y-68580000D02*
X99060000Y-68580000D01*
D38*
X20002500Y-69532500D02*
X20002500Y-98742500D01*
X76200000Y-105410000D02*
X76517500Y-105727500D01*
D35*
X134620000Y-104140000D02*
X134620000Y-102235000D01*
D36*
X27940000Y-68580000D02*
X32385000Y-68580000D01*
D37*
X67945000Y-68580000D02*
X71755000Y-68580000D01*
D35*
X133350000Y-105410000D02*
X134620000Y-104140000D01*
D38*
X80327500Y-105410000D02*
X87630000Y-105410000D01*
D36*
X45720000Y-68580000D02*
X50165000Y-68580000D01*
X162560000Y-24130000D02*
X162560000Y-26670000D01*
D38*
X90805000Y-102235000D02*
X95567500Y-102235000D01*
D36*
X160020000Y-64135000D02*
X155575000Y-68580000D01*
D38*
X20002500Y-98742500D02*
X20320000Y-99060000D01*
X45720000Y-102235000D02*
X42545000Y-99060000D01*
X20320000Y-99060000D02*
X29210000Y-99060000D01*
X20002500Y-69532500D02*
X20955000Y-68580000D01*
X29210000Y-99060000D02*
X29210000Y-109220000D01*
D36*
X76200000Y-68580000D02*
X71755000Y-68580000D01*
X40640000Y-68580000D02*
X45720000Y-68580000D01*
X116840000Y-68580000D02*
X121285000Y-68580000D01*
D38*
X69215000Y-105410000D02*
X76200000Y-105410000D01*
X55245000Y-104775000D02*
X52705000Y-102235000D01*
D36*
X147320000Y-68580000D02*
X142875000Y-68580000D01*
X160020000Y-58420000D02*
X160020000Y-64135000D01*
X161290000Y-79375000D02*
X167640000Y-79375000D01*
D38*
X52705000Y-102235000D02*
X45720000Y-102235000D01*
D36*
X167640000Y-79375000D02*
X168275000Y-80010000D01*
D35*
%TO.N,/R1.7*%
X129540000Y-43180000D02*
X134620000Y-43180000D01*
%TO.N,/R1.6*%
X129540000Y-45720000D02*
X134620000Y-45720000D01*
D37*
%TO.N,/R1.5*%
X128270000Y-48260000D02*
X129540000Y-48260000D01*
D35*
X129540000Y-48260000D02*
X134620000Y-48260000D01*
D37*
X125730000Y-45720000D02*
X128270000Y-48260000D01*
X123190000Y-39370000D02*
X125095000Y-39370000D01*
X125095000Y-39370000D02*
X125730000Y-40005000D01*
X125730000Y-40005000D02*
X125730000Y-45720000D01*
%TO.N,/R1.4*%
X123190000Y-46990000D02*
X124460000Y-46990000D01*
X124460000Y-46990000D02*
X128270000Y-50800000D01*
X128270000Y-50800000D02*
X129540000Y-50800000D01*
D35*
X129540000Y-50800000D02*
X134620000Y-50800000D01*
D37*
%TO.N,/R1.3*%
X128270000Y-53340000D02*
X129540000Y-53340000D01*
X127000000Y-54610000D02*
X128270000Y-53340000D01*
D35*
X129540000Y-53340000D02*
X134620000Y-53340000D01*
D37*
X123190000Y-54610000D02*
X127000000Y-54610000D01*
%TO.N,/R1.2*%
X125095000Y-61595000D02*
X124460000Y-62230000D01*
X125095000Y-59055000D02*
X125095000Y-61595000D01*
X124460000Y-62230000D02*
X123190000Y-62230000D01*
X129540000Y-55880000D02*
X128270000Y-55880000D01*
D35*
X129540000Y-55880000D02*
X134620000Y-55880000D01*
D37*
X128270000Y-55880000D02*
X125095000Y-59055000D01*
D35*
%TO.N,/R1.1*%
X129540000Y-58420000D02*
X134620000Y-58420000D01*
%TO.N,/R1.0*%
X129540000Y-60960000D02*
X134620000Y-60960000D01*
%TO.N,/R2.7*%
X111760000Y-43180000D02*
X116840000Y-43180000D01*
%TO.N,/R2.6*%
X111760000Y-45720000D02*
X116840000Y-45720000D01*
%TO.N,/R2.5*%
X111760000Y-48260000D02*
X116840000Y-48260000D01*
D37*
%TO.N,/R2.4*%
X106680000Y-46990000D02*
X110490000Y-50800000D01*
D35*
X111760000Y-50800000D02*
X116840000Y-50800000D01*
D37*
X105410000Y-46990000D02*
X106680000Y-46990000D01*
X110490000Y-50800000D02*
X111760000Y-50800000D01*
%TO.N,/R2.3*%
X110490000Y-53340000D02*
X111760000Y-53340000D01*
X109220000Y-54610000D02*
X110490000Y-53340000D01*
X105410000Y-54610000D02*
X109220000Y-54610000D01*
D35*
X111760000Y-53340000D02*
X116840000Y-53340000D01*
D37*
%TO.N,/R2.2*%
X110490000Y-55880000D02*
X107315000Y-59055000D01*
D35*
X111760000Y-55880000D02*
X116840000Y-55880000D01*
D37*
X106680000Y-62230000D02*
X105410000Y-62230000D01*
X111760000Y-55880000D02*
X110490000Y-55880000D01*
X107315000Y-61595000D02*
X106680000Y-62230000D01*
X107315000Y-59055000D02*
X107315000Y-61595000D01*
D35*
%TO.N,/R2.1*%
X111760000Y-58420000D02*
X116840000Y-58420000D01*
%TO.N,/R2.0*%
X111760000Y-60960000D02*
X116840000Y-60960000D01*
%TO.N,/R3.7*%
X93980000Y-43180000D02*
X99060000Y-43180000D01*
%TO.N,/R3.6*%
X93980000Y-45720000D02*
X99060000Y-45720000D01*
%TO.N,/R3.5*%
X93980000Y-48260000D02*
X99060000Y-48260000D01*
D37*
X89515000Y-39350000D02*
X90170000Y-40005000D01*
X92710000Y-48260000D02*
X93980000Y-48260000D01*
X87630000Y-39350000D02*
X89515000Y-39350000D01*
X90170000Y-40005000D02*
X90170000Y-45720000D01*
X90170000Y-45720000D02*
X92710000Y-48260000D01*
%TO.N,/R3.4*%
X92710000Y-50800000D02*
X88880000Y-46970000D01*
X93980000Y-50800000D02*
X92710000Y-50800000D01*
X88880000Y-46970000D02*
X87630000Y-46970000D01*
D35*
X93980000Y-50800000D02*
X99060000Y-50800000D01*
%TO.N,/R3.3*%
X93980000Y-53340000D02*
X99060000Y-53340000D01*
D37*
X91460000Y-54590000D02*
X92710000Y-53340000D01*
X87630000Y-54590000D02*
X91460000Y-54590000D01*
X93980000Y-53340000D02*
X92710000Y-53340000D01*
D35*
%TO.N,/R3.2*%
X93980000Y-55880000D02*
X99060000Y-55880000D01*
D37*
X89535000Y-61595000D02*
X89535000Y-59055000D01*
X87630000Y-62210000D02*
X88880000Y-62210000D01*
X88900000Y-62230000D02*
X89535000Y-61595000D01*
X89535000Y-59055000D02*
X92710000Y-55880000D01*
X92710000Y-55880000D02*
X93980000Y-55880000D01*
D35*
%TO.N,/R3.1*%
X93980000Y-58420000D02*
X99060000Y-58420000D01*
%TO.N,/R3.0*%
X93980000Y-60960000D02*
X99060000Y-60960000D01*
%TO.N,/R4.7*%
X76200000Y-43180000D02*
X81280000Y-43180000D01*
%TO.N,/R4.6*%
X76200000Y-45720000D02*
X81280000Y-45720000D01*
D37*
%TO.N,/R4.5*%
X69850000Y-39370000D02*
X71755000Y-39370000D01*
X71755000Y-39370000D02*
X72390000Y-40005000D01*
X72390000Y-40005000D02*
X72390000Y-45720000D01*
D35*
X76200000Y-48260000D02*
X81280000Y-48260000D01*
D37*
X72390000Y-45720000D02*
X74930000Y-48260000D01*
X74930000Y-48260000D02*
X76200000Y-48260000D01*
%TO.N,/R4.4*%
X74930000Y-50800000D02*
X71120000Y-46990000D01*
D35*
X76200000Y-50800000D02*
X81280000Y-50800000D01*
D37*
X76200000Y-50800000D02*
X74930000Y-50800000D01*
X71120000Y-46990000D02*
X69850000Y-46990000D01*
%TO.N,/R4.3*%
X73660000Y-54610000D02*
X74930000Y-53340000D01*
X69850000Y-54610000D02*
X73660000Y-54610000D01*
D35*
X76200000Y-53340000D02*
X81280000Y-53340000D01*
D37*
X74930000Y-53340000D02*
X76200000Y-53340000D01*
%TO.N,/R4.2*%
X71120000Y-62230000D02*
X69850000Y-62230000D01*
X71755000Y-59055000D02*
X71755000Y-61595000D01*
D35*
X76200000Y-55880000D02*
X81280000Y-55880000D01*
D37*
X74930000Y-55880000D02*
X71755000Y-59055000D01*
X76200000Y-55880000D02*
X74930000Y-55880000D01*
X71755000Y-61595000D02*
X71120000Y-62230000D01*
D35*
%TO.N,/R4.1*%
X76200000Y-58420000D02*
X81280000Y-58420000D01*
%TO.N,/R4.0*%
X76200000Y-60960000D02*
X81280000Y-60960000D01*
%TO.N,/R5.7*%
X58420000Y-43180000D02*
X63500000Y-43180000D01*
%TO.N,/R5.6*%
X58420000Y-45720000D02*
X63500000Y-45720000D01*
%TO.N,/R5.5*%
X58420000Y-48260000D02*
X63500000Y-48260000D01*
D37*
X53975000Y-39370000D02*
X54610000Y-40005000D01*
X54610000Y-40005000D02*
X54610000Y-45720000D01*
X54610000Y-45720000D02*
X57150000Y-48260000D01*
X57150000Y-48260000D02*
X58420000Y-48260000D01*
X52070000Y-39370000D02*
X53975000Y-39370000D01*
%TO.N,/R5.4*%
X57150000Y-50800000D02*
X58420000Y-50800000D01*
D35*
X58420000Y-50800000D02*
X63500000Y-50800000D01*
D37*
X52070000Y-46990000D02*
X53340000Y-46990000D01*
X53340000Y-46990000D02*
X57150000Y-50800000D01*
%TO.N,/R5.3*%
X55880000Y-54610000D02*
X52070000Y-54610000D01*
D35*
X58420000Y-53340000D02*
X63500000Y-53340000D01*
D37*
X58420000Y-53340000D02*
X57150000Y-53340000D01*
X57150000Y-53340000D02*
X55880000Y-54610000D01*
%TO.N,/R5.2*%
X53975000Y-59055000D02*
X57150000Y-55880000D01*
D35*
X58420000Y-55880000D02*
X63500000Y-55880000D01*
D37*
X53975000Y-61595000D02*
X53975000Y-59055000D01*
X57150000Y-55880000D02*
X58420000Y-55880000D01*
X53340000Y-62230000D02*
X53975000Y-61595000D01*
X52070000Y-62230000D02*
X53340000Y-62230000D01*
D35*
%TO.N,/R5.1*%
X58420000Y-58420000D02*
X63500000Y-58420000D01*
%TO.N,/R5.0*%
X58420000Y-60960000D02*
X63500000Y-60960000D01*
%TO.N,/R6.7*%
X40640000Y-43180000D02*
X45720000Y-43180000D01*
%TO.N,/R6.6*%
X40640000Y-45720000D02*
X45720000Y-45720000D01*
%TO.N,/R6.5*%
X40640000Y-48260000D02*
X45720000Y-48260000D01*
D37*
X34290000Y-39370000D02*
X36195000Y-39370000D01*
X39370000Y-48260000D02*
X40640000Y-48260000D01*
X36830000Y-45720000D02*
X39370000Y-48260000D01*
X36830000Y-40005000D02*
X36830000Y-45720000D01*
X36195000Y-39370000D02*
X36830000Y-40005000D01*
%TO.N,/R6.4*%
X35560000Y-46990000D02*
X39370000Y-50800000D01*
D35*
X40640000Y-50800000D02*
X45720000Y-50800000D01*
D37*
X39370000Y-50800000D02*
X40640000Y-50800000D01*
X34290000Y-46990000D02*
X35560000Y-46990000D01*
D35*
%TO.N,/R6.3*%
X40640000Y-53340000D02*
X45720000Y-53340000D01*
D37*
X39370000Y-53340000D02*
X40640000Y-53340000D01*
X34290000Y-54610000D02*
X38100000Y-54610000D01*
X38100000Y-54610000D02*
X39370000Y-53340000D01*
D35*
%TO.N,/R6.2*%
X40640000Y-55880000D02*
X45720000Y-55880000D01*
D37*
X39370000Y-55880000D02*
X36195000Y-59055000D01*
X36195000Y-59055000D02*
X36195000Y-61595000D01*
X36195000Y-61595000D02*
X35560000Y-62230000D01*
X40640000Y-55880000D02*
X39370000Y-55880000D01*
X35560000Y-62230000D02*
X34290000Y-62230000D01*
D35*
%TO.N,/R6.1*%
X40640000Y-58420000D02*
X45720000Y-58420000D01*
%TO.N,/R6.0*%
X40640000Y-60960000D02*
X45720000Y-60960000D01*
%TO.N,/R7.7*%
X22860000Y-43180000D02*
X27940000Y-43180000D01*
%TO.N,/R7.6*%
X22860000Y-45720000D02*
X27940000Y-45720000D01*
D37*
%TO.N,/R7.5*%
X19685000Y-46355000D02*
X19685000Y-40005000D01*
X22860000Y-48260000D02*
X21590000Y-48260000D01*
D35*
X22860000Y-48260000D02*
X27940000Y-48260000D01*
D37*
X19685000Y-46355000D02*
X21590000Y-48260000D01*
X19685000Y-40005000D02*
X19050000Y-39370000D01*
X19050000Y-39370000D02*
X16510000Y-39370000D01*
%TO.N,/R7.4*%
X21590000Y-50800000D02*
X22860000Y-50800000D01*
D35*
X22860000Y-50800000D02*
X27940000Y-50800000D01*
D37*
X17780000Y-46990000D02*
X21590000Y-50800000D01*
X16510000Y-46990000D02*
X17780000Y-46990000D01*
%TO.N,/R7.3*%
X16510000Y-54610000D02*
X20320000Y-54610000D01*
X21590000Y-53340000D02*
X22860000Y-53340000D01*
X20320000Y-54610000D02*
X21590000Y-53340000D01*
D35*
X22860000Y-53340000D02*
X27940000Y-53340000D01*
D37*
%TO.N,/R7.2*%
X18415000Y-59055000D02*
X18415000Y-61595000D01*
D35*
X22860000Y-55880000D02*
X27940000Y-55880000D01*
D37*
X18415000Y-59055000D02*
X21590000Y-55880000D01*
X21590000Y-55880000D02*
X22860000Y-55880000D01*
X18415000Y-61595000D02*
X17780000Y-62230000D01*
X17780000Y-62230000D02*
X16510000Y-62230000D01*
D35*
%TO.N,/R7.1*%
X22860000Y-58420000D02*
X27940000Y-58420000D01*
%TO.N,/R7.0*%
X22860000Y-60960000D02*
X27940000Y-60960000D01*
D36*
%TO.N,VCC*%
X129540000Y-66040000D02*
X134620000Y-66040000D01*
D38*
X95885000Y-110807500D02*
X90805000Y-110807500D01*
D36*
X58420000Y-66040000D02*
X53975000Y-66040000D01*
D35*
X156527500Y-32067500D02*
X156527500Y-37782500D01*
D36*
X40640000Y-66040000D02*
X36195000Y-66040000D01*
D38*
X67310000Y-106680000D02*
X53340000Y-106680000D01*
X51435000Y-104775000D02*
X43180000Y-104775000D01*
D36*
X63500000Y-66040000D02*
X67945000Y-66040000D01*
X45720000Y-66040000D02*
X50165000Y-66040000D01*
D35*
X154305000Y-66040000D02*
X152400000Y-66040000D01*
D37*
X139065000Y-66040000D02*
X142875000Y-66040000D01*
D38*
X38370000Y-101552500D02*
X39957500Y-101552500D01*
X86677500Y-107315000D02*
X86995000Y-107315000D01*
X67945000Y-107315000D02*
X67310000Y-106680000D01*
D37*
X85725000Y-66040000D02*
X89535000Y-66040000D01*
D38*
X86995000Y-107315000D02*
X87312500Y-107315000D01*
X69215000Y-107315000D02*
X67945000Y-107315000D01*
D37*
X67945000Y-66040000D02*
X71755000Y-66040000D01*
D38*
X88582500Y-108585000D02*
X90805000Y-110807500D01*
X41910000Y-103505000D02*
X43180000Y-104775000D01*
X53340000Y-106680000D02*
X51435000Y-104775000D01*
D36*
X76200000Y-66040000D02*
X71755000Y-66040000D01*
X116840000Y-66040000D02*
X121285000Y-66040000D01*
X93980000Y-66040000D02*
X99060000Y-66040000D01*
X58420000Y-66040000D02*
X63500000Y-66040000D01*
X134620000Y-107950000D02*
X134620000Y-109855000D01*
X78740000Y-107315000D02*
X78740000Y-109865000D01*
X27940000Y-66040000D02*
X32385000Y-66040000D01*
D38*
X43180000Y-66272500D02*
X43180000Y-64135000D01*
X87312500Y-107315000D02*
X88582500Y-108585000D01*
D37*
X50165000Y-66040000D02*
X53975000Y-66040000D01*
D38*
X98742500Y-107950000D02*
X95885000Y-110807500D01*
D36*
X147320000Y-66040000D02*
X152400000Y-66040000D01*
D38*
X39957500Y-101552500D02*
X41910000Y-103505000D01*
X86677500Y-107315000D02*
X69215000Y-107315000D01*
D36*
X40640000Y-66040000D02*
X45720000Y-66040000D01*
D37*
X121285000Y-66040000D02*
X125095000Y-66040000D01*
X103505000Y-66040000D02*
X107315000Y-66040000D01*
D36*
X147320000Y-66040000D02*
X142875000Y-66040000D01*
X111760000Y-66040000D02*
X107315000Y-66040000D01*
X93980000Y-66040000D02*
X89535000Y-66040000D01*
D35*
X156527500Y-37782500D02*
X156527500Y-63817500D01*
X159385000Y-29210000D02*
X156527500Y-32067500D01*
D36*
X99060000Y-66040000D02*
X103505000Y-66040000D01*
D35*
X156527500Y-63817500D02*
X154305000Y-66040000D01*
X46990000Y-108585000D02*
X46990000Y-104775000D01*
D36*
X129540000Y-66040000D02*
X125095000Y-66040000D01*
X111760000Y-66040000D02*
X116840000Y-66040000D01*
X134620000Y-66040000D02*
X139065000Y-66040000D01*
D35*
X36510000Y-101552500D02*
X38370000Y-101552500D01*
D38*
X134620000Y-107950000D02*
X98742500Y-107950000D01*
D36*
X76200000Y-66040000D02*
X81280000Y-66040000D01*
D37*
X32385000Y-66040000D02*
X36195000Y-66040000D01*
D36*
X22860000Y-66040000D02*
X27940000Y-66040000D01*
X81280000Y-66040000D02*
X85725000Y-66040000D01*
D35*
X162560000Y-29210000D02*
X159385000Y-29210000D01*
%TO.N,/~{R0}*%
X147320000Y-30480000D02*
X152400000Y-30480000D01*
X129540000Y-30480000D02*
X132080000Y-30480000D01*
X144780000Y-27940000D02*
X147320000Y-30480000D01*
X137160000Y-27940000D02*
X144780000Y-27940000D01*
X134620000Y-30480000D02*
X137160000Y-27940000D01*
X132080000Y-30480000D02*
X134620000Y-30480000D01*
%TO.N,/~{L}*%
X149860000Y-33020000D02*
X152400000Y-33020000D01*
X111760000Y-33020000D02*
X116840000Y-33020000D01*
D37*
X72390000Y-30480000D02*
X74930000Y-33020000D01*
X66040000Y-31750000D02*
X67310000Y-30480000D01*
X116840000Y-33020000D02*
X118745000Y-33020000D01*
X48260000Y-33020000D02*
X45720000Y-33020000D01*
D35*
X40640000Y-33020000D02*
X45720000Y-33020000D01*
D37*
X138747500Y-30480000D02*
X142875000Y-30480000D01*
X102235000Y-31819990D02*
X91440000Y-31819990D01*
X67310000Y-30480000D02*
X72390000Y-30480000D01*
X90170000Y-30549990D02*
X90170000Y-30480000D01*
X83185000Y-33020000D02*
X81280000Y-33020000D01*
X103435010Y-33020000D02*
X102235000Y-31819990D01*
D35*
X147320000Y-33020000D02*
X149860000Y-33020000D01*
D37*
X135890000Y-31750000D02*
X137160000Y-30480000D01*
X137160000Y-30480000D02*
X138747500Y-30480000D01*
X55245000Y-31750000D02*
X53975000Y-30480000D01*
X142875000Y-30480000D02*
X145415000Y-33020000D01*
X127635000Y-31750000D02*
X135890000Y-31750000D01*
D35*
X76200000Y-33020000D02*
X78740000Y-33020000D01*
D37*
X53975000Y-30480000D02*
X50800000Y-30480000D01*
X121285000Y-30480000D02*
X126365000Y-30480000D01*
X145415000Y-33020000D02*
X147320000Y-33020000D01*
X50800000Y-30480000D02*
X48260000Y-33020000D01*
X126365000Y-30480000D02*
X127635000Y-31750000D01*
X91440000Y-31819990D02*
X90170000Y-30549990D01*
D35*
X78740000Y-33020000D02*
X81280000Y-33020000D01*
D37*
X111760000Y-33020000D02*
X103435010Y-33020000D01*
X85725000Y-30480000D02*
X83185000Y-33020000D01*
X76200000Y-33020000D02*
X74930000Y-33020000D01*
X90170000Y-30480000D02*
X85725000Y-30480000D01*
X118745000Y-33020000D02*
X121285000Y-30480000D01*
X66040000Y-31750000D02*
X55245000Y-31750000D01*
D35*
%TO.N,/~{Res}*%
X109220000Y-73660000D02*
X134620000Y-73660000D01*
X22860000Y-73660000D02*
X83820000Y-73660000D01*
X147320000Y-73660000D02*
X152400000Y-73660000D01*
X134620000Y-73660000D02*
X147320000Y-73660000D01*
X83820000Y-73660000D02*
X109220000Y-73660000D01*
D37*
%TO.N,/~{H}*%
X107950000Y-35560000D02*
X109220000Y-34290000D01*
X85725000Y-33020000D02*
X93980000Y-33020000D01*
X48895000Y-34290000D02*
X38735000Y-34290000D01*
D35*
X93980000Y-33020000D02*
X99060000Y-33020000D01*
X22860000Y-33020000D02*
X27940000Y-33020000D01*
D37*
X58420000Y-33020000D02*
X50165000Y-33020000D01*
X99060000Y-33020000D02*
X100965000Y-33020000D01*
X121285000Y-33020000D02*
X129540000Y-33020000D01*
X50165000Y-33020000D02*
X48895000Y-34290000D01*
X74295000Y-34290000D02*
X84455000Y-34290000D01*
X37465000Y-33020000D02*
X27940000Y-33020000D01*
X38735000Y-34290000D02*
X37465000Y-33020000D01*
X100965000Y-33020000D02*
X103505000Y-35560000D01*
X109220000Y-34290000D02*
X120015000Y-34290000D01*
X120015000Y-34290000D02*
X121285000Y-33020000D01*
X63500000Y-33020000D02*
X73025000Y-33020000D01*
X103505000Y-35560000D02*
X107950000Y-35560000D01*
D35*
X60960000Y-33020000D02*
X63500000Y-33020000D01*
X58420000Y-33020000D02*
X60960000Y-33020000D01*
D37*
X73025000Y-33020000D02*
X74295000Y-34290000D01*
X84455000Y-34290000D02*
X85725000Y-33020000D01*
D35*
X129540000Y-33020000D02*
X134620000Y-33020000D01*
%TO.N,/~{R1}*%
X99060000Y-30480000D02*
X111760000Y-30480000D01*
X111760000Y-30480000D02*
X116840000Y-30480000D01*
X93980000Y-30480000D02*
X99060000Y-30480000D01*
%TO.N,/~{R2}*%
X76200000Y-30480000D02*
X81280000Y-30480000D01*
D37*
X118745000Y-99060000D02*
X85725000Y-99060000D01*
D35*
X64770000Y-30480000D02*
X67310000Y-27940000D01*
X67310000Y-27940000D02*
X72390000Y-27940000D01*
D37*
X121920000Y-100330000D02*
X120650000Y-99060000D01*
X121920000Y-102235000D02*
X121920000Y-100330000D01*
D35*
X63500000Y-30480000D02*
X64770000Y-30480000D01*
X58420000Y-30480000D02*
X63500000Y-30480000D01*
X72390000Y-27940000D02*
X74930000Y-30480000D01*
D37*
X120650000Y-99060000D02*
X118745000Y-99060000D01*
D35*
X74930000Y-30480000D02*
X76200000Y-30480000D01*
D37*
%TO.N,/~{R3}*%
X83185000Y-100330000D02*
X81915000Y-99060000D01*
X81915000Y-99060000D02*
X51435000Y-99060000D01*
D35*
X29210000Y-30480000D02*
X31750000Y-27940000D01*
D37*
X51435000Y-99060000D02*
X50800000Y-99695000D01*
D35*
X40640000Y-30480000D02*
X45720000Y-30480000D01*
D37*
X50800000Y-99695000D02*
X48895000Y-99695000D01*
D35*
X27940000Y-30480000D02*
X29210000Y-30480000D01*
D37*
X119380000Y-102235000D02*
X119380000Y-100965000D01*
X118745000Y-100330000D02*
X83185000Y-100330000D01*
D35*
X36830000Y-27940000D02*
X39370000Y-30480000D01*
D37*
X119380000Y-100965000D02*
X118745000Y-100330000D01*
D35*
X39370000Y-30480000D02*
X40640000Y-30480000D01*
X31750000Y-27940000D02*
X36830000Y-27940000D01*
X22860000Y-30480000D02*
X27940000Y-30480000D01*
D37*
%TO.N,/DST[2]*%
X140335000Y-102235000D02*
X140335000Y-104775000D01*
X129540000Y-102235000D02*
X129540000Y-100330000D01*
X130175000Y-99695000D02*
X137795000Y-99695000D01*
X137795000Y-99695000D02*
X140335000Y-102235000D01*
X129540000Y-100330000D02*
X130175000Y-99695000D01*
%TO.N,/DST[1]*%
X137795000Y-101600000D02*
X137795000Y-106680000D01*
X132080000Y-100965000D02*
X132649000Y-100396000D01*
X136591000Y-100396000D02*
X137795000Y-101600000D01*
X132080000Y-102235000D02*
X132080000Y-100965000D01*
X137795000Y-106680000D02*
X138430000Y-107315000D01*
X138430000Y-107315000D02*
X140335000Y-107315000D01*
X132649000Y-100396000D02*
X136591000Y-100396000D01*
%TO.N,/DST[0]*%
X140335000Y-111298000D02*
X140254000Y-111379000D01*
X129540000Y-109855000D02*
X129540000Y-111298000D01*
X140335000Y-109855000D02*
X140335000Y-111298000D01*
X129621000Y-111379000D02*
X140254000Y-111379000D01*
X129540000Y-111298000D02*
X129621000Y-111379000D01*
%TO.N,/~{MUL}*%
X73660000Y-109865000D02*
X76200000Y-109865000D01*
X82550000Y-109855000D02*
X82550000Y-111379000D01*
X76200000Y-111288000D02*
X76291000Y-111379000D01*
X84772500Y-109585000D02*
X84090000Y-109585000D01*
X83820000Y-109855000D02*
X82550000Y-109855000D01*
X76291000Y-111379000D02*
X82550000Y-111379000D01*
X76200000Y-109865000D02*
X76200000Y-111288000D01*
X84090000Y-109585000D02*
X83820000Y-109855000D01*
%TO.N,/Latch*%
X81280000Y-102235000D02*
X83185000Y-102235000D01*
X76200000Y-100330000D02*
X76200000Y-102245000D01*
X80645000Y-100330000D02*
X81280000Y-100965000D01*
X71120000Y-102245000D02*
X71120000Y-100330000D01*
X81280000Y-100965000D02*
X81280000Y-102235000D01*
X71120000Y-100330000D02*
X76200000Y-100330000D01*
X76200000Y-100330000D02*
X80645000Y-100330000D01*
D35*
%TO.N,Net-(D1-K)*%
X51975000Y-108585000D02*
X49530000Y-108585000D01*
X53245000Y-109855000D02*
X53880000Y-109855000D01*
X51975000Y-108585000D02*
X53245000Y-109855000D01*
D36*
%TO.N,/ALU_H7*%
X162560000Y-77470000D02*
X170815000Y-77470000D01*
%TO.N,/ALU_H0*%
X162560000Y-59690000D02*
X170815000Y-59690000D01*
D37*
%TO.N,/~{Bank0}*%
X65405000Y-35560000D02*
X65405000Y-35560000D01*
X118745000Y-35560000D02*
X116840000Y-35560000D01*
X83185000Y-35560000D02*
X83185000Y-35560000D01*
D35*
X100965000Y-35560000D02*
X100965000Y-35560000D01*
D37*
X100965000Y-39370000D02*
X96520000Y-39370000D01*
X50165000Y-38100000D02*
X48895000Y-39370000D01*
X63500000Y-35560000D02*
X65405000Y-35560000D01*
X95250000Y-38100000D02*
X83185000Y-38100000D01*
X66040000Y-109865000D02*
X68580000Y-109865000D01*
X152400000Y-35560000D02*
X150495000Y-35560000D01*
X56515000Y-39370000D02*
X55245000Y-38100000D01*
X29845000Y-35560000D02*
X27940000Y-35560000D01*
X126365000Y-34290000D02*
X132080000Y-34290000D01*
X96520000Y-39370000D02*
X95250000Y-38100000D01*
X81280000Y-35560000D02*
X83185000Y-35560000D01*
X59690000Y-109855000D02*
X59690000Y-108585000D01*
X142240000Y-33051000D02*
X139731000Y-33051000D01*
X150495000Y-35560000D02*
X149225000Y-34290000D01*
X100965000Y-39370000D02*
X102870000Y-39370000D01*
X104140000Y-40640000D02*
X112395000Y-40640000D01*
X66040000Y-108585000D02*
X66040000Y-109865000D01*
X59690000Y-108585000D02*
X60325000Y-107950000D01*
X83185000Y-38100000D02*
X68580000Y-38100000D01*
X133350000Y-35560000D02*
X134620000Y-35560000D01*
X68580000Y-38100000D02*
X67310000Y-39370000D01*
X137160000Y-35560000D02*
X134620000Y-35560000D01*
X83185000Y-39370000D02*
X83185000Y-38100000D01*
X139700000Y-33020000D02*
X137160000Y-35560000D01*
X112395000Y-40640000D02*
X113665000Y-39370000D01*
X139731000Y-33051000D02*
X139700000Y-33020000D01*
X132080000Y-34290000D02*
X133350000Y-35560000D01*
X125095000Y-35560000D02*
X126365000Y-34290000D01*
X67310000Y-39370000D02*
X56515000Y-39370000D01*
X113665000Y-39370000D02*
X118745000Y-39370000D01*
X143479000Y-34290000D02*
X142240000Y-33051000D01*
X43180000Y-35560000D02*
X45720000Y-35560000D01*
X32385000Y-38100000D02*
X29845000Y-35560000D01*
X60325000Y-107950000D02*
X65405000Y-107950000D01*
X37465000Y-38100000D02*
X32385000Y-38100000D01*
X102870000Y-39370000D02*
X104140000Y-40640000D01*
X118745000Y-35560000D02*
X125095000Y-35560000D01*
X66040000Y-108585000D02*
X65405000Y-107950000D01*
X48895000Y-39370000D02*
X38735000Y-39370000D01*
D35*
X99060000Y-35560000D02*
X100965000Y-35560000D01*
D37*
X38735000Y-39370000D02*
X37465000Y-38100000D01*
X55245000Y-38100000D02*
X50165000Y-38100000D01*
X149225000Y-34290000D02*
X143479000Y-34290000D01*
%TO.N,/~{Bank1}*%
X145415000Y-35560000D02*
X147320000Y-35560000D01*
X111760000Y-35560000D02*
X113665000Y-35560000D01*
X84455000Y-36830000D02*
X79375000Y-36830000D01*
X26035000Y-34290000D02*
X31750000Y-34290000D01*
X107315000Y-38100000D02*
X109855000Y-35560000D01*
X55880000Y-111125000D02*
X63500000Y-111125000D01*
X31750000Y-34290000D02*
X33020000Y-35560000D01*
X55880000Y-109855000D02*
X55880000Y-111125000D01*
X93980000Y-35560000D02*
X95885000Y-35560000D01*
X102235000Y-36830000D02*
X103505000Y-38100000D01*
X58420000Y-36830000D02*
X58420000Y-35560000D01*
X67310000Y-36195000D02*
X66675000Y-36830000D01*
X61595000Y-36830000D02*
X58420000Y-36830000D01*
X33020000Y-35560000D02*
X37465000Y-35560000D01*
X78105000Y-35560000D02*
X76200000Y-35560000D01*
X142875000Y-38100000D02*
X145415000Y-35560000D01*
X58420000Y-36830000D02*
X56515000Y-36830000D01*
X49530000Y-36830000D02*
X43815000Y-36830000D01*
X129540000Y-35560000D02*
X131445000Y-35560000D01*
X56515000Y-36830000D02*
X55245000Y-35560000D01*
X85725000Y-35560000D02*
X84455000Y-36830000D01*
X63500000Y-111125000D02*
X63500000Y-109865000D01*
X103505000Y-38100000D02*
X107315000Y-38100000D01*
X67945000Y-35560000D02*
X67310000Y-36195000D01*
X116205000Y-38100000D02*
X125095000Y-38100000D01*
X127635000Y-35560000D02*
X129540000Y-35560000D01*
X93980000Y-35560000D02*
X85725000Y-35560000D01*
X38735000Y-36830000D02*
X37465000Y-35560000D01*
X109855000Y-35560000D02*
X111760000Y-35560000D01*
X131445000Y-35560000D02*
X133985000Y-38100000D01*
X133985000Y-38100000D02*
X142875000Y-38100000D01*
X40640000Y-36830000D02*
X38735000Y-36830000D01*
X24765000Y-35560000D02*
X26035000Y-34290000D01*
X50800000Y-35560000D02*
X49530000Y-36830000D01*
X95885000Y-35560000D02*
X97155000Y-36830000D01*
X76200000Y-35560000D02*
X67945000Y-35560000D01*
X40640000Y-36830000D02*
X40640000Y-35560000D01*
X113665000Y-35560000D02*
X116205000Y-38100000D01*
D35*
X63490000Y-109855000D02*
X63500000Y-109865000D01*
D37*
X55245000Y-35560000D02*
X50800000Y-35560000D01*
X79375000Y-36830000D02*
X78105000Y-35560000D01*
X125095000Y-38100000D02*
X127635000Y-35560000D01*
X24765000Y-35560000D02*
X22860000Y-35560000D01*
X97155000Y-36830000D02*
X102235000Y-36830000D01*
X66675000Y-36830000D02*
X61595000Y-36830000D01*
X43815000Y-36830000D02*
X40640000Y-36830000D01*
D36*
%TO.N,Net-(J16-Pin_1)*%
X33020000Y-104140000D02*
X33020000Y-106680000D01*
X33655000Y-103505000D02*
X33020000Y-104140000D01*
D35*
X34313750Y-103505000D02*
X35536250Y-103505000D01*
D36*
X34313750Y-103505000D02*
X33655000Y-103505000D01*
%TO.N,Net-(J18-Pin_5)*%
X162560000Y-67310000D02*
X170815000Y-67310000D01*
%TO.N,Net-(J18-Pin_7)*%
X162560000Y-72390000D02*
X170815000Y-72390000D01*
%TO.N,Net-(J18-Pin_8)*%
X162560000Y-74930000D02*
X170815000Y-74930000D01*
%TO.N,Net-(J18-Pin_3)*%
X162560000Y-62230000D02*
X170815000Y-62230000D01*
%TO.N,Net-(J18-Pin_4)*%
X162560000Y-64770000D02*
X170815000Y-64770000D01*
%TO.N,Net-(J18-Pin_6)*%
X162560000Y-69850000D02*
X170815000Y-69850000D01*
D37*
%TO.N,Net-(U13B-O3)*%
X68580000Y-102245000D02*
X68580000Y-102870000D01*
X71120000Y-104140000D02*
X77470000Y-104140000D01*
X69850000Y-104140000D02*
X71120000Y-104140000D01*
X68580000Y-102870000D02*
X69850000Y-104140000D01*
%TO.N,Net-(U15-S)*%
X121285000Y-76200000D02*
X139065000Y-76200000D01*
X156210000Y-76200000D02*
X159385000Y-79375000D01*
X165100000Y-80645000D02*
X165735000Y-81280000D01*
X85090000Y-76200000D02*
X103505000Y-76200000D01*
X160655000Y-80645000D02*
X161925000Y-80645000D01*
X76200000Y-76200000D02*
X85090000Y-76200000D01*
X154305000Y-76200000D02*
X156210000Y-76200000D01*
X161925000Y-80645000D02*
X165100000Y-80645000D01*
X103505000Y-76200000D02*
X121285000Y-76200000D01*
X159385000Y-79375000D02*
X160655000Y-80645000D01*
X139065000Y-76200000D02*
X154305000Y-76200000D01*
%TD*%
M02*
