%TF.GenerationSoftware,KiCad,Pcbnew,9.0.6*%
%TF.CreationDate,2026-04-17T19:34:51+03:00*%
%TF.ProjectId,EndPlate,456e6450-6c61-4746-952e-6b696361645f,rev?*%
%TF.SameCoordinates,Original*%
%TF.FileFunction,Copper,L1,Top*%
%TF.FilePolarity,Positive*%
%FSLAX46Y46*%
G04 Gerber Fmt 4.6, Leading zero omitted, Abs format (unit mm)*
G04 Created by KiCad (PCBNEW 9.0.6) date 2026-04-17 19:34:51*
%MOMM*%
%LPD*%
G01*
G04 APERTURE LIST*
G04 Aperture macros list*
%AMRoundRect*
0 Rectangle with rounded corners*
0 $1 Rounding radius*
0 $2 $3 $4 $5 $6 $7 $8 $9 X,Y pos of 4 corners*
0 Add a 4 corners polygon primitive as box body*
4,1,4,$2,$3,$4,$5,$6,$7,$8,$9,$2,$3,0*
0 Add four circle primitives for the rounded corners*
1,1,$1+$1,$2,$3*
1,1,$1+$1,$4,$5*
1,1,$1+$1,$6,$7*
1,1,$1+$1,$8,$9*
0 Add four rect primitives between the rounded corners*
20,1,$1+$1,$2,$3,$4,$5,0*
20,1,$1+$1,$4,$5,$6,$7,0*
20,1,$1+$1,$6,$7,$8,$9,0*
20,1,$1+$1,$8,$9,$2,$3,0*%
G04 Aperture macros list end*
%ADD10C,0.500000*%
%TA.AperFunction,NonConductor*%
%ADD11C,0.500000*%
%TD*%
%ADD12C,0.300000*%
%TA.AperFunction,NonConductor*%
%ADD13C,0.300000*%
%TD*%
%TA.AperFunction,ComponentPad*%
%ADD14R,1.800000X1.500000*%
%TD*%
%TA.AperFunction,ComponentPad*%
%ADD15O,1.800000X1.500000*%
%TD*%
%TA.AperFunction,ComponentPad*%
%ADD16R,2.000000X2.000000*%
%TD*%
%TA.AperFunction,ComponentPad*%
%ADD17C,2.000000*%
%TD*%
%TA.AperFunction,ComponentPad*%
%ADD18R,1.800000X1.800000*%
%TD*%
%TA.AperFunction,ComponentPad*%
%ADD19C,1.800000*%
%TD*%
%TA.AperFunction,ComponentPad*%
%ADD20R,1.700000X1.700000*%
%TD*%
%TA.AperFunction,ComponentPad*%
%ADD21RoundRect,0.234375X-0.665625X-0.515625X0.665625X-0.515625X0.665625X0.515625X-0.665625X0.515625X0*%
%TD*%
%TA.AperFunction,ComponentPad*%
%ADD22RoundRect,0.250000X-1.050000X-1.050000X1.050000X-1.050000X1.050000X1.050000X-1.050000X1.050000X0*%
%TD*%
%TA.AperFunction,ComponentPad*%
%ADD23C,2.600000*%
%TD*%
%TA.AperFunction,ComponentPad*%
%ADD24RoundRect,0.250000X-0.650000X-0.500000X0.650000X-0.500000X0.650000X0.500000X-0.650000X0.500000X0*%
%TD*%
%TA.AperFunction,ViaPad*%
%ADD25C,1.500000*%
%TD*%
%TA.AperFunction,Conductor*%
%ADD26C,0.600000*%
%TD*%
%TA.AperFunction,Conductor*%
%ADD27C,0.500000*%
%TD*%
G04 APERTURE END LIST*
D10*
D11*
X63908232Y-81855428D02*
X64908232Y-81855428D01*
X65336804Y-83426857D02*
X63908232Y-83426857D01*
X63908232Y-83426857D02*
X63908232Y-80426857D01*
X63908232Y-80426857D02*
X65336804Y-80426857D01*
X66622518Y-81426857D02*
X66622518Y-83426857D01*
X66622518Y-81712571D02*
X66765375Y-81569714D01*
X66765375Y-81569714D02*
X67051090Y-81426857D01*
X67051090Y-81426857D02*
X67479661Y-81426857D01*
X67479661Y-81426857D02*
X67765375Y-81569714D01*
X67765375Y-81569714D02*
X67908233Y-81855428D01*
X67908233Y-81855428D02*
X67908233Y-83426857D01*
X70622519Y-83426857D02*
X70622519Y-80426857D01*
X70622519Y-83284000D02*
X70336804Y-83426857D01*
X70336804Y-83426857D02*
X69765376Y-83426857D01*
X69765376Y-83426857D02*
X69479661Y-83284000D01*
X69479661Y-83284000D02*
X69336804Y-83141142D01*
X69336804Y-83141142D02*
X69193947Y-82855428D01*
X69193947Y-82855428D02*
X69193947Y-81998285D01*
X69193947Y-81998285D02*
X69336804Y-81712571D01*
X69336804Y-81712571D02*
X69479661Y-81569714D01*
X69479661Y-81569714D02*
X69765376Y-81426857D01*
X69765376Y-81426857D02*
X70336804Y-81426857D01*
X70336804Y-81426857D02*
X70622519Y-81569714D01*
X72051090Y-83426857D02*
X72051090Y-80426857D01*
X72051090Y-80426857D02*
X73193947Y-80426857D01*
X73193947Y-80426857D02*
X73479662Y-80569714D01*
X73479662Y-80569714D02*
X73622519Y-80712571D01*
X73622519Y-80712571D02*
X73765376Y-80998285D01*
X73765376Y-80998285D02*
X73765376Y-81426857D01*
X73765376Y-81426857D02*
X73622519Y-81712571D01*
X73622519Y-81712571D02*
X73479662Y-81855428D01*
X73479662Y-81855428D02*
X73193947Y-81998285D01*
X73193947Y-81998285D02*
X72051090Y-81998285D01*
X75479662Y-83426857D02*
X75193947Y-83284000D01*
X75193947Y-83284000D02*
X75051090Y-82998285D01*
X75051090Y-82998285D02*
X75051090Y-80426857D01*
X77908234Y-83426857D02*
X77908234Y-81855428D01*
X77908234Y-81855428D02*
X77765376Y-81569714D01*
X77765376Y-81569714D02*
X77479662Y-81426857D01*
X77479662Y-81426857D02*
X76908234Y-81426857D01*
X76908234Y-81426857D02*
X76622519Y-81569714D01*
X77908234Y-83284000D02*
X77622519Y-83426857D01*
X77622519Y-83426857D02*
X76908234Y-83426857D01*
X76908234Y-83426857D02*
X76622519Y-83284000D01*
X76622519Y-83284000D02*
X76479662Y-82998285D01*
X76479662Y-82998285D02*
X76479662Y-82712571D01*
X76479662Y-82712571D02*
X76622519Y-82426857D01*
X76622519Y-82426857D02*
X76908234Y-82284000D01*
X76908234Y-82284000D02*
X77622519Y-82284000D01*
X77622519Y-82284000D02*
X77908234Y-82141142D01*
X78908234Y-81426857D02*
X80051091Y-81426857D01*
X79336805Y-80426857D02*
X79336805Y-82998285D01*
X79336805Y-82998285D02*
X79479662Y-83284000D01*
X79479662Y-83284000D02*
X79765377Y-83426857D01*
X79765377Y-83426857D02*
X80051091Y-83426857D01*
X82193948Y-83284000D02*
X81908234Y-83426857D01*
X81908234Y-83426857D02*
X81336806Y-83426857D01*
X81336806Y-83426857D02*
X81051091Y-83284000D01*
X81051091Y-83284000D02*
X80908234Y-82998285D01*
X80908234Y-82998285D02*
X80908234Y-81855428D01*
X80908234Y-81855428D02*
X81051091Y-81569714D01*
X81051091Y-81569714D02*
X81336806Y-81426857D01*
X81336806Y-81426857D02*
X81908234Y-81426857D01*
X81908234Y-81426857D02*
X82193948Y-81569714D01*
X82193948Y-81569714D02*
X82336806Y-81855428D01*
X82336806Y-81855428D02*
X82336806Y-82141142D01*
X82336806Y-82141142D02*
X80908234Y-82426857D01*
D12*
D13*
X75000225Y-86795828D02*
X74143082Y-86795828D01*
X74571653Y-86795828D02*
X74571653Y-85295828D01*
X74571653Y-85295828D02*
X74428796Y-85510114D01*
X74428796Y-85510114D02*
X74285939Y-85652971D01*
X74285939Y-85652971D02*
X74143082Y-85724400D01*
X75500224Y-85295828D02*
X76500224Y-85295828D01*
X76500224Y-85295828D02*
X75857367Y-86795828D01*
X77071652Y-86652971D02*
X77143081Y-86724400D01*
X77143081Y-86724400D02*
X77071652Y-86795828D01*
X77071652Y-86795828D02*
X77000224Y-86724400D01*
X77000224Y-86724400D02*
X77071652Y-86652971D01*
X77071652Y-86652971D02*
X77071652Y-86795828D01*
X78071653Y-85295828D02*
X78214510Y-85295828D01*
X78214510Y-85295828D02*
X78357367Y-85367257D01*
X78357367Y-85367257D02*
X78428796Y-85438685D01*
X78428796Y-85438685D02*
X78500224Y-85581542D01*
X78500224Y-85581542D02*
X78571653Y-85867257D01*
X78571653Y-85867257D02*
X78571653Y-86224400D01*
X78571653Y-86224400D02*
X78500224Y-86510114D01*
X78500224Y-86510114D02*
X78428796Y-86652971D01*
X78428796Y-86652971D02*
X78357367Y-86724400D01*
X78357367Y-86724400D02*
X78214510Y-86795828D01*
X78214510Y-86795828D02*
X78071653Y-86795828D01*
X78071653Y-86795828D02*
X77928796Y-86724400D01*
X77928796Y-86724400D02*
X77857367Y-86652971D01*
X77857367Y-86652971D02*
X77785938Y-86510114D01*
X77785938Y-86510114D02*
X77714510Y-86224400D01*
X77714510Y-86224400D02*
X77714510Y-85867257D01*
X77714510Y-85867257D02*
X77785938Y-85581542D01*
X77785938Y-85581542D02*
X77857367Y-85438685D01*
X77857367Y-85438685D02*
X77928796Y-85367257D01*
X77928796Y-85367257D02*
X78071653Y-85295828D01*
X79857367Y-85795828D02*
X79857367Y-86795828D01*
X79500224Y-85224400D02*
X79143081Y-86295828D01*
X79143081Y-86295828D02*
X80071652Y-86295828D01*
X80643080Y-86652971D02*
X80714509Y-86724400D01*
X80714509Y-86724400D02*
X80643080Y-86795828D01*
X80643080Y-86795828D02*
X80571652Y-86724400D01*
X80571652Y-86724400D02*
X80643080Y-86652971D01*
X80643080Y-86652971D02*
X80643080Y-86795828D01*
X81285938Y-85438685D02*
X81357366Y-85367257D01*
X81357366Y-85367257D02*
X81500224Y-85295828D01*
X81500224Y-85295828D02*
X81857366Y-85295828D01*
X81857366Y-85295828D02*
X82000224Y-85367257D01*
X82000224Y-85367257D02*
X82071652Y-85438685D01*
X82071652Y-85438685D02*
X82143081Y-85581542D01*
X82143081Y-85581542D02*
X82143081Y-85724400D01*
X82143081Y-85724400D02*
X82071652Y-85938685D01*
X82071652Y-85938685D02*
X81214509Y-86795828D01*
X81214509Y-86795828D02*
X82143081Y-86795828D01*
X83428795Y-85295828D02*
X83143080Y-85295828D01*
X83143080Y-85295828D02*
X83000223Y-85367257D01*
X83000223Y-85367257D02*
X82928795Y-85438685D01*
X82928795Y-85438685D02*
X82785937Y-85652971D01*
X82785937Y-85652971D02*
X82714509Y-85938685D01*
X82714509Y-85938685D02*
X82714509Y-86510114D01*
X82714509Y-86510114D02*
X82785937Y-86652971D01*
X82785937Y-86652971D02*
X82857366Y-86724400D01*
X82857366Y-86724400D02*
X83000223Y-86795828D01*
X83000223Y-86795828D02*
X83285937Y-86795828D01*
X83285937Y-86795828D02*
X83428795Y-86724400D01*
X83428795Y-86724400D02*
X83500223Y-86652971D01*
X83500223Y-86652971D02*
X83571652Y-86510114D01*
X83571652Y-86510114D02*
X83571652Y-86152971D01*
X83571652Y-86152971D02*
X83500223Y-86010114D01*
X83500223Y-86010114D02*
X83428795Y-85938685D01*
X83428795Y-85938685D02*
X83285937Y-85867257D01*
X83285937Y-85867257D02*
X83000223Y-85867257D01*
X83000223Y-85867257D02*
X82857366Y-85938685D01*
X82857366Y-85938685D02*
X82785937Y-86010114D01*
X82785937Y-86010114D02*
X82714509Y-86152971D01*
D12*
D13*
X62006653Y-85295828D02*
X63006653Y-85295828D01*
X63006653Y-85295828D02*
X62363796Y-86795828D01*
X64220939Y-85795828D02*
X64220939Y-86795828D01*
X63863796Y-85224400D02*
X63506653Y-86295828D01*
X63506653Y-86295828D02*
X64435224Y-86295828D01*
X65006652Y-86795828D02*
X65006652Y-85295828D01*
X65006652Y-86010114D02*
X65863795Y-86010114D01*
X65863795Y-86795828D02*
X65863795Y-85295828D01*
X67435224Y-86652971D02*
X67363796Y-86724400D01*
X67363796Y-86724400D02*
X67149510Y-86795828D01*
X67149510Y-86795828D02*
X67006653Y-86795828D01*
X67006653Y-86795828D02*
X66792367Y-86724400D01*
X66792367Y-86724400D02*
X66649510Y-86581542D01*
X66649510Y-86581542D02*
X66578081Y-86438685D01*
X66578081Y-86438685D02*
X66506653Y-86152971D01*
X66506653Y-86152971D02*
X66506653Y-85938685D01*
X66506653Y-85938685D02*
X66578081Y-85652971D01*
X66578081Y-85652971D02*
X66649510Y-85510114D01*
X66649510Y-85510114D02*
X66792367Y-85367257D01*
X66792367Y-85367257D02*
X67006653Y-85295828D01*
X67006653Y-85295828D02*
X67149510Y-85295828D01*
X67149510Y-85295828D02*
X67363796Y-85367257D01*
X67363796Y-85367257D02*
X67435224Y-85438685D01*
X68078081Y-86795828D02*
X68078081Y-85295828D01*
X68078081Y-85295828D02*
X68649510Y-85295828D01*
X68649510Y-85295828D02*
X68792367Y-85367257D01*
X68792367Y-85367257D02*
X68863796Y-85438685D01*
X68863796Y-85438685D02*
X68935224Y-85581542D01*
X68935224Y-85581542D02*
X68935224Y-85795828D01*
X68935224Y-85795828D02*
X68863796Y-85938685D01*
X68863796Y-85938685D02*
X68792367Y-86010114D01*
X68792367Y-86010114D02*
X68649510Y-86081542D01*
X68649510Y-86081542D02*
X68078081Y-86081542D01*
X69578081Y-85295828D02*
X69578081Y-86510114D01*
X69578081Y-86510114D02*
X69649510Y-86652971D01*
X69649510Y-86652971D02*
X69720939Y-86724400D01*
X69720939Y-86724400D02*
X69863796Y-86795828D01*
X69863796Y-86795828D02*
X70149510Y-86795828D01*
X70149510Y-86795828D02*
X70292367Y-86724400D01*
X70292367Y-86724400D02*
X70363796Y-86652971D01*
X70363796Y-86652971D02*
X70435224Y-86510114D01*
X70435224Y-86510114D02*
X70435224Y-85295828D01*
D14*
%TO.P,J14,1,Pin_1*%
%TO.N,GND*%
X104140000Y-67310000D03*
D15*
%TO.P,J14,2,Pin_2*%
%TO.N,/BDST0*%
X104140000Y-69850000D03*
%TO.P,J14,3,Pin_3*%
%TO.N,/BDST1*%
X104140000Y-72390000D03*
%TO.P,J14,4,Pin_4*%
%TO.N,/BDST2*%
X104140000Y-74930000D03*
%TO.P,J14,5,Pin_5*%
%TO.N,/BDST3*%
X104140000Y-77470000D03*
%TO.P,J14,6,Pin_6*%
%TO.N,/BDST4*%
X104140000Y-80010000D03*
%TO.P,J14,7,Pin_7*%
%TO.N,/BDST5*%
X104140000Y-82550000D03*
%TO.P,J14,8,Pin_8*%
%TO.N,/BDST6*%
X104140000Y-85090000D03*
%TO.P,J14,9,Pin_9*%
%TO.N,/BDST7*%
X104140000Y-87630000D03*
%TD*%
D16*
%TO.P,J10,1,Pin_1*%
%TO.N,/S1.0*%
X127635000Y-35560000D03*
D17*
%TO.P,J10,2,Pin_2*%
%TO.N,/S1.1*%
X127635000Y-33020000D03*
%TO.P,J10,3,Pin_3*%
%TO.N,/S1.2*%
X127635000Y-30480000D03*
%TD*%
D16*
%TO.P,J9,1,Pin_1*%
%TO.N,/S0.0*%
X127635000Y-45720000D03*
D17*
%TO.P,J9,2,Pin_2*%
%TO.N,/S0.1*%
X127635000Y-43180000D03*
%TO.P,J9,3,Pin_3*%
%TO.N,/S0.2*%
X127635000Y-40640000D03*
%TD*%
D18*
%TO.P,D6,1,K*%
%TO.N,Net-(D6-K)*%
X55340000Y-30480000D03*
D19*
%TO.P,D6,2,A*%
%TO.N,/S1.2*%
X57880000Y-30480000D03*
%TD*%
D18*
%TO.P,D4,1,K*%
%TO.N,Net-(D4-K)*%
X55340000Y-35560000D03*
D19*
%TO.P,D4,2,A*%
%TO.N,/S1.0*%
X57880000Y-35560000D03*
%TD*%
D20*
%TO.P,J15,1,Pin_1*%
%TO.N,Net-(J15-Pin_1)*%
X102235000Y-61595000D03*
%TD*%
D18*
%TO.P,D2,1,K*%
%TO.N,Net-(D2-K)*%
X55340000Y-43180000D03*
D19*
%TO.P,D2,2,A*%
%TO.N,/S0.1*%
X57880000Y-43180000D03*
%TD*%
D14*
%TO.P,J13,1,Pin_1*%
%TO.N,GND*%
X126365000Y-67310000D03*
D15*
%TO.P,J13,2,Pin_2*%
%TO.N,/BSRC0*%
X126365000Y-69850000D03*
%TO.P,J13,3,Pin_3*%
%TO.N,/BSRC1*%
X126365000Y-72390000D03*
%TO.P,J13,4,Pin_4*%
%TO.N,/BSRC2*%
X126365000Y-74930000D03*
%TO.P,J13,5,Pin_5*%
%TO.N,/BSRC3*%
X126365000Y-77470000D03*
%TO.P,J13,6,Pin_6*%
%TO.N,/BSRC4*%
X126365000Y-80010000D03*
%TO.P,J13,7,Pin_7*%
%TO.N,/BSRC5*%
X126365000Y-82550000D03*
%TO.P,J13,8,Pin_8*%
%TO.N,/BSRC6*%
X126365000Y-85090000D03*
%TO.P,J13,9,Pin_9*%
%TO.N,/BSRC7*%
X126365000Y-87630000D03*
%TD*%
D20*
%TO.P,J16,1,Pin_1*%
%TO.N,Net-(J16-Pin_1)*%
X124460000Y-61595000D03*
%TD*%
D18*
%TO.P,D1,1,K*%
%TO.N,Net-(D1-K)*%
X55340000Y-45720000D03*
D19*
%TO.P,D1,2,A*%
%TO.N,/S0.0*%
X57880000Y-45720000D03*
%TD*%
D18*
%TO.P,D5,1,K*%
%TO.N,Net-(D5-K)*%
X55340000Y-33020000D03*
D19*
%TO.P,D5,2,A*%
%TO.N,/S1.1*%
X57880000Y-33020000D03*
%TD*%
D18*
%TO.P,D3,1,K*%
%TO.N,Net-(D3-K)*%
X55340000Y-40640000D03*
D19*
%TO.P,D3,2,A*%
%TO.N,/S0.2*%
X57880000Y-40640000D03*
%TD*%
D21*
%TO.P,U2,1,A->B*%
%TO.N,Net-(U2-A->B)*%
X112395000Y-64770000D03*
D15*
%TO.P,U2,2,A0*%
%TO.N,/SRC0*%
X112395000Y-67310000D03*
%TO.P,U2,3,A1*%
%TO.N,/SRC1*%
X112395000Y-69850000D03*
%TO.P,U2,4,A2*%
%TO.N,/SRC2*%
X112395000Y-72390000D03*
%TO.P,U2,5,A3*%
%TO.N,/SRC3*%
X112395000Y-74930000D03*
%TO.P,U2,6,A4*%
%TO.N,/SRC4*%
X112395000Y-77470000D03*
%TO.P,U2,7,A5*%
%TO.N,/SRC5*%
X112395000Y-80010000D03*
%TO.P,U2,8,A6*%
%TO.N,/SRC6*%
X112395000Y-82550000D03*
%TO.P,U2,9,A7*%
%TO.N,/SRC7*%
X112395000Y-85090000D03*
%TO.P,U2,10,GND*%
%TO.N,GND*%
X112395000Y-87630000D03*
%TO.P,U2,11,B7*%
%TO.N,/BSRC7*%
X120015000Y-87630000D03*
%TO.P,U2,12,B6*%
%TO.N,/BSRC6*%
X120015000Y-85090000D03*
%TO.P,U2,13,B5*%
%TO.N,/BSRC5*%
X120015000Y-82550000D03*
%TO.P,U2,14,B4*%
%TO.N,/BSRC4*%
X120015000Y-80010000D03*
%TO.P,U2,15,B3*%
%TO.N,/BSRC3*%
X120015000Y-77470000D03*
%TO.P,U2,16,B2*%
%TO.N,/BSRC2*%
X120015000Y-74930000D03*
%TO.P,U2,17,B1*%
%TO.N,/BSRC1*%
X120015000Y-72390000D03*
%TO.P,U2,18,B0*%
%TO.N,/BSRC0*%
X120015000Y-69850000D03*
%TO.P,U2,19,CE*%
%TO.N,Net-(J16-Pin_1)*%
X120015000Y-67310000D03*
%TO.P,U2,20,VCC*%
%TO.N,VCC*%
X120015000Y-64770000D03*
%TD*%
D14*
%TO.P,J12,1,Pin_1*%
%TO.N,GND*%
X123825000Y-67310000D03*
D15*
%TO.P,J12,2,Pin_2*%
%TO.N,/BSRC0*%
X123825000Y-69850000D03*
%TO.P,J12,3,Pin_3*%
%TO.N,/BSRC1*%
X123825000Y-72390000D03*
%TO.P,J12,4,Pin_4*%
%TO.N,/BSRC2*%
X123825000Y-74930000D03*
%TO.P,J12,5,Pin_5*%
%TO.N,/BSRC3*%
X123825000Y-77470000D03*
%TO.P,J12,6,Pin_6*%
%TO.N,/BSRC4*%
X123825000Y-80010000D03*
%TO.P,J12,7,Pin_7*%
%TO.N,/BSRC5*%
X123825000Y-82550000D03*
%TO.P,J12,8,Pin_8*%
%TO.N,/BSRC6*%
X123825000Y-85090000D03*
%TO.P,J12,9,Pin_9*%
%TO.N,/BSRC7*%
X123825000Y-87630000D03*
%TD*%
D22*
%TO.P,J17,1,Pin_1*%
%TO.N,Net-(J17-Pin_1)*%
X65445000Y-70657500D03*
D23*
%TO.P,J17,2,Pin_2*%
%TO.N,GND*%
X70445000Y-70657500D03*
%TD*%
D24*
%TO.P,U1,1,A->B*%
%TO.N,Net-(U1-A->B)*%
X90170000Y-64770000D03*
D15*
%TO.P,U1,2,A0*%
%TO.N,/DST0*%
X90170000Y-67310000D03*
%TO.P,U1,3,A1*%
%TO.N,/DST1*%
X90170000Y-69850000D03*
%TO.P,U1,4,A2*%
%TO.N,/DST2*%
X90170000Y-72390000D03*
%TO.P,U1,5,A3*%
%TO.N,/DST3*%
X90170000Y-74930000D03*
%TO.P,U1,6,A4*%
%TO.N,/DST4*%
X90170000Y-77470000D03*
%TO.P,U1,7,A5*%
%TO.N,/DST5*%
X90170000Y-80010000D03*
%TO.P,U1,8,A6*%
%TO.N,/DST6*%
X90170000Y-82550000D03*
%TO.P,U1,9,A7*%
%TO.N,/DST7*%
X90170000Y-85090000D03*
%TO.P,U1,10,GND*%
%TO.N,GND*%
X90170000Y-87630000D03*
%TO.P,U1,11,B7*%
%TO.N,/BDST7*%
X97790000Y-87630000D03*
%TO.P,U1,12,B6*%
%TO.N,/BDST6*%
X97790000Y-85090000D03*
%TO.P,U1,13,B5*%
%TO.N,/BDST5*%
X97790000Y-82550000D03*
%TO.P,U1,14,B4*%
%TO.N,/BDST4*%
X97790000Y-80010000D03*
%TO.P,U1,15,B3*%
%TO.N,/BDST3*%
X97790000Y-77470000D03*
%TO.P,U1,16,B2*%
%TO.N,/BDST2*%
X97790000Y-74930000D03*
%TO.P,U1,17,B1*%
%TO.N,/BDST1*%
X97790000Y-72390000D03*
%TO.P,U1,18,B0*%
%TO.N,/BDST0*%
X97790000Y-69850000D03*
%TO.P,U1,19,CE*%
%TO.N,Net-(J15-Pin_1)*%
X97790000Y-67310000D03*
%TO.P,U1,20,VCC*%
%TO.N,VCC*%
X97790000Y-64770000D03*
%TD*%
D24*
%TO.P,J11,1,Pin_1*%
%TO.N,GND*%
X101600000Y-67310000D03*
D15*
%TO.P,J11,2,Pin_2*%
%TO.N,/BDST0*%
X101600000Y-69850000D03*
%TO.P,J11,3,Pin_3*%
%TO.N,/BDST1*%
X101600000Y-72390000D03*
%TO.P,J11,4,Pin_4*%
%TO.N,/BDST2*%
X101600000Y-74930000D03*
%TO.P,J11,5,Pin_5*%
%TO.N,/BDST3*%
X101600000Y-77470000D03*
%TO.P,J11,6,Pin_6*%
%TO.N,/BDST4*%
X101600000Y-80010000D03*
%TO.P,J11,7,Pin_7*%
%TO.N,/BDST5*%
X101600000Y-82550000D03*
%TO.P,J11,8,Pin_8*%
%TO.N,/BDST6*%
X101600000Y-85090000D03*
%TO.P,J11,9,Pin_9*%
%TO.N,/BDST7*%
X101600000Y-87630000D03*
%TD*%
D19*
%TO.P,C1,1*%
%TO.N,VCC*%
X93980000Y-71120000D03*
%TO.P,C1,2*%
%TO.N,GND*%
X93980000Y-86120000D03*
%TD*%
%TO.P,C2,1*%
%TO.N,VCC*%
X116205000Y-71240000D03*
%TO.P,C2,2*%
%TO.N,GND*%
X116205000Y-86240000D03*
%TD*%
D25*
%TO.N,VCC*%
X93980000Y-48260000D03*
X95250000Y-61595000D03*
%TD*%
D26*
%TO.N,VCC*%
X93980000Y-53975000D02*
X95250000Y-55245000D01*
X93980000Y-48260000D02*
X93980000Y-53975000D01*
D27*
X95250000Y-55245000D02*
X95250000Y-61595000D01*
%TD*%
M02*
