%TF.GenerationSoftware,KiCad,Pcbnew,9.0.6*%
%TF.CreationDate,2026-03-31T01:16:32+03:00*%
%TF.ProjectId,EndPlate,456e6450-6c61-4746-952e-6b696361645f,rev?*%
%TF.SameCoordinates,Original*%
%TF.FileFunction,Copper,L2,Bot*%
%TF.FilePolarity,Positive*%
%FSLAX46Y46*%
G04 Gerber Fmt 4.6, Leading zero omitted, Abs format (unit mm)*
G04 Created by KiCad (PCBNEW 9.0.6) date 2026-03-31 01:16:32*
%MOMM*%
%LPD*%
G01*
G04 APERTURE LIST*
G04 Aperture macros list*
%AMRoundRect*
0 Rectangle with rounded corners*
0 $1 Rounding radius*
0 $2 $3 $4 $5 $6 $7 $8 $9 X,Y pos of 4 corners*
0 Add a 4 corners polygon primitive as box body*
4,1,4,$2,$3,$4,$5,$6,$7,$8,$9,$2,$3,0*
0 Add four circle primitives for the rounded corners*
1,1,$1+$1,$2,$3*
1,1,$1+$1,$4,$5*
1,1,$1+$1,$6,$7*
1,1,$1+$1,$8,$9*
0 Add four rect primitives between the rounded corners*
20,1,$1+$1,$2,$3,$4,$5,0*
20,1,$1+$1,$4,$5,$6,$7,0*
20,1,$1+$1,$6,$7,$8,$9,0*
20,1,$1+$1,$8,$9,$2,$3,0*%
G04 Aperture macros list end*
%TA.AperFunction,SMDPad,CuDef*%
%ADD10RoundRect,0.250000X-0.337500X-0.475000X0.337500X-0.475000X0.337500X0.475000X-0.337500X0.475000X0*%
%TD*%
%TA.AperFunction,ComponentPad*%
%ADD11R,1.800000X1.500000*%
%TD*%
%TA.AperFunction,ComponentPad*%
%ADD12O,1.800000X1.500000*%
%TD*%
%TA.AperFunction,ComponentPad*%
%ADD13R,2.000000X2.000000*%
%TD*%
%TA.AperFunction,ComponentPad*%
%ADD14C,2.000000*%
%TD*%
%TA.AperFunction,ComponentPad*%
%ADD15R,1.700000X1.700000*%
%TD*%
%TA.AperFunction,ComponentPad*%
%ADD16RoundRect,0.234375X-0.665625X-0.515625X0.665625X-0.515625X0.665625X0.515625X-0.665625X0.515625X0*%
%TD*%
%TA.AperFunction,ComponentPad*%
%ADD17RoundRect,0.250000X-1.050000X-1.050000X1.050000X-1.050000X1.050000X1.050000X-1.050000X1.050000X0*%
%TD*%
%TA.AperFunction,ComponentPad*%
%ADD18C,2.600000*%
%TD*%
%TA.AperFunction,ComponentPad*%
%ADD19RoundRect,0.250000X-0.650000X-0.500000X0.650000X-0.500000X0.650000X0.500000X-0.650000X0.500000X0*%
%TD*%
%TA.AperFunction,SMDPad,CuDef*%
%ADD20R,1.900000X1.000000*%
%TD*%
%TA.AperFunction,ComponentPad*%
%ADD21C,1.800000*%
%TD*%
%TA.AperFunction,SMDPad,CuDef*%
%ADD22RoundRect,0.150000X-0.587500X-0.150000X0.587500X-0.150000X0.587500X0.150000X-0.587500X0.150000X0*%
%TD*%
%TA.AperFunction,SMDPad,CuDef*%
%ADD23RoundRect,0.250000X0.350000X0.450000X-0.350000X0.450000X-0.350000X-0.450000X0.350000X-0.450000X0*%
%TD*%
%TA.AperFunction,Conductor*%
%ADD24C,0.600000*%
%TD*%
%TA.AperFunction,Conductor*%
%ADD25C,0.500000*%
%TD*%
%TA.AperFunction,Conductor*%
%ADD26C,0.800000*%
%TD*%
%TA.AperFunction,Conductor*%
%ADD27C,0.350000*%
%TD*%
G04 APERTURE END LIST*
D10*
%TO.P,C3,1*%
%TO.N,VCC*%
X110490000Y-55880000D03*
%TO.P,C3,2*%
%TO.N,GND*%
X112565000Y-55880000D03*
%TD*%
D11*
%TO.P,J14,1,Pin_1*%
%TO.N,GND*%
X92710000Y-67310000D03*
D12*
%TO.P,J14,2,Pin_2*%
%TO.N,/BDST0*%
X92710000Y-69850000D03*
%TO.P,J14,3,Pin_3*%
%TO.N,/BDST1*%
X92710000Y-72390000D03*
%TO.P,J14,4,Pin_4*%
%TO.N,/BDST2*%
X92710000Y-74930000D03*
%TO.P,J14,5,Pin_5*%
%TO.N,/BDST3*%
X92710000Y-77470000D03*
%TO.P,J14,6,Pin_6*%
%TO.N,/BDST4*%
X92710000Y-80010000D03*
%TO.P,J14,7,Pin_7*%
%TO.N,/BDST5*%
X92710000Y-82550000D03*
%TO.P,J14,8,Pin_8*%
%TO.N,/BDST6*%
X92710000Y-85090000D03*
%TO.P,J14,9,Pin_9*%
%TO.N,/BDST7*%
X92710000Y-87630000D03*
%TD*%
D13*
%TO.P,J10,1,Pin_1*%
%TO.N,/S1.0*%
X111125000Y-35560000D03*
D14*
%TO.P,J10,2,Pin_2*%
%TO.N,/S1.1*%
X111125000Y-33020000D03*
%TO.P,J10,3,Pin_3*%
%TO.N,/S1.2*%
X111125000Y-30480000D03*
%TD*%
D13*
%TO.P,J9,1,Pin_1*%
%TO.N,/S0.0*%
X111125000Y-45720000D03*
D14*
%TO.P,J9,2,Pin_2*%
%TO.N,/S0.1*%
X111125000Y-43180000D03*
%TO.P,J9,3,Pin_3*%
%TO.N,/S0.2*%
X111125000Y-40640000D03*
%TD*%
D15*
%TO.P,J15,1,Pin_1*%
%TO.N,Net-(J15-Pin_1)*%
X90805000Y-61595000D03*
%TD*%
D11*
%TO.P,J13,1,Pin_1*%
%TO.N,GND*%
X113030000Y-67310000D03*
D12*
%TO.P,J13,2,Pin_2*%
%TO.N,/BSRC0*%
X113030000Y-69850000D03*
%TO.P,J13,3,Pin_3*%
%TO.N,/BSRC1*%
X113030000Y-72390000D03*
%TO.P,J13,4,Pin_4*%
%TO.N,/BSRC2*%
X113030000Y-74930000D03*
%TO.P,J13,5,Pin_5*%
%TO.N,/BSRC3*%
X113030000Y-77470000D03*
%TO.P,J13,6,Pin_6*%
%TO.N,/BSRC4*%
X113030000Y-80010000D03*
%TO.P,J13,7,Pin_7*%
%TO.N,/BSRC5*%
X113030000Y-82550000D03*
%TO.P,J13,8,Pin_8*%
%TO.N,/BSRC6*%
X113030000Y-85090000D03*
%TO.P,J13,9,Pin_9*%
%TO.N,/BSRC7*%
X113030000Y-87630000D03*
%TD*%
D15*
%TO.P,J16,1,Pin_1*%
%TO.N,Net-(J16-Pin_1)*%
X111125000Y-61595000D03*
%TD*%
D16*
%TO.P,U2,1,A->B*%
%TO.N,Net-(U2-A->B)*%
X99060000Y-64770000D03*
D12*
%TO.P,U2,2,A0*%
%TO.N,/SRC0*%
X99060000Y-67310000D03*
%TO.P,U2,3,A1*%
%TO.N,/SRC1*%
X99060000Y-69850000D03*
%TO.P,U2,4,A2*%
%TO.N,/SRC2*%
X99060000Y-72390000D03*
%TO.P,U2,5,A3*%
%TO.N,/SRC3*%
X99060000Y-74930000D03*
%TO.P,U2,6,A4*%
%TO.N,/SRC4*%
X99060000Y-77470000D03*
%TO.P,U2,7,A5*%
%TO.N,/SRC5*%
X99060000Y-80010000D03*
%TO.P,U2,8,A6*%
%TO.N,/SRC6*%
X99060000Y-82550000D03*
%TO.P,U2,9,A7*%
%TO.N,/SRC7*%
X99060000Y-85090000D03*
%TO.P,U2,10,GND*%
%TO.N,GND*%
X99060000Y-87630000D03*
%TO.P,U2,11,B7*%
%TO.N,/BSRC7*%
X106680000Y-87630000D03*
%TO.P,U2,12,B6*%
%TO.N,/BSRC6*%
X106680000Y-85090000D03*
%TO.P,U2,13,B5*%
%TO.N,/BSRC5*%
X106680000Y-82550000D03*
%TO.P,U2,14,B4*%
%TO.N,/BSRC4*%
X106680000Y-80010000D03*
%TO.P,U2,15,B3*%
%TO.N,/BSRC3*%
X106680000Y-77470000D03*
%TO.P,U2,16,B2*%
%TO.N,/BSRC2*%
X106680000Y-74930000D03*
%TO.P,U2,17,B1*%
%TO.N,/BSRC1*%
X106680000Y-72390000D03*
%TO.P,U2,18,B0*%
%TO.N,/BSRC0*%
X106680000Y-69850000D03*
%TO.P,U2,19,CE*%
%TO.N,Net-(J16-Pin_1)*%
X106680000Y-67310000D03*
%TO.P,U2,20,VCC*%
%TO.N,VCC*%
X106680000Y-64770000D03*
%TD*%
D11*
%TO.P,J12,1,Pin_1*%
%TO.N,GND*%
X110490000Y-67310000D03*
D12*
%TO.P,J12,2,Pin_2*%
%TO.N,/BSRC0*%
X110490000Y-69850000D03*
%TO.P,J12,3,Pin_3*%
%TO.N,/BSRC1*%
X110490000Y-72390000D03*
%TO.P,J12,4,Pin_4*%
%TO.N,/BSRC2*%
X110490000Y-74930000D03*
%TO.P,J12,5,Pin_5*%
%TO.N,/BSRC3*%
X110490000Y-77470000D03*
%TO.P,J12,6,Pin_6*%
%TO.N,/BSRC4*%
X110490000Y-80010000D03*
%TO.P,J12,7,Pin_7*%
%TO.N,/BSRC5*%
X110490000Y-82550000D03*
%TO.P,J12,8,Pin_8*%
%TO.N,/BSRC6*%
X110490000Y-85090000D03*
%TO.P,J12,9,Pin_9*%
%TO.N,/BSRC7*%
X110490000Y-87630000D03*
%TD*%
D17*
%TO.P,J17,1,Pin_1*%
%TO.N,Net-(J17-Pin_1)*%
X50205000Y-70657500D03*
D18*
%TO.P,J17,2,Pin_2*%
%TO.N,GND*%
X55205000Y-70657500D03*
%TD*%
D19*
%TO.P,U1,1,A->B*%
%TO.N,Net-(U1-A->B)*%
X78740000Y-64770000D03*
D12*
%TO.P,U1,2,A0*%
%TO.N,/DST0*%
X78740000Y-67310000D03*
%TO.P,U1,3,A1*%
%TO.N,/DST1*%
X78740000Y-69850000D03*
%TO.P,U1,4,A2*%
%TO.N,/DST2*%
X78740000Y-72390000D03*
%TO.P,U1,5,A3*%
%TO.N,/DST3*%
X78740000Y-74930000D03*
%TO.P,U1,6,A4*%
%TO.N,/DST4*%
X78740000Y-77470000D03*
%TO.P,U1,7,A5*%
%TO.N,/DST5*%
X78740000Y-80010000D03*
%TO.P,U1,8,A6*%
%TO.N,/DST6*%
X78740000Y-82550000D03*
%TO.P,U1,9,A7*%
%TO.N,/DST7*%
X78740000Y-85090000D03*
%TO.P,U1,10,GND*%
%TO.N,GND*%
X78740000Y-87630000D03*
%TO.P,U1,11,B7*%
%TO.N,/BDST7*%
X86360000Y-87630000D03*
%TO.P,U1,12,B6*%
%TO.N,/BDST6*%
X86360000Y-85090000D03*
%TO.P,U1,13,B5*%
%TO.N,/BDST5*%
X86360000Y-82550000D03*
%TO.P,U1,14,B4*%
%TO.N,/BDST4*%
X86360000Y-80010000D03*
%TO.P,U1,15,B3*%
%TO.N,/BDST3*%
X86360000Y-77470000D03*
%TO.P,U1,16,B2*%
%TO.N,/BDST2*%
X86360000Y-74930000D03*
%TO.P,U1,17,B1*%
%TO.N,/BDST1*%
X86360000Y-72390000D03*
%TO.P,U1,18,B0*%
%TO.N,/BDST0*%
X86360000Y-69850000D03*
%TO.P,U1,19,CE*%
%TO.N,Net-(J15-Pin_1)*%
X86360000Y-67310000D03*
%TO.P,U1,20,VCC*%
%TO.N,VCC*%
X86360000Y-64770000D03*
%TD*%
D11*
%TO.P,J11,1,Pin_1*%
%TO.N,GND*%
X90170000Y-67310000D03*
D12*
%TO.P,J11,2,Pin_2*%
%TO.N,/BDST0*%
X90170000Y-69850000D03*
%TO.P,J11,3,Pin_3*%
%TO.N,/BDST1*%
X90170000Y-72390000D03*
%TO.P,J11,4,Pin_4*%
%TO.N,/BDST2*%
X90170000Y-74930000D03*
%TO.P,J11,5,Pin_5*%
%TO.N,/BDST3*%
X90170000Y-77470000D03*
%TO.P,J11,6,Pin_6*%
%TO.N,/BDST4*%
X90170000Y-80010000D03*
%TO.P,J11,7,Pin_7*%
%TO.N,/BDST5*%
X90170000Y-82550000D03*
%TO.P,J11,8,Pin_8*%
%TO.N,/BDST6*%
X90170000Y-85090000D03*
%TO.P,J11,9,Pin_9*%
%TO.N,/BDST7*%
X90170000Y-87630000D03*
%TD*%
D20*
%TO.P,J1,1,Pin_1*%
%TO.N,/DST0*%
X102460000Y-55880000D03*
%TO.P,J1,2,Pin_2*%
%TO.N,/SRC0*%
X105760000Y-53340000D03*
%TO.P,J1,3,Pin_3*%
%TO.N,unconnected-(J1-Pin_3-Pad3)*%
X102460000Y-50800000D03*
%TO.P,J1,4,Pin_4*%
%TO.N,VCC*%
X105760000Y-48260000D03*
%TO.P,J1,5,Pin_5*%
%TO.N,/S0.0*%
X102460000Y-45720000D03*
%TO.P,J1,6,Pin_6*%
%TO.N,/S0.1*%
X105760000Y-43180000D03*
%TO.P,J1,7,Pin_7*%
%TO.N,/S0.2*%
X102460000Y-40640000D03*
%TO.P,J1,8,Pin_8*%
%TO.N,/~E0*%
X105760000Y-38100000D03*
%TO.P,J1,9,Pin_9*%
%TO.N,/S1.0*%
X102460000Y-35560000D03*
%TO.P,J1,10,Pin_10*%
%TO.N,/S1.1*%
X105760000Y-33020000D03*
%TO.P,J1,11,Pin_11*%
%TO.N,/S1.2*%
X102460000Y-30480000D03*
%TO.P,J1,12,Pin_12*%
%TO.N,/~E1*%
X105760000Y-27940000D03*
%TO.P,J1,13,Pin_13*%
%TO.N,GND*%
X102460000Y-25400000D03*
%TD*%
%TO.P,J5,1,Pin_1*%
%TO.N,/DST4*%
X72010000Y-55880000D03*
%TO.P,J5,2,Pin_2*%
%TO.N,/SRC4*%
X75310000Y-53340000D03*
%TO.P,J5,3,Pin_3*%
%TO.N,unconnected-(J5-Pin_3-Pad3)*%
X72010000Y-50800000D03*
%TO.P,J5,4,Pin_4*%
%TO.N,VCC*%
X75310000Y-48260000D03*
%TO.P,J5,5,Pin_5*%
%TO.N,/S0.0*%
X72010000Y-45720000D03*
%TO.P,J5,6,Pin_6*%
%TO.N,/S0.1*%
X75310000Y-43180000D03*
%TO.P,J5,7,Pin_7*%
%TO.N,/S0.2*%
X72010000Y-40640000D03*
%TO.P,J5,8,Pin_8*%
%TO.N,/~E0*%
X75310000Y-38100000D03*
%TO.P,J5,9,Pin_9*%
%TO.N,/S1.0*%
X72010000Y-35560000D03*
%TO.P,J5,10,Pin_10*%
%TO.N,/S1.1*%
X75310000Y-33020000D03*
%TO.P,J5,11,Pin_11*%
%TO.N,/S1.2*%
X72010000Y-30480000D03*
%TO.P,J5,12,Pin_12*%
%TO.N,/~E1*%
X75310000Y-27940000D03*
%TO.P,J5,13,Pin_13*%
%TO.N,GND*%
X72010000Y-25400000D03*
%TD*%
D21*
%TO.P,C1,1*%
%TO.N,VCC*%
X82550000Y-71120000D03*
%TO.P,C1,2*%
%TO.N,GND*%
X82550000Y-86120000D03*
%TD*%
D20*
%TO.P,J3,1,Pin_1*%
%TO.N,/DST2*%
X87250000Y-55880000D03*
%TO.P,J3,2,Pin_2*%
%TO.N,/SRC2*%
X90550000Y-53340000D03*
%TO.P,J3,3,Pin_3*%
%TO.N,unconnected-(J3-Pin_3-Pad3)*%
X87250000Y-50800000D03*
%TO.P,J3,4,Pin_4*%
%TO.N,VCC*%
X90550000Y-48260000D03*
%TO.P,J3,5,Pin_5*%
%TO.N,/S0.0*%
X87250000Y-45720000D03*
%TO.P,J3,6,Pin_6*%
%TO.N,/S0.1*%
X90550000Y-43180000D03*
%TO.P,J3,7,Pin_7*%
%TO.N,/S0.2*%
X87250000Y-40640000D03*
%TO.P,J3,8,Pin_8*%
%TO.N,/~E0*%
X90550000Y-38100000D03*
%TO.P,J3,9,Pin_9*%
%TO.N,/S1.0*%
X87250000Y-35560000D03*
%TO.P,J3,10,Pin_10*%
%TO.N,/S1.1*%
X90550000Y-33020000D03*
%TO.P,J3,11,Pin_11*%
%TO.N,/S1.2*%
X87250000Y-30480000D03*
%TO.P,J3,12,Pin_12*%
%TO.N,/~E1*%
X90550000Y-27940000D03*
%TO.P,J3,13,Pin_13*%
%TO.N,GND*%
X87250000Y-25400000D03*
%TD*%
D22*
%TO.P,Q1,1,G*%
%TO.N,GND*%
X48260000Y-75880000D03*
%TO.P,Q1,2,S*%
%TO.N,VCC*%
X48260000Y-73980000D03*
%TO.P,Q1,3,D*%
%TO.N,Net-(J17-Pin_1)*%
X50135000Y-74930000D03*
%TD*%
D20*
%TO.P,J2,1,Pin_1*%
%TO.N,/DST1*%
X94870000Y-55880000D03*
%TO.P,J2,2,Pin_2*%
%TO.N,/SRC1*%
X98170000Y-53340000D03*
%TO.P,J2,3,Pin_3*%
%TO.N,unconnected-(J2-Pin_3-Pad3)*%
X94870000Y-50800000D03*
%TO.P,J2,4,Pin_4*%
%TO.N,VCC*%
X98170000Y-48260000D03*
%TO.P,J2,5,Pin_5*%
%TO.N,/S0.0*%
X94870000Y-45720000D03*
%TO.P,J2,6,Pin_6*%
%TO.N,/S0.1*%
X98170000Y-43180000D03*
%TO.P,J2,7,Pin_7*%
%TO.N,/S0.2*%
X94870000Y-40640000D03*
%TO.P,J2,8,Pin_8*%
%TO.N,/~E0*%
X98170000Y-38100000D03*
%TO.P,J2,9,Pin_9*%
%TO.N,/S1.0*%
X94870000Y-35560000D03*
%TO.P,J2,10,Pin_10*%
%TO.N,/S1.1*%
X98170000Y-33020000D03*
%TO.P,J2,11,Pin_11*%
%TO.N,/S1.2*%
X94870000Y-30480000D03*
%TO.P,J2,12,Pin_12*%
%TO.N,/~E1*%
X98170000Y-27940000D03*
%TO.P,J2,13,Pin_13*%
%TO.N,GND*%
X94870000Y-25400000D03*
%TD*%
%TO.P,J6,1,Pin_1*%
%TO.N,/DST5*%
X64390000Y-55880000D03*
%TO.P,J6,2,Pin_2*%
%TO.N,/SRC5*%
X67690000Y-53340000D03*
%TO.P,J6,3,Pin_3*%
%TO.N,unconnected-(J6-Pin_3-Pad3)*%
X64390000Y-50800000D03*
%TO.P,J6,4,Pin_4*%
%TO.N,VCC*%
X67690000Y-48260000D03*
%TO.P,J6,5,Pin_5*%
%TO.N,/S0.0*%
X64390000Y-45720000D03*
%TO.P,J6,6,Pin_6*%
%TO.N,/S0.1*%
X67690000Y-43180000D03*
%TO.P,J6,7,Pin_7*%
%TO.N,/S0.2*%
X64390000Y-40640000D03*
%TO.P,J6,8,Pin_8*%
%TO.N,/~E0*%
X67690000Y-38100000D03*
%TO.P,J6,9,Pin_9*%
%TO.N,/S1.0*%
X64390000Y-35560000D03*
%TO.P,J6,10,Pin_10*%
%TO.N,/S1.1*%
X67690000Y-33020000D03*
%TO.P,J6,11,Pin_11*%
%TO.N,/S1.2*%
X64390000Y-30480000D03*
%TO.P,J6,12,Pin_12*%
%TO.N,/~E1*%
X67690000Y-27940000D03*
%TO.P,J6,13,Pin_13*%
%TO.N,GND*%
X64390000Y-25400000D03*
%TD*%
%TO.P,J8,1,Pin_1*%
%TO.N,/DST7*%
X49150000Y-55880000D03*
%TO.P,J8,2,Pin_2*%
%TO.N,/SRC7*%
X52450000Y-53340000D03*
%TO.P,J8,3,Pin_3*%
%TO.N,unconnected-(J8-Pin_3-Pad3)*%
X49150000Y-50800000D03*
%TO.P,J8,4,Pin_4*%
%TO.N,VCC*%
X52450000Y-48260000D03*
%TO.P,J8,5,Pin_5*%
%TO.N,/S0.0*%
X49150000Y-45720000D03*
%TO.P,J8,6,Pin_6*%
%TO.N,/S0.1*%
X52450000Y-43180000D03*
%TO.P,J8,7,Pin_7*%
%TO.N,/S0.2*%
X49150000Y-40640000D03*
%TO.P,J8,8,Pin_8*%
%TO.N,/~E0*%
X52450000Y-38100000D03*
%TO.P,J8,9,Pin_9*%
%TO.N,/S1.0*%
X49150000Y-35560000D03*
%TO.P,J8,10,Pin_10*%
%TO.N,/S1.1*%
X52450000Y-33020000D03*
%TO.P,J8,11,Pin_11*%
%TO.N,/S1.2*%
X49150000Y-30480000D03*
%TO.P,J8,12,Pin_12*%
%TO.N,/~E1*%
X52450000Y-27940000D03*
%TO.P,J8,13,Pin_13*%
%TO.N,GND*%
X49150000Y-25400000D03*
%TD*%
D21*
%TO.P,C2,1*%
%TO.N,VCC*%
X102870000Y-71240000D03*
%TO.P,C2,2*%
%TO.N,GND*%
X102870000Y-86240000D03*
%TD*%
D23*
%TO.P,R4,1*%
%TO.N,GND*%
X113030000Y-64770000D03*
%TO.P,R4,2*%
%TO.N,Net-(J16-Pin_1)*%
X111030000Y-64770000D03*
%TD*%
D20*
%TO.P,J4,1,Pin_1*%
%TO.N,/DST3*%
X79630000Y-55880000D03*
%TO.P,J4,2,Pin_2*%
%TO.N,/SRC3*%
X82930000Y-53340000D03*
%TO.P,J4,3,Pin_3*%
%TO.N,unconnected-(J4-Pin_3-Pad3)*%
X79630000Y-50800000D03*
%TO.P,J4,4,Pin_4*%
%TO.N,VCC*%
X82930000Y-48260000D03*
%TO.P,J4,5,Pin_5*%
%TO.N,/S0.0*%
X79630000Y-45720000D03*
%TO.P,J4,6,Pin_6*%
%TO.N,/S0.1*%
X82930000Y-43180000D03*
%TO.P,J4,7,Pin_7*%
%TO.N,/S0.2*%
X79630000Y-40640000D03*
%TO.P,J4,8,Pin_8*%
%TO.N,/~E0*%
X82930000Y-38100000D03*
%TO.P,J4,9,Pin_9*%
%TO.N,/S1.0*%
X79630000Y-35560000D03*
%TO.P,J4,10,Pin_10*%
%TO.N,/S1.1*%
X82930000Y-33020000D03*
%TO.P,J4,11,Pin_11*%
%TO.N,/S1.2*%
X79630000Y-30480000D03*
%TO.P,J4,12,Pin_12*%
%TO.N,/~E1*%
X82930000Y-27940000D03*
%TO.P,J4,13,Pin_13*%
%TO.N,GND*%
X79630000Y-25400000D03*
%TD*%
D23*
%TO.P,R3,1*%
%TO.N,GND*%
X92710000Y-64770000D03*
%TO.P,R3,2*%
%TO.N,Net-(J15-Pin_1)*%
X90710000Y-64770000D03*
%TD*%
%TO.P,R2,1*%
%TO.N,VCC*%
X103860600Y-64770000D03*
%TO.P,R2,2*%
%TO.N,Net-(U2-A->B)*%
X101860600Y-64770000D03*
%TD*%
D20*
%TO.P,J7,1,Pin_1*%
%TO.N,/DST6*%
X56770000Y-55880000D03*
%TO.P,J7,2,Pin_2*%
%TO.N,/SRC6*%
X60070000Y-53340000D03*
%TO.P,J7,3,Pin_3*%
%TO.N,unconnected-(J7-Pin_3-Pad3)*%
X56770000Y-50800000D03*
%TO.P,J7,4,Pin_4*%
%TO.N,VCC*%
X60070000Y-48260000D03*
%TO.P,J7,5,Pin_5*%
%TO.N,/S0.0*%
X56770000Y-45720000D03*
%TO.P,J7,6,Pin_6*%
%TO.N,/S0.1*%
X60070000Y-43180000D03*
%TO.P,J7,7,Pin_7*%
%TO.N,/S0.2*%
X56770000Y-40640000D03*
%TO.P,J7,8,Pin_8*%
%TO.N,/~E0*%
X60070000Y-38100000D03*
%TO.P,J7,9,Pin_9*%
%TO.N,/S1.0*%
X56770000Y-35560000D03*
%TO.P,J7,10,Pin_10*%
%TO.N,/S1.1*%
X60070000Y-33020000D03*
%TO.P,J7,11,Pin_11*%
%TO.N,/S1.2*%
X56770000Y-30480000D03*
%TO.P,J7,12,Pin_12*%
%TO.N,/~E1*%
X60070000Y-27940000D03*
%TO.P,J7,13,Pin_13*%
%TO.N,GND*%
X56770000Y-25400000D03*
%TD*%
D23*
%TO.P,R1,1*%
%TO.N,VCC*%
X83550000Y-64770000D03*
%TO.P,R1,2*%
%TO.N,Net-(U1-A->B)*%
X81550000Y-64770000D03*
%TD*%
D24*
%TO.N,GND*%
X115570000Y-67194000D02*
X115454000Y-67310000D01*
X115570000Y-56515000D02*
X115570000Y-67194000D01*
X114935000Y-55880000D02*
X115570000Y-56515000D01*
X112565000Y-55880000D02*
X114935000Y-55880000D01*
%TO.N,/S1.0*%
X49530000Y-35560000D02*
X102840000Y-35560000D01*
D25*
X102460000Y-35560000D02*
X111125000Y-35560000D01*
%TO.N,/S0.1*%
X105760000Y-43180000D02*
X111125000Y-43180000D01*
D24*
X52705000Y-43180000D02*
X106015000Y-43180000D01*
D25*
%TO.N,/S1.1*%
X105760000Y-33020000D02*
X111125000Y-33020000D01*
D24*
X52070000Y-33020000D02*
X105380000Y-33020000D01*
%TO.N,VCC*%
X48260000Y-73980000D02*
X48260000Y-73025000D01*
X48260000Y-73025000D02*
X46990000Y-71755000D01*
X107315000Y-48260000D02*
X109855000Y-50800000D01*
D25*
X85090000Y-64770000D02*
X86360000Y-64770000D01*
D24*
X46990000Y-48895000D02*
X47625000Y-48260000D01*
X105760000Y-48260000D02*
X107315000Y-48260000D01*
D25*
X83550000Y-64770000D02*
X85090000Y-64770000D01*
D24*
X109855000Y-59055000D02*
X106680000Y-62230000D01*
X106680000Y-62230000D02*
X106680000Y-64770000D01*
D25*
X85090000Y-64770000D02*
X85090000Y-66040000D01*
X103822500Y-64770000D02*
X105410000Y-64770000D01*
X105410000Y-64770000D02*
X105410000Y-66040000D01*
D24*
X109855000Y-50800000D02*
X109855000Y-59055000D01*
X47625000Y-48260000D02*
X52450000Y-48260000D01*
X46990000Y-71755000D02*
X46990000Y-48895000D01*
D25*
X102870000Y-68580000D02*
X102870000Y-71240000D01*
X85090000Y-66040000D02*
X82550000Y-68580000D01*
X105410000Y-64770000D02*
X106680000Y-64770000D01*
X105410000Y-66040000D02*
X102870000Y-68580000D01*
D24*
X52070000Y-48260000D02*
X105380000Y-48260000D01*
D25*
X82550000Y-68580000D02*
X82550000Y-71120000D01*
%TO.N,/DST0*%
X100965000Y-58420000D02*
X96520000Y-58420000D01*
X96520000Y-58420000D02*
X95250000Y-59690000D01*
X86360000Y-62230000D02*
X78105000Y-62230000D01*
X102460000Y-56925000D02*
X100965000Y-58420000D01*
X78105000Y-62230000D02*
X76835000Y-63500000D01*
X76835000Y-63500000D02*
X76835000Y-67310000D01*
X95250000Y-59690000D02*
X88900000Y-59690000D01*
X76835000Y-67310000D02*
X79375000Y-67310000D01*
X102460000Y-55880000D02*
X102460000Y-56925000D01*
X88900000Y-59690000D02*
X86360000Y-62230000D01*
D24*
%TO.N,/S1.2*%
X48895000Y-30480000D02*
X102205000Y-30480000D01*
D25*
X102460000Y-30480000D02*
X111125000Y-30480000D01*
D24*
%TO.N,/S0.2*%
X49530000Y-40640000D02*
X102840000Y-40640000D01*
D25*
X102460000Y-40640000D02*
X111125000Y-40640000D01*
D24*
%TO.N,/~E0*%
X52070000Y-38100000D02*
X105380000Y-38100000D01*
D25*
%TO.N,/SRC0*%
X105760000Y-58705000D02*
X105760000Y-53340000D01*
X97155000Y-66675000D02*
X97155000Y-62865000D01*
X97155000Y-62865000D02*
X99060000Y-60960000D01*
X97790000Y-67310000D02*
X97155000Y-66675000D01*
X99060000Y-67310000D02*
X97790000Y-67310000D01*
X99060000Y-60960000D02*
X103505000Y-60960000D01*
X103505000Y-60960000D02*
X105760000Y-58705000D01*
D24*
%TO.N,/~E1*%
X52085000Y-27940000D02*
X105395000Y-27940000D01*
D26*
%TO.N,GND*%
X99060000Y-90170000D02*
X101600000Y-90170000D01*
D25*
X92710000Y-67310000D02*
X93980000Y-67310000D01*
X100965000Y-73660000D02*
X101600000Y-74295000D01*
D26*
X44450000Y-78105000D02*
X44450000Y-83185000D01*
D25*
X92710000Y-64770000D02*
X92710000Y-67310000D01*
D26*
X53975000Y-78105000D02*
X48260000Y-78105000D01*
D25*
X113030000Y-64770000D02*
X113030000Y-67310000D01*
X81915000Y-87630000D02*
X78740000Y-87630000D01*
D26*
X48260000Y-78105000D02*
X44450000Y-78105000D01*
D25*
X82550000Y-86995000D02*
X81915000Y-87630000D01*
D26*
X55205000Y-76875000D02*
X53975000Y-78105000D01*
X78740000Y-87630000D02*
X78740000Y-90170000D01*
X55205000Y-70657500D02*
X55205000Y-76875000D01*
D24*
X48260000Y-75880000D02*
X48260000Y-78105000D01*
D26*
X44450000Y-83185000D02*
X48895000Y-87630000D01*
X101600000Y-90170000D02*
X114669000Y-90170000D01*
D25*
X110490000Y-67310000D02*
X113030000Y-67310000D01*
X101720000Y-86240000D02*
X101600000Y-86360000D01*
X95885000Y-69215000D02*
X95885000Y-73025000D01*
D26*
X99060000Y-90170000D02*
X99060000Y-87630000D01*
D24*
X115454000Y-67310000D02*
X115454000Y-89385000D01*
D25*
X101600000Y-74930000D02*
X101600000Y-86360000D01*
X82550000Y-86120000D02*
X82550000Y-86995000D01*
D26*
X48895000Y-87630000D02*
X78740000Y-87630000D01*
D25*
X90170000Y-67310000D02*
X92710000Y-67310000D01*
X95885000Y-73025000D02*
X96520000Y-73660000D01*
X96520000Y-73660000D02*
X100330000Y-73660000D01*
X102870000Y-86240000D02*
X101720000Y-86240000D01*
X93980000Y-67310000D02*
X95885000Y-69215000D01*
X100330000Y-73660000D02*
X100965000Y-73660000D01*
X101600000Y-74295000D02*
X101600000Y-74930000D01*
D24*
X49530000Y-25400000D02*
X102840000Y-25400000D01*
D25*
X100330000Y-87630000D02*
X99060000Y-87630000D01*
X100330000Y-87630000D02*
X101600000Y-86360000D01*
D24*
X113030000Y-67310000D02*
X115454000Y-67310000D01*
D26*
X78740000Y-90170000D02*
X99060000Y-90170000D01*
X44450000Y-25400000D02*
X44450000Y-78105000D01*
X49150000Y-25400000D02*
X44450000Y-25400000D01*
D24*
X114669000Y-90170000D02*
X115454000Y-89385000D01*
D25*
%TO.N,/S0.0*%
X102460000Y-45720000D02*
X111125000Y-45720000D01*
D24*
X48895000Y-45720000D02*
X102205000Y-45720000D01*
D25*
%TO.N,/SRC1*%
X95885000Y-61595000D02*
X97790000Y-59690000D01*
X102235000Y-59690000D02*
X97790000Y-59690000D01*
X104775000Y-57150000D02*
X102235000Y-59690000D01*
X102870000Y-53340000D02*
X104775000Y-55245000D01*
X98170000Y-53340000D02*
X102870000Y-53340000D01*
X104775000Y-55245000D02*
X104775000Y-57150000D01*
X95885000Y-61595000D02*
X95885000Y-67310000D01*
X98425000Y-69850000D02*
X99060000Y-69850000D01*
X95885000Y-67310000D02*
X98425000Y-69850000D01*
%TO.N,/DST1*%
X88265000Y-58420000D02*
X85725000Y-60960000D01*
X93980000Y-58420000D02*
X88265000Y-58420000D01*
X77470000Y-60960000D02*
X75565000Y-62865000D01*
X94870000Y-57530000D02*
X93980000Y-58420000D01*
X94870000Y-55880000D02*
X94870000Y-57530000D01*
X76200000Y-69850000D02*
X79375000Y-69850000D01*
X75565000Y-69215000D02*
X76200000Y-69850000D01*
X75565000Y-62865000D02*
X75565000Y-69215000D01*
X85725000Y-60960000D02*
X77470000Y-60960000D01*
%TO.N,/DST2*%
X87250000Y-55880000D02*
X87250000Y-57150000D01*
X74295000Y-71120000D02*
X75565000Y-72390000D01*
X74295000Y-62230000D02*
X74295000Y-71120000D01*
X87250000Y-57150000D02*
X84710000Y-59690000D01*
X76835000Y-59690000D02*
X74295000Y-62230000D01*
X84710000Y-59690000D02*
X76835000Y-59690000D01*
X75565000Y-72390000D02*
X79375000Y-72390000D01*
%TO.N,/SRC2*%
X103505000Y-52070000D02*
X104140000Y-52070000D01*
X100965000Y-52070000D02*
X103505000Y-52070000D01*
X95885000Y-52705000D02*
X97155000Y-51435000D01*
X97155000Y-51435000D02*
X99695000Y-51435000D01*
X102870000Y-66040000D02*
X102870000Y-66675000D01*
X107950000Y-59055000D02*
X106045000Y-60960000D01*
X100330000Y-72390000D02*
X100965000Y-71755000D01*
X102870000Y-62865000D02*
X102870000Y-63500000D01*
X107950000Y-55880000D02*
X107950000Y-59055000D01*
X104775000Y-62230000D02*
X103505000Y-62230000D01*
X100330000Y-52070000D02*
X100965000Y-52070000D01*
X106045000Y-51435000D02*
X107315000Y-51435000D01*
X99695000Y-51435000D02*
X100330000Y-52070000D01*
X102870000Y-66675000D02*
X100965000Y-68580000D01*
X107950000Y-52070000D02*
X107950000Y-55880000D01*
X100330000Y-72390000D02*
X99060000Y-72390000D01*
X103505000Y-62230000D02*
X102870000Y-62865000D01*
X90550000Y-53340000D02*
X95250000Y-53340000D01*
X100965000Y-68580000D02*
X100965000Y-71755000D01*
X107315000Y-51435000D02*
X107950000Y-52070000D01*
D27*
X102870000Y-66040000D02*
X102870000Y-63500000D01*
D25*
X106045000Y-60960000D02*
X104775000Y-62230000D01*
X95250000Y-53340000D02*
X95885000Y-52705000D01*
X104140000Y-52070000D02*
X104775000Y-51435000D01*
X104775000Y-51435000D02*
X106045000Y-51435000D01*
%TO.N,/SRC3*%
X73025000Y-72390000D02*
X74295000Y-73660000D01*
X82930000Y-53340000D02*
X82930000Y-57405000D01*
X73025000Y-61595000D02*
X73025000Y-72390000D01*
X81915000Y-58420000D02*
X76200000Y-58420000D01*
X74295000Y-73660000D02*
X93980000Y-73660000D01*
X93980000Y-73660000D02*
X95250000Y-74930000D01*
X76200000Y-58420000D02*
X73025000Y-61595000D01*
X95250000Y-74930000D02*
X99060000Y-74930000D01*
X82930000Y-57405000D02*
X81915000Y-58420000D01*
%TO.N,/DST3*%
X79088750Y-57181250D02*
X75533750Y-57181250D01*
X79630000Y-56640000D02*
X79088750Y-57181250D01*
X71755000Y-73660000D02*
X73025000Y-74930000D01*
X71755000Y-60960000D02*
X71755000Y-73660000D01*
X73025000Y-74930000D02*
X79375000Y-74930000D01*
X75533750Y-57181250D02*
X71755000Y-60960000D01*
X79630000Y-55880000D02*
X79630000Y-56640000D01*
%TO.N,/DST4*%
X72010000Y-56895000D02*
X72010000Y-55880000D01*
X69215000Y-76200000D02*
X69215000Y-59690000D01*
X69215000Y-59690000D02*
X72010000Y-56895000D01*
X69215000Y-76200000D02*
X70485000Y-77470000D01*
X79375000Y-77470000D02*
X70485000Y-77470000D01*
%TO.N,/SRC4*%
X70485000Y-60325000D02*
X70485000Y-74930000D01*
X75310000Y-53340000D02*
X75310000Y-55500000D01*
X95250000Y-77470000D02*
X99060000Y-77470000D01*
X93980000Y-76200000D02*
X95250000Y-77470000D01*
X71755000Y-76200000D02*
X93980000Y-76200000D01*
X70485000Y-74930000D02*
X71755000Y-76200000D01*
X75310000Y-55500000D02*
X70485000Y-60325000D01*
%TO.N,/SRC5*%
X67690000Y-77215000D02*
X67690000Y-53340000D01*
X93980000Y-78740000D02*
X69215000Y-78740000D01*
X69215000Y-78740000D02*
X67690000Y-77215000D01*
X99060000Y-80010000D02*
X95250000Y-80010000D01*
X95250000Y-80010000D02*
X93980000Y-78740000D01*
%TO.N,/DST5*%
X64390000Y-78995000D02*
X65405000Y-80010000D01*
X65405000Y-80010000D02*
X79375000Y-80010000D01*
X64390000Y-55880000D02*
X64390000Y-78995000D01*
%TO.N,/SRC6*%
X95250000Y-82550000D02*
X99060000Y-82550000D01*
X93980000Y-81280000D02*
X95250000Y-82550000D01*
X60070000Y-58800000D02*
X62865000Y-61595000D01*
X62865000Y-61595000D02*
X62865000Y-80010000D01*
X64135000Y-81280000D02*
X93980000Y-81280000D01*
X62865000Y-80010000D02*
X64135000Y-81280000D01*
X60070000Y-53340000D02*
X60070000Y-58800000D01*
%TO.N,/DST6*%
X62865000Y-82550000D02*
X61595000Y-81280000D01*
X56770000Y-57405000D02*
X56770000Y-55880000D01*
X61595000Y-81280000D02*
X61595000Y-62230000D01*
X79375000Y-82550000D02*
X62865000Y-82550000D01*
X61595000Y-62230000D02*
X56770000Y-57405000D01*
%TO.N,/SRC7*%
X60325000Y-64770000D02*
X60325000Y-82550000D01*
X52450000Y-53340000D02*
X52450000Y-56895000D01*
X95250000Y-85090000D02*
X99060000Y-85090000D01*
X93980000Y-83820000D02*
X95250000Y-85090000D01*
X52450000Y-56895000D02*
X60325000Y-64770000D01*
X61595000Y-83820000D02*
X93980000Y-83820000D01*
X60325000Y-82550000D02*
X61595000Y-83820000D01*
%TO.N,/DST7*%
X60325000Y-85090000D02*
X79375000Y-85090000D01*
X59055000Y-67310000D02*
X59055000Y-83820000D01*
X49150000Y-57405000D02*
X59055000Y-67310000D01*
X49150000Y-55880000D02*
X49150000Y-57405000D01*
X59055000Y-83820000D02*
X60325000Y-85090000D01*
%TO.N,/BDST7*%
X86360000Y-87630000D02*
X90170000Y-87630000D01*
X90170000Y-87630000D02*
X92710000Y-87630000D01*
%TO.N,/BDST6*%
X90170000Y-85090000D02*
X92710000Y-85090000D01*
X86360000Y-85090000D02*
X90170000Y-85090000D01*
%TO.N,Net-(J15-Pin_1)*%
X86995000Y-67310000D02*
X86360000Y-67310000D01*
X89535000Y-64770000D02*
X86995000Y-67310000D01*
X90710000Y-64770000D02*
X89535000Y-64770000D01*
X90805000Y-64675000D02*
X90710000Y-64770000D01*
X90805000Y-61595000D02*
X90805000Y-64675000D01*
%TO.N,/BDST0*%
X90170000Y-69850000D02*
X92710000Y-69850000D01*
X86360000Y-69850000D02*
X90170000Y-69850000D01*
%TO.N,/BDST4*%
X86360000Y-80010000D02*
X90170000Y-80010000D01*
X90170000Y-80010000D02*
X92710000Y-80010000D01*
%TO.N,/BDST5*%
X86360000Y-82550000D02*
X90170000Y-82550000D01*
X90170000Y-82550000D02*
X92710000Y-82550000D01*
%TO.N,Net-(J16-Pin_1)*%
X111125000Y-64675000D02*
X111030000Y-64770000D01*
X109855000Y-64770000D02*
X107315000Y-67310000D01*
X111125000Y-61595000D02*
X111125000Y-64675000D01*
X111030000Y-64770000D02*
X109855000Y-64770000D01*
X107315000Y-67310000D02*
X106680000Y-67310000D01*
%TO.N,/BDST2*%
X86360000Y-74930000D02*
X90170000Y-74930000D01*
X90170000Y-74930000D02*
X92710000Y-74930000D01*
%TO.N,/BDST1*%
X86360000Y-72390000D02*
X90170000Y-72390000D01*
X90170000Y-72390000D02*
X92710000Y-72390000D01*
%TO.N,/BDST3*%
X90170000Y-77470000D02*
X92710000Y-77470000D01*
X86360000Y-77470000D02*
X90170000Y-77470000D01*
%TO.N,/BSRC4*%
X106680000Y-80010000D02*
X113030000Y-80010000D01*
%TO.N,Net-(U1-A->B)*%
X81550000Y-64770000D02*
X78740000Y-64770000D01*
%TO.N,Net-(U2-A->B)*%
X101711250Y-64770000D02*
X98948750Y-64770000D01*
%TO.N,/BSRC5*%
X106680000Y-82550000D02*
X113030000Y-82550000D01*
%TO.N,/BSRC3*%
X106680000Y-77470000D02*
X113030000Y-77470000D01*
%TO.N,/BSRC2*%
X106680000Y-74930000D02*
X113030000Y-74930000D01*
%TO.N,/BSRC6*%
X106680000Y-85090000D02*
X113030000Y-85090000D01*
%TO.N,/BSRC7*%
X106680000Y-87630000D02*
X113030000Y-87630000D01*
%TO.N,/BSRC0*%
X106680000Y-69850000D02*
X113030000Y-69850000D01*
%TO.N,/BSRC1*%
X106680000Y-72390000D02*
X113030000Y-72390000D01*
D24*
%TO.N,Net-(J17-Pin_1)*%
X50135000Y-70727500D02*
X50205000Y-70657500D01*
X50135000Y-74930000D02*
X50135000Y-70727500D01*
%TD*%
M02*
