M48
; DRILL file {KiCad 9.0.6} date 2026-04-17T19:34:55+0300
; FORMAT={-:-/ absolute / metric / decimal}
; #@! TF.CreationDate,2026-04-17T19:34:55+03:00
; #@! TF.GenerationSoftware,Kicad,Pcbnew,9.0.6
; #@! TF.FileFunction,Plated,1,2,PTH
FMAT,2
METRIC
; #@! TA.AperFunction,Plated,PTH,ViaDrill
T1C0.500
; #@! TA.AperFunction,Plated,PTH,ComponentDrill
T2C0.800
; #@! TA.AperFunction,Plated,PTH,ComponentDrill
T3C0.900
; #@! TA.AperFunction,Plated,PTH,ComponentDrill
T4C1.000
; #@! TA.AperFunction,Plated,PTH,ComponentDrill
T5C1.300
%
G90
G05
T1
X93.98Y-48.26
X95.25Y-61.595
T2
X90.17Y-64.77
X90.17Y-67.31
X90.17Y-69.85
X90.17Y-72.39
X90.17Y-74.93
X90.17Y-77.47
X90.17Y-80.01
X90.17Y-82.55
X90.17Y-85.09
X90.17Y-87.63
X93.98Y-71.12
X93.98Y-86.12
X97.79Y-64.77
X97.79Y-67.31
X97.79Y-69.85
X97.79Y-72.39
X97.79Y-74.93
X97.79Y-77.47
X97.79Y-80.01
X97.79Y-82.55
X97.79Y-85.09
X97.79Y-87.63
X112.395Y-64.77
X112.395Y-67.31
X112.395Y-69.85
X112.395Y-72.39
X112.395Y-74.93
X112.395Y-77.47
X112.395Y-80.01
X112.395Y-82.55
X112.395Y-85.09
X112.395Y-87.63
X116.205Y-71.24
X116.205Y-86.24
X120.015Y-64.77
X120.015Y-67.31
X120.015Y-69.85
X120.015Y-72.39
X120.015Y-74.93
X120.015Y-77.47
X120.015Y-80.01
X120.015Y-82.55
X120.015Y-85.09
X120.015Y-87.63
T3
X55.34Y-30.48
X55.34Y-33.02
X55.34Y-35.56
X55.34Y-40.64
X55.34Y-43.18
X55.34Y-45.72
X57.88Y-30.48
X57.88Y-33.02
X57.88Y-35.56
X57.88Y-40.64
X57.88Y-43.18
X57.88Y-45.72
T4
X101.6Y-67.31
X101.6Y-69.85
X101.6Y-72.39
X101.6Y-74.93
X101.6Y-77.47
X101.6Y-80.01
X101.6Y-82.55
X101.6Y-85.09
X101.6Y-87.63
X102.235Y-61.595
X104.14Y-67.31
X104.14Y-69.85
X104.14Y-72.39
X104.14Y-74.93
X104.14Y-77.47
X104.14Y-80.01
X104.14Y-82.55
X104.14Y-85.09
X104.14Y-87.63
X123.825Y-67.31
X123.825Y-69.85
X123.825Y-72.39
X123.825Y-74.93
X123.825Y-77.47
X123.825Y-80.01
X123.825Y-82.55
X123.825Y-85.09
X123.825Y-87.63
X124.46Y-61.595
X126.365Y-67.31
X126.365Y-69.85
X126.365Y-72.39
X126.365Y-74.93
X126.365Y-77.47
X126.365Y-80.01
X126.365Y-82.55
X126.365Y-85.09
X126.365Y-87.63
X127.635Y-30.48
X127.635Y-33.02
X127.635Y-35.56
X127.635Y-40.64
X127.635Y-43.18
X127.635Y-45.72
T5
X65.445Y-70.657
X70.445Y-70.657
M30
