M48
; DRILL file {KiCad 9.0.6} date 2026-03-31T01:16:39+0300
; FORMAT={-:-/ absolute / metric / decimal}
; #@! TF.CreationDate,2026-03-31T01:16:39+03:00
; #@! TF.GenerationSoftware,Kicad,Pcbnew,9.0.6
; #@! TF.FileFunction,Plated,1,2,PTH
FMAT,2
METRIC
; #@! TA.AperFunction,Plated,PTH,ComponentDrill
T1C0.800
; #@! TA.AperFunction,Plated,PTH,ComponentDrill
T2C1.000
; #@! TA.AperFunction,Plated,PTH,ComponentDrill
T3C1.300
%
G90
G05
T1
X78.74Y-64.77
X78.74Y-67.31
X78.74Y-69.85
X78.74Y-72.39
X78.74Y-74.93
X78.74Y-77.47
X78.74Y-80.01
X78.74Y-82.55
X78.74Y-85.09
X78.74Y-87.63
X82.55Y-71.12
X82.55Y-86.12
X86.36Y-64.77
X86.36Y-67.31
X86.36Y-69.85
X86.36Y-72.39
X86.36Y-74.93
X86.36Y-77.47
X86.36Y-80.01
X86.36Y-82.55
X86.36Y-85.09
X86.36Y-87.63
X99.06Y-64.77
X99.06Y-67.31
X99.06Y-69.85
X99.06Y-72.39
X99.06Y-74.93
X99.06Y-77.47
X99.06Y-80.01
X99.06Y-82.55
X99.06Y-85.09
X99.06Y-87.63
X102.87Y-71.24
X102.87Y-86.24
X106.68Y-64.77
X106.68Y-67.31
X106.68Y-69.85
X106.68Y-72.39
X106.68Y-74.93
X106.68Y-77.47
X106.68Y-80.01
X106.68Y-82.55
X106.68Y-85.09
X106.68Y-87.63
T2
X90.17Y-67.31
X90.17Y-69.85
X90.17Y-72.39
X90.17Y-74.93
X90.17Y-77.47
X90.17Y-80.01
X90.17Y-82.55
X90.17Y-85.09
X90.17Y-87.63
X90.805Y-61.595
X92.71Y-67.31
X92.71Y-69.85
X92.71Y-72.39
X92.71Y-74.93
X92.71Y-77.47
X92.71Y-80.01
X92.71Y-82.55
X92.71Y-85.09
X92.71Y-87.63
X110.49Y-67.31
X110.49Y-69.85
X110.49Y-72.39
X110.49Y-74.93
X110.49Y-77.47
X110.49Y-80.01
X110.49Y-82.55
X110.49Y-85.09
X110.49Y-87.63
X111.125Y-30.48
X111.125Y-33.02
X111.125Y-35.56
X111.125Y-40.64
X111.125Y-43.18
X111.125Y-45.72
X111.125Y-61.595
X113.03Y-67.31
X113.03Y-69.85
X113.03Y-72.39
X113.03Y-74.93
X113.03Y-77.47
X113.03Y-80.01
X113.03Y-82.55
X113.03Y-85.09
X113.03Y-87.63
T3
X50.205Y-70.657
X55.205Y-70.657
M30
