%TF.GenerationSoftware,KiCad,Pcbnew,9.0.6*%
%TF.CreationDate,2026-04-17T19:34:52+03:00*%
%TF.ProjectId,EndPlate,456e6450-6c61-4746-952e-6b696361645f,rev?*%
%TF.SameCoordinates,Original*%
%TF.FileFunction,Soldermask,Top*%
%TF.FilePolarity,Negative*%
%FSLAX46Y46*%
G04 Gerber Fmt 4.6, Leading zero omitted, Abs format (unit mm)*
G04 Created by KiCad (PCBNEW 9.0.6) date 2026-04-17 19:34:52*
%MOMM*%
%LPD*%
G01*
G04 APERTURE LIST*
G04 Aperture macros list*
%AMRoundRect*
0 Rectangle with rounded corners*
0 $1 Rounding radius*
0 $2 $3 $4 $5 $6 $7 $8 $9 X,Y pos of 4 corners*
0 Add a 4 corners polygon primitive as box body*
4,1,4,$2,$3,$4,$5,$6,$7,$8,$9,$2,$3,0*
0 Add four circle primitives for the rounded corners*
1,1,$1+$1,$2,$3*
1,1,$1+$1,$4,$5*
1,1,$1+$1,$6,$7*
1,1,$1+$1,$8,$9*
0 Add four rect primitives between the rounded corners*
20,1,$1+$1,$2,$3,$4,$5,0*
20,1,$1+$1,$4,$5,$6,$7,0*
20,1,$1+$1,$6,$7,$8,$9,0*
20,1,$1+$1,$8,$9,$2,$3,0*%
G04 Aperture macros list end*
%ADD10R,1.800000X1.500000*%
%ADD11O,1.800000X1.500000*%
%ADD12R,2.000000X2.000000*%
%ADD13C,2.000000*%
%ADD14R,1.800000X1.800000*%
%ADD15C,1.800000*%
%ADD16R,1.700000X1.700000*%
%ADD17RoundRect,0.234375X-0.665625X-0.515625X0.665625X-0.515625X0.665625X0.515625X-0.665625X0.515625X0*%
%ADD18RoundRect,0.250000X-1.050000X-1.050000X1.050000X-1.050000X1.050000X1.050000X-1.050000X1.050000X0*%
%ADD19C,2.600000*%
%ADD20RoundRect,0.250000X-0.650000X-0.500000X0.650000X-0.500000X0.650000X0.500000X-0.650000X0.500000X0*%
G04 APERTURE END LIST*
D10*
%TO.C,J14*%
X104140000Y-67310000D03*
D11*
X104140000Y-69850000D03*
X104140000Y-72390000D03*
X104140000Y-74930000D03*
X104140000Y-77470000D03*
X104140000Y-80010000D03*
X104140000Y-82550000D03*
X104140000Y-85090000D03*
X104140000Y-87630000D03*
%TD*%
D12*
%TO.C,J10*%
X127635000Y-35560000D03*
D13*
X127635000Y-33020000D03*
X127635000Y-30480000D03*
%TD*%
D12*
%TO.C,J9*%
X127635000Y-45720000D03*
D13*
X127635000Y-43180000D03*
X127635000Y-40640000D03*
%TD*%
D14*
%TO.C,D6*%
X55340000Y-30480000D03*
D15*
X57880000Y-30480000D03*
%TD*%
D14*
%TO.C,D4*%
X55340000Y-35560000D03*
D15*
X57880000Y-35560000D03*
%TD*%
D16*
%TO.C,J15*%
X102235000Y-61595000D03*
%TD*%
D14*
%TO.C,D2*%
X55340000Y-43180000D03*
D15*
X57880000Y-43180000D03*
%TD*%
D10*
%TO.C,J13*%
X126365000Y-67310000D03*
D11*
X126365000Y-69850000D03*
X126365000Y-72390000D03*
X126365000Y-74930000D03*
X126365000Y-77470000D03*
X126365000Y-80010000D03*
X126365000Y-82550000D03*
X126365000Y-85090000D03*
X126365000Y-87630000D03*
%TD*%
D16*
%TO.C,J16*%
X124460000Y-61595000D03*
%TD*%
D14*
%TO.C,D1*%
X55340000Y-45720000D03*
D15*
X57880000Y-45720000D03*
%TD*%
D14*
%TO.C,D5*%
X55340000Y-33020000D03*
D15*
X57880000Y-33020000D03*
%TD*%
D14*
%TO.C,D3*%
X55340000Y-40640000D03*
D15*
X57880000Y-40640000D03*
%TD*%
D17*
%TO.C,U2*%
X112395000Y-64770000D03*
D11*
X112395000Y-67310000D03*
X112395000Y-69850000D03*
X112395000Y-72390000D03*
X112395000Y-74930000D03*
X112395000Y-77470000D03*
X112395000Y-80010000D03*
X112395000Y-82550000D03*
X112395000Y-85090000D03*
X112395000Y-87630000D03*
X120015000Y-87630000D03*
X120015000Y-85090000D03*
X120015000Y-82550000D03*
X120015000Y-80010000D03*
X120015000Y-77470000D03*
X120015000Y-74930000D03*
X120015000Y-72390000D03*
X120015000Y-69850000D03*
X120015000Y-67310000D03*
X120015000Y-64770000D03*
%TD*%
D10*
%TO.C,J12*%
X123825000Y-67310000D03*
D11*
X123825000Y-69850000D03*
X123825000Y-72390000D03*
X123825000Y-74930000D03*
X123825000Y-77470000D03*
X123825000Y-80010000D03*
X123825000Y-82550000D03*
X123825000Y-85090000D03*
X123825000Y-87630000D03*
%TD*%
D18*
%TO.C,J17*%
X65445000Y-70657500D03*
D19*
X70445000Y-70657500D03*
%TD*%
D20*
%TO.C,U1*%
X90170000Y-64770000D03*
D11*
X90170000Y-67310000D03*
X90170000Y-69850000D03*
X90170000Y-72390000D03*
X90170000Y-74930000D03*
X90170000Y-77470000D03*
X90170000Y-80010000D03*
X90170000Y-82550000D03*
X90170000Y-85090000D03*
X90170000Y-87630000D03*
X97790000Y-87630000D03*
X97790000Y-85090000D03*
X97790000Y-82550000D03*
X97790000Y-80010000D03*
X97790000Y-77470000D03*
X97790000Y-74930000D03*
X97790000Y-72390000D03*
X97790000Y-69850000D03*
X97790000Y-67310000D03*
X97790000Y-64770000D03*
%TD*%
D20*
%TO.C,J11*%
X101600000Y-67310000D03*
D11*
X101600000Y-69850000D03*
X101600000Y-72390000D03*
X101600000Y-74930000D03*
X101600000Y-77470000D03*
X101600000Y-80010000D03*
X101600000Y-82550000D03*
X101600000Y-85090000D03*
X101600000Y-87630000D03*
%TD*%
D15*
%TO.C,C1*%
X93980000Y-71120000D03*
X93980000Y-86120000D03*
%TD*%
%TO.C,C2*%
X116205000Y-71240000D03*
X116205000Y-86240000D03*
%TD*%
M02*
