%TF.GenerationSoftware,KiCad,Pcbnew,9.0.6*%
%TF.CreationDate,2026-04-17T19:34:51+03:00*%
%TF.ProjectId,EndPlate,456e6450-6c61-4746-952e-6b696361645f,rev?*%
%TF.SameCoordinates,Original*%
%TF.FileFunction,Copper,L2,Bot*%
%TF.FilePolarity,Positive*%
%FSLAX46Y46*%
G04 Gerber Fmt 4.6, Leading zero omitted, Abs format (unit mm)*
G04 Created by KiCad (PCBNEW 9.0.6) date 2026-04-17 19:34:51*
%MOMM*%
%LPD*%
G01*
G04 APERTURE LIST*
G04 Aperture macros list*
%AMRoundRect*
0 Rectangle with rounded corners*
0 $1 Rounding radius*
0 $2 $3 $4 $5 $6 $7 $8 $9 X,Y pos of 4 corners*
0 Add a 4 corners polygon primitive as box body*
4,1,4,$2,$3,$4,$5,$6,$7,$8,$9,$2,$3,0*
0 Add four circle primitives for the rounded corners*
1,1,$1+$1,$2,$3*
1,1,$1+$1,$4,$5*
1,1,$1+$1,$6,$7*
1,1,$1+$1,$8,$9*
0 Add four rect primitives between the rounded corners*
20,1,$1+$1,$2,$3,$4,$5,0*
20,1,$1+$1,$4,$5,$6,$7,0*
20,1,$1+$1,$6,$7,$8,$9,0*
20,1,$1+$1,$8,$9,$2,$3,0*%
G04 Aperture macros list end*
%TA.AperFunction,ComponentPad*%
%ADD10R,1.800000X1.500000*%
%TD*%
%TA.AperFunction,ComponentPad*%
%ADD11O,1.800000X1.500000*%
%TD*%
%TA.AperFunction,ComponentPad*%
%ADD12R,2.000000X2.000000*%
%TD*%
%TA.AperFunction,ComponentPad*%
%ADD13C,2.000000*%
%TD*%
%TA.AperFunction,ComponentPad*%
%ADD14R,1.800000X1.800000*%
%TD*%
%TA.AperFunction,ComponentPad*%
%ADD15C,1.800000*%
%TD*%
%TA.AperFunction,ComponentPad*%
%ADD16R,1.700000X1.700000*%
%TD*%
%TA.AperFunction,ComponentPad*%
%ADD17RoundRect,0.234375X-0.665625X-0.515625X0.665625X-0.515625X0.665625X0.515625X-0.665625X0.515625X0*%
%TD*%
%TA.AperFunction,ComponentPad*%
%ADD18RoundRect,0.250000X-1.050000X-1.050000X1.050000X-1.050000X1.050000X1.050000X-1.050000X1.050000X0*%
%TD*%
%TA.AperFunction,ComponentPad*%
%ADD19C,2.600000*%
%TD*%
%TA.AperFunction,ComponentPad*%
%ADD20RoundRect,0.250000X-0.650000X-0.500000X0.650000X-0.500000X0.650000X0.500000X-0.650000X0.500000X0*%
%TD*%
%TA.AperFunction,SMDPad,CuDef*%
%ADD21R,1.900000X1.000000*%
%TD*%
%TA.AperFunction,SMDPad,CuDef*%
%ADD22RoundRect,0.250000X-0.337500X-0.475000X0.337500X-0.475000X0.337500X0.475000X-0.337500X0.475000X0*%
%TD*%
%TA.AperFunction,SMDPad,CuDef*%
%ADD23RoundRect,0.250000X0.350000X0.450000X-0.350000X0.450000X-0.350000X-0.450000X0.350000X-0.450000X0*%
%TD*%
%TA.AperFunction,SMDPad,CuDef*%
%ADD24RoundRect,0.150000X-0.587500X-0.150000X0.587500X-0.150000X0.587500X0.150000X-0.587500X0.150000X0*%
%TD*%
%TA.AperFunction,ViaPad*%
%ADD25C,1.500000*%
%TD*%
%TA.AperFunction,Conductor*%
%ADD26C,0.600000*%
%TD*%
%TA.AperFunction,Conductor*%
%ADD27C,0.500000*%
%TD*%
%TA.AperFunction,Conductor*%
%ADD28C,0.800000*%
%TD*%
%TA.AperFunction,Conductor*%
%ADD29C,0.350000*%
%TD*%
G04 APERTURE END LIST*
D10*
%TO.P,J14,1,Pin_1*%
%TO.N,GND*%
X104140000Y-67310000D03*
D11*
%TO.P,J14,2,Pin_2*%
%TO.N,/BDST0*%
X104140000Y-69850000D03*
%TO.P,J14,3,Pin_3*%
%TO.N,/BDST1*%
X104140000Y-72390000D03*
%TO.P,J14,4,Pin_4*%
%TO.N,/BDST2*%
X104140000Y-74930000D03*
%TO.P,J14,5,Pin_5*%
%TO.N,/BDST3*%
X104140000Y-77470000D03*
%TO.P,J14,6,Pin_6*%
%TO.N,/BDST4*%
X104140000Y-80010000D03*
%TO.P,J14,7,Pin_7*%
%TO.N,/BDST5*%
X104140000Y-82550000D03*
%TO.P,J14,8,Pin_8*%
%TO.N,/BDST6*%
X104140000Y-85090000D03*
%TO.P,J14,9,Pin_9*%
%TO.N,/BDST7*%
X104140000Y-87630000D03*
%TD*%
D12*
%TO.P,J10,1,Pin_1*%
%TO.N,/S1.0*%
X127635000Y-35560000D03*
D13*
%TO.P,J10,2,Pin_2*%
%TO.N,/S1.1*%
X127635000Y-33020000D03*
%TO.P,J10,3,Pin_3*%
%TO.N,/S1.2*%
X127635000Y-30480000D03*
%TD*%
D12*
%TO.P,J9,1,Pin_1*%
%TO.N,/S0.0*%
X127635000Y-45720000D03*
D13*
%TO.P,J9,2,Pin_2*%
%TO.N,/S0.1*%
X127635000Y-43180000D03*
%TO.P,J9,3,Pin_3*%
%TO.N,/S0.2*%
X127635000Y-40640000D03*
%TD*%
D14*
%TO.P,D6,1,K*%
%TO.N,Net-(D6-K)*%
X55340000Y-30480000D03*
D15*
%TO.P,D6,2,A*%
%TO.N,/S1.2*%
X57880000Y-30480000D03*
%TD*%
D14*
%TO.P,D4,1,K*%
%TO.N,Net-(D4-K)*%
X55340000Y-35560000D03*
D15*
%TO.P,D4,2,A*%
%TO.N,/S1.0*%
X57880000Y-35560000D03*
%TD*%
D16*
%TO.P,J15,1,Pin_1*%
%TO.N,Net-(J15-Pin_1)*%
X102235000Y-61595000D03*
%TD*%
D14*
%TO.P,D2,1,K*%
%TO.N,Net-(D2-K)*%
X55340000Y-43180000D03*
D15*
%TO.P,D2,2,A*%
%TO.N,/S0.1*%
X57880000Y-43180000D03*
%TD*%
D10*
%TO.P,J13,1,Pin_1*%
%TO.N,GND*%
X126365000Y-67310000D03*
D11*
%TO.P,J13,2,Pin_2*%
%TO.N,/BSRC0*%
X126365000Y-69850000D03*
%TO.P,J13,3,Pin_3*%
%TO.N,/BSRC1*%
X126365000Y-72390000D03*
%TO.P,J13,4,Pin_4*%
%TO.N,/BSRC2*%
X126365000Y-74930000D03*
%TO.P,J13,5,Pin_5*%
%TO.N,/BSRC3*%
X126365000Y-77470000D03*
%TO.P,J13,6,Pin_6*%
%TO.N,/BSRC4*%
X126365000Y-80010000D03*
%TO.P,J13,7,Pin_7*%
%TO.N,/BSRC5*%
X126365000Y-82550000D03*
%TO.P,J13,8,Pin_8*%
%TO.N,/BSRC6*%
X126365000Y-85090000D03*
%TO.P,J13,9,Pin_9*%
%TO.N,/BSRC7*%
X126365000Y-87630000D03*
%TD*%
D16*
%TO.P,J16,1,Pin_1*%
%TO.N,Net-(J16-Pin_1)*%
X124460000Y-61595000D03*
%TD*%
D14*
%TO.P,D1,1,K*%
%TO.N,Net-(D1-K)*%
X55340000Y-45720000D03*
D15*
%TO.P,D1,2,A*%
%TO.N,/S0.0*%
X57880000Y-45720000D03*
%TD*%
D14*
%TO.P,D5,1,K*%
%TO.N,Net-(D5-K)*%
X55340000Y-33020000D03*
D15*
%TO.P,D5,2,A*%
%TO.N,/S1.1*%
X57880000Y-33020000D03*
%TD*%
D14*
%TO.P,D3,1,K*%
%TO.N,Net-(D3-K)*%
X55340000Y-40640000D03*
D15*
%TO.P,D3,2,A*%
%TO.N,/S0.2*%
X57880000Y-40640000D03*
%TD*%
D17*
%TO.P,U2,1,A->B*%
%TO.N,Net-(U2-A->B)*%
X112395000Y-64770000D03*
D11*
%TO.P,U2,2,A0*%
%TO.N,/SRC0*%
X112395000Y-67310000D03*
%TO.P,U2,3,A1*%
%TO.N,/SRC1*%
X112395000Y-69850000D03*
%TO.P,U2,4,A2*%
%TO.N,/SRC2*%
X112395000Y-72390000D03*
%TO.P,U2,5,A3*%
%TO.N,/SRC3*%
X112395000Y-74930000D03*
%TO.P,U2,6,A4*%
%TO.N,/SRC4*%
X112395000Y-77470000D03*
%TO.P,U2,7,A5*%
%TO.N,/SRC5*%
X112395000Y-80010000D03*
%TO.P,U2,8,A6*%
%TO.N,/SRC6*%
X112395000Y-82550000D03*
%TO.P,U2,9,A7*%
%TO.N,/SRC7*%
X112395000Y-85090000D03*
%TO.P,U2,10,GND*%
%TO.N,GND*%
X112395000Y-87630000D03*
%TO.P,U2,11,B7*%
%TO.N,/BSRC7*%
X120015000Y-87630000D03*
%TO.P,U2,12,B6*%
%TO.N,/BSRC6*%
X120015000Y-85090000D03*
%TO.P,U2,13,B5*%
%TO.N,/BSRC5*%
X120015000Y-82550000D03*
%TO.P,U2,14,B4*%
%TO.N,/BSRC4*%
X120015000Y-80010000D03*
%TO.P,U2,15,B3*%
%TO.N,/BSRC3*%
X120015000Y-77470000D03*
%TO.P,U2,16,B2*%
%TO.N,/BSRC2*%
X120015000Y-74930000D03*
%TO.P,U2,17,B1*%
%TO.N,/BSRC1*%
X120015000Y-72390000D03*
%TO.P,U2,18,B0*%
%TO.N,/BSRC0*%
X120015000Y-69850000D03*
%TO.P,U2,19,CE*%
%TO.N,Net-(J16-Pin_1)*%
X120015000Y-67310000D03*
%TO.P,U2,20,VCC*%
%TO.N,VCC*%
X120015000Y-64770000D03*
%TD*%
D10*
%TO.P,J12,1,Pin_1*%
%TO.N,GND*%
X123825000Y-67310000D03*
D11*
%TO.P,J12,2,Pin_2*%
%TO.N,/BSRC0*%
X123825000Y-69850000D03*
%TO.P,J12,3,Pin_3*%
%TO.N,/BSRC1*%
X123825000Y-72390000D03*
%TO.P,J12,4,Pin_4*%
%TO.N,/BSRC2*%
X123825000Y-74930000D03*
%TO.P,J12,5,Pin_5*%
%TO.N,/BSRC3*%
X123825000Y-77470000D03*
%TO.P,J12,6,Pin_6*%
%TO.N,/BSRC4*%
X123825000Y-80010000D03*
%TO.P,J12,7,Pin_7*%
%TO.N,/BSRC5*%
X123825000Y-82550000D03*
%TO.P,J12,8,Pin_8*%
%TO.N,/BSRC6*%
X123825000Y-85090000D03*
%TO.P,J12,9,Pin_9*%
%TO.N,/BSRC7*%
X123825000Y-87630000D03*
%TD*%
D18*
%TO.P,J17,1,Pin_1*%
%TO.N,Net-(J17-Pin_1)*%
X65445000Y-70657500D03*
D19*
%TO.P,J17,2,Pin_2*%
%TO.N,GND*%
X70445000Y-70657500D03*
%TD*%
D20*
%TO.P,U1,1,A->B*%
%TO.N,Net-(U1-A->B)*%
X90170000Y-64770000D03*
D11*
%TO.P,U1,2,A0*%
%TO.N,/DST0*%
X90170000Y-67310000D03*
%TO.P,U1,3,A1*%
%TO.N,/DST1*%
X90170000Y-69850000D03*
%TO.P,U1,4,A2*%
%TO.N,/DST2*%
X90170000Y-72390000D03*
%TO.P,U1,5,A3*%
%TO.N,/DST3*%
X90170000Y-74930000D03*
%TO.P,U1,6,A4*%
%TO.N,/DST4*%
X90170000Y-77470000D03*
%TO.P,U1,7,A5*%
%TO.N,/DST5*%
X90170000Y-80010000D03*
%TO.P,U1,8,A6*%
%TO.N,/DST6*%
X90170000Y-82550000D03*
%TO.P,U1,9,A7*%
%TO.N,/DST7*%
X90170000Y-85090000D03*
%TO.P,U1,10,GND*%
%TO.N,GND*%
X90170000Y-87630000D03*
%TO.P,U1,11,B7*%
%TO.N,/BDST7*%
X97790000Y-87630000D03*
%TO.P,U1,12,B6*%
%TO.N,/BDST6*%
X97790000Y-85090000D03*
%TO.P,U1,13,B5*%
%TO.N,/BDST5*%
X97790000Y-82550000D03*
%TO.P,U1,14,B4*%
%TO.N,/BDST4*%
X97790000Y-80010000D03*
%TO.P,U1,15,B3*%
%TO.N,/BDST3*%
X97790000Y-77470000D03*
%TO.P,U1,16,B2*%
%TO.N,/BDST2*%
X97790000Y-74930000D03*
%TO.P,U1,17,B1*%
%TO.N,/BDST1*%
X97790000Y-72390000D03*
%TO.P,U1,18,B0*%
%TO.N,/BDST0*%
X97790000Y-69850000D03*
%TO.P,U1,19,CE*%
%TO.N,Net-(J15-Pin_1)*%
X97790000Y-67310000D03*
%TO.P,U1,20,VCC*%
%TO.N,VCC*%
X97790000Y-64770000D03*
%TD*%
D20*
%TO.P,J11,1,Pin_1*%
%TO.N,GND*%
X101600000Y-67310000D03*
D11*
%TO.P,J11,2,Pin_2*%
%TO.N,/BDST0*%
X101600000Y-69850000D03*
%TO.P,J11,3,Pin_3*%
%TO.N,/BDST1*%
X101600000Y-72390000D03*
%TO.P,J11,4,Pin_4*%
%TO.N,/BDST2*%
X101600000Y-74930000D03*
%TO.P,J11,5,Pin_5*%
%TO.N,/BDST3*%
X101600000Y-77470000D03*
%TO.P,J11,6,Pin_6*%
%TO.N,/BDST4*%
X101600000Y-80010000D03*
%TO.P,J11,7,Pin_7*%
%TO.N,/BDST5*%
X101600000Y-82550000D03*
%TO.P,J11,8,Pin_8*%
%TO.N,/BDST6*%
X101600000Y-85090000D03*
%TO.P,J11,9,Pin_9*%
%TO.N,/BDST7*%
X101600000Y-87630000D03*
%TD*%
D21*
%TO.P,J1,1,Pin_1*%
%TO.N,/DST0*%
X117700000Y-55880000D03*
%TO.P,J1,2,Pin_2*%
%TO.N,/SRC0*%
X121000000Y-53340000D03*
%TO.P,J1,3,Pin_3*%
%TO.N,unconnected-(J1-Pin_3-Pad3)*%
X117700000Y-50800000D03*
%TO.P,J1,4,Pin_4*%
%TO.N,VCC*%
X121000000Y-48260000D03*
%TO.P,J1,5,Pin_5*%
%TO.N,/S0.0*%
X117700000Y-45720000D03*
%TO.P,J1,6,Pin_6*%
%TO.N,/S0.1*%
X121000000Y-43180000D03*
%TO.P,J1,7,Pin_7*%
%TO.N,/S0.2*%
X117700000Y-40640000D03*
%TO.P,J1,8,Pin_8*%
%TO.N,/~E0*%
X121000000Y-38100000D03*
%TO.P,J1,9,Pin_9*%
%TO.N,/S1.0*%
X117700000Y-35560000D03*
%TO.P,J1,10,Pin_10*%
%TO.N,/S1.1*%
X121000000Y-33020000D03*
%TO.P,J1,11,Pin_11*%
%TO.N,/S1.2*%
X117700000Y-30480000D03*
%TO.P,J1,12,Pin_12*%
%TO.N,/~E1*%
X121000000Y-27940000D03*
%TO.P,J1,13,Pin_13*%
%TO.N,GND*%
X117700000Y-25400000D03*
%TD*%
D22*
%TO.P,C3,1*%
%TO.N,VCC*%
X126195000Y-55880000D03*
%TO.P,C3,2*%
%TO.N,GND*%
X128270000Y-55880000D03*
%TD*%
D23*
%TO.P,R6,1*%
%TO.N,Net-(D2-K)*%
X52165000Y-43180000D03*
%TO.P,R6,2*%
%TO.N,GND*%
X50165000Y-43180000D03*
%TD*%
D21*
%TO.P,J5,1,Pin_1*%
%TO.N,/DST4*%
X87250000Y-55880000D03*
%TO.P,J5,2,Pin_2*%
%TO.N,/SRC4*%
X90550000Y-53340000D03*
%TO.P,J5,3,Pin_3*%
%TO.N,unconnected-(J5-Pin_3-Pad3)*%
X87250000Y-50800000D03*
%TO.P,J5,4,Pin_4*%
%TO.N,VCC*%
X90550000Y-48260000D03*
%TO.P,J5,5,Pin_5*%
%TO.N,/S0.0*%
X87250000Y-45720000D03*
%TO.P,J5,6,Pin_6*%
%TO.N,/S0.1*%
X90550000Y-43180000D03*
%TO.P,J5,7,Pin_7*%
%TO.N,/S0.2*%
X87250000Y-40640000D03*
%TO.P,J5,8,Pin_8*%
%TO.N,/~E0*%
X90550000Y-38100000D03*
%TO.P,J5,9,Pin_9*%
%TO.N,/S1.0*%
X87250000Y-35560000D03*
%TO.P,J5,10,Pin_10*%
%TO.N,/S1.1*%
X90550000Y-33020000D03*
%TO.P,J5,11,Pin_11*%
%TO.N,/S1.2*%
X87250000Y-30480000D03*
%TO.P,J5,12,Pin_12*%
%TO.N,/~E1*%
X90550000Y-27940000D03*
%TO.P,J5,13,Pin_13*%
%TO.N,GND*%
X87250000Y-25400000D03*
%TD*%
D15*
%TO.P,C1,1*%
%TO.N,VCC*%
X93980000Y-71120000D03*
%TO.P,C1,2*%
%TO.N,GND*%
X93980000Y-86120000D03*
%TD*%
D21*
%TO.P,J3,1,Pin_1*%
%TO.N,/DST2*%
X102490000Y-55880000D03*
%TO.P,J3,2,Pin_2*%
%TO.N,/SRC2*%
X105790000Y-53340000D03*
%TO.P,J3,3,Pin_3*%
%TO.N,unconnected-(J3-Pin_3-Pad3)*%
X102490000Y-50800000D03*
%TO.P,J3,4,Pin_4*%
%TO.N,VCC*%
X105790000Y-48260000D03*
%TO.P,J3,5,Pin_5*%
%TO.N,/S0.0*%
X102490000Y-45720000D03*
%TO.P,J3,6,Pin_6*%
%TO.N,/S0.1*%
X105790000Y-43180000D03*
%TO.P,J3,7,Pin_7*%
%TO.N,/S0.2*%
X102490000Y-40640000D03*
%TO.P,J3,8,Pin_8*%
%TO.N,/~E0*%
X105790000Y-38100000D03*
%TO.P,J3,9,Pin_9*%
%TO.N,/S1.0*%
X102490000Y-35560000D03*
%TO.P,J3,10,Pin_10*%
%TO.N,/S1.1*%
X105790000Y-33020000D03*
%TO.P,J3,11,Pin_11*%
%TO.N,/S1.2*%
X102490000Y-30480000D03*
%TO.P,J3,12,Pin_12*%
%TO.N,/~E1*%
X105790000Y-27940000D03*
%TO.P,J3,13,Pin_13*%
%TO.N,GND*%
X102490000Y-25400000D03*
%TD*%
D23*
%TO.P,R10,1*%
%TO.N,Net-(D6-K)*%
X52165000Y-30480000D03*
%TO.P,R10,2*%
%TO.N,GND*%
X50165000Y-30480000D03*
%TD*%
%TO.P,R8,1*%
%TO.N,Net-(D4-K)*%
X52165000Y-35560000D03*
%TO.P,R8,2*%
%TO.N,GND*%
X50165000Y-35560000D03*
%TD*%
D24*
%TO.P,Q1,1,G*%
%TO.N,GND*%
X63500000Y-75880000D03*
%TO.P,Q1,2,S*%
%TO.N,VCC*%
X63500000Y-73980000D03*
%TO.P,Q1,3,D*%
%TO.N,Net-(J17-Pin_1)*%
X65375000Y-74930000D03*
%TD*%
D21*
%TO.P,J2,1,Pin_1*%
%TO.N,/DST1*%
X110110000Y-55880000D03*
%TO.P,J2,2,Pin_2*%
%TO.N,/SRC1*%
X113410000Y-53340000D03*
%TO.P,J2,3,Pin_3*%
%TO.N,unconnected-(J2-Pin_3-Pad3)*%
X110110000Y-50800000D03*
%TO.P,J2,4,Pin_4*%
%TO.N,VCC*%
X113410000Y-48260000D03*
%TO.P,J2,5,Pin_5*%
%TO.N,/S0.0*%
X110110000Y-45720000D03*
%TO.P,J2,6,Pin_6*%
%TO.N,/S0.1*%
X113410000Y-43180000D03*
%TO.P,J2,7,Pin_7*%
%TO.N,/S0.2*%
X110110000Y-40640000D03*
%TO.P,J2,8,Pin_8*%
%TO.N,/~E0*%
X113410000Y-38100000D03*
%TO.P,J2,9,Pin_9*%
%TO.N,/S1.0*%
X110110000Y-35560000D03*
%TO.P,J2,10,Pin_10*%
%TO.N,/S1.1*%
X113410000Y-33020000D03*
%TO.P,J2,11,Pin_11*%
%TO.N,/S1.2*%
X110110000Y-30480000D03*
%TO.P,J2,12,Pin_12*%
%TO.N,/~E1*%
X113410000Y-27940000D03*
%TO.P,J2,13,Pin_13*%
%TO.N,GND*%
X110110000Y-25400000D03*
%TD*%
%TO.P,J6,1,Pin_1*%
%TO.N,/DST5*%
X79630000Y-55880000D03*
%TO.P,J6,2,Pin_2*%
%TO.N,/SRC5*%
X82930000Y-53340000D03*
%TO.P,J6,3,Pin_3*%
%TO.N,unconnected-(J6-Pin_3-Pad3)*%
X79630000Y-50800000D03*
%TO.P,J6,4,Pin_4*%
%TO.N,VCC*%
X82930000Y-48260000D03*
%TO.P,J6,5,Pin_5*%
%TO.N,/S0.0*%
X79630000Y-45720000D03*
%TO.P,J6,6,Pin_6*%
%TO.N,/S0.1*%
X82930000Y-43180000D03*
%TO.P,J6,7,Pin_7*%
%TO.N,/S0.2*%
X79630000Y-40640000D03*
%TO.P,J6,8,Pin_8*%
%TO.N,/~E0*%
X82930000Y-38100000D03*
%TO.P,J6,9,Pin_9*%
%TO.N,/S1.0*%
X79630000Y-35560000D03*
%TO.P,J6,10,Pin_10*%
%TO.N,/S1.1*%
X82930000Y-33020000D03*
%TO.P,J6,11,Pin_11*%
%TO.N,/S1.2*%
X79630000Y-30480000D03*
%TO.P,J6,12,Pin_12*%
%TO.N,/~E1*%
X82930000Y-27940000D03*
%TO.P,J6,13,Pin_13*%
%TO.N,GND*%
X79630000Y-25400000D03*
%TD*%
%TO.P,J8,1,Pin_1*%
%TO.N,/DST7*%
X64390000Y-55880000D03*
%TO.P,J8,2,Pin_2*%
%TO.N,/SRC7*%
X67690000Y-53340000D03*
%TO.P,J8,3,Pin_3*%
%TO.N,unconnected-(J8-Pin_3-Pad3)*%
X64390000Y-50800000D03*
%TO.P,J8,4,Pin_4*%
%TO.N,VCC*%
X67690000Y-48260000D03*
%TO.P,J8,5,Pin_5*%
%TO.N,/S0.0*%
X64390000Y-45720000D03*
%TO.P,J8,6,Pin_6*%
%TO.N,/S0.1*%
X67690000Y-43180000D03*
%TO.P,J8,7,Pin_7*%
%TO.N,/S0.2*%
X64390000Y-40640000D03*
%TO.P,J8,8,Pin_8*%
%TO.N,/~E0*%
X67690000Y-38100000D03*
%TO.P,J8,9,Pin_9*%
%TO.N,/S1.0*%
X64390000Y-35560000D03*
%TO.P,J8,10,Pin_10*%
%TO.N,/S1.1*%
X67690000Y-33020000D03*
%TO.P,J8,11,Pin_11*%
%TO.N,/S1.2*%
X64390000Y-30480000D03*
%TO.P,J8,12,Pin_12*%
%TO.N,/~E1*%
X67690000Y-27940000D03*
%TO.P,J8,13,Pin_13*%
%TO.N,GND*%
X64390000Y-25400000D03*
%TD*%
D23*
%TO.P,R5,1*%
%TO.N,Net-(D1-K)*%
X52165000Y-45720000D03*
%TO.P,R5,2*%
%TO.N,GND*%
X50165000Y-45720000D03*
%TD*%
D15*
%TO.P,C2,1*%
%TO.N,VCC*%
X116205000Y-71240000D03*
%TO.P,C2,2*%
%TO.N,GND*%
X116205000Y-86240000D03*
%TD*%
D23*
%TO.P,R4,1*%
%TO.N,GND*%
X126365000Y-64770000D03*
%TO.P,R4,2*%
%TO.N,Net-(J16-Pin_1)*%
X124365000Y-64770000D03*
%TD*%
D21*
%TO.P,J4,1,Pin_1*%
%TO.N,/DST3*%
X94870000Y-55880000D03*
%TO.P,J4,2,Pin_2*%
%TO.N,/SRC3*%
X98170000Y-53340000D03*
%TO.P,J4,3,Pin_3*%
%TO.N,unconnected-(J4-Pin_3-Pad3)*%
X94870000Y-50800000D03*
%TO.P,J4,4,Pin_4*%
%TO.N,VCC*%
X98170000Y-48260000D03*
%TO.P,J4,5,Pin_5*%
%TO.N,/S0.0*%
X94870000Y-45720000D03*
%TO.P,J4,6,Pin_6*%
%TO.N,/S0.1*%
X98170000Y-43180000D03*
%TO.P,J4,7,Pin_7*%
%TO.N,/S0.2*%
X94870000Y-40640000D03*
%TO.P,J4,8,Pin_8*%
%TO.N,/~E0*%
X98170000Y-38100000D03*
%TO.P,J4,9,Pin_9*%
%TO.N,/S1.0*%
X94870000Y-35560000D03*
%TO.P,J4,10,Pin_10*%
%TO.N,/S1.1*%
X98170000Y-33020000D03*
%TO.P,J4,11,Pin_11*%
%TO.N,/S1.2*%
X94870000Y-30480000D03*
%TO.P,J4,12,Pin_12*%
%TO.N,/~E1*%
X98170000Y-27940000D03*
%TO.P,J4,13,Pin_13*%
%TO.N,GND*%
X94870000Y-25400000D03*
%TD*%
D23*
%TO.P,R3,1*%
%TO.N,GND*%
X104140000Y-64770000D03*
%TO.P,R3,2*%
%TO.N,Net-(J15-Pin_1)*%
X102140000Y-64770000D03*
%TD*%
%TO.P,R2,1*%
%TO.N,VCC*%
X117195600Y-64770000D03*
%TO.P,R2,2*%
%TO.N,Net-(U2-A->B)*%
X115195600Y-64770000D03*
%TD*%
D21*
%TO.P,J7,1,Pin_1*%
%TO.N,/DST6*%
X72010000Y-55880000D03*
%TO.P,J7,2,Pin_2*%
%TO.N,/SRC6*%
X75310000Y-53340000D03*
%TO.P,J7,3,Pin_3*%
%TO.N,unconnected-(J7-Pin_3-Pad3)*%
X72010000Y-50800000D03*
%TO.P,J7,4,Pin_4*%
%TO.N,VCC*%
X75310000Y-48260000D03*
%TO.P,J7,5,Pin_5*%
%TO.N,/S0.0*%
X72010000Y-45720000D03*
%TO.P,J7,6,Pin_6*%
%TO.N,/S0.1*%
X75310000Y-43180000D03*
%TO.P,J7,7,Pin_7*%
%TO.N,/S0.2*%
X72010000Y-40640000D03*
%TO.P,J7,8,Pin_8*%
%TO.N,/~E0*%
X75310000Y-38100000D03*
%TO.P,J7,9,Pin_9*%
%TO.N,/S1.0*%
X72010000Y-35560000D03*
%TO.P,J7,10,Pin_10*%
%TO.N,/S1.1*%
X75310000Y-33020000D03*
%TO.P,J7,11,Pin_11*%
%TO.N,/S1.2*%
X72010000Y-30480000D03*
%TO.P,J7,12,Pin_12*%
%TO.N,/~E1*%
X75310000Y-27940000D03*
%TO.P,J7,13,Pin_13*%
%TO.N,GND*%
X72010000Y-25400000D03*
%TD*%
D23*
%TO.P,R9,1*%
%TO.N,Net-(D5-K)*%
X52165000Y-33020000D03*
%TO.P,R9,2*%
%TO.N,GND*%
X50165000Y-33020000D03*
%TD*%
%TO.P,R1,1*%
%TO.N,VCC*%
X94980000Y-64770000D03*
%TO.P,R1,2*%
%TO.N,Net-(U1-A->B)*%
X92980000Y-64770000D03*
%TD*%
%TO.P,R7,1*%
%TO.N,Net-(D3-K)*%
X52165000Y-40640000D03*
%TO.P,R7,2*%
%TO.N,GND*%
X50165000Y-40640000D03*
%TD*%
D25*
%TO.N,VCC*%
X93980000Y-48260000D03*
X95250000Y-61595000D03*
%TD*%
D26*
%TO.N,VCC*%
X95250000Y-62865000D02*
X96520000Y-64135000D01*
X95250000Y-61595000D02*
X95250000Y-62865000D01*
X125095000Y-57150000D02*
X120015000Y-62230000D01*
D27*
%TO.N,/SRC2*%
X120650000Y-59690000D02*
X123190000Y-57150000D01*
%TO.N,/SRC0*%
X111125000Y-67310000D02*
X112395000Y-67310000D01*
X114935000Y-59690000D02*
X111125000Y-59690000D01*
X120015000Y-58277500D02*
X116347500Y-58277500D01*
X111125000Y-59690000D02*
X110490000Y-60325000D01*
X121000000Y-53340000D02*
X121000000Y-57292500D01*
X116347500Y-58277500D02*
X114935000Y-59690000D01*
X121000000Y-57292500D02*
X120015000Y-58277500D01*
X110490000Y-60325000D02*
X110490000Y-66675000D01*
X110490000Y-66675000D02*
X111125000Y-67310000D01*
%TO.N,/SRC2*%
X116205000Y-60960000D02*
X117475000Y-59690000D01*
X116205000Y-60960000D02*
X116205000Y-63500000D01*
X123190000Y-52070000D02*
X123190000Y-57150000D01*
X115570000Y-52070000D02*
X119380000Y-52070000D01*
X114935000Y-51435000D02*
X115570000Y-52070000D01*
X122555000Y-51435000D02*
X123190000Y-52070000D01*
X112395000Y-51435000D02*
X114935000Y-51435000D01*
X119380000Y-52070000D02*
X120015000Y-51435000D01*
X120015000Y-51435000D02*
X122555000Y-51435000D01*
X110490000Y-53340000D02*
X112395000Y-51435000D01*
X105790000Y-53340000D02*
X110490000Y-53340000D01*
X120650000Y-59690000D02*
X117475000Y-59690000D01*
%TO.N,/SRC1*%
X119380000Y-57150000D02*
X114935000Y-57150000D01*
X114935000Y-57150000D02*
X113665000Y-58420000D01*
X119380000Y-57150000D02*
X120015000Y-56515000D01*
X118110000Y-53340000D02*
X113410000Y-53340000D01*
X109220000Y-59690000D02*
X110490000Y-58420000D01*
X109220000Y-67310000D02*
X109220000Y-59690000D01*
X110490000Y-58420000D02*
X113665000Y-58420000D01*
X111760000Y-69850000D02*
X109220000Y-67310000D01*
X112395000Y-69850000D02*
X111760000Y-69850000D01*
X120015000Y-56515000D02*
X120015000Y-55245000D01*
X120015000Y-55245000D02*
X118110000Y-53340000D01*
%TO.N,/DST0*%
X109220000Y-57150000D02*
X107950000Y-58420000D01*
X112395000Y-57150000D02*
X109220000Y-57150000D01*
D26*
%TO.N,GND*%
X114935000Y-74295000D02*
X114935000Y-86240000D01*
D27*
X106680000Y-67945000D02*
X106680000Y-70485000D01*
X106680000Y-70485000D02*
X109855000Y-73660000D01*
X114300000Y-73660000D02*
X114935000Y-74295000D01*
X106045000Y-67310000D02*
X106680000Y-67945000D01*
X104140000Y-67310000D02*
X106045000Y-67310000D01*
X109855000Y-73660000D02*
X114300000Y-73660000D01*
%TO.N,/DST0*%
X91440000Y-67310000D02*
X90170000Y-67310000D01*
X92075000Y-67945000D02*
X91440000Y-67310000D01*
X92075000Y-72390000D02*
X92075000Y-67945000D01*
X92644000Y-72959000D02*
X92075000Y-72390000D01*
X95316000Y-72959000D02*
X92644000Y-72959000D01*
X95885000Y-72390000D02*
X95316000Y-72959000D01*
X95885000Y-66675000D02*
X95885000Y-72390000D01*
X96520000Y-66040000D02*
X95885000Y-66675000D01*
X99060000Y-66040000D02*
X96520000Y-66040000D01*
X100965000Y-58420000D02*
X99695000Y-59690000D01*
X99695000Y-59690000D02*
X99695000Y-65405000D01*
X113665000Y-55880000D02*
X112395000Y-57150000D01*
X99695000Y-65405000D02*
X99060000Y-66040000D01*
X117700000Y-55880000D02*
X113665000Y-55880000D01*
X107950000Y-58420000D02*
X100965000Y-58420000D01*
%TO.N,/DST1*%
X87630000Y-69850000D02*
X90170000Y-69850000D01*
X86995000Y-69215000D02*
X87630000Y-69850000D01*
X91440000Y-62230000D02*
X88265000Y-62230000D01*
X93980000Y-59690000D02*
X91440000Y-62230000D01*
X86995000Y-63500000D02*
X86995000Y-69215000D01*
X97790000Y-59690000D02*
X93980000Y-59690000D01*
X106680000Y-57150000D02*
X100330000Y-57150000D01*
X88265000Y-62230000D02*
X86995000Y-63500000D01*
X107950000Y-55880000D02*
X106680000Y-57150000D01*
X110110000Y-55880000D02*
X107950000Y-55880000D01*
X100330000Y-57150000D02*
X97790000Y-59690000D01*
%TO.N,/DST2*%
X86360000Y-72390000D02*
X90170000Y-72390000D01*
X85725000Y-71755000D02*
X86360000Y-72390000D01*
X85725000Y-62865000D02*
X85725000Y-71755000D01*
X93345000Y-58420000D02*
X90805000Y-60960000D01*
X87630000Y-60960000D02*
X85725000Y-62865000D01*
X97155000Y-58420000D02*
X93345000Y-58420000D01*
X102490000Y-55880000D02*
X99695000Y-55880000D01*
X99695000Y-55880000D02*
X97155000Y-58420000D01*
X90805000Y-60960000D02*
X87630000Y-60960000D01*
%TO.N,/SRC3*%
X96520000Y-57150000D02*
X98170000Y-55500000D01*
D26*
%TO.N,VCC*%
X125095000Y-55880000D02*
X126195000Y-55880000D01*
X125095000Y-55880000D02*
X125095000Y-57150000D01*
D27*
%TO.N,/SRC3*%
X106680000Y-74930000D02*
X112395000Y-74930000D01*
X96520000Y-73660000D02*
X105410000Y-73660000D01*
X95885000Y-74295000D02*
X96520000Y-73660000D01*
X105410000Y-73660000D02*
X106680000Y-74930000D01*
X91440000Y-73660000D02*
X92075000Y-74295000D01*
X92075000Y-74295000D02*
X95885000Y-74295000D01*
X85090000Y-73660000D02*
X91440000Y-73660000D01*
X84455000Y-62230000D02*
X84455000Y-73025000D01*
X92710000Y-57150000D02*
X90170000Y-59690000D01*
X84455000Y-73025000D02*
X85090000Y-73660000D01*
X96520000Y-57150000D02*
X92710000Y-57150000D01*
X90170000Y-59690000D02*
X86995000Y-59690000D01*
X98170000Y-53340000D02*
X98170000Y-55500000D01*
X86995000Y-59690000D02*
X84455000Y-62230000D01*
D26*
%TO.N,VCC*%
X96520000Y-64135000D02*
X96520000Y-64770000D01*
X96520000Y-64770000D02*
X97790000Y-64770000D01*
X96520000Y-48260000D02*
X120620000Y-48260000D01*
X67310000Y-48260000D02*
X96520000Y-48260000D01*
D27*
%TO.N,/SRC6*%
X90170000Y-81280000D02*
X105410000Y-81280000D01*
%TO.N,/SRC5*%
X90170000Y-78740000D02*
X80010000Y-78740000D01*
%TO.N,/SRC4*%
X90170000Y-76200000D02*
X82550000Y-76200000D01*
%TO.N,/DST5*%
X90170000Y-80010000D02*
X78740000Y-80010000D01*
%TO.N,/DST4*%
X90170000Y-77470000D02*
X81280000Y-77470000D01*
D26*
%TO.N,VCC*%
X93980000Y-66675000D02*
X94980000Y-65675000D01*
X93980000Y-71120000D02*
X93980000Y-66675000D01*
X94980000Y-65675000D02*
X94980000Y-64770000D01*
D27*
%TO.N,Net-(J15-Pin_1)*%
X99060000Y-67310000D02*
X97790000Y-67310000D01*
X101600000Y-64770000D02*
X99060000Y-67310000D01*
X102140000Y-64770000D02*
X101600000Y-64770000D01*
%TO.N,/DST3*%
X83185000Y-61595000D02*
X83185000Y-74295000D01*
X83820000Y-74930000D02*
X90170000Y-74930000D01*
X86360000Y-58420000D02*
X83185000Y-61595000D01*
X89535000Y-58420000D02*
X86360000Y-58420000D01*
X92075000Y-55880000D02*
X89535000Y-58420000D01*
X83185000Y-74295000D02*
X83820000Y-74930000D01*
X94870000Y-55880000D02*
X92075000Y-55880000D01*
%TO.N,/SRC4*%
X90550000Y-55500000D02*
X90550000Y-53340000D01*
X85725000Y-57150000D02*
X88900000Y-57150000D01*
X81915000Y-75565000D02*
X81915000Y-60960000D01*
X81915000Y-60960000D02*
X85725000Y-57150000D01*
X105410000Y-76200000D02*
X90170000Y-76200000D01*
X82550000Y-76200000D02*
X81915000Y-75565000D01*
X106680000Y-77470000D02*
X105410000Y-76200000D01*
X88900000Y-57150000D02*
X90550000Y-55500000D01*
X112395000Y-77470000D02*
X106680000Y-77470000D01*
%TO.N,/DST4*%
X85090000Y-55880000D02*
X87250000Y-55880000D01*
X80645000Y-60325000D02*
X85090000Y-55880000D01*
X81280000Y-77470000D02*
X80645000Y-76835000D01*
X80645000Y-76835000D02*
X80645000Y-60325000D01*
%TO.N,/SRC5*%
X82930000Y-55880000D02*
X82930000Y-53340000D01*
X80010000Y-78740000D02*
X79375000Y-78105000D01*
X105410000Y-78740000D02*
X90170000Y-78740000D01*
X79375000Y-78105000D02*
X79375000Y-59435000D01*
X79375000Y-59435000D02*
X82930000Y-55880000D01*
X106680000Y-80010000D02*
X105410000Y-78740000D01*
X112395000Y-80010000D02*
X106680000Y-80010000D01*
%TO.N,/DST5*%
X78105000Y-55880000D02*
X79630000Y-55880000D01*
X78105000Y-79375000D02*
X78105000Y-55880000D01*
X78740000Y-80010000D02*
X78105000Y-79375000D01*
%TO.N,/SRC6*%
X105410000Y-81280000D02*
X106680000Y-82550000D01*
X77470000Y-81280000D02*
X90170000Y-81280000D01*
X76835000Y-80645000D02*
X77470000Y-81280000D01*
X76835000Y-60325000D02*
X76835000Y-80645000D01*
X106680000Y-82550000D02*
X112395000Y-82550000D01*
X75310000Y-58800000D02*
X76835000Y-60325000D01*
X75310000Y-53340000D02*
X75310000Y-58800000D01*
%TO.N,/DST6*%
X76200000Y-82550000D02*
X90170000Y-82550000D01*
X72010000Y-57405000D02*
X75565000Y-60960000D01*
X72010000Y-55880000D02*
X72010000Y-57405000D01*
X75565000Y-60960000D02*
X75565000Y-81915000D01*
X75565000Y-81915000D02*
X76200000Y-82550000D01*
%TO.N,/SRC7*%
X106680000Y-85090000D02*
X112395000Y-85090000D01*
X74295000Y-83185000D02*
X74930000Y-83820000D01*
X74295000Y-63500000D02*
X74295000Y-83185000D01*
X74930000Y-83820000D02*
X90170000Y-83820000D01*
X105410000Y-83820000D02*
X106680000Y-85090000D01*
X67690000Y-56895000D02*
X74295000Y-63500000D01*
X67690000Y-53340000D02*
X67690000Y-56895000D01*
%TO.N,/DST7*%
X73025000Y-84455000D02*
X73660000Y-85090000D01*
X73025000Y-66040000D02*
X73025000Y-84455000D01*
X73660000Y-85090000D02*
X90170000Y-85090000D01*
X64390000Y-55880000D02*
X64390000Y-57405000D01*
X64390000Y-57405000D02*
X73025000Y-66040000D01*
%TO.N,/S0.0*%
X57880000Y-45720000D02*
X64390000Y-45720000D01*
%TO.N,/S0.1*%
X57880000Y-43180000D02*
X67690000Y-43180000D01*
%TO.N,/S0.2*%
X57880000Y-40640000D02*
X64390000Y-40640000D01*
%TO.N,Net-(D1-K)*%
X55340000Y-45720000D02*
X52165000Y-45720000D01*
%TO.N,Net-(D2-K)*%
X55340000Y-43180000D02*
X52165000Y-43180000D01*
%TO.N,Net-(D3-K)*%
X55340000Y-40640000D02*
X52165000Y-40640000D01*
%TO.N,/S1.0*%
X57880000Y-35560000D02*
X64390000Y-35560000D01*
%TO.N,/S1.1*%
X57880000Y-33020000D02*
X67690000Y-33020000D01*
%TO.N,/S1.2*%
X57880000Y-30480000D02*
X64390000Y-30480000D01*
%TO.N,Net-(D4-K)*%
X55340000Y-35560000D02*
X52165000Y-35560000D01*
%TO.N,Net-(D5-K)*%
X55340000Y-33020000D02*
X52165000Y-33020000D01*
%TO.N,Net-(D6-K)*%
X55340000Y-30480000D02*
X52165000Y-30480000D01*
D26*
%TO.N,/S1.0*%
X64770000Y-35560000D02*
X118080000Y-35560000D01*
D27*
X117700000Y-35560000D02*
X127635000Y-35560000D01*
%TO.N,/S0.1*%
X121000000Y-43180000D02*
X127635000Y-43180000D01*
D26*
X67945000Y-43180000D02*
X121255000Y-43180000D01*
D27*
%TO.N,/S1.1*%
X121000000Y-33020000D02*
X127635000Y-33020000D01*
D26*
X67310000Y-33020000D02*
X120620000Y-33020000D01*
%TO.N,VCC*%
X63500000Y-73980000D02*
X63500000Y-73025000D01*
X63500000Y-73025000D02*
X62230000Y-71755000D01*
X122555000Y-48260000D02*
X125095000Y-50800000D01*
X62230000Y-48895000D02*
X62865000Y-48260000D01*
X121000000Y-48260000D02*
X122555000Y-48260000D01*
X94980000Y-64770000D02*
X96520000Y-64770000D01*
X120015000Y-62230000D02*
X120015000Y-64770000D01*
D27*
X117157500Y-64770000D02*
X118745000Y-64770000D01*
X118745000Y-64770000D02*
X118745000Y-66040000D01*
D26*
X125095000Y-50800000D02*
X125095000Y-55880000D01*
X62865000Y-48260000D02*
X67690000Y-48260000D01*
X62230000Y-71755000D02*
X62230000Y-48895000D01*
D27*
X116205000Y-68580000D02*
X116205000Y-71240000D01*
X118745000Y-64770000D02*
X120015000Y-64770000D01*
X118745000Y-66040000D02*
X116205000Y-68580000D01*
D26*
%TO.N,/S1.2*%
X64135000Y-30480000D02*
X117445000Y-30480000D01*
D27*
X117700000Y-30480000D02*
X127635000Y-30480000D01*
D26*
%TO.N,/S0.2*%
X64770000Y-40640000D02*
X118080000Y-40640000D01*
D27*
X117700000Y-40640000D02*
X127635000Y-40640000D01*
D26*
%TO.N,/~E0*%
X67310000Y-38100000D02*
X120620000Y-38100000D01*
%TO.N,/~E1*%
X67325000Y-27940000D02*
X120635000Y-27940000D01*
D28*
%TO.N,GND*%
X112395000Y-90170000D02*
X114935000Y-90170000D01*
X59690000Y-78105000D02*
X59690000Y-83185000D01*
D27*
X104140000Y-64770000D02*
X104140000Y-67310000D01*
D28*
X69215000Y-78105000D02*
X63500000Y-78105000D01*
D27*
X126365000Y-64770000D02*
X126365000Y-67310000D01*
D26*
X93345000Y-87630000D02*
X90170000Y-87630000D01*
D28*
X63500000Y-78105000D02*
X59690000Y-78105000D01*
D26*
X93980000Y-86995000D02*
X93345000Y-87630000D01*
D28*
X70445000Y-76875000D02*
X69215000Y-78105000D01*
X90170000Y-87630000D02*
X90170000Y-90170000D01*
X70445000Y-70657500D02*
X70445000Y-76875000D01*
D26*
X63500000Y-75880000D02*
X63500000Y-78105000D01*
D28*
X59690000Y-83185000D02*
X64135000Y-87630000D01*
X114935000Y-90170000D02*
X128235000Y-90170000D01*
X59690000Y-49530000D02*
X59690000Y-78105000D01*
X50165000Y-49530000D02*
X59690000Y-49530000D01*
D27*
X123825000Y-67310000D02*
X126365000Y-67310000D01*
D28*
X112395000Y-90170000D02*
X112395000Y-87630000D01*
D26*
X128270000Y-55880000D02*
X128270000Y-67310000D01*
X128270000Y-67310000D02*
X128270000Y-90170000D01*
X93980000Y-86120000D02*
X93980000Y-86995000D01*
D28*
X64135000Y-87630000D02*
X90170000Y-87630000D01*
D27*
X101600000Y-67310000D02*
X104140000Y-67310000D01*
D26*
X116205000Y-86240000D02*
X114935000Y-86240000D01*
X64770000Y-25400000D02*
X118080000Y-25400000D01*
X113665000Y-87630000D02*
X112395000Y-87630000D01*
X113665000Y-87630000D02*
X114935000Y-86240000D01*
X126365000Y-67310000D02*
X128270000Y-67310000D01*
D28*
X90170000Y-90170000D02*
X112395000Y-90170000D01*
X50165000Y-25400000D02*
X50165000Y-49530000D01*
X64390000Y-25400000D02*
X50165000Y-25400000D01*
D27*
%TO.N,/S0.0*%
X117700000Y-45720000D02*
X127635000Y-45720000D01*
D26*
X64135000Y-45720000D02*
X117445000Y-45720000D01*
D27*
%TO.N,/SRC2*%
X116205000Y-66040000D02*
X116205000Y-66675000D01*
X113665000Y-72390000D02*
X114300000Y-71755000D01*
X116205000Y-66675000D02*
X114300000Y-68580000D01*
X113665000Y-72390000D02*
X112395000Y-72390000D01*
X114300000Y-68580000D02*
X114300000Y-71755000D01*
D29*
X116205000Y-66040000D02*
X116205000Y-63500000D01*
D27*
%TO.N,/BDST7*%
X97790000Y-87630000D02*
X101600000Y-87630000D01*
X101600000Y-87630000D02*
X104140000Y-87630000D01*
%TO.N,/BDST6*%
X101600000Y-85090000D02*
X104140000Y-85090000D01*
X97790000Y-85090000D02*
X101600000Y-85090000D01*
%TO.N,Net-(J15-Pin_1)*%
X102235000Y-64675000D02*
X102140000Y-64770000D01*
X102235000Y-61595000D02*
X102235000Y-64675000D01*
%TO.N,/BDST0*%
X101600000Y-69850000D02*
X104140000Y-69850000D01*
X97790000Y-69850000D02*
X101600000Y-69850000D01*
%TO.N,/BDST4*%
X97790000Y-80010000D02*
X101600000Y-80010000D01*
X101600000Y-80010000D02*
X104140000Y-80010000D01*
%TO.N,/BDST5*%
X97790000Y-82550000D02*
X101600000Y-82550000D01*
X101600000Y-82550000D02*
X104140000Y-82550000D01*
%TO.N,Net-(J16-Pin_1)*%
X124460000Y-64675000D02*
X124365000Y-64770000D01*
X123190000Y-64770000D02*
X120650000Y-67310000D01*
X124460000Y-61595000D02*
X124460000Y-64675000D01*
X124365000Y-64770000D02*
X123190000Y-64770000D01*
X120650000Y-67310000D02*
X120015000Y-67310000D01*
%TO.N,/BDST2*%
X97790000Y-74930000D02*
X101600000Y-74930000D01*
X101600000Y-74930000D02*
X104140000Y-74930000D01*
%TO.N,/BDST1*%
X97790000Y-72390000D02*
X101600000Y-72390000D01*
X101600000Y-72390000D02*
X104140000Y-72390000D01*
%TO.N,/BDST3*%
X101600000Y-77470000D02*
X104140000Y-77470000D01*
X97790000Y-77470000D02*
X101600000Y-77470000D01*
%TO.N,/BSRC4*%
X120015000Y-80010000D02*
X126365000Y-80010000D01*
%TO.N,Net-(U1-A->B)*%
X92980000Y-64770000D02*
X90170000Y-64770000D01*
%TO.N,Net-(U2-A->B)*%
X115046250Y-64770000D02*
X112283750Y-64770000D01*
%TO.N,/BSRC5*%
X120015000Y-82550000D02*
X126365000Y-82550000D01*
%TO.N,/BSRC3*%
X120015000Y-77470000D02*
X126365000Y-77470000D01*
%TO.N,/BSRC2*%
X120015000Y-74930000D02*
X126365000Y-74930000D01*
%TO.N,/BSRC6*%
X120015000Y-85090000D02*
X126365000Y-85090000D01*
%TO.N,/BSRC7*%
X120015000Y-87630000D02*
X126365000Y-87630000D01*
%TO.N,/BSRC0*%
X120015000Y-69850000D02*
X126365000Y-69850000D01*
%TO.N,/BSRC1*%
X120015000Y-72390000D02*
X126365000Y-72390000D01*
D26*
%TO.N,Net-(J17-Pin_1)*%
X65375000Y-70727500D02*
X65445000Y-70657500D01*
X65375000Y-74930000D02*
X65375000Y-70727500D01*
D27*
%TO.N,/SRC7*%
X90170000Y-83820000D02*
X105410000Y-83820000D01*
%TD*%
M02*
