%TF.GenerationSoftware,KiCad,Pcbnew,9.0.6*%
%TF.CreationDate,2026-03-31T01:16:32+03:00*%
%TF.ProjectId,EndPlate,456e6450-6c61-4746-952e-6b696361645f,rev?*%
%TF.SameCoordinates,Original*%
%TF.FileFunction,Legend,Bot*%
%TF.FilePolarity,Positive*%
%FSLAX46Y46*%
G04 Gerber Fmt 4.6, Leading zero omitted, Abs format (unit mm)*
G04 Created by KiCad (PCBNEW 9.0.6) date 2026-03-31 01:16:32*
%MOMM*%
%LPD*%
G01*
G04 APERTURE LIST*
%ADD10C,0.150000*%
%ADD11C,0.120000*%
G04 APERTURE END LIST*
D10*
X46065839Y-33477200D02*
X45922982Y-33524819D01*
X45922982Y-33524819D02*
X45684887Y-33524819D01*
X45684887Y-33524819D02*
X45589649Y-33477200D01*
X45589649Y-33477200D02*
X45542030Y-33429580D01*
X45542030Y-33429580D02*
X45494411Y-33334342D01*
X45494411Y-33334342D02*
X45494411Y-33239104D01*
X45494411Y-33239104D02*
X45542030Y-33143866D01*
X45542030Y-33143866D02*
X45589649Y-33096247D01*
X45589649Y-33096247D02*
X45684887Y-33048628D01*
X45684887Y-33048628D02*
X45875363Y-33001009D01*
X45875363Y-33001009D02*
X45970601Y-32953390D01*
X45970601Y-32953390D02*
X46018220Y-32905771D01*
X46018220Y-32905771D02*
X46065839Y-32810533D01*
X46065839Y-32810533D02*
X46065839Y-32715295D01*
X46065839Y-32715295D02*
X46018220Y-32620057D01*
X46018220Y-32620057D02*
X45970601Y-32572438D01*
X45970601Y-32572438D02*
X45875363Y-32524819D01*
X45875363Y-32524819D02*
X45637268Y-32524819D01*
X45637268Y-32524819D02*
X45494411Y-32572438D01*
X44542030Y-33524819D02*
X45113458Y-33524819D01*
X44827744Y-33524819D02*
X44827744Y-32524819D01*
X44827744Y-32524819D02*
X44922982Y-32667676D01*
X44922982Y-32667676D02*
X45018220Y-32762914D01*
X45018220Y-32762914D02*
X45113458Y-32810533D01*
X44113458Y-33429580D02*
X44065839Y-33477200D01*
X44065839Y-33477200D02*
X44113458Y-33524819D01*
X44113458Y-33524819D02*
X44161077Y-33477200D01*
X44161077Y-33477200D02*
X44113458Y-33429580D01*
X44113458Y-33429580D02*
X44113458Y-33524819D01*
X43113459Y-33524819D02*
X43684887Y-33524819D01*
X43399173Y-33524819D02*
X43399173Y-32524819D01*
X43399173Y-32524819D02*
X43494411Y-32667676D01*
X43494411Y-32667676D02*
X43589649Y-32762914D01*
X43589649Y-32762914D02*
X43684887Y-32810533D01*
X46018220Y-38509580D02*
X45970601Y-38557200D01*
X45970601Y-38557200D02*
X46018220Y-38604819D01*
X46018220Y-38604819D02*
X46065839Y-38557200D01*
X46065839Y-38557200D02*
X46018220Y-38509580D01*
X46018220Y-38509580D02*
X46018220Y-38604819D01*
X46018220Y-38223866D02*
X46065839Y-37652438D01*
X46065839Y-37652438D02*
X46018220Y-37604819D01*
X46018220Y-37604819D02*
X45970601Y-37652438D01*
X45970601Y-37652438D02*
X46018220Y-38223866D01*
X46018220Y-38223866D02*
X46018220Y-37604819D01*
X45542030Y-38081009D02*
X45208697Y-38081009D01*
X45065840Y-38604819D02*
X45542030Y-38604819D01*
X45542030Y-38604819D02*
X45542030Y-37604819D01*
X45542030Y-37604819D02*
X45065840Y-37604819D01*
X44446792Y-37604819D02*
X44351554Y-37604819D01*
X44351554Y-37604819D02*
X44256316Y-37652438D01*
X44256316Y-37652438D02*
X44208697Y-37700057D01*
X44208697Y-37700057D02*
X44161078Y-37795295D01*
X44161078Y-37795295D02*
X44113459Y-37985771D01*
X44113459Y-37985771D02*
X44113459Y-38223866D01*
X44113459Y-38223866D02*
X44161078Y-38414342D01*
X44161078Y-38414342D02*
X44208697Y-38509580D01*
X44208697Y-38509580D02*
X44256316Y-38557200D01*
X44256316Y-38557200D02*
X44351554Y-38604819D01*
X44351554Y-38604819D02*
X44446792Y-38604819D01*
X44446792Y-38604819D02*
X44542030Y-38557200D01*
X44542030Y-38557200D02*
X44589649Y-38509580D01*
X44589649Y-38509580D02*
X44637268Y-38414342D01*
X44637268Y-38414342D02*
X44684887Y-38223866D01*
X44684887Y-38223866D02*
X44684887Y-37985771D01*
X44684887Y-37985771D02*
X44637268Y-37795295D01*
X44637268Y-37795295D02*
X44589649Y-37700057D01*
X44589649Y-37700057D02*
X44542030Y-37652438D01*
X44542030Y-37652438D02*
X44446792Y-37604819D01*
X46065839Y-41097200D02*
X45922982Y-41144819D01*
X45922982Y-41144819D02*
X45684887Y-41144819D01*
X45684887Y-41144819D02*
X45589649Y-41097200D01*
X45589649Y-41097200D02*
X45542030Y-41049580D01*
X45542030Y-41049580D02*
X45494411Y-40954342D01*
X45494411Y-40954342D02*
X45494411Y-40859104D01*
X45494411Y-40859104D02*
X45542030Y-40763866D01*
X45542030Y-40763866D02*
X45589649Y-40716247D01*
X45589649Y-40716247D02*
X45684887Y-40668628D01*
X45684887Y-40668628D02*
X45875363Y-40621009D01*
X45875363Y-40621009D02*
X45970601Y-40573390D01*
X45970601Y-40573390D02*
X46018220Y-40525771D01*
X46018220Y-40525771D02*
X46065839Y-40430533D01*
X46065839Y-40430533D02*
X46065839Y-40335295D01*
X46065839Y-40335295D02*
X46018220Y-40240057D01*
X46018220Y-40240057D02*
X45970601Y-40192438D01*
X45970601Y-40192438D02*
X45875363Y-40144819D01*
X45875363Y-40144819D02*
X45637268Y-40144819D01*
X45637268Y-40144819D02*
X45494411Y-40192438D01*
X44875363Y-40144819D02*
X44780125Y-40144819D01*
X44780125Y-40144819D02*
X44684887Y-40192438D01*
X44684887Y-40192438D02*
X44637268Y-40240057D01*
X44637268Y-40240057D02*
X44589649Y-40335295D01*
X44589649Y-40335295D02*
X44542030Y-40525771D01*
X44542030Y-40525771D02*
X44542030Y-40763866D01*
X44542030Y-40763866D02*
X44589649Y-40954342D01*
X44589649Y-40954342D02*
X44637268Y-41049580D01*
X44637268Y-41049580D02*
X44684887Y-41097200D01*
X44684887Y-41097200D02*
X44780125Y-41144819D01*
X44780125Y-41144819D02*
X44875363Y-41144819D01*
X44875363Y-41144819D02*
X44970601Y-41097200D01*
X44970601Y-41097200D02*
X45018220Y-41049580D01*
X45018220Y-41049580D02*
X45065839Y-40954342D01*
X45065839Y-40954342D02*
X45113458Y-40763866D01*
X45113458Y-40763866D02*
X45113458Y-40525771D01*
X45113458Y-40525771D02*
X45065839Y-40335295D01*
X45065839Y-40335295D02*
X45018220Y-40240057D01*
X45018220Y-40240057D02*
X44970601Y-40192438D01*
X44970601Y-40192438D02*
X44875363Y-40144819D01*
X44113458Y-41049580D02*
X44065839Y-41097200D01*
X44065839Y-41097200D02*
X44113458Y-41144819D01*
X44113458Y-41144819D02*
X44161077Y-41097200D01*
X44161077Y-41097200D02*
X44113458Y-41049580D01*
X44113458Y-41049580D02*
X44113458Y-41144819D01*
X43684887Y-40240057D02*
X43637268Y-40192438D01*
X43637268Y-40192438D02*
X43542030Y-40144819D01*
X43542030Y-40144819D02*
X43303935Y-40144819D01*
X43303935Y-40144819D02*
X43208697Y-40192438D01*
X43208697Y-40192438D02*
X43161078Y-40240057D01*
X43161078Y-40240057D02*
X43113459Y-40335295D01*
X43113459Y-40335295D02*
X43113459Y-40430533D01*
X43113459Y-40430533D02*
X43161078Y-40573390D01*
X43161078Y-40573390D02*
X43732506Y-41144819D01*
X43732506Y-41144819D02*
X43113459Y-41144819D01*
X46018220Y-28349580D02*
X45970601Y-28397200D01*
X45970601Y-28397200D02*
X46018220Y-28444819D01*
X46018220Y-28444819D02*
X46065839Y-28397200D01*
X46065839Y-28397200D02*
X46018220Y-28349580D01*
X46018220Y-28349580D02*
X46018220Y-28444819D01*
X46018220Y-28063866D02*
X46065839Y-27492438D01*
X46065839Y-27492438D02*
X46018220Y-27444819D01*
X46018220Y-27444819D02*
X45970601Y-27492438D01*
X45970601Y-27492438D02*
X46018220Y-28063866D01*
X46018220Y-28063866D02*
X46018220Y-27444819D01*
X45542030Y-27921009D02*
X45208697Y-27921009D01*
X45065840Y-28444819D02*
X45542030Y-28444819D01*
X45542030Y-28444819D02*
X45542030Y-27444819D01*
X45542030Y-27444819D02*
X45065840Y-27444819D01*
X44113459Y-28444819D02*
X44684887Y-28444819D01*
X44399173Y-28444819D02*
X44399173Y-27444819D01*
X44399173Y-27444819D02*
X44494411Y-27587676D01*
X44494411Y-27587676D02*
X44589649Y-27682914D01*
X44589649Y-27682914D02*
X44684887Y-27730533D01*
X46065839Y-43637200D02*
X45922982Y-43684819D01*
X45922982Y-43684819D02*
X45684887Y-43684819D01*
X45684887Y-43684819D02*
X45589649Y-43637200D01*
X45589649Y-43637200D02*
X45542030Y-43589580D01*
X45542030Y-43589580D02*
X45494411Y-43494342D01*
X45494411Y-43494342D02*
X45494411Y-43399104D01*
X45494411Y-43399104D02*
X45542030Y-43303866D01*
X45542030Y-43303866D02*
X45589649Y-43256247D01*
X45589649Y-43256247D02*
X45684887Y-43208628D01*
X45684887Y-43208628D02*
X45875363Y-43161009D01*
X45875363Y-43161009D02*
X45970601Y-43113390D01*
X45970601Y-43113390D02*
X46018220Y-43065771D01*
X46018220Y-43065771D02*
X46065839Y-42970533D01*
X46065839Y-42970533D02*
X46065839Y-42875295D01*
X46065839Y-42875295D02*
X46018220Y-42780057D01*
X46018220Y-42780057D02*
X45970601Y-42732438D01*
X45970601Y-42732438D02*
X45875363Y-42684819D01*
X45875363Y-42684819D02*
X45637268Y-42684819D01*
X45637268Y-42684819D02*
X45494411Y-42732438D01*
X44875363Y-42684819D02*
X44780125Y-42684819D01*
X44780125Y-42684819D02*
X44684887Y-42732438D01*
X44684887Y-42732438D02*
X44637268Y-42780057D01*
X44637268Y-42780057D02*
X44589649Y-42875295D01*
X44589649Y-42875295D02*
X44542030Y-43065771D01*
X44542030Y-43065771D02*
X44542030Y-43303866D01*
X44542030Y-43303866D02*
X44589649Y-43494342D01*
X44589649Y-43494342D02*
X44637268Y-43589580D01*
X44637268Y-43589580D02*
X44684887Y-43637200D01*
X44684887Y-43637200D02*
X44780125Y-43684819D01*
X44780125Y-43684819D02*
X44875363Y-43684819D01*
X44875363Y-43684819D02*
X44970601Y-43637200D01*
X44970601Y-43637200D02*
X45018220Y-43589580D01*
X45018220Y-43589580D02*
X45065839Y-43494342D01*
X45065839Y-43494342D02*
X45113458Y-43303866D01*
X45113458Y-43303866D02*
X45113458Y-43065771D01*
X45113458Y-43065771D02*
X45065839Y-42875295D01*
X45065839Y-42875295D02*
X45018220Y-42780057D01*
X45018220Y-42780057D02*
X44970601Y-42732438D01*
X44970601Y-42732438D02*
X44875363Y-42684819D01*
X44113458Y-43589580D02*
X44065839Y-43637200D01*
X44065839Y-43637200D02*
X44113458Y-43684819D01*
X44113458Y-43684819D02*
X44161077Y-43637200D01*
X44161077Y-43637200D02*
X44113458Y-43589580D01*
X44113458Y-43589580D02*
X44113458Y-43684819D01*
X43113459Y-43684819D02*
X43684887Y-43684819D01*
X43399173Y-43684819D02*
X43399173Y-42684819D01*
X43399173Y-42684819D02*
X43494411Y-42827676D01*
X43494411Y-42827676D02*
X43589649Y-42922914D01*
X43589649Y-42922914D02*
X43684887Y-42970533D01*
X46018220Y-56384819D02*
X46018220Y-55384819D01*
X46018220Y-55384819D02*
X45780125Y-55384819D01*
X45780125Y-55384819D02*
X45637268Y-55432438D01*
X45637268Y-55432438D02*
X45542030Y-55527676D01*
X45542030Y-55527676D02*
X45494411Y-55622914D01*
X45494411Y-55622914D02*
X45446792Y-55813390D01*
X45446792Y-55813390D02*
X45446792Y-55956247D01*
X45446792Y-55956247D02*
X45494411Y-56146723D01*
X45494411Y-56146723D02*
X45542030Y-56241961D01*
X45542030Y-56241961D02*
X45637268Y-56337200D01*
X45637268Y-56337200D02*
X45780125Y-56384819D01*
X45780125Y-56384819D02*
X46018220Y-56384819D01*
X45065839Y-56337200D02*
X44922982Y-56384819D01*
X44922982Y-56384819D02*
X44684887Y-56384819D01*
X44684887Y-56384819D02*
X44589649Y-56337200D01*
X44589649Y-56337200D02*
X44542030Y-56289580D01*
X44542030Y-56289580D02*
X44494411Y-56194342D01*
X44494411Y-56194342D02*
X44494411Y-56099104D01*
X44494411Y-56099104D02*
X44542030Y-56003866D01*
X44542030Y-56003866D02*
X44589649Y-55956247D01*
X44589649Y-55956247D02*
X44684887Y-55908628D01*
X44684887Y-55908628D02*
X44875363Y-55861009D01*
X44875363Y-55861009D02*
X44970601Y-55813390D01*
X44970601Y-55813390D02*
X45018220Y-55765771D01*
X45018220Y-55765771D02*
X45065839Y-55670533D01*
X45065839Y-55670533D02*
X45065839Y-55575295D01*
X45065839Y-55575295D02*
X45018220Y-55480057D01*
X45018220Y-55480057D02*
X44970601Y-55432438D01*
X44970601Y-55432438D02*
X44875363Y-55384819D01*
X44875363Y-55384819D02*
X44637268Y-55384819D01*
X44637268Y-55384819D02*
X44494411Y-55432438D01*
X44208696Y-55384819D02*
X43637268Y-55384819D01*
X43922982Y-56384819D02*
X43922982Y-55384819D01*
X43399172Y-56384819D02*
X42875363Y-55718152D01*
X43399172Y-55718152D02*
X42875363Y-56384819D01*
X46161077Y-47764819D02*
X45827744Y-48764819D01*
X45827744Y-48764819D02*
X45494411Y-47764819D01*
X44732506Y-48717200D02*
X44827744Y-48764819D01*
X44827744Y-48764819D02*
X45018220Y-48764819D01*
X45018220Y-48764819D02*
X45113458Y-48717200D01*
X45113458Y-48717200D02*
X45161077Y-48669580D01*
X45161077Y-48669580D02*
X45208696Y-48574342D01*
X45208696Y-48574342D02*
X45208696Y-48288628D01*
X45208696Y-48288628D02*
X45161077Y-48193390D01*
X45161077Y-48193390D02*
X45113458Y-48145771D01*
X45113458Y-48145771D02*
X45018220Y-48098152D01*
X45018220Y-48098152D02*
X44827744Y-48098152D01*
X44827744Y-48098152D02*
X44732506Y-48145771D01*
X43875363Y-48717200D02*
X43970601Y-48764819D01*
X43970601Y-48764819D02*
X44161077Y-48764819D01*
X44161077Y-48764819D02*
X44256315Y-48717200D01*
X44256315Y-48717200D02*
X44303934Y-48669580D01*
X44303934Y-48669580D02*
X44351553Y-48574342D01*
X44351553Y-48574342D02*
X44351553Y-48288628D01*
X44351553Y-48288628D02*
X44303934Y-48193390D01*
X44303934Y-48193390D02*
X44256315Y-48145771D01*
X44256315Y-48145771D02*
X44161077Y-48098152D01*
X44161077Y-48098152D02*
X43970601Y-48098152D01*
X43970601Y-48098152D02*
X43875363Y-48145771D01*
X45494411Y-24952438D02*
X45589649Y-24904819D01*
X45589649Y-24904819D02*
X45732506Y-24904819D01*
X45732506Y-24904819D02*
X45875363Y-24952438D01*
X45875363Y-24952438D02*
X45970601Y-25047676D01*
X45970601Y-25047676D02*
X46018220Y-25142914D01*
X46018220Y-25142914D02*
X46065839Y-25333390D01*
X46065839Y-25333390D02*
X46065839Y-25476247D01*
X46065839Y-25476247D02*
X46018220Y-25666723D01*
X46018220Y-25666723D02*
X45970601Y-25761961D01*
X45970601Y-25761961D02*
X45875363Y-25857200D01*
X45875363Y-25857200D02*
X45732506Y-25904819D01*
X45732506Y-25904819D02*
X45637268Y-25904819D01*
X45637268Y-25904819D02*
X45494411Y-25857200D01*
X45494411Y-25857200D02*
X45446792Y-25809580D01*
X45446792Y-25809580D02*
X45446792Y-25476247D01*
X45446792Y-25476247D02*
X45637268Y-25476247D01*
X45018220Y-25238152D02*
X45018220Y-25904819D01*
X45018220Y-25333390D02*
X44970601Y-25285771D01*
X44970601Y-25285771D02*
X44875363Y-25238152D01*
X44875363Y-25238152D02*
X44732506Y-25238152D01*
X44732506Y-25238152D02*
X44637268Y-25285771D01*
X44637268Y-25285771D02*
X44589649Y-25381009D01*
X44589649Y-25381009D02*
X44589649Y-25904819D01*
X43684887Y-25904819D02*
X43684887Y-24904819D01*
X43684887Y-25857200D02*
X43780125Y-25904819D01*
X43780125Y-25904819D02*
X43970601Y-25904819D01*
X43970601Y-25904819D02*
X44065839Y-25857200D01*
X44065839Y-25857200D02*
X44113458Y-25809580D01*
X44113458Y-25809580D02*
X44161077Y-25714342D01*
X44161077Y-25714342D02*
X44161077Y-25428628D01*
X44161077Y-25428628D02*
X44113458Y-25333390D01*
X44113458Y-25333390D02*
X44065839Y-25285771D01*
X44065839Y-25285771D02*
X43970601Y-25238152D01*
X43970601Y-25238152D02*
X43780125Y-25238152D01*
X43780125Y-25238152D02*
X43684887Y-25285771D01*
X46065839Y-46177200D02*
X45922982Y-46224819D01*
X45922982Y-46224819D02*
X45684887Y-46224819D01*
X45684887Y-46224819D02*
X45589649Y-46177200D01*
X45589649Y-46177200D02*
X45542030Y-46129580D01*
X45542030Y-46129580D02*
X45494411Y-46034342D01*
X45494411Y-46034342D02*
X45494411Y-45939104D01*
X45494411Y-45939104D02*
X45542030Y-45843866D01*
X45542030Y-45843866D02*
X45589649Y-45796247D01*
X45589649Y-45796247D02*
X45684887Y-45748628D01*
X45684887Y-45748628D02*
X45875363Y-45701009D01*
X45875363Y-45701009D02*
X45970601Y-45653390D01*
X45970601Y-45653390D02*
X46018220Y-45605771D01*
X46018220Y-45605771D02*
X46065839Y-45510533D01*
X46065839Y-45510533D02*
X46065839Y-45415295D01*
X46065839Y-45415295D02*
X46018220Y-45320057D01*
X46018220Y-45320057D02*
X45970601Y-45272438D01*
X45970601Y-45272438D02*
X45875363Y-45224819D01*
X45875363Y-45224819D02*
X45637268Y-45224819D01*
X45637268Y-45224819D02*
X45494411Y-45272438D01*
X44875363Y-45224819D02*
X44780125Y-45224819D01*
X44780125Y-45224819D02*
X44684887Y-45272438D01*
X44684887Y-45272438D02*
X44637268Y-45320057D01*
X44637268Y-45320057D02*
X44589649Y-45415295D01*
X44589649Y-45415295D02*
X44542030Y-45605771D01*
X44542030Y-45605771D02*
X44542030Y-45843866D01*
X44542030Y-45843866D02*
X44589649Y-46034342D01*
X44589649Y-46034342D02*
X44637268Y-46129580D01*
X44637268Y-46129580D02*
X44684887Y-46177200D01*
X44684887Y-46177200D02*
X44780125Y-46224819D01*
X44780125Y-46224819D02*
X44875363Y-46224819D01*
X44875363Y-46224819D02*
X44970601Y-46177200D01*
X44970601Y-46177200D02*
X45018220Y-46129580D01*
X45018220Y-46129580D02*
X45065839Y-46034342D01*
X45065839Y-46034342D02*
X45113458Y-45843866D01*
X45113458Y-45843866D02*
X45113458Y-45605771D01*
X45113458Y-45605771D02*
X45065839Y-45415295D01*
X45065839Y-45415295D02*
X45018220Y-45320057D01*
X45018220Y-45320057D02*
X44970601Y-45272438D01*
X44970601Y-45272438D02*
X44875363Y-45224819D01*
X44113458Y-46129580D02*
X44065839Y-46177200D01*
X44065839Y-46177200D02*
X44113458Y-46224819D01*
X44113458Y-46224819D02*
X44161077Y-46177200D01*
X44161077Y-46177200D02*
X44113458Y-46129580D01*
X44113458Y-46129580D02*
X44113458Y-46224819D01*
X43446792Y-45224819D02*
X43351554Y-45224819D01*
X43351554Y-45224819D02*
X43256316Y-45272438D01*
X43256316Y-45272438D02*
X43208697Y-45320057D01*
X43208697Y-45320057D02*
X43161078Y-45415295D01*
X43161078Y-45415295D02*
X43113459Y-45605771D01*
X43113459Y-45605771D02*
X43113459Y-45843866D01*
X43113459Y-45843866D02*
X43161078Y-46034342D01*
X43161078Y-46034342D02*
X43208697Y-46129580D01*
X43208697Y-46129580D02*
X43256316Y-46177200D01*
X43256316Y-46177200D02*
X43351554Y-46224819D01*
X43351554Y-46224819D02*
X43446792Y-46224819D01*
X43446792Y-46224819D02*
X43542030Y-46177200D01*
X43542030Y-46177200D02*
X43589649Y-46129580D01*
X43589649Y-46129580D02*
X43637268Y-46034342D01*
X43637268Y-46034342D02*
X43684887Y-45843866D01*
X43684887Y-45843866D02*
X43684887Y-45605771D01*
X43684887Y-45605771D02*
X43637268Y-45415295D01*
X43637268Y-45415295D02*
X43589649Y-45320057D01*
X43589649Y-45320057D02*
X43542030Y-45272438D01*
X43542030Y-45272438D02*
X43446792Y-45224819D01*
X46065839Y-30937200D02*
X45922982Y-30984819D01*
X45922982Y-30984819D02*
X45684887Y-30984819D01*
X45684887Y-30984819D02*
X45589649Y-30937200D01*
X45589649Y-30937200D02*
X45542030Y-30889580D01*
X45542030Y-30889580D02*
X45494411Y-30794342D01*
X45494411Y-30794342D02*
X45494411Y-30699104D01*
X45494411Y-30699104D02*
X45542030Y-30603866D01*
X45542030Y-30603866D02*
X45589649Y-30556247D01*
X45589649Y-30556247D02*
X45684887Y-30508628D01*
X45684887Y-30508628D02*
X45875363Y-30461009D01*
X45875363Y-30461009D02*
X45970601Y-30413390D01*
X45970601Y-30413390D02*
X46018220Y-30365771D01*
X46018220Y-30365771D02*
X46065839Y-30270533D01*
X46065839Y-30270533D02*
X46065839Y-30175295D01*
X46065839Y-30175295D02*
X46018220Y-30080057D01*
X46018220Y-30080057D02*
X45970601Y-30032438D01*
X45970601Y-30032438D02*
X45875363Y-29984819D01*
X45875363Y-29984819D02*
X45637268Y-29984819D01*
X45637268Y-29984819D02*
X45494411Y-30032438D01*
X44542030Y-30984819D02*
X45113458Y-30984819D01*
X44827744Y-30984819D02*
X44827744Y-29984819D01*
X44827744Y-29984819D02*
X44922982Y-30127676D01*
X44922982Y-30127676D02*
X45018220Y-30222914D01*
X45018220Y-30222914D02*
X45113458Y-30270533D01*
X44113458Y-30889580D02*
X44065839Y-30937200D01*
X44065839Y-30937200D02*
X44113458Y-30984819D01*
X44113458Y-30984819D02*
X44161077Y-30937200D01*
X44161077Y-30937200D02*
X44113458Y-30889580D01*
X44113458Y-30889580D02*
X44113458Y-30984819D01*
X43684887Y-30080057D02*
X43637268Y-30032438D01*
X43637268Y-30032438D02*
X43542030Y-29984819D01*
X43542030Y-29984819D02*
X43303935Y-29984819D01*
X43303935Y-29984819D02*
X43208697Y-30032438D01*
X43208697Y-30032438D02*
X43161078Y-30080057D01*
X43161078Y-30080057D02*
X43113459Y-30175295D01*
X43113459Y-30175295D02*
X43113459Y-30270533D01*
X43113459Y-30270533D02*
X43161078Y-30413390D01*
X43161078Y-30413390D02*
X43732506Y-30984819D01*
X43732506Y-30984819D02*
X43113459Y-30984819D01*
X46065839Y-53797200D02*
X45922982Y-53844819D01*
X45922982Y-53844819D02*
X45684887Y-53844819D01*
X45684887Y-53844819D02*
X45589649Y-53797200D01*
X45589649Y-53797200D02*
X45542030Y-53749580D01*
X45542030Y-53749580D02*
X45494411Y-53654342D01*
X45494411Y-53654342D02*
X45494411Y-53559104D01*
X45494411Y-53559104D02*
X45542030Y-53463866D01*
X45542030Y-53463866D02*
X45589649Y-53416247D01*
X45589649Y-53416247D02*
X45684887Y-53368628D01*
X45684887Y-53368628D02*
X45875363Y-53321009D01*
X45875363Y-53321009D02*
X45970601Y-53273390D01*
X45970601Y-53273390D02*
X46018220Y-53225771D01*
X46018220Y-53225771D02*
X46065839Y-53130533D01*
X46065839Y-53130533D02*
X46065839Y-53035295D01*
X46065839Y-53035295D02*
X46018220Y-52940057D01*
X46018220Y-52940057D02*
X45970601Y-52892438D01*
X45970601Y-52892438D02*
X45875363Y-52844819D01*
X45875363Y-52844819D02*
X45637268Y-52844819D01*
X45637268Y-52844819D02*
X45494411Y-52892438D01*
X44494411Y-53844819D02*
X44827744Y-53368628D01*
X45065839Y-53844819D02*
X45065839Y-52844819D01*
X45065839Y-52844819D02*
X44684887Y-52844819D01*
X44684887Y-52844819D02*
X44589649Y-52892438D01*
X44589649Y-52892438D02*
X44542030Y-52940057D01*
X44542030Y-52940057D02*
X44494411Y-53035295D01*
X44494411Y-53035295D02*
X44494411Y-53178152D01*
X44494411Y-53178152D02*
X44542030Y-53273390D01*
X44542030Y-53273390D02*
X44589649Y-53321009D01*
X44589649Y-53321009D02*
X44684887Y-53368628D01*
X44684887Y-53368628D02*
X45065839Y-53368628D01*
X43494411Y-53749580D02*
X43542030Y-53797200D01*
X43542030Y-53797200D02*
X43684887Y-53844819D01*
X43684887Y-53844819D02*
X43780125Y-53844819D01*
X43780125Y-53844819D02*
X43922982Y-53797200D01*
X43922982Y-53797200D02*
X44018220Y-53701961D01*
X44018220Y-53701961D02*
X44065839Y-53606723D01*
X44065839Y-53606723D02*
X44113458Y-53416247D01*
X44113458Y-53416247D02*
X44113458Y-53273390D01*
X44113458Y-53273390D02*
X44065839Y-53082914D01*
X44065839Y-53082914D02*
X44018220Y-52987676D01*
X44018220Y-52987676D02*
X43922982Y-52892438D01*
X43922982Y-52892438D02*
X43780125Y-52844819D01*
X43780125Y-52844819D02*
X43684887Y-52844819D01*
X43684887Y-52844819D02*
X43542030Y-52892438D01*
X43542030Y-52892438D02*
X43494411Y-52940057D01*
X43161077Y-53844819D02*
X42637268Y-53178152D01*
X43161077Y-53178152D02*
X42637268Y-53844819D01*
X46065839Y-36017200D02*
X45922982Y-36064819D01*
X45922982Y-36064819D02*
X45684887Y-36064819D01*
X45684887Y-36064819D02*
X45589649Y-36017200D01*
X45589649Y-36017200D02*
X45542030Y-35969580D01*
X45542030Y-35969580D02*
X45494411Y-35874342D01*
X45494411Y-35874342D02*
X45494411Y-35779104D01*
X45494411Y-35779104D02*
X45542030Y-35683866D01*
X45542030Y-35683866D02*
X45589649Y-35636247D01*
X45589649Y-35636247D02*
X45684887Y-35588628D01*
X45684887Y-35588628D02*
X45875363Y-35541009D01*
X45875363Y-35541009D02*
X45970601Y-35493390D01*
X45970601Y-35493390D02*
X46018220Y-35445771D01*
X46018220Y-35445771D02*
X46065839Y-35350533D01*
X46065839Y-35350533D02*
X46065839Y-35255295D01*
X46065839Y-35255295D02*
X46018220Y-35160057D01*
X46018220Y-35160057D02*
X45970601Y-35112438D01*
X45970601Y-35112438D02*
X45875363Y-35064819D01*
X45875363Y-35064819D02*
X45637268Y-35064819D01*
X45637268Y-35064819D02*
X45494411Y-35112438D01*
X44542030Y-36064819D02*
X45113458Y-36064819D01*
X44827744Y-36064819D02*
X44827744Y-35064819D01*
X44827744Y-35064819D02*
X44922982Y-35207676D01*
X44922982Y-35207676D02*
X45018220Y-35302914D01*
X45018220Y-35302914D02*
X45113458Y-35350533D01*
X44113458Y-35969580D02*
X44065839Y-36017200D01*
X44065839Y-36017200D02*
X44113458Y-36064819D01*
X44113458Y-36064819D02*
X44161077Y-36017200D01*
X44161077Y-36017200D02*
X44113458Y-35969580D01*
X44113458Y-35969580D02*
X44113458Y-36064819D01*
X43446792Y-35064819D02*
X43351554Y-35064819D01*
X43351554Y-35064819D02*
X43256316Y-35112438D01*
X43256316Y-35112438D02*
X43208697Y-35160057D01*
X43208697Y-35160057D02*
X43161078Y-35255295D01*
X43161078Y-35255295D02*
X43113459Y-35445771D01*
X43113459Y-35445771D02*
X43113459Y-35683866D01*
X43113459Y-35683866D02*
X43161078Y-35874342D01*
X43161078Y-35874342D02*
X43208697Y-35969580D01*
X43208697Y-35969580D02*
X43256316Y-36017200D01*
X43256316Y-36017200D02*
X43351554Y-36064819D01*
X43351554Y-36064819D02*
X43446792Y-36064819D01*
X43446792Y-36064819D02*
X43542030Y-36017200D01*
X43542030Y-36017200D02*
X43589649Y-35969580D01*
X43589649Y-35969580D02*
X43637268Y-35874342D01*
X43637268Y-35874342D02*
X43684887Y-35683866D01*
X43684887Y-35683866D02*
X43684887Y-35445771D01*
X43684887Y-35445771D02*
X43637268Y-35255295D01*
X43637268Y-35255295D02*
X43589649Y-35160057D01*
X43589649Y-35160057D02*
X43542030Y-35112438D01*
X43542030Y-35112438D02*
X43446792Y-35064819D01*
X46018220Y-51304819D02*
X46018220Y-50304819D01*
X46018220Y-50304819D02*
X45446792Y-51304819D01*
X45446792Y-51304819D02*
X45446792Y-50304819D01*
X44399173Y-51209580D02*
X44446792Y-51257200D01*
X44446792Y-51257200D02*
X44589649Y-51304819D01*
X44589649Y-51304819D02*
X44684887Y-51304819D01*
X44684887Y-51304819D02*
X44827744Y-51257200D01*
X44827744Y-51257200D02*
X44922982Y-51161961D01*
X44922982Y-51161961D02*
X44970601Y-51066723D01*
X44970601Y-51066723D02*
X45018220Y-50876247D01*
X45018220Y-50876247D02*
X45018220Y-50733390D01*
X45018220Y-50733390D02*
X44970601Y-50542914D01*
X44970601Y-50542914D02*
X44922982Y-50447676D01*
X44922982Y-50447676D02*
X44827744Y-50352438D01*
X44827744Y-50352438D02*
X44684887Y-50304819D01*
X44684887Y-50304819D02*
X44589649Y-50304819D01*
X44589649Y-50304819D02*
X44446792Y-50352438D01*
X44446792Y-50352438D02*
X44399173Y-50400057D01*
X111694166Y-57919580D02*
X111741785Y-57967200D01*
X111741785Y-57967200D02*
X111884642Y-58014819D01*
X111884642Y-58014819D02*
X111979880Y-58014819D01*
X111979880Y-58014819D02*
X112122737Y-57967200D01*
X112122737Y-57967200D02*
X112217975Y-57871961D01*
X112217975Y-57871961D02*
X112265594Y-57776723D01*
X112265594Y-57776723D02*
X112313213Y-57586247D01*
X112313213Y-57586247D02*
X112313213Y-57443390D01*
X112313213Y-57443390D02*
X112265594Y-57252914D01*
X112265594Y-57252914D02*
X112217975Y-57157676D01*
X112217975Y-57157676D02*
X112122737Y-57062438D01*
X112122737Y-57062438D02*
X111979880Y-57014819D01*
X111979880Y-57014819D02*
X111884642Y-57014819D01*
X111884642Y-57014819D02*
X111741785Y-57062438D01*
X111741785Y-57062438D02*
X111694166Y-57110057D01*
X111360832Y-57014819D02*
X110741785Y-57014819D01*
X110741785Y-57014819D02*
X111075118Y-57395771D01*
X111075118Y-57395771D02*
X110932261Y-57395771D01*
X110932261Y-57395771D02*
X110837023Y-57443390D01*
X110837023Y-57443390D02*
X110789404Y-57491009D01*
X110789404Y-57491009D02*
X110741785Y-57586247D01*
X110741785Y-57586247D02*
X110741785Y-57824342D01*
X110741785Y-57824342D02*
X110789404Y-57919580D01*
X110789404Y-57919580D02*
X110837023Y-57967200D01*
X110837023Y-57967200D02*
X110932261Y-58014819D01*
X110932261Y-58014819D02*
X111217975Y-58014819D01*
X111217975Y-58014819D02*
X111313213Y-57967200D01*
X111313213Y-57967200D02*
X111360832Y-57919580D01*
X104443333Y-58204819D02*
X104443333Y-58919104D01*
X104443333Y-58919104D02*
X104490952Y-59061961D01*
X104490952Y-59061961D02*
X104586190Y-59157200D01*
X104586190Y-59157200D02*
X104729047Y-59204819D01*
X104729047Y-59204819D02*
X104824285Y-59204819D01*
X103443333Y-59204819D02*
X104014761Y-59204819D01*
X103729047Y-59204819D02*
X103729047Y-58204819D01*
X103729047Y-58204819D02*
X103824285Y-58347676D01*
X103824285Y-58347676D02*
X103919523Y-58442914D01*
X103919523Y-58442914D02*
X104014761Y-58490533D01*
X73993333Y-58204819D02*
X73993333Y-58919104D01*
X73993333Y-58919104D02*
X74040952Y-59061961D01*
X74040952Y-59061961D02*
X74136190Y-59157200D01*
X74136190Y-59157200D02*
X74279047Y-59204819D01*
X74279047Y-59204819D02*
X74374285Y-59204819D01*
X73040952Y-58204819D02*
X73517142Y-58204819D01*
X73517142Y-58204819D02*
X73564761Y-58681009D01*
X73564761Y-58681009D02*
X73517142Y-58633390D01*
X73517142Y-58633390D02*
X73421904Y-58585771D01*
X73421904Y-58585771D02*
X73183809Y-58585771D01*
X73183809Y-58585771D02*
X73088571Y-58633390D01*
X73088571Y-58633390D02*
X73040952Y-58681009D01*
X73040952Y-58681009D02*
X72993333Y-58776247D01*
X72993333Y-58776247D02*
X72993333Y-59014342D01*
X72993333Y-59014342D02*
X73040952Y-59109580D01*
X73040952Y-59109580D02*
X73088571Y-59157200D01*
X73088571Y-59157200D02*
X73183809Y-59204819D01*
X73183809Y-59204819D02*
X73421904Y-59204819D01*
X73421904Y-59204819D02*
X73517142Y-59157200D01*
X73517142Y-59157200D02*
X73564761Y-59109580D01*
X76559580Y-78453333D02*
X76607200Y-78405714D01*
X76607200Y-78405714D02*
X76654819Y-78262857D01*
X76654819Y-78262857D02*
X76654819Y-78167619D01*
X76654819Y-78167619D02*
X76607200Y-78024762D01*
X76607200Y-78024762D02*
X76511961Y-77929524D01*
X76511961Y-77929524D02*
X76416723Y-77881905D01*
X76416723Y-77881905D02*
X76226247Y-77834286D01*
X76226247Y-77834286D02*
X76083390Y-77834286D01*
X76083390Y-77834286D02*
X75892914Y-77881905D01*
X75892914Y-77881905D02*
X75797676Y-77929524D01*
X75797676Y-77929524D02*
X75702438Y-78024762D01*
X75702438Y-78024762D02*
X75654819Y-78167619D01*
X75654819Y-78167619D02*
X75654819Y-78262857D01*
X75654819Y-78262857D02*
X75702438Y-78405714D01*
X75702438Y-78405714D02*
X75750057Y-78453333D01*
X76654819Y-79405714D02*
X76654819Y-78834286D01*
X76654819Y-79120000D02*
X75654819Y-79120000D01*
X75654819Y-79120000D02*
X75797676Y-79024762D01*
X75797676Y-79024762D02*
X75892914Y-78929524D01*
X75892914Y-78929524D02*
X75940533Y-78834286D01*
X89233333Y-58204819D02*
X89233333Y-58919104D01*
X89233333Y-58919104D02*
X89280952Y-59061961D01*
X89280952Y-59061961D02*
X89376190Y-59157200D01*
X89376190Y-59157200D02*
X89519047Y-59204819D01*
X89519047Y-59204819D02*
X89614285Y-59204819D01*
X88852380Y-58204819D02*
X88233333Y-58204819D01*
X88233333Y-58204819D02*
X88566666Y-58585771D01*
X88566666Y-58585771D02*
X88423809Y-58585771D01*
X88423809Y-58585771D02*
X88328571Y-58633390D01*
X88328571Y-58633390D02*
X88280952Y-58681009D01*
X88280952Y-58681009D02*
X88233333Y-58776247D01*
X88233333Y-58776247D02*
X88233333Y-59014342D01*
X88233333Y-59014342D02*
X88280952Y-59109580D01*
X88280952Y-59109580D02*
X88328571Y-59157200D01*
X88328571Y-59157200D02*
X88423809Y-59204819D01*
X88423809Y-59204819D02*
X88709523Y-59204819D01*
X88709523Y-59204819D02*
X88804761Y-59157200D01*
X88804761Y-59157200D02*
X88852380Y-59109580D01*
X49292738Y-77880057D02*
X49387976Y-77832438D01*
X49387976Y-77832438D02*
X49483214Y-77737200D01*
X49483214Y-77737200D02*
X49626071Y-77594342D01*
X49626071Y-77594342D02*
X49721309Y-77546723D01*
X49721309Y-77546723D02*
X49816547Y-77546723D01*
X49768928Y-77784819D02*
X49864166Y-77737200D01*
X49864166Y-77737200D02*
X49959404Y-77641961D01*
X49959404Y-77641961D02*
X50007023Y-77451485D01*
X50007023Y-77451485D02*
X50007023Y-77118152D01*
X50007023Y-77118152D02*
X49959404Y-76927676D01*
X49959404Y-76927676D02*
X49864166Y-76832438D01*
X49864166Y-76832438D02*
X49768928Y-76784819D01*
X49768928Y-76784819D02*
X49578452Y-76784819D01*
X49578452Y-76784819D02*
X49483214Y-76832438D01*
X49483214Y-76832438D02*
X49387976Y-76927676D01*
X49387976Y-76927676D02*
X49340357Y-77118152D01*
X49340357Y-77118152D02*
X49340357Y-77451485D01*
X49340357Y-77451485D02*
X49387976Y-77641961D01*
X49387976Y-77641961D02*
X49483214Y-77737200D01*
X49483214Y-77737200D02*
X49578452Y-77784819D01*
X49578452Y-77784819D02*
X49768928Y-77784819D01*
X48387976Y-77784819D02*
X48959404Y-77784819D01*
X48673690Y-77784819D02*
X48673690Y-76784819D01*
X48673690Y-76784819D02*
X48768928Y-76927676D01*
X48768928Y-76927676D02*
X48864166Y-77022914D01*
X48864166Y-77022914D02*
X48959404Y-77070533D01*
X96853333Y-58204819D02*
X96853333Y-58919104D01*
X96853333Y-58919104D02*
X96900952Y-59061961D01*
X96900952Y-59061961D02*
X96996190Y-59157200D01*
X96996190Y-59157200D02*
X97139047Y-59204819D01*
X97139047Y-59204819D02*
X97234285Y-59204819D01*
X96424761Y-58300057D02*
X96377142Y-58252438D01*
X96377142Y-58252438D02*
X96281904Y-58204819D01*
X96281904Y-58204819D02*
X96043809Y-58204819D01*
X96043809Y-58204819D02*
X95948571Y-58252438D01*
X95948571Y-58252438D02*
X95900952Y-58300057D01*
X95900952Y-58300057D02*
X95853333Y-58395295D01*
X95853333Y-58395295D02*
X95853333Y-58490533D01*
X95853333Y-58490533D02*
X95900952Y-58633390D01*
X95900952Y-58633390D02*
X96472380Y-59204819D01*
X96472380Y-59204819D02*
X95853333Y-59204819D01*
X66373333Y-58204819D02*
X66373333Y-58919104D01*
X66373333Y-58919104D02*
X66420952Y-59061961D01*
X66420952Y-59061961D02*
X66516190Y-59157200D01*
X66516190Y-59157200D02*
X66659047Y-59204819D01*
X66659047Y-59204819D02*
X66754285Y-59204819D01*
X65468571Y-58204819D02*
X65659047Y-58204819D01*
X65659047Y-58204819D02*
X65754285Y-58252438D01*
X65754285Y-58252438D02*
X65801904Y-58300057D01*
X65801904Y-58300057D02*
X65897142Y-58442914D01*
X65897142Y-58442914D02*
X65944761Y-58633390D01*
X65944761Y-58633390D02*
X65944761Y-59014342D01*
X65944761Y-59014342D02*
X65897142Y-59109580D01*
X65897142Y-59109580D02*
X65849523Y-59157200D01*
X65849523Y-59157200D02*
X65754285Y-59204819D01*
X65754285Y-59204819D02*
X65563809Y-59204819D01*
X65563809Y-59204819D02*
X65468571Y-59157200D01*
X65468571Y-59157200D02*
X65420952Y-59109580D01*
X65420952Y-59109580D02*
X65373333Y-59014342D01*
X65373333Y-59014342D02*
X65373333Y-58776247D01*
X65373333Y-58776247D02*
X65420952Y-58681009D01*
X65420952Y-58681009D02*
X65468571Y-58633390D01*
X65468571Y-58633390D02*
X65563809Y-58585771D01*
X65563809Y-58585771D02*
X65754285Y-58585771D01*
X65754285Y-58585771D02*
X65849523Y-58633390D01*
X65849523Y-58633390D02*
X65897142Y-58681009D01*
X65897142Y-58681009D02*
X65944761Y-58776247D01*
X51133333Y-58204819D02*
X51133333Y-58919104D01*
X51133333Y-58919104D02*
X51180952Y-59061961D01*
X51180952Y-59061961D02*
X51276190Y-59157200D01*
X51276190Y-59157200D02*
X51419047Y-59204819D01*
X51419047Y-59204819D02*
X51514285Y-59204819D01*
X50514285Y-58633390D02*
X50609523Y-58585771D01*
X50609523Y-58585771D02*
X50657142Y-58538152D01*
X50657142Y-58538152D02*
X50704761Y-58442914D01*
X50704761Y-58442914D02*
X50704761Y-58395295D01*
X50704761Y-58395295D02*
X50657142Y-58300057D01*
X50657142Y-58300057D02*
X50609523Y-58252438D01*
X50609523Y-58252438D02*
X50514285Y-58204819D01*
X50514285Y-58204819D02*
X50323809Y-58204819D01*
X50323809Y-58204819D02*
X50228571Y-58252438D01*
X50228571Y-58252438D02*
X50180952Y-58300057D01*
X50180952Y-58300057D02*
X50133333Y-58395295D01*
X50133333Y-58395295D02*
X50133333Y-58442914D01*
X50133333Y-58442914D02*
X50180952Y-58538152D01*
X50180952Y-58538152D02*
X50228571Y-58585771D01*
X50228571Y-58585771D02*
X50323809Y-58633390D01*
X50323809Y-58633390D02*
X50514285Y-58633390D01*
X50514285Y-58633390D02*
X50609523Y-58681009D01*
X50609523Y-58681009D02*
X50657142Y-58728628D01*
X50657142Y-58728628D02*
X50704761Y-58823866D01*
X50704761Y-58823866D02*
X50704761Y-59014342D01*
X50704761Y-59014342D02*
X50657142Y-59109580D01*
X50657142Y-59109580D02*
X50609523Y-59157200D01*
X50609523Y-59157200D02*
X50514285Y-59204819D01*
X50514285Y-59204819D02*
X50323809Y-59204819D01*
X50323809Y-59204819D02*
X50228571Y-59157200D01*
X50228571Y-59157200D02*
X50180952Y-59109580D01*
X50180952Y-59109580D02*
X50133333Y-59014342D01*
X50133333Y-59014342D02*
X50133333Y-58823866D01*
X50133333Y-58823866D02*
X50180952Y-58728628D01*
X50180952Y-58728628D02*
X50228571Y-58681009D01*
X50228571Y-58681009D02*
X50323809Y-58633390D01*
X96879580Y-78573333D02*
X96927200Y-78525714D01*
X96927200Y-78525714D02*
X96974819Y-78382857D01*
X96974819Y-78382857D02*
X96974819Y-78287619D01*
X96974819Y-78287619D02*
X96927200Y-78144762D01*
X96927200Y-78144762D02*
X96831961Y-78049524D01*
X96831961Y-78049524D02*
X96736723Y-78001905D01*
X96736723Y-78001905D02*
X96546247Y-77954286D01*
X96546247Y-77954286D02*
X96403390Y-77954286D01*
X96403390Y-77954286D02*
X96212914Y-78001905D01*
X96212914Y-78001905D02*
X96117676Y-78049524D01*
X96117676Y-78049524D02*
X96022438Y-78144762D01*
X96022438Y-78144762D02*
X95974819Y-78287619D01*
X95974819Y-78287619D02*
X95974819Y-78382857D01*
X95974819Y-78382857D02*
X96022438Y-78525714D01*
X96022438Y-78525714D02*
X96070057Y-78573333D01*
X96070057Y-78954286D02*
X96022438Y-79001905D01*
X96022438Y-79001905D02*
X95974819Y-79097143D01*
X95974819Y-79097143D02*
X95974819Y-79335238D01*
X95974819Y-79335238D02*
X96022438Y-79430476D01*
X96022438Y-79430476D02*
X96070057Y-79478095D01*
X96070057Y-79478095D02*
X96165295Y-79525714D01*
X96165295Y-79525714D02*
X96260533Y-79525714D01*
X96260533Y-79525714D02*
X96403390Y-79478095D01*
X96403390Y-79478095D02*
X96974819Y-78906667D01*
X96974819Y-78906667D02*
X96974819Y-79525714D01*
X112196666Y-63574819D02*
X112529999Y-63098628D01*
X112768094Y-63574819D02*
X112768094Y-62574819D01*
X112768094Y-62574819D02*
X112387142Y-62574819D01*
X112387142Y-62574819D02*
X112291904Y-62622438D01*
X112291904Y-62622438D02*
X112244285Y-62670057D01*
X112244285Y-62670057D02*
X112196666Y-62765295D01*
X112196666Y-62765295D02*
X112196666Y-62908152D01*
X112196666Y-62908152D02*
X112244285Y-63003390D01*
X112244285Y-63003390D02*
X112291904Y-63051009D01*
X112291904Y-63051009D02*
X112387142Y-63098628D01*
X112387142Y-63098628D02*
X112768094Y-63098628D01*
X111339523Y-62908152D02*
X111339523Y-63574819D01*
X111577618Y-62527200D02*
X111815713Y-63241485D01*
X111815713Y-63241485D02*
X111196666Y-63241485D01*
X81613333Y-58204819D02*
X81613333Y-58919104D01*
X81613333Y-58919104D02*
X81660952Y-59061961D01*
X81660952Y-59061961D02*
X81756190Y-59157200D01*
X81756190Y-59157200D02*
X81899047Y-59204819D01*
X81899047Y-59204819D02*
X81994285Y-59204819D01*
X80708571Y-58538152D02*
X80708571Y-59204819D01*
X80946666Y-58157200D02*
X81184761Y-58871485D01*
X81184761Y-58871485D02*
X80565714Y-58871485D01*
X94146666Y-63574819D02*
X94479999Y-63098628D01*
X94718094Y-63574819D02*
X94718094Y-62574819D01*
X94718094Y-62574819D02*
X94337142Y-62574819D01*
X94337142Y-62574819D02*
X94241904Y-62622438D01*
X94241904Y-62622438D02*
X94194285Y-62670057D01*
X94194285Y-62670057D02*
X94146666Y-62765295D01*
X94146666Y-62765295D02*
X94146666Y-62908152D01*
X94146666Y-62908152D02*
X94194285Y-63003390D01*
X94194285Y-63003390D02*
X94241904Y-63051009D01*
X94241904Y-63051009D02*
X94337142Y-63098628D01*
X94337142Y-63098628D02*
X94718094Y-63098628D01*
X93813332Y-62574819D02*
X93194285Y-62574819D01*
X93194285Y-62574819D02*
X93527618Y-62955771D01*
X93527618Y-62955771D02*
X93384761Y-62955771D01*
X93384761Y-62955771D02*
X93289523Y-63003390D01*
X93289523Y-63003390D02*
X93241904Y-63051009D01*
X93241904Y-63051009D02*
X93194285Y-63146247D01*
X93194285Y-63146247D02*
X93194285Y-63384342D01*
X93194285Y-63384342D02*
X93241904Y-63479580D01*
X93241904Y-63479580D02*
X93289523Y-63527200D01*
X93289523Y-63527200D02*
X93384761Y-63574819D01*
X93384761Y-63574819D02*
X93670475Y-63574819D01*
X93670475Y-63574819D02*
X93765713Y-63527200D01*
X93765713Y-63527200D02*
X93813332Y-63479580D01*
X103027266Y-63574819D02*
X103360599Y-63098628D01*
X103598694Y-63574819D02*
X103598694Y-62574819D01*
X103598694Y-62574819D02*
X103217742Y-62574819D01*
X103217742Y-62574819D02*
X103122504Y-62622438D01*
X103122504Y-62622438D02*
X103074885Y-62670057D01*
X103074885Y-62670057D02*
X103027266Y-62765295D01*
X103027266Y-62765295D02*
X103027266Y-62908152D01*
X103027266Y-62908152D02*
X103074885Y-63003390D01*
X103074885Y-63003390D02*
X103122504Y-63051009D01*
X103122504Y-63051009D02*
X103217742Y-63098628D01*
X103217742Y-63098628D02*
X103598694Y-63098628D01*
X102646313Y-62670057D02*
X102598694Y-62622438D01*
X102598694Y-62622438D02*
X102503456Y-62574819D01*
X102503456Y-62574819D02*
X102265361Y-62574819D01*
X102265361Y-62574819D02*
X102170123Y-62622438D01*
X102170123Y-62622438D02*
X102122504Y-62670057D01*
X102122504Y-62670057D02*
X102074885Y-62765295D01*
X102074885Y-62765295D02*
X102074885Y-62860533D01*
X102074885Y-62860533D02*
X102122504Y-63003390D01*
X102122504Y-63003390D02*
X102693932Y-63574819D01*
X102693932Y-63574819D02*
X102074885Y-63574819D01*
X58753333Y-58204819D02*
X58753333Y-58919104D01*
X58753333Y-58919104D02*
X58800952Y-59061961D01*
X58800952Y-59061961D02*
X58896190Y-59157200D01*
X58896190Y-59157200D02*
X59039047Y-59204819D01*
X59039047Y-59204819D02*
X59134285Y-59204819D01*
X58372380Y-58204819D02*
X57705714Y-58204819D01*
X57705714Y-58204819D02*
X58134285Y-59204819D01*
X82716666Y-63574819D02*
X83049999Y-63098628D01*
X83288094Y-63574819D02*
X83288094Y-62574819D01*
X83288094Y-62574819D02*
X82907142Y-62574819D01*
X82907142Y-62574819D02*
X82811904Y-62622438D01*
X82811904Y-62622438D02*
X82764285Y-62670057D01*
X82764285Y-62670057D02*
X82716666Y-62765295D01*
X82716666Y-62765295D02*
X82716666Y-62908152D01*
X82716666Y-62908152D02*
X82764285Y-63003390D01*
X82764285Y-63003390D02*
X82811904Y-63051009D01*
X82811904Y-63051009D02*
X82907142Y-63098628D01*
X82907142Y-63098628D02*
X83288094Y-63098628D01*
X81764285Y-63574819D02*
X82335713Y-63574819D01*
X82049999Y-63574819D02*
X82049999Y-62574819D01*
X82049999Y-62574819D02*
X82145237Y-62717676D01*
X82145237Y-62717676D02*
X82240475Y-62812914D01*
X82240475Y-62812914D02*
X82335713Y-62860533D01*
D11*
%TO.C,C3*%
X111266248Y-56615000D02*
X111788752Y-56615000D01*
X111266248Y-55145000D02*
X111788752Y-55145000D01*
%TO.C,J1*%
X101570000Y-56640000D02*
X102780000Y-56640000D01*
X102780000Y-23970000D02*
X105440000Y-23970000D01*
X102780000Y-24640000D02*
X102780000Y-23970000D01*
X102780000Y-29720000D02*
X102780000Y-26160000D01*
X102780000Y-34800000D02*
X102780000Y-31240000D01*
X102780000Y-39880000D02*
X102780000Y-36320000D01*
X102780000Y-44960000D02*
X102780000Y-41400000D01*
X102780000Y-50040000D02*
X102780000Y-46480000D01*
X102780000Y-55120000D02*
X102780000Y-51560000D01*
X102780000Y-57310000D02*
X102780000Y-56640000D01*
X102780000Y-57310000D02*
X105440000Y-57310000D01*
X105440000Y-27180000D02*
X105440000Y-23970000D01*
X105440000Y-32260000D02*
X105440000Y-28700000D01*
X105440000Y-37340000D02*
X105440000Y-33780000D01*
X105440000Y-42420000D02*
X105440000Y-38860000D01*
X105440000Y-47500000D02*
X105440000Y-43940000D01*
X105440000Y-52580000D02*
X105440000Y-49020000D01*
X105440000Y-57310000D02*
X105440000Y-54100000D01*
%TO.C,J5*%
X71120000Y-56640000D02*
X72330000Y-56640000D01*
X72330000Y-23970000D02*
X74990000Y-23970000D01*
X72330000Y-24640000D02*
X72330000Y-23970000D01*
X72330000Y-29720000D02*
X72330000Y-26160000D01*
X72330000Y-34800000D02*
X72330000Y-31240000D01*
X72330000Y-39880000D02*
X72330000Y-36320000D01*
X72330000Y-44960000D02*
X72330000Y-41400000D01*
X72330000Y-50040000D02*
X72330000Y-46480000D01*
X72330000Y-55120000D02*
X72330000Y-51560000D01*
X72330000Y-57310000D02*
X72330000Y-56640000D01*
X72330000Y-57310000D02*
X74990000Y-57310000D01*
X74990000Y-27180000D02*
X74990000Y-23970000D01*
X74990000Y-32260000D02*
X74990000Y-28700000D01*
X74990000Y-37340000D02*
X74990000Y-33780000D01*
X74990000Y-42420000D02*
X74990000Y-38860000D01*
X74990000Y-47500000D02*
X74990000Y-43940000D01*
X74990000Y-52580000D02*
X74990000Y-49020000D01*
X74990000Y-57310000D02*
X74990000Y-54100000D01*
%TO.C,C1*%
X82550000Y-72160000D02*
X82550000Y-72500000D01*
X82550000Y-85080000D02*
X82550000Y-84740000D01*
X79180000Y-72500000D02*
X85920000Y-72500000D01*
X85920000Y-84740000D01*
X79180000Y-84740000D01*
X79180000Y-72500000D01*
%TO.C,J3*%
X86360000Y-56640000D02*
X87570000Y-56640000D01*
X87570000Y-23970000D02*
X90230000Y-23970000D01*
X87570000Y-24640000D02*
X87570000Y-23970000D01*
X87570000Y-29720000D02*
X87570000Y-26160000D01*
X87570000Y-34800000D02*
X87570000Y-31240000D01*
X87570000Y-39880000D02*
X87570000Y-36320000D01*
X87570000Y-44960000D02*
X87570000Y-41400000D01*
X87570000Y-50040000D02*
X87570000Y-46480000D01*
X87570000Y-55120000D02*
X87570000Y-51560000D01*
X87570000Y-57310000D02*
X87570000Y-56640000D01*
X87570000Y-57310000D02*
X90230000Y-57310000D01*
X90230000Y-27180000D02*
X90230000Y-23970000D01*
X90230000Y-32260000D02*
X90230000Y-28700000D01*
X90230000Y-37340000D02*
X90230000Y-33780000D01*
X90230000Y-42420000D02*
X90230000Y-38860000D01*
X90230000Y-47500000D02*
X90230000Y-43940000D01*
X90230000Y-52580000D02*
X90230000Y-49020000D01*
X90230000Y-57310000D02*
X90230000Y-54100000D01*
%TO.C,Q1*%
X48437500Y-73370000D02*
X48437500Y-73420000D01*
X48437500Y-74540000D02*
X48437500Y-75320000D01*
X48437500Y-76440000D02*
X48437500Y-76490000D01*
X48437500Y-76490000D02*
X49957500Y-76490000D01*
X49957500Y-73370000D02*
X48437500Y-73370000D01*
X49957500Y-74370000D02*
X49957500Y-73370000D01*
X49957500Y-76490000D02*
X49957500Y-75490000D01*
X47897500Y-75310000D02*
X47657500Y-74980000D01*
X48137500Y-74980000D01*
X47897500Y-75310000D01*
G36*
X47897500Y-75310000D02*
G01*
X47657500Y-74980000D01*
X48137500Y-74980000D01*
X47897500Y-75310000D01*
G37*
%TO.C,J2*%
X93980000Y-56640000D02*
X95190000Y-56640000D01*
X95190000Y-23970000D02*
X97850000Y-23970000D01*
X95190000Y-24640000D02*
X95190000Y-23970000D01*
X95190000Y-29720000D02*
X95190000Y-26160000D01*
X95190000Y-34800000D02*
X95190000Y-31240000D01*
X95190000Y-39880000D02*
X95190000Y-36320000D01*
X95190000Y-44960000D02*
X95190000Y-41400000D01*
X95190000Y-50040000D02*
X95190000Y-46480000D01*
X95190000Y-55120000D02*
X95190000Y-51560000D01*
X95190000Y-57310000D02*
X95190000Y-56640000D01*
X95190000Y-57310000D02*
X97850000Y-57310000D01*
X97850000Y-27180000D02*
X97850000Y-23970000D01*
X97850000Y-32260000D02*
X97850000Y-28700000D01*
X97850000Y-37340000D02*
X97850000Y-33780000D01*
X97850000Y-42420000D02*
X97850000Y-38860000D01*
X97850000Y-47500000D02*
X97850000Y-43940000D01*
X97850000Y-52580000D02*
X97850000Y-49020000D01*
X97850000Y-57310000D02*
X97850000Y-54100000D01*
%TO.C,J6*%
X63500000Y-56640000D02*
X64710000Y-56640000D01*
X64710000Y-23970000D02*
X67370000Y-23970000D01*
X64710000Y-24640000D02*
X64710000Y-23970000D01*
X64710000Y-29720000D02*
X64710000Y-26160000D01*
X64710000Y-34800000D02*
X64710000Y-31240000D01*
X64710000Y-39880000D02*
X64710000Y-36320000D01*
X64710000Y-44960000D02*
X64710000Y-41400000D01*
X64710000Y-50040000D02*
X64710000Y-46480000D01*
X64710000Y-55120000D02*
X64710000Y-51560000D01*
X64710000Y-57310000D02*
X64710000Y-56640000D01*
X64710000Y-57310000D02*
X67370000Y-57310000D01*
X67370000Y-27180000D02*
X67370000Y-23970000D01*
X67370000Y-32260000D02*
X67370000Y-28700000D01*
X67370000Y-37340000D02*
X67370000Y-33780000D01*
X67370000Y-42420000D02*
X67370000Y-38860000D01*
X67370000Y-47500000D02*
X67370000Y-43940000D01*
X67370000Y-52580000D02*
X67370000Y-49020000D01*
X67370000Y-57310000D02*
X67370000Y-54100000D01*
%TO.C,J8*%
X48260000Y-56640000D02*
X49470000Y-56640000D01*
X49470000Y-23970000D02*
X52130000Y-23970000D01*
X49470000Y-24640000D02*
X49470000Y-23970000D01*
X49470000Y-29720000D02*
X49470000Y-26160000D01*
X49470000Y-34800000D02*
X49470000Y-31240000D01*
X49470000Y-39880000D02*
X49470000Y-36320000D01*
X49470000Y-44960000D02*
X49470000Y-41400000D01*
X49470000Y-50040000D02*
X49470000Y-46480000D01*
X49470000Y-55120000D02*
X49470000Y-51560000D01*
X49470000Y-57310000D02*
X49470000Y-56640000D01*
X49470000Y-57310000D02*
X52130000Y-57310000D01*
X52130000Y-27180000D02*
X52130000Y-23970000D01*
X52130000Y-32260000D02*
X52130000Y-28700000D01*
X52130000Y-37340000D02*
X52130000Y-33780000D01*
X52130000Y-42420000D02*
X52130000Y-38860000D01*
X52130000Y-47500000D02*
X52130000Y-43940000D01*
X52130000Y-52580000D02*
X52130000Y-49020000D01*
X52130000Y-57310000D02*
X52130000Y-54100000D01*
%TO.C,C2*%
X102870000Y-72280000D02*
X102870000Y-72620000D01*
X102870000Y-85200000D02*
X102870000Y-84860000D01*
X99500000Y-72620000D02*
X106240000Y-72620000D01*
X106240000Y-84860000D01*
X99500000Y-84860000D01*
X99500000Y-72620000D01*
%TO.C,R4*%
X112257064Y-64035000D02*
X111802936Y-64035000D01*
X112257064Y-65505000D02*
X111802936Y-65505000D01*
%TO.C,J4*%
X78740000Y-56640000D02*
X79950000Y-56640000D01*
X79950000Y-23970000D02*
X82610000Y-23970000D01*
X79950000Y-24640000D02*
X79950000Y-23970000D01*
X79950000Y-29720000D02*
X79950000Y-26160000D01*
X79950000Y-34800000D02*
X79950000Y-31240000D01*
X79950000Y-39880000D02*
X79950000Y-36320000D01*
X79950000Y-44960000D02*
X79950000Y-41400000D01*
X79950000Y-50040000D02*
X79950000Y-46480000D01*
X79950000Y-55120000D02*
X79950000Y-51560000D01*
X79950000Y-57310000D02*
X79950000Y-56640000D01*
X79950000Y-57310000D02*
X82610000Y-57310000D01*
X82610000Y-27180000D02*
X82610000Y-23970000D01*
X82610000Y-32260000D02*
X82610000Y-28700000D01*
X82610000Y-37340000D02*
X82610000Y-33780000D01*
X82610000Y-42420000D02*
X82610000Y-38860000D01*
X82610000Y-47500000D02*
X82610000Y-43940000D01*
X82610000Y-52580000D02*
X82610000Y-49020000D01*
X82610000Y-57310000D02*
X82610000Y-54100000D01*
%TO.C,R3*%
X91937064Y-64035000D02*
X91482936Y-64035000D01*
X91937064Y-65505000D02*
X91482936Y-65505000D01*
%TO.C,R2*%
X103087664Y-64035000D02*
X102633536Y-64035000D01*
X103087664Y-65505000D02*
X102633536Y-65505000D01*
%TO.C,J7*%
X55880000Y-56640000D02*
X57090000Y-56640000D01*
X57090000Y-23970000D02*
X59750000Y-23970000D01*
X57090000Y-24640000D02*
X57090000Y-23970000D01*
X57090000Y-29720000D02*
X57090000Y-26160000D01*
X57090000Y-34800000D02*
X57090000Y-31240000D01*
X57090000Y-39880000D02*
X57090000Y-36320000D01*
X57090000Y-44960000D02*
X57090000Y-41400000D01*
X57090000Y-50040000D02*
X57090000Y-46480000D01*
X57090000Y-55120000D02*
X57090000Y-51560000D01*
X57090000Y-57310000D02*
X57090000Y-56640000D01*
X57090000Y-57310000D02*
X59750000Y-57310000D01*
X59750000Y-27180000D02*
X59750000Y-23970000D01*
X59750000Y-32260000D02*
X59750000Y-28700000D01*
X59750000Y-37340000D02*
X59750000Y-33780000D01*
X59750000Y-42420000D02*
X59750000Y-38860000D01*
X59750000Y-47500000D02*
X59750000Y-43940000D01*
X59750000Y-52580000D02*
X59750000Y-49020000D01*
X59750000Y-57310000D02*
X59750000Y-54100000D01*
%TO.C,R1*%
X82777064Y-64035000D02*
X82322936Y-64035000D01*
X82777064Y-65505000D02*
X82322936Y-65505000D01*
%TD*%
M02*
