%TF.GenerationSoftware,KiCad,Pcbnew,9.0.6*%
%TF.CreationDate,2026-03-31T01:16:33+03:00*%
%TF.ProjectId,EndPlate,456e6450-6c61-4746-952e-6b696361645f,rev?*%
%TF.SameCoordinates,Original*%
%TF.FileFunction,Soldermask,Bot*%
%TF.FilePolarity,Negative*%
%FSLAX46Y46*%
G04 Gerber Fmt 4.6, Leading zero omitted, Abs format (unit mm)*
G04 Created by KiCad (PCBNEW 9.0.6) date 2026-03-31 01:16:33*
%MOMM*%
%LPD*%
G01*
G04 APERTURE LIST*
G04 Aperture macros list*
%AMRoundRect*
0 Rectangle with rounded corners*
0 $1 Rounding radius*
0 $2 $3 $4 $5 $6 $7 $8 $9 X,Y pos of 4 corners*
0 Add a 4 corners polygon primitive as box body*
4,1,4,$2,$3,$4,$5,$6,$7,$8,$9,$2,$3,0*
0 Add four circle primitives for the rounded corners*
1,1,$1+$1,$2,$3*
1,1,$1+$1,$4,$5*
1,1,$1+$1,$6,$7*
1,1,$1+$1,$8,$9*
0 Add four rect primitives between the rounded corners*
20,1,$1+$1,$2,$3,$4,$5,0*
20,1,$1+$1,$4,$5,$6,$7,0*
20,1,$1+$1,$6,$7,$8,$9,0*
20,1,$1+$1,$8,$9,$2,$3,0*%
G04 Aperture macros list end*
%ADD10RoundRect,0.250000X-0.337500X-0.475000X0.337500X-0.475000X0.337500X0.475000X-0.337500X0.475000X0*%
%ADD11R,1.800000X1.500000*%
%ADD12O,1.800000X1.500000*%
%ADD13R,2.000000X2.000000*%
%ADD14C,2.000000*%
%ADD15R,1.700000X1.700000*%
%ADD16RoundRect,0.234375X-0.665625X-0.515625X0.665625X-0.515625X0.665625X0.515625X-0.665625X0.515625X0*%
%ADD17RoundRect,0.250000X-1.050000X-1.050000X1.050000X-1.050000X1.050000X1.050000X-1.050000X1.050000X0*%
%ADD18C,2.600000*%
%ADD19RoundRect,0.250000X-0.650000X-0.500000X0.650000X-0.500000X0.650000X0.500000X-0.650000X0.500000X0*%
%ADD20R,1.900000X1.000000*%
%ADD21C,1.800000*%
%ADD22RoundRect,0.150000X-0.587500X-0.150000X0.587500X-0.150000X0.587500X0.150000X-0.587500X0.150000X0*%
%ADD23RoundRect,0.250000X0.350000X0.450000X-0.350000X0.450000X-0.350000X-0.450000X0.350000X-0.450000X0*%
G04 APERTURE END LIST*
D10*
%TO.C,C3*%
X110490000Y-55880000D03*
X112565000Y-55880000D03*
%TD*%
D11*
%TO.C,J14*%
X92710000Y-67310000D03*
D12*
X92710000Y-69850000D03*
X92710000Y-72390000D03*
X92710000Y-74930000D03*
X92710000Y-77470000D03*
X92710000Y-80010000D03*
X92710000Y-82550000D03*
X92710000Y-85090000D03*
X92710000Y-87630000D03*
%TD*%
D13*
%TO.C,J10*%
X111125000Y-35560000D03*
D14*
X111125000Y-33020000D03*
X111125000Y-30480000D03*
%TD*%
D13*
%TO.C,J9*%
X111125000Y-45720000D03*
D14*
X111125000Y-43180000D03*
X111125000Y-40640000D03*
%TD*%
D15*
%TO.C,J15*%
X90805000Y-61595000D03*
%TD*%
D11*
%TO.C,J13*%
X113030000Y-67310000D03*
D12*
X113030000Y-69850000D03*
X113030000Y-72390000D03*
X113030000Y-74930000D03*
X113030000Y-77470000D03*
X113030000Y-80010000D03*
X113030000Y-82550000D03*
X113030000Y-85090000D03*
X113030000Y-87630000D03*
%TD*%
D15*
%TO.C,J16*%
X111125000Y-61595000D03*
%TD*%
D16*
%TO.C,U2*%
X99060000Y-64770000D03*
D12*
X99060000Y-67310000D03*
X99060000Y-69850000D03*
X99060000Y-72390000D03*
X99060000Y-74930000D03*
X99060000Y-77470000D03*
X99060000Y-80010000D03*
X99060000Y-82550000D03*
X99060000Y-85090000D03*
X99060000Y-87630000D03*
X106680000Y-87630000D03*
X106680000Y-85090000D03*
X106680000Y-82550000D03*
X106680000Y-80010000D03*
X106680000Y-77470000D03*
X106680000Y-74930000D03*
X106680000Y-72390000D03*
X106680000Y-69850000D03*
X106680000Y-67310000D03*
X106680000Y-64770000D03*
%TD*%
D11*
%TO.C,J12*%
X110490000Y-67310000D03*
D12*
X110490000Y-69850000D03*
X110490000Y-72390000D03*
X110490000Y-74930000D03*
X110490000Y-77470000D03*
X110490000Y-80010000D03*
X110490000Y-82550000D03*
X110490000Y-85090000D03*
X110490000Y-87630000D03*
%TD*%
D17*
%TO.C,J17*%
X50205000Y-70657500D03*
D18*
X55205000Y-70657500D03*
%TD*%
D19*
%TO.C,U1*%
X78740000Y-64770000D03*
D12*
X78740000Y-67310000D03*
X78740000Y-69850000D03*
X78740000Y-72390000D03*
X78740000Y-74930000D03*
X78740000Y-77470000D03*
X78740000Y-80010000D03*
X78740000Y-82550000D03*
X78740000Y-85090000D03*
X78740000Y-87630000D03*
X86360000Y-87630000D03*
X86360000Y-85090000D03*
X86360000Y-82550000D03*
X86360000Y-80010000D03*
X86360000Y-77470000D03*
X86360000Y-74930000D03*
X86360000Y-72390000D03*
X86360000Y-69850000D03*
X86360000Y-67310000D03*
X86360000Y-64770000D03*
%TD*%
D11*
%TO.C,J11*%
X90170000Y-67310000D03*
D12*
X90170000Y-69850000D03*
X90170000Y-72390000D03*
X90170000Y-74930000D03*
X90170000Y-77470000D03*
X90170000Y-80010000D03*
X90170000Y-82550000D03*
X90170000Y-85090000D03*
X90170000Y-87630000D03*
%TD*%
D20*
%TO.C,J1*%
X102460000Y-55880000D03*
X105760000Y-53340000D03*
X102460000Y-50800000D03*
X105760000Y-48260000D03*
X102460000Y-45720000D03*
X105760000Y-43180000D03*
X102460000Y-40640000D03*
X105760000Y-38100000D03*
X102460000Y-35560000D03*
X105760000Y-33020000D03*
X102460000Y-30480000D03*
X105760000Y-27940000D03*
X102460000Y-25400000D03*
%TD*%
%TO.C,J5*%
X72010000Y-55880000D03*
X75310000Y-53340000D03*
X72010000Y-50800000D03*
X75310000Y-48260000D03*
X72010000Y-45720000D03*
X75310000Y-43180000D03*
X72010000Y-40640000D03*
X75310000Y-38100000D03*
X72010000Y-35560000D03*
X75310000Y-33020000D03*
X72010000Y-30480000D03*
X75310000Y-27940000D03*
X72010000Y-25400000D03*
%TD*%
D21*
%TO.C,C1*%
X82550000Y-71120000D03*
X82550000Y-86120000D03*
%TD*%
D20*
%TO.C,J3*%
X87250000Y-55880000D03*
X90550000Y-53340000D03*
X87250000Y-50800000D03*
X90550000Y-48260000D03*
X87250000Y-45720000D03*
X90550000Y-43180000D03*
X87250000Y-40640000D03*
X90550000Y-38100000D03*
X87250000Y-35560000D03*
X90550000Y-33020000D03*
X87250000Y-30480000D03*
X90550000Y-27940000D03*
X87250000Y-25400000D03*
%TD*%
D22*
%TO.C,Q1*%
X48260000Y-75880000D03*
X48260000Y-73980000D03*
X50135000Y-74930000D03*
%TD*%
D20*
%TO.C,J2*%
X94870000Y-55880000D03*
X98170000Y-53340000D03*
X94870000Y-50800000D03*
X98170000Y-48260000D03*
X94870000Y-45720000D03*
X98170000Y-43180000D03*
X94870000Y-40640000D03*
X98170000Y-38100000D03*
X94870000Y-35560000D03*
X98170000Y-33020000D03*
X94870000Y-30480000D03*
X98170000Y-27940000D03*
X94870000Y-25400000D03*
%TD*%
%TO.C,J6*%
X64390000Y-55880000D03*
X67690000Y-53340000D03*
X64390000Y-50800000D03*
X67690000Y-48260000D03*
X64390000Y-45720000D03*
X67690000Y-43180000D03*
X64390000Y-40640000D03*
X67690000Y-38100000D03*
X64390000Y-35560000D03*
X67690000Y-33020000D03*
X64390000Y-30480000D03*
X67690000Y-27940000D03*
X64390000Y-25400000D03*
%TD*%
%TO.C,J8*%
X49150000Y-55880000D03*
X52450000Y-53340000D03*
X49150000Y-50800000D03*
X52450000Y-48260000D03*
X49150000Y-45720000D03*
X52450000Y-43180000D03*
X49150000Y-40640000D03*
X52450000Y-38100000D03*
X49150000Y-35560000D03*
X52450000Y-33020000D03*
X49150000Y-30480000D03*
X52450000Y-27940000D03*
X49150000Y-25400000D03*
%TD*%
D21*
%TO.C,C2*%
X102870000Y-71240000D03*
X102870000Y-86240000D03*
%TD*%
D23*
%TO.C,R4*%
X113030000Y-64770000D03*
X111030000Y-64770000D03*
%TD*%
D20*
%TO.C,J4*%
X79630000Y-55880000D03*
X82930000Y-53340000D03*
X79630000Y-50800000D03*
X82930000Y-48260000D03*
X79630000Y-45720000D03*
X82930000Y-43180000D03*
X79630000Y-40640000D03*
X82930000Y-38100000D03*
X79630000Y-35560000D03*
X82930000Y-33020000D03*
X79630000Y-30480000D03*
X82930000Y-27940000D03*
X79630000Y-25400000D03*
%TD*%
D23*
%TO.C,R3*%
X92710000Y-64770000D03*
X90710000Y-64770000D03*
%TD*%
%TO.C,R2*%
X103860600Y-64770000D03*
X101860600Y-64770000D03*
%TD*%
D20*
%TO.C,J7*%
X56770000Y-55880000D03*
X60070000Y-53340000D03*
X56770000Y-50800000D03*
X60070000Y-48260000D03*
X56770000Y-45720000D03*
X60070000Y-43180000D03*
X56770000Y-40640000D03*
X60070000Y-38100000D03*
X56770000Y-35560000D03*
X60070000Y-33020000D03*
X56770000Y-30480000D03*
X60070000Y-27940000D03*
X56770000Y-25400000D03*
%TD*%
D23*
%TO.C,R1*%
X83550000Y-64770000D03*
X81550000Y-64770000D03*
%TD*%
M02*
