M48
; DRILL file {KiCad 9.0.6} date 2026-05-15T23:02:00+0300
; FORMAT={-:-/ absolute / metric / decimal}
; #@! TF.CreationDate,2026-05-15T23:02:00+03:00
; #@! TF.GenerationSoftware,Kicad,Pcbnew,9.0.6
; #@! TF.FileFunction,Plated,1,2,PTH
FMAT,2
METRIC
; #@! TA.AperFunction,Plated,PTH,ViaDrill
T1C0.500
; #@! TA.AperFunction,Plated,PTH,ComponentDrill
T2C0.800
; #@! TA.AperFunction,Plated,PTH,ComponentDrill
T3C1.000
%
G90
G05
T1
X12.065Y-20.955
X12.065Y-24.13
X26.335Y-29.845
X28.575Y-29.21
X38.1Y-29.845
X73.66Y-25.4
T2
X7.62Y-6.35
X7.62Y-8.89
X7.62Y-11.43
X7.62Y-13.97
X7.62Y-16.51
X7.62Y-19.05
X7.62Y-21.59
X7.62Y-24.13
X15.24Y-6.35
X15.24Y-8.89
X15.24Y-11.43
X15.24Y-13.97
X15.24Y-16.51
X15.24Y-19.05
X15.24Y-21.59
X15.24Y-24.13
X30.48Y-6.35
X30.48Y-8.89
X30.48Y-11.43
X30.48Y-13.97
X30.48Y-16.51
X30.48Y-19.05
X30.48Y-21.59
X30.48Y-24.13
X38.1Y-6.35
X38.1Y-8.89
X38.1Y-11.43
X38.1Y-13.97
X38.1Y-16.51
X38.1Y-19.05
X38.1Y-21.59
X38.1Y-24.13
X45.72Y-17.78
X45.72Y-25.4
X48.26Y-17.78
X48.26Y-25.4
X50.8Y-17.78
X50.8Y-25.4
X53.34Y-2.54
X53.34Y-10.16
X53.34Y-17.78
X53.34Y-25.4
X55.88Y-2.54
X55.88Y-10.16
X55.88Y-17.78
X55.88Y-25.4
X58.42Y-2.54
X58.42Y-10.16
X58.42Y-17.78
X58.42Y-25.4
X60.96Y-2.54
X60.96Y-10.16
X60.96Y-17.78
X60.96Y-25.4
X63.5Y-2.54
X63.5Y-10.16
X63.5Y-17.78
X63.5Y-25.4
X66.04Y-2.54
X66.04Y-10.16
X66.04Y-17.78
X66.04Y-25.4
X68.58Y-2.54
X68.58Y-10.16
X68.58Y-17.78
X68.58Y-25.4
T3
X2.54Y-36.83
X5.08Y-36.83
X7.62Y-36.83
X10.16Y-36.83
X12.7Y-36.83
X15.24Y-36.83
X17.78Y-36.83
X20.32Y-36.83
X25.4Y-36.83
X27.94Y-36.83
X30.48Y-36.83
X33.02Y-36.83
X35.56Y-36.83
X38.1Y-36.83
X40.64Y-36.83
X43.18Y-36.83
X48.26Y-36.83
X50.8Y-36.83
X53.34Y-36.83
X55.88Y-36.83
X58.42Y-36.83
X60.96Y-36.83
X63.5Y-36.83
X66.04Y-36.83
X71.12Y-36.83
X73.66Y-36.83
X76.2Y-36.83
X78.74Y-36.83
X81.28Y-5.08
X81.28Y-13.335
X81.28Y-17.78
X81.28Y-36.83
M30
