G04 #@! TF.GenerationSoftware,KiCad,Pcbnew,9.0.6*
G04 #@! TF.CreationDate,2026-05-15T23:01:58+03:00*
G04 #@! TF.ProjectId,ADD,4144442e-6b69-4636-9164-5f7063625858,rev?*
G04 #@! TF.SameCoordinates,PX3a22d00PY1bdb590*
G04 #@! TF.FileFunction,Legend,Top*
G04 #@! TF.FilePolarity,Positive*
%FSLAX46Y46*%
G04 Gerber Fmt 4.6, Leading zero omitted, Abs format (unit mm)*
G04 Created by KiCad (PCBNEW 9.0.6) date 2026-05-15 23:01:58*
%MOMM*%
%LPD*%
G01*
G04 APERTURE LIST*
%ADD10C,0.300000*%
%ADD11C,0.150000*%
%ADD12C,0.250000*%
%ADD13C,0.500000*%
%ADD14C,0.120000*%
G04 APERTURE END LIST*
D10*
X1718328Y-29685714D02*
X1718328Y-28685714D01*
X1718328Y-28685714D02*
X3218328Y-29328571D01*
X2218328Y-27471429D02*
X3218328Y-27471429D01*
X1646900Y-27828571D02*
X2718328Y-28185714D01*
X2718328Y-28185714D02*
X2718328Y-27257143D01*
X3218328Y-26685715D02*
X1718328Y-26685715D01*
X2432614Y-26685715D02*
X2432614Y-25828572D01*
X3218328Y-25828572D02*
X1718328Y-25828572D01*
X3075471Y-24257143D02*
X3146900Y-24328571D01*
X3146900Y-24328571D02*
X3218328Y-24542857D01*
X3218328Y-24542857D02*
X3218328Y-24685714D01*
X3218328Y-24685714D02*
X3146900Y-24900000D01*
X3146900Y-24900000D02*
X3004042Y-25042857D01*
X3004042Y-25042857D02*
X2861185Y-25114286D01*
X2861185Y-25114286D02*
X2575471Y-25185714D01*
X2575471Y-25185714D02*
X2361185Y-25185714D01*
X2361185Y-25185714D02*
X2075471Y-25114286D01*
X2075471Y-25114286D02*
X1932614Y-25042857D01*
X1932614Y-25042857D02*
X1789757Y-24900000D01*
X1789757Y-24900000D02*
X1718328Y-24685714D01*
X1718328Y-24685714D02*
X1718328Y-24542857D01*
X1718328Y-24542857D02*
X1789757Y-24328571D01*
X1789757Y-24328571D02*
X1861185Y-24257143D01*
X3218328Y-23614286D02*
X1718328Y-23614286D01*
X1718328Y-23614286D02*
X1718328Y-23042857D01*
X1718328Y-23042857D02*
X1789757Y-22900000D01*
X1789757Y-22900000D02*
X1861185Y-22828571D01*
X1861185Y-22828571D02*
X2004042Y-22757143D01*
X2004042Y-22757143D02*
X2218328Y-22757143D01*
X2218328Y-22757143D02*
X2361185Y-22828571D01*
X2361185Y-22828571D02*
X2432614Y-22900000D01*
X2432614Y-22900000D02*
X2504042Y-23042857D01*
X2504042Y-23042857D02*
X2504042Y-23614286D01*
X1718328Y-22114286D02*
X2932614Y-22114286D01*
X2932614Y-22114286D02*
X3075471Y-22042857D01*
X3075471Y-22042857D02*
X3146900Y-21971429D01*
X3146900Y-21971429D02*
X3218328Y-21828571D01*
X3218328Y-21828571D02*
X3218328Y-21542857D01*
X3218328Y-21542857D02*
X3146900Y-21400000D01*
X3146900Y-21400000D02*
X3075471Y-21328571D01*
X3075471Y-21328571D02*
X2932614Y-21257143D01*
X2932614Y-21257143D02*
X1718328Y-21257143D01*
D11*
X71574819Y-34647024D02*
X71574819Y-35123214D01*
X71574819Y-35123214D02*
X70574819Y-35123214D01*
X71574819Y-33885119D02*
X71051009Y-33885119D01*
X71051009Y-33885119D02*
X70955771Y-33932738D01*
X70955771Y-33932738D02*
X70908152Y-34027976D01*
X70908152Y-34027976D02*
X70908152Y-34218452D01*
X70908152Y-34218452D02*
X70955771Y-34313690D01*
X71527200Y-33885119D02*
X71574819Y-33980357D01*
X71574819Y-33980357D02*
X71574819Y-34218452D01*
X71574819Y-34218452D02*
X71527200Y-34313690D01*
X71527200Y-34313690D02*
X71431961Y-34361309D01*
X71431961Y-34361309D02*
X71336723Y-34361309D01*
X71336723Y-34361309D02*
X71241485Y-34313690D01*
X71241485Y-34313690D02*
X71193866Y-34218452D01*
X71193866Y-34218452D02*
X71193866Y-33980357D01*
X71193866Y-33980357D02*
X71146247Y-33885119D01*
X70908152Y-33551785D02*
X70908152Y-33170833D01*
X70574819Y-33408928D02*
X71431961Y-33408928D01*
X71431961Y-33408928D02*
X71527200Y-33361309D01*
X71527200Y-33361309D02*
X71574819Y-33266071D01*
X71574819Y-33266071D02*
X71574819Y-33170833D01*
X71527200Y-32408928D02*
X71574819Y-32504166D01*
X71574819Y-32504166D02*
X71574819Y-32694642D01*
X71574819Y-32694642D02*
X71527200Y-32789880D01*
X71527200Y-32789880D02*
X71479580Y-32837499D01*
X71479580Y-32837499D02*
X71384342Y-32885118D01*
X71384342Y-32885118D02*
X71098628Y-32885118D01*
X71098628Y-32885118D02*
X71003390Y-32837499D01*
X71003390Y-32837499D02*
X70955771Y-32789880D01*
X70955771Y-32789880D02*
X70908152Y-32694642D01*
X70908152Y-32694642D02*
X70908152Y-32504166D01*
X70908152Y-32504166D02*
X70955771Y-32408928D01*
X71574819Y-31980356D02*
X70574819Y-31980356D01*
X71574819Y-31551785D02*
X71051009Y-31551785D01*
X71051009Y-31551785D02*
X70955771Y-31599404D01*
X70955771Y-31599404D02*
X70908152Y-31694642D01*
X70908152Y-31694642D02*
X70908152Y-31837499D01*
X70908152Y-31837499D02*
X70955771Y-31932737D01*
X70955771Y-31932737D02*
X71003390Y-31980356D01*
D12*
X10532714Y-13271190D02*
X10437476Y-13175952D01*
X10437476Y-13175952D02*
X10342238Y-12985476D01*
X10342238Y-12985476D02*
X10342238Y-12509285D01*
X10342238Y-12509285D02*
X10437476Y-12318809D01*
X10437476Y-12318809D02*
X10532714Y-12223571D01*
X10532714Y-12223571D02*
X10723190Y-12128333D01*
X10723190Y-12128333D02*
X10913666Y-12128333D01*
X10913666Y-12128333D02*
X11199380Y-12223571D01*
X11199380Y-12223571D02*
X12342238Y-13366428D01*
X12342238Y-13366428D02*
X12342238Y-12128333D01*
X11199380Y-10985476D02*
X11104142Y-11175952D01*
X11104142Y-11175952D02*
X11008904Y-11271190D01*
X11008904Y-11271190D02*
X10818428Y-11366428D01*
X10818428Y-11366428D02*
X10723190Y-11366428D01*
X10723190Y-11366428D02*
X10532714Y-11271190D01*
X10532714Y-11271190D02*
X10437476Y-11175952D01*
X10437476Y-11175952D02*
X10342238Y-10985476D01*
X10342238Y-10985476D02*
X10342238Y-10604523D01*
X10342238Y-10604523D02*
X10437476Y-10414047D01*
X10437476Y-10414047D02*
X10532714Y-10318809D01*
X10532714Y-10318809D02*
X10723190Y-10223571D01*
X10723190Y-10223571D02*
X10818428Y-10223571D01*
X10818428Y-10223571D02*
X11008904Y-10318809D01*
X11008904Y-10318809D02*
X11104142Y-10414047D01*
X11104142Y-10414047D02*
X11199380Y-10604523D01*
X11199380Y-10604523D02*
X11199380Y-10985476D01*
X11199380Y-10985476D02*
X11294619Y-11175952D01*
X11294619Y-11175952D02*
X11389857Y-11271190D01*
X11389857Y-11271190D02*
X11580333Y-11366428D01*
X11580333Y-11366428D02*
X11961285Y-11366428D01*
X11961285Y-11366428D02*
X12151761Y-11271190D01*
X12151761Y-11271190D02*
X12247000Y-11175952D01*
X12247000Y-11175952D02*
X12342238Y-10985476D01*
X12342238Y-10985476D02*
X12342238Y-10604523D01*
X12342238Y-10604523D02*
X12247000Y-10414047D01*
X12247000Y-10414047D02*
X12151761Y-10318809D01*
X12151761Y-10318809D02*
X11961285Y-10223571D01*
X11961285Y-10223571D02*
X11580333Y-10223571D01*
X11580333Y-10223571D02*
X11389857Y-10318809D01*
X11389857Y-10318809D02*
X11294619Y-10414047D01*
X11294619Y-10414047D02*
X11199380Y-10604523D01*
X10342238Y-9556904D02*
X10342238Y-8318809D01*
X10342238Y-8318809D02*
X11104142Y-8985476D01*
X11104142Y-8985476D02*
X11104142Y-8699761D01*
X11104142Y-8699761D02*
X11199380Y-8509285D01*
X11199380Y-8509285D02*
X11294619Y-8414047D01*
X11294619Y-8414047D02*
X11485095Y-8318809D01*
X11485095Y-8318809D02*
X11961285Y-8318809D01*
X11961285Y-8318809D02*
X12151761Y-8414047D01*
X12151761Y-8414047D02*
X12247000Y-8509285D01*
X12247000Y-8509285D02*
X12342238Y-8699761D01*
X12342238Y-8699761D02*
X12342238Y-9271190D01*
X12342238Y-9271190D02*
X12247000Y-9461666D01*
X12247000Y-9461666D02*
X12151761Y-9556904D01*
D11*
X76065476Y-20489104D02*
X76541666Y-20489104D01*
X75970238Y-20774819D02*
X76303571Y-19774819D01*
X76303571Y-19774819D02*
X76636904Y-20774819D01*
X76970238Y-19774819D02*
X76970238Y-20584342D01*
X76970238Y-20584342D02*
X77017857Y-20679580D01*
X77017857Y-20679580D02*
X77065476Y-20727200D01*
X77065476Y-20727200D02*
X77160714Y-20774819D01*
X77160714Y-20774819D02*
X77351190Y-20774819D01*
X77351190Y-20774819D02*
X77446428Y-20727200D01*
X77446428Y-20727200D02*
X77494047Y-20679580D01*
X77494047Y-20679580D02*
X77541666Y-20584342D01*
X77541666Y-20584342D02*
X77541666Y-19774819D01*
X77922619Y-19774819D02*
X78589285Y-20774819D01*
X78589285Y-19774819D02*
X77922619Y-20774819D01*
X80303571Y-20679580D02*
X80255952Y-20727200D01*
X80255952Y-20727200D02*
X80113095Y-20774819D01*
X80113095Y-20774819D02*
X80017857Y-20774819D01*
X80017857Y-20774819D02*
X79875000Y-20727200D01*
X79875000Y-20727200D02*
X79779762Y-20631961D01*
X79779762Y-20631961D02*
X79732143Y-20536723D01*
X79732143Y-20536723D02*
X79684524Y-20346247D01*
X79684524Y-20346247D02*
X79684524Y-20203390D01*
X79684524Y-20203390D02*
X79732143Y-20012914D01*
X79732143Y-20012914D02*
X79779762Y-19917676D01*
X79779762Y-19917676D02*
X79875000Y-19822438D01*
X79875000Y-19822438D02*
X80017857Y-19774819D01*
X80017857Y-19774819D02*
X80113095Y-19774819D01*
X80113095Y-19774819D02*
X80255952Y-19822438D01*
X80255952Y-19822438D02*
X80303571Y-19870057D01*
X80875000Y-20774819D02*
X80779762Y-20727200D01*
X80779762Y-20727200D02*
X80732143Y-20679580D01*
X80732143Y-20679580D02*
X80684524Y-20584342D01*
X80684524Y-20584342D02*
X80684524Y-20298628D01*
X80684524Y-20298628D02*
X80732143Y-20203390D01*
X80732143Y-20203390D02*
X80779762Y-20155771D01*
X80779762Y-20155771D02*
X80875000Y-20108152D01*
X80875000Y-20108152D02*
X81017857Y-20108152D01*
X81017857Y-20108152D02*
X81113095Y-20155771D01*
X81113095Y-20155771D02*
X81160714Y-20203390D01*
X81160714Y-20203390D02*
X81208333Y-20298628D01*
X81208333Y-20298628D02*
X81208333Y-20584342D01*
X81208333Y-20584342D02*
X81160714Y-20679580D01*
X81160714Y-20679580D02*
X81113095Y-20727200D01*
X81113095Y-20727200D02*
X81017857Y-20774819D01*
X81017857Y-20774819D02*
X80875000Y-20774819D01*
X82065476Y-20108152D02*
X82065476Y-20774819D01*
X81636905Y-20108152D02*
X81636905Y-20631961D01*
X81636905Y-20631961D02*
X81684524Y-20727200D01*
X81684524Y-20727200D02*
X81779762Y-20774819D01*
X81779762Y-20774819D02*
X81922619Y-20774819D01*
X81922619Y-20774819D02*
X82017857Y-20727200D01*
X82017857Y-20727200D02*
X82065476Y-20679580D01*
X82398810Y-20108152D02*
X82779762Y-20108152D01*
X82541667Y-19774819D02*
X82541667Y-20631961D01*
X82541667Y-20631961D02*
X82589286Y-20727200D01*
X82589286Y-20727200D02*
X82684524Y-20774819D01*
X82684524Y-20774819D02*
X82779762Y-20774819D01*
D10*
X54514999Y-32564638D02*
X54895952Y-32564638D01*
X54895952Y-32564638D02*
X55086428Y-32659876D01*
X55086428Y-32659876D02*
X55276904Y-32850352D01*
X55276904Y-32850352D02*
X55372142Y-33231304D01*
X55372142Y-33231304D02*
X55372142Y-33897971D01*
X55372142Y-33897971D02*
X55276904Y-34278923D01*
X55276904Y-34278923D02*
X55086428Y-34469400D01*
X55086428Y-34469400D02*
X54895952Y-34564638D01*
X54895952Y-34564638D02*
X54514999Y-34564638D01*
X54514999Y-34564638D02*
X54324523Y-34469400D01*
X54324523Y-34469400D02*
X54134047Y-34278923D01*
X54134047Y-34278923D02*
X54038809Y-33897971D01*
X54038809Y-33897971D02*
X54038809Y-33231304D01*
X54038809Y-33231304D02*
X54134047Y-32850352D01*
X54134047Y-32850352D02*
X54324523Y-32659876D01*
X54324523Y-32659876D02*
X54514999Y-32564638D01*
X56229285Y-32564638D02*
X56229285Y-34183685D01*
X56229285Y-34183685D02*
X56324523Y-34374161D01*
X56324523Y-34374161D02*
X56419761Y-34469400D01*
X56419761Y-34469400D02*
X56610237Y-34564638D01*
X56610237Y-34564638D02*
X56991190Y-34564638D01*
X56991190Y-34564638D02*
X57181666Y-34469400D01*
X57181666Y-34469400D02*
X57276904Y-34374161D01*
X57276904Y-34374161D02*
X57372142Y-34183685D01*
X57372142Y-34183685D02*
X57372142Y-32564638D01*
X58038809Y-32564638D02*
X59181666Y-32564638D01*
X58610237Y-34564638D02*
X58610237Y-32564638D01*
D11*
X73114819Y-35162975D02*
X74114819Y-34829642D01*
X74114819Y-34829642D02*
X73114819Y-34496309D01*
X74067200Y-33734404D02*
X74114819Y-33829642D01*
X74114819Y-33829642D02*
X74114819Y-34020118D01*
X74114819Y-34020118D02*
X74067200Y-34115356D01*
X74067200Y-34115356D02*
X74019580Y-34162975D01*
X74019580Y-34162975D02*
X73924342Y-34210594D01*
X73924342Y-34210594D02*
X73638628Y-34210594D01*
X73638628Y-34210594D02*
X73543390Y-34162975D01*
X73543390Y-34162975D02*
X73495771Y-34115356D01*
X73495771Y-34115356D02*
X73448152Y-34020118D01*
X73448152Y-34020118D02*
X73448152Y-33829642D01*
X73448152Y-33829642D02*
X73495771Y-33734404D01*
X74067200Y-32877261D02*
X74114819Y-32972499D01*
X74114819Y-32972499D02*
X74114819Y-33162975D01*
X74114819Y-33162975D02*
X74067200Y-33258213D01*
X74067200Y-33258213D02*
X74019580Y-33305832D01*
X74019580Y-33305832D02*
X73924342Y-33353451D01*
X73924342Y-33353451D02*
X73638628Y-33353451D01*
X73638628Y-33353451D02*
X73543390Y-33305832D01*
X73543390Y-33305832D02*
X73495771Y-33258213D01*
X73495771Y-33258213D02*
X73448152Y-33162975D01*
X73448152Y-33162975D02*
X73448152Y-32972499D01*
X73448152Y-32972499D02*
X73495771Y-32877261D01*
X2492381Y-33744819D02*
X2587619Y-33744819D01*
X2587619Y-33744819D02*
X2682857Y-33792438D01*
X2682857Y-33792438D02*
X2730476Y-33840057D01*
X2730476Y-33840057D02*
X2778095Y-33935295D01*
X2778095Y-33935295D02*
X2825714Y-34125771D01*
X2825714Y-34125771D02*
X2825714Y-34363866D01*
X2825714Y-34363866D02*
X2778095Y-34554342D01*
X2778095Y-34554342D02*
X2730476Y-34649580D01*
X2730476Y-34649580D02*
X2682857Y-34697200D01*
X2682857Y-34697200D02*
X2587619Y-34744819D01*
X2587619Y-34744819D02*
X2492381Y-34744819D01*
X2492381Y-34744819D02*
X2397143Y-34697200D01*
X2397143Y-34697200D02*
X2349524Y-34649580D01*
X2349524Y-34649580D02*
X2301905Y-34554342D01*
X2301905Y-34554342D02*
X2254286Y-34363866D01*
X2254286Y-34363866D02*
X2254286Y-34125771D01*
X2254286Y-34125771D02*
X2301905Y-33935295D01*
X2301905Y-33935295D02*
X2349524Y-33840057D01*
X2349524Y-33840057D02*
X2397143Y-33792438D01*
X2397143Y-33792438D02*
X2492381Y-33744819D01*
X82322319Y-35067618D02*
X83131842Y-35067618D01*
X83131842Y-35067618D02*
X83227080Y-35019999D01*
X83227080Y-35019999D02*
X83274700Y-34972380D01*
X83274700Y-34972380D02*
X83322319Y-34877142D01*
X83322319Y-34877142D02*
X83322319Y-34686666D01*
X83322319Y-34686666D02*
X83274700Y-34591428D01*
X83274700Y-34591428D02*
X83227080Y-34543809D01*
X83227080Y-34543809D02*
X83131842Y-34496190D01*
X83131842Y-34496190D02*
X82322319Y-34496190D01*
X83274700Y-34067618D02*
X83322319Y-33972380D01*
X83322319Y-33972380D02*
X83322319Y-33781904D01*
X83322319Y-33781904D02*
X83274700Y-33686666D01*
X83274700Y-33686666D02*
X83179461Y-33639047D01*
X83179461Y-33639047D02*
X83131842Y-33639047D01*
X83131842Y-33639047D02*
X83036604Y-33686666D01*
X83036604Y-33686666D02*
X82988985Y-33781904D01*
X82988985Y-33781904D02*
X82988985Y-33924761D01*
X82988985Y-33924761D02*
X82941366Y-34019999D01*
X82941366Y-34019999D02*
X82846128Y-34067618D01*
X82846128Y-34067618D02*
X82798509Y-34067618D01*
X82798509Y-34067618D02*
X82703271Y-34019999D01*
X82703271Y-34019999D02*
X82655652Y-33924761D01*
X82655652Y-33924761D02*
X82655652Y-33781904D01*
X82655652Y-33781904D02*
X82703271Y-33686666D01*
X83274700Y-32829523D02*
X83322319Y-32924761D01*
X83322319Y-32924761D02*
X83322319Y-33115237D01*
X83322319Y-33115237D02*
X83274700Y-33210475D01*
X83274700Y-33210475D02*
X83179461Y-33258094D01*
X83179461Y-33258094D02*
X82798509Y-33258094D01*
X82798509Y-33258094D02*
X82703271Y-33210475D01*
X82703271Y-33210475D02*
X82655652Y-33115237D01*
X82655652Y-33115237D02*
X82655652Y-32924761D01*
X82655652Y-32924761D02*
X82703271Y-32829523D01*
X82703271Y-32829523D02*
X82798509Y-32781904D01*
X82798509Y-32781904D02*
X82893747Y-32781904D01*
X82893747Y-32781904D02*
X82988985Y-33258094D01*
X83227080Y-31781904D02*
X83274700Y-31829523D01*
X83274700Y-31829523D02*
X83322319Y-31972380D01*
X83322319Y-31972380D02*
X83322319Y-32067618D01*
X83322319Y-32067618D02*
X83274700Y-32210475D01*
X83274700Y-32210475D02*
X83179461Y-32305713D01*
X83179461Y-32305713D02*
X83084223Y-32353332D01*
X83084223Y-32353332D02*
X82893747Y-32400951D01*
X82893747Y-32400951D02*
X82750890Y-32400951D01*
X82750890Y-32400951D02*
X82560414Y-32353332D01*
X82560414Y-32353332D02*
X82465176Y-32305713D01*
X82465176Y-32305713D02*
X82369938Y-32210475D01*
X82369938Y-32210475D02*
X82322319Y-32067618D01*
X82322319Y-32067618D02*
X82322319Y-31972380D01*
X82322319Y-31972380D02*
X82369938Y-31829523D01*
X82369938Y-31829523D02*
X82417557Y-31781904D01*
X82798509Y-31019999D02*
X82798509Y-31353332D01*
X83322319Y-31353332D02*
X82322319Y-31353332D01*
X82322319Y-31353332D02*
X82322319Y-30877142D01*
D10*
X29861428Y-34564638D02*
X29861428Y-32564638D01*
X29861428Y-32564638D02*
X30337618Y-32564638D01*
X30337618Y-32564638D02*
X30623333Y-32659876D01*
X30623333Y-32659876D02*
X30813809Y-32850352D01*
X30813809Y-32850352D02*
X30909047Y-33040828D01*
X30909047Y-33040828D02*
X31004285Y-33421780D01*
X31004285Y-33421780D02*
X31004285Y-33707495D01*
X31004285Y-33707495D02*
X30909047Y-34088447D01*
X30909047Y-34088447D02*
X30813809Y-34278923D01*
X30813809Y-34278923D02*
X30623333Y-34469400D01*
X30623333Y-34469400D02*
X30337618Y-34564638D01*
X30337618Y-34564638D02*
X29861428Y-34564638D01*
X31766190Y-34469400D02*
X32051904Y-34564638D01*
X32051904Y-34564638D02*
X32528095Y-34564638D01*
X32528095Y-34564638D02*
X32718571Y-34469400D01*
X32718571Y-34469400D02*
X32813809Y-34374161D01*
X32813809Y-34374161D02*
X32909047Y-34183685D01*
X32909047Y-34183685D02*
X32909047Y-33993209D01*
X32909047Y-33993209D02*
X32813809Y-33802733D01*
X32813809Y-33802733D02*
X32718571Y-33707495D01*
X32718571Y-33707495D02*
X32528095Y-33612257D01*
X32528095Y-33612257D02*
X32147142Y-33517019D01*
X32147142Y-33517019D02*
X31956666Y-33421780D01*
X31956666Y-33421780D02*
X31861428Y-33326542D01*
X31861428Y-33326542D02*
X31766190Y-33136066D01*
X31766190Y-33136066D02*
X31766190Y-32945590D01*
X31766190Y-32945590D02*
X31861428Y-32755114D01*
X31861428Y-32755114D02*
X31956666Y-32659876D01*
X31956666Y-32659876D02*
X32147142Y-32564638D01*
X32147142Y-32564638D02*
X32623333Y-32564638D01*
X32623333Y-32564638D02*
X32909047Y-32659876D01*
X33480476Y-32564638D02*
X34623333Y-32564638D01*
X34051904Y-34564638D02*
X34051904Y-32564638D01*
X35861429Y-35326542D02*
X35766190Y-35231304D01*
X35766190Y-35231304D02*
X35575714Y-34945590D01*
X35575714Y-34945590D02*
X35480476Y-34755114D01*
X35480476Y-34755114D02*
X35385238Y-34469400D01*
X35385238Y-34469400D02*
X35290000Y-33993209D01*
X35290000Y-33993209D02*
X35290000Y-33612257D01*
X35290000Y-33612257D02*
X35385238Y-33136066D01*
X35385238Y-33136066D02*
X35480476Y-32850352D01*
X35480476Y-32850352D02*
X35575714Y-32659876D01*
X35575714Y-32659876D02*
X35766190Y-32374161D01*
X35766190Y-32374161D02*
X35861429Y-32278923D01*
X36528095Y-33993209D02*
X37480476Y-33993209D01*
X36337619Y-34564638D02*
X37004285Y-32564638D01*
X37004285Y-32564638D02*
X37670952Y-34564638D01*
X38147143Y-35326542D02*
X38242381Y-35231304D01*
X38242381Y-35231304D02*
X38432857Y-34945590D01*
X38432857Y-34945590D02*
X38528095Y-34755114D01*
X38528095Y-34755114D02*
X38623333Y-34469400D01*
X38623333Y-34469400D02*
X38718571Y-33993209D01*
X38718571Y-33993209D02*
X38718571Y-33612257D01*
X38718571Y-33612257D02*
X38623333Y-33136066D01*
X38623333Y-33136066D02*
X38528095Y-32850352D01*
X38528095Y-32850352D02*
X38432857Y-32659876D01*
X38432857Y-32659876D02*
X38242381Y-32374161D01*
X38242381Y-32374161D02*
X38147143Y-32278923D01*
X7160238Y-34469400D02*
X7445952Y-34564638D01*
X7445952Y-34564638D02*
X7922143Y-34564638D01*
X7922143Y-34564638D02*
X8112619Y-34469400D01*
X8112619Y-34469400D02*
X8207857Y-34374161D01*
X8207857Y-34374161D02*
X8303095Y-34183685D01*
X8303095Y-34183685D02*
X8303095Y-33993209D01*
X8303095Y-33993209D02*
X8207857Y-33802733D01*
X8207857Y-33802733D02*
X8112619Y-33707495D01*
X8112619Y-33707495D02*
X7922143Y-33612257D01*
X7922143Y-33612257D02*
X7541190Y-33517019D01*
X7541190Y-33517019D02*
X7350714Y-33421780D01*
X7350714Y-33421780D02*
X7255476Y-33326542D01*
X7255476Y-33326542D02*
X7160238Y-33136066D01*
X7160238Y-33136066D02*
X7160238Y-32945590D01*
X7160238Y-32945590D02*
X7255476Y-32755114D01*
X7255476Y-32755114D02*
X7350714Y-32659876D01*
X7350714Y-32659876D02*
X7541190Y-32564638D01*
X7541190Y-32564638D02*
X8017381Y-32564638D01*
X8017381Y-32564638D02*
X8303095Y-32659876D01*
X10303095Y-34564638D02*
X9636428Y-33612257D01*
X9160238Y-34564638D02*
X9160238Y-32564638D01*
X9160238Y-32564638D02*
X9922143Y-32564638D01*
X9922143Y-32564638D02*
X10112619Y-32659876D01*
X10112619Y-32659876D02*
X10207857Y-32755114D01*
X10207857Y-32755114D02*
X10303095Y-32945590D01*
X10303095Y-32945590D02*
X10303095Y-33231304D01*
X10303095Y-33231304D02*
X10207857Y-33421780D01*
X10207857Y-33421780D02*
X10112619Y-33517019D01*
X10112619Y-33517019D02*
X9922143Y-33612257D01*
X9922143Y-33612257D02*
X9160238Y-33612257D01*
X12303095Y-34374161D02*
X12207857Y-34469400D01*
X12207857Y-34469400D02*
X11922143Y-34564638D01*
X11922143Y-34564638D02*
X11731667Y-34564638D01*
X11731667Y-34564638D02*
X11445952Y-34469400D01*
X11445952Y-34469400D02*
X11255476Y-34278923D01*
X11255476Y-34278923D02*
X11160238Y-34088447D01*
X11160238Y-34088447D02*
X11065000Y-33707495D01*
X11065000Y-33707495D02*
X11065000Y-33421780D01*
X11065000Y-33421780D02*
X11160238Y-33040828D01*
X11160238Y-33040828D02*
X11255476Y-32850352D01*
X11255476Y-32850352D02*
X11445952Y-32659876D01*
X11445952Y-32659876D02*
X11731667Y-32564638D01*
X11731667Y-32564638D02*
X11922143Y-32564638D01*
X11922143Y-32564638D02*
X12207857Y-32659876D01*
X12207857Y-32659876D02*
X12303095Y-32755114D01*
X13731667Y-35326542D02*
X13636428Y-35231304D01*
X13636428Y-35231304D02*
X13445952Y-34945590D01*
X13445952Y-34945590D02*
X13350714Y-34755114D01*
X13350714Y-34755114D02*
X13255476Y-34469400D01*
X13255476Y-34469400D02*
X13160238Y-33993209D01*
X13160238Y-33993209D02*
X13160238Y-33612257D01*
X13160238Y-33612257D02*
X13255476Y-33136066D01*
X13255476Y-33136066D02*
X13350714Y-32850352D01*
X13350714Y-32850352D02*
X13445952Y-32659876D01*
X13445952Y-32659876D02*
X13636428Y-32374161D01*
X13636428Y-32374161D02*
X13731667Y-32278923D01*
X15160238Y-33517019D02*
X15445952Y-33612257D01*
X15445952Y-33612257D02*
X15541190Y-33707495D01*
X15541190Y-33707495D02*
X15636428Y-33897971D01*
X15636428Y-33897971D02*
X15636428Y-34183685D01*
X15636428Y-34183685D02*
X15541190Y-34374161D01*
X15541190Y-34374161D02*
X15445952Y-34469400D01*
X15445952Y-34469400D02*
X15255476Y-34564638D01*
X15255476Y-34564638D02*
X14493571Y-34564638D01*
X14493571Y-34564638D02*
X14493571Y-32564638D01*
X14493571Y-32564638D02*
X15160238Y-32564638D01*
X15160238Y-32564638D02*
X15350714Y-32659876D01*
X15350714Y-32659876D02*
X15445952Y-32755114D01*
X15445952Y-32755114D02*
X15541190Y-32945590D01*
X15541190Y-32945590D02*
X15541190Y-33136066D01*
X15541190Y-33136066D02*
X15445952Y-33326542D01*
X15445952Y-33326542D02*
X15350714Y-33421780D01*
X15350714Y-33421780D02*
X15160238Y-33517019D01*
X15160238Y-33517019D02*
X14493571Y-33517019D01*
X16303095Y-35326542D02*
X16398333Y-35231304D01*
X16398333Y-35231304D02*
X16588809Y-34945590D01*
X16588809Y-34945590D02*
X16684047Y-34755114D01*
X16684047Y-34755114D02*
X16779285Y-34469400D01*
X16779285Y-34469400D02*
X16874523Y-33993209D01*
X16874523Y-33993209D02*
X16874523Y-33612257D01*
X16874523Y-33612257D02*
X16779285Y-33136066D01*
X16779285Y-33136066D02*
X16684047Y-32850352D01*
X16684047Y-32850352D02*
X16588809Y-32659876D01*
X16588809Y-32659876D02*
X16398333Y-32374161D01*
X16398333Y-32374161D02*
X16303095Y-32278923D01*
D11*
X48212381Y-33744819D02*
X48307619Y-33744819D01*
X48307619Y-33744819D02*
X48402857Y-33792438D01*
X48402857Y-33792438D02*
X48450476Y-33840057D01*
X48450476Y-33840057D02*
X48498095Y-33935295D01*
X48498095Y-33935295D02*
X48545714Y-34125771D01*
X48545714Y-34125771D02*
X48545714Y-34363866D01*
X48545714Y-34363866D02*
X48498095Y-34554342D01*
X48498095Y-34554342D02*
X48450476Y-34649580D01*
X48450476Y-34649580D02*
X48402857Y-34697200D01*
X48402857Y-34697200D02*
X48307619Y-34744819D01*
X48307619Y-34744819D02*
X48212381Y-34744819D01*
X48212381Y-34744819D02*
X48117143Y-34697200D01*
X48117143Y-34697200D02*
X48069524Y-34649580D01*
X48069524Y-34649580D02*
X48021905Y-34554342D01*
X48021905Y-34554342D02*
X47974286Y-34363866D01*
X47974286Y-34363866D02*
X47974286Y-34125771D01*
X47974286Y-34125771D02*
X48021905Y-33935295D01*
X48021905Y-33935295D02*
X48069524Y-33840057D01*
X48069524Y-33840057D02*
X48117143Y-33792438D01*
X48117143Y-33792438D02*
X48212381Y-33744819D01*
X77200476Y-2709104D02*
X77676666Y-2709104D01*
X77105238Y-2994819D02*
X77438571Y-1994819D01*
X77438571Y-1994819D02*
X77771904Y-2994819D01*
X78105238Y-2994819D02*
X78105238Y-1994819D01*
X78105238Y-1994819D02*
X78343333Y-1994819D01*
X78343333Y-1994819D02*
X78486190Y-2042438D01*
X78486190Y-2042438D02*
X78581428Y-2137676D01*
X78581428Y-2137676D02*
X78629047Y-2232914D01*
X78629047Y-2232914D02*
X78676666Y-2423390D01*
X78676666Y-2423390D02*
X78676666Y-2566247D01*
X78676666Y-2566247D02*
X78629047Y-2756723D01*
X78629047Y-2756723D02*
X78581428Y-2851961D01*
X78581428Y-2851961D02*
X78486190Y-2947200D01*
X78486190Y-2947200D02*
X78343333Y-2994819D01*
X78343333Y-2994819D02*
X78105238Y-2994819D01*
X79105238Y-2994819D02*
X79105238Y-1994819D01*
X79105238Y-1994819D02*
X79343333Y-1994819D01*
X79343333Y-1994819D02*
X79486190Y-2042438D01*
X79486190Y-2042438D02*
X79581428Y-2137676D01*
X79581428Y-2137676D02*
X79629047Y-2232914D01*
X79629047Y-2232914D02*
X79676666Y-2423390D01*
X79676666Y-2423390D02*
X79676666Y-2566247D01*
X79676666Y-2566247D02*
X79629047Y-2756723D01*
X79629047Y-2756723D02*
X79581428Y-2851961D01*
X79581428Y-2851961D02*
X79486190Y-2947200D01*
X79486190Y-2947200D02*
X79343333Y-2994819D01*
X79343333Y-2994819D02*
X79105238Y-2994819D01*
X81438571Y-2899580D02*
X81390952Y-2947200D01*
X81390952Y-2947200D02*
X81248095Y-2994819D01*
X81248095Y-2994819D02*
X81152857Y-2994819D01*
X81152857Y-2994819D02*
X81010000Y-2947200D01*
X81010000Y-2947200D02*
X80914762Y-2851961D01*
X80914762Y-2851961D02*
X80867143Y-2756723D01*
X80867143Y-2756723D02*
X80819524Y-2566247D01*
X80819524Y-2566247D02*
X80819524Y-2423390D01*
X80819524Y-2423390D02*
X80867143Y-2232914D01*
X80867143Y-2232914D02*
X80914762Y-2137676D01*
X80914762Y-2137676D02*
X81010000Y-2042438D01*
X81010000Y-2042438D02*
X81152857Y-1994819D01*
X81152857Y-1994819D02*
X81248095Y-1994819D01*
X81248095Y-1994819D02*
X81390952Y-2042438D01*
X81390952Y-2042438D02*
X81438571Y-2090057D01*
X81867143Y-2994819D02*
X81867143Y-2328152D01*
X81867143Y-1994819D02*
X81819524Y-2042438D01*
X81819524Y-2042438D02*
X81867143Y-2090057D01*
X81867143Y-2090057D02*
X81914762Y-2042438D01*
X81914762Y-2042438D02*
X81867143Y-1994819D01*
X81867143Y-1994819D02*
X81867143Y-2090057D01*
X82343333Y-2328152D02*
X82343333Y-2994819D01*
X82343333Y-2423390D02*
X82390952Y-2375771D01*
X82390952Y-2375771D02*
X82486190Y-2328152D01*
X82486190Y-2328152D02*
X82629047Y-2328152D01*
X82629047Y-2328152D02*
X82724285Y-2375771D01*
X82724285Y-2375771D02*
X82771904Y-2471009D01*
X82771904Y-2471009D02*
X82771904Y-2994819D01*
X19986667Y-33744819D02*
X20653333Y-33744819D01*
X20653333Y-33744819D02*
X20224762Y-34744819D01*
X78194819Y-34837618D02*
X78194819Y-34647142D01*
X78194819Y-34647142D02*
X78242438Y-34551904D01*
X78242438Y-34551904D02*
X78337676Y-34456666D01*
X78337676Y-34456666D02*
X78528152Y-34409047D01*
X78528152Y-34409047D02*
X78861485Y-34409047D01*
X78861485Y-34409047D02*
X79051961Y-34456666D01*
X79051961Y-34456666D02*
X79147200Y-34551904D01*
X79147200Y-34551904D02*
X79194819Y-34647142D01*
X79194819Y-34647142D02*
X79194819Y-34837618D01*
X79194819Y-34837618D02*
X79147200Y-34932856D01*
X79147200Y-34932856D02*
X79051961Y-35028094D01*
X79051961Y-35028094D02*
X78861485Y-35075713D01*
X78861485Y-35075713D02*
X78528152Y-35075713D01*
X78528152Y-35075713D02*
X78337676Y-35028094D01*
X78337676Y-35028094D02*
X78242438Y-34932856D01*
X78242438Y-34932856D02*
X78194819Y-34837618D01*
X78671009Y-33980475D02*
X78671009Y-33647142D01*
X79194819Y-33504285D02*
X79194819Y-33980475D01*
X79194819Y-33980475D02*
X78194819Y-33980475D01*
X78194819Y-33980475D02*
X78194819Y-33504285D01*
X77917200Y-35166190D02*
X77917200Y-33413809D01*
X42846667Y-33744819D02*
X43513333Y-33744819D01*
X43513333Y-33744819D02*
X43084762Y-34744819D01*
X65706667Y-33744819D02*
X66373333Y-33744819D01*
X66373333Y-33744819D02*
X65944762Y-34744819D01*
X76065476Y-10964104D02*
X76541666Y-10964104D01*
X75970238Y-11249819D02*
X76303571Y-10249819D01*
X76303571Y-10249819D02*
X76636904Y-11249819D01*
X76970238Y-11249819D02*
X76970238Y-10249819D01*
X76970238Y-10249819D02*
X77208333Y-10249819D01*
X77208333Y-10249819D02*
X77351190Y-10297438D01*
X77351190Y-10297438D02*
X77446428Y-10392676D01*
X77446428Y-10392676D02*
X77494047Y-10487914D01*
X77494047Y-10487914D02*
X77541666Y-10678390D01*
X77541666Y-10678390D02*
X77541666Y-10821247D01*
X77541666Y-10821247D02*
X77494047Y-11011723D01*
X77494047Y-11011723D02*
X77446428Y-11106961D01*
X77446428Y-11106961D02*
X77351190Y-11202200D01*
X77351190Y-11202200D02*
X77208333Y-11249819D01*
X77208333Y-11249819D02*
X76970238Y-11249819D01*
X77970238Y-11249819D02*
X77970238Y-10249819D01*
X77970238Y-10249819D02*
X78208333Y-10249819D01*
X78208333Y-10249819D02*
X78351190Y-10297438D01*
X78351190Y-10297438D02*
X78446428Y-10392676D01*
X78446428Y-10392676D02*
X78494047Y-10487914D01*
X78494047Y-10487914D02*
X78541666Y-10678390D01*
X78541666Y-10678390D02*
X78541666Y-10821247D01*
X78541666Y-10821247D02*
X78494047Y-11011723D01*
X78494047Y-11011723D02*
X78446428Y-11106961D01*
X78446428Y-11106961D02*
X78351190Y-11202200D01*
X78351190Y-11202200D02*
X78208333Y-11249819D01*
X78208333Y-11249819D02*
X77970238Y-11249819D01*
X80303571Y-11154580D02*
X80255952Y-11202200D01*
X80255952Y-11202200D02*
X80113095Y-11249819D01*
X80113095Y-11249819D02*
X80017857Y-11249819D01*
X80017857Y-11249819D02*
X79875000Y-11202200D01*
X79875000Y-11202200D02*
X79779762Y-11106961D01*
X79779762Y-11106961D02*
X79732143Y-11011723D01*
X79732143Y-11011723D02*
X79684524Y-10821247D01*
X79684524Y-10821247D02*
X79684524Y-10678390D01*
X79684524Y-10678390D02*
X79732143Y-10487914D01*
X79732143Y-10487914D02*
X79779762Y-10392676D01*
X79779762Y-10392676D02*
X79875000Y-10297438D01*
X79875000Y-10297438D02*
X80017857Y-10249819D01*
X80017857Y-10249819D02*
X80113095Y-10249819D01*
X80113095Y-10249819D02*
X80255952Y-10297438D01*
X80255952Y-10297438D02*
X80303571Y-10345057D01*
X80875000Y-11249819D02*
X80779762Y-11202200D01*
X80779762Y-11202200D02*
X80732143Y-11154580D01*
X80732143Y-11154580D02*
X80684524Y-11059342D01*
X80684524Y-11059342D02*
X80684524Y-10773628D01*
X80684524Y-10773628D02*
X80732143Y-10678390D01*
X80732143Y-10678390D02*
X80779762Y-10630771D01*
X80779762Y-10630771D02*
X80875000Y-10583152D01*
X80875000Y-10583152D02*
X81017857Y-10583152D01*
X81017857Y-10583152D02*
X81113095Y-10630771D01*
X81113095Y-10630771D02*
X81160714Y-10678390D01*
X81160714Y-10678390D02*
X81208333Y-10773628D01*
X81208333Y-10773628D02*
X81208333Y-11059342D01*
X81208333Y-11059342D02*
X81160714Y-11154580D01*
X81160714Y-11154580D02*
X81113095Y-11202200D01*
X81113095Y-11202200D02*
X81017857Y-11249819D01*
X81017857Y-11249819D02*
X80875000Y-11249819D01*
X82065476Y-10583152D02*
X82065476Y-11249819D01*
X81636905Y-10583152D02*
X81636905Y-11106961D01*
X81636905Y-11106961D02*
X81684524Y-11202200D01*
X81684524Y-11202200D02*
X81779762Y-11249819D01*
X81779762Y-11249819D02*
X81922619Y-11249819D01*
X81922619Y-11249819D02*
X82017857Y-11202200D01*
X82017857Y-11202200D02*
X82065476Y-11154580D01*
X82398810Y-10583152D02*
X82779762Y-10583152D01*
X82541667Y-10249819D02*
X82541667Y-11106961D01*
X82541667Y-11106961D02*
X82589286Y-11202200D01*
X82589286Y-11202200D02*
X82684524Y-11249819D01*
X82684524Y-11249819D02*
X82779762Y-11249819D01*
D13*
X41370714Y-8759714D02*
X42799286Y-8759714D01*
X41085000Y-9616857D02*
X42085000Y-6616857D01*
X42085000Y-6616857D02*
X43085000Y-9616857D01*
X44085000Y-9616857D02*
X44085000Y-6616857D01*
X44085000Y-6616857D02*
X44799286Y-6616857D01*
X44799286Y-6616857D02*
X45227857Y-6759714D01*
X45227857Y-6759714D02*
X45513572Y-7045428D01*
X45513572Y-7045428D02*
X45656429Y-7331142D01*
X45656429Y-7331142D02*
X45799286Y-7902571D01*
X45799286Y-7902571D02*
X45799286Y-8331142D01*
X45799286Y-8331142D02*
X45656429Y-8902571D01*
X45656429Y-8902571D02*
X45513572Y-9188285D01*
X45513572Y-9188285D02*
X45227857Y-9474000D01*
X45227857Y-9474000D02*
X44799286Y-9616857D01*
X44799286Y-9616857D02*
X44085000Y-9616857D01*
X47085000Y-9616857D02*
X47085000Y-6616857D01*
X47085000Y-6616857D02*
X47799286Y-6616857D01*
X47799286Y-6616857D02*
X48227857Y-6759714D01*
X48227857Y-6759714D02*
X48513572Y-7045428D01*
X48513572Y-7045428D02*
X48656429Y-7331142D01*
X48656429Y-7331142D02*
X48799286Y-7902571D01*
X48799286Y-7902571D02*
X48799286Y-8331142D01*
X48799286Y-8331142D02*
X48656429Y-8902571D01*
X48656429Y-8902571D02*
X48513572Y-9188285D01*
X48513572Y-9188285D02*
X48227857Y-9474000D01*
X48227857Y-9474000D02*
X47799286Y-9616857D01*
X47799286Y-9616857D02*
X47085000Y-9616857D01*
D12*
X61436428Y-20502238D02*
X60484047Y-20502238D01*
X60484047Y-20502238D02*
X60388809Y-21454619D01*
X60388809Y-21454619D02*
X60484047Y-21359380D01*
X60484047Y-21359380D02*
X60674523Y-21264142D01*
X60674523Y-21264142D02*
X61150714Y-21264142D01*
X61150714Y-21264142D02*
X61341190Y-21359380D01*
X61341190Y-21359380D02*
X61436428Y-21454619D01*
X61436428Y-21454619D02*
X61531666Y-21645095D01*
X61531666Y-21645095D02*
X61531666Y-22121285D01*
X61531666Y-22121285D02*
X61436428Y-22311761D01*
X61436428Y-22311761D02*
X61341190Y-22407000D01*
X61341190Y-22407000D02*
X61150714Y-22502238D01*
X61150714Y-22502238D02*
X60674523Y-22502238D01*
X60674523Y-22502238D02*
X60484047Y-22407000D01*
X60484047Y-22407000D02*
X60388809Y-22311761D01*
X62198333Y-20502238D02*
X63531666Y-20502238D01*
X63531666Y-20502238D02*
X62674523Y-22502238D01*
X64103095Y-20502238D02*
X65341190Y-20502238D01*
X65341190Y-20502238D02*
X64674523Y-21264142D01*
X64674523Y-21264142D02*
X64960238Y-21264142D01*
X64960238Y-21264142D02*
X65150714Y-21359380D01*
X65150714Y-21359380D02*
X65245952Y-21454619D01*
X65245952Y-21454619D02*
X65341190Y-21645095D01*
X65341190Y-21645095D02*
X65341190Y-22121285D01*
X65341190Y-22121285D02*
X65245952Y-22311761D01*
X65245952Y-22311761D02*
X65150714Y-22407000D01*
X65150714Y-22407000D02*
X64960238Y-22502238D01*
X64960238Y-22502238D02*
X64388809Y-22502238D01*
X64388809Y-22502238D02*
X64198333Y-22407000D01*
X64198333Y-22407000D02*
X64103095Y-22311761D01*
X63722380Y-5262238D02*
X63912857Y-5262238D01*
X63912857Y-5262238D02*
X64103333Y-5357476D01*
X64103333Y-5357476D02*
X64198571Y-5452714D01*
X64198571Y-5452714D02*
X64293809Y-5643190D01*
X64293809Y-5643190D02*
X64389047Y-6024142D01*
X64389047Y-6024142D02*
X64389047Y-6500333D01*
X64389047Y-6500333D02*
X64293809Y-6881285D01*
X64293809Y-6881285D02*
X64198571Y-7071761D01*
X64198571Y-7071761D02*
X64103333Y-7167000D01*
X64103333Y-7167000D02*
X63912857Y-7262238D01*
X63912857Y-7262238D02*
X63722380Y-7262238D01*
X63722380Y-7262238D02*
X63531904Y-7167000D01*
X63531904Y-7167000D02*
X63436666Y-7071761D01*
X63436666Y-7071761D02*
X63341428Y-6881285D01*
X63341428Y-6881285D02*
X63246190Y-6500333D01*
X63246190Y-6500333D02*
X63246190Y-6024142D01*
X63246190Y-6024142D02*
X63341428Y-5643190D01*
X63341428Y-5643190D02*
X63436666Y-5452714D01*
X63436666Y-5452714D02*
X63531904Y-5357476D01*
X63531904Y-5357476D02*
X63722380Y-5262238D01*
X65627142Y-5262238D02*
X65817619Y-5262238D01*
X65817619Y-5262238D02*
X66008095Y-5357476D01*
X66008095Y-5357476D02*
X66103333Y-5452714D01*
X66103333Y-5452714D02*
X66198571Y-5643190D01*
X66198571Y-5643190D02*
X66293809Y-6024142D01*
X66293809Y-6024142D02*
X66293809Y-6500333D01*
X66293809Y-6500333D02*
X66198571Y-6881285D01*
X66198571Y-6881285D02*
X66103333Y-7071761D01*
X66103333Y-7071761D02*
X66008095Y-7167000D01*
X66008095Y-7167000D02*
X65817619Y-7262238D01*
X65817619Y-7262238D02*
X65627142Y-7262238D01*
X65627142Y-7262238D02*
X65436666Y-7167000D01*
X65436666Y-7167000D02*
X65341428Y-7071761D01*
X65341428Y-7071761D02*
X65246190Y-6881285D01*
X65246190Y-6881285D02*
X65150952Y-6500333D01*
X65150952Y-6500333D02*
X65150952Y-6024142D01*
X65150952Y-6024142D02*
X65246190Y-5643190D01*
X65246190Y-5643190D02*
X65341428Y-5452714D01*
X65341428Y-5452714D02*
X65436666Y-5357476D01*
X65436666Y-5357476D02*
X65627142Y-5262238D01*
D11*
X25352381Y-33744819D02*
X25447619Y-33744819D01*
X25447619Y-33744819D02*
X25542857Y-33792438D01*
X25542857Y-33792438D02*
X25590476Y-33840057D01*
X25590476Y-33840057D02*
X25638095Y-33935295D01*
X25638095Y-33935295D02*
X25685714Y-34125771D01*
X25685714Y-34125771D02*
X25685714Y-34363866D01*
X25685714Y-34363866D02*
X25638095Y-34554342D01*
X25638095Y-34554342D02*
X25590476Y-34649580D01*
X25590476Y-34649580D02*
X25542857Y-34697200D01*
X25542857Y-34697200D02*
X25447619Y-34744819D01*
X25447619Y-34744819D02*
X25352381Y-34744819D01*
X25352381Y-34744819D02*
X25257143Y-34697200D01*
X25257143Y-34697200D02*
X25209524Y-34649580D01*
X25209524Y-34649580D02*
X25161905Y-34554342D01*
X25161905Y-34554342D02*
X25114286Y-34363866D01*
X25114286Y-34363866D02*
X25114286Y-34125771D01*
X25114286Y-34125771D02*
X25161905Y-33935295D01*
X25161905Y-33935295D02*
X25209524Y-33840057D01*
X25209524Y-33840057D02*
X25257143Y-33792438D01*
X25257143Y-33792438D02*
X25352381Y-33744819D01*
D12*
X33392714Y-13588690D02*
X33297476Y-13493452D01*
X33297476Y-13493452D02*
X33202238Y-13302976D01*
X33202238Y-13302976D02*
X33202238Y-12826785D01*
X33202238Y-12826785D02*
X33297476Y-12636309D01*
X33297476Y-12636309D02*
X33392714Y-12541071D01*
X33392714Y-12541071D02*
X33583190Y-12445833D01*
X33583190Y-12445833D02*
X33773666Y-12445833D01*
X33773666Y-12445833D02*
X34059380Y-12541071D01*
X34059380Y-12541071D02*
X35202238Y-13683928D01*
X35202238Y-13683928D02*
X35202238Y-12445833D01*
X34059380Y-11302976D02*
X33964142Y-11493452D01*
X33964142Y-11493452D02*
X33868904Y-11588690D01*
X33868904Y-11588690D02*
X33678428Y-11683928D01*
X33678428Y-11683928D02*
X33583190Y-11683928D01*
X33583190Y-11683928D02*
X33392714Y-11588690D01*
X33392714Y-11588690D02*
X33297476Y-11493452D01*
X33297476Y-11493452D02*
X33202238Y-11302976D01*
X33202238Y-11302976D02*
X33202238Y-10922023D01*
X33202238Y-10922023D02*
X33297476Y-10731547D01*
X33297476Y-10731547D02*
X33392714Y-10636309D01*
X33392714Y-10636309D02*
X33583190Y-10541071D01*
X33583190Y-10541071D02*
X33678428Y-10541071D01*
X33678428Y-10541071D02*
X33868904Y-10636309D01*
X33868904Y-10636309D02*
X33964142Y-10731547D01*
X33964142Y-10731547D02*
X34059380Y-10922023D01*
X34059380Y-10922023D02*
X34059380Y-11302976D01*
X34059380Y-11302976D02*
X34154619Y-11493452D01*
X34154619Y-11493452D02*
X34249857Y-11588690D01*
X34249857Y-11588690D02*
X34440333Y-11683928D01*
X34440333Y-11683928D02*
X34821285Y-11683928D01*
X34821285Y-11683928D02*
X35011761Y-11588690D01*
X35011761Y-11588690D02*
X35107000Y-11493452D01*
X35107000Y-11493452D02*
X35202238Y-11302976D01*
X35202238Y-11302976D02*
X35202238Y-10922023D01*
X35202238Y-10922023D02*
X35107000Y-10731547D01*
X35107000Y-10731547D02*
X35011761Y-10636309D01*
X35011761Y-10636309D02*
X34821285Y-10541071D01*
X34821285Y-10541071D02*
X34440333Y-10541071D01*
X34440333Y-10541071D02*
X34249857Y-10636309D01*
X34249857Y-10636309D02*
X34154619Y-10731547D01*
X34154619Y-10731547D02*
X34059380Y-10922023D01*
X33202238Y-9874404D02*
X33202238Y-8636309D01*
X33202238Y-8636309D02*
X33964142Y-9302976D01*
X33964142Y-9302976D02*
X33964142Y-9017261D01*
X33964142Y-9017261D02*
X34059380Y-8826785D01*
X34059380Y-8826785D02*
X34154619Y-8731547D01*
X34154619Y-8731547D02*
X34345095Y-8636309D01*
X34345095Y-8636309D02*
X34821285Y-8636309D01*
X34821285Y-8636309D02*
X35011761Y-8731547D01*
X35011761Y-8731547D02*
X35107000Y-8826785D01*
X35107000Y-8826785D02*
X35202238Y-9017261D01*
X35202238Y-9017261D02*
X35202238Y-9588690D01*
X35202238Y-9588690D02*
X35107000Y-9779166D01*
X35107000Y-9779166D02*
X35011761Y-9874404D01*
D11*
X75702438Y-34615357D02*
X75654819Y-34710595D01*
X75654819Y-34710595D02*
X75654819Y-34853452D01*
X75654819Y-34853452D02*
X75702438Y-34996309D01*
X75702438Y-34996309D02*
X75797676Y-35091547D01*
X75797676Y-35091547D02*
X75892914Y-35139166D01*
X75892914Y-35139166D02*
X76083390Y-35186785D01*
X76083390Y-35186785D02*
X76226247Y-35186785D01*
X76226247Y-35186785D02*
X76416723Y-35139166D01*
X76416723Y-35139166D02*
X76511961Y-35091547D01*
X76511961Y-35091547D02*
X76607200Y-34996309D01*
X76607200Y-34996309D02*
X76654819Y-34853452D01*
X76654819Y-34853452D02*
X76654819Y-34758214D01*
X76654819Y-34758214D02*
X76607200Y-34615357D01*
X76607200Y-34615357D02*
X76559580Y-34567738D01*
X76559580Y-34567738D02*
X76226247Y-34567738D01*
X76226247Y-34567738D02*
X76226247Y-34758214D01*
X75988152Y-34139166D02*
X76654819Y-34139166D01*
X76083390Y-34139166D02*
X76035771Y-34091547D01*
X76035771Y-34091547D02*
X75988152Y-33996309D01*
X75988152Y-33996309D02*
X75988152Y-33853452D01*
X75988152Y-33853452D02*
X76035771Y-33758214D01*
X76035771Y-33758214D02*
X76131009Y-33710595D01*
X76131009Y-33710595D02*
X76654819Y-33710595D01*
X76654819Y-32805833D02*
X75654819Y-32805833D01*
X76607200Y-32805833D02*
X76654819Y-32901071D01*
X76654819Y-32901071D02*
X76654819Y-33091547D01*
X76654819Y-33091547D02*
X76607200Y-33186785D01*
X76607200Y-33186785D02*
X76559580Y-33234404D01*
X76559580Y-33234404D02*
X76464342Y-33282023D01*
X76464342Y-33282023D02*
X76178628Y-33282023D01*
X76178628Y-33282023D02*
X76083390Y-33234404D01*
X76083390Y-33234404D02*
X76035771Y-33186785D01*
X76035771Y-33186785D02*
X75988152Y-33091547D01*
X75988152Y-33091547D02*
X75988152Y-32901071D01*
X75988152Y-32901071D02*
X76035771Y-32805833D01*
X10668095Y-3474819D02*
X10668095Y-4284342D01*
X10668095Y-4284342D02*
X10715714Y-4379580D01*
X10715714Y-4379580D02*
X10763333Y-4427200D01*
X10763333Y-4427200D02*
X10858571Y-4474819D01*
X10858571Y-4474819D02*
X11049047Y-4474819D01*
X11049047Y-4474819D02*
X11144285Y-4427200D01*
X11144285Y-4427200D02*
X11191904Y-4379580D01*
X11191904Y-4379580D02*
X11239523Y-4284342D01*
X11239523Y-4284342D02*
X11239523Y-3474819D01*
X12239523Y-4474819D02*
X11668095Y-4474819D01*
X11953809Y-4474819D02*
X11953809Y-3474819D01*
X11953809Y-3474819D02*
X11858571Y-3617676D01*
X11858571Y-3617676D02*
X11763333Y-3712914D01*
X11763333Y-3712914D02*
X11668095Y-3760533D01*
X33528095Y-3474819D02*
X33528095Y-4284342D01*
X33528095Y-4284342D02*
X33575714Y-4379580D01*
X33575714Y-4379580D02*
X33623333Y-4427200D01*
X33623333Y-4427200D02*
X33718571Y-4474819D01*
X33718571Y-4474819D02*
X33909047Y-4474819D01*
X33909047Y-4474819D02*
X34004285Y-4427200D01*
X34004285Y-4427200D02*
X34051904Y-4379580D01*
X34051904Y-4379580D02*
X34099523Y-4284342D01*
X34099523Y-4284342D02*
X34099523Y-3474819D01*
X34528095Y-3570057D02*
X34575714Y-3522438D01*
X34575714Y-3522438D02*
X34670952Y-3474819D01*
X34670952Y-3474819D02*
X34909047Y-3474819D01*
X34909047Y-3474819D02*
X35004285Y-3522438D01*
X35004285Y-3522438D02*
X35051904Y-3570057D01*
X35051904Y-3570057D02*
X35099523Y-3665295D01*
X35099523Y-3665295D02*
X35099523Y-3760533D01*
X35099523Y-3760533D02*
X35051904Y-3903390D01*
X35051904Y-3903390D02*
X34480476Y-4474819D01*
X34480476Y-4474819D02*
X35099523Y-4474819D01*
X70364819Y-22351904D02*
X71174342Y-22351904D01*
X71174342Y-22351904D02*
X71269580Y-22304285D01*
X71269580Y-22304285D02*
X71317200Y-22256666D01*
X71317200Y-22256666D02*
X71364819Y-22161428D01*
X71364819Y-22161428D02*
X71364819Y-21970952D01*
X71364819Y-21970952D02*
X71317200Y-21875714D01*
X71317200Y-21875714D02*
X71269580Y-21828095D01*
X71269580Y-21828095D02*
X71174342Y-21780476D01*
X71174342Y-21780476D02*
X70364819Y-21780476D01*
X70364819Y-21399523D02*
X70364819Y-20780476D01*
X70364819Y-20780476D02*
X70745771Y-21113809D01*
X70745771Y-21113809D02*
X70745771Y-20970952D01*
X70745771Y-20970952D02*
X70793390Y-20875714D01*
X70793390Y-20875714D02*
X70841009Y-20828095D01*
X70841009Y-20828095D02*
X70936247Y-20780476D01*
X70936247Y-20780476D02*
X71174342Y-20780476D01*
X71174342Y-20780476D02*
X71269580Y-20828095D01*
X71269580Y-20828095D02*
X71317200Y-20875714D01*
X71317200Y-20875714D02*
X71364819Y-20970952D01*
X71364819Y-20970952D02*
X71364819Y-21256666D01*
X71364819Y-21256666D02*
X71317200Y-21351904D01*
X71317200Y-21351904D02*
X71269580Y-21399523D01*
X76976905Y-24267319D02*
X76976905Y-23267319D01*
X76976905Y-23267319D02*
X77215000Y-23267319D01*
X77215000Y-23267319D02*
X77357857Y-23314938D01*
X77357857Y-23314938D02*
X77453095Y-23410176D01*
X77453095Y-23410176D02*
X77500714Y-23505414D01*
X77500714Y-23505414D02*
X77548333Y-23695890D01*
X77548333Y-23695890D02*
X77548333Y-23838747D01*
X77548333Y-23838747D02*
X77500714Y-24029223D01*
X77500714Y-24029223D02*
X77453095Y-24124461D01*
X77453095Y-24124461D02*
X77357857Y-24219700D01*
X77357857Y-24219700D02*
X77215000Y-24267319D01*
X77215000Y-24267319D02*
X76976905Y-24267319D01*
X78500714Y-24267319D02*
X77929286Y-24267319D01*
X78215000Y-24267319D02*
X78215000Y-23267319D01*
X78215000Y-23267319D02*
X78119762Y-23410176D01*
X78119762Y-23410176D02*
X78024524Y-23505414D01*
X78024524Y-23505414D02*
X77929286Y-23553033D01*
X79194819Y-28741666D02*
X78718628Y-29074999D01*
X79194819Y-29313094D02*
X78194819Y-29313094D01*
X78194819Y-29313094D02*
X78194819Y-28932142D01*
X78194819Y-28932142D02*
X78242438Y-28836904D01*
X78242438Y-28836904D02*
X78290057Y-28789285D01*
X78290057Y-28789285D02*
X78385295Y-28741666D01*
X78385295Y-28741666D02*
X78528152Y-28741666D01*
X78528152Y-28741666D02*
X78623390Y-28789285D01*
X78623390Y-28789285D02*
X78671009Y-28836904D01*
X78671009Y-28836904D02*
X78718628Y-28932142D01*
X78718628Y-28932142D02*
X78718628Y-29313094D01*
X79194819Y-27789285D02*
X79194819Y-28360713D01*
X79194819Y-28074999D02*
X78194819Y-28074999D01*
X78194819Y-28074999D02*
X78337676Y-28170237D01*
X78337676Y-28170237D02*
X78432914Y-28265475D01*
X78432914Y-28265475D02*
X78480533Y-28360713D01*
X69034819Y-30011666D02*
X68558628Y-30344999D01*
X69034819Y-30583094D02*
X68034819Y-30583094D01*
X68034819Y-30583094D02*
X68034819Y-30202142D01*
X68034819Y-30202142D02*
X68082438Y-30106904D01*
X68082438Y-30106904D02*
X68130057Y-30059285D01*
X68130057Y-30059285D02*
X68225295Y-30011666D01*
X68225295Y-30011666D02*
X68368152Y-30011666D01*
X68368152Y-30011666D02*
X68463390Y-30059285D01*
X68463390Y-30059285D02*
X68511009Y-30106904D01*
X68511009Y-30106904D02*
X68558628Y-30202142D01*
X68558628Y-30202142D02*
X68558628Y-30583094D01*
X68130057Y-29630713D02*
X68082438Y-29583094D01*
X68082438Y-29583094D02*
X68034819Y-29487856D01*
X68034819Y-29487856D02*
X68034819Y-29249761D01*
X68034819Y-29249761D02*
X68082438Y-29154523D01*
X68082438Y-29154523D02*
X68130057Y-29106904D01*
X68130057Y-29106904D02*
X68225295Y-29059285D01*
X68225295Y-29059285D02*
X68320533Y-29059285D01*
X68320533Y-29059285D02*
X68463390Y-29106904D01*
X68463390Y-29106904D02*
X69034819Y-29678332D01*
X69034819Y-29678332D02*
X69034819Y-29059285D01*
X70364819Y-7111904D02*
X71174342Y-7111904D01*
X71174342Y-7111904D02*
X71269580Y-7064285D01*
X71269580Y-7064285D02*
X71317200Y-7016666D01*
X71317200Y-7016666D02*
X71364819Y-6921428D01*
X71364819Y-6921428D02*
X71364819Y-6730952D01*
X71364819Y-6730952D02*
X71317200Y-6635714D01*
X71317200Y-6635714D02*
X71269580Y-6588095D01*
X71269580Y-6588095D02*
X71174342Y-6540476D01*
X71174342Y-6540476D02*
X70364819Y-6540476D01*
X70698152Y-5635714D02*
X71364819Y-5635714D01*
X70317200Y-5873809D02*
X71031485Y-6111904D01*
X71031485Y-6111904D02*
X71031485Y-5492857D01*
X81734819Y-29694166D02*
X81258628Y-30027499D01*
X81734819Y-30265594D02*
X80734819Y-30265594D01*
X80734819Y-30265594D02*
X80734819Y-29884642D01*
X80734819Y-29884642D02*
X80782438Y-29789404D01*
X80782438Y-29789404D02*
X80830057Y-29741785D01*
X80830057Y-29741785D02*
X80925295Y-29694166D01*
X80925295Y-29694166D02*
X81068152Y-29694166D01*
X81068152Y-29694166D02*
X81163390Y-29741785D01*
X81163390Y-29741785D02*
X81211009Y-29789404D01*
X81211009Y-29789404D02*
X81258628Y-29884642D01*
X81258628Y-29884642D02*
X81258628Y-30265594D01*
X80734819Y-29360832D02*
X80734819Y-28741785D01*
X80734819Y-28741785D02*
X81115771Y-29075118D01*
X81115771Y-29075118D02*
X81115771Y-28932261D01*
X81115771Y-28932261D02*
X81163390Y-28837023D01*
X81163390Y-28837023D02*
X81211009Y-28789404D01*
X81211009Y-28789404D02*
X81306247Y-28741785D01*
X81306247Y-28741785D02*
X81544342Y-28741785D01*
X81544342Y-28741785D02*
X81639580Y-28789404D01*
X81639580Y-28789404D02*
X81687200Y-28837023D01*
X81687200Y-28837023D02*
X81734819Y-28932261D01*
X81734819Y-28932261D02*
X81734819Y-29217975D01*
X81734819Y-29217975D02*
X81687200Y-29313213D01*
X81687200Y-29313213D02*
X81639580Y-29360832D01*
D14*
X1210000Y-38270000D02*
X1210000Y-40930000D01*
X1210000Y-40930000D02*
X21650000Y-40930000D01*
X2160000Y-37872929D02*
X2160000Y-38270000D01*
X2160000Y-46930000D02*
X2160000Y-40930000D01*
X2920000Y-37872929D02*
X2920000Y-38270000D01*
X2920000Y-40930000D02*
X2920000Y-46930000D01*
X2920000Y-46930000D02*
X2160000Y-46930000D01*
X3810000Y-38270000D02*
X3810000Y-40930000D01*
X4700000Y-37872929D02*
X4700000Y-38270000D01*
X4700000Y-46930000D02*
X4700000Y-40930000D01*
X5460000Y-37872929D02*
X5460000Y-38270000D01*
X5460000Y-40930000D02*
X5460000Y-46930000D01*
X5460000Y-46930000D02*
X4700000Y-46930000D01*
X6350000Y-38270000D02*
X6350000Y-40930000D01*
X7240000Y-37872929D02*
X7240000Y-38270000D01*
X7240000Y-46930000D02*
X7240000Y-40930000D01*
X8000000Y-37872929D02*
X8000000Y-38270000D01*
X8000000Y-40930000D02*
X8000000Y-46930000D01*
X8000000Y-46930000D02*
X7240000Y-46930000D01*
X8890000Y-38270000D02*
X8890000Y-40930000D01*
X9780000Y-37872929D02*
X9780000Y-38270000D01*
X9780000Y-46930000D02*
X9780000Y-40930000D01*
X10540000Y-37872929D02*
X10540000Y-38270000D01*
X10540000Y-40930000D02*
X10540000Y-46930000D01*
X10540000Y-46930000D02*
X9780000Y-46930000D01*
X11430000Y-38270000D02*
X11430000Y-40930000D01*
X12320000Y-37872929D02*
X12320000Y-38270000D01*
X12320000Y-46930000D02*
X12320000Y-40930000D01*
X13080000Y-37872929D02*
X13080000Y-38270000D01*
X13080000Y-40930000D02*
X13080000Y-46930000D01*
X13080000Y-46930000D02*
X12320000Y-46930000D01*
X13970000Y-38270000D02*
X13970000Y-40930000D01*
X14860000Y-37872929D02*
X14860000Y-38270000D01*
X14860000Y-46930000D02*
X14860000Y-40930000D01*
X15620000Y-37872929D02*
X15620000Y-38270000D01*
X15620000Y-40930000D02*
X15620000Y-46930000D01*
X15620000Y-46930000D02*
X14860000Y-46930000D01*
X16510000Y-38270000D02*
X16510000Y-40930000D01*
X17400000Y-37872929D02*
X17400000Y-38270000D01*
X17400000Y-46930000D02*
X17400000Y-40930000D01*
X18160000Y-37872929D02*
X18160000Y-38270000D01*
X18160000Y-40930000D02*
X18160000Y-46930000D01*
X18160000Y-46930000D02*
X17400000Y-46930000D01*
X19050000Y-38270000D02*
X19050000Y-40930000D01*
X19940000Y-37940000D02*
X19940000Y-38270000D01*
X19940000Y-46930000D02*
X19940000Y-40930000D01*
X20040000Y-40930000D02*
X20040000Y-46930000D01*
X20160000Y-40930000D02*
X20160000Y-46930000D01*
X20280000Y-40930000D02*
X20280000Y-46930000D01*
X20320000Y-35560000D02*
X21590000Y-35560000D01*
X20400000Y-40930000D02*
X20400000Y-46930000D01*
X20520000Y-40930000D02*
X20520000Y-46930000D01*
X20640000Y-40930000D02*
X20640000Y-46930000D01*
X20700000Y-37940000D02*
X20700000Y-38270000D01*
X20700000Y-40930000D02*
X20700000Y-46930000D01*
X20700000Y-46930000D02*
X19940000Y-46930000D01*
X21590000Y-35560000D02*
X21590000Y-36830000D01*
X21650000Y-38270000D02*
X1210000Y-38270000D01*
X21650000Y-40930000D02*
X21650000Y-38270000D01*
X8780000Y-5020000D02*
X8780000Y-25460000D01*
X8780000Y-25460000D02*
X14080000Y-25460000D01*
X10430000Y-5020000D02*
X8780000Y-5020000D01*
X14080000Y-5020000D02*
X12430000Y-5020000D01*
X14080000Y-25460000D02*
X14080000Y-5020000D01*
X12430000Y-5020000D02*
G75*
G02*
X10430000Y-5020000I-1000000J0D01*
G01*
X31640000Y-5020000D02*
X31640000Y-25460000D01*
X31640000Y-25460000D02*
X36940000Y-25460000D01*
X33290000Y-5020000D02*
X31640000Y-5020000D01*
X36940000Y-5020000D02*
X35290000Y-5020000D01*
X36940000Y-25460000D02*
X36940000Y-5020000D01*
X35290000Y-5020000D02*
G75*
G02*
X33290000Y-5020000I-1000000J0D01*
G01*
X24070000Y-38270000D02*
X24070000Y-40930000D01*
X24070000Y-40930000D02*
X44510000Y-40930000D01*
X25020000Y-37872929D02*
X25020000Y-38270000D01*
X25020000Y-46930000D02*
X25020000Y-40930000D01*
X25780000Y-37872929D02*
X25780000Y-38270000D01*
X25780000Y-40930000D02*
X25780000Y-46930000D01*
X25780000Y-46930000D02*
X25020000Y-46930000D01*
X26670000Y-38270000D02*
X26670000Y-40930000D01*
X27560000Y-37872929D02*
X27560000Y-38270000D01*
X27560000Y-46930000D02*
X27560000Y-40930000D01*
X28320000Y-37872929D02*
X28320000Y-38270000D01*
X28320000Y-40930000D02*
X28320000Y-46930000D01*
X28320000Y-46930000D02*
X27560000Y-46930000D01*
X29210000Y-38270000D02*
X29210000Y-40930000D01*
X30100000Y-37872929D02*
X30100000Y-38270000D01*
X30100000Y-46930000D02*
X30100000Y-40930000D01*
X30860000Y-37872929D02*
X30860000Y-38270000D01*
X30860000Y-40930000D02*
X30860000Y-46930000D01*
X30860000Y-46930000D02*
X30100000Y-46930000D01*
X31750000Y-38270000D02*
X31750000Y-40930000D01*
X32640000Y-37872929D02*
X32640000Y-38270000D01*
X32640000Y-46930000D02*
X32640000Y-40930000D01*
X33400000Y-37872929D02*
X33400000Y-38270000D01*
X33400000Y-40930000D02*
X33400000Y-46930000D01*
X33400000Y-46930000D02*
X32640000Y-46930000D01*
X34290000Y-38270000D02*
X34290000Y-40930000D01*
X35180000Y-37872929D02*
X35180000Y-38270000D01*
X35180000Y-46930000D02*
X35180000Y-40930000D01*
X35940000Y-37872929D02*
X35940000Y-38270000D01*
X35940000Y-40930000D02*
X35940000Y-46930000D01*
X35940000Y-46930000D02*
X35180000Y-46930000D01*
X36830000Y-38270000D02*
X36830000Y-40930000D01*
X37720000Y-37872929D02*
X37720000Y-38270000D01*
X37720000Y-46930000D02*
X37720000Y-40930000D01*
X38480000Y-37872929D02*
X38480000Y-38270000D01*
X38480000Y-40930000D02*
X38480000Y-46930000D01*
X38480000Y-46930000D02*
X37720000Y-46930000D01*
X39370000Y-38270000D02*
X39370000Y-40930000D01*
X40260000Y-37872929D02*
X40260000Y-38270000D01*
X40260000Y-46930000D02*
X40260000Y-40930000D01*
X41020000Y-37872929D02*
X41020000Y-38270000D01*
X41020000Y-40930000D02*
X41020000Y-46930000D01*
X41020000Y-46930000D02*
X40260000Y-46930000D01*
X41910000Y-38270000D02*
X41910000Y-40930000D01*
X42800000Y-37940000D02*
X42800000Y-38270000D01*
X42800000Y-46930000D02*
X42800000Y-40930000D01*
X42900000Y-40930000D02*
X42900000Y-46930000D01*
X43020000Y-40930000D02*
X43020000Y-46930000D01*
X43140000Y-40930000D02*
X43140000Y-46930000D01*
X43180000Y-35560000D02*
X44450000Y-35560000D01*
X43260000Y-40930000D02*
X43260000Y-46930000D01*
X43380000Y-40930000D02*
X43380000Y-46930000D01*
X43500000Y-40930000D02*
X43500000Y-46930000D01*
X43560000Y-37940000D02*
X43560000Y-38270000D01*
X43560000Y-40930000D02*
X43560000Y-46930000D01*
X43560000Y-46930000D02*
X42800000Y-46930000D01*
X44450000Y-35560000D02*
X44450000Y-36830000D01*
X44510000Y-38270000D02*
X24070000Y-38270000D01*
X44510000Y-40930000D02*
X44510000Y-38270000D01*
X46930000Y-38270000D02*
X46930000Y-40930000D01*
X46930000Y-40930000D02*
X67370000Y-40930000D01*
X47880000Y-37872929D02*
X47880000Y-38270000D01*
X47880000Y-46930000D02*
X47880000Y-40930000D01*
X48640000Y-37872929D02*
X48640000Y-38270000D01*
X48640000Y-40930000D02*
X48640000Y-46930000D01*
X48640000Y-46930000D02*
X47880000Y-46930000D01*
X49530000Y-38270000D02*
X49530000Y-40930000D01*
X50420000Y-37872929D02*
X50420000Y-38270000D01*
X50420000Y-46930000D02*
X50420000Y-40930000D01*
X51180000Y-37872929D02*
X51180000Y-38270000D01*
X51180000Y-40930000D02*
X51180000Y-46930000D01*
X51180000Y-46930000D02*
X50420000Y-46930000D01*
X52070000Y-38270000D02*
X52070000Y-40930000D01*
X52960000Y-37872929D02*
X52960000Y-38270000D01*
X52960000Y-46930000D02*
X52960000Y-40930000D01*
X53720000Y-37872929D02*
X53720000Y-38270000D01*
X53720000Y-40930000D02*
X53720000Y-46930000D01*
X53720000Y-46930000D02*
X52960000Y-46930000D01*
X54610000Y-38270000D02*
X54610000Y-40930000D01*
X55500000Y-37872929D02*
X55500000Y-38270000D01*
X55500000Y-46930000D02*
X55500000Y-40930000D01*
X56260000Y-37872929D02*
X56260000Y-38270000D01*
X56260000Y-40930000D02*
X56260000Y-46930000D01*
X56260000Y-46930000D02*
X55500000Y-46930000D01*
X57150000Y-38270000D02*
X57150000Y-40930000D01*
X58040000Y-37872929D02*
X58040000Y-38270000D01*
X58040000Y-46930000D02*
X58040000Y-40930000D01*
X58800000Y-37872929D02*
X58800000Y-38270000D01*
X58800000Y-40930000D02*
X58800000Y-46930000D01*
X58800000Y-46930000D02*
X58040000Y-46930000D01*
X59690000Y-38270000D02*
X59690000Y-40930000D01*
X60580000Y-37872929D02*
X60580000Y-38270000D01*
X60580000Y-46930000D02*
X60580000Y-40930000D01*
X61340000Y-37872929D02*
X61340000Y-38270000D01*
X61340000Y-40930000D02*
X61340000Y-46930000D01*
X61340000Y-46930000D02*
X60580000Y-46930000D01*
X62230000Y-38270000D02*
X62230000Y-40930000D01*
X63120000Y-37872929D02*
X63120000Y-38270000D01*
X63120000Y-46930000D02*
X63120000Y-40930000D01*
X63880000Y-37872929D02*
X63880000Y-38270000D01*
X63880000Y-40930000D02*
X63880000Y-46930000D01*
X63880000Y-46930000D02*
X63120000Y-46930000D01*
X64770000Y-38270000D02*
X64770000Y-40930000D01*
X65660000Y-37940000D02*
X65660000Y-38270000D01*
X65660000Y-46930000D02*
X65660000Y-40930000D01*
X65760000Y-40930000D02*
X65760000Y-46930000D01*
X65880000Y-40930000D02*
X65880000Y-46930000D01*
X66000000Y-40930000D02*
X66000000Y-46930000D01*
X66040000Y-35560000D02*
X67310000Y-35560000D01*
X66120000Y-40930000D02*
X66120000Y-46930000D01*
X66240000Y-40930000D02*
X66240000Y-46930000D01*
X66360000Y-40930000D02*
X66360000Y-46930000D01*
X66420000Y-37940000D02*
X66420000Y-38270000D01*
X66420000Y-40930000D02*
X66420000Y-46930000D01*
X66420000Y-46930000D02*
X65660000Y-46930000D01*
X67310000Y-35560000D02*
X67310000Y-36830000D01*
X67370000Y-38270000D02*
X46930000Y-38270000D01*
X67370000Y-40930000D02*
X67370000Y-38270000D01*
X44390000Y-18940000D02*
X44390000Y-24240000D01*
X44390000Y-24240000D02*
X69910000Y-24240000D01*
X69910000Y-18940000D02*
X44390000Y-18940000D01*
X69910000Y-20590000D02*
X69910000Y-18940000D01*
X69910000Y-24240000D02*
X69910000Y-22590000D01*
X69910000Y-22590000D02*
G75*
G02*
X69910000Y-20590000I0J1000000D01*
G01*
X76715000Y-26360000D02*
X79575000Y-26360000D01*
X79575000Y-26360000D02*
X79575000Y-24440000D01*
X79575000Y-24440000D02*
X76715000Y-24440000D01*
X79950000Y-3750000D02*
X81280000Y-3750000D01*
X79950000Y-5080000D02*
X79950000Y-3750000D01*
X79950000Y-6350000D02*
X79950000Y-6410000D01*
X79950000Y-6350000D02*
X82610000Y-6350000D01*
X79950000Y-6410000D02*
X82610000Y-6410000D01*
X82610000Y-6350000D02*
X82610000Y-6410000D01*
X79950000Y-12005000D02*
X81280000Y-12005000D01*
X79950000Y-13335000D02*
X79950000Y-12005000D01*
X79950000Y-14605000D02*
X79950000Y-14665000D01*
X79950000Y-14605000D02*
X82610000Y-14605000D01*
X79950000Y-14665000D02*
X82610000Y-14665000D01*
X82610000Y-14605000D02*
X82610000Y-14665000D01*
X78005000Y-31157936D02*
X78005000Y-31612064D01*
X79475000Y-31157936D02*
X79475000Y-31612064D01*
X67845000Y-32977064D02*
X67845000Y-32522936D01*
X69315000Y-32977064D02*
X69315000Y-32522936D01*
X52010000Y-3700000D02*
X52010000Y-9000000D01*
X52010000Y-9000000D02*
X69910000Y-9000000D01*
X69910000Y-3700000D02*
X52010000Y-3700000D01*
X69910000Y-5350000D02*
X69910000Y-3700000D01*
X69910000Y-9000000D02*
X69910000Y-7350000D01*
X69910000Y-7350000D02*
G75*
G02*
X69910000Y-5350000I0J1000000D01*
G01*
X79950000Y-16450000D02*
X81280000Y-16450000D01*
X79950000Y-17780000D02*
X79950000Y-16450000D01*
X79950000Y-19050000D02*
X79950000Y-19110000D01*
X79950000Y-19050000D02*
X82610000Y-19050000D01*
X79950000Y-19110000D02*
X82610000Y-19110000D01*
X82610000Y-19050000D02*
X82610000Y-19110000D01*
X82015000Y-32659564D02*
X82015000Y-32205436D01*
X80545000Y-32659564D02*
X80545000Y-32205436D01*
X69790000Y-38270000D02*
X69790000Y-40930000D01*
X69790000Y-40930000D02*
X82610000Y-40930000D01*
X70740000Y-37872929D02*
X70740000Y-38270000D01*
X70740000Y-46930000D02*
X70740000Y-40930000D01*
X71500000Y-37872929D02*
X71500000Y-38270000D01*
X71500000Y-40930000D02*
X71500000Y-46930000D01*
X71500000Y-46930000D02*
X70740000Y-46930000D01*
X72390000Y-38270000D02*
X72390000Y-40930000D01*
X73280000Y-37872929D02*
X73280000Y-38270000D01*
X73280000Y-46930000D02*
X73280000Y-40930000D01*
X74040000Y-37872929D02*
X74040000Y-38270000D01*
X74040000Y-40930000D02*
X74040000Y-46930000D01*
X74040000Y-46930000D02*
X73280000Y-46930000D01*
X74930000Y-38270000D02*
X74930000Y-40930000D01*
X75820000Y-37872929D02*
X75820000Y-38270000D01*
X75820000Y-46930000D02*
X75820000Y-40930000D01*
X76580000Y-37872929D02*
X76580000Y-38270000D01*
X76580000Y-40930000D02*
X76580000Y-46930000D01*
X76580000Y-46930000D02*
X75820000Y-46930000D01*
X77470000Y-38270000D02*
X77470000Y-40930000D01*
X78360000Y-37872929D02*
X78360000Y-38270000D01*
X78360000Y-46930000D02*
X78360000Y-40930000D01*
X79120000Y-37872929D02*
X79120000Y-38270000D01*
X79120000Y-40930000D02*
X79120000Y-46930000D01*
X79120000Y-46930000D02*
X78360000Y-46930000D01*
X80010000Y-38270000D02*
X80010000Y-40930000D01*
X80900000Y-37940000D02*
X80900000Y-38270000D01*
X80900000Y-46930000D02*
X80900000Y-40930000D01*
X81000000Y-40930000D02*
X81000000Y-46930000D01*
X81120000Y-40930000D02*
X81120000Y-46930000D01*
X81240000Y-40930000D02*
X81240000Y-46930000D01*
X81280000Y-35560000D02*
X82550000Y-35560000D01*
X81360000Y-40930000D02*
X81360000Y-46930000D01*
X81480000Y-40930000D02*
X81480000Y-46930000D01*
X81600000Y-40930000D02*
X81600000Y-46930000D01*
X81660000Y-37940000D02*
X81660000Y-38270000D01*
X81660000Y-40930000D02*
X81660000Y-46930000D01*
X81660000Y-46930000D02*
X80900000Y-46930000D01*
X82550000Y-35560000D02*
X82550000Y-36830000D01*
X82610000Y-38270000D02*
X69790000Y-38270000D01*
X82610000Y-40930000D02*
X82610000Y-38270000D01*
M02*
