G04 #@! TF.GenerationSoftware,KiCad,Pcbnew,9.0.6*
G04 #@! TF.CreationDate,2026-05-15T23:01:58+03:00*
G04 #@! TF.ProjectId,ADD,4144442e-6b69-4636-9164-5f7063625858,rev?*
G04 #@! TF.SameCoordinates,PX3a22d00PY1bdb590*
G04 #@! TF.FileFunction,Copper,L2,Bot*
G04 #@! TF.FilePolarity,Positive*
%FSLAX46Y46*%
G04 Gerber Fmt 4.6, Leading zero omitted, Abs format (unit mm)*
G04 Created by KiCad (PCBNEW 9.0.6) date 2026-05-15 23:01:58*
%MOMM*%
%LPD*%
G01*
G04 APERTURE LIST*
G04 Aperture macros list*
%AMRoundRect*
0 Rectangle with rounded corners*
0 $1 Rounding radius*
0 $2 $3 $4 $5 $6 $7 $8 $9 X,Y pos of 4 corners*
0 Add a 4 corners polygon primitive as box body*
4,1,4,$2,$3,$4,$5,$6,$7,$8,$9,$2,$3,0*
0 Add four circle primitives for the rounded corners*
1,1,$1+$1,$2,$3*
1,1,$1+$1,$4,$5*
1,1,$1+$1,$6,$7*
1,1,$1+$1,$8,$9*
0 Add four rect primitives between the rounded corners*
20,1,$1+$1,$2,$3,$4,$5,0*
20,1,$1+$1,$4,$5,$6,$7,0*
20,1,$1+$1,$6,$7,$8,$9,0*
20,1,$1+$1,$8,$9,$2,$3,0*%
G04 Aperture macros list end*
G04 #@! TA.AperFunction,ComponentPad*
%ADD10R,2.200000X2.300000*%
G04 #@! TD*
G04 #@! TA.AperFunction,ComponentPad*
%ADD11O,2.200000X2.300000*%
G04 #@! TD*
G04 #@! TA.AperFunction,ComponentPad*
%ADD12R,2.000000X1.500000*%
G04 #@! TD*
G04 #@! TA.AperFunction,ComponentPad*
%ADD13O,2.000000X1.500000*%
G04 #@! TD*
G04 #@! TA.AperFunction,ComponentPad*
%ADD14R,1.500000X2.000000*%
G04 #@! TD*
G04 #@! TA.AperFunction,ComponentPad*
%ADD15O,1.500000X2.000000*%
G04 #@! TD*
G04 #@! TA.AperFunction,ComponentPad*
%ADD16R,1.700000X1.700000*%
G04 #@! TD*
G04 #@! TA.AperFunction,ComponentPad*
%ADD17R,1.600000X1.600000*%
G04 #@! TD*
G04 #@! TA.AperFunction,ComponentPad*
%ADD18O,1.600000X1.600000*%
G04 #@! TD*
G04 #@! TA.AperFunction,SMDPad,CuDef*
%ADD19RoundRect,0.250000X0.475000X-0.337500X0.475000X0.337500X-0.475000X0.337500X-0.475000X-0.337500X0*%
G04 #@! TD*
G04 #@! TA.AperFunction,ViaPad*
%ADD20C,1.500000*%
G04 #@! TD*
G04 #@! TA.AperFunction,Conductor*
%ADD21C,0.500000*%
G04 #@! TD*
G04 #@! TA.AperFunction,Conductor*
%ADD22C,0.800000*%
G04 #@! TD*
G04 #@! TA.AperFunction,Conductor*
%ADD23C,0.600000*%
G04 #@! TD*
G04 APERTURE END LIST*
D10*
X20320000Y-36830000D03*
D11*
X17780000Y-36830000D03*
X15240000Y-36830000D03*
X12700000Y-36830000D03*
X10160000Y-36830000D03*
X7620000Y-36830000D03*
X5080000Y-36830000D03*
X2540000Y-36830000D03*
D12*
X7620000Y-6350000D03*
D13*
X7620000Y-8890000D03*
X7620000Y-11430000D03*
X7620000Y-13970000D03*
X7620000Y-16510000D03*
X7620000Y-19050000D03*
X7620000Y-21590000D03*
X7620000Y-24130000D03*
X15240000Y-24130000D03*
X15240000Y-21590000D03*
X15240000Y-19050000D03*
X15240000Y-16510000D03*
X15240000Y-13970000D03*
X15240000Y-11430000D03*
X15240000Y-8890000D03*
X15240000Y-6350000D03*
D12*
X30480000Y-6350000D03*
D13*
X30480000Y-8890000D03*
X30480000Y-11430000D03*
X30480000Y-13970000D03*
X30480000Y-16510000D03*
X30480000Y-19050000D03*
X30480000Y-21590000D03*
X30480000Y-24130000D03*
X38100000Y-24130000D03*
X38100000Y-21590000D03*
X38100000Y-19050000D03*
X38100000Y-16510000D03*
X38100000Y-13970000D03*
X38100000Y-11430000D03*
X38100000Y-8890000D03*
X38100000Y-6350000D03*
D10*
X43180000Y-36830000D03*
D11*
X40640000Y-36830000D03*
X38100000Y-36830000D03*
X35560000Y-36830000D03*
X33020000Y-36830000D03*
X30480000Y-36830000D03*
X27940000Y-36830000D03*
X25400000Y-36830000D03*
D10*
X66040000Y-36830000D03*
D11*
X63500000Y-36830000D03*
X60960000Y-36830000D03*
X58420000Y-36830000D03*
X55880000Y-36830000D03*
X53340000Y-36830000D03*
X50800000Y-36830000D03*
X48260000Y-36830000D03*
D14*
X68580000Y-17780000D03*
D15*
X66040000Y-17780000D03*
X63500000Y-17780000D03*
X60960000Y-17780000D03*
X58420000Y-17780000D03*
X55880000Y-17780000D03*
X53340000Y-17780000D03*
X50800000Y-17780000D03*
X48260000Y-17780000D03*
X45720000Y-17780000D03*
X45720000Y-25400000D03*
X48260000Y-25400000D03*
X50800000Y-25400000D03*
X53340000Y-25400000D03*
X55880000Y-25400000D03*
X58420000Y-25400000D03*
X60960000Y-25400000D03*
X63500000Y-25400000D03*
X66040000Y-25400000D03*
X68580000Y-25400000D03*
D16*
X81280000Y-5080000D03*
X81280000Y-13335000D03*
D17*
X68580000Y-2540000D03*
D18*
X66040000Y-2540000D03*
X63500000Y-2540000D03*
X60960000Y-2540000D03*
X58420000Y-2540000D03*
X55880000Y-2540000D03*
X53340000Y-2540000D03*
X53340000Y-10160000D03*
X55880000Y-10160000D03*
X58420000Y-10160000D03*
X60960000Y-10160000D03*
X63500000Y-10160000D03*
X66040000Y-10160000D03*
X68580000Y-10160000D03*
D16*
X81280000Y-17780000D03*
D19*
X64770000Y-23030000D03*
X64770000Y-20955000D03*
D10*
X81280000Y-36830000D03*
D11*
X78740000Y-36830000D03*
X76200000Y-36830000D03*
X73660000Y-36830000D03*
X71120000Y-36830000D03*
D20*
X38100000Y-29845000D03*
X26335400Y-29845000D03*
X28575000Y-29210000D03*
X12065000Y-20955000D03*
X12065000Y-24130000D03*
X73660000Y-25400000D03*
D21*
X45085000Y-38100000D02*
X44450000Y-38735000D01*
X79375000Y-5080000D02*
X74930000Y-635000D01*
X81280000Y-5080000D02*
X79375000Y-5080000D01*
X80645000Y-7620000D02*
X78105000Y-7620000D01*
X83185000Y-10160000D02*
X80645000Y-7620000D01*
X78105000Y-7620000D02*
X73025000Y-2540000D01*
X83185000Y-22225000D02*
X83185000Y-10160000D01*
X81280000Y-24130000D02*
X83185000Y-22225000D01*
X81280000Y-36830000D02*
X81280000Y-24130000D01*
X73025000Y-2540000D02*
X68580000Y-2540000D01*
D22*
X74295000Y-20955000D02*
X76200000Y-22860000D01*
X64770000Y-20955000D02*
X74295000Y-20955000D01*
X76200000Y-22860000D02*
X76200000Y-36830000D01*
D21*
X78740000Y-36830000D02*
X78740000Y-20955000D01*
X46990000Y-13970000D02*
X45085000Y-12065000D01*
X47625000Y-19685000D02*
X46990000Y-19050000D01*
X35560000Y-5080000D02*
X35560000Y-9207500D01*
X35560000Y-9207500D02*
X36512500Y-10160000D01*
X36512500Y-10160000D02*
X39370000Y-10160000D01*
X63500000Y-19471500D02*
X63286500Y-19685000D01*
X45085000Y-8890000D02*
X40640000Y-4445000D01*
X36195000Y-4445000D02*
X35560000Y-5080000D01*
X39370000Y-10160000D02*
X40005000Y-10795000D01*
X40005000Y-13335000D02*
X39370000Y-13970000D01*
X40640000Y-4445000D02*
X36195000Y-4445000D01*
X47625000Y-19685000D02*
X63286500Y-19685000D01*
X63500000Y-17780000D02*
X63500000Y-19471500D01*
X40005000Y-10795000D02*
X40005000Y-13335000D01*
X45085000Y-12065000D02*
X45085000Y-8890000D01*
X46990000Y-19050000D02*
X46990000Y-13970000D01*
X39370000Y-13970000D02*
X38100000Y-13970000D01*
X46990000Y-11430000D02*
X46990000Y-8255000D01*
X28575000Y-10160000D02*
X27940000Y-10795000D01*
X50800000Y-15240000D02*
X46990000Y-11430000D01*
X46990000Y-8255000D02*
X41910000Y-3175000D01*
X41910000Y-3175000D02*
X34925000Y-3175000D01*
X58420000Y-17780000D02*
X58420000Y-15875000D01*
X33337500Y-4762500D02*
X33337500Y-9207500D01*
X58420000Y-15875000D02*
X57785000Y-15240000D01*
X32385000Y-10160000D02*
X28575000Y-10160000D01*
X57785000Y-15240000D02*
X50800000Y-15240000D01*
X27940000Y-13335000D02*
X28575000Y-13970000D01*
X33337500Y-9207500D02*
X32385000Y-10160000D01*
X34925000Y-3175000D02*
X33337500Y-4762500D01*
X28575000Y-13970000D02*
X30480000Y-13970000D01*
X27940000Y-10795000D02*
X27940000Y-13335000D01*
X59055000Y-13970000D02*
X51435000Y-13970000D01*
X60960000Y-15875000D02*
X59055000Y-13970000D01*
X51435000Y-13970000D02*
X48260000Y-10795000D01*
X60960000Y-17780000D02*
X60960000Y-15875000D01*
X43815000Y-1905000D02*
X33020000Y-1905000D01*
X30480000Y-4445000D02*
X30480000Y-6350000D01*
X48260000Y-6350000D02*
X43815000Y-1905000D01*
X48260000Y-10795000D02*
X48260000Y-6350000D01*
X33020000Y-1905000D02*
X30480000Y-4445000D01*
X40640000Y-19685000D02*
X40640000Y-27305000D01*
X40640000Y-27305000D02*
X38100000Y-29845000D01*
X38100000Y-19050000D02*
X40005000Y-19050000D01*
X40005000Y-19050000D02*
X40640000Y-19685000D01*
X38100000Y-8890000D02*
X42545000Y-8890000D01*
X44450000Y-38735000D02*
X18097500Y-38735000D01*
X17780000Y-38417500D02*
X17780000Y-36830000D01*
X18097500Y-38735000D02*
X17780000Y-38417500D01*
X45085000Y-34290000D02*
X45085000Y-38100000D01*
X43180000Y-32385000D02*
X45085000Y-34290000D01*
X42545000Y-8890000D02*
X43180000Y-9525000D01*
X43180000Y-9525000D02*
X43180000Y-32385000D01*
X30480000Y-8890000D02*
X27940000Y-8890000D01*
X27940000Y-8890000D02*
X26335400Y-10494600D01*
X26335400Y-10494600D02*
X26335400Y-29845000D01*
X29210000Y-19050000D02*
X28279300Y-19980700D01*
X28279300Y-26330700D02*
X28575000Y-26626400D01*
X28575000Y-26626400D02*
X28575000Y-29210000D01*
X30480000Y-19050000D02*
X29210000Y-19050000D01*
X28279300Y-19980700D02*
X28279300Y-26330700D01*
X10497350Y-33317650D02*
X10160000Y-33655000D01*
X10160000Y-33655000D02*
X10160000Y-36830000D01*
X10497350Y-22522650D02*
X12065000Y-20955000D01*
X10497350Y-23197350D02*
X10497350Y-33317650D01*
X10497350Y-23197350D02*
X10497350Y-22522650D01*
X927800Y-34949700D02*
X635000Y-35242500D01*
X7620000Y-38417500D02*
X7620000Y-36830000D01*
X977200Y-34949700D02*
X927800Y-34949700D01*
X7302500Y-38735000D02*
X7620000Y-38417500D01*
X12660800Y-7610800D02*
X3819200Y-7610800D01*
X977200Y-10452800D02*
X977200Y-34949700D01*
X1270000Y-38735000D02*
X7302500Y-38735000D01*
X3819200Y-7610800D02*
X977200Y-10452800D01*
X635000Y-38100000D02*
X1270000Y-38735000D01*
X15240000Y-8890000D02*
X13940000Y-8890000D01*
X635000Y-35242500D02*
X635000Y-38100000D01*
X13940000Y-8890000D02*
X12660800Y-7610800D01*
X9525000Y-15875000D02*
X9525000Y-30480000D01*
X5080000Y-34925000D02*
X5080000Y-36830000D01*
X6350000Y-15240000D02*
X8890000Y-15240000D01*
X6350000Y-8890000D02*
X5715000Y-9525000D01*
X8890000Y-15240000D02*
X9525000Y-15875000D01*
X7620000Y-8890000D02*
X6350000Y-8890000D01*
X9525000Y-30480000D02*
X5080000Y-34925000D01*
X5715000Y-14605000D02*
X6350000Y-15240000D01*
X5715000Y-9525000D02*
X5715000Y-14605000D01*
X2540000Y-20320000D02*
X2540000Y-24130000D01*
X2540000Y-24130000D02*
X2540000Y-36830000D01*
X7620000Y-19050000D02*
X3810000Y-19050000D01*
X3810000Y-19050000D02*
X2540000Y-20320000D01*
X12991050Y-25056050D02*
X12991050Y-25743950D01*
X12991050Y-25743950D02*
X24077100Y-36830000D01*
X12065000Y-24130000D02*
X12991050Y-25056050D01*
X24077100Y-36830000D02*
X25400000Y-36830000D01*
X18415000Y-21590000D02*
X18415000Y-28575000D01*
X11467400Y-12102400D02*
X11467400Y-17817400D01*
X18415000Y-28575000D02*
X24130000Y-34290000D01*
X24130000Y-34290000D02*
X26670000Y-34290000D01*
X10795000Y-11430000D02*
X11467400Y-12102400D01*
X17145000Y-20320000D02*
X18415000Y-21590000D01*
X27940000Y-35560000D02*
X27940000Y-36830000D01*
X13970000Y-20320000D02*
X17145000Y-20320000D01*
X11467400Y-17817400D02*
X13970000Y-20320000D01*
X7620000Y-11430000D02*
X10795000Y-11430000D01*
X26670000Y-34290000D02*
X27940000Y-35560000D01*
X13335000Y-17780000D02*
X12700000Y-17145000D01*
X20955000Y-29210000D02*
X20955000Y-20320000D01*
X18415000Y-17780000D02*
X13335000Y-17780000D01*
X20955000Y-20320000D02*
X18415000Y-17780000D01*
X30480000Y-35560000D02*
X27940000Y-33020000D01*
X24765000Y-33020000D02*
X20955000Y-29210000D01*
X30480000Y-36830000D02*
X30480000Y-35560000D01*
X12700000Y-12065000D02*
X13335000Y-11430000D01*
X27940000Y-33020000D02*
X24765000Y-33020000D01*
X13970000Y-11430000D02*
X15240000Y-11430000D01*
X12700000Y-17145000D02*
X12700000Y-12065000D01*
X13335000Y-11430000D02*
X13970000Y-11430000D01*
X29210000Y-31750000D02*
X33020000Y-35560000D01*
X19685000Y-16510000D02*
X23495000Y-20320000D01*
X15240000Y-16510000D02*
X19685000Y-16510000D01*
X25400000Y-31750000D02*
X29210000Y-31750000D01*
X23495000Y-29845000D02*
X25400000Y-31750000D01*
X23495000Y-20320000D02*
X23495000Y-29845000D01*
X33020000Y-35560000D02*
X33020000Y-36830000D01*
X35560000Y-35560000D02*
X35560000Y-36830000D01*
X32469900Y-32469900D02*
X35560000Y-35560000D01*
X30480000Y-16510000D02*
X31750000Y-16510000D01*
X31750000Y-16510000D02*
X32469900Y-17229900D01*
X32469900Y-17229900D02*
X32469900Y-32469900D01*
X30480000Y-11430000D02*
X33020000Y-11430000D01*
X33655000Y-31115000D02*
X33655000Y-15875000D01*
X33655000Y-12065000D02*
X33655000Y-15875000D01*
X33020000Y-11430000D02*
X33655000Y-12065000D01*
X38100000Y-35560000D02*
X33655000Y-31115000D01*
X38100000Y-36830000D02*
X38100000Y-35560000D01*
X40640000Y-35560000D02*
X34925000Y-29845000D01*
X40640000Y-36830000D02*
X40640000Y-35560000D01*
X36195000Y-11430000D02*
X38100000Y-11430000D01*
X34925000Y-29845000D02*
X34925000Y-12065000D01*
X35560000Y-11430000D02*
X36195000Y-11430000D01*
X34925000Y-12065000D02*
X35560000Y-11430000D01*
X41910000Y-33655000D02*
X43180000Y-34925000D01*
X41275000Y-16510000D02*
X41910000Y-17145000D01*
X41910000Y-17145000D02*
X41910000Y-33655000D01*
X38100000Y-16510000D02*
X41275000Y-16510000D01*
X43180000Y-34925000D02*
X43180000Y-36830000D01*
D23*
X66040000Y-25400000D02*
X66040000Y-36830000D01*
X63500000Y-25400000D02*
X63500000Y-36830000D01*
X60960000Y-25400000D02*
X60960000Y-36830000D01*
X58420000Y-25400000D02*
X58420000Y-36830000D01*
X55880000Y-25400000D02*
X55880000Y-36830000D01*
X53340000Y-25400000D02*
X53340000Y-36830000D01*
X50800000Y-25400000D02*
X50800000Y-36830000D01*
X48260000Y-25400000D02*
X48260000Y-36830000D01*
D21*
X46990000Y-38735000D02*
X70802500Y-38735000D01*
X45720000Y-31115000D02*
X46355000Y-31750000D01*
X45720000Y-25400000D02*
X45720000Y-31115000D01*
X70802500Y-38735000D02*
X71120000Y-38417500D01*
X46355000Y-31750000D02*
X46355000Y-38100000D01*
X71120000Y-38417500D02*
X71120000Y-36830000D01*
X46355000Y-38100000D02*
X46990000Y-38735000D01*
D22*
X68580000Y-25400000D02*
X73660000Y-25400000D01*
X73660000Y-25400000D02*
X73660000Y-36830000D01*
X68486200Y-23030000D02*
X68491100Y-23025100D01*
X68580000Y-23114000D02*
X68491100Y-23025100D01*
X64770000Y-23030000D02*
X68486200Y-23030000D01*
X68580000Y-25400000D02*
X68580000Y-23114000D01*
D21*
X52070000Y-12700000D02*
X63500000Y-12700000D01*
D22*
X46990000Y-21590000D02*
X61595000Y-21590000D01*
D21*
X64770000Y-13970000D02*
X64770000Y-20955000D01*
X50800000Y-3175000D02*
X50800000Y-11430000D01*
D22*
X45720000Y-17780000D02*
X45720000Y-20320000D01*
D21*
X51435000Y-2540000D02*
X50800000Y-3175000D01*
D22*
X45720000Y-20320000D02*
X46990000Y-21590000D01*
D21*
X63500000Y-12700000D02*
X64770000Y-13970000D01*
X53340000Y-2540000D02*
X51435000Y-2540000D01*
D22*
X62230000Y-20955000D02*
X64770000Y-20955000D01*
D21*
X50800000Y-11430000D02*
X52070000Y-12700000D01*
D22*
X61595000Y-21590000D02*
X62230000Y-20955000D01*
D21*
X63500000Y-10160000D02*
X66040000Y-10160000D01*
X68580000Y-17780000D02*
X75565000Y-17780000D01*
X66040000Y-12700000D02*
X68580000Y-15240000D01*
X75565000Y-17780000D02*
X78740000Y-20955000D01*
X68580000Y-15240000D02*
X68580000Y-17780000D01*
X66040000Y-10160000D02*
X66040000Y-12700000D01*
X66675000Y-635000D02*
X74930000Y-635000D01*
X66040000Y-2540000D02*
X66040000Y-1270000D01*
X66040000Y-1270000D02*
X66675000Y-635000D01*
X60960000Y-2540000D02*
X63500000Y-2540000D01*
X58420000Y-2540000D02*
X60960000Y-2540000D01*
X58420000Y-10160000D02*
X60960000Y-10160000D01*
X80645000Y-12700000D02*
X81280000Y-13335000D01*
X53340000Y-8890000D02*
X54610000Y-7620000D01*
X75565000Y-7620000D02*
X80645000Y-12700000D01*
X54610000Y-7620000D02*
X75565000Y-7620000D01*
X53340000Y-10160000D02*
X53340000Y-8890000D01*
M02*
