G04 #@! TF.GenerationSoftware,KiCad,Pcbnew,9.0.6*
G04 #@! TF.CreationDate,2026-05-15T23:01:58+03:00*
G04 #@! TF.ProjectId,ADD,4144442e-6b69-4636-9164-5f7063625858,rev?*
G04 #@! TF.SameCoordinates,PX3a22d00PY1bdb590*
G04 #@! TF.FileFunction,Legend,Bot*
G04 #@! TF.FilePolarity,Positive*
%FSLAX46Y46*%
G04 Gerber Fmt 4.6, Leading zero omitted, Abs format (unit mm)*
G04 Created by KiCad (PCBNEW 9.0.6) date 2026-05-15 23:01:58*
%MOMM*%
%LPD*%
G01*
G04 APERTURE LIST*
%ADD10C,0.150000*%
%ADD11C,0.120000*%
G04 APERTURE END LIST*
D10*
X66809580Y-21825833D02*
X66857200Y-21778214D01*
X66857200Y-21778214D02*
X66904819Y-21635357D01*
X66904819Y-21635357D02*
X66904819Y-21540119D01*
X66904819Y-21540119D02*
X66857200Y-21397262D01*
X66857200Y-21397262D02*
X66761961Y-21302024D01*
X66761961Y-21302024D02*
X66666723Y-21254405D01*
X66666723Y-21254405D02*
X66476247Y-21206786D01*
X66476247Y-21206786D02*
X66333390Y-21206786D01*
X66333390Y-21206786D02*
X66142914Y-21254405D01*
X66142914Y-21254405D02*
X66047676Y-21302024D01*
X66047676Y-21302024D02*
X65952438Y-21397262D01*
X65952438Y-21397262D02*
X65904819Y-21540119D01*
X65904819Y-21540119D02*
X65904819Y-21635357D01*
X65904819Y-21635357D02*
X65952438Y-21778214D01*
X65952438Y-21778214D02*
X66000057Y-21825833D01*
X66904819Y-22778214D02*
X66904819Y-22206786D01*
X66904819Y-22492500D02*
X65904819Y-22492500D01*
X65904819Y-22492500D02*
X66047676Y-22397262D01*
X66047676Y-22397262D02*
X66142914Y-22302024D01*
X66142914Y-22302024D02*
X66190533Y-22206786D01*
D11*
X64035000Y-22253752D02*
X64035000Y-21731248D01*
X65505000Y-22253752D02*
X65505000Y-21731248D01*
M02*
