G04 #@! TF.GenerationSoftware,KiCad,Pcbnew,9.0.6*
G04 #@! TF.CreationDate,2026-05-15T23:01:58+03:00*
G04 #@! TF.ProjectId,ADD,4144442e-6b69-4636-9164-5f7063625858,rev?*
G04 #@! TF.SameCoordinates,PX3a22d00PY1bdb590*
G04 #@! TF.FileFunction,Soldermask,Top*
G04 #@! TF.FilePolarity,Negative*
%FSLAX46Y46*%
G04 Gerber Fmt 4.6, Leading zero omitted, Abs format (unit mm)*
G04 Created by KiCad (PCBNEW 9.0.6) date 2026-05-15 23:01:58*
%MOMM*%
%LPD*%
G01*
G04 APERTURE LIST*
G04 Aperture macros list*
%AMRoundRect*
0 Rectangle with rounded corners*
0 $1 Rounding radius*
0 $2 $3 $4 $5 $6 $7 $8 $9 X,Y pos of 4 corners*
0 Add a 4 corners polygon primitive as box body*
4,1,4,$2,$3,$4,$5,$6,$7,$8,$9,$2,$3,0*
0 Add four circle primitives for the rounded corners*
1,1,$1+$1,$2,$3*
1,1,$1+$1,$4,$5*
1,1,$1+$1,$6,$7*
1,1,$1+$1,$8,$9*
0 Add four rect primitives between the rounded corners*
20,1,$1+$1,$2,$3,$4,$5,0*
20,1,$1+$1,$4,$5,$6,$7,0*
20,1,$1+$1,$6,$7,$8,$9,0*
20,1,$1+$1,$8,$9,$2,$3,0*%
G04 Aperture macros list end*
%ADD10R,2.200000X2.300000*%
%ADD11O,2.200000X2.300000*%
%ADD12R,2.000000X1.500000*%
%ADD13O,2.000000X1.500000*%
%ADD14R,1.500000X2.000000*%
%ADD15O,1.500000X2.000000*%
%ADD16RoundRect,0.249999X0.325001X0.450001X-0.325001X0.450001X-0.325001X-0.450001X0.325001X-0.450001X0*%
%ADD17R,1.700000X1.700000*%
%ADD18RoundRect,0.249999X-0.450001X0.350001X-0.450001X-0.350001X0.450001X-0.350001X0.450001X0.350001X0*%
%ADD19RoundRect,0.249999X0.450001X-0.350001X0.450001X0.350001X-0.450001X0.350001X-0.450001X-0.350001X0*%
%ADD20R,1.600000X1.600000*%
%ADD21O,1.600000X1.600000*%
G04 APERTURE END LIST*
D10*
X20320000Y-36830000D03*
D11*
X17780000Y-36830000D03*
X15240000Y-36830000D03*
X12700000Y-36830000D03*
X10160000Y-36830000D03*
X7620000Y-36830000D03*
X5080000Y-36830000D03*
X2540000Y-36830000D03*
D12*
X7620000Y-6350000D03*
D13*
X7620000Y-8890000D03*
X7620000Y-11430000D03*
X7620000Y-13970000D03*
X7620000Y-16510000D03*
X7620000Y-19050000D03*
X7620000Y-21590000D03*
X7620000Y-24130000D03*
X15240000Y-24130000D03*
X15240000Y-21590000D03*
X15240000Y-19050000D03*
X15240000Y-16510000D03*
X15240000Y-13970000D03*
X15240000Y-11430000D03*
X15240000Y-8890000D03*
X15240000Y-6350000D03*
D12*
X30480000Y-6350000D03*
D13*
X30480000Y-8890000D03*
X30480000Y-11430000D03*
X30480000Y-13970000D03*
X30480000Y-16510000D03*
X30480000Y-19050000D03*
X30480000Y-21590000D03*
X30480000Y-24130000D03*
X38100000Y-24130000D03*
X38100000Y-21590000D03*
X38100000Y-19050000D03*
X38100000Y-16510000D03*
X38100000Y-13970000D03*
X38100000Y-11430000D03*
X38100000Y-8890000D03*
X38100000Y-6350000D03*
D10*
X43180000Y-36830000D03*
D11*
X40640000Y-36830000D03*
X38100000Y-36830000D03*
X35560000Y-36830000D03*
X33020000Y-36830000D03*
X30480000Y-36830000D03*
X27940000Y-36830000D03*
X25400000Y-36830000D03*
D10*
X66040000Y-36830000D03*
D11*
X63500000Y-36830000D03*
X60960000Y-36830000D03*
X58420000Y-36830000D03*
X55880000Y-36830000D03*
X53340000Y-36830000D03*
X50800000Y-36830000D03*
X48260000Y-36830000D03*
D14*
X68580000Y-17780000D03*
D15*
X66040000Y-17780000D03*
X63500000Y-17780000D03*
X60960000Y-17780000D03*
X58420000Y-17780000D03*
X55880000Y-17780000D03*
X53340000Y-17780000D03*
X50800000Y-17780000D03*
X48260000Y-17780000D03*
X45720000Y-17780000D03*
X45720000Y-25400000D03*
X48260000Y-25400000D03*
X50800000Y-25400000D03*
X53340000Y-25400000D03*
X55880000Y-25400000D03*
X58420000Y-25400000D03*
X60960000Y-25400000D03*
X63500000Y-25400000D03*
X66040000Y-25400000D03*
X68580000Y-25400000D03*
D16*
X78740000Y-25400000D03*
X76690000Y-25400000D03*
D17*
X81280000Y-5080000D03*
X81280000Y-13335000D03*
D18*
X78740000Y-30385000D03*
X78740000Y-32385000D03*
D19*
X68580000Y-33750000D03*
X68580000Y-31750000D03*
D20*
X68580000Y-2540000D03*
D21*
X66040000Y-2540000D03*
X63500000Y-2540000D03*
X60960000Y-2540000D03*
X58420000Y-2540000D03*
X55880000Y-2540000D03*
X53340000Y-2540000D03*
X53340000Y-10160000D03*
X55880000Y-10160000D03*
X58420000Y-10160000D03*
X60960000Y-10160000D03*
X63500000Y-10160000D03*
X66040000Y-10160000D03*
X68580000Y-10160000D03*
D17*
X81280000Y-17780000D03*
D19*
X81280000Y-33432500D03*
X81280000Y-31432500D03*
D10*
X81280000Y-36830000D03*
D11*
X78740000Y-36830000D03*
X76200000Y-36830000D03*
X73660000Y-36830000D03*
X71120000Y-36830000D03*
M02*
