G04 #@! TF.GenerationSoftware,KiCad,Pcbnew,9.0.6*
G04 #@! TF.CreationDate,2026-05-15T23:01:58+03:00*
G04 #@! TF.ProjectId,ADD,4144442e-6b69-4636-9164-5f7063625858,rev?*
G04 #@! TF.SameCoordinates,PX3a22d00PY1bdb590*
G04 #@! TF.FileFunction,Copper,L1,Top*
G04 #@! TF.FilePolarity,Positive*
%FSLAX46Y46*%
G04 Gerber Fmt 4.6, Leading zero omitted, Abs format (unit mm)*
G04 Created by KiCad (PCBNEW 9.0.6) date 2026-05-15 23:01:58*
%MOMM*%
%LPD*%
G01*
G04 APERTURE LIST*
G04 Aperture macros list*
%AMRoundRect*
0 Rectangle with rounded corners*
0 $1 Rounding radius*
0 $2 $3 $4 $5 $6 $7 $8 $9 X,Y pos of 4 corners*
0 Add a 4 corners polygon primitive as box body*
4,1,4,$2,$3,$4,$5,$6,$7,$8,$9,$2,$3,0*
0 Add four circle primitives for the rounded corners*
1,1,$1+$1,$2,$3*
1,1,$1+$1,$4,$5*
1,1,$1+$1,$6,$7*
1,1,$1+$1,$8,$9*
0 Add four rect primitives between the rounded corners*
20,1,$1+$1,$2,$3,$4,$5,0*
20,1,$1+$1,$4,$5,$6,$7,0*
20,1,$1+$1,$6,$7,$8,$9,0*
20,1,$1+$1,$8,$9,$2,$3,0*%
G04 Aperture macros list end*
%ADD10C,0.300000*%
G04 #@! TA.AperFunction,NonConductor*
%ADD11C,0.300000*%
G04 #@! TD*
G04 #@! TA.AperFunction,ComponentPad*
%ADD12R,2.200000X2.300000*%
G04 #@! TD*
G04 #@! TA.AperFunction,ComponentPad*
%ADD13O,2.200000X2.300000*%
G04 #@! TD*
G04 #@! TA.AperFunction,ComponentPad*
%ADD14R,2.000000X1.500000*%
G04 #@! TD*
G04 #@! TA.AperFunction,ComponentPad*
%ADD15O,2.000000X1.500000*%
G04 #@! TD*
G04 #@! TA.AperFunction,ComponentPad*
%ADD16R,1.500000X2.000000*%
G04 #@! TD*
G04 #@! TA.AperFunction,ComponentPad*
%ADD17O,1.500000X2.000000*%
G04 #@! TD*
G04 #@! TA.AperFunction,SMDPad,CuDef*
%ADD18RoundRect,0.249999X0.325001X0.450001X-0.325001X0.450001X-0.325001X-0.450001X0.325001X-0.450001X0*%
G04 #@! TD*
G04 #@! TA.AperFunction,ComponentPad*
%ADD19R,1.700000X1.700000*%
G04 #@! TD*
G04 #@! TA.AperFunction,SMDPad,CuDef*
%ADD20RoundRect,0.249999X-0.450001X0.350001X-0.450001X-0.350001X0.450001X-0.350001X0.450001X0.350001X0*%
G04 #@! TD*
G04 #@! TA.AperFunction,SMDPad,CuDef*
%ADD21RoundRect,0.249999X0.450001X-0.350001X0.450001X0.350001X-0.450001X0.350001X-0.450001X-0.350001X0*%
G04 #@! TD*
G04 #@! TA.AperFunction,ComponentPad*
%ADD22R,1.600000X1.600000*%
G04 #@! TD*
G04 #@! TA.AperFunction,ComponentPad*
%ADD23O,1.600000X1.600000*%
G04 #@! TD*
G04 #@! TA.AperFunction,ViaPad*
%ADD24C,1.500000*%
G04 #@! TD*
G04 #@! TA.AperFunction,Conductor*
%ADD25C,0.350000*%
G04 #@! TD*
G04 #@! TA.AperFunction,Conductor*
%ADD26C,0.800000*%
G04 #@! TD*
G04 #@! TA.AperFunction,Conductor*
%ADD27C,0.600000*%
G04 #@! TD*
G04 #@! TA.AperFunction,Conductor*
%ADD28C,0.500000*%
G04 #@! TD*
G04 #@! TA.AperFunction,Conductor*
%ADD29C,0.400000*%
G04 #@! TD*
G04 APERTURE END LIST*
D10*
D11*
X1718328Y-29685714D02*
X1718328Y-28685714D01*
X1718328Y-28685714D02*
X3218328Y-29328571D01*
X2218328Y-27471429D02*
X3218328Y-27471429D01*
X1646900Y-27828571D02*
X2718328Y-28185714D01*
X2718328Y-28185714D02*
X2718328Y-27257143D01*
X3218328Y-26685715D02*
X1718328Y-26685715D01*
X2432614Y-26685715D02*
X2432614Y-25828572D01*
X3218328Y-25828572D02*
X1718328Y-25828572D01*
X3075471Y-24257143D02*
X3146900Y-24328571D01*
X3146900Y-24328571D02*
X3218328Y-24542857D01*
X3218328Y-24542857D02*
X3218328Y-24685714D01*
X3218328Y-24685714D02*
X3146900Y-24900000D01*
X3146900Y-24900000D02*
X3004042Y-25042857D01*
X3004042Y-25042857D02*
X2861185Y-25114286D01*
X2861185Y-25114286D02*
X2575471Y-25185714D01*
X2575471Y-25185714D02*
X2361185Y-25185714D01*
X2361185Y-25185714D02*
X2075471Y-25114286D01*
X2075471Y-25114286D02*
X1932614Y-25042857D01*
X1932614Y-25042857D02*
X1789757Y-24900000D01*
X1789757Y-24900000D02*
X1718328Y-24685714D01*
X1718328Y-24685714D02*
X1718328Y-24542857D01*
X1718328Y-24542857D02*
X1789757Y-24328571D01*
X1789757Y-24328571D02*
X1861185Y-24257143D01*
X3218328Y-23614286D02*
X1718328Y-23614286D01*
X1718328Y-23614286D02*
X1718328Y-23042857D01*
X1718328Y-23042857D02*
X1789757Y-22900000D01*
X1789757Y-22900000D02*
X1861185Y-22828571D01*
X1861185Y-22828571D02*
X2004042Y-22757143D01*
X2004042Y-22757143D02*
X2218328Y-22757143D01*
X2218328Y-22757143D02*
X2361185Y-22828571D01*
X2361185Y-22828571D02*
X2432614Y-22900000D01*
X2432614Y-22900000D02*
X2504042Y-23042857D01*
X2504042Y-23042857D02*
X2504042Y-23614286D01*
X1718328Y-22114286D02*
X2932614Y-22114286D01*
X2932614Y-22114286D02*
X3075471Y-22042857D01*
X3075471Y-22042857D02*
X3146900Y-21971429D01*
X3146900Y-21971429D02*
X3218328Y-21828571D01*
X3218328Y-21828571D02*
X3218328Y-21542857D01*
X3218328Y-21542857D02*
X3146900Y-21400000D01*
X3146900Y-21400000D02*
X3075471Y-21328571D01*
X3075471Y-21328571D02*
X2932614Y-21257143D01*
X2932614Y-21257143D02*
X1718328Y-21257143D01*
D10*
D11*
X3218328Y-15445712D02*
X3218328Y-16302855D01*
X3218328Y-15874284D02*
X1718328Y-15874284D01*
X1718328Y-15874284D02*
X1932614Y-16017141D01*
X1932614Y-16017141D02*
X2075471Y-16159998D01*
X2075471Y-16159998D02*
X2146900Y-16302855D01*
X1718328Y-14088570D02*
X1718328Y-14802856D01*
X1718328Y-14802856D02*
X2432614Y-14874284D01*
X2432614Y-14874284D02*
X2361185Y-14802856D01*
X2361185Y-14802856D02*
X2289757Y-14659999D01*
X2289757Y-14659999D02*
X2289757Y-14302856D01*
X2289757Y-14302856D02*
X2361185Y-14159999D01*
X2361185Y-14159999D02*
X2432614Y-14088570D01*
X2432614Y-14088570D02*
X2575471Y-14017141D01*
X2575471Y-14017141D02*
X2932614Y-14017141D01*
X2932614Y-14017141D02*
X3075471Y-14088570D01*
X3075471Y-14088570D02*
X3146900Y-14159999D01*
X3146900Y-14159999D02*
X3218328Y-14302856D01*
X3218328Y-14302856D02*
X3218328Y-14659999D01*
X3218328Y-14659999D02*
X3146900Y-14802856D01*
X3146900Y-14802856D02*
X3075471Y-14874284D01*
X3075471Y-13374285D02*
X3146900Y-13302856D01*
X3146900Y-13302856D02*
X3218328Y-13374285D01*
X3218328Y-13374285D02*
X3146900Y-13445713D01*
X3146900Y-13445713D02*
X3075471Y-13374285D01*
X3075471Y-13374285D02*
X3218328Y-13374285D01*
X1718328Y-12374284D02*
X1718328Y-12231427D01*
X1718328Y-12231427D02*
X1789757Y-12088570D01*
X1789757Y-12088570D02*
X1861185Y-12017142D01*
X1861185Y-12017142D02*
X2004042Y-11945713D01*
X2004042Y-11945713D02*
X2289757Y-11874284D01*
X2289757Y-11874284D02*
X2646900Y-11874284D01*
X2646900Y-11874284D02*
X2932614Y-11945713D01*
X2932614Y-11945713D02*
X3075471Y-12017142D01*
X3075471Y-12017142D02*
X3146900Y-12088570D01*
X3146900Y-12088570D02*
X3218328Y-12231427D01*
X3218328Y-12231427D02*
X3218328Y-12374284D01*
X3218328Y-12374284D02*
X3146900Y-12517142D01*
X3146900Y-12517142D02*
X3075471Y-12588570D01*
X3075471Y-12588570D02*
X2932614Y-12659999D01*
X2932614Y-12659999D02*
X2646900Y-12731427D01*
X2646900Y-12731427D02*
X2289757Y-12731427D01*
X2289757Y-12731427D02*
X2004042Y-12659999D01*
X2004042Y-12659999D02*
X1861185Y-12588570D01*
X1861185Y-12588570D02*
X1789757Y-12517142D01*
X1789757Y-12517142D02*
X1718328Y-12374284D01*
X1718328Y-10517142D02*
X1718328Y-11231428D01*
X1718328Y-11231428D02*
X2432614Y-11302856D01*
X2432614Y-11302856D02*
X2361185Y-11231428D01*
X2361185Y-11231428D02*
X2289757Y-11088571D01*
X2289757Y-11088571D02*
X2289757Y-10731428D01*
X2289757Y-10731428D02*
X2361185Y-10588571D01*
X2361185Y-10588571D02*
X2432614Y-10517142D01*
X2432614Y-10517142D02*
X2575471Y-10445713D01*
X2575471Y-10445713D02*
X2932614Y-10445713D01*
X2932614Y-10445713D02*
X3075471Y-10517142D01*
X3075471Y-10517142D02*
X3146900Y-10588571D01*
X3146900Y-10588571D02*
X3218328Y-10731428D01*
X3218328Y-10731428D02*
X3218328Y-11088571D01*
X3218328Y-11088571D02*
X3146900Y-11231428D01*
X3146900Y-11231428D02*
X3075471Y-11302856D01*
X3075471Y-9802857D02*
X3146900Y-9731428D01*
X3146900Y-9731428D02*
X3218328Y-9802857D01*
X3218328Y-9802857D02*
X3146900Y-9874285D01*
X3146900Y-9874285D02*
X3075471Y-9802857D01*
X3075471Y-9802857D02*
X3218328Y-9802857D01*
X1861185Y-9159999D02*
X1789757Y-9088571D01*
X1789757Y-9088571D02*
X1718328Y-8945714D01*
X1718328Y-8945714D02*
X1718328Y-8588571D01*
X1718328Y-8588571D02*
X1789757Y-8445714D01*
X1789757Y-8445714D02*
X1861185Y-8374285D01*
X1861185Y-8374285D02*
X2004042Y-8302856D01*
X2004042Y-8302856D02*
X2146900Y-8302856D01*
X2146900Y-8302856D02*
X2361185Y-8374285D01*
X2361185Y-8374285D02*
X3218328Y-9231428D01*
X3218328Y-9231428D02*
X3218328Y-8302856D01*
X1718328Y-7374285D02*
X1718328Y-7231428D01*
X1718328Y-7231428D02*
X1789757Y-7088571D01*
X1789757Y-7088571D02*
X1861185Y-7017143D01*
X1861185Y-7017143D02*
X2004042Y-6945714D01*
X2004042Y-6945714D02*
X2289757Y-6874285D01*
X2289757Y-6874285D02*
X2646900Y-6874285D01*
X2646900Y-6874285D02*
X2932614Y-6945714D01*
X2932614Y-6945714D02*
X3075471Y-7017143D01*
X3075471Y-7017143D02*
X3146900Y-7088571D01*
X3146900Y-7088571D02*
X3218328Y-7231428D01*
X3218328Y-7231428D02*
X3218328Y-7374285D01*
X3218328Y-7374285D02*
X3146900Y-7517143D01*
X3146900Y-7517143D02*
X3075471Y-7588571D01*
X3075471Y-7588571D02*
X2932614Y-7660000D01*
X2932614Y-7660000D02*
X2646900Y-7731428D01*
X2646900Y-7731428D02*
X2289757Y-7731428D01*
X2289757Y-7731428D02*
X2004042Y-7660000D01*
X2004042Y-7660000D02*
X1861185Y-7588571D01*
X1861185Y-7588571D02*
X1789757Y-7517143D01*
X1789757Y-7517143D02*
X1718328Y-7374285D01*
X1861185Y-6302857D02*
X1789757Y-6231429D01*
X1789757Y-6231429D02*
X1718328Y-6088572D01*
X1718328Y-6088572D02*
X1718328Y-5731429D01*
X1718328Y-5731429D02*
X1789757Y-5588572D01*
X1789757Y-5588572D02*
X1861185Y-5517143D01*
X1861185Y-5517143D02*
X2004042Y-5445714D01*
X2004042Y-5445714D02*
X2146900Y-5445714D01*
X2146900Y-5445714D02*
X2361185Y-5517143D01*
X2361185Y-5517143D02*
X3218328Y-6374286D01*
X3218328Y-6374286D02*
X3218328Y-5445714D01*
X1718328Y-4160001D02*
X1718328Y-4445715D01*
X1718328Y-4445715D02*
X1789757Y-4588572D01*
X1789757Y-4588572D02*
X1861185Y-4660001D01*
X1861185Y-4660001D02*
X2075471Y-4802858D01*
X2075471Y-4802858D02*
X2361185Y-4874286D01*
X2361185Y-4874286D02*
X2932614Y-4874286D01*
X2932614Y-4874286D02*
X3075471Y-4802858D01*
X3075471Y-4802858D02*
X3146900Y-4731429D01*
X3146900Y-4731429D02*
X3218328Y-4588572D01*
X3218328Y-4588572D02*
X3218328Y-4302858D01*
X3218328Y-4302858D02*
X3146900Y-4160001D01*
X3146900Y-4160001D02*
X3075471Y-4088572D01*
X3075471Y-4088572D02*
X2932614Y-4017143D01*
X2932614Y-4017143D02*
X2575471Y-4017143D01*
X2575471Y-4017143D02*
X2432614Y-4088572D01*
X2432614Y-4088572D02*
X2361185Y-4160001D01*
X2361185Y-4160001D02*
X2289757Y-4302858D01*
X2289757Y-4302858D02*
X2289757Y-4588572D01*
X2289757Y-4588572D02*
X2361185Y-4731429D01*
X2361185Y-4731429D02*
X2432614Y-4802858D01*
X2432614Y-4802858D02*
X2575471Y-4874286D01*
D12*
X20320000Y-36830000D03*
D13*
X17780000Y-36830000D03*
X15240000Y-36830000D03*
X12700000Y-36830000D03*
X10160000Y-36830000D03*
X7620000Y-36830000D03*
X5080000Y-36830000D03*
X2540000Y-36830000D03*
D14*
X7620000Y-6350000D03*
D15*
X7620000Y-8890000D03*
X7620000Y-11430000D03*
X7620000Y-13970000D03*
X7620000Y-16510000D03*
X7620000Y-19050000D03*
X7620000Y-21590000D03*
X7620000Y-24130000D03*
X15240000Y-24130000D03*
X15240000Y-21590000D03*
X15240000Y-19050000D03*
X15240000Y-16510000D03*
X15240000Y-13970000D03*
X15240000Y-11430000D03*
X15240000Y-8890000D03*
X15240000Y-6350000D03*
D14*
X30480000Y-6350000D03*
D15*
X30480000Y-8890000D03*
X30480000Y-11430000D03*
X30480000Y-13970000D03*
X30480000Y-16510000D03*
X30480000Y-19050000D03*
X30480000Y-21590000D03*
X30480000Y-24130000D03*
X38100000Y-24130000D03*
X38100000Y-21590000D03*
X38100000Y-19050000D03*
X38100000Y-16510000D03*
X38100000Y-13970000D03*
X38100000Y-11430000D03*
X38100000Y-8890000D03*
X38100000Y-6350000D03*
D12*
X43180000Y-36830000D03*
D13*
X40640000Y-36830000D03*
X38100000Y-36830000D03*
X35560000Y-36830000D03*
X33020000Y-36830000D03*
X30480000Y-36830000D03*
X27940000Y-36830000D03*
X25400000Y-36830000D03*
D12*
X66040000Y-36830000D03*
D13*
X63500000Y-36830000D03*
X60960000Y-36830000D03*
X58420000Y-36830000D03*
X55880000Y-36830000D03*
X53340000Y-36830000D03*
X50800000Y-36830000D03*
X48260000Y-36830000D03*
D16*
X68580000Y-17780000D03*
D17*
X66040000Y-17780000D03*
X63500000Y-17780000D03*
X60960000Y-17780000D03*
X58420000Y-17780000D03*
X55880000Y-17780000D03*
X53340000Y-17780000D03*
X50800000Y-17780000D03*
X48260000Y-17780000D03*
X45720000Y-17780000D03*
X45720000Y-25400000D03*
X48260000Y-25400000D03*
X50800000Y-25400000D03*
X53340000Y-25400000D03*
X55880000Y-25400000D03*
X58420000Y-25400000D03*
X60960000Y-25400000D03*
X63500000Y-25400000D03*
X66040000Y-25400000D03*
X68580000Y-25400000D03*
D18*
X78740000Y-25400000D03*
X76690000Y-25400000D03*
D19*
X81280000Y-5080000D03*
X81280000Y-13335000D03*
D20*
X78740000Y-30385000D03*
X78740000Y-32385000D03*
D21*
X68580000Y-33750000D03*
X68580000Y-31750000D03*
D22*
X68580000Y-2540000D03*
D23*
X66040000Y-2540000D03*
X63500000Y-2540000D03*
X60960000Y-2540000D03*
X58420000Y-2540000D03*
X55880000Y-2540000D03*
X53340000Y-2540000D03*
X53340000Y-10160000D03*
X55880000Y-10160000D03*
X58420000Y-10160000D03*
X60960000Y-10160000D03*
X63500000Y-10160000D03*
X66040000Y-10160000D03*
X68580000Y-10160000D03*
D19*
X81280000Y-17780000D03*
D21*
X81280000Y-33432500D03*
X81280000Y-31432500D03*
D12*
X81280000Y-36830000D03*
D13*
X78740000Y-36830000D03*
X76200000Y-36830000D03*
X73660000Y-36830000D03*
X71120000Y-36830000D03*
D24*
X38100000Y-29845000D03*
X26335400Y-29845000D03*
X28575000Y-29210000D03*
X12065000Y-20955000D03*
X12065000Y-24130000D03*
X73660000Y-25400000D03*
D25*
X76541000Y-31409000D02*
X76200000Y-31750000D01*
X81256500Y-31409000D02*
X76541000Y-31409000D01*
X81280000Y-31432500D02*
X81256500Y-31409000D01*
D26*
X68580000Y-31750000D02*
X76200000Y-31750000D01*
X76200000Y-31750000D02*
X76200000Y-36830000D01*
D27*
X15240000Y-36830000D02*
X15240000Y-34290000D01*
X15240000Y-34290000D02*
X17780000Y-31750000D01*
X19685000Y-29845000D02*
X17780000Y-31750000D01*
X26335400Y-29845000D02*
X19685000Y-29845000D01*
D26*
X33020000Y-26670000D02*
X30480000Y-26670000D01*
X34290000Y-27940000D02*
X33020000Y-26670000D01*
X43815000Y-31750000D02*
X40005000Y-27940000D01*
X40005000Y-27940000D02*
X34290000Y-27940000D01*
X69056250Y-31750000D02*
X43815000Y-31750000D01*
D28*
X71120000Y-34925000D02*
X71120000Y-36830000D01*
X69945000Y-33750000D02*
X71120000Y-34925000D01*
X68580000Y-33750000D02*
X69945000Y-33750000D01*
X78740000Y-32385000D02*
X78740000Y-36830000D01*
X76690000Y-25400000D02*
X73660000Y-25400000D01*
X81280000Y-20637500D02*
X77787500Y-24130000D01*
X81280000Y-17780000D02*
X81280000Y-20637500D01*
D29*
X77764000Y-24153500D02*
X77787500Y-24130000D01*
X77764000Y-27011000D02*
X77764000Y-24153500D01*
X77470000Y-27305000D02*
X77764000Y-27011000D01*
D28*
X76835000Y-27940000D02*
X77470000Y-27305000D01*
X81280000Y-33432500D02*
X81280000Y-36830000D01*
X20305000Y-7605000D02*
X20320000Y-7620000D01*
X50800000Y-13970000D02*
X50800000Y-16510000D01*
X8920000Y-6350000D02*
X10175000Y-7605000D01*
X7620000Y-6350000D02*
X8920000Y-6350000D01*
X20320000Y-7620000D02*
X44450000Y-7620000D01*
X10175000Y-7605000D02*
X20305000Y-7605000D01*
X50800000Y-16510000D02*
X50800000Y-17780000D01*
X44450000Y-7620000D02*
X50800000Y-13970000D01*
X15240000Y-21590000D02*
X20320000Y-21590000D01*
X41275000Y-20955000D02*
X55245000Y-20955000D01*
X21609600Y-20300400D02*
X40620400Y-20300400D01*
X20320000Y-21590000D02*
X21609600Y-20300400D01*
X40620400Y-20300400D02*
X41275000Y-20955000D01*
X55880000Y-20320000D02*
X55880000Y-17780000D01*
X55245000Y-20955000D02*
X55880000Y-20320000D01*
X48260000Y-13335000D02*
X48260000Y-14605000D01*
X7620000Y-13970000D02*
X8920000Y-13970000D01*
X8920000Y-13970000D02*
X10190000Y-12700000D01*
X10190000Y-12700000D02*
X47625000Y-12700000D01*
X47625000Y-12700000D02*
X48260000Y-13335000D01*
X48260000Y-14605000D02*
X48260000Y-17780000D01*
X20955000Y-13970000D02*
X24765000Y-17780000D01*
X15240000Y-13970000D02*
X20955000Y-13970000D01*
X52705000Y-19685000D02*
X53340000Y-19050000D01*
X24765000Y-17780000D02*
X40640000Y-17780000D01*
X53340000Y-19050000D02*
X53340000Y-17780000D01*
X42545000Y-19685000D02*
X52705000Y-19685000D01*
X40640000Y-17780000D02*
X42545000Y-19685000D01*
X46990000Y-1270000D02*
X50165000Y-4445000D01*
X55245000Y-4445000D02*
X55880000Y-3810000D01*
X7620000Y-1270000D02*
X46990000Y-1270000D01*
X50165000Y-4445000D02*
X55245000Y-4445000D01*
X55880000Y-3810000D02*
X55880000Y-2540000D01*
X5080000Y-3810000D02*
X7620000Y-1270000D01*
X5080000Y-20955000D02*
X5080000Y-3810000D01*
X5715000Y-21590000D02*
X5080000Y-20955000D01*
X7620000Y-21590000D02*
X5715000Y-21590000D01*
X40640000Y-22225000D02*
X63500000Y-22225000D01*
X40005000Y-21590000D02*
X40640000Y-22225000D01*
X38100000Y-21590000D02*
X40005000Y-21590000D01*
X66040000Y-19685000D02*
X66040000Y-17780000D01*
X63500000Y-22225000D02*
X66040000Y-19685000D01*
X20320000Y-34290000D02*
X21590000Y-33020000D01*
X34925000Y-33020000D02*
X36030000Y-31915000D01*
X20320000Y-36830000D02*
X20320000Y-34290000D01*
X21590000Y-33020000D02*
X34925000Y-33020000D01*
X36030000Y-31915000D02*
X38100000Y-29845000D01*
X28575000Y-29210000D02*
X28575000Y-28604200D01*
X28202800Y-28232000D02*
X28279300Y-28308500D01*
X12700000Y-36830000D02*
X12700000Y-33020000D01*
X28575000Y-28604200D02*
X28202800Y-28232000D01*
X17488000Y-28232000D02*
X28202800Y-28232000D01*
X12700000Y-33020000D02*
X17488000Y-28232000D01*
X15240000Y-19050000D02*
X13970000Y-19050000D01*
X13970000Y-19050000D02*
X12104700Y-20915300D01*
X12038550Y-24156450D02*
X12065000Y-24130000D01*
X11138950Y-23203950D02*
X10451050Y-22516050D01*
X9525000Y-16510000D02*
X10451050Y-17436050D01*
X12065000Y-24130000D02*
X11138950Y-23203950D01*
X10451050Y-17436050D02*
X10451050Y-22516050D01*
X7620000Y-16510000D02*
X9525000Y-16510000D01*
D26*
X47625000Y-6350000D02*
X43815000Y-2540000D01*
X38100000Y-2540000D02*
X43815000Y-2540000D01*
X73660000Y-10795000D02*
X73025000Y-10160000D01*
X15240000Y-2540000D02*
X38100000Y-2540000D01*
X47625000Y-6350000D02*
X68580000Y-6350000D01*
X73660000Y-25400000D02*
X73660000Y-10795000D01*
X15240000Y-6350000D02*
X15240000Y-3994900D01*
X38100000Y-2540000D02*
X38100000Y-6350000D01*
X68580000Y-6350000D02*
X68580000Y-10160000D01*
X68580000Y-10160000D02*
X73025000Y-10160000D01*
X15240000Y-3994900D02*
X15240000Y-2540000D01*
X30480000Y-26670000D02*
X7620000Y-26670000D01*
X7620000Y-26670000D02*
X7620000Y-25717500D01*
X30480000Y-26670000D02*
X30480000Y-24130000D01*
X7620000Y-25717500D02*
X7620000Y-24130000D01*
D28*
X78740000Y-25400000D02*
X78740000Y-30480000D01*
X66040000Y-12700000D02*
X67310000Y-13970000D01*
X40005000Y-24130000D02*
X38100000Y-24130000D01*
X67310000Y-20320000D02*
X64135000Y-23495000D01*
X64135000Y-23495000D02*
X40640000Y-23495000D01*
X55880000Y-12065000D02*
X56515000Y-12700000D01*
X55880000Y-10160000D02*
X55880000Y-12065000D01*
X67310000Y-13970000D02*
X67310000Y-20320000D01*
X56515000Y-12700000D02*
X66040000Y-12700000D01*
X40640000Y-23495000D02*
X40005000Y-24130000D01*
X30480000Y-21590000D02*
X31750000Y-21590000D01*
D27*
X23495000Y-21590000D02*
X30480000Y-21590000D01*
D28*
X36195000Y-26035000D02*
X41910000Y-26035000D01*
X31750000Y-21590000D02*
X36195000Y-26035000D01*
X43815000Y-27940000D02*
X76835000Y-27940000D01*
D27*
X20955000Y-24130000D02*
X23495000Y-21590000D01*
X15240000Y-24130000D02*
X20955000Y-24130000D01*
D28*
X41910000Y-26035000D02*
X43815000Y-27940000D01*
M02*
