%TF.GenerationSoftware,KiCad,Pcbnew,9.0.6*%
%TF.CreationDate,2026-05-15T23:13:01+03:00*%
%TF.ProjectId,MUL1,4d554c31-2e6b-4696-9361-645f70636258,rev?*%
%TF.SameCoordinates,Original*%
%TF.FileFunction,Legend,Top*%
%TF.FilePolarity,Positive*%
%FSLAX46Y46*%
G04 Gerber Fmt 4.6, Leading zero omitted, Abs format (unit mm)*
G04 Created by KiCad (PCBNEW 9.0.6) date 2026-05-15 23:13:01*
%MOMM*%
%LPD*%
G01*
G04 APERTURE LIST*
%ADD10C,0.300000*%
%ADD11C,0.200000*%
%ADD12C,0.250000*%
%ADD13C,0.150000*%
%ADD14C,0.400000*%
%ADD15C,0.120000*%
G04 APERTURE END LIST*
D10*
X155099285Y-59503328D02*
X156099285Y-59503328D01*
X156099285Y-59503328D02*
X155456428Y-61003328D01*
X157313571Y-60003328D02*
X157313571Y-61003328D01*
X156956428Y-59431900D02*
X156599285Y-60503328D01*
X156599285Y-60503328D02*
X157527856Y-60503328D01*
X158099284Y-61003328D02*
X158099284Y-59503328D01*
X158099284Y-60217614D02*
X158956427Y-60217614D01*
X158956427Y-61003328D02*
X158956427Y-59503328D01*
X160527856Y-60860471D02*
X160456428Y-60931900D01*
X160456428Y-60931900D02*
X160242142Y-61003328D01*
X160242142Y-61003328D02*
X160099285Y-61003328D01*
X160099285Y-61003328D02*
X159884999Y-60931900D01*
X159884999Y-60931900D02*
X159742142Y-60789042D01*
X159742142Y-60789042D02*
X159670713Y-60646185D01*
X159670713Y-60646185D02*
X159599285Y-60360471D01*
X159599285Y-60360471D02*
X159599285Y-60146185D01*
X159599285Y-60146185D02*
X159670713Y-59860471D01*
X159670713Y-59860471D02*
X159742142Y-59717614D01*
X159742142Y-59717614D02*
X159884999Y-59574757D01*
X159884999Y-59574757D02*
X160099285Y-59503328D01*
X160099285Y-59503328D02*
X160242142Y-59503328D01*
X160242142Y-59503328D02*
X160456428Y-59574757D01*
X160456428Y-59574757D02*
X160527856Y-59646185D01*
X161170713Y-61003328D02*
X161170713Y-59503328D01*
X161170713Y-59503328D02*
X161742142Y-59503328D01*
X161742142Y-59503328D02*
X161884999Y-59574757D01*
X161884999Y-59574757D02*
X161956428Y-59646185D01*
X161956428Y-59646185D02*
X162027856Y-59789042D01*
X162027856Y-59789042D02*
X162027856Y-60003328D01*
X162027856Y-60003328D02*
X161956428Y-60146185D01*
X161956428Y-60146185D02*
X161884999Y-60217614D01*
X161884999Y-60217614D02*
X161742142Y-60289042D01*
X161742142Y-60289042D02*
X161170713Y-60289042D01*
X162670713Y-59503328D02*
X162670713Y-60717614D01*
X162670713Y-60717614D02*
X162742142Y-60860471D01*
X162742142Y-60860471D02*
X162813571Y-60931900D01*
X162813571Y-60931900D02*
X162956428Y-61003328D01*
X162956428Y-61003328D02*
X163242142Y-61003328D01*
X163242142Y-61003328D02*
X163384999Y-60931900D01*
X163384999Y-60931900D02*
X163456428Y-60860471D01*
X163456428Y-60860471D02*
X163527856Y-60717614D01*
X163527856Y-60717614D02*
X163527856Y-59503328D01*
D11*
X83569999Y-81177814D02*
X83784285Y-81249242D01*
X83784285Y-81249242D02*
X83855714Y-81320671D01*
X83855714Y-81320671D02*
X83927142Y-81463528D01*
X83927142Y-81463528D02*
X83927142Y-81677814D01*
X83927142Y-81677814D02*
X83855714Y-81820671D01*
X83855714Y-81820671D02*
X83784285Y-81892100D01*
X83784285Y-81892100D02*
X83641428Y-81963528D01*
X83641428Y-81963528D02*
X83069999Y-81963528D01*
X83069999Y-81963528D02*
X83069999Y-80463528D01*
X83069999Y-80463528D02*
X83569999Y-80463528D01*
X83569999Y-80463528D02*
X83712857Y-80534957D01*
X83712857Y-80534957D02*
X83784285Y-80606385D01*
X83784285Y-80606385D02*
X83855714Y-80749242D01*
X83855714Y-80749242D02*
X83855714Y-80892100D01*
X83855714Y-80892100D02*
X83784285Y-81034957D01*
X83784285Y-81034957D02*
X83712857Y-81106385D01*
X83712857Y-81106385D02*
X83569999Y-81177814D01*
X83569999Y-81177814D02*
X83069999Y-81177814D01*
X84569999Y-81963528D02*
X84569999Y-80963528D01*
X84569999Y-80463528D02*
X84498571Y-80534957D01*
X84498571Y-80534957D02*
X84569999Y-80606385D01*
X84569999Y-80606385D02*
X84641428Y-80534957D01*
X84641428Y-80534957D02*
X84569999Y-80463528D01*
X84569999Y-80463528D02*
X84569999Y-80606385D01*
D12*
X122292714Y-62801190D02*
X122197476Y-62705952D01*
X122197476Y-62705952D02*
X122102238Y-62515476D01*
X122102238Y-62515476D02*
X122102238Y-62039285D01*
X122102238Y-62039285D02*
X122197476Y-61848809D01*
X122197476Y-61848809D02*
X122292714Y-61753571D01*
X122292714Y-61753571D02*
X122483190Y-61658333D01*
X122483190Y-61658333D02*
X122673666Y-61658333D01*
X122673666Y-61658333D02*
X122959380Y-61753571D01*
X122959380Y-61753571D02*
X124102238Y-62896428D01*
X124102238Y-62896428D02*
X124102238Y-61658333D01*
X122959380Y-60515476D02*
X122864142Y-60705952D01*
X122864142Y-60705952D02*
X122768904Y-60801190D01*
X122768904Y-60801190D02*
X122578428Y-60896428D01*
X122578428Y-60896428D02*
X122483190Y-60896428D01*
X122483190Y-60896428D02*
X122292714Y-60801190D01*
X122292714Y-60801190D02*
X122197476Y-60705952D01*
X122197476Y-60705952D02*
X122102238Y-60515476D01*
X122102238Y-60515476D02*
X122102238Y-60134523D01*
X122102238Y-60134523D02*
X122197476Y-59944047D01*
X122197476Y-59944047D02*
X122292714Y-59848809D01*
X122292714Y-59848809D02*
X122483190Y-59753571D01*
X122483190Y-59753571D02*
X122578428Y-59753571D01*
X122578428Y-59753571D02*
X122768904Y-59848809D01*
X122768904Y-59848809D02*
X122864142Y-59944047D01*
X122864142Y-59944047D02*
X122959380Y-60134523D01*
X122959380Y-60134523D02*
X122959380Y-60515476D01*
X122959380Y-60515476D02*
X123054619Y-60705952D01*
X123054619Y-60705952D02*
X123149857Y-60801190D01*
X123149857Y-60801190D02*
X123340333Y-60896428D01*
X123340333Y-60896428D02*
X123721285Y-60896428D01*
X123721285Y-60896428D02*
X123911761Y-60801190D01*
X123911761Y-60801190D02*
X124007000Y-60705952D01*
X124007000Y-60705952D02*
X124102238Y-60515476D01*
X124102238Y-60515476D02*
X124102238Y-60134523D01*
X124102238Y-60134523D02*
X124007000Y-59944047D01*
X124007000Y-59944047D02*
X123911761Y-59848809D01*
X123911761Y-59848809D02*
X123721285Y-59753571D01*
X123721285Y-59753571D02*
X123340333Y-59753571D01*
X123340333Y-59753571D02*
X123149857Y-59848809D01*
X123149857Y-59848809D02*
X123054619Y-59944047D01*
X123054619Y-59944047D02*
X122959380Y-60134523D01*
X122102238Y-59086904D02*
X122102238Y-57848809D01*
X122102238Y-57848809D02*
X122864142Y-58515476D01*
X122864142Y-58515476D02*
X122864142Y-58229761D01*
X122864142Y-58229761D02*
X122959380Y-58039285D01*
X122959380Y-58039285D02*
X123054619Y-57944047D01*
X123054619Y-57944047D02*
X123245095Y-57848809D01*
X123245095Y-57848809D02*
X123721285Y-57848809D01*
X123721285Y-57848809D02*
X123911761Y-57944047D01*
X123911761Y-57944047D02*
X124007000Y-58039285D01*
X124007000Y-58039285D02*
X124102238Y-58229761D01*
X124102238Y-58229761D02*
X124102238Y-58801190D01*
X124102238Y-58801190D02*
X124007000Y-58991666D01*
X124007000Y-58991666D02*
X123911761Y-59086904D01*
X142612714Y-62801190D02*
X142517476Y-62705952D01*
X142517476Y-62705952D02*
X142422238Y-62515476D01*
X142422238Y-62515476D02*
X142422238Y-62039285D01*
X142422238Y-62039285D02*
X142517476Y-61848809D01*
X142517476Y-61848809D02*
X142612714Y-61753571D01*
X142612714Y-61753571D02*
X142803190Y-61658333D01*
X142803190Y-61658333D02*
X142993666Y-61658333D01*
X142993666Y-61658333D02*
X143279380Y-61753571D01*
X143279380Y-61753571D02*
X144422238Y-62896428D01*
X144422238Y-62896428D02*
X144422238Y-61658333D01*
X143279380Y-60515476D02*
X143184142Y-60705952D01*
X143184142Y-60705952D02*
X143088904Y-60801190D01*
X143088904Y-60801190D02*
X142898428Y-60896428D01*
X142898428Y-60896428D02*
X142803190Y-60896428D01*
X142803190Y-60896428D02*
X142612714Y-60801190D01*
X142612714Y-60801190D02*
X142517476Y-60705952D01*
X142517476Y-60705952D02*
X142422238Y-60515476D01*
X142422238Y-60515476D02*
X142422238Y-60134523D01*
X142422238Y-60134523D02*
X142517476Y-59944047D01*
X142517476Y-59944047D02*
X142612714Y-59848809D01*
X142612714Y-59848809D02*
X142803190Y-59753571D01*
X142803190Y-59753571D02*
X142898428Y-59753571D01*
X142898428Y-59753571D02*
X143088904Y-59848809D01*
X143088904Y-59848809D02*
X143184142Y-59944047D01*
X143184142Y-59944047D02*
X143279380Y-60134523D01*
X143279380Y-60134523D02*
X143279380Y-60515476D01*
X143279380Y-60515476D02*
X143374619Y-60705952D01*
X143374619Y-60705952D02*
X143469857Y-60801190D01*
X143469857Y-60801190D02*
X143660333Y-60896428D01*
X143660333Y-60896428D02*
X144041285Y-60896428D01*
X144041285Y-60896428D02*
X144231761Y-60801190D01*
X144231761Y-60801190D02*
X144327000Y-60705952D01*
X144327000Y-60705952D02*
X144422238Y-60515476D01*
X144422238Y-60515476D02*
X144422238Y-60134523D01*
X144422238Y-60134523D02*
X144327000Y-59944047D01*
X144327000Y-59944047D02*
X144231761Y-59848809D01*
X144231761Y-59848809D02*
X144041285Y-59753571D01*
X144041285Y-59753571D02*
X143660333Y-59753571D01*
X143660333Y-59753571D02*
X143469857Y-59848809D01*
X143469857Y-59848809D02*
X143374619Y-59944047D01*
X143374619Y-59944047D02*
X143279380Y-60134523D01*
X142422238Y-59086904D02*
X142422238Y-57848809D01*
X142422238Y-57848809D02*
X143184142Y-58515476D01*
X143184142Y-58515476D02*
X143184142Y-58229761D01*
X143184142Y-58229761D02*
X143279380Y-58039285D01*
X143279380Y-58039285D02*
X143374619Y-57944047D01*
X143374619Y-57944047D02*
X143565095Y-57848809D01*
X143565095Y-57848809D02*
X144041285Y-57848809D01*
X144041285Y-57848809D02*
X144231761Y-57944047D01*
X144231761Y-57944047D02*
X144327000Y-58039285D01*
X144327000Y-58039285D02*
X144422238Y-58229761D01*
X144422238Y-58229761D02*
X144422238Y-58801190D01*
X144422238Y-58801190D02*
X144327000Y-58991666D01*
X144327000Y-58991666D02*
X144231761Y-59086904D01*
X104639738Y-72167619D02*
X104639738Y-71977142D01*
X104639738Y-71977142D02*
X104734976Y-71786666D01*
X104734976Y-71786666D02*
X104830214Y-71691428D01*
X104830214Y-71691428D02*
X105020690Y-71596190D01*
X105020690Y-71596190D02*
X105401642Y-71500952D01*
X105401642Y-71500952D02*
X105877833Y-71500952D01*
X105877833Y-71500952D02*
X106258785Y-71596190D01*
X106258785Y-71596190D02*
X106449261Y-71691428D01*
X106449261Y-71691428D02*
X106544500Y-71786666D01*
X106544500Y-71786666D02*
X106639738Y-71977142D01*
X106639738Y-71977142D02*
X106639738Y-72167619D01*
X106639738Y-72167619D02*
X106544500Y-72358095D01*
X106544500Y-72358095D02*
X106449261Y-72453333D01*
X106449261Y-72453333D02*
X106258785Y-72548571D01*
X106258785Y-72548571D02*
X105877833Y-72643809D01*
X105877833Y-72643809D02*
X105401642Y-72643809D01*
X105401642Y-72643809D02*
X105020690Y-72548571D01*
X105020690Y-72548571D02*
X104830214Y-72453333D01*
X104830214Y-72453333D02*
X104734976Y-72358095D01*
X104734976Y-72358095D02*
X104639738Y-72167619D01*
X105496880Y-70358095D02*
X105401642Y-70548571D01*
X105401642Y-70548571D02*
X105306404Y-70643809D01*
X105306404Y-70643809D02*
X105115928Y-70739047D01*
X105115928Y-70739047D02*
X105020690Y-70739047D01*
X105020690Y-70739047D02*
X104830214Y-70643809D01*
X104830214Y-70643809D02*
X104734976Y-70548571D01*
X104734976Y-70548571D02*
X104639738Y-70358095D01*
X104639738Y-70358095D02*
X104639738Y-69977142D01*
X104639738Y-69977142D02*
X104734976Y-69786666D01*
X104734976Y-69786666D02*
X104830214Y-69691428D01*
X104830214Y-69691428D02*
X105020690Y-69596190D01*
X105020690Y-69596190D02*
X105115928Y-69596190D01*
X105115928Y-69596190D02*
X105306404Y-69691428D01*
X105306404Y-69691428D02*
X105401642Y-69786666D01*
X105401642Y-69786666D02*
X105496880Y-69977142D01*
X105496880Y-69977142D02*
X105496880Y-70358095D01*
X105496880Y-70358095D02*
X105592119Y-70548571D01*
X105592119Y-70548571D02*
X105687357Y-70643809D01*
X105687357Y-70643809D02*
X105877833Y-70739047D01*
X105877833Y-70739047D02*
X106258785Y-70739047D01*
X106258785Y-70739047D02*
X106449261Y-70643809D01*
X106449261Y-70643809D02*
X106544500Y-70548571D01*
X106544500Y-70548571D02*
X106639738Y-70358095D01*
X106639738Y-70358095D02*
X106639738Y-69977142D01*
X106639738Y-69977142D02*
X106544500Y-69786666D01*
X106544500Y-69786666D02*
X106449261Y-69691428D01*
X106449261Y-69691428D02*
X106258785Y-69596190D01*
X106258785Y-69596190D02*
X105877833Y-69596190D01*
X105877833Y-69596190D02*
X105687357Y-69691428D01*
X105687357Y-69691428D02*
X105592119Y-69786666D01*
X105592119Y-69786666D02*
X105496880Y-69977142D01*
D11*
X97432857Y-81534957D02*
X98147143Y-81534957D01*
X97290000Y-81963528D02*
X97790000Y-80463528D01*
X97790000Y-80463528D02*
X98290000Y-81963528D01*
D13*
X88852381Y-80734819D02*
X88947619Y-80734819D01*
X88947619Y-80734819D02*
X89042857Y-80782438D01*
X89042857Y-80782438D02*
X89090476Y-80830057D01*
X89090476Y-80830057D02*
X89138095Y-80925295D01*
X89138095Y-80925295D02*
X89185714Y-81115771D01*
X89185714Y-81115771D02*
X89185714Y-81353866D01*
X89185714Y-81353866D02*
X89138095Y-81544342D01*
X89138095Y-81544342D02*
X89090476Y-81639580D01*
X89090476Y-81639580D02*
X89042857Y-81687200D01*
X89042857Y-81687200D02*
X88947619Y-81734819D01*
X88947619Y-81734819D02*
X88852381Y-81734819D01*
X88852381Y-81734819D02*
X88757143Y-81687200D01*
X88757143Y-81687200D02*
X88709524Y-81639580D01*
X88709524Y-81639580D02*
X88661905Y-81544342D01*
X88661905Y-81544342D02*
X88614286Y-81353866D01*
X88614286Y-81353866D02*
X88614286Y-81115771D01*
X88614286Y-81115771D02*
X88661905Y-80925295D01*
X88661905Y-80925295D02*
X88709524Y-80830057D01*
X88709524Y-80830057D02*
X88757143Y-80782438D01*
X88757143Y-80782438D02*
X88852381Y-80734819D01*
D11*
X120257142Y-81963528D02*
X120257142Y-80463528D01*
X120257142Y-80463528D02*
X120828571Y-80463528D01*
X120828571Y-80463528D02*
X120971428Y-80534957D01*
X120971428Y-80534957D02*
X121042857Y-80606385D01*
X121042857Y-80606385D02*
X121114285Y-80749242D01*
X121114285Y-80749242D02*
X121114285Y-80963528D01*
X121114285Y-80963528D02*
X121042857Y-81106385D01*
X121042857Y-81106385D02*
X120971428Y-81177814D01*
X120971428Y-81177814D02*
X120828571Y-81249242D01*
X120828571Y-81249242D02*
X120257142Y-81249242D01*
D13*
X154844762Y-81163390D02*
X154749524Y-81115771D01*
X154749524Y-81115771D02*
X154701905Y-81068152D01*
X154701905Y-81068152D02*
X154654286Y-80972914D01*
X154654286Y-80972914D02*
X154654286Y-80925295D01*
X154654286Y-80925295D02*
X154701905Y-80830057D01*
X154701905Y-80830057D02*
X154749524Y-80782438D01*
X154749524Y-80782438D02*
X154844762Y-80734819D01*
X154844762Y-80734819D02*
X155035238Y-80734819D01*
X155035238Y-80734819D02*
X155130476Y-80782438D01*
X155130476Y-80782438D02*
X155178095Y-80830057D01*
X155178095Y-80830057D02*
X155225714Y-80925295D01*
X155225714Y-80925295D02*
X155225714Y-80972914D01*
X155225714Y-80972914D02*
X155178095Y-81068152D01*
X155178095Y-81068152D02*
X155130476Y-81115771D01*
X155130476Y-81115771D02*
X155035238Y-81163390D01*
X155035238Y-81163390D02*
X154844762Y-81163390D01*
X154844762Y-81163390D02*
X154749524Y-81211009D01*
X154749524Y-81211009D02*
X154701905Y-81258628D01*
X154701905Y-81258628D02*
X154654286Y-81353866D01*
X154654286Y-81353866D02*
X154654286Y-81544342D01*
X154654286Y-81544342D02*
X154701905Y-81639580D01*
X154701905Y-81639580D02*
X154749524Y-81687200D01*
X154749524Y-81687200D02*
X154844762Y-81734819D01*
X154844762Y-81734819D02*
X155035238Y-81734819D01*
X155035238Y-81734819D02*
X155130476Y-81687200D01*
X155130476Y-81687200D02*
X155178095Y-81639580D01*
X155178095Y-81639580D02*
X155225714Y-81544342D01*
X155225714Y-81544342D02*
X155225714Y-81353866D01*
X155225714Y-81353866D02*
X155178095Y-81258628D01*
X155178095Y-81258628D02*
X155130476Y-81211009D01*
X155130476Y-81211009D02*
X155035238Y-81163390D01*
X162062438Y-81922857D02*
X162014819Y-82018095D01*
X162014819Y-82018095D02*
X162014819Y-82160952D01*
X162014819Y-82160952D02*
X162062438Y-82303809D01*
X162062438Y-82303809D02*
X162157676Y-82399047D01*
X162157676Y-82399047D02*
X162252914Y-82446666D01*
X162252914Y-82446666D02*
X162443390Y-82494285D01*
X162443390Y-82494285D02*
X162586247Y-82494285D01*
X162586247Y-82494285D02*
X162776723Y-82446666D01*
X162776723Y-82446666D02*
X162871961Y-82399047D01*
X162871961Y-82399047D02*
X162967200Y-82303809D01*
X162967200Y-82303809D02*
X163014819Y-82160952D01*
X163014819Y-82160952D02*
X163014819Y-82065714D01*
X163014819Y-82065714D02*
X162967200Y-81922857D01*
X162967200Y-81922857D02*
X162919580Y-81875238D01*
X162919580Y-81875238D02*
X162586247Y-81875238D01*
X162586247Y-81875238D02*
X162586247Y-82065714D01*
X162348152Y-81446666D02*
X163014819Y-81446666D01*
X162443390Y-81446666D02*
X162395771Y-81399047D01*
X162395771Y-81399047D02*
X162348152Y-81303809D01*
X162348152Y-81303809D02*
X162348152Y-81160952D01*
X162348152Y-81160952D02*
X162395771Y-81065714D01*
X162395771Y-81065714D02*
X162491009Y-81018095D01*
X162491009Y-81018095D02*
X163014819Y-81018095D01*
X163014819Y-80113333D02*
X162014819Y-80113333D01*
X162967200Y-80113333D02*
X163014819Y-80208571D01*
X163014819Y-80208571D02*
X163014819Y-80399047D01*
X163014819Y-80399047D02*
X162967200Y-80494285D01*
X162967200Y-80494285D02*
X162919580Y-80541904D01*
X162919580Y-80541904D02*
X162824342Y-80589523D01*
X162824342Y-80589523D02*
X162538628Y-80589523D01*
X162538628Y-80589523D02*
X162443390Y-80541904D01*
X162443390Y-80541904D02*
X162395771Y-80494285D01*
X162395771Y-80494285D02*
X162348152Y-80399047D01*
X162348152Y-80399047D02*
X162348152Y-80208571D01*
X162348152Y-80208571D02*
X162395771Y-80113333D01*
X134572381Y-80734819D02*
X134667619Y-80734819D01*
X134667619Y-80734819D02*
X134762857Y-80782438D01*
X134762857Y-80782438D02*
X134810476Y-80830057D01*
X134810476Y-80830057D02*
X134858095Y-80925295D01*
X134858095Y-80925295D02*
X134905714Y-81115771D01*
X134905714Y-81115771D02*
X134905714Y-81353866D01*
X134905714Y-81353866D02*
X134858095Y-81544342D01*
X134858095Y-81544342D02*
X134810476Y-81639580D01*
X134810476Y-81639580D02*
X134762857Y-81687200D01*
X134762857Y-81687200D02*
X134667619Y-81734819D01*
X134667619Y-81734819D02*
X134572381Y-81734819D01*
X134572381Y-81734819D02*
X134477143Y-81687200D01*
X134477143Y-81687200D02*
X134429524Y-81639580D01*
X134429524Y-81639580D02*
X134381905Y-81544342D01*
X134381905Y-81544342D02*
X134334286Y-81353866D01*
X134334286Y-81353866D02*
X134334286Y-81115771D01*
X134334286Y-81115771D02*
X134381905Y-80925295D01*
X134381905Y-80925295D02*
X134429524Y-80830057D01*
X134429524Y-80830057D02*
X134477143Y-80782438D01*
X134477143Y-80782438D02*
X134572381Y-80734819D01*
X129206667Y-80734819D02*
X129873333Y-80734819D01*
X129873333Y-80734819D02*
X129444762Y-81734819D01*
D11*
X144351429Y-81892100D02*
X144565715Y-81963528D01*
X144565715Y-81963528D02*
X144922857Y-81963528D01*
X144922857Y-81963528D02*
X145065715Y-81892100D01*
X145065715Y-81892100D02*
X145137143Y-81820671D01*
X145137143Y-81820671D02*
X145208572Y-81677814D01*
X145208572Y-81677814D02*
X145208572Y-81534957D01*
X145208572Y-81534957D02*
X145137143Y-81392100D01*
X145137143Y-81392100D02*
X145065715Y-81320671D01*
X145065715Y-81320671D02*
X144922857Y-81249242D01*
X144922857Y-81249242D02*
X144637143Y-81177814D01*
X144637143Y-81177814D02*
X144494286Y-81106385D01*
X144494286Y-81106385D02*
X144422857Y-81034957D01*
X144422857Y-81034957D02*
X144351429Y-80892100D01*
X144351429Y-80892100D02*
X144351429Y-80749242D01*
X144351429Y-80749242D02*
X144422857Y-80606385D01*
X144422857Y-80606385D02*
X144494286Y-80534957D01*
X144494286Y-80534957D02*
X144637143Y-80463528D01*
X144637143Y-80463528D02*
X144994286Y-80463528D01*
X144994286Y-80463528D02*
X145208572Y-80534957D01*
D13*
X115824047Y-74654580D02*
X115776428Y-74702200D01*
X115776428Y-74702200D02*
X115633571Y-74749819D01*
X115633571Y-74749819D02*
X115538333Y-74749819D01*
X115538333Y-74749819D02*
X115395476Y-74702200D01*
X115395476Y-74702200D02*
X115300238Y-74606961D01*
X115300238Y-74606961D02*
X115252619Y-74511723D01*
X115252619Y-74511723D02*
X115205000Y-74321247D01*
X115205000Y-74321247D02*
X115205000Y-74178390D01*
X115205000Y-74178390D02*
X115252619Y-73987914D01*
X115252619Y-73987914D02*
X115300238Y-73892676D01*
X115300238Y-73892676D02*
X115395476Y-73797438D01*
X115395476Y-73797438D02*
X115538333Y-73749819D01*
X115538333Y-73749819D02*
X115633571Y-73749819D01*
X115633571Y-73749819D02*
X115776428Y-73797438D01*
X115776428Y-73797438D02*
X115824047Y-73845057D01*
X116252619Y-74749819D02*
X116252619Y-74083152D01*
X116252619Y-73749819D02*
X116205000Y-73797438D01*
X116205000Y-73797438D02*
X116252619Y-73845057D01*
X116252619Y-73845057D02*
X116300238Y-73797438D01*
X116300238Y-73797438D02*
X116252619Y-73749819D01*
X116252619Y-73749819D02*
X116252619Y-73845057D01*
X116728809Y-74083152D02*
X116728809Y-74749819D01*
X116728809Y-74178390D02*
X116776428Y-74130771D01*
X116776428Y-74130771D02*
X116871666Y-74083152D01*
X116871666Y-74083152D02*
X117014523Y-74083152D01*
X117014523Y-74083152D02*
X117109761Y-74130771D01*
X117109761Y-74130771D02*
X117157380Y-74226009D01*
X117157380Y-74226009D02*
X117157380Y-74749819D01*
D12*
X89082238Y-72167619D02*
X89082238Y-71977142D01*
X89082238Y-71977142D02*
X89177476Y-71786666D01*
X89177476Y-71786666D02*
X89272714Y-71691428D01*
X89272714Y-71691428D02*
X89463190Y-71596190D01*
X89463190Y-71596190D02*
X89844142Y-71500952D01*
X89844142Y-71500952D02*
X90320333Y-71500952D01*
X90320333Y-71500952D02*
X90701285Y-71596190D01*
X90701285Y-71596190D02*
X90891761Y-71691428D01*
X90891761Y-71691428D02*
X90987000Y-71786666D01*
X90987000Y-71786666D02*
X91082238Y-71977142D01*
X91082238Y-71977142D02*
X91082238Y-72167619D01*
X91082238Y-72167619D02*
X90987000Y-72358095D01*
X90987000Y-72358095D02*
X90891761Y-72453333D01*
X90891761Y-72453333D02*
X90701285Y-72548571D01*
X90701285Y-72548571D02*
X90320333Y-72643809D01*
X90320333Y-72643809D02*
X89844142Y-72643809D01*
X89844142Y-72643809D02*
X89463190Y-72548571D01*
X89463190Y-72548571D02*
X89272714Y-72453333D01*
X89272714Y-72453333D02*
X89177476Y-72358095D01*
X89177476Y-72358095D02*
X89082238Y-72167619D01*
X89939380Y-70358095D02*
X89844142Y-70548571D01*
X89844142Y-70548571D02*
X89748904Y-70643809D01*
X89748904Y-70643809D02*
X89558428Y-70739047D01*
X89558428Y-70739047D02*
X89463190Y-70739047D01*
X89463190Y-70739047D02*
X89272714Y-70643809D01*
X89272714Y-70643809D02*
X89177476Y-70548571D01*
X89177476Y-70548571D02*
X89082238Y-70358095D01*
X89082238Y-70358095D02*
X89082238Y-69977142D01*
X89082238Y-69977142D02*
X89177476Y-69786666D01*
X89177476Y-69786666D02*
X89272714Y-69691428D01*
X89272714Y-69691428D02*
X89463190Y-69596190D01*
X89463190Y-69596190D02*
X89558428Y-69596190D01*
X89558428Y-69596190D02*
X89748904Y-69691428D01*
X89748904Y-69691428D02*
X89844142Y-69786666D01*
X89844142Y-69786666D02*
X89939380Y-69977142D01*
X89939380Y-69977142D02*
X89939380Y-70358095D01*
X89939380Y-70358095D02*
X90034619Y-70548571D01*
X90034619Y-70548571D02*
X90129857Y-70643809D01*
X90129857Y-70643809D02*
X90320333Y-70739047D01*
X90320333Y-70739047D02*
X90701285Y-70739047D01*
X90701285Y-70739047D02*
X90891761Y-70643809D01*
X90891761Y-70643809D02*
X90987000Y-70548571D01*
X90987000Y-70548571D02*
X91082238Y-70358095D01*
X91082238Y-70358095D02*
X91082238Y-69977142D01*
X91082238Y-69977142D02*
X90987000Y-69786666D01*
X90987000Y-69786666D02*
X90891761Y-69691428D01*
X90891761Y-69691428D02*
X90701285Y-69596190D01*
X90701285Y-69596190D02*
X90320333Y-69596190D01*
X90320333Y-69596190D02*
X90129857Y-69691428D01*
X90129857Y-69691428D02*
X90034619Y-69786666D01*
X90034619Y-69786666D02*
X89939380Y-69977142D01*
D13*
X111712381Y-80734819D02*
X111807619Y-80734819D01*
X111807619Y-80734819D02*
X111902857Y-80782438D01*
X111902857Y-80782438D02*
X111950476Y-80830057D01*
X111950476Y-80830057D02*
X111998095Y-80925295D01*
X111998095Y-80925295D02*
X112045714Y-81115771D01*
X112045714Y-81115771D02*
X112045714Y-81353866D01*
X112045714Y-81353866D02*
X111998095Y-81544342D01*
X111998095Y-81544342D02*
X111950476Y-81639580D01*
X111950476Y-81639580D02*
X111902857Y-81687200D01*
X111902857Y-81687200D02*
X111807619Y-81734819D01*
X111807619Y-81734819D02*
X111712381Y-81734819D01*
X111712381Y-81734819D02*
X111617143Y-81687200D01*
X111617143Y-81687200D02*
X111569524Y-81639580D01*
X111569524Y-81639580D02*
X111521905Y-81544342D01*
X111521905Y-81544342D02*
X111474286Y-81353866D01*
X111474286Y-81353866D02*
X111474286Y-81115771D01*
X111474286Y-81115771D02*
X111521905Y-80925295D01*
X111521905Y-80925295D02*
X111569524Y-80830057D01*
X111569524Y-80830057D02*
X111617143Y-80782438D01*
X111617143Y-80782438D02*
X111712381Y-80734819D01*
X106346667Y-80734819D02*
X107013333Y-80734819D01*
X107013333Y-80734819D02*
X106584762Y-81734819D01*
X159474819Y-82470475D02*
X160474819Y-82137142D01*
X160474819Y-82137142D02*
X159474819Y-81803809D01*
X160427200Y-81041904D02*
X160474819Y-81137142D01*
X160474819Y-81137142D02*
X160474819Y-81327618D01*
X160474819Y-81327618D02*
X160427200Y-81422856D01*
X160427200Y-81422856D02*
X160379580Y-81470475D01*
X160379580Y-81470475D02*
X160284342Y-81518094D01*
X160284342Y-81518094D02*
X159998628Y-81518094D01*
X159998628Y-81518094D02*
X159903390Y-81470475D01*
X159903390Y-81470475D02*
X159855771Y-81422856D01*
X159855771Y-81422856D02*
X159808152Y-81327618D01*
X159808152Y-81327618D02*
X159808152Y-81137142D01*
X159808152Y-81137142D02*
X159855771Y-81041904D01*
X160427200Y-80184761D02*
X160474819Y-80279999D01*
X160474819Y-80279999D02*
X160474819Y-80470475D01*
X160474819Y-80470475D02*
X160427200Y-80565713D01*
X160427200Y-80565713D02*
X160379580Y-80613332D01*
X160379580Y-80613332D02*
X160284342Y-80660951D01*
X160284342Y-80660951D02*
X159998628Y-80660951D01*
X159998628Y-80660951D02*
X159903390Y-80613332D01*
X159903390Y-80613332D02*
X159855771Y-80565713D01*
X159855771Y-80565713D02*
X159808152Y-80470475D01*
X159808152Y-80470475D02*
X159808152Y-80279999D01*
X159808152Y-80279999D02*
X159855771Y-80184761D01*
D14*
X152583214Y-55024557D02*
X152583214Y-52024557D01*
X152583214Y-52024557D02*
X153583214Y-54167414D01*
X153583214Y-54167414D02*
X154583214Y-52024557D01*
X154583214Y-52024557D02*
X154583214Y-55024557D01*
X156011785Y-52024557D02*
X156011785Y-54453128D01*
X156011785Y-54453128D02*
X156154642Y-54738842D01*
X156154642Y-54738842D02*
X156297500Y-54881700D01*
X156297500Y-54881700D02*
X156583214Y-55024557D01*
X156583214Y-55024557D02*
X157154642Y-55024557D01*
X157154642Y-55024557D02*
X157440357Y-54881700D01*
X157440357Y-54881700D02*
X157583214Y-54738842D01*
X157583214Y-54738842D02*
X157726071Y-54453128D01*
X157726071Y-54453128D02*
X157726071Y-52024557D01*
X160583214Y-55024557D02*
X159154642Y-55024557D01*
X159154642Y-55024557D02*
X159154642Y-52024557D01*
X163154642Y-55024557D02*
X161440356Y-55024557D01*
X162297499Y-55024557D02*
X162297499Y-52024557D01*
X162297499Y-52024557D02*
X162011785Y-52453128D01*
X162011785Y-52453128D02*
X161726070Y-52738842D01*
X161726070Y-52738842D02*
X161440356Y-52881700D01*
D13*
X152124580Y-63666666D02*
X152172200Y-63714285D01*
X152172200Y-63714285D02*
X152219819Y-63857142D01*
X152219819Y-63857142D02*
X152219819Y-63952380D01*
X152219819Y-63952380D02*
X152172200Y-64095237D01*
X152172200Y-64095237D02*
X152076961Y-64190475D01*
X152076961Y-64190475D02*
X151981723Y-64238094D01*
X151981723Y-64238094D02*
X151791247Y-64285713D01*
X151791247Y-64285713D02*
X151648390Y-64285713D01*
X151648390Y-64285713D02*
X151457914Y-64238094D01*
X151457914Y-64238094D02*
X151362676Y-64190475D01*
X151362676Y-64190475D02*
X151267438Y-64095237D01*
X151267438Y-64095237D02*
X151219819Y-63952380D01*
X151219819Y-63952380D02*
X151219819Y-63857142D01*
X151219819Y-63857142D02*
X151267438Y-63714285D01*
X151267438Y-63714285D02*
X151315057Y-63666666D01*
X152219819Y-62714285D02*
X152219819Y-63285713D01*
X152219819Y-62999999D02*
X151219819Y-62999999D01*
X151219819Y-62999999D02*
X151362676Y-63095237D01*
X151362676Y-63095237D02*
X151457914Y-63190475D01*
X151457914Y-63190475D02*
X151505533Y-63285713D01*
X115929580Y-64221666D02*
X115977200Y-64269285D01*
X115977200Y-64269285D02*
X116024819Y-64412142D01*
X116024819Y-64412142D02*
X116024819Y-64507380D01*
X116024819Y-64507380D02*
X115977200Y-64650237D01*
X115977200Y-64650237D02*
X115881961Y-64745475D01*
X115881961Y-64745475D02*
X115786723Y-64793094D01*
X115786723Y-64793094D02*
X115596247Y-64840713D01*
X115596247Y-64840713D02*
X115453390Y-64840713D01*
X115453390Y-64840713D02*
X115262914Y-64793094D01*
X115262914Y-64793094D02*
X115167676Y-64745475D01*
X115167676Y-64745475D02*
X115072438Y-64650237D01*
X115072438Y-64650237D02*
X115024819Y-64507380D01*
X115024819Y-64507380D02*
X115024819Y-64412142D01*
X115024819Y-64412142D02*
X115072438Y-64269285D01*
X115072438Y-64269285D02*
X115120057Y-64221666D01*
X115120057Y-63840713D02*
X115072438Y-63793094D01*
X115072438Y-63793094D02*
X115024819Y-63697856D01*
X115024819Y-63697856D02*
X115024819Y-63459761D01*
X115024819Y-63459761D02*
X115072438Y-63364523D01*
X115072438Y-63364523D02*
X115120057Y-63316904D01*
X115120057Y-63316904D02*
X115215295Y-63269285D01*
X115215295Y-63269285D02*
X115310533Y-63269285D01*
X115310533Y-63269285D02*
X115453390Y-63316904D01*
X115453390Y-63316904D02*
X116024819Y-63888332D01*
X116024819Y-63888332D02*
X116024819Y-63269285D01*
X89408095Y-55544819D02*
X89408095Y-56354342D01*
X89408095Y-56354342D02*
X89455714Y-56449580D01*
X89455714Y-56449580D02*
X89503333Y-56497200D01*
X89503333Y-56497200D02*
X89598571Y-56544819D01*
X89598571Y-56544819D02*
X89789047Y-56544819D01*
X89789047Y-56544819D02*
X89884285Y-56497200D01*
X89884285Y-56497200D02*
X89931904Y-56449580D01*
X89931904Y-56449580D02*
X89979523Y-56354342D01*
X89979523Y-56354342D02*
X89979523Y-55544819D01*
X90979523Y-56544819D02*
X90408095Y-56544819D01*
X90693809Y-56544819D02*
X90693809Y-55544819D01*
X90693809Y-55544819D02*
X90598571Y-55687676D01*
X90598571Y-55687676D02*
X90503333Y-55782914D01*
X90503333Y-55782914D02*
X90408095Y-55830533D01*
X122428095Y-53004819D02*
X122428095Y-53814342D01*
X122428095Y-53814342D02*
X122475714Y-53909580D01*
X122475714Y-53909580D02*
X122523333Y-53957200D01*
X122523333Y-53957200D02*
X122618571Y-54004819D01*
X122618571Y-54004819D02*
X122809047Y-54004819D01*
X122809047Y-54004819D02*
X122904285Y-53957200D01*
X122904285Y-53957200D02*
X122951904Y-53909580D01*
X122951904Y-53909580D02*
X122999523Y-53814342D01*
X122999523Y-53814342D02*
X122999523Y-53004819D01*
X123428095Y-53100057D02*
X123475714Y-53052438D01*
X123475714Y-53052438D02*
X123570952Y-53004819D01*
X123570952Y-53004819D02*
X123809047Y-53004819D01*
X123809047Y-53004819D02*
X123904285Y-53052438D01*
X123904285Y-53052438D02*
X123951904Y-53100057D01*
X123951904Y-53100057D02*
X123999523Y-53195295D01*
X123999523Y-53195295D02*
X123999523Y-53290533D01*
X123999523Y-53290533D02*
X123951904Y-53433390D01*
X123951904Y-53433390D02*
X123380476Y-54004819D01*
X123380476Y-54004819D02*
X123999523Y-54004819D01*
X104648095Y-55544819D02*
X104648095Y-56354342D01*
X104648095Y-56354342D02*
X104695714Y-56449580D01*
X104695714Y-56449580D02*
X104743333Y-56497200D01*
X104743333Y-56497200D02*
X104838571Y-56544819D01*
X104838571Y-56544819D02*
X105029047Y-56544819D01*
X105029047Y-56544819D02*
X105124285Y-56497200D01*
X105124285Y-56497200D02*
X105171904Y-56449580D01*
X105171904Y-56449580D02*
X105219523Y-56354342D01*
X105219523Y-56354342D02*
X105219523Y-55544819D01*
X105600476Y-55544819D02*
X106219523Y-55544819D01*
X106219523Y-55544819D02*
X105886190Y-55925771D01*
X105886190Y-55925771D02*
X106029047Y-55925771D01*
X106029047Y-55925771D02*
X106124285Y-55973390D01*
X106124285Y-55973390D02*
X106171904Y-56021009D01*
X106171904Y-56021009D02*
X106219523Y-56116247D01*
X106219523Y-56116247D02*
X106219523Y-56354342D01*
X106219523Y-56354342D02*
X106171904Y-56449580D01*
X106171904Y-56449580D02*
X106124285Y-56497200D01*
X106124285Y-56497200D02*
X106029047Y-56544819D01*
X106029047Y-56544819D02*
X105743333Y-56544819D01*
X105743333Y-56544819D02*
X105648095Y-56497200D01*
X105648095Y-56497200D02*
X105600476Y-56449580D01*
X142748095Y-53004819D02*
X142748095Y-53814342D01*
X142748095Y-53814342D02*
X142795714Y-53909580D01*
X142795714Y-53909580D02*
X142843333Y-53957200D01*
X142843333Y-53957200D02*
X142938571Y-54004819D01*
X142938571Y-54004819D02*
X143129047Y-54004819D01*
X143129047Y-54004819D02*
X143224285Y-53957200D01*
X143224285Y-53957200D02*
X143271904Y-53909580D01*
X143271904Y-53909580D02*
X143319523Y-53814342D01*
X143319523Y-53814342D02*
X143319523Y-53004819D01*
X144224285Y-53338152D02*
X144224285Y-54004819D01*
X143986190Y-52957200D02*
X143748095Y-53671485D01*
X143748095Y-53671485D02*
X144367142Y-53671485D01*
X117673333Y-76972319D02*
X117340000Y-76496128D01*
X117101905Y-76972319D02*
X117101905Y-75972319D01*
X117101905Y-75972319D02*
X117482857Y-75972319D01*
X117482857Y-75972319D02*
X117578095Y-76019938D01*
X117578095Y-76019938D02*
X117625714Y-76067557D01*
X117625714Y-76067557D02*
X117673333Y-76162795D01*
X117673333Y-76162795D02*
X117673333Y-76305652D01*
X117673333Y-76305652D02*
X117625714Y-76400890D01*
X117625714Y-76400890D02*
X117578095Y-76448509D01*
X117578095Y-76448509D02*
X117482857Y-76496128D01*
X117482857Y-76496128D02*
X117101905Y-76496128D01*
X118625714Y-76972319D02*
X118054286Y-76972319D01*
X118340000Y-76972319D02*
X118340000Y-75972319D01*
X118340000Y-75972319D02*
X118244762Y-76115176D01*
X118244762Y-76115176D02*
X118149524Y-76210414D01*
X118149524Y-76210414D02*
X118054286Y-76258033D01*
D15*
%TO.C,C1*%
X149145000Y-59550000D02*
X149145000Y-67290000D01*
X151129000Y-59550000D02*
X149145000Y-59550000D01*
X151129000Y-67290000D02*
X149145000Y-67290000D01*
X154385000Y-59550000D02*
X152401000Y-59550000D01*
X154385000Y-59550000D02*
X154385000Y-67290000D01*
X154385000Y-67290000D02*
X152401000Y-67290000D01*
%TO.C,C2*%
X112950000Y-60185000D02*
X112950000Y-67925000D01*
X114934000Y-60185000D02*
X112950000Y-60185000D01*
X114934000Y-67925000D02*
X112950000Y-67925000D01*
X118190000Y-60185000D02*
X116206000Y-60185000D01*
X118190000Y-60185000D02*
X118190000Y-67925000D01*
X118190000Y-67925000D02*
X116206000Y-67925000D01*
%TO.C,J1*%
X110430000Y-85260000D02*
X110430000Y-87920000D01*
X110430000Y-87920000D02*
X130870000Y-87920000D01*
X111380000Y-84862929D02*
X111380000Y-85260000D01*
X111380000Y-93920000D02*
X111380000Y-87920000D01*
X112140000Y-84862929D02*
X112140000Y-85260000D01*
X112140000Y-87920000D02*
X112140000Y-93920000D01*
X112140000Y-93920000D02*
X111380000Y-93920000D01*
X113030000Y-85260000D02*
X113030000Y-87920000D01*
X113920000Y-84862929D02*
X113920000Y-85260000D01*
X113920000Y-93920000D02*
X113920000Y-87920000D01*
X114680000Y-84862929D02*
X114680000Y-85260000D01*
X114680000Y-87920000D02*
X114680000Y-93920000D01*
X114680000Y-93920000D02*
X113920000Y-93920000D01*
X115570000Y-85260000D02*
X115570000Y-87920000D01*
X116460000Y-84862929D02*
X116460000Y-85260000D01*
X116460000Y-93920000D02*
X116460000Y-87920000D01*
X117220000Y-84862929D02*
X117220000Y-85260000D01*
X117220000Y-87920000D02*
X117220000Y-93920000D01*
X117220000Y-93920000D02*
X116460000Y-93920000D01*
X118110000Y-85260000D02*
X118110000Y-87920000D01*
X119000000Y-84862929D02*
X119000000Y-85260000D01*
X119000000Y-93920000D02*
X119000000Y-87920000D01*
X119760000Y-84862929D02*
X119760000Y-85260000D01*
X119760000Y-87920000D02*
X119760000Y-93920000D01*
X119760000Y-93920000D02*
X119000000Y-93920000D01*
X120650000Y-85260000D02*
X120650000Y-87920000D01*
X121540000Y-84862929D02*
X121540000Y-85260000D01*
X121540000Y-93920000D02*
X121540000Y-87920000D01*
X122300000Y-84862929D02*
X122300000Y-85260000D01*
X122300000Y-87920000D02*
X122300000Y-93920000D01*
X122300000Y-93920000D02*
X121540000Y-93920000D01*
X123190000Y-85260000D02*
X123190000Y-87920000D01*
X124080000Y-84862929D02*
X124080000Y-85260000D01*
X124080000Y-93920000D02*
X124080000Y-87920000D01*
X124840000Y-84862929D02*
X124840000Y-85260000D01*
X124840000Y-87920000D02*
X124840000Y-93920000D01*
X124840000Y-93920000D02*
X124080000Y-93920000D01*
X125730000Y-85260000D02*
X125730000Y-87920000D01*
X126620000Y-84862929D02*
X126620000Y-85260000D01*
X126620000Y-93920000D02*
X126620000Y-87920000D01*
X127380000Y-84862929D02*
X127380000Y-85260000D01*
X127380000Y-87920000D02*
X127380000Y-93920000D01*
X127380000Y-93920000D02*
X126620000Y-93920000D01*
X128270000Y-85260000D02*
X128270000Y-87920000D01*
X129160000Y-84930000D02*
X129160000Y-85260000D01*
X129160000Y-93920000D02*
X129160000Y-87920000D01*
X129260000Y-87920000D02*
X129260000Y-93920000D01*
X129380000Y-87920000D02*
X129380000Y-93920000D01*
X129500000Y-87920000D02*
X129500000Y-93920000D01*
X129540000Y-82550000D02*
X130810000Y-82550000D01*
X129620000Y-87920000D02*
X129620000Y-93920000D01*
X129740000Y-87920000D02*
X129740000Y-93920000D01*
X129860000Y-87920000D02*
X129860000Y-93920000D01*
X129920000Y-84930000D02*
X129920000Y-85260000D01*
X129920000Y-87920000D02*
X129920000Y-93920000D01*
X129920000Y-93920000D02*
X129160000Y-93920000D01*
X130810000Y-82550000D02*
X130810000Y-83820000D01*
X130870000Y-85260000D02*
X110430000Y-85260000D01*
X130870000Y-87920000D02*
X130870000Y-85260000D01*
%TO.C,J2*%
X133290000Y-85260000D02*
X133290000Y-87920000D01*
X133290000Y-87920000D02*
X156270000Y-87920000D01*
X134240000Y-84862929D02*
X134240000Y-85260000D01*
X134240000Y-93920000D02*
X134240000Y-87920000D01*
X135000000Y-84862929D02*
X135000000Y-85260000D01*
X135000000Y-87920000D02*
X135000000Y-93920000D01*
X135000000Y-93920000D02*
X134240000Y-93920000D01*
X135890000Y-85260000D02*
X135890000Y-87920000D01*
X136780000Y-84862929D02*
X136780000Y-85260000D01*
X136780000Y-93920000D02*
X136780000Y-87920000D01*
X137540000Y-84862929D02*
X137540000Y-85260000D01*
X137540000Y-87920000D02*
X137540000Y-93920000D01*
X137540000Y-93920000D02*
X136780000Y-93920000D01*
X138430000Y-85260000D02*
X138430000Y-87920000D01*
X139320000Y-84862929D02*
X139320000Y-85260000D01*
X139320000Y-93920000D02*
X139320000Y-87920000D01*
X140080000Y-84862929D02*
X140080000Y-85260000D01*
X140080000Y-87920000D02*
X140080000Y-93920000D01*
X140080000Y-93920000D02*
X139320000Y-93920000D01*
X140970000Y-85260000D02*
X140970000Y-87920000D01*
X141860000Y-84862929D02*
X141860000Y-85260000D01*
X141860000Y-93920000D02*
X141860000Y-87920000D01*
X142620000Y-84862929D02*
X142620000Y-85260000D01*
X142620000Y-87920000D02*
X142620000Y-93920000D01*
X142620000Y-93920000D02*
X141860000Y-93920000D01*
X143510000Y-85260000D02*
X143510000Y-87920000D01*
X144400000Y-84862929D02*
X144400000Y-85260000D01*
X144400000Y-93920000D02*
X144400000Y-87920000D01*
X145160000Y-84862929D02*
X145160000Y-85260000D01*
X145160000Y-87920000D02*
X145160000Y-93920000D01*
X145160000Y-93920000D02*
X144400000Y-93920000D01*
X146050000Y-85260000D02*
X146050000Y-87920000D01*
X146940000Y-84862929D02*
X146940000Y-85260000D01*
X146940000Y-93920000D02*
X146940000Y-87920000D01*
X147700000Y-84862929D02*
X147700000Y-85260000D01*
X147700000Y-87920000D02*
X147700000Y-93920000D01*
X147700000Y-93920000D02*
X146940000Y-93920000D01*
X148590000Y-85260000D02*
X148590000Y-87920000D01*
X149480000Y-84862929D02*
X149480000Y-85260000D01*
X149480000Y-93920000D02*
X149480000Y-87920000D01*
X150240000Y-84862929D02*
X150240000Y-85260000D01*
X150240000Y-87920000D02*
X150240000Y-93920000D01*
X150240000Y-93920000D02*
X149480000Y-93920000D01*
X151130000Y-85260000D02*
X151130000Y-87920000D01*
X152020000Y-84862929D02*
X152020000Y-85260000D01*
X152020000Y-93920000D02*
X152020000Y-87920000D01*
X152780000Y-84862929D02*
X152780000Y-85260000D01*
X152780000Y-87920000D02*
X152780000Y-93920000D01*
X152780000Y-93920000D02*
X152020000Y-93920000D01*
X153670000Y-85260000D02*
X153670000Y-87920000D01*
X154560000Y-84930000D02*
X154560000Y-85260000D01*
X154560000Y-93920000D02*
X154560000Y-87920000D01*
X154660000Y-87920000D02*
X154660000Y-93920000D01*
X154780000Y-87920000D02*
X154780000Y-93920000D01*
X154900000Y-87920000D02*
X154900000Y-93920000D01*
X154940000Y-82550000D02*
X156210000Y-82550000D01*
X155020000Y-87920000D02*
X155020000Y-93920000D01*
X155140000Y-87920000D02*
X155140000Y-93920000D01*
X155260000Y-87920000D02*
X155260000Y-93920000D01*
X155320000Y-84930000D02*
X155320000Y-85260000D01*
X155320000Y-87920000D02*
X155320000Y-93920000D01*
X155320000Y-93920000D02*
X154560000Y-93920000D01*
X156210000Y-82550000D02*
X156210000Y-83820000D01*
X156270000Y-85260000D02*
X133290000Y-85260000D01*
X156270000Y-87920000D02*
X156270000Y-85260000D01*
%TO.C,J3*%
X87570000Y-85260000D02*
X87570000Y-87920000D01*
X87570000Y-87920000D02*
X108010000Y-87920000D01*
X88520000Y-84862929D02*
X88520000Y-85260000D01*
X88520000Y-93920000D02*
X88520000Y-87920000D01*
X89280000Y-84862929D02*
X89280000Y-85260000D01*
X89280000Y-87920000D02*
X89280000Y-93920000D01*
X89280000Y-93920000D02*
X88520000Y-93920000D01*
X90170000Y-85260000D02*
X90170000Y-87920000D01*
X91060000Y-84862929D02*
X91060000Y-85260000D01*
X91060000Y-93920000D02*
X91060000Y-87920000D01*
X91820000Y-84862929D02*
X91820000Y-85260000D01*
X91820000Y-87920000D02*
X91820000Y-93920000D01*
X91820000Y-93920000D02*
X91060000Y-93920000D01*
X92710000Y-85260000D02*
X92710000Y-87920000D01*
X93600000Y-84862929D02*
X93600000Y-85260000D01*
X93600000Y-93920000D02*
X93600000Y-87920000D01*
X94360000Y-84862929D02*
X94360000Y-85260000D01*
X94360000Y-87920000D02*
X94360000Y-93920000D01*
X94360000Y-93920000D02*
X93600000Y-93920000D01*
X95250000Y-85260000D02*
X95250000Y-87920000D01*
X96140000Y-84862929D02*
X96140000Y-85260000D01*
X96140000Y-93920000D02*
X96140000Y-87920000D01*
X96900000Y-84862929D02*
X96900000Y-85260000D01*
X96900000Y-87920000D02*
X96900000Y-93920000D01*
X96900000Y-93920000D02*
X96140000Y-93920000D01*
X97790000Y-85260000D02*
X97790000Y-87920000D01*
X98680000Y-84862929D02*
X98680000Y-85260000D01*
X98680000Y-93920000D02*
X98680000Y-87920000D01*
X99440000Y-84862929D02*
X99440000Y-85260000D01*
X99440000Y-87920000D02*
X99440000Y-93920000D01*
X99440000Y-93920000D02*
X98680000Y-93920000D01*
X100330000Y-85260000D02*
X100330000Y-87920000D01*
X101220000Y-84862929D02*
X101220000Y-85260000D01*
X101220000Y-93920000D02*
X101220000Y-87920000D01*
X101980000Y-84862929D02*
X101980000Y-85260000D01*
X101980000Y-87920000D02*
X101980000Y-93920000D01*
X101980000Y-93920000D02*
X101220000Y-93920000D01*
X102870000Y-85260000D02*
X102870000Y-87920000D01*
X103760000Y-84862929D02*
X103760000Y-85260000D01*
X103760000Y-93920000D02*
X103760000Y-87920000D01*
X104520000Y-84862929D02*
X104520000Y-85260000D01*
X104520000Y-87920000D02*
X104520000Y-93920000D01*
X104520000Y-93920000D02*
X103760000Y-93920000D01*
X105410000Y-85260000D02*
X105410000Y-87920000D01*
X106300000Y-84930000D02*
X106300000Y-85260000D01*
X106300000Y-93920000D02*
X106300000Y-87920000D01*
X106400000Y-87920000D02*
X106400000Y-93920000D01*
X106520000Y-87920000D02*
X106520000Y-93920000D01*
X106640000Y-87920000D02*
X106640000Y-93920000D01*
X106680000Y-82550000D02*
X107950000Y-82550000D01*
X106760000Y-87920000D02*
X106760000Y-93920000D01*
X106880000Y-87920000D02*
X106880000Y-93920000D01*
X107000000Y-87920000D02*
X107000000Y-93920000D01*
X107060000Y-84930000D02*
X107060000Y-85260000D01*
X107060000Y-87920000D02*
X107060000Y-93920000D01*
X107060000Y-93920000D02*
X106300000Y-93920000D01*
X107950000Y-82550000D02*
X107950000Y-83820000D01*
X108010000Y-85260000D02*
X87570000Y-85260000D01*
X108010000Y-87920000D02*
X108010000Y-85260000D01*
%TO.C,J4*%
X82490000Y-85260000D02*
X82490000Y-87920000D01*
X82490000Y-87920000D02*
X85150000Y-87920000D01*
X83440000Y-84930000D02*
X83440000Y-85260000D01*
X83440000Y-93920000D02*
X83440000Y-87920000D01*
X83540000Y-87920000D02*
X83540000Y-93920000D01*
X83660000Y-87920000D02*
X83660000Y-93920000D01*
X83780000Y-87920000D02*
X83780000Y-93920000D01*
X83820000Y-82550000D02*
X85090000Y-82550000D01*
X83900000Y-87920000D02*
X83900000Y-93920000D01*
X84020000Y-87920000D02*
X84020000Y-93920000D01*
X84140000Y-87920000D02*
X84140000Y-93920000D01*
X84200000Y-84930000D02*
X84200000Y-85260000D01*
X84200000Y-87920000D02*
X84200000Y-93920000D01*
X84200000Y-93920000D02*
X83440000Y-93920000D01*
X85090000Y-82550000D02*
X85090000Y-83820000D01*
X85150000Y-85260000D02*
X82490000Y-85260000D01*
X85150000Y-87920000D02*
X85150000Y-85260000D01*
%TO.C,J5*%
X158690000Y-85260000D02*
X158690000Y-87920000D01*
X158690000Y-87920000D02*
X163890000Y-87920000D01*
X159640000Y-84862929D02*
X159640000Y-85260000D01*
X159640000Y-93920000D02*
X159640000Y-87920000D01*
X160400000Y-84862929D02*
X160400000Y-85260000D01*
X160400000Y-87920000D02*
X160400000Y-93920000D01*
X160400000Y-93920000D02*
X159640000Y-93920000D01*
X161290000Y-85260000D02*
X161290000Y-87920000D01*
X162180000Y-84930000D02*
X162180000Y-85260000D01*
X162180000Y-93920000D02*
X162180000Y-87920000D01*
X162280000Y-87920000D02*
X162280000Y-93920000D01*
X162400000Y-87920000D02*
X162400000Y-93920000D01*
X162520000Y-87920000D02*
X162520000Y-93920000D01*
X162560000Y-82550000D02*
X163830000Y-82550000D01*
X162640000Y-87920000D02*
X162640000Y-93920000D01*
X162760000Y-87920000D02*
X162760000Y-93920000D01*
X162880000Y-87920000D02*
X162880000Y-93920000D01*
X162940000Y-84930000D02*
X162940000Y-85260000D01*
X162940000Y-87920000D02*
X162940000Y-93920000D01*
X162940000Y-93920000D02*
X162180000Y-93920000D01*
X163830000Y-82550000D02*
X163830000Y-83820000D01*
X163890000Y-85260000D02*
X158690000Y-85260000D01*
X163890000Y-87920000D02*
X163890000Y-85260000D01*
%TO.C,U1*%
X85030000Y-57030000D02*
X85030000Y-75050000D01*
X85030000Y-75050000D02*
X95310000Y-75050000D01*
X87520000Y-57090000D02*
X87520000Y-74990000D01*
X87520000Y-74990000D02*
X92820000Y-74990000D01*
X89170000Y-57090000D02*
X87520000Y-57090000D01*
X92820000Y-57090000D02*
X91170000Y-57090000D01*
X92820000Y-74990000D02*
X92820000Y-57090000D01*
X95310000Y-57030000D02*
X85030000Y-57030000D01*
X95310000Y-75050000D02*
X95310000Y-57030000D01*
X91170000Y-57090000D02*
G75*
G02*
X89170000Y-57090000I-1000000J0D01*
G01*
%TO.C,U2*%
X118050000Y-54490000D02*
X118050000Y-75050000D01*
X118050000Y-75050000D02*
X128330000Y-75050000D01*
X120540000Y-54550000D02*
X120540000Y-74990000D01*
X120540000Y-74990000D02*
X125840000Y-74990000D01*
X122190000Y-54550000D02*
X120540000Y-54550000D01*
X125840000Y-54550000D02*
X124190000Y-54550000D01*
X125840000Y-74990000D02*
X125840000Y-54550000D01*
X128330000Y-54490000D02*
X118050000Y-54490000D01*
X128330000Y-75050000D02*
X128330000Y-54490000D01*
X124190000Y-54550000D02*
G75*
G02*
X122190000Y-54550000I-1000000J0D01*
G01*
%TO.C,U3*%
X100270000Y-57030000D02*
X100270000Y-75050000D01*
X100270000Y-75050000D02*
X110550000Y-75050000D01*
X102760000Y-57090000D02*
X102760000Y-74990000D01*
X102760000Y-74990000D02*
X108060000Y-74990000D01*
X104410000Y-57090000D02*
X102760000Y-57090000D01*
X108060000Y-57090000D02*
X106410000Y-57090000D01*
X108060000Y-74990000D02*
X108060000Y-57090000D01*
X110550000Y-57030000D02*
X100270000Y-57030000D01*
X110550000Y-75050000D02*
X110550000Y-57030000D01*
X106410000Y-57090000D02*
G75*
G02*
X104410000Y-57090000I-1000000J0D01*
G01*
%TO.C,U4*%
X138370000Y-54490000D02*
X138370000Y-75050000D01*
X138370000Y-75050000D02*
X148650000Y-75050000D01*
X140860000Y-54550000D02*
X140860000Y-74990000D01*
X140860000Y-74990000D02*
X146160000Y-74990000D01*
X142510000Y-54550000D02*
X140860000Y-54550000D01*
X146160000Y-54550000D02*
X144510000Y-54550000D01*
X146160000Y-74990000D02*
X146160000Y-54550000D01*
X148650000Y-54490000D02*
X138370000Y-54490000D01*
X148650000Y-75050000D02*
X148650000Y-54490000D01*
X144510000Y-54550000D02*
G75*
G02*
X142510000Y-54550000I-1000000J0D01*
G01*
%TO.C,J6*%
X115192500Y-70425000D02*
X115192500Y-73085000D01*
X115252500Y-70425000D02*
X115192500Y-70425000D01*
X115252500Y-70425000D02*
X115252500Y-73085000D01*
X115252500Y-73085000D02*
X115192500Y-73085000D01*
X116522500Y-70425000D02*
X117852500Y-70425000D01*
X117852500Y-70425000D02*
X117852500Y-71755000D01*
%TO.C,R1*%
X120152936Y-75782500D02*
X120607064Y-75782500D01*
X120152936Y-77252500D02*
X120607064Y-77252500D01*
%TD*%
M02*
