%TF.GenerationSoftware,KiCad,Pcbnew,9.0.6*%
%TF.CreationDate,2026-05-15T23:13:01+03:00*%
%TF.ProjectId,MUL1,4d554c31-2e6b-4696-9361-645f70636258,rev?*%
%TF.SameCoordinates,Original*%
%TF.FileFunction,Soldermask,Bot*%
%TF.FilePolarity,Negative*%
%FSLAX46Y46*%
G04 Gerber Fmt 4.6, Leading zero omitted, Abs format (unit mm)*
G04 Created by KiCad (PCBNEW 9.0.6) date 2026-05-15 23:13:01*
%MOMM*%
%LPD*%
G01*
G04 APERTURE LIST*
%ADD10C,2.000000*%
%ADD11R,2.100000X2.100000*%
%ADD12O,2.100000X2.100000*%
%ADD13R,2.100000X1.700000*%
%ADD14O,2.100000X1.700000*%
%ADD15R,1.800000X1.500000*%
%ADD16O,1.800000X1.500000*%
%ADD17R,1.700000X1.700000*%
G04 APERTURE END LIST*
D10*
%TO.C,C1*%
X151765000Y-58420000D03*
X151765000Y-68420000D03*
%TD*%
%TO.C,C2*%
X115570000Y-59055000D03*
X115570000Y-69055000D03*
%TD*%
D11*
%TO.C,J1*%
X129540000Y-83820000D03*
D12*
X127000000Y-83820000D03*
X124460000Y-83820000D03*
X121920000Y-83820000D03*
X119380000Y-83820000D03*
X116840000Y-83820000D03*
X114300000Y-83820000D03*
X111760000Y-83820000D03*
%TD*%
D13*
%TO.C,J2*%
X154940000Y-83820000D03*
D14*
X152400000Y-83820000D03*
X149860000Y-83820000D03*
X147320000Y-83820000D03*
X144780000Y-83820000D03*
X142240000Y-83820000D03*
X139700000Y-83820000D03*
X137160000Y-83820000D03*
X134620000Y-83820000D03*
%TD*%
D11*
%TO.C,J3*%
X106680000Y-83820000D03*
D12*
X104140000Y-83820000D03*
X101600000Y-83820000D03*
X99060000Y-83820000D03*
X96520000Y-83820000D03*
X93980000Y-83820000D03*
X91440000Y-83820000D03*
X88900000Y-83820000D03*
%TD*%
D11*
%TO.C,J4*%
X83820000Y-83820000D03*
%TD*%
%TO.C,J5*%
X162560000Y-83820000D03*
D12*
X160020000Y-83820000D03*
%TD*%
D15*
%TO.C,U1*%
X86360000Y-58420000D03*
D16*
X86360000Y-60960000D03*
X86360000Y-63500000D03*
X86360000Y-66040000D03*
X86360000Y-68580000D03*
X86360000Y-71120000D03*
X86360000Y-73660000D03*
X93980000Y-73660000D03*
X93980000Y-71120000D03*
X93980000Y-68580000D03*
X93980000Y-66040000D03*
X93980000Y-63500000D03*
X93980000Y-60960000D03*
X93980000Y-58420000D03*
%TD*%
D15*
%TO.C,U2*%
X119380000Y-55880000D03*
D16*
X119380000Y-58420000D03*
X119380000Y-60960000D03*
X119380000Y-63500000D03*
X119380000Y-66040000D03*
X119380000Y-68580000D03*
X119380000Y-71120000D03*
X119380000Y-73660000D03*
X127000000Y-73660000D03*
X127000000Y-71120000D03*
X127000000Y-68580000D03*
X127000000Y-66040000D03*
X127000000Y-63500000D03*
X127000000Y-60960000D03*
X127000000Y-58420000D03*
X127000000Y-55880000D03*
%TD*%
D15*
%TO.C,U3*%
X101600000Y-58420000D03*
D16*
X101600000Y-60960000D03*
X101600000Y-63500000D03*
X101600000Y-66040000D03*
X101600000Y-68580000D03*
X101600000Y-71120000D03*
X101600000Y-73660000D03*
X109220000Y-73660000D03*
X109220000Y-71120000D03*
X109220000Y-68580000D03*
X109220000Y-66040000D03*
X109220000Y-63500000D03*
X109220000Y-60960000D03*
X109220000Y-58420000D03*
%TD*%
D15*
%TO.C,U4*%
X139700000Y-55880000D03*
D16*
X139700000Y-58420000D03*
X139700000Y-60960000D03*
X139700000Y-63500000D03*
X139700000Y-66040000D03*
X139700000Y-68580000D03*
X139700000Y-71120000D03*
X139700000Y-73660000D03*
X147320000Y-73660000D03*
X147320000Y-71120000D03*
X147320000Y-68580000D03*
X147320000Y-66040000D03*
X147320000Y-63500000D03*
X147320000Y-60960000D03*
X147320000Y-58420000D03*
X147320000Y-55880000D03*
%TD*%
D17*
%TO.C,J6*%
X116522500Y-71755000D03*
%TD*%
M02*
