%TF.GenerationSoftware,KiCad,Pcbnew,9.0.6*%
%TF.CreationDate,2026-05-15T22:06:10+03:00*%
%TF.ProjectId,MUL8x8,4d554c38-7838-42e6-9b69-6361645f7063,rev?*%
%TF.SameCoordinates,Original*%
%TF.FileFunction,Legend,Top*%
%TF.FilePolarity,Positive*%
%FSLAX46Y46*%
G04 Gerber Fmt 4.6, Leading zero omitted, Abs format (unit mm)*
G04 Created by KiCad (PCBNEW 9.0.6) date 2026-05-15 22:06:10*
%MOMM*%
%LPD*%
G01*
G04 APERTURE LIST*
%ADD10C,0.150000*%
%ADD11C,0.250000*%
%ADD12C,0.300000*%
%ADD13C,0.400000*%
%ADD14C,0.120000*%
G04 APERTURE END LIST*
D10*
X103949523Y-93164819D02*
X103378095Y-93164819D01*
X103663809Y-93164819D02*
X103663809Y-92164819D01*
X103663809Y-92164819D02*
X103568571Y-92307676D01*
X103568571Y-92307676D02*
X103473333Y-92402914D01*
X103473333Y-92402914D02*
X103378095Y-92450533D01*
X104854285Y-92164819D02*
X104378095Y-92164819D01*
X104378095Y-92164819D02*
X104330476Y-92641009D01*
X104330476Y-92641009D02*
X104378095Y-92593390D01*
X104378095Y-92593390D02*
X104473333Y-92545771D01*
X104473333Y-92545771D02*
X104711428Y-92545771D01*
X104711428Y-92545771D02*
X104806666Y-92593390D01*
X104806666Y-92593390D02*
X104854285Y-92641009D01*
X104854285Y-92641009D02*
X104901904Y-92736247D01*
X104901904Y-92736247D02*
X104901904Y-92974342D01*
X104901904Y-92974342D02*
X104854285Y-93069580D01*
X104854285Y-93069580D02*
X104806666Y-93117200D01*
X104806666Y-93117200D02*
X104711428Y-93164819D01*
X104711428Y-93164819D02*
X104473333Y-93164819D01*
X104473333Y-93164819D02*
X104378095Y-93117200D01*
X104378095Y-93117200D02*
X104330476Y-93069580D01*
X104679762Y-74813390D02*
X104584524Y-74765771D01*
X104584524Y-74765771D02*
X104536905Y-74718152D01*
X104536905Y-74718152D02*
X104489286Y-74622914D01*
X104489286Y-74622914D02*
X104489286Y-74575295D01*
X104489286Y-74575295D02*
X104536905Y-74480057D01*
X104536905Y-74480057D02*
X104584524Y-74432438D01*
X104584524Y-74432438D02*
X104679762Y-74384819D01*
X104679762Y-74384819D02*
X104870238Y-74384819D01*
X104870238Y-74384819D02*
X104965476Y-74432438D01*
X104965476Y-74432438D02*
X105013095Y-74480057D01*
X105013095Y-74480057D02*
X105060714Y-74575295D01*
X105060714Y-74575295D02*
X105060714Y-74622914D01*
X105060714Y-74622914D02*
X105013095Y-74718152D01*
X105013095Y-74718152D02*
X104965476Y-74765771D01*
X104965476Y-74765771D02*
X104870238Y-74813390D01*
X104870238Y-74813390D02*
X104679762Y-74813390D01*
X104679762Y-74813390D02*
X104584524Y-74861009D01*
X104584524Y-74861009D02*
X104536905Y-74908628D01*
X104536905Y-74908628D02*
X104489286Y-75003866D01*
X104489286Y-75003866D02*
X104489286Y-75194342D01*
X104489286Y-75194342D02*
X104536905Y-75289580D01*
X104536905Y-75289580D02*
X104584524Y-75337200D01*
X104584524Y-75337200D02*
X104679762Y-75384819D01*
X104679762Y-75384819D02*
X104870238Y-75384819D01*
X104870238Y-75384819D02*
X104965476Y-75337200D01*
X104965476Y-75337200D02*
X105013095Y-75289580D01*
X105013095Y-75289580D02*
X105060714Y-75194342D01*
X105060714Y-75194342D02*
X105060714Y-75003866D01*
X105060714Y-75003866D02*
X105013095Y-74908628D01*
X105013095Y-74908628D02*
X104965476Y-74861009D01*
X104965476Y-74861009D02*
X104870238Y-74813390D01*
X109664523Y-95387319D02*
X109093095Y-95387319D01*
X109378809Y-95387319D02*
X109378809Y-94387319D01*
X109378809Y-94387319D02*
X109283571Y-94530176D01*
X109283571Y-94530176D02*
X109188333Y-94625414D01*
X109188333Y-94625414D02*
X109093095Y-94673033D01*
X110569285Y-94387319D02*
X110093095Y-94387319D01*
X110093095Y-94387319D02*
X110045476Y-94863509D01*
X110045476Y-94863509D02*
X110093095Y-94815890D01*
X110093095Y-94815890D02*
X110188333Y-94768271D01*
X110188333Y-94768271D02*
X110426428Y-94768271D01*
X110426428Y-94768271D02*
X110521666Y-94815890D01*
X110521666Y-94815890D02*
X110569285Y-94863509D01*
X110569285Y-94863509D02*
X110616904Y-94958747D01*
X110616904Y-94958747D02*
X110616904Y-95196842D01*
X110616904Y-95196842D02*
X110569285Y-95292080D01*
X110569285Y-95292080D02*
X110521666Y-95339700D01*
X110521666Y-95339700D02*
X110426428Y-95387319D01*
X110426428Y-95387319D02*
X110188333Y-95387319D01*
X110188333Y-95387319D02*
X110093095Y-95339700D01*
X110093095Y-95339700D02*
X110045476Y-95292080D01*
X17446667Y-45174819D02*
X18113333Y-45174819D01*
X18113333Y-45174819D02*
X17684762Y-46174819D01*
X17446667Y-70574819D02*
X18113333Y-70574819D01*
X18113333Y-70574819D02*
X17684762Y-71574819D01*
X14906667Y-98514819D02*
X15573333Y-98514819D01*
X15573333Y-98514819D02*
X15144762Y-99514819D01*
X17097381Y-78194819D02*
X17192619Y-78194819D01*
X17192619Y-78194819D02*
X17287857Y-78242438D01*
X17287857Y-78242438D02*
X17335476Y-78290057D01*
X17335476Y-78290057D02*
X17383095Y-78385295D01*
X17383095Y-78385295D02*
X17430714Y-78575771D01*
X17430714Y-78575771D02*
X17430714Y-78813866D01*
X17430714Y-78813866D02*
X17383095Y-79004342D01*
X17383095Y-79004342D02*
X17335476Y-79099580D01*
X17335476Y-79099580D02*
X17287857Y-79147200D01*
X17287857Y-79147200D02*
X17192619Y-79194819D01*
X17192619Y-79194819D02*
X17097381Y-79194819D01*
X17097381Y-79194819D02*
X17002143Y-79147200D01*
X17002143Y-79147200D02*
X16954524Y-79099580D01*
X16954524Y-79099580D02*
X16906905Y-79004342D01*
X16906905Y-79004342D02*
X16859286Y-78813866D01*
X16859286Y-78813866D02*
X16859286Y-78575771D01*
X16859286Y-78575771D02*
X16906905Y-78385295D01*
X16906905Y-78385295D02*
X16954524Y-78290057D01*
X16954524Y-78290057D02*
X17002143Y-78242438D01*
X17002143Y-78242438D02*
X17097381Y-78194819D01*
X17732381Y-52794819D02*
X17827619Y-52794819D01*
X17827619Y-52794819D02*
X17922857Y-52842438D01*
X17922857Y-52842438D02*
X17970476Y-52890057D01*
X17970476Y-52890057D02*
X18018095Y-52985295D01*
X18018095Y-52985295D02*
X18065714Y-53175771D01*
X18065714Y-53175771D02*
X18065714Y-53413866D01*
X18065714Y-53413866D02*
X18018095Y-53604342D01*
X18018095Y-53604342D02*
X17970476Y-53699580D01*
X17970476Y-53699580D02*
X17922857Y-53747200D01*
X17922857Y-53747200D02*
X17827619Y-53794819D01*
X17827619Y-53794819D02*
X17732381Y-53794819D01*
X17732381Y-53794819D02*
X17637143Y-53747200D01*
X17637143Y-53747200D02*
X17589524Y-53699580D01*
X17589524Y-53699580D02*
X17541905Y-53604342D01*
X17541905Y-53604342D02*
X17494286Y-53413866D01*
X17494286Y-53413866D02*
X17494286Y-53175771D01*
X17494286Y-53175771D02*
X17541905Y-52985295D01*
X17541905Y-52985295D02*
X17589524Y-52890057D01*
X17589524Y-52890057D02*
X17637143Y-52842438D01*
X17637143Y-52842438D02*
X17732381Y-52794819D01*
X17732381Y-27394819D02*
X17827619Y-27394819D01*
X17827619Y-27394819D02*
X17922857Y-27442438D01*
X17922857Y-27442438D02*
X17970476Y-27490057D01*
X17970476Y-27490057D02*
X18018095Y-27585295D01*
X18018095Y-27585295D02*
X18065714Y-27775771D01*
X18065714Y-27775771D02*
X18065714Y-28013866D01*
X18065714Y-28013866D02*
X18018095Y-28204342D01*
X18018095Y-28204342D02*
X17970476Y-28299580D01*
X17970476Y-28299580D02*
X17922857Y-28347200D01*
X17922857Y-28347200D02*
X17827619Y-28394819D01*
X17827619Y-28394819D02*
X17732381Y-28394819D01*
X17732381Y-28394819D02*
X17637143Y-28347200D01*
X17637143Y-28347200D02*
X17589524Y-28299580D01*
X17589524Y-28299580D02*
X17541905Y-28204342D01*
X17541905Y-28204342D02*
X17494286Y-28013866D01*
X17494286Y-28013866D02*
X17494286Y-27775771D01*
X17494286Y-27775771D02*
X17541905Y-27585295D01*
X17541905Y-27585295D02*
X17589524Y-27490057D01*
X17589524Y-27490057D02*
X17637143Y-27442438D01*
X17637143Y-27442438D02*
X17732381Y-27394819D01*
X17772142Y-24902438D02*
X17676904Y-24854819D01*
X17676904Y-24854819D02*
X17534047Y-24854819D01*
X17534047Y-24854819D02*
X17391190Y-24902438D01*
X17391190Y-24902438D02*
X17295952Y-24997676D01*
X17295952Y-24997676D02*
X17248333Y-25092914D01*
X17248333Y-25092914D02*
X17200714Y-25283390D01*
X17200714Y-25283390D02*
X17200714Y-25426247D01*
X17200714Y-25426247D02*
X17248333Y-25616723D01*
X17248333Y-25616723D02*
X17295952Y-25711961D01*
X17295952Y-25711961D02*
X17391190Y-25807200D01*
X17391190Y-25807200D02*
X17534047Y-25854819D01*
X17534047Y-25854819D02*
X17629285Y-25854819D01*
X17629285Y-25854819D02*
X17772142Y-25807200D01*
X17772142Y-25807200D02*
X17819761Y-25759580D01*
X17819761Y-25759580D02*
X17819761Y-25426247D01*
X17819761Y-25426247D02*
X17629285Y-25426247D01*
X18248333Y-25188152D02*
X18248333Y-25854819D01*
X18248333Y-25283390D02*
X18295952Y-25235771D01*
X18295952Y-25235771D02*
X18391190Y-25188152D01*
X18391190Y-25188152D02*
X18534047Y-25188152D01*
X18534047Y-25188152D02*
X18629285Y-25235771D01*
X18629285Y-25235771D02*
X18676904Y-25331009D01*
X18676904Y-25331009D02*
X18676904Y-25854819D01*
X19581666Y-25854819D02*
X19581666Y-24854819D01*
X19581666Y-25807200D02*
X19486428Y-25854819D01*
X19486428Y-25854819D02*
X19295952Y-25854819D01*
X19295952Y-25854819D02*
X19200714Y-25807200D01*
X19200714Y-25807200D02*
X19153095Y-25759580D01*
X19153095Y-25759580D02*
X19105476Y-25664342D01*
X19105476Y-25664342D02*
X19105476Y-25378628D01*
X19105476Y-25378628D02*
X19153095Y-25283390D01*
X19153095Y-25283390D02*
X19200714Y-25235771D01*
X19200714Y-25235771D02*
X19295952Y-25188152D01*
X19295952Y-25188152D02*
X19486428Y-25188152D01*
X19486428Y-25188152D02*
X19581666Y-25235771D01*
X17454642Y-50302438D02*
X17359404Y-50254819D01*
X17359404Y-50254819D02*
X17216547Y-50254819D01*
X17216547Y-50254819D02*
X17073690Y-50302438D01*
X17073690Y-50302438D02*
X16978452Y-50397676D01*
X16978452Y-50397676D02*
X16930833Y-50492914D01*
X16930833Y-50492914D02*
X16883214Y-50683390D01*
X16883214Y-50683390D02*
X16883214Y-50826247D01*
X16883214Y-50826247D02*
X16930833Y-51016723D01*
X16930833Y-51016723D02*
X16978452Y-51111961D01*
X16978452Y-51111961D02*
X17073690Y-51207200D01*
X17073690Y-51207200D02*
X17216547Y-51254819D01*
X17216547Y-51254819D02*
X17311785Y-51254819D01*
X17311785Y-51254819D02*
X17454642Y-51207200D01*
X17454642Y-51207200D02*
X17502261Y-51159580D01*
X17502261Y-51159580D02*
X17502261Y-50826247D01*
X17502261Y-50826247D02*
X17311785Y-50826247D01*
X17930833Y-50588152D02*
X17930833Y-51254819D01*
X17930833Y-50683390D02*
X17978452Y-50635771D01*
X17978452Y-50635771D02*
X18073690Y-50588152D01*
X18073690Y-50588152D02*
X18216547Y-50588152D01*
X18216547Y-50588152D02*
X18311785Y-50635771D01*
X18311785Y-50635771D02*
X18359404Y-50731009D01*
X18359404Y-50731009D02*
X18359404Y-51254819D01*
X19264166Y-51254819D02*
X19264166Y-50254819D01*
X19264166Y-51207200D02*
X19168928Y-51254819D01*
X19168928Y-51254819D02*
X18978452Y-51254819D01*
X18978452Y-51254819D02*
X18883214Y-51207200D01*
X18883214Y-51207200D02*
X18835595Y-51159580D01*
X18835595Y-51159580D02*
X18787976Y-51064342D01*
X18787976Y-51064342D02*
X18787976Y-50778628D01*
X18787976Y-50778628D02*
X18835595Y-50683390D01*
X18835595Y-50683390D02*
X18883214Y-50635771D01*
X18883214Y-50635771D02*
X18978452Y-50588152D01*
X18978452Y-50588152D02*
X19168928Y-50588152D01*
X19168928Y-50588152D02*
X19264166Y-50635771D01*
X14597142Y-73479938D02*
X14501904Y-73432319D01*
X14501904Y-73432319D02*
X14359047Y-73432319D01*
X14359047Y-73432319D02*
X14216190Y-73479938D01*
X14216190Y-73479938D02*
X14120952Y-73575176D01*
X14120952Y-73575176D02*
X14073333Y-73670414D01*
X14073333Y-73670414D02*
X14025714Y-73860890D01*
X14025714Y-73860890D02*
X14025714Y-74003747D01*
X14025714Y-74003747D02*
X14073333Y-74194223D01*
X14073333Y-74194223D02*
X14120952Y-74289461D01*
X14120952Y-74289461D02*
X14216190Y-74384700D01*
X14216190Y-74384700D02*
X14359047Y-74432319D01*
X14359047Y-74432319D02*
X14454285Y-74432319D01*
X14454285Y-74432319D02*
X14597142Y-74384700D01*
X14597142Y-74384700D02*
X14644761Y-74337080D01*
X14644761Y-74337080D02*
X14644761Y-74003747D01*
X14644761Y-74003747D02*
X14454285Y-74003747D01*
X15073333Y-73765652D02*
X15073333Y-74432319D01*
X15073333Y-73860890D02*
X15120952Y-73813271D01*
X15120952Y-73813271D02*
X15216190Y-73765652D01*
X15216190Y-73765652D02*
X15359047Y-73765652D01*
X15359047Y-73765652D02*
X15454285Y-73813271D01*
X15454285Y-73813271D02*
X15501904Y-73908509D01*
X15501904Y-73908509D02*
X15501904Y-74432319D01*
X16406666Y-74432319D02*
X16406666Y-73432319D01*
X16406666Y-74384700D02*
X16311428Y-74432319D01*
X16311428Y-74432319D02*
X16120952Y-74432319D01*
X16120952Y-74432319D02*
X16025714Y-74384700D01*
X16025714Y-74384700D02*
X15978095Y-74337080D01*
X15978095Y-74337080D02*
X15930476Y-74241842D01*
X15930476Y-74241842D02*
X15930476Y-73956128D01*
X15930476Y-73956128D02*
X15978095Y-73860890D01*
X15978095Y-73860890D02*
X16025714Y-73813271D01*
X16025714Y-73813271D02*
X16120952Y-73765652D01*
X16120952Y-73765652D02*
X16311428Y-73765652D01*
X16311428Y-73765652D02*
X16406666Y-73813271D01*
X109212142Y-69352438D02*
X109116904Y-69304819D01*
X109116904Y-69304819D02*
X108974047Y-69304819D01*
X108974047Y-69304819D02*
X108831190Y-69352438D01*
X108831190Y-69352438D02*
X108735952Y-69447676D01*
X108735952Y-69447676D02*
X108688333Y-69542914D01*
X108688333Y-69542914D02*
X108640714Y-69733390D01*
X108640714Y-69733390D02*
X108640714Y-69876247D01*
X108640714Y-69876247D02*
X108688333Y-70066723D01*
X108688333Y-70066723D02*
X108735952Y-70161961D01*
X108735952Y-70161961D02*
X108831190Y-70257200D01*
X108831190Y-70257200D02*
X108974047Y-70304819D01*
X108974047Y-70304819D02*
X109069285Y-70304819D01*
X109069285Y-70304819D02*
X109212142Y-70257200D01*
X109212142Y-70257200D02*
X109259761Y-70209580D01*
X109259761Y-70209580D02*
X109259761Y-69876247D01*
X109259761Y-69876247D02*
X109069285Y-69876247D01*
X109688333Y-69638152D02*
X109688333Y-70304819D01*
X109688333Y-69733390D02*
X109735952Y-69685771D01*
X109735952Y-69685771D02*
X109831190Y-69638152D01*
X109831190Y-69638152D02*
X109974047Y-69638152D01*
X109974047Y-69638152D02*
X110069285Y-69685771D01*
X110069285Y-69685771D02*
X110116904Y-69781009D01*
X110116904Y-69781009D02*
X110116904Y-70304819D01*
X111021666Y-70304819D02*
X111021666Y-69304819D01*
X111021666Y-70257200D02*
X110926428Y-70304819D01*
X110926428Y-70304819D02*
X110735952Y-70304819D01*
X110735952Y-70304819D02*
X110640714Y-70257200D01*
X110640714Y-70257200D02*
X110593095Y-70209580D01*
X110593095Y-70209580D02*
X110545476Y-70114342D01*
X110545476Y-70114342D02*
X110545476Y-69828628D01*
X110545476Y-69828628D02*
X110593095Y-69733390D01*
X110593095Y-69733390D02*
X110640714Y-69685771D01*
X110640714Y-69685771D02*
X110735952Y-69638152D01*
X110735952Y-69638152D02*
X110926428Y-69638152D01*
X110926428Y-69638152D02*
X111021666Y-69685771D01*
D11*
X91717238Y-58721190D02*
X89717238Y-58721190D01*
X89717238Y-58721190D02*
X91145809Y-58054523D01*
X91145809Y-58054523D02*
X89717238Y-57387857D01*
X89717238Y-57387857D02*
X91717238Y-57387857D01*
X89717238Y-56435476D02*
X91336285Y-56435476D01*
X91336285Y-56435476D02*
X91526761Y-56340238D01*
X91526761Y-56340238D02*
X91622000Y-56245000D01*
X91622000Y-56245000D02*
X91717238Y-56054524D01*
X91717238Y-56054524D02*
X91717238Y-55673571D01*
X91717238Y-55673571D02*
X91622000Y-55483095D01*
X91622000Y-55483095D02*
X91526761Y-55387857D01*
X91526761Y-55387857D02*
X91336285Y-55292619D01*
X91336285Y-55292619D02*
X89717238Y-55292619D01*
X91717238Y-53387857D02*
X91717238Y-54340238D01*
X91717238Y-54340238D02*
X89717238Y-54340238D01*
X91717238Y-51673571D02*
X91717238Y-52816428D01*
X91717238Y-52245000D02*
X89717238Y-52245000D01*
X89717238Y-52245000D02*
X90002952Y-52435476D01*
X90002952Y-52435476D02*
X90193428Y-52625952D01*
X90193428Y-52625952D02*
X90288666Y-52816428D01*
X83462238Y-58721190D02*
X81462238Y-58721190D01*
X81462238Y-58721190D02*
X82890809Y-58054523D01*
X82890809Y-58054523D02*
X81462238Y-57387857D01*
X81462238Y-57387857D02*
X83462238Y-57387857D01*
X81462238Y-56435476D02*
X83081285Y-56435476D01*
X83081285Y-56435476D02*
X83271761Y-56340238D01*
X83271761Y-56340238D02*
X83367000Y-56245000D01*
X83367000Y-56245000D02*
X83462238Y-56054524D01*
X83462238Y-56054524D02*
X83462238Y-55673571D01*
X83462238Y-55673571D02*
X83367000Y-55483095D01*
X83367000Y-55483095D02*
X83271761Y-55387857D01*
X83271761Y-55387857D02*
X83081285Y-55292619D01*
X83081285Y-55292619D02*
X81462238Y-55292619D01*
X83462238Y-53387857D02*
X83462238Y-54340238D01*
X83462238Y-54340238D02*
X81462238Y-54340238D01*
X83462238Y-51673571D02*
X83462238Y-52816428D01*
X83462238Y-52245000D02*
X81462238Y-52245000D01*
X81462238Y-52245000D02*
X81747952Y-52435476D01*
X81747952Y-52435476D02*
X81938428Y-52625952D01*
X81938428Y-52625952D02*
X82033666Y-52816428D01*
X75207238Y-58721190D02*
X73207238Y-58721190D01*
X73207238Y-58721190D02*
X74635809Y-58054523D01*
X74635809Y-58054523D02*
X73207238Y-57387857D01*
X73207238Y-57387857D02*
X75207238Y-57387857D01*
X73207238Y-56435476D02*
X74826285Y-56435476D01*
X74826285Y-56435476D02*
X75016761Y-56340238D01*
X75016761Y-56340238D02*
X75112000Y-56245000D01*
X75112000Y-56245000D02*
X75207238Y-56054524D01*
X75207238Y-56054524D02*
X75207238Y-55673571D01*
X75207238Y-55673571D02*
X75112000Y-55483095D01*
X75112000Y-55483095D02*
X75016761Y-55387857D01*
X75016761Y-55387857D02*
X74826285Y-55292619D01*
X74826285Y-55292619D02*
X73207238Y-55292619D01*
X75207238Y-53387857D02*
X75207238Y-54340238D01*
X75207238Y-54340238D02*
X73207238Y-54340238D01*
X75207238Y-51673571D02*
X75207238Y-52816428D01*
X75207238Y-52245000D02*
X73207238Y-52245000D01*
X73207238Y-52245000D02*
X73492952Y-52435476D01*
X73492952Y-52435476D02*
X73683428Y-52625952D01*
X73683428Y-52625952D02*
X73778666Y-52816428D01*
X66952238Y-58721190D02*
X64952238Y-58721190D01*
X64952238Y-58721190D02*
X66380809Y-58054523D01*
X66380809Y-58054523D02*
X64952238Y-57387857D01*
X64952238Y-57387857D02*
X66952238Y-57387857D01*
X64952238Y-56435476D02*
X66571285Y-56435476D01*
X66571285Y-56435476D02*
X66761761Y-56340238D01*
X66761761Y-56340238D02*
X66857000Y-56245000D01*
X66857000Y-56245000D02*
X66952238Y-56054524D01*
X66952238Y-56054524D02*
X66952238Y-55673571D01*
X66952238Y-55673571D02*
X66857000Y-55483095D01*
X66857000Y-55483095D02*
X66761761Y-55387857D01*
X66761761Y-55387857D02*
X66571285Y-55292619D01*
X66571285Y-55292619D02*
X64952238Y-55292619D01*
X66952238Y-53387857D02*
X66952238Y-54340238D01*
X66952238Y-54340238D02*
X64952238Y-54340238D01*
X66952238Y-51673571D02*
X66952238Y-52816428D01*
X66952238Y-52245000D02*
X64952238Y-52245000D01*
X64952238Y-52245000D02*
X65237952Y-52435476D01*
X65237952Y-52435476D02*
X65428428Y-52625952D01*
X65428428Y-52625952D02*
X65523666Y-52816428D01*
X58697238Y-58721190D02*
X56697238Y-58721190D01*
X56697238Y-58721190D02*
X58125809Y-58054523D01*
X58125809Y-58054523D02*
X56697238Y-57387857D01*
X56697238Y-57387857D02*
X58697238Y-57387857D01*
X56697238Y-56435476D02*
X58316285Y-56435476D01*
X58316285Y-56435476D02*
X58506761Y-56340238D01*
X58506761Y-56340238D02*
X58602000Y-56245000D01*
X58602000Y-56245000D02*
X58697238Y-56054524D01*
X58697238Y-56054524D02*
X58697238Y-55673571D01*
X58697238Y-55673571D02*
X58602000Y-55483095D01*
X58602000Y-55483095D02*
X58506761Y-55387857D01*
X58506761Y-55387857D02*
X58316285Y-55292619D01*
X58316285Y-55292619D02*
X56697238Y-55292619D01*
X58697238Y-53387857D02*
X58697238Y-54340238D01*
X58697238Y-54340238D02*
X56697238Y-54340238D01*
X58697238Y-51673571D02*
X58697238Y-52816428D01*
X58697238Y-52245000D02*
X56697238Y-52245000D01*
X56697238Y-52245000D02*
X56982952Y-52435476D01*
X56982952Y-52435476D02*
X57173428Y-52625952D01*
X57173428Y-52625952D02*
X57268666Y-52816428D01*
X50442238Y-58721190D02*
X48442238Y-58721190D01*
X48442238Y-58721190D02*
X49870809Y-58054523D01*
X49870809Y-58054523D02*
X48442238Y-57387857D01*
X48442238Y-57387857D02*
X50442238Y-57387857D01*
X48442238Y-56435476D02*
X50061285Y-56435476D01*
X50061285Y-56435476D02*
X50251761Y-56340238D01*
X50251761Y-56340238D02*
X50347000Y-56245000D01*
X50347000Y-56245000D02*
X50442238Y-56054524D01*
X50442238Y-56054524D02*
X50442238Y-55673571D01*
X50442238Y-55673571D02*
X50347000Y-55483095D01*
X50347000Y-55483095D02*
X50251761Y-55387857D01*
X50251761Y-55387857D02*
X50061285Y-55292619D01*
X50061285Y-55292619D02*
X48442238Y-55292619D01*
X50442238Y-53387857D02*
X50442238Y-54340238D01*
X50442238Y-54340238D02*
X48442238Y-54340238D01*
X50442238Y-51673571D02*
X50442238Y-52816428D01*
X50442238Y-52245000D02*
X48442238Y-52245000D01*
X48442238Y-52245000D02*
X48727952Y-52435476D01*
X48727952Y-52435476D02*
X48918428Y-52625952D01*
X48918428Y-52625952D02*
X49013666Y-52816428D01*
X42187238Y-58721190D02*
X40187238Y-58721190D01*
X40187238Y-58721190D02*
X41615809Y-58054523D01*
X41615809Y-58054523D02*
X40187238Y-57387857D01*
X40187238Y-57387857D02*
X42187238Y-57387857D01*
X40187238Y-56435476D02*
X41806285Y-56435476D01*
X41806285Y-56435476D02*
X41996761Y-56340238D01*
X41996761Y-56340238D02*
X42092000Y-56245000D01*
X42092000Y-56245000D02*
X42187238Y-56054524D01*
X42187238Y-56054524D02*
X42187238Y-55673571D01*
X42187238Y-55673571D02*
X42092000Y-55483095D01*
X42092000Y-55483095D02*
X41996761Y-55387857D01*
X41996761Y-55387857D02*
X41806285Y-55292619D01*
X41806285Y-55292619D02*
X40187238Y-55292619D01*
X42187238Y-53387857D02*
X42187238Y-54340238D01*
X42187238Y-54340238D02*
X40187238Y-54340238D01*
X42187238Y-51673571D02*
X42187238Y-52816428D01*
X42187238Y-52245000D02*
X40187238Y-52245000D01*
X40187238Y-52245000D02*
X40472952Y-52435476D01*
X40472952Y-52435476D02*
X40663428Y-52625952D01*
X40663428Y-52625952D02*
X40758666Y-52816428D01*
X21962714Y-95821190D02*
X21867476Y-95725952D01*
X21867476Y-95725952D02*
X21772238Y-95535476D01*
X21772238Y-95535476D02*
X21772238Y-95059285D01*
X21772238Y-95059285D02*
X21867476Y-94868809D01*
X21867476Y-94868809D02*
X21962714Y-94773571D01*
X21962714Y-94773571D02*
X22153190Y-94678333D01*
X22153190Y-94678333D02*
X22343666Y-94678333D01*
X22343666Y-94678333D02*
X22629380Y-94773571D01*
X22629380Y-94773571D02*
X23772238Y-95916428D01*
X23772238Y-95916428D02*
X23772238Y-94678333D01*
X22438904Y-92964047D02*
X23772238Y-92964047D01*
X21677000Y-93440238D02*
X23105571Y-93916428D01*
X23105571Y-93916428D02*
X23105571Y-92678333D01*
X21772238Y-90964047D02*
X21772238Y-91916428D01*
X21772238Y-91916428D02*
X22724619Y-92011666D01*
X22724619Y-92011666D02*
X22629380Y-91916428D01*
X22629380Y-91916428D02*
X22534142Y-91725952D01*
X22534142Y-91725952D02*
X22534142Y-91249761D01*
X22534142Y-91249761D02*
X22629380Y-91059285D01*
X22629380Y-91059285D02*
X22724619Y-90964047D01*
X22724619Y-90964047D02*
X22915095Y-90868809D01*
X22915095Y-90868809D02*
X23391285Y-90868809D01*
X23391285Y-90868809D02*
X23581761Y-90964047D01*
X23581761Y-90964047D02*
X23677000Y-91059285D01*
X23677000Y-91059285D02*
X23772238Y-91249761D01*
X23772238Y-91249761D02*
X23772238Y-91725952D01*
X23772238Y-91725952D02*
X23677000Y-91916428D01*
X23677000Y-91916428D02*
X23581761Y-92011666D01*
X32401190Y-109497238D02*
X32401190Y-107497238D01*
X32401190Y-107497238D02*
X33067857Y-108925809D01*
X33067857Y-108925809D02*
X33734523Y-107497238D01*
X33734523Y-107497238D02*
X33734523Y-109497238D01*
X34686904Y-107497238D02*
X34686904Y-109116285D01*
X34686904Y-109116285D02*
X34782142Y-109306761D01*
X34782142Y-109306761D02*
X34877380Y-109402000D01*
X34877380Y-109402000D02*
X35067856Y-109497238D01*
X35067856Y-109497238D02*
X35448809Y-109497238D01*
X35448809Y-109497238D02*
X35639285Y-109402000D01*
X35639285Y-109402000D02*
X35734523Y-109306761D01*
X35734523Y-109306761D02*
X35829761Y-109116285D01*
X35829761Y-109116285D02*
X35829761Y-107497238D01*
X37734523Y-109497238D02*
X36782142Y-109497238D01*
X36782142Y-109497238D02*
X36782142Y-107497238D01*
X32125000Y-106942000D02*
X37725000Y-106942000D01*
X19192857Y-35424619D02*
X19478571Y-35519857D01*
X19478571Y-35519857D02*
X19573809Y-35615095D01*
X19573809Y-35615095D02*
X19669047Y-35805571D01*
X19669047Y-35805571D02*
X19669047Y-36091285D01*
X19669047Y-36091285D02*
X19573809Y-36281761D01*
X19573809Y-36281761D02*
X19478571Y-36377000D01*
X19478571Y-36377000D02*
X19288095Y-36472238D01*
X19288095Y-36472238D02*
X18526190Y-36472238D01*
X18526190Y-36472238D02*
X18526190Y-34472238D01*
X18526190Y-34472238D02*
X19192857Y-34472238D01*
X19192857Y-34472238D02*
X19383333Y-34567476D01*
X19383333Y-34567476D02*
X19478571Y-34662714D01*
X19478571Y-34662714D02*
X19573809Y-34853190D01*
X19573809Y-34853190D02*
X19573809Y-35043666D01*
X19573809Y-35043666D02*
X19478571Y-35234142D01*
X19478571Y-35234142D02*
X19383333Y-35329380D01*
X19383333Y-35329380D02*
X19192857Y-35424619D01*
X19192857Y-35424619D02*
X18526190Y-35424619D01*
X13573570Y-101147238D02*
X13954523Y-101147238D01*
X13954523Y-101147238D02*
X14144999Y-101242476D01*
X14144999Y-101242476D02*
X14335475Y-101432952D01*
X14335475Y-101432952D02*
X14430713Y-101813904D01*
X14430713Y-101813904D02*
X14430713Y-102480571D01*
X14430713Y-102480571D02*
X14335475Y-102861523D01*
X14335475Y-102861523D02*
X14144999Y-103052000D01*
X14144999Y-103052000D02*
X13954523Y-103147238D01*
X13954523Y-103147238D02*
X13573570Y-103147238D01*
X13573570Y-103147238D02*
X13383094Y-103052000D01*
X13383094Y-103052000D02*
X13192618Y-102861523D01*
X13192618Y-102861523D02*
X13097380Y-102480571D01*
X13097380Y-102480571D02*
X13097380Y-101813904D01*
X13097380Y-101813904D02*
X13192618Y-101432952D01*
X13192618Y-101432952D02*
X13383094Y-101242476D01*
X13383094Y-101242476D02*
X13573570Y-101147238D01*
X15287856Y-101147238D02*
X15287856Y-102766285D01*
X15287856Y-102766285D02*
X15383094Y-102956761D01*
X15383094Y-102956761D02*
X15478332Y-103052000D01*
X15478332Y-103052000D02*
X15668808Y-103147238D01*
X15668808Y-103147238D02*
X16049761Y-103147238D01*
X16049761Y-103147238D02*
X16240237Y-103052000D01*
X16240237Y-103052000D02*
X16335475Y-102956761D01*
X16335475Y-102956761D02*
X16430713Y-102766285D01*
X16430713Y-102766285D02*
X16430713Y-101147238D01*
X17097380Y-101147238D02*
X18240237Y-101147238D01*
X17668808Y-103147238D02*
X17668808Y-101147238D01*
X21383095Y-103147238D02*
X20430714Y-103147238D01*
X20430714Y-103147238D02*
X20430714Y-101147238D01*
X102552975Y-96384738D02*
X102933928Y-96384738D01*
X102933928Y-96384738D02*
X103124404Y-96479976D01*
X103124404Y-96479976D02*
X103314880Y-96670452D01*
X103314880Y-96670452D02*
X103410118Y-97051404D01*
X103410118Y-97051404D02*
X103410118Y-97718071D01*
X103410118Y-97718071D02*
X103314880Y-98099023D01*
X103314880Y-98099023D02*
X103124404Y-98289500D01*
X103124404Y-98289500D02*
X102933928Y-98384738D01*
X102933928Y-98384738D02*
X102552975Y-98384738D01*
X102552975Y-98384738D02*
X102362499Y-98289500D01*
X102362499Y-98289500D02*
X102172023Y-98099023D01*
X102172023Y-98099023D02*
X102076785Y-97718071D01*
X102076785Y-97718071D02*
X102076785Y-97051404D01*
X102076785Y-97051404D02*
X102172023Y-96670452D01*
X102172023Y-96670452D02*
X102362499Y-96479976D01*
X102362499Y-96479976D02*
X102552975Y-96384738D01*
X104267261Y-96384738D02*
X104267261Y-98003785D01*
X104267261Y-98003785D02*
X104362499Y-98194261D01*
X104362499Y-98194261D02*
X104457737Y-98289500D01*
X104457737Y-98289500D02*
X104648213Y-98384738D01*
X104648213Y-98384738D02*
X105029166Y-98384738D01*
X105029166Y-98384738D02*
X105219642Y-98289500D01*
X105219642Y-98289500D02*
X105314880Y-98194261D01*
X105314880Y-98194261D02*
X105410118Y-98003785D01*
X105410118Y-98003785D02*
X105410118Y-96384738D01*
X106076785Y-96384738D02*
X107219642Y-96384738D01*
X106648213Y-98384738D02*
X106648213Y-96384738D01*
X109410119Y-98384738D02*
X109410119Y-96384738D01*
X109410119Y-97337119D02*
X110552976Y-97337119D01*
X110552976Y-98384738D02*
X110552976Y-96384738D01*
X33360809Y-58403809D02*
X33360809Y-57451428D01*
X33932238Y-58594285D02*
X31932238Y-57927619D01*
X31932238Y-57927619D02*
X33932238Y-57260952D01*
X33932238Y-56594285D02*
X31932238Y-56594285D01*
X31932238Y-56594285D02*
X33932238Y-55451428D01*
X33932238Y-55451428D02*
X31932238Y-55451428D01*
X33932238Y-54499047D02*
X31932238Y-54499047D01*
X31932238Y-54499047D02*
X31932238Y-54022857D01*
X31932238Y-54022857D02*
X32027476Y-53737142D01*
X32027476Y-53737142D02*
X32217952Y-53546666D01*
X32217952Y-53546666D02*
X32408428Y-53451428D01*
X32408428Y-53451428D02*
X32789380Y-53356190D01*
X32789380Y-53356190D02*
X33075095Y-53356190D01*
X33075095Y-53356190D02*
X33456047Y-53451428D01*
X33456047Y-53451428D02*
X33646523Y-53546666D01*
X33646523Y-53546666D02*
X33837000Y-53737142D01*
X33837000Y-53737142D02*
X33932238Y-54022857D01*
X33932238Y-54022857D02*
X33932238Y-54499047D01*
X17938809Y-61300809D02*
X18891190Y-61300809D01*
X17748333Y-61872238D02*
X18414999Y-59872238D01*
X18414999Y-59872238D02*
X19081666Y-61872238D01*
D10*
X90884524Y-108674819D02*
X91217857Y-109674819D01*
X91217857Y-109674819D02*
X91551190Y-108674819D01*
X92313095Y-109627200D02*
X92217857Y-109674819D01*
X92217857Y-109674819D02*
X92027381Y-109674819D01*
X92027381Y-109674819D02*
X91932143Y-109627200D01*
X91932143Y-109627200D02*
X91884524Y-109579580D01*
X91884524Y-109579580D02*
X91836905Y-109484342D01*
X91836905Y-109484342D02*
X91836905Y-109198628D01*
X91836905Y-109198628D02*
X91884524Y-109103390D01*
X91884524Y-109103390D02*
X91932143Y-109055771D01*
X91932143Y-109055771D02*
X92027381Y-109008152D01*
X92027381Y-109008152D02*
X92217857Y-109008152D01*
X92217857Y-109008152D02*
X92313095Y-109055771D01*
X93170238Y-109627200D02*
X93075000Y-109674819D01*
X93075000Y-109674819D02*
X92884524Y-109674819D01*
X92884524Y-109674819D02*
X92789286Y-109627200D01*
X92789286Y-109627200D02*
X92741667Y-109579580D01*
X92741667Y-109579580D02*
X92694048Y-109484342D01*
X92694048Y-109484342D02*
X92694048Y-109198628D01*
X92694048Y-109198628D02*
X92741667Y-109103390D01*
X92741667Y-109103390D02*
X92789286Y-109055771D01*
X92789286Y-109055771D02*
X92884524Y-109008152D01*
X92884524Y-109008152D02*
X93075000Y-109008152D01*
X93075000Y-109008152D02*
X93170238Y-109055771D01*
D11*
X101972714Y-90106190D02*
X101877476Y-90010952D01*
X101877476Y-90010952D02*
X101782238Y-89820476D01*
X101782238Y-89820476D02*
X101782238Y-89344285D01*
X101782238Y-89344285D02*
X101877476Y-89153809D01*
X101877476Y-89153809D02*
X101972714Y-89058571D01*
X101972714Y-89058571D02*
X102163190Y-88963333D01*
X102163190Y-88963333D02*
X102353666Y-88963333D01*
X102353666Y-88963333D02*
X102639380Y-89058571D01*
X102639380Y-89058571D02*
X103782238Y-90201428D01*
X103782238Y-90201428D02*
X103782238Y-88963333D01*
X102448904Y-87249047D02*
X103782238Y-87249047D01*
X101687000Y-87725238D02*
X103115571Y-88201428D01*
X103115571Y-88201428D02*
X103115571Y-86963333D01*
X101782238Y-85249047D02*
X101782238Y-86201428D01*
X101782238Y-86201428D02*
X102734619Y-86296666D01*
X102734619Y-86296666D02*
X102639380Y-86201428D01*
X102639380Y-86201428D02*
X102544142Y-86010952D01*
X102544142Y-86010952D02*
X102544142Y-85534761D01*
X102544142Y-85534761D02*
X102639380Y-85344285D01*
X102639380Y-85344285D02*
X102734619Y-85249047D01*
X102734619Y-85249047D02*
X102925095Y-85153809D01*
X102925095Y-85153809D02*
X103401285Y-85153809D01*
X103401285Y-85153809D02*
X103591761Y-85249047D01*
X103591761Y-85249047D02*
X103687000Y-85344285D01*
X103687000Y-85344285D02*
X103782238Y-85534761D01*
X103782238Y-85534761D02*
X103782238Y-86010952D01*
X103782238Y-86010952D02*
X103687000Y-86201428D01*
X103687000Y-86201428D02*
X103591761Y-86296666D01*
D12*
X53751653Y-108155828D02*
X54751653Y-108155828D01*
X54751653Y-108155828D02*
X54108796Y-109655828D01*
X55965939Y-108655828D02*
X55965939Y-109655828D01*
X55608796Y-108084400D02*
X55251653Y-109155828D01*
X55251653Y-109155828D02*
X56180224Y-109155828D01*
X56751652Y-109655828D02*
X56751652Y-108155828D01*
X56751652Y-108870114D02*
X57608795Y-108870114D01*
X57608795Y-109655828D02*
X57608795Y-108155828D01*
X59180224Y-109512971D02*
X59108796Y-109584400D01*
X59108796Y-109584400D02*
X58894510Y-109655828D01*
X58894510Y-109655828D02*
X58751653Y-109655828D01*
X58751653Y-109655828D02*
X58537367Y-109584400D01*
X58537367Y-109584400D02*
X58394510Y-109441542D01*
X58394510Y-109441542D02*
X58323081Y-109298685D01*
X58323081Y-109298685D02*
X58251653Y-109012971D01*
X58251653Y-109012971D02*
X58251653Y-108798685D01*
X58251653Y-108798685D02*
X58323081Y-108512971D01*
X58323081Y-108512971D02*
X58394510Y-108370114D01*
X58394510Y-108370114D02*
X58537367Y-108227257D01*
X58537367Y-108227257D02*
X58751653Y-108155828D01*
X58751653Y-108155828D02*
X58894510Y-108155828D01*
X58894510Y-108155828D02*
X59108796Y-108227257D01*
X59108796Y-108227257D02*
X59180224Y-108298685D01*
X59823081Y-109655828D02*
X59823081Y-108155828D01*
X59823081Y-108155828D02*
X60394510Y-108155828D01*
X60394510Y-108155828D02*
X60537367Y-108227257D01*
X60537367Y-108227257D02*
X60608796Y-108298685D01*
X60608796Y-108298685D02*
X60680224Y-108441542D01*
X60680224Y-108441542D02*
X60680224Y-108655828D01*
X60680224Y-108655828D02*
X60608796Y-108798685D01*
X60608796Y-108798685D02*
X60537367Y-108870114D01*
X60537367Y-108870114D02*
X60394510Y-108941542D01*
X60394510Y-108941542D02*
X59823081Y-108941542D01*
X61323081Y-108155828D02*
X61323081Y-109370114D01*
X61323081Y-109370114D02*
X61394510Y-109512971D01*
X61394510Y-109512971D02*
X61465939Y-109584400D01*
X61465939Y-109584400D02*
X61608796Y-109655828D01*
X61608796Y-109655828D02*
X61894510Y-109655828D01*
X61894510Y-109655828D02*
X62037367Y-109584400D01*
X62037367Y-109584400D02*
X62108796Y-109512971D01*
X62108796Y-109512971D02*
X62180224Y-109370114D01*
X62180224Y-109370114D02*
X62180224Y-108155828D01*
D13*
X48785000Y-106142057D02*
X48785000Y-103142057D01*
X48785000Y-103142057D02*
X49785000Y-105284914D01*
X49785000Y-105284914D02*
X50785000Y-103142057D01*
X50785000Y-103142057D02*
X50785000Y-106142057D01*
X52213571Y-103142057D02*
X52213571Y-105570628D01*
X52213571Y-105570628D02*
X52356428Y-105856342D01*
X52356428Y-105856342D02*
X52499286Y-105999200D01*
X52499286Y-105999200D02*
X52785000Y-106142057D01*
X52785000Y-106142057D02*
X53356428Y-106142057D01*
X53356428Y-106142057D02*
X53642143Y-105999200D01*
X53642143Y-105999200D02*
X53785000Y-105856342D01*
X53785000Y-105856342D02*
X53927857Y-105570628D01*
X53927857Y-105570628D02*
X53927857Y-103142057D01*
X56785000Y-106142057D02*
X55356428Y-106142057D01*
X55356428Y-106142057D02*
X55356428Y-103142057D01*
X60499285Y-104427771D02*
X60213570Y-104284914D01*
X60213570Y-104284914D02*
X60070713Y-104142057D01*
X60070713Y-104142057D02*
X59927856Y-103856342D01*
X59927856Y-103856342D02*
X59927856Y-103713485D01*
X59927856Y-103713485D02*
X60070713Y-103427771D01*
X60070713Y-103427771D02*
X60213570Y-103284914D01*
X60213570Y-103284914D02*
X60499285Y-103142057D01*
X60499285Y-103142057D02*
X61070713Y-103142057D01*
X61070713Y-103142057D02*
X61356428Y-103284914D01*
X61356428Y-103284914D02*
X61499285Y-103427771D01*
X61499285Y-103427771D02*
X61642142Y-103713485D01*
X61642142Y-103713485D02*
X61642142Y-103856342D01*
X61642142Y-103856342D02*
X61499285Y-104142057D01*
X61499285Y-104142057D02*
X61356428Y-104284914D01*
X61356428Y-104284914D02*
X61070713Y-104427771D01*
X61070713Y-104427771D02*
X60499285Y-104427771D01*
X60499285Y-104427771D02*
X60213570Y-104570628D01*
X60213570Y-104570628D02*
X60070713Y-104713485D01*
X60070713Y-104713485D02*
X59927856Y-104999200D01*
X59927856Y-104999200D02*
X59927856Y-105570628D01*
X59927856Y-105570628D02*
X60070713Y-105856342D01*
X60070713Y-105856342D02*
X60213570Y-105999200D01*
X60213570Y-105999200D02*
X60499285Y-106142057D01*
X60499285Y-106142057D02*
X61070713Y-106142057D01*
X61070713Y-106142057D02*
X61356428Y-105999200D01*
X61356428Y-105999200D02*
X61499285Y-105856342D01*
X61499285Y-105856342D02*
X61642142Y-105570628D01*
X61642142Y-105570628D02*
X61642142Y-104999200D01*
X61642142Y-104999200D02*
X61499285Y-104713485D01*
X61499285Y-104713485D02*
X61356428Y-104570628D01*
X61356428Y-104570628D02*
X61070713Y-104427771D01*
X62642142Y-106142057D02*
X64213571Y-104142057D01*
X62642142Y-104142057D02*
X64213571Y-106142057D01*
X65784999Y-104427771D02*
X65499284Y-104284914D01*
X65499284Y-104284914D02*
X65356427Y-104142057D01*
X65356427Y-104142057D02*
X65213570Y-103856342D01*
X65213570Y-103856342D02*
X65213570Y-103713485D01*
X65213570Y-103713485D02*
X65356427Y-103427771D01*
X65356427Y-103427771D02*
X65499284Y-103284914D01*
X65499284Y-103284914D02*
X65784999Y-103142057D01*
X65784999Y-103142057D02*
X66356427Y-103142057D01*
X66356427Y-103142057D02*
X66642142Y-103284914D01*
X66642142Y-103284914D02*
X66784999Y-103427771D01*
X66784999Y-103427771D02*
X66927856Y-103713485D01*
X66927856Y-103713485D02*
X66927856Y-103856342D01*
X66927856Y-103856342D02*
X66784999Y-104142057D01*
X66784999Y-104142057D02*
X66642142Y-104284914D01*
X66642142Y-104284914D02*
X66356427Y-104427771D01*
X66356427Y-104427771D02*
X65784999Y-104427771D01*
X65784999Y-104427771D02*
X65499284Y-104570628D01*
X65499284Y-104570628D02*
X65356427Y-104713485D01*
X65356427Y-104713485D02*
X65213570Y-104999200D01*
X65213570Y-104999200D02*
X65213570Y-105570628D01*
X65213570Y-105570628D02*
X65356427Y-105856342D01*
X65356427Y-105856342D02*
X65499284Y-105999200D01*
X65499284Y-105999200D02*
X65784999Y-106142057D01*
X65784999Y-106142057D02*
X66356427Y-106142057D01*
X66356427Y-106142057D02*
X66642142Y-105999200D01*
X66642142Y-105999200D02*
X66784999Y-105856342D01*
X66784999Y-105856342D02*
X66927856Y-105570628D01*
X66927856Y-105570628D02*
X66927856Y-104999200D01*
X66927856Y-104999200D02*
X66784999Y-104713485D01*
X66784999Y-104713485D02*
X66642142Y-104570628D01*
X66642142Y-104570628D02*
X66356427Y-104427771D01*
D10*
X70802857Y-104864819D02*
X71469523Y-104864819D01*
X71469523Y-104864819D02*
X71040952Y-105864819D01*
X72279047Y-105198152D02*
X72279047Y-105864819D01*
X72040952Y-104817200D02*
X71802857Y-105531485D01*
X71802857Y-105531485D02*
X72421904Y-105531485D01*
X72802857Y-105864819D02*
X72802857Y-104864819D01*
X72802857Y-105341009D02*
X73374285Y-105341009D01*
X73374285Y-105864819D02*
X73374285Y-104864819D01*
X74421904Y-105769580D02*
X74374285Y-105817200D01*
X74374285Y-105817200D02*
X74231428Y-105864819D01*
X74231428Y-105864819D02*
X74136190Y-105864819D01*
X74136190Y-105864819D02*
X73993333Y-105817200D01*
X73993333Y-105817200D02*
X73898095Y-105721961D01*
X73898095Y-105721961D02*
X73850476Y-105626723D01*
X73850476Y-105626723D02*
X73802857Y-105436247D01*
X73802857Y-105436247D02*
X73802857Y-105293390D01*
X73802857Y-105293390D02*
X73850476Y-105102914D01*
X73850476Y-105102914D02*
X73898095Y-105007676D01*
X73898095Y-105007676D02*
X73993333Y-104912438D01*
X73993333Y-104912438D02*
X74136190Y-104864819D01*
X74136190Y-104864819D02*
X74231428Y-104864819D01*
X74231428Y-104864819D02*
X74374285Y-104912438D01*
X74374285Y-104912438D02*
X74421904Y-104960057D01*
X74850476Y-105864819D02*
X74850476Y-104864819D01*
X74850476Y-104864819D02*
X75231428Y-104864819D01*
X75231428Y-104864819D02*
X75326666Y-104912438D01*
X75326666Y-104912438D02*
X75374285Y-104960057D01*
X75374285Y-104960057D02*
X75421904Y-105055295D01*
X75421904Y-105055295D02*
X75421904Y-105198152D01*
X75421904Y-105198152D02*
X75374285Y-105293390D01*
X75374285Y-105293390D02*
X75326666Y-105341009D01*
X75326666Y-105341009D02*
X75231428Y-105388628D01*
X75231428Y-105388628D02*
X74850476Y-105388628D01*
X75850476Y-104864819D02*
X75850476Y-105674342D01*
X75850476Y-105674342D02*
X75898095Y-105769580D01*
X75898095Y-105769580D02*
X75945714Y-105817200D01*
X75945714Y-105817200D02*
X76040952Y-105864819D01*
X76040952Y-105864819D02*
X76231428Y-105864819D01*
X76231428Y-105864819D02*
X76326666Y-105817200D01*
X76326666Y-105817200D02*
X76374285Y-105769580D01*
X76374285Y-105769580D02*
X76421904Y-105674342D01*
X76421904Y-105674342D02*
X76421904Y-104864819D01*
X76827142Y-108722438D02*
X76731904Y-108674819D01*
X76731904Y-108674819D02*
X76589047Y-108674819D01*
X76589047Y-108674819D02*
X76446190Y-108722438D01*
X76446190Y-108722438D02*
X76350952Y-108817676D01*
X76350952Y-108817676D02*
X76303333Y-108912914D01*
X76303333Y-108912914D02*
X76255714Y-109103390D01*
X76255714Y-109103390D02*
X76255714Y-109246247D01*
X76255714Y-109246247D02*
X76303333Y-109436723D01*
X76303333Y-109436723D02*
X76350952Y-109531961D01*
X76350952Y-109531961D02*
X76446190Y-109627200D01*
X76446190Y-109627200D02*
X76589047Y-109674819D01*
X76589047Y-109674819D02*
X76684285Y-109674819D01*
X76684285Y-109674819D02*
X76827142Y-109627200D01*
X76827142Y-109627200D02*
X76874761Y-109579580D01*
X76874761Y-109579580D02*
X76874761Y-109246247D01*
X76874761Y-109246247D02*
X76684285Y-109246247D01*
X77303333Y-109008152D02*
X77303333Y-109674819D01*
X77303333Y-109103390D02*
X77350952Y-109055771D01*
X77350952Y-109055771D02*
X77446190Y-109008152D01*
X77446190Y-109008152D02*
X77589047Y-109008152D01*
X77589047Y-109008152D02*
X77684285Y-109055771D01*
X77684285Y-109055771D02*
X77731904Y-109151009D01*
X77731904Y-109151009D02*
X77731904Y-109674819D01*
X78636666Y-109674819D02*
X78636666Y-108674819D01*
X78636666Y-109627200D02*
X78541428Y-109674819D01*
X78541428Y-109674819D02*
X78350952Y-109674819D01*
X78350952Y-109674819D02*
X78255714Y-109627200D01*
X78255714Y-109627200D02*
X78208095Y-109579580D01*
X78208095Y-109579580D02*
X78160476Y-109484342D01*
X78160476Y-109484342D02*
X78160476Y-109198628D01*
X78160476Y-109198628D02*
X78208095Y-109103390D01*
X78208095Y-109103390D02*
X78255714Y-109055771D01*
X78255714Y-109055771D02*
X78350952Y-109008152D01*
X78350952Y-109008152D02*
X78541428Y-109008152D01*
X78541428Y-109008152D02*
X78636666Y-109055771D01*
X42418095Y-14059819D02*
X42418095Y-14869342D01*
X42418095Y-14869342D02*
X42465714Y-14964580D01*
X42465714Y-14964580D02*
X42513333Y-15012200D01*
X42513333Y-15012200D02*
X42608571Y-15059819D01*
X42608571Y-15059819D02*
X42799047Y-15059819D01*
X42799047Y-15059819D02*
X42894285Y-15012200D01*
X42894285Y-15012200D02*
X42941904Y-14964580D01*
X42941904Y-14964580D02*
X42989523Y-14869342D01*
X42989523Y-14869342D02*
X42989523Y-14059819D01*
X43989523Y-15059819D02*
X43418095Y-15059819D01*
X43703809Y-15059819D02*
X43703809Y-14059819D01*
X43703809Y-14059819D02*
X43608571Y-14202676D01*
X43608571Y-14202676D02*
X43513333Y-14297914D01*
X43513333Y-14297914D02*
X43418095Y-14345533D01*
X50673095Y-14059819D02*
X50673095Y-14869342D01*
X50673095Y-14869342D02*
X50720714Y-14964580D01*
X50720714Y-14964580D02*
X50768333Y-15012200D01*
X50768333Y-15012200D02*
X50863571Y-15059819D01*
X50863571Y-15059819D02*
X51054047Y-15059819D01*
X51054047Y-15059819D02*
X51149285Y-15012200D01*
X51149285Y-15012200D02*
X51196904Y-14964580D01*
X51196904Y-14964580D02*
X51244523Y-14869342D01*
X51244523Y-14869342D02*
X51244523Y-14059819D01*
X51673095Y-14155057D02*
X51720714Y-14107438D01*
X51720714Y-14107438D02*
X51815952Y-14059819D01*
X51815952Y-14059819D02*
X52054047Y-14059819D01*
X52054047Y-14059819D02*
X52149285Y-14107438D01*
X52149285Y-14107438D02*
X52196904Y-14155057D01*
X52196904Y-14155057D02*
X52244523Y-14250295D01*
X52244523Y-14250295D02*
X52244523Y-14345533D01*
X52244523Y-14345533D02*
X52196904Y-14488390D01*
X52196904Y-14488390D02*
X51625476Y-15059819D01*
X51625476Y-15059819D02*
X52244523Y-15059819D01*
X58928095Y-14059819D02*
X58928095Y-14869342D01*
X58928095Y-14869342D02*
X58975714Y-14964580D01*
X58975714Y-14964580D02*
X59023333Y-15012200D01*
X59023333Y-15012200D02*
X59118571Y-15059819D01*
X59118571Y-15059819D02*
X59309047Y-15059819D01*
X59309047Y-15059819D02*
X59404285Y-15012200D01*
X59404285Y-15012200D02*
X59451904Y-14964580D01*
X59451904Y-14964580D02*
X59499523Y-14869342D01*
X59499523Y-14869342D02*
X59499523Y-14059819D01*
X59880476Y-14059819D02*
X60499523Y-14059819D01*
X60499523Y-14059819D02*
X60166190Y-14440771D01*
X60166190Y-14440771D02*
X60309047Y-14440771D01*
X60309047Y-14440771D02*
X60404285Y-14488390D01*
X60404285Y-14488390D02*
X60451904Y-14536009D01*
X60451904Y-14536009D02*
X60499523Y-14631247D01*
X60499523Y-14631247D02*
X60499523Y-14869342D01*
X60499523Y-14869342D02*
X60451904Y-14964580D01*
X60451904Y-14964580D02*
X60404285Y-15012200D01*
X60404285Y-15012200D02*
X60309047Y-15059819D01*
X60309047Y-15059819D02*
X60023333Y-15059819D01*
X60023333Y-15059819D02*
X59928095Y-15012200D01*
X59928095Y-15012200D02*
X59880476Y-14964580D01*
X67183095Y-14059819D02*
X67183095Y-14869342D01*
X67183095Y-14869342D02*
X67230714Y-14964580D01*
X67230714Y-14964580D02*
X67278333Y-15012200D01*
X67278333Y-15012200D02*
X67373571Y-15059819D01*
X67373571Y-15059819D02*
X67564047Y-15059819D01*
X67564047Y-15059819D02*
X67659285Y-15012200D01*
X67659285Y-15012200D02*
X67706904Y-14964580D01*
X67706904Y-14964580D02*
X67754523Y-14869342D01*
X67754523Y-14869342D02*
X67754523Y-14059819D01*
X68659285Y-14393152D02*
X68659285Y-15059819D01*
X68421190Y-14012200D02*
X68183095Y-14726485D01*
X68183095Y-14726485D02*
X68802142Y-14726485D01*
X91948095Y-14059819D02*
X91948095Y-14869342D01*
X91948095Y-14869342D02*
X91995714Y-14964580D01*
X91995714Y-14964580D02*
X92043333Y-15012200D01*
X92043333Y-15012200D02*
X92138571Y-15059819D01*
X92138571Y-15059819D02*
X92329047Y-15059819D01*
X92329047Y-15059819D02*
X92424285Y-15012200D01*
X92424285Y-15012200D02*
X92471904Y-14964580D01*
X92471904Y-14964580D02*
X92519523Y-14869342D01*
X92519523Y-14869342D02*
X92519523Y-14059819D01*
X92900476Y-14059819D02*
X93567142Y-14059819D01*
X93567142Y-14059819D02*
X93138571Y-15059819D01*
X22098095Y-73324819D02*
X22098095Y-74134342D01*
X22098095Y-74134342D02*
X22145714Y-74229580D01*
X22145714Y-74229580D02*
X22193333Y-74277200D01*
X22193333Y-74277200D02*
X22288571Y-74324819D01*
X22288571Y-74324819D02*
X22479047Y-74324819D01*
X22479047Y-74324819D02*
X22574285Y-74277200D01*
X22574285Y-74277200D02*
X22621904Y-74229580D01*
X22621904Y-74229580D02*
X22669523Y-74134342D01*
X22669523Y-74134342D02*
X22669523Y-73324819D01*
X23193333Y-74324819D02*
X23383809Y-74324819D01*
X23383809Y-74324819D02*
X23479047Y-74277200D01*
X23479047Y-74277200D02*
X23526666Y-74229580D01*
X23526666Y-74229580D02*
X23621904Y-74086723D01*
X23621904Y-74086723D02*
X23669523Y-73896247D01*
X23669523Y-73896247D02*
X23669523Y-73515295D01*
X23669523Y-73515295D02*
X23621904Y-73420057D01*
X23621904Y-73420057D02*
X23574285Y-73372438D01*
X23574285Y-73372438D02*
X23479047Y-73324819D01*
X23479047Y-73324819D02*
X23288571Y-73324819D01*
X23288571Y-73324819D02*
X23193333Y-73372438D01*
X23193333Y-73372438D02*
X23145714Y-73420057D01*
X23145714Y-73420057D02*
X23098095Y-73515295D01*
X23098095Y-73515295D02*
X23098095Y-73753390D01*
X23098095Y-73753390D02*
X23145714Y-73848628D01*
X23145714Y-73848628D02*
X23193333Y-73896247D01*
X23193333Y-73896247D02*
X23288571Y-73943866D01*
X23288571Y-73943866D02*
X23479047Y-73943866D01*
X23479047Y-73943866D02*
X23574285Y-73896247D01*
X23574285Y-73896247D02*
X23621904Y-73848628D01*
X23621904Y-73848628D02*
X23669523Y-73753390D01*
X101631905Y-66974819D02*
X101631905Y-67784342D01*
X101631905Y-67784342D02*
X101679524Y-67879580D01*
X101679524Y-67879580D02*
X101727143Y-67927200D01*
X101727143Y-67927200D02*
X101822381Y-67974819D01*
X101822381Y-67974819D02*
X102012857Y-67974819D01*
X102012857Y-67974819D02*
X102108095Y-67927200D01*
X102108095Y-67927200D02*
X102155714Y-67879580D01*
X102155714Y-67879580D02*
X102203333Y-67784342D01*
X102203333Y-67784342D02*
X102203333Y-66974819D01*
X103203333Y-67974819D02*
X102631905Y-67974819D01*
X102917619Y-67974819D02*
X102917619Y-66974819D01*
X102917619Y-66974819D02*
X102822381Y-67117676D01*
X102822381Y-67117676D02*
X102727143Y-67212914D01*
X102727143Y-67212914D02*
X102631905Y-67260533D01*
X103822381Y-66974819D02*
X103917619Y-66974819D01*
X103917619Y-66974819D02*
X104012857Y-67022438D01*
X104012857Y-67022438D02*
X104060476Y-67070057D01*
X104060476Y-67070057D02*
X104108095Y-67165295D01*
X104108095Y-67165295D02*
X104155714Y-67355771D01*
X104155714Y-67355771D02*
X104155714Y-67593866D01*
X104155714Y-67593866D02*
X104108095Y-67784342D01*
X104108095Y-67784342D02*
X104060476Y-67879580D01*
X104060476Y-67879580D02*
X104012857Y-67927200D01*
X104012857Y-67927200D02*
X103917619Y-67974819D01*
X103917619Y-67974819D02*
X103822381Y-67974819D01*
X103822381Y-67974819D02*
X103727143Y-67927200D01*
X103727143Y-67927200D02*
X103679524Y-67879580D01*
X103679524Y-67879580D02*
X103631905Y-67784342D01*
X103631905Y-67784342D02*
X103584286Y-67593866D01*
X103584286Y-67593866D02*
X103584286Y-67355771D01*
X103584286Y-67355771D02*
X103631905Y-67165295D01*
X103631905Y-67165295D02*
X103679524Y-67070057D01*
X103679524Y-67070057D02*
X103727143Y-67022438D01*
X103727143Y-67022438D02*
X103822381Y-66974819D01*
X83693095Y-14059819D02*
X83693095Y-14869342D01*
X83693095Y-14869342D02*
X83740714Y-14964580D01*
X83740714Y-14964580D02*
X83788333Y-15012200D01*
X83788333Y-15012200D02*
X83883571Y-15059819D01*
X83883571Y-15059819D02*
X84074047Y-15059819D01*
X84074047Y-15059819D02*
X84169285Y-15012200D01*
X84169285Y-15012200D02*
X84216904Y-14964580D01*
X84216904Y-14964580D02*
X84264523Y-14869342D01*
X84264523Y-14869342D02*
X84264523Y-14059819D01*
X85169285Y-14059819D02*
X84978809Y-14059819D01*
X84978809Y-14059819D02*
X84883571Y-14107438D01*
X84883571Y-14107438D02*
X84835952Y-14155057D01*
X84835952Y-14155057D02*
X84740714Y-14297914D01*
X84740714Y-14297914D02*
X84693095Y-14488390D01*
X84693095Y-14488390D02*
X84693095Y-14869342D01*
X84693095Y-14869342D02*
X84740714Y-14964580D01*
X84740714Y-14964580D02*
X84788333Y-15012200D01*
X84788333Y-15012200D02*
X84883571Y-15059819D01*
X84883571Y-15059819D02*
X85074047Y-15059819D01*
X85074047Y-15059819D02*
X85169285Y-15012200D01*
X85169285Y-15012200D02*
X85216904Y-14964580D01*
X85216904Y-14964580D02*
X85264523Y-14869342D01*
X85264523Y-14869342D02*
X85264523Y-14631247D01*
X85264523Y-14631247D02*
X85216904Y-14536009D01*
X85216904Y-14536009D02*
X85169285Y-14488390D01*
X85169285Y-14488390D02*
X85074047Y-14440771D01*
X85074047Y-14440771D02*
X84883571Y-14440771D01*
X84883571Y-14440771D02*
X84788333Y-14488390D01*
X84788333Y-14488390D02*
X84740714Y-14536009D01*
X84740714Y-14536009D02*
X84693095Y-14631247D01*
X75438095Y-14059819D02*
X75438095Y-14869342D01*
X75438095Y-14869342D02*
X75485714Y-14964580D01*
X75485714Y-14964580D02*
X75533333Y-15012200D01*
X75533333Y-15012200D02*
X75628571Y-15059819D01*
X75628571Y-15059819D02*
X75819047Y-15059819D01*
X75819047Y-15059819D02*
X75914285Y-15012200D01*
X75914285Y-15012200D02*
X75961904Y-14964580D01*
X75961904Y-14964580D02*
X76009523Y-14869342D01*
X76009523Y-14869342D02*
X76009523Y-14059819D01*
X76961904Y-14059819D02*
X76485714Y-14059819D01*
X76485714Y-14059819D02*
X76438095Y-14536009D01*
X76438095Y-14536009D02*
X76485714Y-14488390D01*
X76485714Y-14488390D02*
X76580952Y-14440771D01*
X76580952Y-14440771D02*
X76819047Y-14440771D01*
X76819047Y-14440771D02*
X76914285Y-14488390D01*
X76914285Y-14488390D02*
X76961904Y-14536009D01*
X76961904Y-14536009D02*
X77009523Y-14631247D01*
X77009523Y-14631247D02*
X77009523Y-14869342D01*
X77009523Y-14869342D02*
X76961904Y-14964580D01*
X76961904Y-14964580D02*
X76914285Y-15012200D01*
X76914285Y-15012200D02*
X76819047Y-15059819D01*
X76819047Y-15059819D02*
X76580952Y-15059819D01*
X76580952Y-15059819D02*
X76485714Y-15012200D01*
X76485714Y-15012200D02*
X76438095Y-14964580D01*
X33686905Y-19139819D02*
X33686905Y-19949342D01*
X33686905Y-19949342D02*
X33734524Y-20044580D01*
X33734524Y-20044580D02*
X33782143Y-20092200D01*
X33782143Y-20092200D02*
X33877381Y-20139819D01*
X33877381Y-20139819D02*
X34067857Y-20139819D01*
X34067857Y-20139819D02*
X34163095Y-20092200D01*
X34163095Y-20092200D02*
X34210714Y-20044580D01*
X34210714Y-20044580D02*
X34258333Y-19949342D01*
X34258333Y-19949342D02*
X34258333Y-19139819D01*
X35258333Y-20139819D02*
X34686905Y-20139819D01*
X34972619Y-20139819D02*
X34972619Y-19139819D01*
X34972619Y-19139819D02*
X34877381Y-19282676D01*
X34877381Y-19282676D02*
X34782143Y-19377914D01*
X34782143Y-19377914D02*
X34686905Y-19425533D01*
X36210714Y-20139819D02*
X35639286Y-20139819D01*
X35925000Y-20139819D02*
X35925000Y-19139819D01*
X35925000Y-19139819D02*
X35829762Y-19282676D01*
X35829762Y-19282676D02*
X35734524Y-19377914D01*
X35734524Y-19377914D02*
X35639286Y-19425533D01*
%TO.C,U1*%
X39370000Y-16510000D02*
X46990000Y-16510000D01*
X39370000Y-100330000D02*
X39370000Y-16510000D01*
X46990000Y-16510000D02*
X46990000Y-100330000D01*
X46990000Y-100330000D02*
X39370000Y-100330000D01*
%TO.C,U2*%
X47625000Y-16510000D02*
X55245000Y-16510000D01*
X47625000Y-100330000D02*
X47625000Y-16510000D01*
X55245000Y-16510000D02*
X55245000Y-100330000D01*
X55245000Y-100330000D02*
X47625000Y-100330000D01*
%TO.C,U3*%
X55880000Y-16510000D02*
X63500000Y-16510000D01*
X55880000Y-100330000D02*
X55880000Y-16510000D01*
X63500000Y-16510000D02*
X63500000Y-100330000D01*
X63500000Y-100330000D02*
X55880000Y-100330000D01*
%TO.C,U4*%
X64135000Y-16510000D02*
X71755000Y-16510000D01*
X64135000Y-100330000D02*
X64135000Y-16510000D01*
X71755000Y-16510000D02*
X71755000Y-100330000D01*
X71755000Y-100330000D02*
X64135000Y-100330000D01*
%TO.C,U7*%
X88900000Y-16510000D02*
X96520000Y-16510000D01*
X88900000Y-100330000D02*
X88900000Y-16510000D01*
X96520000Y-16510000D02*
X96520000Y-100330000D01*
X96520000Y-100330000D02*
X88900000Y-100330000D01*
D14*
%TO.C,J1*%
X13910000Y-49470000D02*
X15240000Y-49470000D01*
X13910000Y-50800000D02*
X13910000Y-49470000D01*
X13910000Y-52070000D02*
X13910000Y-72450000D01*
X13910000Y-52070000D02*
X16570000Y-52070000D01*
X13910000Y-72450000D02*
X16570000Y-72450000D01*
X16570000Y-52070000D02*
X16570000Y-72450000D01*
%TO.C,J2*%
X13910000Y-24070000D02*
X15240000Y-24070000D01*
X13910000Y-25400000D02*
X13910000Y-24070000D01*
X13910000Y-26670000D02*
X13910000Y-47050000D01*
X13910000Y-26670000D02*
X16570000Y-26670000D01*
X13910000Y-47050000D02*
X16570000Y-47050000D01*
X16570000Y-26670000D02*
X16570000Y-47050000D01*
%TO.C,J3*%
X13910000Y-74870000D02*
X15240000Y-74870000D01*
X13910000Y-76200000D02*
X13910000Y-74870000D01*
X13910000Y-77470000D02*
X13910000Y-97850000D01*
X13910000Y-77470000D02*
X16570000Y-77470000D01*
X13910000Y-97850000D02*
X16570000Y-97850000D01*
X16570000Y-77470000D02*
X16570000Y-97850000D01*
%TO.C,J4*%
X108525000Y-71060000D02*
X109855000Y-71060000D01*
X108525000Y-72390000D02*
X108525000Y-71060000D01*
X108525000Y-73660000D02*
X108525000Y-94040000D01*
X108525000Y-73660000D02*
X111185000Y-73660000D01*
X108525000Y-94040000D02*
X111185000Y-94040000D01*
X111185000Y-73660000D02*
X111185000Y-94040000D01*
%TO.C,J5*%
X27880000Y-106620000D02*
X29210000Y-106620000D01*
X27880000Y-107950000D02*
X27880000Y-106620000D01*
X27880000Y-109220000D02*
X27880000Y-109280000D01*
X27880000Y-109220000D02*
X30540000Y-109220000D01*
X27880000Y-109280000D02*
X30540000Y-109280000D01*
X30540000Y-109220000D02*
X30540000Y-109280000D01*
%TO.C,J6*%
X79750000Y-110840000D02*
X79750000Y-111580000D01*
X79750000Y-111580000D02*
X80250000Y-111580000D01*
X79990000Y-101419000D02*
X79990000Y-111340000D01*
X79990000Y-101419000D02*
X90110000Y-101419000D01*
X79990000Y-104379000D02*
X90110000Y-104379000D01*
X79990000Y-109280000D02*
X90110000Y-109280000D01*
X79990000Y-110780000D02*
X90110000Y-110780000D01*
X79990000Y-111340000D02*
X90110000Y-111340000D01*
X86323000Y-107703000D02*
X86276000Y-107749000D01*
X86516000Y-107919000D02*
X86481000Y-107954000D01*
X88620000Y-105405000D02*
X88585000Y-105441000D01*
X88825000Y-105611000D02*
X88778000Y-105657000D01*
X90110000Y-101419000D02*
X90110000Y-111340000D01*
X81014573Y-107363042D02*
G75*
G02*
X81015000Y-105996000I1535420J683041D01*
G01*
X81866958Y-105144573D02*
G75*
G02*
X83234000Y-105145000I683041J-1535420D01*
G01*
X82578805Y-108360253D02*
G75*
G02*
X81866000Y-108215000I-28806J1680254D01*
G01*
X83233318Y-108214756D02*
G75*
G02*
X82550000Y-108360000I-683318J1534756D01*
G01*
X84085427Y-105996958D02*
G75*
G02*
X84085000Y-107364000I-1535427J-683042D01*
G01*
X89230000Y-106680000D02*
G75*
G02*
X85870000Y-106680000I-1680000J0D01*
G01*
X85870000Y-106680000D02*
G75*
G02*
X89230000Y-106680000I1680000J0D01*
G01*
%TO.C,U9*%
X17720000Y-74810000D02*
X17720000Y-100450000D01*
X17720000Y-100450000D02*
X28000000Y-100450000D01*
X20210000Y-74870000D02*
X20210000Y-100390000D01*
X20210000Y-100390000D02*
X25510000Y-100390000D01*
X21860000Y-74870000D02*
X20210000Y-74870000D01*
X25510000Y-74870000D02*
X23860000Y-74870000D01*
X25510000Y-100390000D02*
X25510000Y-74870000D01*
X28000000Y-74810000D02*
X17720000Y-74810000D01*
X28000000Y-100450000D02*
X28000000Y-74810000D01*
X23860000Y-74870000D02*
G75*
G02*
X21860000Y-74870000I-1000000J0D01*
G01*
%TO.C,U10*%
X97730000Y-68460000D02*
X97730000Y-94100000D01*
X97730000Y-94100000D02*
X108010000Y-94100000D01*
X100220000Y-68520000D02*
X100220000Y-94040000D01*
X100220000Y-94040000D02*
X105520000Y-94040000D01*
X101870000Y-68520000D02*
X100220000Y-68520000D01*
X105520000Y-68520000D02*
X103870000Y-68520000D01*
X105520000Y-94040000D02*
X105520000Y-68520000D01*
X108010000Y-68460000D02*
X97730000Y-68460000D01*
X108010000Y-94100000D02*
X108010000Y-68460000D01*
X103870000Y-68520000D02*
G75*
G02*
X101870000Y-68520000I-1000000J0D01*
G01*
D10*
%TO.C,U6*%
X80645000Y-16510000D02*
X88265000Y-16510000D01*
X80645000Y-100330000D02*
X80645000Y-16510000D01*
X88265000Y-16510000D02*
X88265000Y-100330000D01*
X88265000Y-100330000D02*
X80645000Y-100330000D01*
%TO.C,U5*%
X72390000Y-16510000D02*
X80010000Y-16510000D01*
X72390000Y-100330000D02*
X72390000Y-16510000D01*
X80010000Y-16510000D02*
X80010000Y-100330000D01*
X80010000Y-100330000D02*
X72390000Y-100330000D01*
%TO.C,U11*%
X31115000Y-21590000D02*
X38735000Y-21590000D01*
X31115000Y-102870000D02*
X31115000Y-21590000D01*
X38735000Y-21590000D02*
X38735000Y-102870000D01*
X38735000Y-102870000D02*
X31115000Y-102870000D01*
%TD*%
M02*
