%TF.GenerationSoftware,KiCad,Pcbnew,9.0.6*%
%TF.CreationDate,2026-05-15T22:06:10+03:00*%
%TF.ProjectId,MUL8x8,4d554c38-7838-42e6-9b69-6361645f7063,rev?*%
%TF.SameCoordinates,Original*%
%TF.FileFunction,Legend,Bot*%
%TF.FilePolarity,Positive*%
%FSLAX46Y46*%
G04 Gerber Fmt 4.6, Leading zero omitted, Abs format (unit mm)*
G04 Created by KiCad (PCBNEW 9.0.6) date 2026-05-15 22:06:10*
%MOMM*%
%LPD*%
G01*
G04 APERTURE LIST*
%ADD10C,0.150000*%
%ADD11C,0.120000*%
G04 APERTURE END LIST*
D10*
X90760057Y-104044761D02*
X90712438Y-103949523D01*
X90712438Y-103949523D02*
X90617200Y-103854285D01*
X90617200Y-103854285D02*
X90474342Y-103711428D01*
X90474342Y-103711428D02*
X90426723Y-103616190D01*
X90426723Y-103616190D02*
X90426723Y-103520952D01*
X90664819Y-103568571D02*
X90617200Y-103473333D01*
X90617200Y-103473333D02*
X90521961Y-103378095D01*
X90521961Y-103378095D02*
X90331485Y-103330476D01*
X90331485Y-103330476D02*
X89998152Y-103330476D01*
X89998152Y-103330476D02*
X89807676Y-103378095D01*
X89807676Y-103378095D02*
X89712438Y-103473333D01*
X89712438Y-103473333D02*
X89664819Y-103568571D01*
X89664819Y-103568571D02*
X89664819Y-103759047D01*
X89664819Y-103759047D02*
X89712438Y-103854285D01*
X89712438Y-103854285D02*
X89807676Y-103949523D01*
X89807676Y-103949523D02*
X89998152Y-103997142D01*
X89998152Y-103997142D02*
X90331485Y-103997142D01*
X90331485Y-103997142D02*
X90521961Y-103949523D01*
X90521961Y-103949523D02*
X90617200Y-103854285D01*
X90617200Y-103854285D02*
X90664819Y-103759047D01*
X90664819Y-103759047D02*
X90664819Y-103568571D01*
X90664819Y-104949523D02*
X90664819Y-104378095D01*
X90664819Y-104663809D02*
X89664819Y-104663809D01*
X89664819Y-104663809D02*
X89807676Y-104568571D01*
X89807676Y-104568571D02*
X89902914Y-104473333D01*
X89902914Y-104473333D02*
X89950533Y-104378095D01*
X41729819Y-90638333D02*
X41253628Y-90305000D01*
X41729819Y-90066905D02*
X40729819Y-90066905D01*
X40729819Y-90066905D02*
X40729819Y-90447857D01*
X40729819Y-90447857D02*
X40777438Y-90543095D01*
X40777438Y-90543095D02*
X40825057Y-90590714D01*
X40825057Y-90590714D02*
X40920295Y-90638333D01*
X40920295Y-90638333D02*
X41063152Y-90638333D01*
X41063152Y-90638333D02*
X41158390Y-90590714D01*
X41158390Y-90590714D02*
X41206009Y-90543095D01*
X41206009Y-90543095D02*
X41253628Y-90447857D01*
X41253628Y-90447857D02*
X41253628Y-90066905D01*
X41729819Y-91590714D02*
X41729819Y-91019286D01*
X41729819Y-91305000D02*
X40729819Y-91305000D01*
X40729819Y-91305000D02*
X40872676Y-91209762D01*
X40872676Y-91209762D02*
X40967914Y-91114524D01*
X40967914Y-91114524D02*
X41015533Y-91019286D01*
X102401666Y-68399819D02*
X102734999Y-67923628D01*
X102973094Y-68399819D02*
X102973094Y-67399819D01*
X102973094Y-67399819D02*
X102592142Y-67399819D01*
X102592142Y-67399819D02*
X102496904Y-67447438D01*
X102496904Y-67447438D02*
X102449285Y-67495057D01*
X102449285Y-67495057D02*
X102401666Y-67590295D01*
X102401666Y-67590295D02*
X102401666Y-67733152D01*
X102401666Y-67733152D02*
X102449285Y-67828390D01*
X102449285Y-67828390D02*
X102496904Y-67876009D01*
X102496904Y-67876009D02*
X102592142Y-67923628D01*
X102592142Y-67923628D02*
X102973094Y-67923628D01*
X102068332Y-67399819D02*
X101449285Y-67399819D01*
X101449285Y-67399819D02*
X101782618Y-67780771D01*
X101782618Y-67780771D02*
X101639761Y-67780771D01*
X101639761Y-67780771D02*
X101544523Y-67828390D01*
X101544523Y-67828390D02*
X101496904Y-67876009D01*
X101496904Y-67876009D02*
X101449285Y-67971247D01*
X101449285Y-67971247D02*
X101449285Y-68209342D01*
X101449285Y-68209342D02*
X101496904Y-68304580D01*
X101496904Y-68304580D02*
X101544523Y-68352200D01*
X101544523Y-68352200D02*
X101639761Y-68399819D01*
X101639761Y-68399819D02*
X101925475Y-68399819D01*
X101925475Y-68399819D02*
X102020713Y-68352200D01*
X102020713Y-68352200D02*
X102068332Y-68304580D01*
D11*
%TO.C,Q1*%
X91130000Y-104900000D02*
X91130000Y-102740000D01*
X91130000Y-104900000D02*
X92060000Y-104900000D01*
X94290000Y-104900000D02*
X93360000Y-104900000D01*
X94290000Y-104900000D02*
X94290000Y-103440000D01*
%TO.C,R1*%
X40540000Y-94207064D02*
X40540000Y-93752936D01*
X42010000Y-94207064D02*
X42010000Y-93752936D01*
%TO.C,R3*%
X102007936Y-69115000D02*
X102462064Y-69115000D01*
X102007936Y-70585000D02*
X102462064Y-70585000D01*
%TD*%
M02*
