%TF.GenerationSoftware,KiCad,Pcbnew,9.0.6*%
%TF.CreationDate,2026-05-15T22:06:10+03:00*%
%TF.ProjectId,MUL8x8,4d554c38-7838-42e6-9b69-6361645f7063,rev?*%
%TF.SameCoordinates,Original*%
%TF.FileFunction,Copper,L2,Bot*%
%TF.FilePolarity,Positive*%
%FSLAX46Y46*%
G04 Gerber Fmt 4.6, Leading zero omitted, Abs format (unit mm)*
G04 Created by KiCad (PCBNEW 9.0.6) date 2026-05-15 22:06:10*
%MOMM*%
%LPD*%
G01*
G04 APERTURE LIST*
G04 Aperture macros list*
%AMRoundRect*
0 Rectangle with rounded corners*
0 $1 Rounding radius*
0 $2 $3 $4 $5 $6 $7 $8 $9 X,Y pos of 4 corners*
0 Add a 4 corners polygon primitive as box body*
4,1,4,$2,$3,$4,$5,$6,$7,$8,$9,$2,$3,0*
0 Add four circle primitives for the rounded corners*
1,1,$1+$1,$2,$3*
1,1,$1+$1,$4,$5*
1,1,$1+$1,$6,$7*
1,1,$1+$1,$8,$9*
0 Add four rect primitives between the rounded corners*
20,1,$1+$1,$2,$3,$4,$5,0*
20,1,$1+$1,$4,$5,$6,$7,0*
20,1,$1+$1,$6,$7,$8,$9,0*
20,1,$1+$1,$8,$9,$2,$3,0*%
G04 Aperture macros list end*
%ADD10C,0.300000*%
%TA.AperFunction,NonConductor*%
%ADD11C,0.300000*%
%TD*%
%TA.AperFunction,ComponentPad*%
%ADD12O,2.200000X2.000000*%
%TD*%
%TA.AperFunction,ComponentPad*%
%ADD13R,2.000000X1.800000*%
%TD*%
%TA.AperFunction,ComponentPad*%
%ADD14O,2.000000X1.800000*%
%TD*%
%TA.AperFunction,ComponentPad*%
%ADD15R,2.600000X2.600000*%
%TD*%
%TA.AperFunction,ComponentPad*%
%ADD16C,2.600000*%
%TD*%
%TA.AperFunction,ComponentPad*%
%ADD17R,1.800000X1.500000*%
%TD*%
%TA.AperFunction,ComponentPad*%
%ADD18O,1.800000X1.500000*%
%TD*%
%TA.AperFunction,SMDPad,CuDef*%
%ADD19R,0.800000X0.900000*%
%TD*%
%TA.AperFunction,SMDPad,CuDef*%
%ADD20RoundRect,0.249999X0.450001X-0.350001X0.450001X0.350001X-0.450001X0.350001X-0.450001X-0.350001X0*%
%TD*%
%TA.AperFunction,SMDPad,CuDef*%
%ADD21RoundRect,0.249999X-0.350001X-0.450001X0.350001X-0.450001X0.350001X0.450001X-0.350001X0.450001X0*%
%TD*%
%TA.AperFunction,ViaPad*%
%ADD22C,1.500000*%
%TD*%
%TA.AperFunction,Conductor*%
%ADD23C,0.500000*%
%TD*%
%TA.AperFunction,Conductor*%
%ADD24C,0.600000*%
%TD*%
%TA.AperFunction,Conductor*%
%ADD25C,0.800000*%
%TD*%
%TA.AperFunction,Conductor*%
%ADD26C,0.400000*%
%TD*%
G04 APERTURE END LIST*
D10*
D11*
X105453328Y-50594287D02*
X105453328Y-49737144D01*
X105453328Y-50165715D02*
X103953328Y-50165715D01*
X103953328Y-50165715D02*
X104167614Y-50022858D01*
X104167614Y-50022858D02*
X104310471Y-49880001D01*
X104310471Y-49880001D02*
X104381900Y-49737144D01*
X103953328Y-51951429D02*
X103953328Y-51237143D01*
X103953328Y-51237143D02*
X104667614Y-51165715D01*
X104667614Y-51165715D02*
X104596185Y-51237143D01*
X104596185Y-51237143D02*
X104524757Y-51380001D01*
X104524757Y-51380001D02*
X104524757Y-51737143D01*
X104524757Y-51737143D02*
X104596185Y-51880001D01*
X104596185Y-51880001D02*
X104667614Y-51951429D01*
X104667614Y-51951429D02*
X104810471Y-52022858D01*
X104810471Y-52022858D02*
X105167614Y-52022858D01*
X105167614Y-52022858D02*
X105310471Y-51951429D01*
X105310471Y-51951429D02*
X105381900Y-51880001D01*
X105381900Y-51880001D02*
X105453328Y-51737143D01*
X105453328Y-51737143D02*
X105453328Y-51380001D01*
X105453328Y-51380001D02*
X105381900Y-51237143D01*
X105381900Y-51237143D02*
X105310471Y-51165715D01*
X105310471Y-52665714D02*
X105381900Y-52737143D01*
X105381900Y-52737143D02*
X105453328Y-52665714D01*
X105453328Y-52665714D02*
X105381900Y-52594286D01*
X105381900Y-52594286D02*
X105310471Y-52665714D01*
X105310471Y-52665714D02*
X105453328Y-52665714D01*
X103953328Y-53665715D02*
X103953328Y-53808572D01*
X103953328Y-53808572D02*
X104024757Y-53951429D01*
X104024757Y-53951429D02*
X104096185Y-54022858D01*
X104096185Y-54022858D02*
X104239042Y-54094286D01*
X104239042Y-54094286D02*
X104524757Y-54165715D01*
X104524757Y-54165715D02*
X104881900Y-54165715D01*
X104881900Y-54165715D02*
X105167614Y-54094286D01*
X105167614Y-54094286D02*
X105310471Y-54022858D01*
X105310471Y-54022858D02*
X105381900Y-53951429D01*
X105381900Y-53951429D02*
X105453328Y-53808572D01*
X105453328Y-53808572D02*
X105453328Y-53665715D01*
X105453328Y-53665715D02*
X105381900Y-53522858D01*
X105381900Y-53522858D02*
X105310471Y-53451429D01*
X105310471Y-53451429D02*
X105167614Y-53380000D01*
X105167614Y-53380000D02*
X104881900Y-53308572D01*
X104881900Y-53308572D02*
X104524757Y-53308572D01*
X104524757Y-53308572D02*
X104239042Y-53380000D01*
X104239042Y-53380000D02*
X104096185Y-53451429D01*
X104096185Y-53451429D02*
X104024757Y-53522858D01*
X104024757Y-53522858D02*
X103953328Y-53665715D01*
X103953328Y-55522857D02*
X103953328Y-54808571D01*
X103953328Y-54808571D02*
X104667614Y-54737143D01*
X104667614Y-54737143D02*
X104596185Y-54808571D01*
X104596185Y-54808571D02*
X104524757Y-54951429D01*
X104524757Y-54951429D02*
X104524757Y-55308571D01*
X104524757Y-55308571D02*
X104596185Y-55451429D01*
X104596185Y-55451429D02*
X104667614Y-55522857D01*
X104667614Y-55522857D02*
X104810471Y-55594286D01*
X104810471Y-55594286D02*
X105167614Y-55594286D01*
X105167614Y-55594286D02*
X105310471Y-55522857D01*
X105310471Y-55522857D02*
X105381900Y-55451429D01*
X105381900Y-55451429D02*
X105453328Y-55308571D01*
X105453328Y-55308571D02*
X105453328Y-54951429D01*
X105453328Y-54951429D02*
X105381900Y-54808571D01*
X105381900Y-54808571D02*
X105310471Y-54737143D01*
X105310471Y-56237142D02*
X105381900Y-56308571D01*
X105381900Y-56308571D02*
X105453328Y-56237142D01*
X105453328Y-56237142D02*
X105381900Y-56165714D01*
X105381900Y-56165714D02*
X105310471Y-56237142D01*
X105310471Y-56237142D02*
X105453328Y-56237142D01*
X104096185Y-56880000D02*
X104024757Y-56951428D01*
X104024757Y-56951428D02*
X103953328Y-57094286D01*
X103953328Y-57094286D02*
X103953328Y-57451428D01*
X103953328Y-57451428D02*
X104024757Y-57594286D01*
X104024757Y-57594286D02*
X104096185Y-57665714D01*
X104096185Y-57665714D02*
X104239042Y-57737143D01*
X104239042Y-57737143D02*
X104381900Y-57737143D01*
X104381900Y-57737143D02*
X104596185Y-57665714D01*
X104596185Y-57665714D02*
X105453328Y-56808571D01*
X105453328Y-56808571D02*
X105453328Y-57737143D01*
X103953328Y-58665714D02*
X103953328Y-58808571D01*
X103953328Y-58808571D02*
X104024757Y-58951428D01*
X104024757Y-58951428D02*
X104096185Y-59022857D01*
X104096185Y-59022857D02*
X104239042Y-59094285D01*
X104239042Y-59094285D02*
X104524757Y-59165714D01*
X104524757Y-59165714D02*
X104881900Y-59165714D01*
X104881900Y-59165714D02*
X105167614Y-59094285D01*
X105167614Y-59094285D02*
X105310471Y-59022857D01*
X105310471Y-59022857D02*
X105381900Y-58951428D01*
X105381900Y-58951428D02*
X105453328Y-58808571D01*
X105453328Y-58808571D02*
X105453328Y-58665714D01*
X105453328Y-58665714D02*
X105381900Y-58522857D01*
X105381900Y-58522857D02*
X105310471Y-58451428D01*
X105310471Y-58451428D02*
X105167614Y-58379999D01*
X105167614Y-58379999D02*
X104881900Y-58308571D01*
X104881900Y-58308571D02*
X104524757Y-58308571D01*
X104524757Y-58308571D02*
X104239042Y-58379999D01*
X104239042Y-58379999D02*
X104096185Y-58451428D01*
X104096185Y-58451428D02*
X104024757Y-58522857D01*
X104024757Y-58522857D02*
X103953328Y-58665714D01*
X104096185Y-59737142D02*
X104024757Y-59808570D01*
X104024757Y-59808570D02*
X103953328Y-59951428D01*
X103953328Y-59951428D02*
X103953328Y-60308570D01*
X103953328Y-60308570D02*
X104024757Y-60451428D01*
X104024757Y-60451428D02*
X104096185Y-60522856D01*
X104096185Y-60522856D02*
X104239042Y-60594285D01*
X104239042Y-60594285D02*
X104381900Y-60594285D01*
X104381900Y-60594285D02*
X104596185Y-60522856D01*
X104596185Y-60522856D02*
X105453328Y-59665713D01*
X105453328Y-59665713D02*
X105453328Y-60594285D01*
X103953328Y-61879999D02*
X103953328Y-61594284D01*
X103953328Y-61594284D02*
X104024757Y-61451427D01*
X104024757Y-61451427D02*
X104096185Y-61379999D01*
X104096185Y-61379999D02*
X104310471Y-61237141D01*
X104310471Y-61237141D02*
X104596185Y-61165713D01*
X104596185Y-61165713D02*
X105167614Y-61165713D01*
X105167614Y-61165713D02*
X105310471Y-61237141D01*
X105310471Y-61237141D02*
X105381900Y-61308570D01*
X105381900Y-61308570D02*
X105453328Y-61451427D01*
X105453328Y-61451427D02*
X105453328Y-61737141D01*
X105453328Y-61737141D02*
X105381900Y-61879999D01*
X105381900Y-61879999D02*
X105310471Y-61951427D01*
X105310471Y-61951427D02*
X105167614Y-62022856D01*
X105167614Y-62022856D02*
X104810471Y-62022856D01*
X104810471Y-62022856D02*
X104667614Y-61951427D01*
X104667614Y-61951427D02*
X104596185Y-61879999D01*
X104596185Y-61879999D02*
X104524757Y-61737141D01*
X104524757Y-61737141D02*
X104524757Y-61451427D01*
X104524757Y-61451427D02*
X104596185Y-61308570D01*
X104596185Y-61308570D02*
X104667614Y-61237141D01*
X104667614Y-61237141D02*
X104810471Y-61165713D01*
D12*
%TO.P,U1,1,Bi*%
%TO.N,/B1*%
X44450000Y-19050000D03*
%TO.P,U1,2,A0*%
%TO.N,/A0*%
X44450000Y-24130000D03*
%TO.P,U1,3,A1*%
%TO.N,/A1*%
X44450000Y-26670000D03*
%TO.P,U1,4,A2*%
%TO.N,/A2*%
X44450000Y-29210000D03*
%TO.P,U1,5,A3*%
%TO.N,/A3*%
X44450000Y-31750000D03*
%TO.P,U1,6,A4*%
%TO.N,/A4*%
X44450000Y-34290000D03*
%TO.P,U1,7,A5*%
%TO.N,/A5*%
X44450000Y-36830000D03*
%TO.P,U1,8,A6*%
%TO.N,/A6*%
X44450000Y-39370000D03*
%TO.P,U1,9,A7*%
%TO.N,/A7*%
X44450000Y-41910000D03*
%TO.P,U1,10,P0*%
%TO.N,Net-(U1-P0)*%
X44450000Y-46990000D03*
%TO.P,U1,11,P1*%
%TO.N,Net-(U1-P1)*%
X44450000Y-49530000D03*
%TO.P,U1,12,P2*%
%TO.N,Net-(U1-P2)*%
X44450000Y-52070000D03*
%TO.P,U1,13,P3*%
%TO.N,Net-(U1-P3)*%
X44450000Y-54610000D03*
%TO.P,U1,14,P4*%
%TO.N,Net-(U1-P4)*%
X44450000Y-57150000D03*
%TO.P,U1,15,P5*%
%TO.N,Net-(U1-P5)*%
X44450000Y-59690000D03*
%TO.P,U1,16,P6*%
%TO.N,Net-(U1-P6)*%
X44450000Y-62230000D03*
%TO.P,U1,17,P7*%
%TO.N,GND*%
X44450000Y-64770000D03*
%TO.P,U1,18,S0*%
%TO.N,/P1*%
X44450000Y-69850000D03*
%TO.P,U1,19,S1*%
%TO.N,Net-(U1-S1)*%
X44450000Y-72390000D03*
%TO.P,U1,20,S2*%
%TO.N,Net-(U1-S2)*%
X44450000Y-74930000D03*
%TO.P,U1,21,S3*%
%TO.N,Net-(U1-S3)*%
X44450000Y-77470000D03*
%TO.P,U1,22,S4*%
%TO.N,Net-(U1-S4)*%
X44450000Y-80010000D03*
%TO.P,U1,23,S5*%
%TO.N,Net-(U1-S5)*%
X44450000Y-82550000D03*
%TO.P,U1,24,S6*%
%TO.N,Net-(U1-S6)*%
X44450000Y-85090000D03*
%TO.P,U1,25,S7*%
%TO.N,Net-(U1-S7)*%
X44450000Y-87630000D03*
%TO.P,U1,26,S8*%
%TO.N,Net-(U1-S8)*%
X44450000Y-90170000D03*
%TO.P,U1,27,VCC*%
%TO.N,VCC*%
X44450000Y-95250000D03*
%TO.P,U1,28,GND*%
%TO.N,GND*%
X44450000Y-97790000D03*
%TD*%
%TO.P,U2,1,Bi*%
%TO.N,/B2*%
X52705000Y-19050000D03*
%TO.P,U2,2,A0*%
%TO.N,/A0*%
X52705000Y-24130000D03*
%TO.P,U2,3,A1*%
%TO.N,/A1*%
X52705000Y-26670000D03*
%TO.P,U2,4,A2*%
%TO.N,/A2*%
X52705000Y-29210000D03*
%TO.P,U2,5,A3*%
%TO.N,/A3*%
X52705000Y-31750000D03*
%TO.P,U2,6,A4*%
%TO.N,/A4*%
X52705000Y-34290000D03*
%TO.P,U2,7,A5*%
%TO.N,/A5*%
X52705000Y-36830000D03*
%TO.P,U2,8,A6*%
%TO.N,/A6*%
X52705000Y-39370000D03*
%TO.P,U2,9,A7*%
%TO.N,/A7*%
X52705000Y-41910000D03*
%TO.P,U2,10,P0*%
%TO.N,Net-(U1-S1)*%
X52705000Y-46990000D03*
%TO.P,U2,11,P1*%
%TO.N,Net-(U1-S2)*%
X52705000Y-49530000D03*
%TO.P,U2,12,P2*%
%TO.N,Net-(U1-S3)*%
X52705000Y-52070000D03*
%TO.P,U2,13,P3*%
%TO.N,Net-(U1-S4)*%
X52705000Y-54610000D03*
%TO.P,U2,14,P4*%
%TO.N,Net-(U1-S5)*%
X52705000Y-57150000D03*
%TO.P,U2,15,P5*%
%TO.N,Net-(U1-S6)*%
X52705000Y-59690000D03*
%TO.P,U2,16,P6*%
%TO.N,Net-(U1-S7)*%
X52705000Y-62230000D03*
%TO.P,U2,17,P7*%
%TO.N,Net-(U1-S8)*%
X52705000Y-64770000D03*
%TO.P,U2,18,S0*%
%TO.N,/P2*%
X52705000Y-69850000D03*
%TO.P,U2,19,S1*%
%TO.N,Net-(U2-S1)*%
X52705000Y-72390000D03*
%TO.P,U2,20,S2*%
%TO.N,Net-(U2-S2)*%
X52705000Y-74930000D03*
%TO.P,U2,21,S3*%
%TO.N,Net-(U2-S3)*%
X52705000Y-77470000D03*
%TO.P,U2,22,S4*%
%TO.N,Net-(U2-S4)*%
X52705000Y-80010000D03*
%TO.P,U2,23,S5*%
%TO.N,Net-(U2-S5)*%
X52705000Y-82550000D03*
%TO.P,U2,24,S6*%
%TO.N,Net-(U2-S6)*%
X52705000Y-85090000D03*
%TO.P,U2,25,S7*%
%TO.N,Net-(U2-S7)*%
X52705000Y-87630000D03*
%TO.P,U2,26,S8*%
%TO.N,Net-(U2-S8)*%
X52705000Y-90170000D03*
%TO.P,U2,27,VCC*%
%TO.N,VCC*%
X52705000Y-95250000D03*
%TO.P,U2,28,GND*%
%TO.N,GND*%
X52705000Y-97790000D03*
%TD*%
%TO.P,U3,1,Bi*%
%TO.N,/B3*%
X60960000Y-19050000D03*
%TO.P,U3,2,A0*%
%TO.N,/A0*%
X60960000Y-24130000D03*
%TO.P,U3,3,A1*%
%TO.N,/A1*%
X60960000Y-26670000D03*
%TO.P,U3,4,A2*%
%TO.N,/A2*%
X60960000Y-29210000D03*
%TO.P,U3,5,A3*%
%TO.N,/A3*%
X60960000Y-31750000D03*
%TO.P,U3,6,A4*%
%TO.N,/A4*%
X60960000Y-34290000D03*
%TO.P,U3,7,A5*%
%TO.N,/A5*%
X60960000Y-36830000D03*
%TO.P,U3,8,A6*%
%TO.N,/A6*%
X60960000Y-39370000D03*
%TO.P,U3,9,A7*%
%TO.N,/A7*%
X60960000Y-41910000D03*
%TO.P,U3,10,P0*%
%TO.N,Net-(U2-S1)*%
X60960000Y-46990000D03*
%TO.P,U3,11,P1*%
%TO.N,Net-(U2-S2)*%
X60960000Y-49530000D03*
%TO.P,U3,12,P2*%
%TO.N,Net-(U2-S3)*%
X60960000Y-52070000D03*
%TO.P,U3,13,P3*%
%TO.N,Net-(U2-S4)*%
X60960000Y-54610000D03*
%TO.P,U3,14,P4*%
%TO.N,Net-(U2-S5)*%
X60960000Y-57150000D03*
%TO.P,U3,15,P5*%
%TO.N,Net-(U2-S6)*%
X60960000Y-59690000D03*
%TO.P,U3,16,P6*%
%TO.N,Net-(U2-S7)*%
X60960000Y-62230000D03*
%TO.P,U3,17,P7*%
%TO.N,Net-(U2-S8)*%
X60960000Y-64770000D03*
%TO.P,U3,18,S0*%
%TO.N,/P3*%
X60960000Y-69850000D03*
%TO.P,U3,19,S1*%
%TO.N,Net-(U3-S1)*%
X60960000Y-72390000D03*
%TO.P,U3,20,S2*%
%TO.N,Net-(U3-S2)*%
X60960000Y-74930000D03*
%TO.P,U3,21,S3*%
%TO.N,Net-(U3-S3)*%
X60960000Y-77470000D03*
%TO.P,U3,22,S4*%
%TO.N,Net-(U3-S4)*%
X60960000Y-80010000D03*
%TO.P,U3,23,S5*%
%TO.N,Net-(U3-S5)*%
X60960000Y-82550000D03*
%TO.P,U3,24,S6*%
%TO.N,Net-(U3-S6)*%
X60960000Y-85090000D03*
%TO.P,U3,25,S7*%
%TO.N,Net-(U3-S7)*%
X60960000Y-87630000D03*
%TO.P,U3,26,S8*%
%TO.N,Net-(U3-S8)*%
X60960000Y-90170000D03*
%TO.P,U3,27,VCC*%
%TO.N,VCC*%
X60960000Y-95250000D03*
%TO.P,U3,28,GND*%
%TO.N,GND*%
X60960000Y-97790000D03*
%TD*%
%TO.P,U4,1,Bi*%
%TO.N,/B4*%
X69215000Y-19050000D03*
%TO.P,U4,2,A0*%
%TO.N,/A0*%
X69215000Y-24130000D03*
%TO.P,U4,3,A1*%
%TO.N,/A1*%
X69215000Y-26670000D03*
%TO.P,U4,4,A2*%
%TO.N,/A2*%
X69215000Y-29210000D03*
%TO.P,U4,5,A3*%
%TO.N,/A3*%
X69215000Y-31750000D03*
%TO.P,U4,6,A4*%
%TO.N,/A4*%
X69215000Y-34290000D03*
%TO.P,U4,7,A5*%
%TO.N,/A5*%
X69215000Y-36830000D03*
%TO.P,U4,8,A6*%
%TO.N,/A6*%
X69215000Y-39370000D03*
%TO.P,U4,9,A7*%
%TO.N,/A7*%
X69215000Y-41910000D03*
%TO.P,U4,10,P0*%
%TO.N,Net-(U3-S1)*%
X69215000Y-46990000D03*
%TO.P,U4,11,P1*%
%TO.N,Net-(U3-S2)*%
X69215000Y-49530000D03*
%TO.P,U4,12,P2*%
%TO.N,Net-(U3-S3)*%
X69215000Y-52070000D03*
%TO.P,U4,13,P3*%
%TO.N,Net-(U3-S4)*%
X69215000Y-54610000D03*
%TO.P,U4,14,P4*%
%TO.N,Net-(U3-S5)*%
X69215000Y-57150000D03*
%TO.P,U4,15,P5*%
%TO.N,Net-(U3-S6)*%
X69215000Y-59690000D03*
%TO.P,U4,16,P6*%
%TO.N,Net-(U3-S7)*%
X69215000Y-62230000D03*
%TO.P,U4,17,P7*%
%TO.N,Net-(U3-S8)*%
X69215000Y-64770000D03*
%TO.P,U4,18,S0*%
%TO.N,/P4*%
X69215000Y-69850000D03*
%TO.P,U4,19,S1*%
%TO.N,Net-(U4-S1)*%
X69215000Y-72390000D03*
%TO.P,U4,20,S2*%
%TO.N,Net-(U4-S2)*%
X69215000Y-74930000D03*
%TO.P,U4,21,S3*%
%TO.N,Net-(U4-S3)*%
X69215000Y-77470000D03*
%TO.P,U4,22,S4*%
%TO.N,Net-(U4-S4)*%
X69215000Y-80010000D03*
%TO.P,U4,23,S5*%
%TO.N,Net-(U4-S5)*%
X69215000Y-82550000D03*
%TO.P,U4,24,S6*%
%TO.N,Net-(U4-S6)*%
X69215000Y-85090000D03*
%TO.P,U4,25,S7*%
%TO.N,Net-(U4-S7)*%
X69215000Y-87630000D03*
%TO.P,U4,26,S8*%
%TO.N,Net-(U4-S8)*%
X69215000Y-90170000D03*
%TO.P,U4,27,VCC*%
%TO.N,VCC*%
X69215000Y-95250000D03*
%TO.P,U4,28,GND*%
%TO.N,GND*%
X69215000Y-97790000D03*
%TD*%
%TO.P,U7,1,Bi*%
%TO.N,/B7*%
X93980000Y-19050000D03*
%TO.P,U7,2,A0*%
%TO.N,/A0*%
X93980000Y-24130000D03*
%TO.P,U7,3,A1*%
%TO.N,/A1*%
X93980000Y-26670000D03*
%TO.P,U7,4,A2*%
%TO.N,/A2*%
X93980000Y-29210000D03*
%TO.P,U7,5,A3*%
%TO.N,/A3*%
X93980000Y-31750000D03*
%TO.P,U7,6,A4*%
%TO.N,/A4*%
X93980000Y-34290000D03*
%TO.P,U7,7,A5*%
%TO.N,/A5*%
X93980000Y-36830000D03*
%TO.P,U7,8,A6*%
%TO.N,/A6*%
X93980000Y-39370000D03*
%TO.P,U7,9,A7*%
%TO.N,/A7*%
X93980000Y-41910000D03*
%TO.P,U7,10,P0*%
%TO.N,Net-(U6-S1)*%
X93980000Y-46990000D03*
%TO.P,U7,11,P1*%
%TO.N,Net-(U6-S2)*%
X93980000Y-49530000D03*
%TO.P,U7,12,P2*%
%TO.N,Net-(U6-S3)*%
X93980000Y-52070000D03*
%TO.P,U7,13,P3*%
%TO.N,Net-(U6-S4)*%
X93980000Y-54610000D03*
%TO.P,U7,14,P4*%
%TO.N,Net-(U6-S5)*%
X93980000Y-57150000D03*
%TO.P,U7,15,P5*%
%TO.N,Net-(U6-S6)*%
X93980000Y-59690000D03*
%TO.P,U7,16,P6*%
%TO.N,Net-(U6-S7)*%
X93980000Y-62230000D03*
%TO.P,U7,17,P7*%
%TO.N,Net-(U6-S8)*%
X93980000Y-64770000D03*
%TO.P,U7,18,S0*%
%TO.N,/P7*%
X93980000Y-69850000D03*
%TO.P,U7,19,S1*%
%TO.N,/P8*%
X93980000Y-72390000D03*
%TO.P,U7,20,S2*%
%TO.N,/P9*%
X93980000Y-74930000D03*
%TO.P,U7,21,S3*%
%TO.N,/P10*%
X93980000Y-77470000D03*
%TO.P,U7,22,S4*%
%TO.N,/P11*%
X93980000Y-80010000D03*
%TO.P,U7,23,S5*%
%TO.N,/P12*%
X93980000Y-82550000D03*
%TO.P,U7,24,S6*%
%TO.N,/P13*%
X93980000Y-85090000D03*
%TO.P,U7,25,S7*%
%TO.N,/P14*%
X93980000Y-87630000D03*
%TO.P,U7,26,S8*%
%TO.N,/P15*%
X93980000Y-90170000D03*
%TO.P,U7,27,VCC*%
%TO.N,VCC*%
X93980000Y-95250000D03*
%TO.P,U7,28,GND*%
%TO.N,GND*%
X93980000Y-97790000D03*
%TD*%
D13*
%TO.P,J1,1,Pin_1*%
%TO.N,GND*%
X15240000Y-50800000D03*
D14*
%TO.P,J1,2,Pin_2*%
%TO.N,/A0*%
X15240000Y-53340000D03*
%TO.P,J1,3,Pin_3*%
%TO.N,/A1*%
X15240000Y-55880000D03*
%TO.P,J1,4,Pin_4*%
%TO.N,/A2*%
X15240000Y-58420000D03*
%TO.P,J1,5,Pin_5*%
%TO.N,/A3*%
X15240000Y-60960000D03*
%TO.P,J1,6,Pin_6*%
%TO.N,/A4*%
X15240000Y-63500000D03*
%TO.P,J1,7,Pin_7*%
%TO.N,/A5*%
X15240000Y-66040000D03*
%TO.P,J1,8,Pin_8*%
%TO.N,/A6*%
X15240000Y-68580000D03*
%TO.P,J1,9,Pin_9*%
%TO.N,/A7*%
X15240000Y-71120000D03*
%TD*%
D13*
%TO.P,J2,1,Pin_1*%
%TO.N,GND*%
X15240000Y-25400000D03*
D14*
%TO.P,J2,2,Pin_2*%
%TO.N,/B0*%
X15240000Y-27940000D03*
%TO.P,J2,3,Pin_3*%
%TO.N,/B1*%
X15240000Y-30480000D03*
%TO.P,J2,4,Pin_4*%
%TO.N,/B2*%
X15240000Y-33020000D03*
%TO.P,J2,5,Pin_5*%
%TO.N,/B3*%
X15240000Y-35560000D03*
%TO.P,J2,6,Pin_6*%
%TO.N,/B4*%
X15240000Y-38100000D03*
%TO.P,J2,7,Pin_7*%
%TO.N,/B5*%
X15240000Y-40640000D03*
%TO.P,J2,8,Pin_8*%
%TO.N,/B6*%
X15240000Y-43180000D03*
%TO.P,J2,9,Pin_9*%
%TO.N,/B7*%
X15240000Y-45720000D03*
%TD*%
D13*
%TO.P,J3,1,Pin_1*%
%TO.N,GND*%
X15240000Y-76200000D03*
D14*
%TO.P,J3,2,Pin_2*%
%TO.N,/M0*%
X15240000Y-78740000D03*
%TO.P,J3,3,Pin_3*%
%TO.N,/M1*%
X15240000Y-81280000D03*
%TO.P,J3,4,Pin_4*%
%TO.N,/M2*%
X15240000Y-83820000D03*
%TO.P,J3,5,Pin_5*%
%TO.N,/M3*%
X15240000Y-86360000D03*
%TO.P,J3,6,Pin_6*%
%TO.N,/M4*%
X15240000Y-88900000D03*
%TO.P,J3,7,Pin_7*%
%TO.N,/M5*%
X15240000Y-91440000D03*
%TO.P,J3,8,Pin_8*%
%TO.N,/M6*%
X15240000Y-93980000D03*
%TO.P,J3,9,Pin_9*%
%TO.N,/M7*%
X15240000Y-96520000D03*
%TD*%
D13*
%TO.P,J4,1,Pin_1*%
%TO.N,GND*%
X109855000Y-72390000D03*
D14*
%TO.P,J4,2,Pin_2*%
%TO.N,/M8*%
X109855000Y-74930000D03*
%TO.P,J4,3,Pin_3*%
%TO.N,/M9*%
X109855000Y-77470000D03*
%TO.P,J4,4,Pin_4*%
%TO.N,/M10*%
X109855000Y-80010000D03*
%TO.P,J4,5,Pin_5*%
%TO.N,/M11*%
X109855000Y-82550000D03*
%TO.P,J4,6,Pin_6*%
%TO.N,/M12*%
X109855000Y-85090000D03*
%TO.P,J4,7,Pin_7*%
%TO.N,/M13*%
X109855000Y-87630000D03*
%TO.P,J4,8,Pin_8*%
%TO.N,/M14*%
X109855000Y-90170000D03*
%TO.P,J4,9,Pin_9*%
%TO.N,/M15*%
X109855000Y-92710000D03*
%TD*%
D13*
%TO.P,J5,1,Pin_1*%
%TO.N,/~{MUL}*%
X29210000Y-107950000D03*
%TD*%
D15*
%TO.P,J6,1,Pin_1*%
%TO.N,GND*%
X82550000Y-106680000D03*
D16*
%TO.P,J6,2,Pin_2*%
%TO.N,Net-(J6-Pin_2)*%
X87550000Y-106680000D03*
%TD*%
D17*
%TO.P,U9,1,A->B*%
%TO.N,GND*%
X19050000Y-76200000D03*
D18*
%TO.P,U9,2,A0*%
%TO.N,/M0*%
X19050000Y-78740000D03*
%TO.P,U9,3,A1*%
%TO.N,/M1*%
X19050000Y-81280000D03*
%TO.P,U9,4,A2*%
%TO.N,/M2*%
X19050000Y-83820000D03*
%TO.P,U9,5,A3*%
%TO.N,/M3*%
X19050000Y-86360000D03*
%TO.P,U9,6,A4*%
%TO.N,/M4*%
X19050000Y-88900000D03*
%TO.P,U9,7,A5*%
%TO.N,/M5*%
X19050000Y-91440000D03*
%TO.P,U9,8,A6*%
%TO.N,/M6*%
X19050000Y-93980000D03*
%TO.P,U9,9,A7*%
%TO.N,/M7*%
X19050000Y-96520000D03*
%TO.P,U9,10,GND*%
%TO.N,GND*%
X19050000Y-99060000D03*
%TO.P,U9,11,B7*%
%TO.N,/P7*%
X26670000Y-99060000D03*
%TO.P,U9,12,B6*%
%TO.N,/P6*%
X26670000Y-96520000D03*
%TO.P,U9,13,B5*%
%TO.N,/P5*%
X26670000Y-93980000D03*
%TO.P,U9,14,B4*%
%TO.N,/P4*%
X26670000Y-91440000D03*
%TO.P,U9,15,B3*%
%TO.N,/P3*%
X26670000Y-88900000D03*
%TO.P,U9,16,B2*%
%TO.N,/P2*%
X26670000Y-86360000D03*
%TO.P,U9,17,B1*%
%TO.N,/P1*%
X26670000Y-83820000D03*
%TO.P,U9,18,B0*%
%TO.N,/P0*%
X26670000Y-81280000D03*
%TO.P,U9,19,CE*%
%TO.N,/~{MUL}*%
X26670000Y-78740000D03*
%TO.P,U9,20,VCC*%
%TO.N,VCC*%
X26670000Y-76200000D03*
%TD*%
D17*
%TO.P,U10,1,A->B*%
%TO.N,Net-(U10-A->B)*%
X99060000Y-69850000D03*
D18*
%TO.P,U10,2,A0*%
%TO.N,/P8*%
X99060000Y-72390000D03*
%TO.P,U10,3,A1*%
%TO.N,/P9*%
X99060000Y-74930000D03*
%TO.P,U10,4,A2*%
%TO.N,/P10*%
X99060000Y-77470000D03*
%TO.P,U10,5,A3*%
%TO.N,/P11*%
X99060000Y-80010000D03*
%TO.P,U10,6,A4*%
%TO.N,/P12*%
X99060000Y-82550000D03*
%TO.P,U10,7,A5*%
%TO.N,/P13*%
X99060000Y-85090000D03*
%TO.P,U10,8,A6*%
%TO.N,/P14*%
X99060000Y-87630000D03*
%TO.P,U10,9,A7*%
%TO.N,/P15*%
X99060000Y-90170000D03*
%TO.P,U10,10,GND*%
%TO.N,GND*%
X99060000Y-92710000D03*
%TO.P,U10,11,B7*%
%TO.N,/M15*%
X106680000Y-92710000D03*
%TO.P,U10,12,B6*%
%TO.N,/M14*%
X106680000Y-90170000D03*
%TO.P,U10,13,B5*%
%TO.N,/M13*%
X106680000Y-87630000D03*
%TO.P,U10,14,B4*%
%TO.N,/M12*%
X106680000Y-85090000D03*
%TO.P,U10,15,B3*%
%TO.N,/M11*%
X106680000Y-82550000D03*
%TO.P,U10,16,B2*%
%TO.N,/M10*%
X106680000Y-80010000D03*
%TO.P,U10,17,B1*%
%TO.N,/M9*%
X106680000Y-77470000D03*
%TO.P,U10,18,B0*%
%TO.N,/M8*%
X106680000Y-74930000D03*
%TO.P,U10,19,CE*%
%TO.N,/~{MUL}*%
X106680000Y-72390000D03*
%TO.P,U10,20,VCC*%
%TO.N,VCC*%
X106680000Y-69850000D03*
%TD*%
D12*
%TO.P,U6,1,Bi*%
%TO.N,/B6*%
X85725000Y-19050000D03*
%TO.P,U6,2,A0*%
%TO.N,/A0*%
X85725000Y-24130000D03*
%TO.P,U6,3,A1*%
%TO.N,/A1*%
X85725000Y-26670000D03*
%TO.P,U6,4,A2*%
%TO.N,/A2*%
X85725000Y-29210000D03*
%TO.P,U6,5,A3*%
%TO.N,/A3*%
X85725000Y-31750000D03*
%TO.P,U6,6,A4*%
%TO.N,/A4*%
X85725000Y-34290000D03*
%TO.P,U6,7,A5*%
%TO.N,/A5*%
X85725000Y-36830000D03*
%TO.P,U6,8,A6*%
%TO.N,/A6*%
X85725000Y-39370000D03*
%TO.P,U6,9,A7*%
%TO.N,/A7*%
X85725000Y-41910000D03*
%TO.P,U6,10,P0*%
%TO.N,Net-(U5-S1)*%
X85725000Y-46990000D03*
%TO.P,U6,11,P1*%
%TO.N,Net-(U5-S2)*%
X85725000Y-49530000D03*
%TO.P,U6,12,P2*%
%TO.N,Net-(U5-S3)*%
X85725000Y-52070000D03*
%TO.P,U6,13,P3*%
%TO.N,Net-(U5-S4)*%
X85725000Y-54610000D03*
%TO.P,U6,14,P4*%
%TO.N,Net-(U5-S5)*%
X85725000Y-57150000D03*
%TO.P,U6,15,P5*%
%TO.N,Net-(U5-S6)*%
X85725000Y-59690000D03*
%TO.P,U6,16,P6*%
%TO.N,Net-(U5-S7)*%
X85725000Y-62230000D03*
%TO.P,U6,17,P7*%
%TO.N,Net-(U5-S8)*%
X85725000Y-64770000D03*
%TO.P,U6,18,S0*%
%TO.N,/P6*%
X85725000Y-69850000D03*
%TO.P,U6,19,S1*%
%TO.N,Net-(U6-S1)*%
X85725000Y-72390000D03*
%TO.P,U6,20,S2*%
%TO.N,Net-(U6-S2)*%
X85725000Y-74930000D03*
%TO.P,U6,21,S3*%
%TO.N,Net-(U6-S3)*%
X85725000Y-77470000D03*
%TO.P,U6,22,S4*%
%TO.N,Net-(U6-S4)*%
X85725000Y-80010000D03*
%TO.P,U6,23,S5*%
%TO.N,Net-(U6-S5)*%
X85725000Y-82550000D03*
%TO.P,U6,24,S6*%
%TO.N,Net-(U6-S6)*%
X85725000Y-85090000D03*
%TO.P,U6,25,S7*%
%TO.N,Net-(U6-S7)*%
X85725000Y-87630000D03*
%TO.P,U6,26,S8*%
%TO.N,Net-(U6-S8)*%
X85725000Y-90170000D03*
%TO.P,U6,27,VCC*%
%TO.N,VCC*%
X85725000Y-95250000D03*
%TO.P,U6,28,GND*%
%TO.N,GND*%
X85725000Y-97790000D03*
%TD*%
%TO.P,U5,1,Bi*%
%TO.N,/B5*%
X77470000Y-19050000D03*
%TO.P,U5,2,A0*%
%TO.N,/A0*%
X77470000Y-24130000D03*
%TO.P,U5,3,A1*%
%TO.N,/A1*%
X77470000Y-26670000D03*
%TO.P,U5,4,A2*%
%TO.N,/A2*%
X77470000Y-29210000D03*
%TO.P,U5,5,A3*%
%TO.N,/A3*%
X77470000Y-31750000D03*
%TO.P,U5,6,A4*%
%TO.N,/A4*%
X77470000Y-34290000D03*
%TO.P,U5,7,A5*%
%TO.N,/A5*%
X77470000Y-36830000D03*
%TO.P,U5,8,A6*%
%TO.N,/A6*%
X77470000Y-39370000D03*
%TO.P,U5,9,A7*%
%TO.N,/A7*%
X77470000Y-41910000D03*
%TO.P,U5,10,P0*%
%TO.N,Net-(U4-S1)*%
X77470000Y-46990000D03*
%TO.P,U5,11,P1*%
%TO.N,Net-(U4-S2)*%
X77470000Y-49530000D03*
%TO.P,U5,12,P2*%
%TO.N,Net-(U4-S3)*%
X77470000Y-52070000D03*
%TO.P,U5,13,P3*%
%TO.N,Net-(U4-S4)*%
X77470000Y-54610000D03*
%TO.P,U5,14,P4*%
%TO.N,Net-(U4-S5)*%
X77470000Y-57150000D03*
%TO.P,U5,15,P5*%
%TO.N,Net-(U4-S6)*%
X77470000Y-59690000D03*
%TO.P,U5,16,P6*%
%TO.N,Net-(U4-S7)*%
X77470000Y-62230000D03*
%TO.P,U5,17,P7*%
%TO.N,Net-(U4-S8)*%
X77470000Y-64770000D03*
%TO.P,U5,18,S0*%
%TO.N,/P5*%
X77470000Y-69850000D03*
%TO.P,U5,19,S1*%
%TO.N,Net-(U5-S1)*%
X77470000Y-72390000D03*
%TO.P,U5,20,S2*%
%TO.N,Net-(U5-S2)*%
X77470000Y-74930000D03*
%TO.P,U5,21,S3*%
%TO.N,Net-(U5-S3)*%
X77470000Y-77470000D03*
%TO.P,U5,22,S4*%
%TO.N,Net-(U5-S4)*%
X77470000Y-80010000D03*
%TO.P,U5,23,S5*%
%TO.N,Net-(U5-S5)*%
X77470000Y-82550000D03*
%TO.P,U5,24,S6*%
%TO.N,Net-(U5-S6)*%
X77470000Y-85090000D03*
%TO.P,U5,25,S7*%
%TO.N,Net-(U5-S7)*%
X77470000Y-87630000D03*
%TO.P,U5,26,S8*%
%TO.N,Net-(U5-S8)*%
X77470000Y-90170000D03*
%TO.P,U5,27,VCC*%
%TO.N,VCC*%
X77470000Y-95250000D03*
%TO.P,U5,28,GND*%
%TO.N,GND*%
X77470000Y-97790000D03*
%TD*%
%TO.P,U11,1,B0*%
%TO.N,/A0*%
X36195000Y-24130000D03*
%TO.P,U11,2,B1*%
%TO.N,/A1*%
X36195000Y-26670000D03*
%TO.P,U11,3,B2*%
%TO.N,/A2*%
X36195000Y-29210000D03*
%TO.P,U11,4,B3*%
%TO.N,/A3*%
X36195000Y-31750000D03*
%TO.P,U11,5,B4*%
%TO.N,/A4*%
X36195000Y-34290000D03*
%TO.P,U11,6,B5*%
%TO.N,/A5*%
X36195000Y-36830000D03*
%TO.P,U11,7,B6*%
%TO.N,/A6*%
X36195000Y-39370000D03*
%TO.P,U11,8,B7*%
%TO.N,/A7*%
X36195000Y-41910000D03*
%TO.P,U11,9,A0*%
%TO.N,/B0*%
X36195000Y-46990000D03*
%TO.P,U11,10,A1*%
X36195000Y-49530000D03*
%TO.P,U11,11,A2*%
X36195000Y-52070000D03*
%TO.P,U11,12,A3*%
X36195000Y-54610000D03*
%TO.P,U11,13,A4*%
X36195000Y-57150000D03*
%TO.P,U11,14,A5*%
X36195000Y-59690000D03*
%TO.P,U11,15,A6*%
X36195000Y-62230000D03*
%TO.P,U11,16,A7*%
X36195000Y-64770000D03*
%TO.P,U11,17,O0*%
%TO.N,/P0*%
X36195000Y-69850000D03*
%TO.P,U11,18,O1*%
%TO.N,Net-(U1-P0)*%
X36195000Y-72390000D03*
%TO.P,U11,19,O2*%
%TO.N,Net-(U1-P1)*%
X36195000Y-74930000D03*
%TO.P,U11,20,O3*%
%TO.N,Net-(U1-P2)*%
X36195000Y-77470000D03*
%TO.P,U11,21,O4*%
%TO.N,Net-(U1-P3)*%
X36195000Y-80010000D03*
%TO.P,U11,22,O5*%
%TO.N,Net-(U1-P4)*%
X36195000Y-82550000D03*
%TO.P,U11,23,O6*%
%TO.N,Net-(U1-P5)*%
X36195000Y-85090000D03*
%TO.P,U11,24,O7*%
%TO.N,Net-(U1-P6)*%
X36195000Y-87630000D03*
%TO.P,U11,25,Latch*%
%TO.N,Net-(U11-Latch)*%
X36195000Y-92710000D03*
%TO.P,U11,26,Vcc*%
%TO.N,VCC*%
X36195000Y-95250000D03*
%TO.P,U11,27,Gnd*%
%TO.N,GND*%
X36195000Y-97790000D03*
%TO.P,U11,28,~{OE}*%
X36195000Y-100330000D03*
%TD*%
D19*
%TO.P,Q1,1,G*%
%TO.N,GND*%
X91760000Y-103140000D03*
%TO.P,Q1,2,S*%
%TO.N,VCC*%
X93660000Y-103140000D03*
%TO.P,Q1,3,D*%
%TO.N,Net-(J6-Pin_2)*%
X92710000Y-105140000D03*
%TD*%
D20*
%TO.P,R1,1*%
%TO.N,VCC*%
X41275000Y-94980000D03*
%TO.P,R1,2*%
%TO.N,Net-(U11-Latch)*%
X41275000Y-92980000D03*
%TD*%
D21*
%TO.P,R3,1*%
%TO.N,Net-(U10-A->B)*%
X101235000Y-69850000D03*
%TO.P,R3,2*%
%TO.N,VCC*%
X103235000Y-69850000D03*
%TD*%
D22*
%TO.N,GND*%
X39370000Y-110490000D03*
X66040000Y-92710000D03*
X66040000Y-97790000D03*
X39370000Y-100330000D03*
%TO.N,/B7*%
X38100000Y-45085000D03*
X22225000Y-45720000D03*
%TO.N,/B6*%
X39497000Y-43434000D03*
X22860000Y-43180000D03*
%TO.N,VCC*%
X97790000Y-99695000D03*
X97790000Y-95885000D03*
%TO.N,/P5*%
X70485000Y-100965000D03*
%TO.N,/P6*%
X79375000Y-100965000D03*
%TO.N,/P7*%
X78422500Y-104457500D03*
%TD*%
D23*
%TO.N,/A7*%
X33655000Y-62865000D02*
X25400000Y-71120000D01*
X33655000Y-43180000D02*
X34925000Y-41910000D01*
D24*
X36195000Y-41910000D02*
X93980000Y-41910000D01*
D23*
X36195000Y-41910000D02*
X34925000Y-41910000D01*
X33655000Y-43180000D02*
X33655000Y-62865000D01*
X25400000Y-71120000D02*
X15240000Y-71120000D01*
%TO.N,/A6*%
X32385000Y-60960000D02*
X24765000Y-68580000D01*
X34925000Y-39370000D02*
X32385000Y-41910000D01*
X36195000Y-39370000D02*
X34925000Y-39370000D01*
X32385000Y-41910000D02*
X32385000Y-60960000D01*
D24*
X36195000Y-39370000D02*
X93980000Y-39370000D01*
D23*
X24765000Y-68580000D02*
X15240000Y-68580000D01*
%TO.N,/A5*%
X31115000Y-40640000D02*
X31115000Y-59055000D01*
D24*
X36195000Y-36830000D02*
X93980000Y-36830000D01*
D23*
X36195000Y-36830000D02*
X34925000Y-36830000D01*
X31115000Y-59055000D02*
X24130000Y-66040000D01*
X34925000Y-36830000D02*
X31115000Y-40640000D01*
X24130000Y-66040000D02*
X15240000Y-66040000D01*
%TO.N,/A4*%
X29845000Y-57150000D02*
X23495000Y-63500000D01*
X36195000Y-34290000D02*
X34925000Y-34290000D01*
X34925000Y-34290000D02*
X29845000Y-39370000D01*
D24*
X36195000Y-34290000D02*
X93980000Y-34290000D01*
D23*
X29845000Y-39370000D02*
X29845000Y-57150000D01*
X23495000Y-63500000D02*
X15240000Y-63500000D01*
D24*
%TO.N,/A3*%
X36195000Y-31750000D02*
X93980000Y-31750000D01*
D23*
X36195000Y-31750000D02*
X34925000Y-31750000D01*
X34925000Y-31750000D02*
X28575000Y-38100000D01*
X28575000Y-38100000D02*
X28575000Y-55245000D01*
X22860000Y-60960000D02*
X15240000Y-60960000D01*
X28575000Y-55245000D02*
X22860000Y-60960000D01*
%TO.N,/A2*%
X27305000Y-36830000D02*
X27305000Y-53340000D01*
X34925000Y-29210000D02*
X27305000Y-36830000D01*
D24*
X36195000Y-29210000D02*
X93980000Y-29210000D01*
D23*
X36195000Y-29210000D02*
X34925000Y-29210000D01*
X27305000Y-53340000D02*
X22225000Y-58420000D01*
X22225000Y-58420000D02*
X15240000Y-58420000D01*
%TO.N,/A1*%
X26035000Y-35560000D02*
X26035000Y-51435000D01*
D24*
X36195000Y-26670000D02*
X93980000Y-26670000D01*
D23*
X36195000Y-26670000D02*
X34925000Y-26670000D01*
X26035000Y-51435000D02*
X21590000Y-55880000D01*
X34925000Y-26670000D02*
X26035000Y-35560000D01*
X21590000Y-55880000D02*
X15240000Y-55880000D01*
%TO.N,/A0*%
X34925000Y-24130000D02*
X24765000Y-34290000D01*
X24765000Y-49530000D02*
X20955000Y-53340000D01*
D24*
X36195000Y-24130000D02*
X93980000Y-24130000D01*
D23*
X36195000Y-24130000D02*
X34925000Y-24130000D01*
X20955000Y-53340000D02*
X15240000Y-53340000D01*
X24765000Y-34290000D02*
X24765000Y-49530000D01*
%TO.N,GND*%
X66040000Y-92710000D02*
X66040000Y-92710000D01*
D25*
X66040000Y-97790000D02*
X82550000Y-97790000D01*
X39370000Y-100330000D02*
X39370000Y-100330000D01*
D24*
X39370000Y-110490000D02*
X39370000Y-110490000D01*
D25*
X82550000Y-97790000D02*
X82550000Y-103505000D01*
D24*
X20955000Y-104140000D02*
X27305000Y-110490000D01*
X102235000Y-92710000D02*
X99060000Y-92710000D01*
D23*
X42560010Y-65389990D02*
X42560010Y-67310000D01*
D25*
X82550000Y-103505000D02*
X82550000Y-106680000D01*
X36195000Y-97790000D02*
X40005000Y-97790000D01*
D23*
X44450000Y-64770000D02*
X43180000Y-64770000D01*
D24*
X15240000Y-76200000D02*
X19050000Y-76200000D01*
X102870000Y-73660000D02*
X102870000Y-92710000D01*
X15240000Y-25400000D02*
X13335000Y-25400000D01*
X27305000Y-110490000D02*
X39370000Y-110490000D01*
D25*
X44450000Y-97790000D02*
X66040000Y-97790000D01*
D23*
X42560010Y-91455010D02*
X43815000Y-92710000D01*
D24*
X20955000Y-99060000D02*
X19050000Y-99060000D01*
X13335000Y-76200000D02*
X15240000Y-76200000D01*
X102870000Y-92710000D02*
X102235000Y-92710000D01*
D25*
X40005000Y-97790000D02*
X44450000Y-97790000D01*
D24*
X13335000Y-25400000D02*
X13335000Y-50800000D01*
D23*
X43815000Y-92710000D02*
X66040000Y-92710000D01*
X42560010Y-88884990D02*
X42560010Y-91455010D01*
X43180000Y-64770000D02*
X42560010Y-65389990D01*
D24*
X109855000Y-72390000D02*
X109855000Y-71120000D01*
X20955000Y-76200000D02*
X20955000Y-99060000D01*
X102870000Y-96520000D02*
X101600000Y-97790000D01*
X105410000Y-71120000D02*
X102870000Y-73660000D01*
X91760000Y-103140000D02*
X82550000Y-103140000D01*
X102870000Y-92710000D02*
X102870000Y-96520000D01*
X13335000Y-50800000D02*
X13335000Y-76200000D01*
X19050000Y-76200000D02*
X20955000Y-76200000D01*
X20955000Y-99060000D02*
X20955000Y-104140000D01*
X101600000Y-97790000D02*
X93980000Y-97790000D01*
D23*
X109855000Y-71120000D02*
X105410000Y-71120000D01*
D24*
X13335000Y-50800000D02*
X15240000Y-50800000D01*
D25*
X36195000Y-97790000D02*
X36195000Y-100330000D01*
D23*
X42560010Y-67310000D02*
X42560010Y-88884990D01*
D25*
X36195000Y-100330000D02*
X39370000Y-100330000D01*
X82550000Y-97790000D02*
X93980000Y-97790000D01*
D23*
%TO.N,/B7*%
X38100000Y-45085000D02*
X38100000Y-45085000D01*
X22225000Y-45720000D02*
X22225000Y-45720000D01*
X97155000Y-44450000D02*
X75565000Y-44450000D01*
X41275000Y-44450000D02*
X40640000Y-45085000D01*
X98425000Y-43180000D02*
X97155000Y-44450000D01*
X98425000Y-19685000D02*
X98425000Y-43180000D01*
X75438000Y-44450000D02*
X41275000Y-44450000D01*
X15240000Y-45720000D02*
X22225000Y-45720000D01*
X40640000Y-45085000D02*
X38100000Y-45085000D01*
X97790000Y-19050000D02*
X98425000Y-19685000D01*
X93980000Y-19050000D02*
X97790000Y-19050000D01*
%TO.N,/B6*%
X39497000Y-43434000D02*
X39497000Y-43434000D01*
X22860000Y-43180000D02*
X22860000Y-43180000D01*
X88900000Y-19050000D02*
X91440000Y-21590000D01*
X85725000Y-19050000D02*
X88900000Y-19050000D01*
X97155000Y-22225000D02*
X97155000Y-42735500D01*
X15240000Y-43180000D02*
X22860000Y-43180000D01*
X96520000Y-21590000D02*
X97155000Y-22225000D01*
X39751000Y-43688000D02*
X39497000Y-43434000D01*
X50800000Y-43688000D02*
X46037500Y-43688000D01*
X91440000Y-21590000D02*
X96520000Y-21590000D01*
X46037500Y-43688000D02*
X39751000Y-43688000D01*
X96202500Y-43688000D02*
X50800000Y-43688000D01*
X97155000Y-42735500D02*
X96202500Y-43688000D01*
%TO.N,/B5*%
X18097500Y-39052500D02*
X16510000Y-40640000D01*
X33655000Y-22225000D02*
X18097500Y-37782500D01*
D26*
X38735000Y-22225000D02*
X39116000Y-22606000D01*
X42926000Y-22606000D02*
X56515000Y-22606000D01*
D23*
X77470000Y-19050000D02*
X73025000Y-19050000D01*
X38735000Y-22225000D02*
X33655000Y-22225000D01*
X64135000Y-22225000D02*
X56896000Y-22225000D01*
X73025000Y-19050000D02*
X71120000Y-20955000D01*
D26*
X39116000Y-22606000D02*
X42926000Y-22606000D01*
D23*
X71120000Y-20955000D02*
X65405000Y-20955000D01*
X65405000Y-20955000D02*
X64135000Y-22225000D01*
X18097500Y-37782500D02*
X18097500Y-39052500D01*
X16510000Y-40640000D02*
X15240000Y-40640000D01*
D26*
X56896000Y-22225000D02*
X56515000Y-22606000D01*
D23*
%TO.N,/B4*%
X16510000Y-38100000D02*
X15240000Y-38100000D01*
D26*
X39370000Y-20955000D02*
X40132000Y-21844000D01*
D23*
X63500000Y-20955000D02*
X65405000Y-19050000D01*
D26*
X55626000Y-21844000D02*
X56515000Y-20955000D01*
D23*
X65405000Y-19050000D02*
X69215000Y-19050000D01*
X56515000Y-20955000D02*
X63500000Y-20955000D01*
X39370000Y-20955000D02*
X33020000Y-20955000D01*
X17145000Y-37465000D02*
X16510000Y-38100000D01*
D26*
X40132000Y-21844000D02*
X55626000Y-21844000D01*
D23*
X33020000Y-20955000D02*
X17145000Y-36830000D01*
X17145000Y-36830000D02*
X17145000Y-37465000D01*
%TO.N,/B3*%
X54610000Y-20955000D02*
X47244000Y-20955000D01*
D26*
X41148000Y-21209000D02*
X46990000Y-21209000D01*
D23*
X32067500Y-20002500D02*
X40005000Y-20002500D01*
X60960000Y-19050000D02*
X56515000Y-19050000D01*
X56515000Y-19050000D02*
X54610000Y-20955000D01*
X16510000Y-35560000D02*
X32067500Y-20002500D01*
X15240000Y-35560000D02*
X16510000Y-35560000D01*
D26*
X40005000Y-20002500D02*
X41148000Y-21209000D01*
X46990000Y-21209000D02*
X47244000Y-20955000D01*
%TO.N,/B2*%
X40640000Y-19050000D02*
X42164000Y-20574000D01*
D23*
X17145000Y-33020000D02*
X31115000Y-19050000D01*
D26*
X42164000Y-20574000D02*
X45847000Y-20574000D01*
D23*
X15240000Y-33020000D02*
X17145000Y-33020000D01*
X47371000Y-19050000D02*
X52705000Y-19050000D01*
D26*
X45847000Y-20574000D02*
X47371000Y-19050000D01*
D23*
X31115000Y-19050000D02*
X40640000Y-19050000D01*
%TO.N,/B1*%
X42545000Y-19050000D02*
X44450000Y-19050000D01*
X41592500Y-18097500D02*
X42545000Y-19050000D01*
X29527500Y-18097500D02*
X41592500Y-18097500D01*
X15240000Y-30480000D02*
X17145000Y-30480000D01*
X17145000Y-30480000D02*
X29527500Y-18097500D01*
%TO.N,/B0*%
X17145000Y-27940000D02*
X15240000Y-27940000D01*
X99695000Y-17145000D02*
X98425000Y-15875000D01*
X36195000Y-46990000D02*
X40767000Y-46990000D01*
X40767000Y-46990000D02*
X42545000Y-45212000D01*
X42545000Y-45212000D02*
X98171000Y-45212000D01*
X99695000Y-43688000D02*
X99695000Y-17145000D01*
D24*
X36195000Y-46990000D02*
X36195000Y-64770000D01*
D23*
X98171000Y-45212000D02*
X99695000Y-43688000D01*
X98425000Y-15875000D02*
X29210000Y-15875000D01*
X29210000Y-15875000D02*
X17145000Y-27940000D01*
D24*
%TO.N,/M7*%
X15240000Y-96520000D02*
X19050000Y-96520000D01*
%TO.N,/M6*%
X15240000Y-93980000D02*
X19050000Y-93980000D01*
%TO.N,/M5*%
X15240000Y-91440000D02*
X19050000Y-91440000D01*
%TO.N,/M4*%
X15240000Y-88900000D02*
X19050000Y-88900000D01*
%TO.N,/M3*%
X15240000Y-86360000D02*
X19050000Y-86360000D01*
%TO.N,/M2*%
X15240000Y-83820000D02*
X19050000Y-83820000D01*
%TO.N,/M1*%
X15240000Y-81280000D02*
X19050000Y-81280000D01*
%TO.N,/M0*%
X15240000Y-78740000D02*
X19050000Y-78740000D01*
%TO.N,/M15*%
X106680000Y-92710000D02*
X109855000Y-92710000D01*
%TO.N,/M14*%
X106680000Y-90170000D02*
X109855000Y-90170000D01*
%TO.N,/M13*%
X106680000Y-87630000D02*
X109855000Y-87630000D01*
%TO.N,/M12*%
X106680000Y-85090000D02*
X109855000Y-85090000D01*
%TO.N,/M11*%
X106680000Y-82550000D02*
X109855000Y-82550000D01*
%TO.N,/M10*%
X106680000Y-80010000D02*
X109855000Y-80010000D01*
%TO.N,/M9*%
X106680000Y-77470000D02*
X109855000Y-77470000D01*
%TO.N,/M8*%
X106680000Y-74930000D02*
X109855000Y-74930000D01*
D23*
%TO.N,/~{MUL}*%
X24130000Y-79375000D02*
X24130000Y-100965000D01*
X78740000Y-109855000D02*
X93345000Y-109855000D01*
X24130000Y-100965000D02*
X29210000Y-106045000D01*
X26670000Y-78740000D02*
X24765000Y-78740000D01*
X106045000Y-72390000D02*
X104775000Y-73660000D01*
X42545000Y-109220000D02*
X78105000Y-109220000D01*
X104775000Y-73660000D02*
X104775000Y-98425000D01*
X29210000Y-106045000D02*
X29210000Y-107950000D01*
X30480000Y-107950000D02*
X31115000Y-108585000D01*
X24765000Y-78740000D02*
X24130000Y-79375000D01*
X106680000Y-72390000D02*
X106045000Y-72390000D01*
X93345000Y-109855000D02*
X104775000Y-98425000D01*
X31115000Y-108585000D02*
X41910000Y-108585000D01*
X41910000Y-108585000D02*
X42545000Y-109220000D01*
X78105000Y-109220000D02*
X78740000Y-109855000D01*
X29210000Y-107950000D02*
X30480000Y-107950000D01*
D24*
%TO.N,Net-(J6-Pin_2)*%
X92710000Y-105140000D02*
X92710000Y-106045000D01*
X92710000Y-106045000D02*
X92075000Y-106680000D01*
X92075000Y-106680000D02*
X87550000Y-106680000D01*
D25*
%TO.N,VCC*%
X44450000Y-95250000D02*
X85701002Y-95250000D01*
D24*
X95885000Y-95250000D02*
X96520000Y-95885000D01*
X33020000Y-81915000D02*
X33020000Y-95250000D01*
D23*
X93980000Y-93980000D02*
X96520000Y-91440000D01*
D25*
X36195000Y-95250000D02*
X44450000Y-95250000D01*
D24*
X93660000Y-101285000D02*
X93665000Y-101285000D01*
X34290000Y-95250000D02*
X36195000Y-95250000D01*
D23*
X100965000Y-91440000D02*
X101600000Y-90805000D01*
D24*
X93660000Y-103140000D02*
X93660000Y-101285000D01*
D23*
X103235000Y-71390000D02*
X103235000Y-69850000D01*
X101600000Y-90805000D02*
X101600000Y-73025000D01*
D24*
X33020000Y-78105000D02*
X31115000Y-76200000D01*
X93980000Y-95250000D02*
X95885000Y-95250000D01*
D25*
X85701002Y-95250000D02*
X93980000Y-95250000D01*
D23*
X93980000Y-95250000D02*
X93980000Y-93980000D01*
D24*
X96835000Y-100650000D02*
X97790000Y-99695000D01*
X33020000Y-81915000D02*
X33020000Y-78105000D01*
D23*
X96520000Y-91440000D02*
X100965000Y-91440000D01*
D24*
X26670000Y-76200000D02*
X31115000Y-76200000D01*
X34290000Y-95250000D02*
X33020000Y-95250000D01*
X93665000Y-101285000D02*
X94300000Y-100650000D01*
X96520000Y-95885000D02*
X97790000Y-95885000D01*
D23*
X103235000Y-69850000D02*
X106680000Y-69850000D01*
D24*
X94300000Y-100650000D02*
X96835000Y-100650000D01*
D23*
X101600000Y-73025000D02*
X103235000Y-71390000D01*
%TO.N,/P5*%
X44450000Y-105410000D02*
X66040000Y-105410000D01*
X31115000Y-94615000D02*
X31115000Y-102235000D01*
X43815000Y-104775000D02*
X44450000Y-105410000D01*
X26670000Y-93980000D02*
X30480000Y-93980000D01*
X33655000Y-104775000D02*
X43815000Y-104775000D01*
X31115000Y-102235000D02*
X33655000Y-104775000D01*
X30480000Y-93980000D02*
X31115000Y-94615000D01*
X66040000Y-105410000D02*
X70485000Y-100965000D01*
%TO.N,/P6*%
X29845000Y-97155000D02*
X29845000Y-102870000D01*
X33020000Y-106045000D02*
X43180000Y-106045000D01*
X43180000Y-106045000D02*
X43815000Y-106680000D01*
X29845000Y-102870000D02*
X33020000Y-106045000D01*
X43815000Y-106680000D02*
X73660000Y-106680000D01*
X26670000Y-96520000D02*
X29210000Y-96520000D01*
X73660000Y-106680000D02*
X79375000Y-100965000D01*
X29210000Y-96520000D02*
X29845000Y-97155000D01*
D24*
%TO.N,/P15*%
X99060000Y-90170000D02*
X93980000Y-90170000D01*
%TO.N,/P14*%
X93980000Y-87630000D02*
X99060000Y-87630000D01*
%TO.N,/P13*%
X93980000Y-85090000D02*
X99060000Y-85090000D01*
%TO.N,/P12*%
X93980000Y-82550000D02*
X99060000Y-82550000D01*
%TO.N,/P11*%
X93980000Y-80010000D02*
X99060000Y-80010000D01*
%TO.N,/P10*%
X93980000Y-77470000D02*
X99060000Y-77470000D01*
%TO.N,/P9*%
X93980000Y-74930000D02*
X99060000Y-74930000D01*
%TO.N,/P8*%
X93980000Y-72390000D02*
X99060000Y-72390000D01*
D23*
%TO.N,/P7*%
X28575000Y-99695000D02*
X28575000Y-103505000D01*
X74930000Y-107950000D02*
X78422500Y-104457500D01*
X28575000Y-103505000D02*
X32385000Y-107315000D01*
X43180000Y-107950000D02*
X74930000Y-107950000D01*
X27940000Y-99060000D02*
X28575000Y-99695000D01*
X42545000Y-107315000D02*
X43180000Y-107950000D01*
X26670000Y-99060000D02*
X27940000Y-99060000D01*
X32385000Y-107315000D02*
X42545000Y-107315000D01*
%TO.N,/P0*%
X24765000Y-77470000D02*
X28575000Y-77470000D01*
X30480000Y-73660000D02*
X25400000Y-73660000D01*
X29210000Y-80645000D02*
X28575000Y-81280000D01*
X28575000Y-81280000D02*
X26670000Y-81280000D01*
X29210000Y-78105000D02*
X29210000Y-80645000D01*
X24130000Y-76835000D02*
X24765000Y-77470000D01*
X36195000Y-69850000D02*
X34290000Y-69850000D01*
X28575000Y-77470000D02*
X29210000Y-78105000D01*
X34290000Y-69850000D02*
X30480000Y-73660000D01*
X24130000Y-74930000D02*
X24130000Y-76835000D01*
X25400000Y-73660000D02*
X24130000Y-74930000D01*
D24*
%TO.N,Net-(U11-Latch)*%
X41005000Y-92710000D02*
X41275000Y-92980000D01*
X36195000Y-92710000D02*
X41005000Y-92710000D01*
D23*
%TO.N,Net-(U10-A->B)*%
X101235000Y-69850000D02*
X99060000Y-69850000D01*
D26*
%TO.N,Net-(U1-S5)*%
X48895000Y-59690000D02*
X48895000Y-81915000D01*
X51435000Y-57150000D02*
X48895000Y-59690000D01*
X48895000Y-81915000D02*
X48260000Y-82550000D01*
X48260000Y-82550000D02*
X44450000Y-82550000D01*
X52705000Y-57150000D02*
X51435000Y-57150000D01*
%TO.N,Net-(U1-S4)*%
X52705000Y-54610000D02*
X51435000Y-54610000D01*
X48260000Y-79375000D02*
X47625000Y-80010000D01*
X48260000Y-57785000D02*
X48260000Y-79375000D01*
X51435000Y-54610000D02*
X48260000Y-57785000D01*
X47625000Y-80010000D02*
X44450000Y-80010000D01*
%TO.N,Net-(U1-P5)*%
X43180000Y-59690000D02*
X41275000Y-61595000D01*
X44450000Y-59690000D02*
X43180000Y-59690000D01*
X41275000Y-84455000D02*
X40640000Y-85090000D01*
X41275000Y-61595000D02*
X41275000Y-84455000D01*
X40640000Y-85090000D02*
X36195000Y-85090000D01*
%TO.N,Net-(U1-S8)*%
X50800000Y-65405000D02*
X50800000Y-89535000D01*
X52705000Y-64770000D02*
X51435000Y-64770000D01*
X51435000Y-64770000D02*
X50800000Y-65405000D01*
X50800000Y-89535000D02*
X50165000Y-90170000D01*
X50165000Y-90170000D02*
X44450000Y-90170000D01*
%TO.N,Net-(U1-P3)*%
X40005000Y-57785000D02*
X40005000Y-79375000D01*
X44450000Y-54610000D02*
X43180000Y-54610000D01*
X43180000Y-54610000D02*
X40005000Y-57785000D01*
X40005000Y-79375000D02*
X39370000Y-80010000D01*
X39370000Y-80010000D02*
X36195000Y-80010000D01*
%TO.N,Net-(U1-P4)*%
X40640000Y-81915000D02*
X40005000Y-82550000D01*
X43180000Y-57150000D02*
X40640000Y-59690000D01*
X40640000Y-59690000D02*
X40640000Y-81915000D01*
X40005000Y-82550000D02*
X36195000Y-82550000D01*
X44450000Y-57150000D02*
X43180000Y-57150000D01*
%TO.N,Net-(U1-S3)*%
X46990000Y-77470000D02*
X44450000Y-77470000D01*
X52705000Y-52070000D02*
X51435000Y-52070000D01*
X47625000Y-55880000D02*
X47625000Y-76835000D01*
X47625000Y-76835000D02*
X46990000Y-77470000D01*
X51435000Y-52070000D02*
X47625000Y-55880000D01*
%TO.N,Net-(U1-P2)*%
X39370000Y-76835000D02*
X38735000Y-77470000D01*
X39370000Y-55880000D02*
X39370000Y-76835000D01*
X43180000Y-52070000D02*
X39370000Y-55880000D01*
X38735000Y-77470000D02*
X36195000Y-77470000D01*
X44450000Y-52070000D02*
X43180000Y-52070000D01*
%TO.N,Net-(U1-P6)*%
X43180000Y-62230000D02*
X41910000Y-63500000D01*
X41910000Y-63500000D02*
X41910000Y-86995000D01*
X41910000Y-86995000D02*
X41275000Y-87630000D01*
X41275000Y-87630000D02*
X36195000Y-87630000D01*
X44450000Y-62230000D02*
X43180000Y-62230000D01*
%TO.N,Net-(U1-P1)*%
X44450000Y-49530000D02*
X43180000Y-49530000D01*
X38735000Y-74295000D02*
X38100000Y-74930000D01*
X38735000Y-53975000D02*
X38735000Y-74295000D01*
X38100000Y-74930000D02*
X36195000Y-74930000D01*
X43180000Y-49530000D02*
X38735000Y-53975000D01*
%TO.N,Net-(U1-S6)*%
X51435000Y-59690000D02*
X49530000Y-61595000D01*
X48895000Y-85090000D02*
X44450000Y-85090000D01*
X52705000Y-59690000D02*
X51435000Y-59690000D01*
X49530000Y-61595000D02*
X49530000Y-84455000D01*
X49530000Y-84455000D02*
X48895000Y-85090000D01*
%TO.N,Net-(U1-P0)*%
X37465000Y-72390000D02*
X36195000Y-72390000D01*
X38100000Y-71755000D02*
X37465000Y-72390000D01*
X43180000Y-46990000D02*
X38100000Y-52070000D01*
X38100000Y-52070000D02*
X38100000Y-71755000D01*
X44450000Y-46990000D02*
X43180000Y-46990000D01*
%TO.N,Net-(U1-S1)*%
X46355000Y-52070000D02*
X46355000Y-71755000D01*
X52705000Y-46990000D02*
X51435000Y-46990000D01*
X46355000Y-71755000D02*
X45720000Y-72390000D01*
X45720000Y-72390000D02*
X44450000Y-72390000D01*
X51435000Y-46990000D02*
X46355000Y-52070000D01*
%TO.N,Net-(U1-S7)*%
X52705000Y-62230000D02*
X51435000Y-62230000D01*
X51435000Y-62230000D02*
X50165000Y-63500000D01*
X50165000Y-86995000D02*
X49530000Y-87630000D01*
X50165000Y-63500000D02*
X50165000Y-86995000D01*
X49530000Y-87630000D02*
X44450000Y-87630000D01*
%TO.N,Net-(U1-S2)*%
X51435000Y-49530000D02*
X46990000Y-53975000D01*
X46990000Y-74295000D02*
X46355000Y-74930000D01*
X46990000Y-53975000D02*
X46990000Y-74295000D01*
X46355000Y-74930000D02*
X44450000Y-74930000D01*
X52705000Y-49530000D02*
X51435000Y-49530000D01*
%TO.N,Net-(U2-S5)*%
X56515000Y-82550000D02*
X52705000Y-82550000D01*
X57150000Y-59690000D02*
X57150000Y-81915000D01*
X59690000Y-57150000D02*
X57150000Y-59690000D01*
X60960000Y-57150000D02*
X59690000Y-57150000D01*
X57150000Y-81915000D02*
X56515000Y-82550000D01*
%TO.N,Net-(U2-S2)*%
X55245000Y-53975000D02*
X55245000Y-74295000D01*
X54610000Y-74930000D02*
X52705000Y-74930000D01*
X60960000Y-49530000D02*
X59690000Y-49530000D01*
X59690000Y-49530000D02*
X55245000Y-53975000D01*
X55245000Y-74295000D02*
X54610000Y-74930000D01*
%TO.N,Net-(U2-S1)*%
X59690000Y-46990000D02*
X54610000Y-52070000D01*
X53975000Y-72390000D02*
X52705000Y-72390000D01*
X54610000Y-52070000D02*
X54610000Y-71755000D01*
X54610000Y-71755000D02*
X53975000Y-72390000D01*
X60960000Y-46990000D02*
X59690000Y-46990000D01*
%TO.N,Net-(U2-S3)*%
X55880000Y-76835000D02*
X55245000Y-77470000D01*
X55245000Y-77470000D02*
X52705000Y-77470000D01*
X59690000Y-52070000D02*
X55880000Y-55880000D01*
X60960000Y-52070000D02*
X59690000Y-52070000D01*
X55880000Y-55880000D02*
X55880000Y-76835000D01*
%TO.N,Net-(U2-S8)*%
X59690000Y-64770000D02*
X59055000Y-65405000D01*
X60960000Y-64770000D02*
X59690000Y-64770000D01*
X59055000Y-89535000D02*
X58420000Y-90170000D01*
X59055000Y-65405000D02*
X59055000Y-89535000D01*
X58420000Y-90170000D02*
X52705000Y-90170000D01*
%TO.N,Net-(U2-S4)*%
X60960000Y-54610000D02*
X59690000Y-54610000D01*
X56515000Y-57785000D02*
X56515000Y-79375000D01*
X56515000Y-79375000D02*
X55880000Y-80010000D01*
X59690000Y-54610000D02*
X56515000Y-57785000D01*
X55880000Y-80010000D02*
X52705000Y-80010000D01*
%TO.N,Net-(U2-S7)*%
X60960000Y-62230000D02*
X59690000Y-62230000D01*
X58420000Y-86995000D02*
X57785000Y-87630000D01*
X58420000Y-63500000D02*
X58420000Y-86995000D01*
X59690000Y-62230000D02*
X58420000Y-63500000D01*
X57785000Y-87630000D02*
X52705000Y-87630000D01*
%TO.N,Net-(U2-S6)*%
X57785000Y-84455000D02*
X57150000Y-85090000D01*
X60960000Y-59690000D02*
X59690000Y-59690000D01*
X57785000Y-61595000D02*
X57785000Y-84455000D01*
X57150000Y-85090000D02*
X52705000Y-85090000D01*
X59690000Y-59690000D02*
X57785000Y-61595000D01*
%TO.N,Net-(U3-S4)*%
X69215000Y-54610000D02*
X67945000Y-54610000D01*
X67945000Y-54610000D02*
X64770000Y-57785000D01*
X64770000Y-79375000D02*
X64135000Y-80010000D01*
X64770000Y-57785000D02*
X64770000Y-79375000D01*
X64135000Y-80010000D02*
X60960000Y-80010000D01*
%TO.N,Net-(U3-S1)*%
X67945000Y-46990000D02*
X62865000Y-52070000D01*
X69215000Y-46990000D02*
X67945000Y-46990000D01*
X62865000Y-52070000D02*
X62865000Y-71755000D01*
X62230000Y-72390000D02*
X60960000Y-72390000D01*
X62865000Y-71755000D02*
X62230000Y-72390000D01*
%TO.N,Net-(U3-S7)*%
X66675000Y-63500000D02*
X66675000Y-86995000D01*
X66675000Y-86995000D02*
X66040000Y-87630000D01*
X69215000Y-62230000D02*
X67945000Y-62230000D01*
X67945000Y-62230000D02*
X66675000Y-63500000D01*
X66040000Y-87630000D02*
X60960000Y-87630000D01*
%TO.N,Net-(U3-S5)*%
X64770000Y-82550000D02*
X60960000Y-82550000D01*
X65405000Y-59690000D02*
X65405000Y-81915000D01*
X65405000Y-81915000D02*
X64770000Y-82550000D01*
X69215000Y-57150000D02*
X67945000Y-57150000D01*
X67945000Y-57150000D02*
X65405000Y-59690000D01*
%TO.N,Net-(U3-S6)*%
X65405000Y-85090000D02*
X60960000Y-85090000D01*
X67945000Y-59690000D02*
X66040000Y-61595000D01*
X69215000Y-59690000D02*
X67945000Y-59690000D01*
X66040000Y-61595000D02*
X66040000Y-84455000D01*
X66040000Y-84455000D02*
X65405000Y-85090000D01*
%TO.N,Net-(U3-S8)*%
X67310000Y-89535000D02*
X66675000Y-90170000D01*
X67945000Y-64770000D02*
X67310000Y-65405000D01*
X69215000Y-64770000D02*
X67945000Y-64770000D01*
X66675000Y-90170000D02*
X60960000Y-90170000D01*
X67310000Y-65405000D02*
X67310000Y-89535000D01*
%TO.N,Net-(U3-S2)*%
X63500000Y-74295000D02*
X62865000Y-74930000D01*
X63500000Y-53975000D02*
X63500000Y-74295000D01*
X67945000Y-49530000D02*
X63500000Y-53975000D01*
X69215000Y-49530000D02*
X67945000Y-49530000D01*
X62865000Y-74930000D02*
X60960000Y-74930000D01*
%TO.N,Net-(U3-S3)*%
X64135000Y-55880000D02*
X64135000Y-76835000D01*
X64135000Y-76835000D02*
X63500000Y-77470000D01*
X69215000Y-52070000D02*
X67945000Y-52070000D01*
X63500000Y-77470000D02*
X60960000Y-77470000D01*
X67945000Y-52070000D02*
X64135000Y-55880000D01*
%TO.N,Net-(U4-S4)*%
X73025000Y-57785000D02*
X73025000Y-79375000D01*
X77470000Y-54610000D02*
X76200000Y-54610000D01*
X76200000Y-54610000D02*
X73025000Y-57785000D01*
X73025000Y-79375000D02*
X72390000Y-80010000D01*
X72390000Y-80010000D02*
X69215000Y-80010000D01*
%TO.N,Net-(U4-S3)*%
X71755000Y-77470000D02*
X69215000Y-77470000D01*
X77470000Y-52070000D02*
X76200000Y-52070000D01*
X72390000Y-55880000D02*
X72390000Y-76835000D01*
X76200000Y-52070000D02*
X72390000Y-55880000D01*
X72390000Y-76835000D02*
X71755000Y-77470000D01*
%TO.N,Net-(U4-S6)*%
X74295000Y-61595000D02*
X74295000Y-84455000D01*
X74295000Y-84455000D02*
X73660000Y-85090000D01*
X76200000Y-59690000D02*
X74295000Y-61595000D01*
X73660000Y-85090000D02*
X69215000Y-85090000D01*
X77470000Y-59690000D02*
X76200000Y-59690000D01*
%TO.N,Net-(U4-S2)*%
X71120000Y-74930000D02*
X69215000Y-74930000D01*
X71755000Y-53975000D02*
X71755000Y-74295000D01*
X71755000Y-74295000D02*
X71120000Y-74930000D01*
X76200000Y-49530000D02*
X71755000Y-53975000D01*
X77470000Y-49530000D02*
X76200000Y-49530000D01*
%TO.N,Net-(U4-S1)*%
X76200000Y-46990000D02*
X71120000Y-52070000D01*
X71120000Y-52070000D02*
X71120000Y-71755000D01*
X70485000Y-72390000D02*
X69215000Y-72390000D01*
X71120000Y-71755000D02*
X70485000Y-72390000D01*
X77470000Y-46990000D02*
X76200000Y-46990000D01*
%TO.N,Net-(U4-S7)*%
X74930000Y-86995000D02*
X74295000Y-87630000D01*
X77470000Y-62230000D02*
X76200000Y-62230000D01*
X74930000Y-63500000D02*
X74930000Y-86995000D01*
X76200000Y-62230000D02*
X74930000Y-63500000D01*
X74295000Y-87630000D02*
X69215000Y-87630000D01*
%TO.N,Net-(U4-S5)*%
X73660000Y-59690000D02*
X73660000Y-81915000D01*
X76200000Y-57150000D02*
X73660000Y-59690000D01*
X73025000Y-82550000D02*
X69215000Y-82550000D01*
X77470000Y-57150000D02*
X76200000Y-57150000D01*
X73660000Y-81915000D02*
X73025000Y-82550000D01*
%TO.N,Net-(U4-S8)*%
X76200000Y-64770000D02*
X75565000Y-65405000D01*
X75565000Y-89535000D02*
X74930000Y-90170000D01*
X75565000Y-65405000D02*
X75565000Y-89535000D01*
X77470000Y-64770000D02*
X76200000Y-64770000D01*
X74930000Y-90170000D02*
X69215000Y-90170000D01*
%TO.N,Net-(U5-S4)*%
X81280000Y-57785000D02*
X81280000Y-79375000D01*
X85725000Y-54610000D02*
X84455000Y-54610000D01*
X84455000Y-54610000D02*
X81280000Y-57785000D01*
X80645000Y-80010000D02*
X77470000Y-80010000D01*
X81280000Y-79375000D02*
X80645000Y-80010000D01*
%TO.N,Net-(U5-S2)*%
X79375000Y-74930000D02*
X77470000Y-74930000D01*
X85725000Y-49530000D02*
X84455000Y-49530000D01*
X80010000Y-53975000D02*
X80010000Y-74295000D01*
X84455000Y-49530000D02*
X80010000Y-53975000D01*
X80010000Y-74295000D02*
X79375000Y-74930000D01*
%TO.N,Net-(U5-S8)*%
X85725000Y-64770000D02*
X84455000Y-64770000D01*
X84455000Y-64770000D02*
X83820000Y-65405000D01*
X83185000Y-90170000D02*
X77470000Y-90170000D01*
X83820000Y-89535000D02*
X83185000Y-90170000D01*
X83820000Y-65405000D02*
X83820000Y-89535000D01*
%TO.N,Net-(U5-S3)*%
X80010000Y-77470000D02*
X77470000Y-77470000D01*
X80645000Y-76835000D02*
X80010000Y-77470000D01*
X80645000Y-55880000D02*
X80645000Y-76835000D01*
X85725000Y-52070000D02*
X84455000Y-52070000D01*
X84455000Y-52070000D02*
X80645000Y-55880000D01*
%TO.N,Net-(U5-S7)*%
X83185000Y-63500000D02*
X83185000Y-86995000D01*
X82550000Y-87630000D02*
X77470000Y-87630000D01*
X85725000Y-62230000D02*
X84455000Y-62230000D01*
X83185000Y-86995000D02*
X82550000Y-87630000D01*
X84455000Y-62230000D02*
X83185000Y-63500000D01*
%TO.N,Net-(U5-S1)*%
X85725000Y-46990000D02*
X84455000Y-46990000D01*
X78740000Y-72390000D02*
X77470000Y-72390000D01*
X79375000Y-52070000D02*
X79375000Y-71755000D01*
X84455000Y-46990000D02*
X79375000Y-52070000D01*
X79375000Y-71755000D02*
X78740000Y-72390000D01*
%TO.N,Net-(U5-S5)*%
X85725000Y-57150000D02*
X84455000Y-57150000D01*
X84455000Y-57150000D02*
X81915000Y-59690000D01*
X81915000Y-81915000D02*
X81280000Y-82550000D01*
X81915000Y-59690000D02*
X81915000Y-81915000D01*
X81280000Y-82550000D02*
X77470000Y-82550000D01*
%TO.N,Net-(U5-S6)*%
X84455000Y-59690000D02*
X82550000Y-61595000D01*
X85725000Y-59690000D02*
X84455000Y-59690000D01*
X82550000Y-84455000D02*
X81915000Y-85090000D01*
X82550000Y-61595000D02*
X82550000Y-84455000D01*
X81915000Y-85090000D02*
X77470000Y-85090000D01*
%TO.N,Net-(U6-S1)*%
X86995000Y-72390000D02*
X85725000Y-72390000D01*
X93980000Y-46990000D02*
X92710000Y-46990000D01*
X87630000Y-52070000D02*
X87630000Y-71755000D01*
X87630000Y-71755000D02*
X86995000Y-72390000D01*
X92710000Y-46990000D02*
X87630000Y-52070000D01*
%TO.N,Net-(U6-S2)*%
X93980000Y-49530000D02*
X92710000Y-49530000D01*
X92710000Y-49530000D02*
X88265000Y-53975000D01*
X88265000Y-53975000D02*
X88265000Y-74295000D01*
X87630000Y-74930000D02*
X85725000Y-74930000D01*
X88265000Y-74295000D02*
X87630000Y-74930000D01*
%TO.N,Net-(U6-S4)*%
X89535000Y-57785000D02*
X89535000Y-79375000D01*
X92710000Y-54610000D02*
X89535000Y-57785000D01*
X89535000Y-79375000D02*
X88900000Y-80010000D01*
X88900000Y-80010000D02*
X85725000Y-80010000D01*
X93980000Y-54610000D02*
X92710000Y-54610000D01*
%TO.N,Net-(U6-S5)*%
X90170000Y-59690000D02*
X90170000Y-81915000D01*
X93980000Y-57150000D02*
X92710000Y-57150000D01*
X90170000Y-81915000D02*
X89535000Y-82550000D01*
X89535000Y-82550000D02*
X85725000Y-82550000D01*
X92710000Y-57150000D02*
X90170000Y-59690000D01*
%TO.N,Net-(U6-S8)*%
X93980000Y-64770000D02*
X92710000Y-64770000D01*
X91440000Y-90170000D02*
X85725000Y-90170000D01*
X92710000Y-64770000D02*
X92075000Y-65405000D01*
X92075000Y-89535000D02*
X91440000Y-90170000D01*
X92075000Y-65405000D02*
X92075000Y-89535000D01*
%TO.N,Net-(U6-S3)*%
X88900000Y-55880000D02*
X88900000Y-76835000D01*
X88900000Y-76835000D02*
X88265000Y-77470000D01*
X93980000Y-52070000D02*
X92710000Y-52070000D01*
X92710000Y-52070000D02*
X88900000Y-55880000D01*
X88265000Y-77470000D02*
X85725000Y-77470000D01*
%TO.N,Net-(U6-S6)*%
X90805000Y-84455000D02*
X90170000Y-85090000D01*
X93980000Y-59690000D02*
X92710000Y-59690000D01*
X90805000Y-61595000D02*
X90805000Y-84455000D01*
X90170000Y-85090000D02*
X85725000Y-85090000D01*
X92710000Y-59690000D02*
X90805000Y-61595000D01*
%TO.N,Net-(U6-S7)*%
X90805000Y-87630000D02*
X85725000Y-87630000D01*
X91440000Y-63500000D02*
X91440000Y-86995000D01*
X92710000Y-62230000D02*
X91440000Y-63500000D01*
X91440000Y-86995000D02*
X90805000Y-87630000D01*
X93980000Y-62230000D02*
X92710000Y-62230000D01*
%TD*%
M02*
