%TF.GenerationSoftware,KiCad,Pcbnew,9.0.6*%
%TF.CreationDate,2026-03-28T23:31:05+03:00*%
%TF.ProjectId,MUX8x1-1bit,4d555838-7831-42d3-9162-69742e6b6963,rev?*%
%TF.SameCoordinates,Original*%
%TF.FileFunction,Soldermask,Top*%
%TF.FilePolarity,Negative*%
%FSLAX46Y46*%
G04 Gerber Fmt 4.6, Leading zero omitted, Abs format (unit mm)*
G04 Created by KiCad (PCBNEW 9.0.6) date 2026-03-28 23:31:05*
%MOMM*%
%LPD*%
G01*
G04 APERTURE LIST*
G04 Aperture macros list*
%AMRoundRect*
0 Rectangle with rounded corners*
0 $1 Rounding radius*
0 $2 $3 $4 $5 $6 $7 $8 $9 X,Y pos of 4 corners*
0 Add a 4 corners polygon primitive as box body*
4,1,4,$2,$3,$4,$5,$6,$7,$8,$9,$2,$3,0*
0 Add four circle primitives for the rounded corners*
1,1,$1+$1,$2,$3*
1,1,$1+$1,$4,$5*
1,1,$1+$1,$6,$7*
1,1,$1+$1,$8,$9*
0 Add four rect primitives between the rounded corners*
20,1,$1+$1,$2,$3,$4,$5,0*
20,1,$1+$1,$4,$5,$6,$7,0*
20,1,$1+$1,$6,$7,$8,$9,0*
20,1,$1+$1,$8,$9,$2,$3,0*%
G04 Aperture macros list end*
%ADD10RoundRect,0.250000X-0.475000X0.337500X-0.475000X-0.337500X0.475000X-0.337500X0.475000X0.337500X0*%
%ADD11R,1.700000X1.800000*%
%ADD12R,1.700000X1.700000*%
%ADD13R,1.800000X1.700000*%
%ADD14C,2.000000*%
%ADD15R,1.800000X1.500000*%
%ADD16RoundRect,0.150000X0.150000X-0.725000X0.150000X0.725000X-0.150000X0.725000X-0.150000X-0.725000X0*%
%ADD17RoundRect,0.249999X0.450001X-0.350001X0.450001X0.350001X-0.450001X0.350001X-0.450001X-0.350001X0*%
%ADD18RoundRect,0.249999X-0.450001X0.350001X-0.450001X-0.350001X0.450001X-0.350001X0.450001X0.350001X0*%
G04 APERTURE END LIST*
D10*
%TO.C,C1*%
X64135000Y-42227500D03*
X64135000Y-44302500D03*
%TD*%
%TO.C,C2*%
X116840000Y-44915000D03*
X116840000Y-46990000D03*
%TD*%
D11*
%TO.C,J1*%
X142240000Y-58490000D03*
%TD*%
D12*
%TO.C,J2*%
X124460000Y-58490000D03*
%TD*%
%TO.C,J3*%
X106680000Y-58490000D03*
%TD*%
%TO.C,J4*%
X88900000Y-58490000D03*
%TD*%
%TO.C,J5*%
X71120000Y-58490000D03*
%TD*%
%TO.C,J6*%
X53340000Y-58490000D03*
%TD*%
%TO.C,J7*%
X35560000Y-58490000D03*
%TD*%
%TO.C,J8*%
X17780000Y-58490000D03*
%TD*%
D13*
%TO.C,J9*%
X142240000Y-26670000D03*
D14*
X142240000Y-29210000D03*
X142240000Y-31750000D03*
%TD*%
D15*
%TO.C,J10*%
X142240000Y-34290000D03*
%TD*%
%TO.C,J13*%
X142240000Y-49530000D03*
%TD*%
%TO.C,J11*%
X142240000Y-36830000D03*
D14*
X142240000Y-39370000D03*
X142240000Y-41910000D03*
%TD*%
D15*
%TO.C,J12*%
X142240000Y-44450000D03*
%TD*%
%TO.C,J14*%
X142240000Y-52070000D03*
%TD*%
D16*
%TO.C,U1*%
X66675000Y-45720000D03*
X67945000Y-45720000D03*
X69215000Y-45720000D03*
X70485000Y-45720000D03*
X71755000Y-45720000D03*
X73025000Y-45720000D03*
X74295000Y-45720000D03*
X75565000Y-45720000D03*
X75565000Y-40570000D03*
X74295000Y-40570000D03*
X73025000Y-40570000D03*
X71755000Y-40570000D03*
X70485000Y-40570000D03*
X69215000Y-40570000D03*
X67945000Y-40570000D03*
X66675000Y-40570000D03*
%TD*%
%TO.C,U2*%
X102870000Y-47025000D03*
X104140000Y-47025000D03*
X105410000Y-47025000D03*
X106680000Y-47025000D03*
X107950000Y-47025000D03*
X109220000Y-47025000D03*
X110490000Y-47025000D03*
X111760000Y-47025000D03*
X111760000Y-41875000D03*
X110490000Y-41875000D03*
X109220000Y-41875000D03*
X107950000Y-41875000D03*
X106680000Y-41875000D03*
X105410000Y-41875000D03*
X104140000Y-41875000D03*
X102870000Y-41875000D03*
%TD*%
D15*
%TO.C,J15*%
X142240000Y-24130000D03*
%TD*%
D13*
%TO.C,J16*%
X142240000Y-54610000D03*
%TD*%
D17*
%TO.C,R1*%
X78105000Y-47955000D03*
X78105000Y-45955000D03*
%TD*%
D18*
%TO.C,R2*%
X114300000Y-44990000D03*
X114300000Y-46990000D03*
%TD*%
M02*
