%TF.GenerationSoftware,KiCad,Pcbnew,9.0.6*%
%TF.CreationDate,2026-03-30T17:07:16+03:00*%
%TF.ProjectId,MUX8x1-1bit,4d555838-7831-42d3-9162-69742e6b6963,rev?*%
%TF.SameCoordinates,Original*%
%TF.FileFunction,Copper,L2,Bot*%
%TF.FilePolarity,Positive*%
%FSLAX46Y46*%
G04 Gerber Fmt 4.6, Leading zero omitted, Abs format (unit mm)*
G04 Created by KiCad (PCBNEW 9.0.6) date 2026-03-30 17:07:16*
%MOMM*%
%LPD*%
G01*
G04 APERTURE LIST*
%TA.AperFunction,ComponentPad*%
%ADD10R,1.700000X1.700000*%
%TD*%
%TA.AperFunction,ComponentPad*%
%ADD11R,1.800000X1.700000*%
%TD*%
%TA.AperFunction,ComponentPad*%
%ADD12C,2.000000*%
%TD*%
%TA.AperFunction,ComponentPad*%
%ADD13R,1.800000X1.500000*%
%TD*%
%TA.AperFunction,ComponentPad*%
%ADD14O,2.000000X1.500000*%
%TD*%
%TA.AperFunction,ViaPad*%
%ADD15C,1.300000*%
%TD*%
%TA.AperFunction,ViaPad*%
%ADD16C,1.500000*%
%TD*%
%TA.AperFunction,Conductor*%
%ADD17C,0.600000*%
%TD*%
%TA.AperFunction,Conductor*%
%ADD18C,0.500000*%
%TD*%
G04 APERTURE END LIST*
D10*
%TO.P,J1,1,Pin_1*%
%TO.N,/D0*%
X142240000Y-62300000D03*
%TD*%
%TO.P,J2,1,Pin_1*%
%TO.N,/D1*%
X124460000Y-62300000D03*
%TD*%
%TO.P,J3,1,Pin_1*%
%TO.N,/D2*%
X106680000Y-62300000D03*
%TD*%
%TO.P,J4,1,Pin_1*%
%TO.N,/D3*%
X88900000Y-62300000D03*
%TD*%
%TO.P,J5,1,Pin_1*%
%TO.N,/D4*%
X71120000Y-62300000D03*
%TD*%
%TO.P,J6,1,Pin_1*%
%TO.N,/D5*%
X53340000Y-62300000D03*
%TD*%
%TO.P,J7,1,Pin_1*%
%TO.N,/D6*%
X35560000Y-62300000D03*
%TD*%
%TO.P,J8,1,Pin_1*%
%TO.N,/D7*%
X17780000Y-62230000D03*
%TD*%
D11*
%TO.P,J9,1,Pin_1*%
%TO.N,/S0.0*%
X142240000Y-38100000D03*
D12*
%TO.P,J9,2,Pin_2*%
%TO.N,/S0.1*%
X142240000Y-40640000D03*
%TO.P,J9,3,Pin_3*%
%TO.N,/S0.2*%
X142240000Y-43180000D03*
%TD*%
D13*
%TO.P,J10,1,Pin_1*%
%TO.N,/~{E0}*%
X142240000Y-45720000D03*
%TD*%
%TO.P,J13,1,Pin_1*%
%TO.N,/O0*%
X142300000Y-30480000D03*
%TD*%
%TO.P,J11,1,Pin_1*%
%TO.N,/S1.0*%
X142240000Y-48260000D03*
D12*
%TO.P,J11,2,Pin_2*%
%TO.N,/S1.1*%
X142240000Y-50800000D03*
D14*
%TO.P,J11,3,Pin_3*%
%TO.N,/S1.2*%
X142240000Y-53340000D03*
%TD*%
D13*
%TO.P,J12,1,Pin_1*%
%TO.N,/~{E1}*%
X142240000Y-55880000D03*
%TD*%
%TO.P,J14,1,Pin_1*%
%TO.N,/O1*%
X142300000Y-27940000D03*
%TD*%
%TO.P,J15,1,Pin_1*%
%TO.N,VCC*%
X142240000Y-35560000D03*
%TD*%
D11*
%TO.P,J16,1,Pin_1*%
%TO.N,GND*%
X142240000Y-58420000D03*
%TD*%
D15*
%TO.N,*%
X101600000Y-52387500D03*
X65405000Y-51117500D03*
D16*
%TO.N,VCC*%
X66040000Y-35877500D03*
X116840000Y-31115000D03*
X116840000Y-42545000D03*
X66040000Y-41910000D03*
%TO.N,/~{E0}*%
X95885000Y-45720000D03*
X95885000Y-38735000D03*
%TO.N,/O0*%
X100330000Y-31432500D03*
X100330000Y-45085000D03*
%TO.N,/~{E1}*%
X136525000Y-55880000D03*
X132715000Y-55880000D03*
%TD*%
D17*
%TO.N,VCC*%
X66040000Y-35877500D02*
X66040000Y-41910000D01*
D18*
X116840000Y-31115000D02*
X116840000Y-42545000D01*
%TO.N,/~{E0}*%
X95885000Y-45720000D02*
X95885000Y-38735000D01*
%TO.N,/O0*%
X100330000Y-31432500D02*
X100330000Y-45085000D01*
%TO.N,/~{E1}*%
X132715000Y-55880000D02*
X136525000Y-55880000D01*
%TD*%
M02*
