%TF.GenerationSoftware,KiCad,Pcbnew,9.0.6*%
%TF.CreationDate,2026-03-30T17:07:16+03:00*%
%TF.ProjectId,MUX8x1-1bit,4d555838-7831-42d3-9162-69742e6b6963,rev?*%
%TF.SameCoordinates,Original*%
%TF.FileFunction,Legend,Top*%
%TF.FilePolarity,Positive*%
%FSLAX46Y46*%
G04 Gerber Fmt 4.6, Leading zero omitted, Abs format (unit mm)*
G04 Created by KiCad (PCBNEW 9.0.6) date 2026-03-30 17:07:16*
%MOMM*%
%LPD*%
G01*
G04 APERTURE LIST*
%ADD10C,0.120000*%
%ADD11C,0.150000*%
%ADD12C,0.300000*%
%ADD13C,0.500000*%
G04 APERTURE END LIST*
D10*
X139065000Y-47625000D02*
X139065000Y-53975000D01*
X142240000Y-25400000D02*
X142240000Y-64770000D01*
X139065000Y-37450000D02*
X139065000Y-43800000D01*
D11*
X139652381Y-37539819D02*
X139747619Y-37539819D01*
X139747619Y-37539819D02*
X139842857Y-37587438D01*
X139842857Y-37587438D02*
X139890476Y-37635057D01*
X139890476Y-37635057D02*
X139938095Y-37730295D01*
X139938095Y-37730295D02*
X139985714Y-37920771D01*
X139985714Y-37920771D02*
X139985714Y-38158866D01*
X139985714Y-38158866D02*
X139938095Y-38349342D01*
X139938095Y-38349342D02*
X139890476Y-38444580D01*
X139890476Y-38444580D02*
X139842857Y-38492200D01*
X139842857Y-38492200D02*
X139747619Y-38539819D01*
X139747619Y-38539819D02*
X139652381Y-38539819D01*
X139652381Y-38539819D02*
X139557143Y-38492200D01*
X139557143Y-38492200D02*
X139509524Y-38444580D01*
X139509524Y-38444580D02*
X139461905Y-38349342D01*
X139461905Y-38349342D02*
X139414286Y-38158866D01*
X139414286Y-38158866D02*
X139414286Y-37920771D01*
X139414286Y-37920771D02*
X139461905Y-37730295D01*
X139461905Y-37730295D02*
X139509524Y-37635057D01*
X139509524Y-37635057D02*
X139557143Y-37587438D01*
X139557143Y-37587438D02*
X139652381Y-37539819D01*
X139985714Y-41079819D02*
X139414286Y-41079819D01*
X139700000Y-41079819D02*
X139700000Y-40079819D01*
X139700000Y-40079819D02*
X139604762Y-40222676D01*
X139604762Y-40222676D02*
X139509524Y-40317914D01*
X139509524Y-40317914D02*
X139414286Y-40365533D01*
X139414286Y-42715057D02*
X139461905Y-42667438D01*
X139461905Y-42667438D02*
X139557143Y-42619819D01*
X139557143Y-42619819D02*
X139795238Y-42619819D01*
X139795238Y-42619819D02*
X139890476Y-42667438D01*
X139890476Y-42667438D02*
X139938095Y-42715057D01*
X139938095Y-42715057D02*
X139985714Y-42810295D01*
X139985714Y-42810295D02*
X139985714Y-42905533D01*
X139985714Y-42905533D02*
X139938095Y-43048390D01*
X139938095Y-43048390D02*
X139366667Y-43619819D01*
X139366667Y-43619819D02*
X139985714Y-43619819D01*
X138202200Y-41401904D02*
X138249819Y-41259047D01*
X138249819Y-41259047D02*
X138249819Y-41020952D01*
X138249819Y-41020952D02*
X138202200Y-40925714D01*
X138202200Y-40925714D02*
X138154580Y-40878095D01*
X138154580Y-40878095D02*
X138059342Y-40830476D01*
X138059342Y-40830476D02*
X137964104Y-40830476D01*
X137964104Y-40830476D02*
X137868866Y-40878095D01*
X137868866Y-40878095D02*
X137821247Y-40925714D01*
X137821247Y-40925714D02*
X137773628Y-41020952D01*
X137773628Y-41020952D02*
X137726009Y-41211428D01*
X137726009Y-41211428D02*
X137678390Y-41306666D01*
X137678390Y-41306666D02*
X137630771Y-41354285D01*
X137630771Y-41354285D02*
X137535533Y-41401904D01*
X137535533Y-41401904D02*
X137440295Y-41401904D01*
X137440295Y-41401904D02*
X137345057Y-41354285D01*
X137345057Y-41354285D02*
X137297438Y-41306666D01*
X137297438Y-41306666D02*
X137249819Y-41211428D01*
X137249819Y-41211428D02*
X137249819Y-40973333D01*
X137249819Y-40973333D02*
X137297438Y-40830476D01*
X137249819Y-40211428D02*
X137249819Y-40116190D01*
X137249819Y-40116190D02*
X137297438Y-40020952D01*
X137297438Y-40020952D02*
X137345057Y-39973333D01*
X137345057Y-39973333D02*
X137440295Y-39925714D01*
X137440295Y-39925714D02*
X137630771Y-39878095D01*
X137630771Y-39878095D02*
X137868866Y-39878095D01*
X137868866Y-39878095D02*
X138059342Y-39925714D01*
X138059342Y-39925714D02*
X138154580Y-39973333D01*
X138154580Y-39973333D02*
X138202200Y-40020952D01*
X138202200Y-40020952D02*
X138249819Y-40116190D01*
X138249819Y-40116190D02*
X138249819Y-40211428D01*
X138249819Y-40211428D02*
X138202200Y-40306666D01*
X138202200Y-40306666D02*
X138154580Y-40354285D01*
X138154580Y-40354285D02*
X138059342Y-40401904D01*
X138059342Y-40401904D02*
X137868866Y-40449523D01*
X137868866Y-40449523D02*
X137630771Y-40449523D01*
X137630771Y-40449523D02*
X137440295Y-40401904D01*
X137440295Y-40401904D02*
X137345057Y-40354285D01*
X137345057Y-40354285D02*
X137297438Y-40306666D01*
X137297438Y-40306666D02*
X137249819Y-40211428D01*
X105229819Y-48926666D02*
X105229819Y-49498094D01*
X105229819Y-49212380D02*
X104229819Y-49212380D01*
X104229819Y-49212380D02*
X104372676Y-49307618D01*
X104372676Y-49307618D02*
X104467914Y-49402856D01*
X104467914Y-49402856D02*
X104515533Y-49498094D01*
X104229819Y-48021904D02*
X104229819Y-48498094D01*
X104229819Y-48498094D02*
X104706009Y-48545713D01*
X104706009Y-48545713D02*
X104658390Y-48498094D01*
X104658390Y-48498094D02*
X104610771Y-48402856D01*
X104610771Y-48402856D02*
X104610771Y-48164761D01*
X104610771Y-48164761D02*
X104658390Y-48069523D01*
X104658390Y-48069523D02*
X104706009Y-48021904D01*
X104706009Y-48021904D02*
X104801247Y-47974285D01*
X104801247Y-47974285D02*
X105039342Y-47974285D01*
X105039342Y-47974285D02*
X105134580Y-48021904D01*
X105134580Y-48021904D02*
X105182200Y-48069523D01*
X105182200Y-48069523D02*
X105229819Y-48164761D01*
X105229819Y-48164761D02*
X105229819Y-48402856D01*
X105229819Y-48402856D02*
X105182200Y-48498094D01*
X105182200Y-48498094D02*
X105134580Y-48545713D01*
X105229819Y-47021904D02*
X105229819Y-47593332D01*
X105229819Y-47307618D02*
X104229819Y-47307618D01*
X104229819Y-47307618D02*
X104372676Y-47402856D01*
X104372676Y-47402856D02*
X104467914Y-47498094D01*
X104467914Y-47498094D02*
X104515533Y-47593332D01*
D12*
X33952857Y-48938328D02*
X33095714Y-48938328D01*
X33524285Y-48938328D02*
X33524285Y-47438328D01*
X33524285Y-47438328D02*
X33381428Y-47652614D01*
X33381428Y-47652614D02*
X33238571Y-47795471D01*
X33238571Y-47795471D02*
X33095714Y-47866900D01*
X35738570Y-48938328D02*
X35738570Y-47438328D01*
X35738570Y-48009757D02*
X35881428Y-47938328D01*
X35881428Y-47938328D02*
X36167142Y-47938328D01*
X36167142Y-47938328D02*
X36309999Y-48009757D01*
X36309999Y-48009757D02*
X36381428Y-48081185D01*
X36381428Y-48081185D02*
X36452856Y-48224042D01*
X36452856Y-48224042D02*
X36452856Y-48652614D01*
X36452856Y-48652614D02*
X36381428Y-48795471D01*
X36381428Y-48795471D02*
X36309999Y-48866900D01*
X36309999Y-48866900D02*
X36167142Y-48938328D01*
X36167142Y-48938328D02*
X35881428Y-48938328D01*
X35881428Y-48938328D02*
X35738570Y-48866900D01*
X37095713Y-48938328D02*
X37095713Y-47938328D01*
X37095713Y-47438328D02*
X37024285Y-47509757D01*
X37024285Y-47509757D02*
X37095713Y-47581185D01*
X37095713Y-47581185D02*
X37167142Y-47509757D01*
X37167142Y-47509757D02*
X37095713Y-47438328D01*
X37095713Y-47438328D02*
X37095713Y-47581185D01*
X37595714Y-47938328D02*
X38167142Y-47938328D01*
X37809999Y-47438328D02*
X37809999Y-48724042D01*
X37809999Y-48724042D02*
X37881428Y-48866900D01*
X37881428Y-48866900D02*
X38024285Y-48938328D01*
X38024285Y-48938328D02*
X38167142Y-48938328D01*
D11*
X139009524Y-55811009D02*
X139342857Y-55811009D01*
X139485714Y-56334819D02*
X139009524Y-56334819D01*
X139009524Y-56334819D02*
X139009524Y-55334819D01*
X139009524Y-55334819D02*
X139485714Y-55334819D01*
X140438095Y-56334819D02*
X139866667Y-56334819D01*
X140152381Y-56334819D02*
X140152381Y-55334819D01*
X140152381Y-55334819D02*
X140057143Y-55477676D01*
X140057143Y-55477676D02*
X139961905Y-55572914D01*
X139961905Y-55572914D02*
X139866667Y-55620533D01*
X138871429Y-55057200D02*
X140528572Y-55057200D01*
X103401905Y-62684819D02*
X103401905Y-61684819D01*
X103401905Y-61684819D02*
X103640000Y-61684819D01*
X103640000Y-61684819D02*
X103782857Y-61732438D01*
X103782857Y-61732438D02*
X103878095Y-61827676D01*
X103878095Y-61827676D02*
X103925714Y-61922914D01*
X103925714Y-61922914D02*
X103973333Y-62113390D01*
X103973333Y-62113390D02*
X103973333Y-62256247D01*
X103973333Y-62256247D02*
X103925714Y-62446723D01*
X103925714Y-62446723D02*
X103878095Y-62541961D01*
X103878095Y-62541961D02*
X103782857Y-62637200D01*
X103782857Y-62637200D02*
X103640000Y-62684819D01*
X103640000Y-62684819D02*
X103401905Y-62684819D01*
X104354286Y-61780057D02*
X104401905Y-61732438D01*
X104401905Y-61732438D02*
X104497143Y-61684819D01*
X104497143Y-61684819D02*
X104735238Y-61684819D01*
X104735238Y-61684819D02*
X104830476Y-61732438D01*
X104830476Y-61732438D02*
X104878095Y-61780057D01*
X104878095Y-61780057D02*
X104925714Y-61875295D01*
X104925714Y-61875295D02*
X104925714Y-61970533D01*
X104925714Y-61970533D02*
X104878095Y-62113390D01*
X104878095Y-62113390D02*
X104306667Y-62684819D01*
X104306667Y-62684819D02*
X104925714Y-62684819D01*
X139128571Y-29934819D02*
X139319047Y-29934819D01*
X139319047Y-29934819D02*
X139414285Y-29982438D01*
X139414285Y-29982438D02*
X139509523Y-30077676D01*
X139509523Y-30077676D02*
X139557142Y-30268152D01*
X139557142Y-30268152D02*
X139557142Y-30601485D01*
X139557142Y-30601485D02*
X139509523Y-30791961D01*
X139509523Y-30791961D02*
X139414285Y-30887200D01*
X139414285Y-30887200D02*
X139319047Y-30934819D01*
X139319047Y-30934819D02*
X139128571Y-30934819D01*
X139128571Y-30934819D02*
X139033333Y-30887200D01*
X139033333Y-30887200D02*
X138938095Y-30791961D01*
X138938095Y-30791961D02*
X138890476Y-30601485D01*
X138890476Y-30601485D02*
X138890476Y-30268152D01*
X138890476Y-30268152D02*
X138938095Y-30077676D01*
X138938095Y-30077676D02*
X139033333Y-29982438D01*
X139033333Y-29982438D02*
X139128571Y-29934819D01*
X140176190Y-29934819D02*
X140271428Y-29934819D01*
X140271428Y-29934819D02*
X140366666Y-29982438D01*
X140366666Y-29982438D02*
X140414285Y-30030057D01*
X140414285Y-30030057D02*
X140461904Y-30125295D01*
X140461904Y-30125295D02*
X140509523Y-30315771D01*
X140509523Y-30315771D02*
X140509523Y-30553866D01*
X140509523Y-30553866D02*
X140461904Y-30744342D01*
X140461904Y-30744342D02*
X140414285Y-30839580D01*
X140414285Y-30839580D02*
X140366666Y-30887200D01*
X140366666Y-30887200D02*
X140271428Y-30934819D01*
X140271428Y-30934819D02*
X140176190Y-30934819D01*
X140176190Y-30934819D02*
X140080952Y-30887200D01*
X140080952Y-30887200D02*
X140033333Y-30839580D01*
X140033333Y-30839580D02*
X139985714Y-30744342D01*
X139985714Y-30744342D02*
X139938095Y-30553866D01*
X139938095Y-30553866D02*
X139938095Y-30315771D01*
X139938095Y-30315771D02*
X139985714Y-30125295D01*
X139985714Y-30125295D02*
X140033333Y-30030057D01*
X140033333Y-30030057D02*
X140080952Y-29982438D01*
X140080952Y-29982438D02*
X140176190Y-29934819D01*
X138422142Y-57287438D02*
X138326904Y-57239819D01*
X138326904Y-57239819D02*
X138184047Y-57239819D01*
X138184047Y-57239819D02*
X138041190Y-57287438D01*
X138041190Y-57287438D02*
X137945952Y-57382676D01*
X137945952Y-57382676D02*
X137898333Y-57477914D01*
X137898333Y-57477914D02*
X137850714Y-57668390D01*
X137850714Y-57668390D02*
X137850714Y-57811247D01*
X137850714Y-57811247D02*
X137898333Y-58001723D01*
X137898333Y-58001723D02*
X137945952Y-58096961D01*
X137945952Y-58096961D02*
X138041190Y-58192200D01*
X138041190Y-58192200D02*
X138184047Y-58239819D01*
X138184047Y-58239819D02*
X138279285Y-58239819D01*
X138279285Y-58239819D02*
X138422142Y-58192200D01*
X138422142Y-58192200D02*
X138469761Y-58144580D01*
X138469761Y-58144580D02*
X138469761Y-57811247D01*
X138469761Y-57811247D02*
X138279285Y-57811247D01*
X138898333Y-57573152D02*
X138898333Y-58239819D01*
X138898333Y-57668390D02*
X138945952Y-57620771D01*
X138945952Y-57620771D02*
X139041190Y-57573152D01*
X139041190Y-57573152D02*
X139184047Y-57573152D01*
X139184047Y-57573152D02*
X139279285Y-57620771D01*
X139279285Y-57620771D02*
X139326904Y-57716009D01*
X139326904Y-57716009D02*
X139326904Y-58239819D01*
X140231666Y-58239819D02*
X140231666Y-57239819D01*
X140231666Y-58192200D02*
X140136428Y-58239819D01*
X140136428Y-58239819D02*
X139945952Y-58239819D01*
X139945952Y-58239819D02*
X139850714Y-58192200D01*
X139850714Y-58192200D02*
X139803095Y-58144580D01*
X139803095Y-58144580D02*
X139755476Y-58049342D01*
X139755476Y-58049342D02*
X139755476Y-57763628D01*
X139755476Y-57763628D02*
X139803095Y-57668390D01*
X139803095Y-57668390D02*
X139850714Y-57620771D01*
X139850714Y-57620771D02*
X139945952Y-57573152D01*
X139945952Y-57573152D02*
X140136428Y-57573152D01*
X140136428Y-57573152D02*
X140231666Y-57620771D01*
D13*
X28623571Y-45811857D02*
X28623571Y-42811857D01*
X28623571Y-42811857D02*
X29623571Y-44954714D01*
X29623571Y-44954714D02*
X30623571Y-42811857D01*
X30623571Y-42811857D02*
X30623571Y-45811857D01*
X32052142Y-42811857D02*
X32052142Y-45240428D01*
X32052142Y-45240428D02*
X32194999Y-45526142D01*
X32194999Y-45526142D02*
X32337857Y-45669000D01*
X32337857Y-45669000D02*
X32623571Y-45811857D01*
X32623571Y-45811857D02*
X33194999Y-45811857D01*
X33194999Y-45811857D02*
X33480714Y-45669000D01*
X33480714Y-45669000D02*
X33623571Y-45526142D01*
X33623571Y-45526142D02*
X33766428Y-45240428D01*
X33766428Y-45240428D02*
X33766428Y-42811857D01*
X34909285Y-42811857D02*
X36909285Y-45811857D01*
X36909285Y-42811857D02*
X34909285Y-45811857D01*
X38480714Y-44097571D02*
X38194999Y-43954714D01*
X38194999Y-43954714D02*
X38052142Y-43811857D01*
X38052142Y-43811857D02*
X37909285Y-43526142D01*
X37909285Y-43526142D02*
X37909285Y-43383285D01*
X37909285Y-43383285D02*
X38052142Y-43097571D01*
X38052142Y-43097571D02*
X38194999Y-42954714D01*
X38194999Y-42954714D02*
X38480714Y-42811857D01*
X38480714Y-42811857D02*
X39052142Y-42811857D01*
X39052142Y-42811857D02*
X39337857Y-42954714D01*
X39337857Y-42954714D02*
X39480714Y-43097571D01*
X39480714Y-43097571D02*
X39623571Y-43383285D01*
X39623571Y-43383285D02*
X39623571Y-43526142D01*
X39623571Y-43526142D02*
X39480714Y-43811857D01*
X39480714Y-43811857D02*
X39337857Y-43954714D01*
X39337857Y-43954714D02*
X39052142Y-44097571D01*
X39052142Y-44097571D02*
X38480714Y-44097571D01*
X38480714Y-44097571D02*
X38194999Y-44240428D01*
X38194999Y-44240428D02*
X38052142Y-44383285D01*
X38052142Y-44383285D02*
X37909285Y-44669000D01*
X37909285Y-44669000D02*
X37909285Y-45240428D01*
X37909285Y-45240428D02*
X38052142Y-45526142D01*
X38052142Y-45526142D02*
X38194999Y-45669000D01*
X38194999Y-45669000D02*
X38480714Y-45811857D01*
X38480714Y-45811857D02*
X39052142Y-45811857D01*
X39052142Y-45811857D02*
X39337857Y-45669000D01*
X39337857Y-45669000D02*
X39480714Y-45526142D01*
X39480714Y-45526142D02*
X39623571Y-45240428D01*
X39623571Y-45240428D02*
X39623571Y-44669000D01*
X39623571Y-44669000D02*
X39480714Y-44383285D01*
X39480714Y-44383285D02*
X39337857Y-44240428D01*
X39337857Y-44240428D02*
X39052142Y-44097571D01*
X40909285Y-45526142D02*
X41052142Y-45669000D01*
X41052142Y-45669000D02*
X40909285Y-45811857D01*
X40909285Y-45811857D02*
X40766428Y-45669000D01*
X40766428Y-45669000D02*
X40909285Y-45526142D01*
X40909285Y-45526142D02*
X40909285Y-45811857D01*
X40909285Y-43954714D02*
X41052142Y-44097571D01*
X41052142Y-44097571D02*
X40909285Y-44240428D01*
X40909285Y-44240428D02*
X40766428Y-44097571D01*
X40766428Y-44097571D02*
X40909285Y-43954714D01*
X40909285Y-43954714D02*
X40909285Y-44240428D01*
X43909285Y-45811857D02*
X42194999Y-45811857D01*
X43052142Y-45811857D02*
X43052142Y-42811857D01*
X43052142Y-42811857D02*
X42766428Y-43240428D01*
X42766428Y-43240428D02*
X42480713Y-43526142D01*
X42480713Y-43526142D02*
X42194999Y-43669000D01*
D12*
X31274285Y-51248328D02*
X32274285Y-51248328D01*
X32274285Y-51248328D02*
X31631428Y-52748328D01*
X33488571Y-51748328D02*
X33488571Y-52748328D01*
X33131428Y-51176900D02*
X32774285Y-52248328D01*
X32774285Y-52248328D02*
X33702856Y-52248328D01*
X34274284Y-52748328D02*
X34274284Y-51248328D01*
X34274284Y-51962614D02*
X35131427Y-51962614D01*
X35131427Y-52748328D02*
X35131427Y-51248328D01*
X36702856Y-52605471D02*
X36631428Y-52676900D01*
X36631428Y-52676900D02*
X36417142Y-52748328D01*
X36417142Y-52748328D02*
X36274285Y-52748328D01*
X36274285Y-52748328D02*
X36059999Y-52676900D01*
X36059999Y-52676900D02*
X35917142Y-52534042D01*
X35917142Y-52534042D02*
X35845713Y-52391185D01*
X35845713Y-52391185D02*
X35774285Y-52105471D01*
X35774285Y-52105471D02*
X35774285Y-51891185D01*
X35774285Y-51891185D02*
X35845713Y-51605471D01*
X35845713Y-51605471D02*
X35917142Y-51462614D01*
X35917142Y-51462614D02*
X36059999Y-51319757D01*
X36059999Y-51319757D02*
X36274285Y-51248328D01*
X36274285Y-51248328D02*
X36417142Y-51248328D01*
X36417142Y-51248328D02*
X36631428Y-51319757D01*
X36631428Y-51319757D02*
X36702856Y-51391185D01*
X37345713Y-52748328D02*
X37345713Y-51248328D01*
X37345713Y-51248328D02*
X37917142Y-51248328D01*
X37917142Y-51248328D02*
X38059999Y-51319757D01*
X38059999Y-51319757D02*
X38131428Y-51391185D01*
X38131428Y-51391185D02*
X38202856Y-51534042D01*
X38202856Y-51534042D02*
X38202856Y-51748328D01*
X38202856Y-51748328D02*
X38131428Y-51891185D01*
X38131428Y-51891185D02*
X38059999Y-51962614D01*
X38059999Y-51962614D02*
X37917142Y-52034042D01*
X37917142Y-52034042D02*
X37345713Y-52034042D01*
X38845713Y-51248328D02*
X38845713Y-52462614D01*
X38845713Y-52462614D02*
X38917142Y-52605471D01*
X38917142Y-52605471D02*
X38988571Y-52676900D01*
X38988571Y-52676900D02*
X39131428Y-52748328D01*
X39131428Y-52748328D02*
X39417142Y-52748328D01*
X39417142Y-52748328D02*
X39559999Y-52676900D01*
X39559999Y-52676900D02*
X39631428Y-52605471D01*
X39631428Y-52605471D02*
X39702856Y-52462614D01*
X39702856Y-52462614D02*
X39702856Y-51248328D01*
D11*
X121181905Y-62684819D02*
X121181905Y-61684819D01*
X121181905Y-61684819D02*
X121420000Y-61684819D01*
X121420000Y-61684819D02*
X121562857Y-61732438D01*
X121562857Y-61732438D02*
X121658095Y-61827676D01*
X121658095Y-61827676D02*
X121705714Y-61922914D01*
X121705714Y-61922914D02*
X121753333Y-62113390D01*
X121753333Y-62113390D02*
X121753333Y-62256247D01*
X121753333Y-62256247D02*
X121705714Y-62446723D01*
X121705714Y-62446723D02*
X121658095Y-62541961D01*
X121658095Y-62541961D02*
X121562857Y-62637200D01*
X121562857Y-62637200D02*
X121420000Y-62684819D01*
X121420000Y-62684819D02*
X121181905Y-62684819D01*
X122705714Y-62684819D02*
X122134286Y-62684819D01*
X122420000Y-62684819D02*
X122420000Y-61684819D01*
X122420000Y-61684819D02*
X122324762Y-61827676D01*
X122324762Y-61827676D02*
X122229524Y-61922914D01*
X122229524Y-61922914D02*
X122134286Y-61970533D01*
X69034819Y-47621666D02*
X69034819Y-48193094D01*
X69034819Y-47907380D02*
X68034819Y-47907380D01*
X68034819Y-47907380D02*
X68177676Y-48002618D01*
X68177676Y-48002618D02*
X68272914Y-48097856D01*
X68272914Y-48097856D02*
X68320533Y-48193094D01*
X68034819Y-46716904D02*
X68034819Y-47193094D01*
X68034819Y-47193094D02*
X68511009Y-47240713D01*
X68511009Y-47240713D02*
X68463390Y-47193094D01*
X68463390Y-47193094D02*
X68415771Y-47097856D01*
X68415771Y-47097856D02*
X68415771Y-46859761D01*
X68415771Y-46859761D02*
X68463390Y-46764523D01*
X68463390Y-46764523D02*
X68511009Y-46716904D01*
X68511009Y-46716904D02*
X68606247Y-46669285D01*
X68606247Y-46669285D02*
X68844342Y-46669285D01*
X68844342Y-46669285D02*
X68939580Y-46716904D01*
X68939580Y-46716904D02*
X68987200Y-46764523D01*
X68987200Y-46764523D02*
X69034819Y-46859761D01*
X69034819Y-46859761D02*
X69034819Y-47097856D01*
X69034819Y-47097856D02*
X68987200Y-47193094D01*
X68987200Y-47193094D02*
X68939580Y-47240713D01*
X69034819Y-45716904D02*
X69034819Y-46288332D01*
X69034819Y-46002618D02*
X68034819Y-46002618D01*
X68034819Y-46002618D02*
X68177676Y-46097856D01*
X68177676Y-46097856D02*
X68272914Y-46193094D01*
X68272914Y-46193094D02*
X68320533Y-46288332D01*
X138272200Y-51561904D02*
X138319819Y-51419047D01*
X138319819Y-51419047D02*
X138319819Y-51180952D01*
X138319819Y-51180952D02*
X138272200Y-51085714D01*
X138272200Y-51085714D02*
X138224580Y-51038095D01*
X138224580Y-51038095D02*
X138129342Y-50990476D01*
X138129342Y-50990476D02*
X138034104Y-50990476D01*
X138034104Y-50990476D02*
X137938866Y-51038095D01*
X137938866Y-51038095D02*
X137891247Y-51085714D01*
X137891247Y-51085714D02*
X137843628Y-51180952D01*
X137843628Y-51180952D02*
X137796009Y-51371428D01*
X137796009Y-51371428D02*
X137748390Y-51466666D01*
X137748390Y-51466666D02*
X137700771Y-51514285D01*
X137700771Y-51514285D02*
X137605533Y-51561904D01*
X137605533Y-51561904D02*
X137510295Y-51561904D01*
X137510295Y-51561904D02*
X137415057Y-51514285D01*
X137415057Y-51514285D02*
X137367438Y-51466666D01*
X137367438Y-51466666D02*
X137319819Y-51371428D01*
X137319819Y-51371428D02*
X137319819Y-51133333D01*
X137319819Y-51133333D02*
X137367438Y-50990476D01*
X138319819Y-50038095D02*
X138319819Y-50609523D01*
X138319819Y-50323809D02*
X137319819Y-50323809D01*
X137319819Y-50323809D02*
X137462676Y-50419047D01*
X137462676Y-50419047D02*
X137557914Y-50514285D01*
X137557914Y-50514285D02*
X137605533Y-50609523D01*
X137874524Y-35014819D02*
X138207857Y-36014819D01*
X138207857Y-36014819D02*
X138541190Y-35014819D01*
X139303095Y-35967200D02*
X139207857Y-36014819D01*
X139207857Y-36014819D02*
X139017381Y-36014819D01*
X139017381Y-36014819D02*
X138922143Y-35967200D01*
X138922143Y-35967200D02*
X138874524Y-35919580D01*
X138874524Y-35919580D02*
X138826905Y-35824342D01*
X138826905Y-35824342D02*
X138826905Y-35538628D01*
X138826905Y-35538628D02*
X138874524Y-35443390D01*
X138874524Y-35443390D02*
X138922143Y-35395771D01*
X138922143Y-35395771D02*
X139017381Y-35348152D01*
X139017381Y-35348152D02*
X139207857Y-35348152D01*
X139207857Y-35348152D02*
X139303095Y-35395771D01*
X140160238Y-35967200D02*
X140065000Y-36014819D01*
X140065000Y-36014819D02*
X139874524Y-36014819D01*
X139874524Y-36014819D02*
X139779286Y-35967200D01*
X139779286Y-35967200D02*
X139731667Y-35919580D01*
X139731667Y-35919580D02*
X139684048Y-35824342D01*
X139684048Y-35824342D02*
X139684048Y-35538628D01*
X139684048Y-35538628D02*
X139731667Y-35443390D01*
X139731667Y-35443390D02*
X139779286Y-35395771D01*
X139779286Y-35395771D02*
X139874524Y-35348152D01*
X139874524Y-35348152D02*
X140065000Y-35348152D01*
X140065000Y-35348152D02*
X140160238Y-35395771D01*
X139009524Y-45651009D02*
X139342857Y-45651009D01*
X139485714Y-46174819D02*
X139009524Y-46174819D01*
X139009524Y-46174819D02*
X139009524Y-45174819D01*
X139009524Y-45174819D02*
X139485714Y-45174819D01*
X140104762Y-45174819D02*
X140200000Y-45174819D01*
X140200000Y-45174819D02*
X140295238Y-45222438D01*
X140295238Y-45222438D02*
X140342857Y-45270057D01*
X140342857Y-45270057D02*
X140390476Y-45365295D01*
X140390476Y-45365295D02*
X140438095Y-45555771D01*
X140438095Y-45555771D02*
X140438095Y-45793866D01*
X140438095Y-45793866D02*
X140390476Y-45984342D01*
X140390476Y-45984342D02*
X140342857Y-46079580D01*
X140342857Y-46079580D02*
X140295238Y-46127200D01*
X140295238Y-46127200D02*
X140200000Y-46174819D01*
X140200000Y-46174819D02*
X140104762Y-46174819D01*
X140104762Y-46174819D02*
X140009524Y-46127200D01*
X140009524Y-46127200D02*
X139961905Y-46079580D01*
X139961905Y-46079580D02*
X139914286Y-45984342D01*
X139914286Y-45984342D02*
X139866667Y-45793866D01*
X139866667Y-45793866D02*
X139866667Y-45555771D01*
X139866667Y-45555771D02*
X139914286Y-45365295D01*
X139914286Y-45365295D02*
X139961905Y-45270057D01*
X139961905Y-45270057D02*
X140009524Y-45222438D01*
X140009524Y-45222438D02*
X140104762Y-45174819D01*
X138871429Y-44897200D02*
X140528572Y-44897200D01*
X32281905Y-62684819D02*
X32281905Y-61684819D01*
X32281905Y-61684819D02*
X32520000Y-61684819D01*
X32520000Y-61684819D02*
X32662857Y-61732438D01*
X32662857Y-61732438D02*
X32758095Y-61827676D01*
X32758095Y-61827676D02*
X32805714Y-61922914D01*
X32805714Y-61922914D02*
X32853333Y-62113390D01*
X32853333Y-62113390D02*
X32853333Y-62256247D01*
X32853333Y-62256247D02*
X32805714Y-62446723D01*
X32805714Y-62446723D02*
X32758095Y-62541961D01*
X32758095Y-62541961D02*
X32662857Y-62637200D01*
X32662857Y-62637200D02*
X32520000Y-62684819D01*
X32520000Y-62684819D02*
X32281905Y-62684819D01*
X33710476Y-61684819D02*
X33520000Y-61684819D01*
X33520000Y-61684819D02*
X33424762Y-61732438D01*
X33424762Y-61732438D02*
X33377143Y-61780057D01*
X33377143Y-61780057D02*
X33281905Y-61922914D01*
X33281905Y-61922914D02*
X33234286Y-62113390D01*
X33234286Y-62113390D02*
X33234286Y-62494342D01*
X33234286Y-62494342D02*
X33281905Y-62589580D01*
X33281905Y-62589580D02*
X33329524Y-62637200D01*
X33329524Y-62637200D02*
X33424762Y-62684819D01*
X33424762Y-62684819D02*
X33615238Y-62684819D01*
X33615238Y-62684819D02*
X33710476Y-62637200D01*
X33710476Y-62637200D02*
X33758095Y-62589580D01*
X33758095Y-62589580D02*
X33805714Y-62494342D01*
X33805714Y-62494342D02*
X33805714Y-62256247D01*
X33805714Y-62256247D02*
X33758095Y-62161009D01*
X33758095Y-62161009D02*
X33710476Y-62113390D01*
X33710476Y-62113390D02*
X33615238Y-62065771D01*
X33615238Y-62065771D02*
X33424762Y-62065771D01*
X33424762Y-62065771D02*
X33329524Y-62113390D01*
X33329524Y-62113390D02*
X33281905Y-62161009D01*
X33281905Y-62161009D02*
X33234286Y-62256247D01*
X139128571Y-27394819D02*
X139319047Y-27394819D01*
X139319047Y-27394819D02*
X139414285Y-27442438D01*
X139414285Y-27442438D02*
X139509523Y-27537676D01*
X139509523Y-27537676D02*
X139557142Y-27728152D01*
X139557142Y-27728152D02*
X139557142Y-28061485D01*
X139557142Y-28061485D02*
X139509523Y-28251961D01*
X139509523Y-28251961D02*
X139414285Y-28347200D01*
X139414285Y-28347200D02*
X139319047Y-28394819D01*
X139319047Y-28394819D02*
X139128571Y-28394819D01*
X139128571Y-28394819D02*
X139033333Y-28347200D01*
X139033333Y-28347200D02*
X138938095Y-28251961D01*
X138938095Y-28251961D02*
X138890476Y-28061485D01*
X138890476Y-28061485D02*
X138890476Y-27728152D01*
X138890476Y-27728152D02*
X138938095Y-27537676D01*
X138938095Y-27537676D02*
X139033333Y-27442438D01*
X139033333Y-27442438D02*
X139128571Y-27394819D01*
X140509523Y-28394819D02*
X139938095Y-28394819D01*
X140223809Y-28394819D02*
X140223809Y-27394819D01*
X140223809Y-27394819D02*
X140128571Y-27537676D01*
X140128571Y-27537676D02*
X140033333Y-27632914D01*
X140033333Y-27632914D02*
X139938095Y-27680533D01*
X50061905Y-62684819D02*
X50061905Y-61684819D01*
X50061905Y-61684819D02*
X50300000Y-61684819D01*
X50300000Y-61684819D02*
X50442857Y-61732438D01*
X50442857Y-61732438D02*
X50538095Y-61827676D01*
X50538095Y-61827676D02*
X50585714Y-61922914D01*
X50585714Y-61922914D02*
X50633333Y-62113390D01*
X50633333Y-62113390D02*
X50633333Y-62256247D01*
X50633333Y-62256247D02*
X50585714Y-62446723D01*
X50585714Y-62446723D02*
X50538095Y-62541961D01*
X50538095Y-62541961D02*
X50442857Y-62637200D01*
X50442857Y-62637200D02*
X50300000Y-62684819D01*
X50300000Y-62684819D02*
X50061905Y-62684819D01*
X51538095Y-61684819D02*
X51061905Y-61684819D01*
X51061905Y-61684819D02*
X51014286Y-62161009D01*
X51014286Y-62161009D02*
X51061905Y-62113390D01*
X51061905Y-62113390D02*
X51157143Y-62065771D01*
X51157143Y-62065771D02*
X51395238Y-62065771D01*
X51395238Y-62065771D02*
X51490476Y-62113390D01*
X51490476Y-62113390D02*
X51538095Y-62161009D01*
X51538095Y-62161009D02*
X51585714Y-62256247D01*
X51585714Y-62256247D02*
X51585714Y-62494342D01*
X51585714Y-62494342D02*
X51538095Y-62589580D01*
X51538095Y-62589580D02*
X51490476Y-62637200D01*
X51490476Y-62637200D02*
X51395238Y-62684819D01*
X51395238Y-62684819D02*
X51157143Y-62684819D01*
X51157143Y-62684819D02*
X51061905Y-62637200D01*
X51061905Y-62637200D02*
X51014286Y-62589580D01*
X19581905Y-62684819D02*
X19581905Y-61684819D01*
X19581905Y-61684819D02*
X19820000Y-61684819D01*
X19820000Y-61684819D02*
X19962857Y-61732438D01*
X19962857Y-61732438D02*
X20058095Y-61827676D01*
X20058095Y-61827676D02*
X20105714Y-61922914D01*
X20105714Y-61922914D02*
X20153333Y-62113390D01*
X20153333Y-62113390D02*
X20153333Y-62256247D01*
X20153333Y-62256247D02*
X20105714Y-62446723D01*
X20105714Y-62446723D02*
X20058095Y-62541961D01*
X20058095Y-62541961D02*
X19962857Y-62637200D01*
X19962857Y-62637200D02*
X19820000Y-62684819D01*
X19820000Y-62684819D02*
X19581905Y-62684819D01*
X20486667Y-61684819D02*
X21153333Y-61684819D01*
X21153333Y-61684819D02*
X20724762Y-62684819D01*
X67841905Y-62684819D02*
X67841905Y-61684819D01*
X67841905Y-61684819D02*
X68080000Y-61684819D01*
X68080000Y-61684819D02*
X68222857Y-61732438D01*
X68222857Y-61732438D02*
X68318095Y-61827676D01*
X68318095Y-61827676D02*
X68365714Y-61922914D01*
X68365714Y-61922914D02*
X68413333Y-62113390D01*
X68413333Y-62113390D02*
X68413333Y-62256247D01*
X68413333Y-62256247D02*
X68365714Y-62446723D01*
X68365714Y-62446723D02*
X68318095Y-62541961D01*
X68318095Y-62541961D02*
X68222857Y-62637200D01*
X68222857Y-62637200D02*
X68080000Y-62684819D01*
X68080000Y-62684819D02*
X67841905Y-62684819D01*
X69270476Y-62018152D02*
X69270476Y-62684819D01*
X69032381Y-61637200D02*
X68794286Y-62351485D01*
X68794286Y-62351485D02*
X69413333Y-62351485D01*
X139484286Y-52890057D02*
X139531905Y-52842438D01*
X139531905Y-52842438D02*
X139627143Y-52794819D01*
X139627143Y-52794819D02*
X139865238Y-52794819D01*
X139865238Y-52794819D02*
X139960476Y-52842438D01*
X139960476Y-52842438D02*
X140008095Y-52890057D01*
X140008095Y-52890057D02*
X140055714Y-52985295D01*
X140055714Y-52985295D02*
X140055714Y-53080533D01*
X140055714Y-53080533D02*
X140008095Y-53223390D01*
X140008095Y-53223390D02*
X139436667Y-53794819D01*
X139436667Y-53794819D02*
X140055714Y-53794819D01*
X140055714Y-51254819D02*
X139484286Y-51254819D01*
X139770000Y-51254819D02*
X139770000Y-50254819D01*
X139770000Y-50254819D02*
X139674762Y-50397676D01*
X139674762Y-50397676D02*
X139579524Y-50492914D01*
X139579524Y-50492914D02*
X139484286Y-50540533D01*
X138961905Y-62684819D02*
X138961905Y-61684819D01*
X138961905Y-61684819D02*
X139200000Y-61684819D01*
X139200000Y-61684819D02*
X139342857Y-61732438D01*
X139342857Y-61732438D02*
X139438095Y-61827676D01*
X139438095Y-61827676D02*
X139485714Y-61922914D01*
X139485714Y-61922914D02*
X139533333Y-62113390D01*
X139533333Y-62113390D02*
X139533333Y-62256247D01*
X139533333Y-62256247D02*
X139485714Y-62446723D01*
X139485714Y-62446723D02*
X139438095Y-62541961D01*
X139438095Y-62541961D02*
X139342857Y-62637200D01*
X139342857Y-62637200D02*
X139200000Y-62684819D01*
X139200000Y-62684819D02*
X138961905Y-62684819D01*
X140152381Y-61684819D02*
X140247619Y-61684819D01*
X140247619Y-61684819D02*
X140342857Y-61732438D01*
X140342857Y-61732438D02*
X140390476Y-61780057D01*
X140390476Y-61780057D02*
X140438095Y-61875295D01*
X140438095Y-61875295D02*
X140485714Y-62065771D01*
X140485714Y-62065771D02*
X140485714Y-62303866D01*
X140485714Y-62303866D02*
X140438095Y-62494342D01*
X140438095Y-62494342D02*
X140390476Y-62589580D01*
X140390476Y-62589580D02*
X140342857Y-62637200D01*
X140342857Y-62637200D02*
X140247619Y-62684819D01*
X140247619Y-62684819D02*
X140152381Y-62684819D01*
X140152381Y-62684819D02*
X140057143Y-62637200D01*
X140057143Y-62637200D02*
X140009524Y-62589580D01*
X140009524Y-62589580D02*
X139961905Y-62494342D01*
X139961905Y-62494342D02*
X139914286Y-62303866D01*
X139914286Y-62303866D02*
X139914286Y-62065771D01*
X139914286Y-62065771D02*
X139961905Y-61875295D01*
X139961905Y-61875295D02*
X140009524Y-61780057D01*
X140009524Y-61780057D02*
X140057143Y-61732438D01*
X140057143Y-61732438D02*
X140152381Y-61684819D01*
X139722381Y-47714819D02*
X139817619Y-47714819D01*
X139817619Y-47714819D02*
X139912857Y-47762438D01*
X139912857Y-47762438D02*
X139960476Y-47810057D01*
X139960476Y-47810057D02*
X140008095Y-47905295D01*
X140008095Y-47905295D02*
X140055714Y-48095771D01*
X140055714Y-48095771D02*
X140055714Y-48333866D01*
X140055714Y-48333866D02*
X140008095Y-48524342D01*
X140008095Y-48524342D02*
X139960476Y-48619580D01*
X139960476Y-48619580D02*
X139912857Y-48667200D01*
X139912857Y-48667200D02*
X139817619Y-48714819D01*
X139817619Y-48714819D02*
X139722381Y-48714819D01*
X139722381Y-48714819D02*
X139627143Y-48667200D01*
X139627143Y-48667200D02*
X139579524Y-48619580D01*
X139579524Y-48619580D02*
X139531905Y-48524342D01*
X139531905Y-48524342D02*
X139484286Y-48333866D01*
X139484286Y-48333866D02*
X139484286Y-48095771D01*
X139484286Y-48095771D02*
X139531905Y-47905295D01*
X139531905Y-47905295D02*
X139579524Y-47810057D01*
X139579524Y-47810057D02*
X139627143Y-47762438D01*
X139627143Y-47762438D02*
X139722381Y-47714819D01*
X85621905Y-62684819D02*
X85621905Y-61684819D01*
X85621905Y-61684819D02*
X85860000Y-61684819D01*
X85860000Y-61684819D02*
X86002857Y-61732438D01*
X86002857Y-61732438D02*
X86098095Y-61827676D01*
X86098095Y-61827676D02*
X86145714Y-61922914D01*
X86145714Y-61922914D02*
X86193333Y-62113390D01*
X86193333Y-62113390D02*
X86193333Y-62256247D01*
X86193333Y-62256247D02*
X86145714Y-62446723D01*
X86145714Y-62446723D02*
X86098095Y-62541961D01*
X86098095Y-62541961D02*
X86002857Y-62637200D01*
X86002857Y-62637200D02*
X85860000Y-62684819D01*
X85860000Y-62684819D02*
X85621905Y-62684819D01*
X86526667Y-61684819D02*
X87145714Y-61684819D01*
X87145714Y-61684819D02*
X86812381Y-62065771D01*
X86812381Y-62065771D02*
X86955238Y-62065771D01*
X86955238Y-62065771D02*
X87050476Y-62113390D01*
X87050476Y-62113390D02*
X87098095Y-62161009D01*
X87098095Y-62161009D02*
X87145714Y-62256247D01*
X87145714Y-62256247D02*
X87145714Y-62494342D01*
X87145714Y-62494342D02*
X87098095Y-62589580D01*
X87098095Y-62589580D02*
X87050476Y-62637200D01*
X87050476Y-62637200D02*
X86955238Y-62684819D01*
X86955238Y-62684819D02*
X86669524Y-62684819D01*
X86669524Y-62684819D02*
X86574286Y-62637200D01*
X86574286Y-62637200D02*
X86526667Y-62589580D01*
X64494580Y-44299166D02*
X64542200Y-44346785D01*
X64542200Y-44346785D02*
X64589819Y-44489642D01*
X64589819Y-44489642D02*
X64589819Y-44584880D01*
X64589819Y-44584880D02*
X64542200Y-44727737D01*
X64542200Y-44727737D02*
X64446961Y-44822975D01*
X64446961Y-44822975D02*
X64351723Y-44870594D01*
X64351723Y-44870594D02*
X64161247Y-44918213D01*
X64161247Y-44918213D02*
X64018390Y-44918213D01*
X64018390Y-44918213D02*
X63827914Y-44870594D01*
X63827914Y-44870594D02*
X63732676Y-44822975D01*
X63732676Y-44822975D02*
X63637438Y-44727737D01*
X63637438Y-44727737D02*
X63589819Y-44584880D01*
X63589819Y-44584880D02*
X63589819Y-44489642D01*
X63589819Y-44489642D02*
X63637438Y-44346785D01*
X63637438Y-44346785D02*
X63685057Y-44299166D01*
X64589819Y-43346785D02*
X64589819Y-43918213D01*
X64589819Y-43632499D02*
X63589819Y-43632499D01*
X63589819Y-43632499D02*
X63732676Y-43727737D01*
X63732676Y-43727737D02*
X63827914Y-43822975D01*
X63827914Y-43822975D02*
X63875533Y-43918213D01*
X117199580Y-46521666D02*
X117247200Y-46569285D01*
X117247200Y-46569285D02*
X117294819Y-46712142D01*
X117294819Y-46712142D02*
X117294819Y-46807380D01*
X117294819Y-46807380D02*
X117247200Y-46950237D01*
X117247200Y-46950237D02*
X117151961Y-47045475D01*
X117151961Y-47045475D02*
X117056723Y-47093094D01*
X117056723Y-47093094D02*
X116866247Y-47140713D01*
X116866247Y-47140713D02*
X116723390Y-47140713D01*
X116723390Y-47140713D02*
X116532914Y-47093094D01*
X116532914Y-47093094D02*
X116437676Y-47045475D01*
X116437676Y-47045475D02*
X116342438Y-46950237D01*
X116342438Y-46950237D02*
X116294819Y-46807380D01*
X116294819Y-46807380D02*
X116294819Y-46712142D01*
X116294819Y-46712142D02*
X116342438Y-46569285D01*
X116342438Y-46569285D02*
X116390057Y-46521666D01*
X116390057Y-46140713D02*
X116342438Y-46093094D01*
X116342438Y-46093094D02*
X116294819Y-45997856D01*
X116294819Y-45997856D02*
X116294819Y-45759761D01*
X116294819Y-45759761D02*
X116342438Y-45664523D01*
X116342438Y-45664523D02*
X116390057Y-45616904D01*
X116390057Y-45616904D02*
X116485295Y-45569285D01*
X116485295Y-45569285D02*
X116580533Y-45569285D01*
X116580533Y-45569285D02*
X116723390Y-45616904D01*
X116723390Y-45616904D02*
X117294819Y-46188332D01*
X117294819Y-46188332D02*
X117294819Y-45569285D01*
X64674819Y-50256904D02*
X65484342Y-50256904D01*
X65484342Y-50256904D02*
X65579580Y-50209285D01*
X65579580Y-50209285D02*
X65627200Y-50161666D01*
X65627200Y-50161666D02*
X65674819Y-50066428D01*
X65674819Y-50066428D02*
X65674819Y-49875952D01*
X65674819Y-49875952D02*
X65627200Y-49780714D01*
X65627200Y-49780714D02*
X65579580Y-49733095D01*
X65579580Y-49733095D02*
X65484342Y-49685476D01*
X65484342Y-49685476D02*
X64674819Y-49685476D01*
X65674819Y-48685476D02*
X65674819Y-49256904D01*
X65674819Y-48971190D02*
X64674819Y-48971190D01*
X64674819Y-48971190D02*
X64817676Y-49066428D01*
X64817676Y-49066428D02*
X64912914Y-49161666D01*
X64912914Y-49161666D02*
X64960533Y-49256904D01*
X100869819Y-51561904D02*
X101679342Y-51561904D01*
X101679342Y-51561904D02*
X101774580Y-51514285D01*
X101774580Y-51514285D02*
X101822200Y-51466666D01*
X101822200Y-51466666D02*
X101869819Y-51371428D01*
X101869819Y-51371428D02*
X101869819Y-51180952D01*
X101869819Y-51180952D02*
X101822200Y-51085714D01*
X101822200Y-51085714D02*
X101774580Y-51038095D01*
X101774580Y-51038095D02*
X101679342Y-50990476D01*
X101679342Y-50990476D02*
X100869819Y-50990476D01*
X100965057Y-50561904D02*
X100917438Y-50514285D01*
X100917438Y-50514285D02*
X100869819Y-50419047D01*
X100869819Y-50419047D02*
X100869819Y-50180952D01*
X100869819Y-50180952D02*
X100917438Y-50085714D01*
X100917438Y-50085714D02*
X100965057Y-50038095D01*
X100965057Y-50038095D02*
X101060295Y-49990476D01*
X101060295Y-49990476D02*
X101155533Y-49990476D01*
X101155533Y-49990476D02*
X101298390Y-50038095D01*
X101298390Y-50038095D02*
X101869819Y-50609523D01*
X101869819Y-50609523D02*
X101869819Y-49990476D01*
X78559819Y-47791666D02*
X78083628Y-48124999D01*
X78559819Y-48363094D02*
X77559819Y-48363094D01*
X77559819Y-48363094D02*
X77559819Y-47982142D01*
X77559819Y-47982142D02*
X77607438Y-47886904D01*
X77607438Y-47886904D02*
X77655057Y-47839285D01*
X77655057Y-47839285D02*
X77750295Y-47791666D01*
X77750295Y-47791666D02*
X77893152Y-47791666D01*
X77893152Y-47791666D02*
X77988390Y-47839285D01*
X77988390Y-47839285D02*
X78036009Y-47886904D01*
X78036009Y-47886904D02*
X78083628Y-47982142D01*
X78083628Y-47982142D02*
X78083628Y-48363094D01*
X78559819Y-46839285D02*
X78559819Y-47410713D01*
X78559819Y-47124999D02*
X77559819Y-47124999D01*
X77559819Y-47124999D02*
X77702676Y-47220237D01*
X77702676Y-47220237D02*
X77797914Y-47315475D01*
X77797914Y-47315475D02*
X77845533Y-47410713D01*
X114754819Y-55316666D02*
X114278628Y-55649999D01*
X114754819Y-55888094D02*
X113754819Y-55888094D01*
X113754819Y-55888094D02*
X113754819Y-55507142D01*
X113754819Y-55507142D02*
X113802438Y-55411904D01*
X113802438Y-55411904D02*
X113850057Y-55364285D01*
X113850057Y-55364285D02*
X113945295Y-55316666D01*
X113945295Y-55316666D02*
X114088152Y-55316666D01*
X114088152Y-55316666D02*
X114183390Y-55364285D01*
X114183390Y-55364285D02*
X114231009Y-55411904D01*
X114231009Y-55411904D02*
X114278628Y-55507142D01*
X114278628Y-55507142D02*
X114278628Y-55888094D01*
X113850057Y-54935713D02*
X113802438Y-54888094D01*
X113802438Y-54888094D02*
X113754819Y-54792856D01*
X113754819Y-54792856D02*
X113754819Y-54554761D01*
X113754819Y-54554761D02*
X113802438Y-54459523D01*
X113802438Y-54459523D02*
X113850057Y-54411904D01*
X113850057Y-54411904D02*
X113945295Y-54364285D01*
X113945295Y-54364285D02*
X114040533Y-54364285D01*
X114040533Y-54364285D02*
X114183390Y-54411904D01*
X114183390Y-54411904D02*
X114754819Y-54983332D01*
X114754819Y-54983332D02*
X114754819Y-54364285D01*
D10*
%TO.C,C1*%
X63400000Y-46813748D02*
X63400000Y-47336252D01*
X64870000Y-46813748D02*
X64870000Y-47336252D01*
%TO.C,C2*%
X116105000Y-49501248D02*
X116105000Y-50023752D01*
X117575000Y-49501248D02*
X117575000Y-50023752D01*
%TO.C,J1*%
X140860000Y-63690000D02*
X140860000Y-66450000D01*
X140860000Y-66450000D02*
X143620000Y-66450000D01*
X141810000Y-63460000D02*
X141810000Y-63690000D01*
X142240000Y-61030000D02*
X143510000Y-61030000D01*
X142670000Y-63460000D02*
X142670000Y-63690000D01*
X143510000Y-61030000D02*
X143510000Y-62300000D01*
X143620000Y-63690000D02*
X140860000Y-63690000D01*
X143620000Y-66450000D02*
X143620000Y-63690000D01*
X142670000Y-66450000D02*
X141810000Y-66450000D01*
X141810000Y-72450000D01*
X142670000Y-72450000D01*
X142670000Y-66450000D01*
G36*
X142670000Y-66450000D02*
G01*
X141810000Y-66450000D01*
X141810000Y-72450000D01*
X142670000Y-72450000D01*
X142670000Y-66450000D01*
G37*
%TO.C,J2*%
X123080000Y-63690000D02*
X123080000Y-66450000D01*
X123080000Y-66450000D02*
X125840000Y-66450000D01*
X124030000Y-63460000D02*
X124030000Y-63690000D01*
X124460000Y-61030000D02*
X125730000Y-61030000D01*
X124890000Y-63460000D02*
X124890000Y-63690000D01*
X125730000Y-61030000D02*
X125730000Y-62300000D01*
X125840000Y-63690000D02*
X123080000Y-63690000D01*
X125840000Y-66450000D02*
X125840000Y-63690000D01*
X124890000Y-66450000D02*
X124030000Y-66450000D01*
X124030000Y-72450000D01*
X124890000Y-72450000D01*
X124890000Y-66450000D01*
G36*
X124890000Y-66450000D02*
G01*
X124030000Y-66450000D01*
X124030000Y-72450000D01*
X124890000Y-72450000D01*
X124890000Y-66450000D01*
G37*
%TO.C,J3*%
X105300000Y-63690000D02*
X105300000Y-66450000D01*
X105300000Y-66450000D02*
X108060000Y-66450000D01*
X106250000Y-63460000D02*
X106250000Y-63690000D01*
X106680000Y-61030000D02*
X107950000Y-61030000D01*
X107110000Y-63460000D02*
X107110000Y-63690000D01*
X107950000Y-61030000D02*
X107950000Y-62300000D01*
X108060000Y-63690000D02*
X105300000Y-63690000D01*
X108060000Y-66450000D02*
X108060000Y-63690000D01*
X107110000Y-66450000D02*
X106250000Y-66450000D01*
X106250000Y-72450000D01*
X107110000Y-72450000D01*
X107110000Y-66450000D01*
G36*
X107110000Y-66450000D02*
G01*
X106250000Y-66450000D01*
X106250000Y-72450000D01*
X107110000Y-72450000D01*
X107110000Y-66450000D01*
G37*
%TO.C,J4*%
X87520000Y-63690000D02*
X87520000Y-66450000D01*
X87520000Y-66450000D02*
X90280000Y-66450000D01*
X88470000Y-63460000D02*
X88470000Y-63690000D01*
X88900000Y-61030000D02*
X90170000Y-61030000D01*
X89330000Y-63460000D02*
X89330000Y-63690000D01*
X90170000Y-61030000D02*
X90170000Y-62300000D01*
X90280000Y-63690000D02*
X87520000Y-63690000D01*
X90280000Y-66450000D02*
X90280000Y-63690000D01*
X89330000Y-66450000D02*
X88470000Y-66450000D01*
X88470000Y-72450000D01*
X89330000Y-72450000D01*
X89330000Y-66450000D01*
G36*
X89330000Y-66450000D02*
G01*
X88470000Y-66450000D01*
X88470000Y-72450000D01*
X89330000Y-72450000D01*
X89330000Y-66450000D01*
G37*
%TO.C,J5*%
X69740000Y-63690000D02*
X69740000Y-66450000D01*
X69740000Y-66450000D02*
X72500000Y-66450000D01*
X70690000Y-63460000D02*
X70690000Y-63690000D01*
X71120000Y-61030000D02*
X72390000Y-61030000D01*
X71550000Y-63460000D02*
X71550000Y-63690000D01*
X72390000Y-61030000D02*
X72390000Y-62300000D01*
X72500000Y-63690000D02*
X69740000Y-63690000D01*
X72500000Y-66450000D02*
X72500000Y-63690000D01*
X71550000Y-66450000D02*
X70690000Y-66450000D01*
X70690000Y-72450000D01*
X71550000Y-72450000D01*
X71550000Y-66450000D01*
G36*
X71550000Y-66450000D02*
G01*
X70690000Y-66450000D01*
X70690000Y-72450000D01*
X71550000Y-72450000D01*
X71550000Y-66450000D01*
G37*
%TO.C,J6*%
X51960000Y-63690000D02*
X51960000Y-66450000D01*
X51960000Y-66450000D02*
X54720000Y-66450000D01*
X52910000Y-63460000D02*
X52910000Y-63690000D01*
X53340000Y-61030000D02*
X54610000Y-61030000D01*
X53770000Y-63460000D02*
X53770000Y-63690000D01*
X54610000Y-61030000D02*
X54610000Y-62300000D01*
X54720000Y-63690000D02*
X51960000Y-63690000D01*
X54720000Y-66450000D02*
X54720000Y-63690000D01*
X53770000Y-66450000D02*
X52910000Y-66450000D01*
X52910000Y-72450000D01*
X53770000Y-72450000D01*
X53770000Y-66450000D01*
G36*
X53770000Y-66450000D02*
G01*
X52910000Y-66450000D01*
X52910000Y-72450000D01*
X53770000Y-72450000D01*
X53770000Y-66450000D01*
G37*
%TO.C,J7*%
X34180000Y-63690000D02*
X34180000Y-66450000D01*
X34180000Y-66450000D02*
X36940000Y-66450000D01*
X35130000Y-63460000D02*
X35130000Y-63690000D01*
X35560000Y-61030000D02*
X36830000Y-61030000D01*
X35990000Y-63460000D02*
X35990000Y-63690000D01*
X36830000Y-61030000D02*
X36830000Y-62300000D01*
X36940000Y-63690000D02*
X34180000Y-63690000D01*
X36940000Y-66450000D02*
X36940000Y-63690000D01*
X35990000Y-66450000D02*
X35130000Y-66450000D01*
X35130000Y-72450000D01*
X35990000Y-72450000D01*
X35990000Y-66450000D01*
G36*
X35990000Y-66450000D02*
G01*
X35130000Y-66450000D01*
X35130000Y-72450000D01*
X35990000Y-72450000D01*
X35990000Y-66450000D01*
G37*
%TO.C,J8*%
X16400000Y-63620000D02*
X16400000Y-66380000D01*
X16400000Y-66380000D02*
X19160000Y-66380000D01*
X17350000Y-63390000D02*
X17350000Y-63620000D01*
X17780000Y-60960000D02*
X19050000Y-60960000D01*
X18210000Y-63390000D02*
X18210000Y-63620000D01*
X19050000Y-60960000D02*
X19050000Y-62230000D01*
X19160000Y-63620000D02*
X16400000Y-63620000D01*
X19160000Y-66380000D02*
X19160000Y-63620000D01*
X18210000Y-66380000D02*
X17350000Y-66380000D01*
X17350000Y-72380000D01*
X18210000Y-72380000D01*
X18210000Y-66380000D01*
G36*
X18210000Y-66380000D02*
G01*
X17350000Y-66380000D01*
X17350000Y-72380000D01*
X18210000Y-72380000D01*
X18210000Y-66380000D01*
G37*
%TO.C,J9*%
X140970000Y-36830000D02*
X142240000Y-36830000D01*
X140970000Y-38100000D02*
X140970000Y-36830000D01*
X143317358Y-40210000D02*
X143630000Y-40210000D01*
X143317358Y-41070000D02*
X143630000Y-41070000D01*
X143317358Y-42750000D02*
X143630000Y-42750000D01*
X143317358Y-43610000D02*
X143630000Y-43610000D01*
X143400000Y-37670000D02*
X143630000Y-37670000D01*
X143400000Y-38530000D02*
X143630000Y-38530000D01*
X143630000Y-36720000D02*
X143630000Y-44560000D01*
X143630000Y-39370000D02*
X146390000Y-39370000D01*
X143630000Y-41910000D02*
X146390000Y-41910000D01*
X143630000Y-44560000D02*
X146390000Y-44560000D01*
X146390000Y-36720000D02*
X143630000Y-36720000D01*
X146390000Y-40210000D02*
X152390000Y-40210000D01*
X146390000Y-42750000D02*
X152390000Y-42750000D01*
X146390000Y-44560000D02*
X146390000Y-36720000D01*
X152390000Y-40210000D02*
X152390000Y-41070000D01*
X152390000Y-41070000D02*
X146390000Y-41070000D01*
X152390000Y-42750000D02*
X152390000Y-43610000D01*
X152390000Y-43610000D02*
X146390000Y-43610000D01*
X146390000Y-37670000D02*
X152390000Y-37670000D01*
X152390000Y-38530000D01*
X146390000Y-38530000D01*
X146390000Y-37670000D01*
G36*
X146390000Y-37670000D02*
G01*
X152390000Y-37670000D01*
X152390000Y-38530000D01*
X146390000Y-38530000D01*
X146390000Y-37670000D01*
G37*
%TO.C,J10*%
X140970000Y-44450000D02*
X142240000Y-44450000D01*
X140970000Y-45720000D02*
X140970000Y-44450000D01*
X143400000Y-45290000D02*
X143630000Y-45290000D01*
X143400000Y-46150000D02*
X143630000Y-46150000D01*
X143630000Y-44340000D02*
X143630000Y-47100000D01*
X143630000Y-47100000D02*
X146390000Y-47100000D01*
X146390000Y-44340000D02*
X143630000Y-44340000D01*
X146390000Y-47100000D02*
X146390000Y-44340000D01*
X146390000Y-45290000D02*
X152390000Y-45290000D01*
X152390000Y-46150000D01*
X146390000Y-46150000D01*
X146390000Y-45290000D01*
G36*
X146390000Y-45290000D02*
G01*
X152390000Y-45290000D01*
X152390000Y-46150000D01*
X146390000Y-46150000D01*
X146390000Y-45290000D01*
G37*
%TO.C,J13*%
X141030000Y-29210000D02*
X142300000Y-29210000D01*
X141030000Y-30480000D02*
X141030000Y-29210000D01*
X143460000Y-30050000D02*
X143690000Y-30050000D01*
X143460000Y-30910000D02*
X143690000Y-30910000D01*
X143690000Y-29100000D02*
X143690000Y-31860000D01*
X143690000Y-31860000D02*
X146450000Y-31860000D01*
X146450000Y-29100000D02*
X143690000Y-29100000D01*
X146450000Y-31860000D02*
X146450000Y-29100000D01*
X146450000Y-30050000D02*
X152450000Y-30050000D01*
X152450000Y-30910000D01*
X146450000Y-30910000D01*
X146450000Y-30050000D01*
G36*
X146450000Y-30050000D02*
G01*
X152450000Y-30050000D01*
X152450000Y-30910000D01*
X146450000Y-30910000D01*
X146450000Y-30050000D01*
G37*
%TO.C,J11*%
X140970000Y-46990000D02*
X142240000Y-46990000D01*
X140970000Y-48260000D02*
X140970000Y-46990000D01*
X143317358Y-50370000D02*
X143630000Y-50370000D01*
X143317358Y-51230000D02*
X143630000Y-51230000D01*
X143317358Y-52910000D02*
X143630000Y-52910000D01*
X143317358Y-53770000D02*
X143630000Y-53770000D01*
X143400000Y-47830000D02*
X143630000Y-47830000D01*
X143400000Y-48690000D02*
X143630000Y-48690000D01*
X143630000Y-46880000D02*
X143630000Y-54720000D01*
X143630000Y-49530000D02*
X146390000Y-49530000D01*
X143630000Y-52070000D02*
X146390000Y-52070000D01*
X143630000Y-54720000D02*
X146390000Y-54720000D01*
X146390000Y-46880000D02*
X143630000Y-46880000D01*
X146390000Y-50370000D02*
X152390000Y-50370000D01*
X146390000Y-52910000D02*
X152390000Y-52910000D01*
X146390000Y-54720000D02*
X146390000Y-46880000D01*
X152390000Y-50370000D02*
X152390000Y-51230000D01*
X152390000Y-51230000D02*
X146390000Y-51230000D01*
X152390000Y-52910000D02*
X152390000Y-53770000D01*
X152390000Y-53770000D02*
X146390000Y-53770000D01*
X146390000Y-47830000D02*
X152390000Y-47830000D01*
X152390000Y-48690000D01*
X146390000Y-48690000D01*
X146390000Y-47830000D01*
G36*
X146390000Y-47830000D02*
G01*
X152390000Y-47830000D01*
X152390000Y-48690000D01*
X146390000Y-48690000D01*
X146390000Y-47830000D01*
G37*
%TO.C,J12*%
X140970000Y-54610000D02*
X142240000Y-54610000D01*
X140970000Y-55880000D02*
X140970000Y-54610000D01*
X143400000Y-55450000D02*
X143630000Y-55450000D01*
X143400000Y-56310000D02*
X143630000Y-56310000D01*
X143630000Y-54500000D02*
X143630000Y-57260000D01*
X143630000Y-57260000D02*
X146390000Y-57260000D01*
X146390000Y-54500000D02*
X143630000Y-54500000D01*
X146390000Y-57260000D02*
X146390000Y-54500000D01*
X146390000Y-55450000D02*
X152390000Y-55450000D01*
X152390000Y-56310000D01*
X146390000Y-56310000D01*
X146390000Y-55450000D01*
G36*
X146390000Y-55450000D02*
G01*
X152390000Y-55450000D01*
X152390000Y-56310000D01*
X146390000Y-56310000D01*
X146390000Y-55450000D01*
G37*
%TO.C,J14*%
X141030000Y-26670000D02*
X142300000Y-26670000D01*
X141030000Y-27940000D02*
X141030000Y-26670000D01*
X143460000Y-27510000D02*
X143690000Y-27510000D01*
X143460000Y-28370000D02*
X143690000Y-28370000D01*
X143690000Y-26560000D02*
X143690000Y-29320000D01*
X143690000Y-29320000D02*
X146450000Y-29320000D01*
X146450000Y-26560000D02*
X143690000Y-26560000D01*
X146450000Y-29320000D02*
X146450000Y-26560000D01*
X146450000Y-27510000D02*
X152450000Y-27510000D01*
X152450000Y-28370000D01*
X146450000Y-28370000D01*
X146450000Y-27510000D01*
G36*
X146450000Y-27510000D02*
G01*
X152450000Y-27510000D01*
X152450000Y-28370000D01*
X146450000Y-28370000D01*
X146450000Y-27510000D01*
G37*
%TO.C,U1*%
X66060000Y-46955000D02*
X66060000Y-45005000D01*
X66060000Y-46955000D02*
X66060000Y-50405000D01*
X76180000Y-46955000D02*
X76180000Y-45005000D01*
X76180000Y-46955000D02*
X76180000Y-48905000D01*
%TO.C,U2*%
X102255000Y-48260000D02*
X102255000Y-46310000D01*
X102255000Y-48260000D02*
X102255000Y-51710000D01*
X112375000Y-48260000D02*
X112375000Y-46310000D01*
X112375000Y-48260000D02*
X112375000Y-50210000D01*
%TO.C,J15*%
X140970000Y-34290000D02*
X142240000Y-34290000D01*
X140970000Y-35560000D02*
X140970000Y-34290000D01*
X143400000Y-35130000D02*
X143630000Y-35130000D01*
X143400000Y-35990000D02*
X143630000Y-35990000D01*
X143630000Y-34180000D02*
X143630000Y-36940000D01*
X143630000Y-36940000D02*
X146390000Y-36940000D01*
X146390000Y-34180000D02*
X143630000Y-34180000D01*
X146390000Y-36940000D02*
X146390000Y-34180000D01*
X146390000Y-35130000D02*
X152390000Y-35130000D01*
X152390000Y-35990000D01*
X146390000Y-35990000D01*
X146390000Y-35130000D01*
G36*
X146390000Y-35130000D02*
G01*
X152390000Y-35130000D01*
X152390000Y-35990000D01*
X146390000Y-35990000D01*
X146390000Y-35130000D01*
G37*
%TO.C,J16*%
X140970000Y-57150000D02*
X142240000Y-57150000D01*
X140970000Y-58420000D02*
X140970000Y-57150000D01*
X143400000Y-57990000D02*
X143630000Y-57990000D01*
X143400000Y-58850000D02*
X143630000Y-58850000D01*
X143630000Y-57040000D02*
X143630000Y-59800000D01*
X143630000Y-59800000D02*
X146390000Y-59800000D01*
X146390000Y-57040000D02*
X143630000Y-57040000D01*
X146390000Y-59800000D02*
X146390000Y-57040000D01*
X146390000Y-57990000D02*
X152390000Y-57990000D01*
X152390000Y-58850000D01*
X146390000Y-58850000D01*
X146390000Y-57990000D01*
G36*
X146390000Y-57990000D02*
G01*
X152390000Y-57990000D01*
X152390000Y-58850000D01*
X146390000Y-58850000D01*
X146390000Y-57990000D01*
G37*
%TO.C,R1*%
X77370000Y-50992064D02*
X77370000Y-50537936D01*
X78840000Y-50992064D02*
X78840000Y-50537936D01*
%TO.C,R2*%
X113565000Y-51932064D02*
X113565000Y-51477936D01*
X115035000Y-51932064D02*
X115035000Y-51477936D01*
%TD*%
M02*
