%TF.GenerationSoftware,KiCad,Pcbnew,9.0.6*%
%TF.CreationDate,2026-03-30T17:07:16+03:00*%
%TF.ProjectId,MUX8x1-1bit,4d555838-7831-42d3-9162-69742e6b6963,rev?*%
%TF.SameCoordinates,Original*%
%TF.FileFunction,Copper,L1,Top*%
%TF.FilePolarity,Positive*%
%FSLAX46Y46*%
G04 Gerber Fmt 4.6, Leading zero omitted, Abs format (unit mm)*
G04 Created by KiCad (PCBNEW 9.0.6) date 2026-03-30 17:07:16*
%MOMM*%
%LPD*%
G01*
G04 APERTURE LIST*
G04 Aperture macros list*
%AMRoundRect*
0 Rectangle with rounded corners*
0 $1 Rounding radius*
0 $2 $3 $4 $5 $6 $7 $8 $9 X,Y pos of 4 corners*
0 Add a 4 corners polygon primitive as box body*
4,1,4,$2,$3,$4,$5,$6,$7,$8,$9,$2,$3,0*
0 Add four circle primitives for the rounded corners*
1,1,$1+$1,$2,$3*
1,1,$1+$1,$4,$5*
1,1,$1+$1,$6,$7*
1,1,$1+$1,$8,$9*
0 Add four rect primitives between the rounded corners*
20,1,$1+$1,$2,$3,$4,$5,0*
20,1,$1+$1,$4,$5,$6,$7,0*
20,1,$1+$1,$6,$7,$8,$9,0*
20,1,$1+$1,$8,$9,$2,$3,0*%
G04 Aperture macros list end*
%ADD10C,0.500000*%
%TA.AperFunction,NonConductor*%
%ADD11C,0.500000*%
%TD*%
%ADD12C,0.300000*%
%TA.AperFunction,NonConductor*%
%ADD13C,0.300000*%
%TD*%
%ADD14C,0.150000*%
%TA.AperFunction,NonConductor*%
%ADD15C,0.150000*%
%TD*%
%TA.AperFunction,SMDPad,CuDef*%
%ADD16RoundRect,0.250000X-0.475000X0.337500X-0.475000X-0.337500X0.475000X-0.337500X0.475000X0.337500X0*%
%TD*%
%TA.AperFunction,ComponentPad*%
%ADD17R,1.700000X1.700000*%
%TD*%
%TA.AperFunction,ComponentPad*%
%ADD18R,1.800000X1.700000*%
%TD*%
%TA.AperFunction,ComponentPad*%
%ADD19C,2.000000*%
%TD*%
%TA.AperFunction,ComponentPad*%
%ADD20R,1.800000X1.500000*%
%TD*%
%TA.AperFunction,ComponentPad*%
%ADD21O,2.000000X1.500000*%
%TD*%
%TA.AperFunction,SMDPad,CuDef*%
%ADD22RoundRect,0.150000X0.150000X-0.725000X0.150000X0.725000X-0.150000X0.725000X-0.150000X-0.725000X0*%
%TD*%
%TA.AperFunction,SMDPad,CuDef*%
%ADD23RoundRect,0.249999X0.450001X-0.350001X0.450001X0.350001X-0.450001X0.350001X-0.450001X-0.350001X0*%
%TD*%
%TA.AperFunction,ViaPad*%
%ADD24C,1.300000*%
%TD*%
%TA.AperFunction,ViaPad*%
%ADD25C,1.500000*%
%TD*%
%TA.AperFunction,Conductor*%
%ADD26C,0.600000*%
%TD*%
%TA.AperFunction,Conductor*%
%ADD27C,0.500000*%
%TD*%
%TA.AperFunction,Conductor*%
%ADD28C,0.400000*%
%TD*%
%TA.AperFunction,Conductor*%
%ADD29C,0.300000*%
%TD*%
G04 APERTURE END LIST*
D10*
D11*
X28623571Y-45811857D02*
X28623571Y-42811857D01*
X28623571Y-42811857D02*
X29623571Y-44954714D01*
X29623571Y-44954714D02*
X30623571Y-42811857D01*
X30623571Y-42811857D02*
X30623571Y-45811857D01*
X32052142Y-42811857D02*
X32052142Y-45240428D01*
X32052142Y-45240428D02*
X32194999Y-45526142D01*
X32194999Y-45526142D02*
X32337857Y-45669000D01*
X32337857Y-45669000D02*
X32623571Y-45811857D01*
X32623571Y-45811857D02*
X33194999Y-45811857D01*
X33194999Y-45811857D02*
X33480714Y-45669000D01*
X33480714Y-45669000D02*
X33623571Y-45526142D01*
X33623571Y-45526142D02*
X33766428Y-45240428D01*
X33766428Y-45240428D02*
X33766428Y-42811857D01*
X34909285Y-42811857D02*
X36909285Y-45811857D01*
X36909285Y-42811857D02*
X34909285Y-45811857D01*
X38480714Y-44097571D02*
X38194999Y-43954714D01*
X38194999Y-43954714D02*
X38052142Y-43811857D01*
X38052142Y-43811857D02*
X37909285Y-43526142D01*
X37909285Y-43526142D02*
X37909285Y-43383285D01*
X37909285Y-43383285D02*
X38052142Y-43097571D01*
X38052142Y-43097571D02*
X38194999Y-42954714D01*
X38194999Y-42954714D02*
X38480714Y-42811857D01*
X38480714Y-42811857D02*
X39052142Y-42811857D01*
X39052142Y-42811857D02*
X39337857Y-42954714D01*
X39337857Y-42954714D02*
X39480714Y-43097571D01*
X39480714Y-43097571D02*
X39623571Y-43383285D01*
X39623571Y-43383285D02*
X39623571Y-43526142D01*
X39623571Y-43526142D02*
X39480714Y-43811857D01*
X39480714Y-43811857D02*
X39337857Y-43954714D01*
X39337857Y-43954714D02*
X39052142Y-44097571D01*
X39052142Y-44097571D02*
X38480714Y-44097571D01*
X38480714Y-44097571D02*
X38194999Y-44240428D01*
X38194999Y-44240428D02*
X38052142Y-44383285D01*
X38052142Y-44383285D02*
X37909285Y-44669000D01*
X37909285Y-44669000D02*
X37909285Y-45240428D01*
X37909285Y-45240428D02*
X38052142Y-45526142D01*
X38052142Y-45526142D02*
X38194999Y-45669000D01*
X38194999Y-45669000D02*
X38480714Y-45811857D01*
X38480714Y-45811857D02*
X39052142Y-45811857D01*
X39052142Y-45811857D02*
X39337857Y-45669000D01*
X39337857Y-45669000D02*
X39480714Y-45526142D01*
X39480714Y-45526142D02*
X39623571Y-45240428D01*
X39623571Y-45240428D02*
X39623571Y-44669000D01*
X39623571Y-44669000D02*
X39480714Y-44383285D01*
X39480714Y-44383285D02*
X39337857Y-44240428D01*
X39337857Y-44240428D02*
X39052142Y-44097571D01*
X40909285Y-45526142D02*
X41052142Y-45669000D01*
X41052142Y-45669000D02*
X40909285Y-45811857D01*
X40909285Y-45811857D02*
X40766428Y-45669000D01*
X40766428Y-45669000D02*
X40909285Y-45526142D01*
X40909285Y-45526142D02*
X40909285Y-45811857D01*
X40909285Y-43954714D02*
X41052142Y-44097571D01*
X41052142Y-44097571D02*
X40909285Y-44240428D01*
X40909285Y-44240428D02*
X40766428Y-44097571D01*
X40766428Y-44097571D02*
X40909285Y-43954714D01*
X40909285Y-43954714D02*
X40909285Y-44240428D01*
X43909285Y-45811857D02*
X42194999Y-45811857D01*
X43052142Y-45811857D02*
X43052142Y-42811857D01*
X43052142Y-42811857D02*
X42766428Y-43240428D01*
X42766428Y-43240428D02*
X42480713Y-43526142D01*
X42480713Y-43526142D02*
X42194999Y-43669000D01*
D12*
D13*
X33952857Y-48938328D02*
X33095714Y-48938328D01*
X33524285Y-48938328D02*
X33524285Y-47438328D01*
X33524285Y-47438328D02*
X33381428Y-47652614D01*
X33381428Y-47652614D02*
X33238571Y-47795471D01*
X33238571Y-47795471D02*
X33095714Y-47866900D01*
X35738570Y-48938328D02*
X35738570Y-47438328D01*
X35738570Y-48009757D02*
X35881428Y-47938328D01*
X35881428Y-47938328D02*
X36167142Y-47938328D01*
X36167142Y-47938328D02*
X36309999Y-48009757D01*
X36309999Y-48009757D02*
X36381428Y-48081185D01*
X36381428Y-48081185D02*
X36452856Y-48224042D01*
X36452856Y-48224042D02*
X36452856Y-48652614D01*
X36452856Y-48652614D02*
X36381428Y-48795471D01*
X36381428Y-48795471D02*
X36309999Y-48866900D01*
X36309999Y-48866900D02*
X36167142Y-48938328D01*
X36167142Y-48938328D02*
X35881428Y-48938328D01*
X35881428Y-48938328D02*
X35738570Y-48866900D01*
X37095713Y-48938328D02*
X37095713Y-47938328D01*
X37095713Y-47438328D02*
X37024285Y-47509757D01*
X37024285Y-47509757D02*
X37095713Y-47581185D01*
X37095713Y-47581185D02*
X37167142Y-47509757D01*
X37167142Y-47509757D02*
X37095713Y-47438328D01*
X37095713Y-47438328D02*
X37095713Y-47581185D01*
X37595714Y-47938328D02*
X38167142Y-47938328D01*
X37809999Y-47438328D02*
X37809999Y-48724042D01*
X37809999Y-48724042D02*
X37881428Y-48866900D01*
X37881428Y-48866900D02*
X38024285Y-48938328D01*
X38024285Y-48938328D02*
X38167142Y-48938328D01*
D12*
D13*
X30774286Y-55058328D02*
X31702858Y-55058328D01*
X31702858Y-55058328D02*
X31202858Y-55629757D01*
X31202858Y-55629757D02*
X31417143Y-55629757D01*
X31417143Y-55629757D02*
X31560001Y-55701185D01*
X31560001Y-55701185D02*
X31631429Y-55772614D01*
X31631429Y-55772614D02*
X31702858Y-55915471D01*
X31702858Y-55915471D02*
X31702858Y-56272614D01*
X31702858Y-56272614D02*
X31631429Y-56415471D01*
X31631429Y-56415471D02*
X31560001Y-56486900D01*
X31560001Y-56486900D02*
X31417143Y-56558328D01*
X31417143Y-56558328D02*
X30988572Y-56558328D01*
X30988572Y-56558328D02*
X30845715Y-56486900D01*
X30845715Y-56486900D02*
X30774286Y-56415471D01*
X32631429Y-55058328D02*
X32774286Y-55058328D01*
X32774286Y-55058328D02*
X32917143Y-55129757D01*
X32917143Y-55129757D02*
X32988572Y-55201185D01*
X32988572Y-55201185D02*
X33060000Y-55344042D01*
X33060000Y-55344042D02*
X33131429Y-55629757D01*
X33131429Y-55629757D02*
X33131429Y-55986900D01*
X33131429Y-55986900D02*
X33060000Y-56272614D01*
X33060000Y-56272614D02*
X32988572Y-56415471D01*
X32988572Y-56415471D02*
X32917143Y-56486900D01*
X32917143Y-56486900D02*
X32774286Y-56558328D01*
X32774286Y-56558328D02*
X32631429Y-56558328D01*
X32631429Y-56558328D02*
X32488572Y-56486900D01*
X32488572Y-56486900D02*
X32417143Y-56415471D01*
X32417143Y-56415471D02*
X32345714Y-56272614D01*
X32345714Y-56272614D02*
X32274286Y-55986900D01*
X32274286Y-55986900D02*
X32274286Y-55629757D01*
X32274286Y-55629757D02*
X32345714Y-55344042D01*
X32345714Y-55344042D02*
X32417143Y-55201185D01*
X32417143Y-55201185D02*
X32488572Y-55129757D01*
X32488572Y-55129757D02*
X32631429Y-55058328D01*
X33774285Y-56415471D02*
X33845714Y-56486900D01*
X33845714Y-56486900D02*
X33774285Y-56558328D01*
X33774285Y-56558328D02*
X33702857Y-56486900D01*
X33702857Y-56486900D02*
X33774285Y-56415471D01*
X33774285Y-56415471D02*
X33774285Y-56558328D01*
X34774286Y-55058328D02*
X34917143Y-55058328D01*
X34917143Y-55058328D02*
X35060000Y-55129757D01*
X35060000Y-55129757D02*
X35131429Y-55201185D01*
X35131429Y-55201185D02*
X35202857Y-55344042D01*
X35202857Y-55344042D02*
X35274286Y-55629757D01*
X35274286Y-55629757D02*
X35274286Y-55986900D01*
X35274286Y-55986900D02*
X35202857Y-56272614D01*
X35202857Y-56272614D02*
X35131429Y-56415471D01*
X35131429Y-56415471D02*
X35060000Y-56486900D01*
X35060000Y-56486900D02*
X34917143Y-56558328D01*
X34917143Y-56558328D02*
X34774286Y-56558328D01*
X34774286Y-56558328D02*
X34631429Y-56486900D01*
X34631429Y-56486900D02*
X34560000Y-56415471D01*
X34560000Y-56415471D02*
X34488571Y-56272614D01*
X34488571Y-56272614D02*
X34417143Y-55986900D01*
X34417143Y-55986900D02*
X34417143Y-55629757D01*
X34417143Y-55629757D02*
X34488571Y-55344042D01*
X34488571Y-55344042D02*
X34560000Y-55201185D01*
X34560000Y-55201185D02*
X34631429Y-55129757D01*
X34631429Y-55129757D02*
X34774286Y-55058328D01*
X35774285Y-55058328D02*
X36702857Y-55058328D01*
X36702857Y-55058328D02*
X36202857Y-55629757D01*
X36202857Y-55629757D02*
X36417142Y-55629757D01*
X36417142Y-55629757D02*
X36560000Y-55701185D01*
X36560000Y-55701185D02*
X36631428Y-55772614D01*
X36631428Y-55772614D02*
X36702857Y-55915471D01*
X36702857Y-55915471D02*
X36702857Y-56272614D01*
X36702857Y-56272614D02*
X36631428Y-56415471D01*
X36631428Y-56415471D02*
X36560000Y-56486900D01*
X36560000Y-56486900D02*
X36417142Y-56558328D01*
X36417142Y-56558328D02*
X35988571Y-56558328D01*
X35988571Y-56558328D02*
X35845714Y-56486900D01*
X35845714Y-56486900D02*
X35774285Y-56415471D01*
X37345713Y-56415471D02*
X37417142Y-56486900D01*
X37417142Y-56486900D02*
X37345713Y-56558328D01*
X37345713Y-56558328D02*
X37274285Y-56486900D01*
X37274285Y-56486900D02*
X37345713Y-56415471D01*
X37345713Y-56415471D02*
X37345713Y-56558328D01*
X37988571Y-55201185D02*
X38059999Y-55129757D01*
X38059999Y-55129757D02*
X38202857Y-55058328D01*
X38202857Y-55058328D02*
X38559999Y-55058328D01*
X38559999Y-55058328D02*
X38702857Y-55129757D01*
X38702857Y-55129757D02*
X38774285Y-55201185D01*
X38774285Y-55201185D02*
X38845714Y-55344042D01*
X38845714Y-55344042D02*
X38845714Y-55486900D01*
X38845714Y-55486900D02*
X38774285Y-55701185D01*
X38774285Y-55701185D02*
X37917142Y-56558328D01*
X37917142Y-56558328D02*
X38845714Y-56558328D01*
X40131428Y-55058328D02*
X39845713Y-55058328D01*
X39845713Y-55058328D02*
X39702856Y-55129757D01*
X39702856Y-55129757D02*
X39631428Y-55201185D01*
X39631428Y-55201185D02*
X39488570Y-55415471D01*
X39488570Y-55415471D02*
X39417142Y-55701185D01*
X39417142Y-55701185D02*
X39417142Y-56272614D01*
X39417142Y-56272614D02*
X39488570Y-56415471D01*
X39488570Y-56415471D02*
X39559999Y-56486900D01*
X39559999Y-56486900D02*
X39702856Y-56558328D01*
X39702856Y-56558328D02*
X39988570Y-56558328D01*
X39988570Y-56558328D02*
X40131428Y-56486900D01*
X40131428Y-56486900D02*
X40202856Y-56415471D01*
X40202856Y-56415471D02*
X40274285Y-56272614D01*
X40274285Y-56272614D02*
X40274285Y-55915471D01*
X40274285Y-55915471D02*
X40202856Y-55772614D01*
X40202856Y-55772614D02*
X40131428Y-55701185D01*
X40131428Y-55701185D02*
X39988570Y-55629757D01*
X39988570Y-55629757D02*
X39702856Y-55629757D01*
X39702856Y-55629757D02*
X39559999Y-55701185D01*
X39559999Y-55701185D02*
X39488570Y-55772614D01*
X39488570Y-55772614D02*
X39417142Y-55915471D01*
D12*
D13*
X31274285Y-51248328D02*
X32274285Y-51248328D01*
X32274285Y-51248328D02*
X31631428Y-52748328D01*
X33488571Y-51748328D02*
X33488571Y-52748328D01*
X33131428Y-51176900D02*
X32774285Y-52248328D01*
X32774285Y-52248328D02*
X33702856Y-52248328D01*
X34274284Y-52748328D02*
X34274284Y-51248328D01*
X34274284Y-51962614D02*
X35131427Y-51962614D01*
X35131427Y-52748328D02*
X35131427Y-51248328D01*
X36702856Y-52605471D02*
X36631428Y-52676900D01*
X36631428Y-52676900D02*
X36417142Y-52748328D01*
X36417142Y-52748328D02*
X36274285Y-52748328D01*
X36274285Y-52748328D02*
X36059999Y-52676900D01*
X36059999Y-52676900D02*
X35917142Y-52534042D01*
X35917142Y-52534042D02*
X35845713Y-52391185D01*
X35845713Y-52391185D02*
X35774285Y-52105471D01*
X35774285Y-52105471D02*
X35774285Y-51891185D01*
X35774285Y-51891185D02*
X35845713Y-51605471D01*
X35845713Y-51605471D02*
X35917142Y-51462614D01*
X35917142Y-51462614D02*
X36059999Y-51319757D01*
X36059999Y-51319757D02*
X36274285Y-51248328D01*
X36274285Y-51248328D02*
X36417142Y-51248328D01*
X36417142Y-51248328D02*
X36631428Y-51319757D01*
X36631428Y-51319757D02*
X36702856Y-51391185D01*
X37345713Y-52748328D02*
X37345713Y-51248328D01*
X37345713Y-51248328D02*
X37917142Y-51248328D01*
X37917142Y-51248328D02*
X38059999Y-51319757D01*
X38059999Y-51319757D02*
X38131428Y-51391185D01*
X38131428Y-51391185D02*
X38202856Y-51534042D01*
X38202856Y-51534042D02*
X38202856Y-51748328D01*
X38202856Y-51748328D02*
X38131428Y-51891185D01*
X38131428Y-51891185D02*
X38059999Y-51962614D01*
X38059999Y-51962614D02*
X37917142Y-52034042D01*
X37917142Y-52034042D02*
X37345713Y-52034042D01*
X38845713Y-51248328D02*
X38845713Y-52462614D01*
X38845713Y-52462614D02*
X38917142Y-52605471D01*
X38917142Y-52605471D02*
X38988571Y-52676900D01*
X38988571Y-52676900D02*
X39131428Y-52748328D01*
X39131428Y-52748328D02*
X39417142Y-52748328D01*
X39417142Y-52748328D02*
X39559999Y-52676900D01*
X39559999Y-52676900D02*
X39631428Y-52605471D01*
X39631428Y-52605471D02*
X39702856Y-52462614D01*
X39702856Y-52462614D02*
X39702856Y-51248328D01*
D14*
D15*
X138422142Y-56652438D02*
X138326904Y-56604819D01*
X138326904Y-56604819D02*
X138184047Y-56604819D01*
X138184047Y-56604819D02*
X138041190Y-56652438D01*
X138041190Y-56652438D02*
X137945952Y-56747676D01*
X137945952Y-56747676D02*
X137898333Y-56842914D01*
X137898333Y-56842914D02*
X137850714Y-57033390D01*
X137850714Y-57033390D02*
X137850714Y-57176247D01*
X137850714Y-57176247D02*
X137898333Y-57366723D01*
X137898333Y-57366723D02*
X137945952Y-57461961D01*
X137945952Y-57461961D02*
X138041190Y-57557200D01*
X138041190Y-57557200D02*
X138184047Y-57604819D01*
X138184047Y-57604819D02*
X138279285Y-57604819D01*
X138279285Y-57604819D02*
X138422142Y-57557200D01*
X138422142Y-57557200D02*
X138469761Y-57509580D01*
X138469761Y-57509580D02*
X138469761Y-57176247D01*
X138469761Y-57176247D02*
X138279285Y-57176247D01*
X138898333Y-56938152D02*
X138898333Y-57604819D01*
X138898333Y-57033390D02*
X138945952Y-56985771D01*
X138945952Y-56985771D02*
X139041190Y-56938152D01*
X139041190Y-56938152D02*
X139184047Y-56938152D01*
X139184047Y-56938152D02*
X139279285Y-56985771D01*
X139279285Y-56985771D02*
X139326904Y-57081009D01*
X139326904Y-57081009D02*
X139326904Y-57604819D01*
X140231666Y-57604819D02*
X140231666Y-56604819D01*
X140231666Y-57557200D02*
X140136428Y-57604819D01*
X140136428Y-57604819D02*
X139945952Y-57604819D01*
X139945952Y-57604819D02*
X139850714Y-57557200D01*
X139850714Y-57557200D02*
X139803095Y-57509580D01*
X139803095Y-57509580D02*
X139755476Y-57414342D01*
X139755476Y-57414342D02*
X139755476Y-57128628D01*
X139755476Y-57128628D02*
X139803095Y-57033390D01*
X139803095Y-57033390D02*
X139850714Y-56985771D01*
X139850714Y-56985771D02*
X139945952Y-56938152D01*
X139945952Y-56938152D02*
X140136428Y-56938152D01*
X140136428Y-56938152D02*
X140231666Y-56985771D01*
D16*
%TO.P,C1,1*%
%TO.N,VCC*%
X64135000Y-46037500D03*
%TO.P,C1,2*%
%TO.N,GND*%
X64135000Y-48112500D03*
%TD*%
%TO.P,C2,1*%
%TO.N,VCC*%
X116840000Y-48725000D03*
%TO.P,C2,2*%
%TO.N,GND*%
X116840000Y-50800000D03*
%TD*%
D17*
%TO.P,J1,1,Pin_1*%
%TO.N,/D0*%
X142240000Y-62300000D03*
%TD*%
%TO.P,J2,1,Pin_1*%
%TO.N,/D1*%
X124460000Y-62300000D03*
%TD*%
%TO.P,J3,1,Pin_1*%
%TO.N,/D2*%
X106680000Y-62300000D03*
%TD*%
%TO.P,J4,1,Pin_1*%
%TO.N,/D3*%
X88900000Y-62300000D03*
%TD*%
%TO.P,J5,1,Pin_1*%
%TO.N,/D4*%
X71120000Y-62300000D03*
%TD*%
%TO.P,J6,1,Pin_1*%
%TO.N,/D5*%
X53340000Y-62300000D03*
%TD*%
%TO.P,J7,1,Pin_1*%
%TO.N,/D6*%
X35560000Y-62300000D03*
%TD*%
%TO.P,J8,1,Pin_1*%
%TO.N,/D7*%
X17780000Y-62230000D03*
%TD*%
D18*
%TO.P,J9,1,Pin_1*%
%TO.N,/S0.0*%
X142240000Y-38100000D03*
D19*
%TO.P,J9,2,Pin_2*%
%TO.N,/S0.1*%
X142240000Y-40640000D03*
%TO.P,J9,3,Pin_3*%
%TO.N,/S0.2*%
X142240000Y-43180000D03*
%TD*%
D20*
%TO.P,J10,1,Pin_1*%
%TO.N,/~{E0}*%
X142240000Y-45720000D03*
%TD*%
%TO.P,J13,1,Pin_1*%
%TO.N,/O0*%
X142300000Y-30480000D03*
%TD*%
%TO.P,J11,1,Pin_1*%
%TO.N,/S1.0*%
X142240000Y-48260000D03*
D19*
%TO.P,J11,2,Pin_2*%
%TO.N,/S1.1*%
X142240000Y-50800000D03*
D21*
%TO.P,J11,3,Pin_3*%
%TO.N,/S1.2*%
X142240000Y-53340000D03*
%TD*%
D20*
%TO.P,J12,1,Pin_1*%
%TO.N,/~{E1}*%
X142240000Y-55880000D03*
%TD*%
%TO.P,J14,1,Pin_1*%
%TO.N,/O1*%
X142300000Y-27940000D03*
%TD*%
D22*
%TO.P,U1,1,I3*%
%TO.N,/D3*%
X66675000Y-49530000D03*
%TO.P,U1,2,I2*%
%TO.N,/D2*%
X67945000Y-49530000D03*
%TO.P,U1,3,I1*%
%TO.N,/D1*%
X69215000Y-49530000D03*
%TO.P,U1,4,I0*%
%TO.N,/D0*%
X70485000Y-49530000D03*
%TO.P,U1,5,Z*%
%TO.N,/O0*%
X71755000Y-49530000D03*
%TO.P,U1,6,~{Z}*%
%TO.N,unconnected-(U1-~{Z}-Pad6)*%
X73025000Y-49530000D03*
%TO.P,U1,7,~{E}*%
%TO.N,/~{E0}*%
X74295000Y-49530000D03*
%TO.P,U1,8,GND*%
%TO.N,GND*%
X75565000Y-49530000D03*
%TO.P,U1,9,S2*%
%TO.N,/S0.2*%
X75565000Y-44380000D03*
%TO.P,U1,10,S1*%
%TO.N,/S0.1*%
X74295000Y-44380000D03*
%TO.P,U1,11,S0*%
%TO.N,/S0.0*%
X73025000Y-44380000D03*
%TO.P,U1,12,I7*%
%TO.N,/D7*%
X71755000Y-44380000D03*
%TO.P,U1,13,I6*%
%TO.N,/D6*%
X70485000Y-44380000D03*
%TO.P,U1,14,I5*%
%TO.N,/D5*%
X69215000Y-44380000D03*
%TO.P,U1,15,I4*%
%TO.N,/D4*%
X67945000Y-44380000D03*
%TO.P,U1,16,VCC*%
%TO.N,VCC*%
X66675000Y-44380000D03*
%TD*%
%TO.P,U2,1,I3*%
%TO.N,/D3*%
X102870000Y-50835000D03*
%TO.P,U2,2,I2*%
%TO.N,/D2*%
X104140000Y-50835000D03*
%TO.P,U2,3,I1*%
%TO.N,/D1*%
X105410000Y-50835000D03*
%TO.P,U2,4,I0*%
%TO.N,/D0*%
X106680000Y-50835000D03*
%TO.P,U2,5,Z*%
%TO.N,/O1*%
X107950000Y-50835000D03*
%TO.P,U2,6,~{Z}*%
%TO.N,unconnected-(U2-~{Z}-Pad6)*%
X109220000Y-50835000D03*
%TO.P,U2,7,~{E}*%
%TO.N,/~{E1}*%
X110490000Y-50835000D03*
%TO.P,U2,8,GND*%
%TO.N,GND*%
X111760000Y-50835000D03*
%TO.P,U2,9,S2*%
%TO.N,/S1.2*%
X111760000Y-45685000D03*
%TO.P,U2,10,S1*%
%TO.N,/S1.1*%
X110490000Y-45685000D03*
%TO.P,U2,11,S0*%
%TO.N,/S1.0*%
X109220000Y-45685000D03*
%TO.P,U2,12,I7*%
%TO.N,/D7*%
X107950000Y-45685000D03*
%TO.P,U2,13,I6*%
%TO.N,/D6*%
X106680000Y-45685000D03*
%TO.P,U2,14,I5*%
%TO.N,/D5*%
X105410000Y-45685000D03*
%TO.P,U2,15,I4*%
%TO.N,/D4*%
X104140000Y-45685000D03*
%TO.P,U2,16,VCC*%
%TO.N,VCC*%
X102870000Y-45685000D03*
%TD*%
D20*
%TO.P,J15,1,Pin_1*%
%TO.N,VCC*%
X142240000Y-35560000D03*
%TD*%
D18*
%TO.P,J16,1,Pin_1*%
%TO.N,GND*%
X142240000Y-58420000D03*
%TD*%
D23*
%TO.P,R1,1*%
%TO.N,/~{E0}*%
X78105000Y-51765000D03*
%TO.P,R1,2*%
%TO.N,GND*%
X78105000Y-49765000D03*
%TD*%
%TO.P,R2,1*%
%TO.N,/~{E1}*%
X114300000Y-52705000D03*
%TO.P,R2,2*%
%TO.N,GND*%
X114300000Y-50705000D03*
%TD*%
D24*
%TO.N,*%
X101600000Y-52387500D03*
X65405000Y-51117500D03*
D25*
%TO.N,VCC*%
X66040000Y-35877500D03*
X116840000Y-31115000D03*
X116840000Y-42545000D03*
X66040000Y-41910000D03*
%TO.N,/~{E0}*%
X95885000Y-45720000D03*
X95885000Y-38735000D03*
%TO.N,/O0*%
X100330000Y-31432500D03*
X100330000Y-45085000D03*
%TO.N,/~{E1}*%
X136525000Y-55880000D03*
X132715000Y-55880000D03*
%TD*%
D26*
%TO.N,GND*%
X135890000Y-58420000D02*
X142240000Y-58420000D01*
D27*
X75417500Y-48112500D02*
X75565000Y-48260000D01*
D26*
X144145000Y-58420000D02*
X142240000Y-58420000D01*
X134620000Y-53975000D02*
X134620000Y-57150000D01*
X77070000Y-49765000D02*
X78105000Y-49765000D01*
X131445000Y-50800000D02*
X134620000Y-53975000D01*
X78105000Y-64135000D02*
X74295000Y-60325000D01*
X144145000Y-64135000D02*
X78105000Y-64135000D01*
X111760000Y-50835000D02*
X116805000Y-50835000D01*
X64135000Y-57785000D02*
X64135000Y-48112500D01*
X74295000Y-60325000D02*
X66675000Y-60325000D01*
X134620000Y-57150000D02*
X135890000Y-58420000D01*
X144145000Y-58420000D02*
X144145000Y-64135000D01*
X75565000Y-49530000D02*
X76835000Y-49530000D01*
X76835000Y-49530000D02*
X77070000Y-49765000D01*
X116805000Y-50835000D02*
X116840000Y-50800000D01*
D27*
X75565000Y-48260000D02*
X75565000Y-49530000D01*
X64135000Y-48112500D02*
X75417500Y-48112500D01*
D26*
X116840000Y-50800000D02*
X131445000Y-50800000D01*
X66675000Y-60325000D02*
X64135000Y-57785000D01*
D27*
%TO.N,VCC*%
X66675000Y-42545000D02*
X66675000Y-44450000D01*
D26*
X106680000Y-31750000D02*
X105410000Y-33020000D01*
D27*
X102989500Y-47109500D02*
X116840000Y-47109500D01*
D26*
X139700000Y-35560000D02*
X135890000Y-31750000D01*
D27*
X102870000Y-45685000D02*
X102870000Y-46990000D01*
D26*
X135890000Y-31750000D02*
X106680000Y-31750000D01*
X142240000Y-35560000D02*
X139700000Y-35560000D01*
X116840000Y-42545000D02*
X116840000Y-48725000D01*
X83842952Y-33020000D02*
X83820000Y-32997048D01*
X105410000Y-33020000D02*
X83842952Y-33020000D01*
D27*
X66675000Y-46037500D02*
X66675000Y-44380000D01*
X66040000Y-41910000D02*
X66675000Y-42545000D01*
X102870000Y-46990000D02*
X102989500Y-47109500D01*
X66675000Y-44450000D02*
X66675000Y-44380000D01*
X64135000Y-46037500D02*
X66675000Y-46037500D01*
D26*
X83820000Y-32997048D02*
X66040000Y-34925000D01*
X66040000Y-34925000D02*
X66040000Y-35877500D01*
D27*
%TO.N,/D0*%
X70485000Y-53975000D02*
X70485000Y-49530000D01*
X106680000Y-50835000D02*
X106680000Y-48895000D01*
X106680000Y-53975000D02*
X109855000Y-57150000D01*
X106680000Y-50835000D02*
X106680000Y-53975000D01*
X92075000Y-55245000D02*
X71755000Y-55245000D01*
X128975000Y-62300000D02*
X142240000Y-62300000D01*
X109855000Y-57150000D02*
X123825000Y-57150000D01*
D28*
X105595500Y-47810500D02*
X99509500Y-47810500D01*
D27*
X99509500Y-47810500D02*
X92075000Y-55245000D01*
X71755000Y-55245000D02*
X70485000Y-53975000D01*
D28*
X106680000Y-48895000D02*
X105595500Y-47810500D01*
D27*
X123825000Y-57150000D02*
X128975000Y-62300000D01*
%TO.N,/D1*%
X108585000Y-58420000D02*
X122555000Y-58420000D01*
X69215000Y-49530000D02*
X69215000Y-55245000D01*
X99060000Y-50165000D02*
X92710000Y-56515000D01*
D28*
X100396000Y-48511500D02*
X104709000Y-48511500D01*
D27*
X105410000Y-50835000D02*
X105410000Y-55245000D01*
X99060000Y-49847500D02*
X100396000Y-48511500D01*
X122555000Y-58420000D02*
X124460000Y-60325000D01*
X104709000Y-48511500D02*
X105410000Y-49212500D01*
X99060000Y-49847500D02*
X99060000Y-50165000D01*
X70485000Y-56515000D02*
X92710000Y-56515000D01*
X105410000Y-49212500D02*
X105410000Y-50835000D01*
X69215000Y-55245000D02*
X70485000Y-56515000D01*
X124460000Y-60325000D02*
X124460000Y-62300000D01*
X105410000Y-55245000D02*
X108585000Y-58420000D01*
%TO.N,/D2*%
X106680000Y-59055000D02*
X106680000Y-62300000D01*
X104140000Y-49530000D02*
X104140000Y-50835000D01*
X104140000Y-50835000D02*
X104140000Y-56515000D01*
X100330000Y-55880000D02*
X100330000Y-49847500D01*
X69215000Y-57785000D02*
X98425000Y-57785000D01*
X67945000Y-56515000D02*
X69215000Y-57785000D01*
X104140000Y-56515000D02*
X106680000Y-59055000D01*
X67945000Y-49530000D02*
X67945000Y-56515000D01*
X103822500Y-49212500D02*
X104140000Y-49530000D01*
X100330000Y-49847500D02*
X100965000Y-49212500D01*
D28*
X100965000Y-49212500D02*
X103822500Y-49212500D01*
D27*
X98425000Y-57785000D02*
X100330000Y-55880000D01*
%TO.N,/D3*%
X83115000Y-59055000D02*
X86360000Y-62300000D01*
X67945000Y-59055000D02*
X83115000Y-59055000D01*
X99695000Y-59055000D02*
X94685000Y-59055000D01*
X99695000Y-59055000D02*
X102870000Y-55880000D01*
X66675000Y-57785000D02*
X67945000Y-59055000D01*
X66675000Y-49530000D02*
X66675000Y-57785000D01*
X88900000Y-62300000D02*
X91440000Y-62300000D01*
X94685000Y-59055000D02*
X91440000Y-62300000D01*
X102870000Y-55880000D02*
X102870000Y-50835000D01*
X86360000Y-62300000D02*
X88900000Y-62300000D01*
%TO.N,/D4*%
X59055000Y-59055000D02*
X62300000Y-62300000D01*
X59055000Y-42545000D02*
X59055000Y-59055000D01*
D28*
X67945000Y-44380000D02*
X67945000Y-47244000D01*
D27*
X91059000Y-43815000D02*
X87630000Y-47244000D01*
X61277500Y-40322500D02*
X59055000Y-42545000D01*
X104140000Y-43815000D02*
X91059000Y-43815000D01*
X67945000Y-40322500D02*
X61277500Y-40322500D01*
X104140000Y-45685000D02*
X104140000Y-43815000D01*
X67945000Y-44380000D02*
X67945000Y-40322500D01*
D29*
X67945000Y-47244000D02*
X79692500Y-47244000D01*
D27*
X87630000Y-47244000D02*
X79692500Y-47244000D01*
X62300000Y-62300000D02*
X71120000Y-62300000D01*
%TO.N,/D5*%
X53975000Y-59055000D02*
X53340000Y-59690000D01*
D28*
X69215000Y-44380000D02*
X69215000Y-46690000D01*
D29*
X79311500Y-46736000D02*
X79692500Y-46355000D01*
D27*
X60325000Y-39370000D02*
X53975000Y-45720000D01*
X69215000Y-39370000D02*
X60325000Y-39370000D01*
X69215000Y-44380000D02*
X69215000Y-39370000D01*
X105410000Y-42545000D02*
X89535000Y-42545000D01*
X85725000Y-46355000D02*
X79692500Y-46355000D01*
X53340000Y-59690000D02*
X53340000Y-62300000D01*
D29*
X69215000Y-46736000D02*
X79311500Y-46736000D01*
D27*
X53975000Y-45720000D02*
X53975000Y-59055000D01*
X105410000Y-45685000D02*
X105410000Y-42545000D01*
X89535000Y-42545000D02*
X85725000Y-46355000D01*
D28*
%TO.N,/D6*%
X70485000Y-44380000D02*
X70485000Y-46180000D01*
D27*
X106680000Y-45685000D02*
X106680000Y-41275000D01*
X70485000Y-44380000D02*
X70485000Y-38417500D01*
X87947500Y-41275000D02*
X83820000Y-45402500D01*
X83820000Y-45402500D02*
X79692500Y-45402500D01*
X106680000Y-41275000D02*
X87947500Y-41275000D01*
D29*
X70485000Y-46228000D02*
X78867000Y-46228000D01*
D27*
X52705000Y-45085000D02*
X52705000Y-57785000D01*
X70485000Y-38417500D02*
X59372500Y-38417500D01*
X48190000Y-62300000D02*
X35560000Y-62300000D01*
X59372500Y-38417500D02*
X52705000Y-45085000D01*
D29*
X78867000Y-46228000D02*
X79692500Y-45402500D01*
D27*
X52705000Y-57785000D02*
X48190000Y-62300000D01*
D29*
%TO.N,/D7*%
X71755000Y-45720000D02*
X78105000Y-45720000D01*
D27*
X107950000Y-45685000D02*
X107950000Y-40170000D01*
D29*
X78105000Y-45720000D02*
X79375000Y-44450000D01*
D27*
X107950000Y-40170000D02*
X86195000Y-40170000D01*
X71755000Y-44380000D02*
X71755000Y-37465000D01*
D28*
X71755000Y-44380000D02*
X71755000Y-45670000D01*
D27*
X71755000Y-37465000D02*
X58420000Y-37465000D01*
X58420000Y-37465000D02*
X51435000Y-44450000D01*
D29*
X79375000Y-44450000D02*
X79692500Y-44450000D01*
D27*
X46990000Y-60325000D02*
X32385000Y-60325000D01*
X51435000Y-55880000D02*
X46990000Y-60325000D01*
X51435000Y-44450000D02*
X51435000Y-55880000D01*
X86195000Y-40170000D02*
X81915000Y-44450000D01*
X32385000Y-60325000D02*
X30480000Y-62230000D01*
X81915000Y-44450000D02*
X79692500Y-44450000D01*
X30480000Y-62230000D02*
X17780000Y-62230000D01*
%TO.N,/S0.2*%
X86360000Y-36815568D02*
X86374432Y-36830000D01*
X86374432Y-36830000D02*
X109220000Y-36830000D01*
X75565000Y-42545000D02*
X80645000Y-37465000D01*
X75565000Y-44380000D02*
X75565000Y-42545000D01*
X132080000Y-35560000D02*
X139700000Y-43180000D01*
X139700000Y-43180000D02*
X142240000Y-43180000D01*
X109220000Y-36830000D02*
X110490000Y-35560000D01*
X110490000Y-35560000D02*
X132080000Y-35560000D01*
X80645000Y-37465000D02*
X86360000Y-36815568D01*
%TO.N,/S0.1*%
X74295000Y-44380000D02*
X74295000Y-41910000D01*
X139700000Y-40640000D02*
X142240000Y-40640000D01*
X80010000Y-36195000D02*
X85725000Y-35545568D01*
X109220000Y-34290000D02*
X133350000Y-34290000D01*
X85739432Y-35560000D02*
X107950000Y-35560000D01*
X133350000Y-34290000D02*
X139700000Y-40640000D01*
X107950000Y-35560000D02*
X109220000Y-34290000D01*
X74295000Y-41910000D02*
X80010000Y-36195000D01*
X85725000Y-35545568D02*
X85739432Y-35560000D01*
%TO.N,/S0.0*%
X84455000Y-34315400D02*
X84480400Y-34290000D01*
X139700000Y-38100000D02*
X142240000Y-38100000D01*
X73025000Y-44380000D02*
X73025000Y-41275000D01*
X106680000Y-34290000D02*
X107950000Y-33020000D01*
X107950000Y-33020000D02*
X134620000Y-33020000D01*
X84480400Y-34290000D02*
X106680000Y-34290000D01*
X134620000Y-33020000D02*
X139700000Y-38100000D01*
X73025000Y-41275000D02*
X79375000Y-34925000D01*
X79375000Y-34925000D02*
X84455000Y-34315400D01*
%TO.N,/~{E0}*%
X130810000Y-36830000D02*
X139700000Y-45720000D01*
X78105000Y-51765000D02*
X75260000Y-51765000D01*
X78105000Y-51765000D02*
X89840000Y-51765000D01*
X109220000Y-38735000D02*
X111125000Y-36830000D01*
X95885000Y-38735000D02*
X109220000Y-38735000D01*
X75260000Y-51765000D02*
X74295000Y-50800000D01*
X139700000Y-45720000D02*
X142240000Y-45720000D01*
X74295000Y-50800000D02*
X74295000Y-49530000D01*
X111125000Y-36830000D02*
X130810000Y-36830000D01*
X89840000Y-51765000D02*
X95885000Y-45720000D01*
%TO.N,/O0*%
X100330000Y-31432500D02*
X104457500Y-31432500D01*
X120015000Y-30480000D02*
X142300000Y-30480000D01*
X105410000Y-30480000D02*
X113665000Y-30480000D01*
X73025000Y-53975000D02*
X71755000Y-52705000D01*
X71755000Y-52705000D02*
X71755000Y-49530000D01*
X113665000Y-30480000D02*
X114935000Y-29210000D01*
X91440000Y-53975000D02*
X73025000Y-53975000D01*
X114935000Y-29210000D02*
X118745000Y-29210000D01*
X100330000Y-45085000D02*
X91440000Y-53975000D01*
X118745000Y-29210000D02*
X120015000Y-30480000D01*
X104457500Y-31432500D02*
X105410000Y-30480000D01*
%TO.N,/S1.2*%
X111760000Y-41910000D02*
X111760000Y-45685000D01*
X130175000Y-43850000D02*
X130175000Y-43815000D01*
X142240000Y-53340000D02*
X139700000Y-53340000D01*
X134620000Y-48260000D02*
X134585000Y-48260000D01*
X113030000Y-40640000D02*
X111760000Y-41910000D01*
X127000000Y-40640000D02*
X113030000Y-40640000D01*
X134585000Y-48260000D02*
X130175000Y-43850000D01*
X139700000Y-53340000D02*
X134620000Y-48260000D01*
X130175000Y-43815000D02*
X127000000Y-40640000D01*
%TO.N,/S1.1*%
X128270000Y-39370000D02*
X112395000Y-39370000D01*
X112395000Y-39370000D02*
X110490000Y-41275000D01*
X142240000Y-50800000D02*
X139700000Y-50800000D01*
X110490000Y-41275000D02*
X110490000Y-45685000D01*
X139700000Y-50800000D02*
X128270000Y-39370000D01*
%TO.N,/S1.0*%
X142240000Y-48260000D02*
X139700000Y-48260000D01*
X109220000Y-40640000D02*
X109220000Y-45685000D01*
X129540000Y-38100000D02*
X111760000Y-38100000D01*
X139700000Y-48260000D02*
X129540000Y-38100000D01*
X111760000Y-38100000D02*
X109220000Y-40640000D01*
%TO.N,/~{E1}*%
X127635000Y-55880000D02*
X126365000Y-54610000D01*
X114300000Y-54610000D02*
X112395000Y-54610000D01*
X138430000Y-55880000D02*
X136525000Y-55880000D01*
X126365000Y-54610000D02*
X114300000Y-54610000D01*
X110490000Y-52705000D02*
X110490000Y-50835000D01*
X114300000Y-52705000D02*
X114300000Y-54610000D01*
X127635000Y-55880000D02*
X132715000Y-55880000D01*
X112395000Y-54610000D02*
X110490000Y-52705000D01*
X142240000Y-55880000D02*
X138430000Y-55880000D01*
D28*
%TO.N,/O1*%
X140335000Y-54610000D02*
X144145000Y-54610000D01*
D27*
X117957600Y-49784000D02*
X133604000Y-49784000D01*
X144145000Y-54610000D02*
X144145000Y-27940000D01*
X107950000Y-48895000D02*
X114935000Y-48895000D01*
D28*
X115686520Y-49784000D02*
X117957600Y-49784000D01*
D27*
X107950000Y-50835000D02*
X107950000Y-48895000D01*
X114935000Y-48895000D02*
X115686520Y-49784000D01*
X133604000Y-49784000D02*
X138430000Y-54610000D01*
X138430000Y-54610000D02*
X140335000Y-54610000D01*
X144145000Y-27940000D02*
X142300000Y-27940000D01*
%TD*%
M02*
