M48
; DRILL file {KiCad 9.0.6} date 2026-03-30T17:07:21+0300
; FORMAT={-:-/ absolute / metric / decimal}
; #@! TF.CreationDate,2026-03-30T17:07:21+03:00
; #@! TF.GenerationSoftware,Kicad,Pcbnew,9.0.6
; #@! TF.FileFunction,Plated,1,2,PTH
FMAT,2
METRIC
; #@! TA.AperFunction,Plated,PTH,ViaDrill
T1C0.300
; #@! TA.AperFunction,Plated,PTH,ViaDrill
T2C0.500
; #@! TA.AperFunction,Plated,PTH,ComponentDrill
T3C1.000
%
G90
G05
T1
X65.405Y-51.117
X101.6Y-52.387
T2
X66.04Y-35.877
X66.04Y-41.91
X95.885Y-38.735
X95.885Y-45.72
X100.33Y-31.432
X100.33Y-45.085
X116.84Y-31.115
X116.84Y-42.545
X132.715Y-55.88
X136.525Y-55.88
T3
X17.78Y-62.23
X35.56Y-62.3
X53.34Y-62.3
X71.12Y-62.3
X88.9Y-62.3
X106.68Y-62.3
X124.46Y-62.3
X142.24Y-35.56
X142.24Y-38.1
X142.24Y-40.64
X142.24Y-43.18
X142.24Y-45.72
X142.24Y-48.26
X142.24Y-50.8
X142.24Y-53.34
X142.24Y-55.88
X142.24Y-58.42
X142.24Y-62.3
X142.3Y-27.94
X142.3Y-30.48
M30
