M48
; DRILL file {KiCad 9.0.6} date 2026-03-27T21:20:08+0300
; FORMAT={-:-/ absolute / metric / decimal}
; #@! TF.CreationDate,2026-03-27T21:20:08+03:00
; #@! TF.GenerationSoftware,Kicad,Pcbnew,9.0.6
; #@! TF.FileFunction,Plated,1,2,PTH
FMAT,2
METRIC
; #@! TA.AperFunction,Plated,PTH,ViaDrill
T1C0.300
; #@! TA.AperFunction,Plated,PTH,ViaDrill
T2C0.500
; #@! TA.AperFunction,Plated,PTH,ComponentDrill
T3C1.000
%
G90
G05
T1
X65.405Y-47.307
X101.6Y-48.578
T2
X66.675Y-38.735
X66.71Y-31.715
X92.71Y-34.925
X92.71Y-43.18
X95.885Y-34.925
X95.885Y-43.18
T3
X17.78Y-58.49
X35.56Y-58.49
X53.34Y-58.49
X71.12Y-58.49
X88.9Y-58.49
X106.68Y-58.49
X124.46Y-58.49
X142.24Y-24.13
X142.24Y-26.67
X142.24Y-29.21
X142.24Y-31.75
X142.24Y-34.29
X142.24Y-36.83
X142.24Y-41.91
X142.24Y-44.45
X142.24Y-46.99
X142.24Y-49.53
X142.24Y-52.07
X142.24Y-54.61
X142.24Y-58.49
M30
