%TF.GenerationSoftware,KiCad,Pcbnew,9.0.6*%
%TF.CreationDate,2026-03-30T17:07:16+03:00*%
%TF.ProjectId,MUX8x1-1bit,4d555838-7831-42d3-9162-69742e6b6963,rev?*%
%TF.SameCoordinates,Original*%
%TF.FileFunction,Soldermask,Top*%
%TF.FilePolarity,Negative*%
%FSLAX46Y46*%
G04 Gerber Fmt 4.6, Leading zero omitted, Abs format (unit mm)*
G04 Created by KiCad (PCBNEW 9.0.6) date 2026-03-30 17:07:16*
%MOMM*%
%LPD*%
G01*
G04 APERTURE LIST*
G04 Aperture macros list*
%AMRoundRect*
0 Rectangle with rounded corners*
0 $1 Rounding radius*
0 $2 $3 $4 $5 $6 $7 $8 $9 X,Y pos of 4 corners*
0 Add a 4 corners polygon primitive as box body*
4,1,4,$2,$3,$4,$5,$6,$7,$8,$9,$2,$3,0*
0 Add four circle primitives for the rounded corners*
1,1,$1+$1,$2,$3*
1,1,$1+$1,$4,$5*
1,1,$1+$1,$6,$7*
1,1,$1+$1,$8,$9*
0 Add four rect primitives between the rounded corners*
20,1,$1+$1,$2,$3,$4,$5,0*
20,1,$1+$1,$4,$5,$6,$7,0*
20,1,$1+$1,$6,$7,$8,$9,0*
20,1,$1+$1,$8,$9,$2,$3,0*%
G04 Aperture macros list end*
%ADD10RoundRect,0.250000X-0.475000X0.337500X-0.475000X-0.337500X0.475000X-0.337500X0.475000X0.337500X0*%
%ADD11R,1.700000X1.700000*%
%ADD12R,1.800000X1.700000*%
%ADD13C,2.000000*%
%ADD14R,1.800000X1.500000*%
%ADD15O,2.000000X1.500000*%
%ADD16RoundRect,0.150000X0.150000X-0.725000X0.150000X0.725000X-0.150000X0.725000X-0.150000X-0.725000X0*%
%ADD17RoundRect,0.249999X0.450001X-0.350001X0.450001X0.350001X-0.450001X0.350001X-0.450001X-0.350001X0*%
G04 APERTURE END LIST*
D10*
%TO.C,C1*%
X64135000Y-46037500D03*
X64135000Y-48112500D03*
%TD*%
%TO.C,C2*%
X116840000Y-48725000D03*
X116840000Y-50800000D03*
%TD*%
D11*
%TO.C,J1*%
X142240000Y-62300000D03*
%TD*%
%TO.C,J2*%
X124460000Y-62300000D03*
%TD*%
%TO.C,J3*%
X106680000Y-62300000D03*
%TD*%
%TO.C,J4*%
X88900000Y-62300000D03*
%TD*%
%TO.C,J5*%
X71120000Y-62300000D03*
%TD*%
%TO.C,J6*%
X53340000Y-62300000D03*
%TD*%
%TO.C,J7*%
X35560000Y-62300000D03*
%TD*%
%TO.C,J8*%
X17780000Y-62230000D03*
%TD*%
D12*
%TO.C,J9*%
X142240000Y-38100000D03*
D13*
X142240000Y-40640000D03*
X142240000Y-43180000D03*
%TD*%
D14*
%TO.C,J10*%
X142240000Y-45720000D03*
%TD*%
%TO.C,J13*%
X142300000Y-30480000D03*
%TD*%
%TO.C,J11*%
X142240000Y-48260000D03*
D13*
X142240000Y-50800000D03*
D15*
X142240000Y-53340000D03*
%TD*%
D14*
%TO.C,J12*%
X142240000Y-55880000D03*
%TD*%
%TO.C,J14*%
X142300000Y-27940000D03*
%TD*%
D16*
%TO.C,U1*%
X66675000Y-49530000D03*
X67945000Y-49530000D03*
X69215000Y-49530000D03*
X70485000Y-49530000D03*
X71755000Y-49530000D03*
X73025000Y-49530000D03*
X74295000Y-49530000D03*
X75565000Y-49530000D03*
X75565000Y-44380000D03*
X74295000Y-44380000D03*
X73025000Y-44380000D03*
X71755000Y-44380000D03*
X70485000Y-44380000D03*
X69215000Y-44380000D03*
X67945000Y-44380000D03*
X66675000Y-44380000D03*
%TD*%
%TO.C,U2*%
X102870000Y-50835000D03*
X104140000Y-50835000D03*
X105410000Y-50835000D03*
X106680000Y-50835000D03*
X107950000Y-50835000D03*
X109220000Y-50835000D03*
X110490000Y-50835000D03*
X111760000Y-50835000D03*
X111760000Y-45685000D03*
X110490000Y-45685000D03*
X109220000Y-45685000D03*
X107950000Y-45685000D03*
X106680000Y-45685000D03*
X105410000Y-45685000D03*
X104140000Y-45685000D03*
X102870000Y-45685000D03*
%TD*%
D14*
%TO.C,J15*%
X142240000Y-35560000D03*
%TD*%
D12*
%TO.C,J16*%
X142240000Y-58420000D03*
%TD*%
D17*
%TO.C,R1*%
X78105000Y-51765000D03*
X78105000Y-49765000D03*
%TD*%
%TO.C,R2*%
X114300000Y-52705000D03*
X114300000Y-50705000D03*
%TD*%
M02*
