%TF.GenerationSoftware,KiCad,Pcbnew,9.0.6*%
%TF.CreationDate,2026-03-27T21:09:20+03:00*%
%TF.ProjectId,MUX8x1-1bit,4d555838-7831-42d3-9162-69742e6b6963,rev?*%
%TF.SameCoordinates,Original*%
%TF.FileFunction,Legend,Top*%
%TF.FilePolarity,Positive*%
%FSLAX46Y46*%
G04 Gerber Fmt 4.6, Leading zero omitted, Abs format (unit mm)*
G04 Created by KiCad (PCBNEW 9.0.6) date 2026-03-27 21:09:20*
%MOMM*%
%LPD*%
G01*
G04 APERTURE LIST*
%ADD10C,0.150000*%
%ADD11C,0.300000*%
%ADD12C,0.500000*%
%ADD13C,0.120000*%
G04 APERTURE END LIST*
D10*
X139652381Y-26124819D02*
X139747619Y-26124819D01*
X139747619Y-26124819D02*
X139842857Y-26172438D01*
X139842857Y-26172438D02*
X139890476Y-26220057D01*
X139890476Y-26220057D02*
X139938095Y-26315295D01*
X139938095Y-26315295D02*
X139985714Y-26505771D01*
X139985714Y-26505771D02*
X139985714Y-26743866D01*
X139985714Y-26743866D02*
X139938095Y-26934342D01*
X139938095Y-26934342D02*
X139890476Y-27029580D01*
X139890476Y-27029580D02*
X139842857Y-27077200D01*
X139842857Y-27077200D02*
X139747619Y-27124819D01*
X139747619Y-27124819D02*
X139652381Y-27124819D01*
X139652381Y-27124819D02*
X139557143Y-27077200D01*
X139557143Y-27077200D02*
X139509524Y-27029580D01*
X139509524Y-27029580D02*
X139461905Y-26934342D01*
X139461905Y-26934342D02*
X139414286Y-26743866D01*
X139414286Y-26743866D02*
X139414286Y-26505771D01*
X139414286Y-26505771D02*
X139461905Y-26315295D01*
X139461905Y-26315295D02*
X139509524Y-26220057D01*
X139509524Y-26220057D02*
X139557143Y-26172438D01*
X139557143Y-26172438D02*
X139652381Y-26124819D01*
X139985714Y-29664819D02*
X139414286Y-29664819D01*
X139700000Y-29664819D02*
X139700000Y-28664819D01*
X139700000Y-28664819D02*
X139604762Y-28807676D01*
X139604762Y-28807676D02*
X139509524Y-28902914D01*
X139509524Y-28902914D02*
X139414286Y-28950533D01*
X139414286Y-31300057D02*
X139461905Y-31252438D01*
X139461905Y-31252438D02*
X139557143Y-31204819D01*
X139557143Y-31204819D02*
X139795238Y-31204819D01*
X139795238Y-31204819D02*
X139890476Y-31252438D01*
X139890476Y-31252438D02*
X139938095Y-31300057D01*
X139938095Y-31300057D02*
X139985714Y-31395295D01*
X139985714Y-31395295D02*
X139985714Y-31490533D01*
X139985714Y-31490533D02*
X139938095Y-31633390D01*
X139938095Y-31633390D02*
X139366667Y-32204819D01*
X139366667Y-32204819D02*
X139985714Y-32204819D01*
X138202200Y-29986904D02*
X138249819Y-29844047D01*
X138249819Y-29844047D02*
X138249819Y-29605952D01*
X138249819Y-29605952D02*
X138202200Y-29510714D01*
X138202200Y-29510714D02*
X138154580Y-29463095D01*
X138154580Y-29463095D02*
X138059342Y-29415476D01*
X138059342Y-29415476D02*
X137964104Y-29415476D01*
X137964104Y-29415476D02*
X137868866Y-29463095D01*
X137868866Y-29463095D02*
X137821247Y-29510714D01*
X137821247Y-29510714D02*
X137773628Y-29605952D01*
X137773628Y-29605952D02*
X137726009Y-29796428D01*
X137726009Y-29796428D02*
X137678390Y-29891666D01*
X137678390Y-29891666D02*
X137630771Y-29939285D01*
X137630771Y-29939285D02*
X137535533Y-29986904D01*
X137535533Y-29986904D02*
X137440295Y-29986904D01*
X137440295Y-29986904D02*
X137345057Y-29939285D01*
X137345057Y-29939285D02*
X137297438Y-29891666D01*
X137297438Y-29891666D02*
X137249819Y-29796428D01*
X137249819Y-29796428D02*
X137249819Y-29558333D01*
X137249819Y-29558333D02*
X137297438Y-29415476D01*
X137249819Y-28796428D02*
X137249819Y-28701190D01*
X137249819Y-28701190D02*
X137297438Y-28605952D01*
X137297438Y-28605952D02*
X137345057Y-28558333D01*
X137345057Y-28558333D02*
X137440295Y-28510714D01*
X137440295Y-28510714D02*
X137630771Y-28463095D01*
X137630771Y-28463095D02*
X137868866Y-28463095D01*
X137868866Y-28463095D02*
X138059342Y-28510714D01*
X138059342Y-28510714D02*
X138154580Y-28558333D01*
X138154580Y-28558333D02*
X138202200Y-28605952D01*
X138202200Y-28605952D02*
X138249819Y-28701190D01*
X138249819Y-28701190D02*
X138249819Y-28796428D01*
X138249819Y-28796428D02*
X138202200Y-28891666D01*
X138202200Y-28891666D02*
X138154580Y-28939285D01*
X138154580Y-28939285D02*
X138059342Y-28986904D01*
X138059342Y-28986904D02*
X137868866Y-29034523D01*
X137868866Y-29034523D02*
X137630771Y-29034523D01*
X137630771Y-29034523D02*
X137440295Y-28986904D01*
X137440295Y-28986904D02*
X137345057Y-28939285D01*
X137345057Y-28939285D02*
X137297438Y-28891666D01*
X137297438Y-28891666D02*
X137249819Y-28796428D01*
X105229819Y-45116666D02*
X105229819Y-45688094D01*
X105229819Y-45402380D02*
X104229819Y-45402380D01*
X104229819Y-45402380D02*
X104372676Y-45497618D01*
X104372676Y-45497618D02*
X104467914Y-45592856D01*
X104467914Y-45592856D02*
X104515533Y-45688094D01*
X104229819Y-44211904D02*
X104229819Y-44688094D01*
X104229819Y-44688094D02*
X104706009Y-44735713D01*
X104706009Y-44735713D02*
X104658390Y-44688094D01*
X104658390Y-44688094D02*
X104610771Y-44592856D01*
X104610771Y-44592856D02*
X104610771Y-44354761D01*
X104610771Y-44354761D02*
X104658390Y-44259523D01*
X104658390Y-44259523D02*
X104706009Y-44211904D01*
X104706009Y-44211904D02*
X104801247Y-44164285D01*
X104801247Y-44164285D02*
X105039342Y-44164285D01*
X105039342Y-44164285D02*
X105134580Y-44211904D01*
X105134580Y-44211904D02*
X105182200Y-44259523D01*
X105182200Y-44259523D02*
X105229819Y-44354761D01*
X105229819Y-44354761D02*
X105229819Y-44592856D01*
X105229819Y-44592856D02*
X105182200Y-44688094D01*
X105182200Y-44688094D02*
X105134580Y-44735713D01*
X105229819Y-43211904D02*
X105229819Y-43783332D01*
X105229819Y-43497618D02*
X104229819Y-43497618D01*
X104229819Y-43497618D02*
X104372676Y-43592856D01*
X104372676Y-43592856D02*
X104467914Y-43688094D01*
X104467914Y-43688094D02*
X104515533Y-43783332D01*
D11*
X33952857Y-45128328D02*
X33095714Y-45128328D01*
X33524285Y-45128328D02*
X33524285Y-43628328D01*
X33524285Y-43628328D02*
X33381428Y-43842614D01*
X33381428Y-43842614D02*
X33238571Y-43985471D01*
X33238571Y-43985471D02*
X33095714Y-44056900D01*
X35738570Y-45128328D02*
X35738570Y-43628328D01*
X35738570Y-44199757D02*
X35881428Y-44128328D01*
X35881428Y-44128328D02*
X36167142Y-44128328D01*
X36167142Y-44128328D02*
X36309999Y-44199757D01*
X36309999Y-44199757D02*
X36381428Y-44271185D01*
X36381428Y-44271185D02*
X36452856Y-44414042D01*
X36452856Y-44414042D02*
X36452856Y-44842614D01*
X36452856Y-44842614D02*
X36381428Y-44985471D01*
X36381428Y-44985471D02*
X36309999Y-45056900D01*
X36309999Y-45056900D02*
X36167142Y-45128328D01*
X36167142Y-45128328D02*
X35881428Y-45128328D01*
X35881428Y-45128328D02*
X35738570Y-45056900D01*
X37095713Y-45128328D02*
X37095713Y-44128328D01*
X37095713Y-43628328D02*
X37024285Y-43699757D01*
X37024285Y-43699757D02*
X37095713Y-43771185D01*
X37095713Y-43771185D02*
X37167142Y-43699757D01*
X37167142Y-43699757D02*
X37095713Y-43628328D01*
X37095713Y-43628328D02*
X37095713Y-43771185D01*
X37595714Y-44128328D02*
X38167142Y-44128328D01*
X37809999Y-43628328D02*
X37809999Y-44914042D01*
X37809999Y-44914042D02*
X37881428Y-45056900D01*
X37881428Y-45056900D02*
X38024285Y-45128328D01*
X38024285Y-45128328D02*
X38167142Y-45128328D01*
D10*
X138444524Y-49476009D02*
X138777857Y-49476009D01*
X138920714Y-49999819D02*
X138444524Y-49999819D01*
X138444524Y-49999819D02*
X138444524Y-48999819D01*
X138444524Y-48999819D02*
X138920714Y-48999819D01*
X139873095Y-49999819D02*
X139301667Y-49999819D01*
X139587381Y-49999819D02*
X139587381Y-48999819D01*
X139587381Y-48999819D02*
X139492143Y-49142676D01*
X139492143Y-49142676D02*
X139396905Y-49237914D01*
X139396905Y-49237914D02*
X139301667Y-49285533D01*
X138306429Y-48722200D02*
X139963572Y-48722200D01*
X103401905Y-58874819D02*
X103401905Y-57874819D01*
X103401905Y-57874819D02*
X103640000Y-57874819D01*
X103640000Y-57874819D02*
X103782857Y-57922438D01*
X103782857Y-57922438D02*
X103878095Y-58017676D01*
X103878095Y-58017676D02*
X103925714Y-58112914D01*
X103925714Y-58112914D02*
X103973333Y-58303390D01*
X103973333Y-58303390D02*
X103973333Y-58446247D01*
X103973333Y-58446247D02*
X103925714Y-58636723D01*
X103925714Y-58636723D02*
X103878095Y-58731961D01*
X103878095Y-58731961D02*
X103782857Y-58827200D01*
X103782857Y-58827200D02*
X103640000Y-58874819D01*
X103640000Y-58874819D02*
X103401905Y-58874819D01*
X104354286Y-57970057D02*
X104401905Y-57922438D01*
X104401905Y-57922438D02*
X104497143Y-57874819D01*
X104497143Y-57874819D02*
X104735238Y-57874819D01*
X104735238Y-57874819D02*
X104830476Y-57922438D01*
X104830476Y-57922438D02*
X104878095Y-57970057D01*
X104878095Y-57970057D02*
X104925714Y-58065295D01*
X104925714Y-58065295D02*
X104925714Y-58160533D01*
X104925714Y-58160533D02*
X104878095Y-58303390D01*
X104878095Y-58303390D02*
X104306667Y-58874819D01*
X104306667Y-58874819D02*
X104925714Y-58874819D01*
X138493571Y-36299819D02*
X138684047Y-36299819D01*
X138684047Y-36299819D02*
X138779285Y-36347438D01*
X138779285Y-36347438D02*
X138874523Y-36442676D01*
X138874523Y-36442676D02*
X138922142Y-36633152D01*
X138922142Y-36633152D02*
X138922142Y-36966485D01*
X138922142Y-36966485D02*
X138874523Y-37156961D01*
X138874523Y-37156961D02*
X138779285Y-37252200D01*
X138779285Y-37252200D02*
X138684047Y-37299819D01*
X138684047Y-37299819D02*
X138493571Y-37299819D01*
X138493571Y-37299819D02*
X138398333Y-37252200D01*
X138398333Y-37252200D02*
X138303095Y-37156961D01*
X138303095Y-37156961D02*
X138255476Y-36966485D01*
X138255476Y-36966485D02*
X138255476Y-36633152D01*
X138255476Y-36633152D02*
X138303095Y-36442676D01*
X138303095Y-36442676D02*
X138398333Y-36347438D01*
X138398333Y-36347438D02*
X138493571Y-36299819D01*
X139541190Y-36299819D02*
X139636428Y-36299819D01*
X139636428Y-36299819D02*
X139731666Y-36347438D01*
X139731666Y-36347438D02*
X139779285Y-36395057D01*
X139779285Y-36395057D02*
X139826904Y-36490295D01*
X139826904Y-36490295D02*
X139874523Y-36680771D01*
X139874523Y-36680771D02*
X139874523Y-36918866D01*
X139874523Y-36918866D02*
X139826904Y-37109342D01*
X139826904Y-37109342D02*
X139779285Y-37204580D01*
X139779285Y-37204580D02*
X139731666Y-37252200D01*
X139731666Y-37252200D02*
X139636428Y-37299819D01*
X139636428Y-37299819D02*
X139541190Y-37299819D01*
X139541190Y-37299819D02*
X139445952Y-37252200D01*
X139445952Y-37252200D02*
X139398333Y-37204580D01*
X139398333Y-37204580D02*
X139350714Y-37109342D01*
X139350714Y-37109342D02*
X139303095Y-36918866D01*
X139303095Y-36918866D02*
X139303095Y-36680771D01*
X139303095Y-36680771D02*
X139350714Y-36490295D01*
X139350714Y-36490295D02*
X139398333Y-36395057D01*
X139398333Y-36395057D02*
X139445952Y-36347438D01*
X139445952Y-36347438D02*
X139541190Y-36299819D01*
X138422142Y-54112438D02*
X138326904Y-54064819D01*
X138326904Y-54064819D02*
X138184047Y-54064819D01*
X138184047Y-54064819D02*
X138041190Y-54112438D01*
X138041190Y-54112438D02*
X137945952Y-54207676D01*
X137945952Y-54207676D02*
X137898333Y-54302914D01*
X137898333Y-54302914D02*
X137850714Y-54493390D01*
X137850714Y-54493390D02*
X137850714Y-54636247D01*
X137850714Y-54636247D02*
X137898333Y-54826723D01*
X137898333Y-54826723D02*
X137945952Y-54921961D01*
X137945952Y-54921961D02*
X138041190Y-55017200D01*
X138041190Y-55017200D02*
X138184047Y-55064819D01*
X138184047Y-55064819D02*
X138279285Y-55064819D01*
X138279285Y-55064819D02*
X138422142Y-55017200D01*
X138422142Y-55017200D02*
X138469761Y-54969580D01*
X138469761Y-54969580D02*
X138469761Y-54636247D01*
X138469761Y-54636247D02*
X138279285Y-54636247D01*
X138898333Y-54398152D02*
X138898333Y-55064819D01*
X138898333Y-54493390D02*
X138945952Y-54445771D01*
X138945952Y-54445771D02*
X139041190Y-54398152D01*
X139041190Y-54398152D02*
X139184047Y-54398152D01*
X139184047Y-54398152D02*
X139279285Y-54445771D01*
X139279285Y-54445771D02*
X139326904Y-54541009D01*
X139326904Y-54541009D02*
X139326904Y-55064819D01*
X140231666Y-55064819D02*
X140231666Y-54064819D01*
X140231666Y-55017200D02*
X140136428Y-55064819D01*
X140136428Y-55064819D02*
X139945952Y-55064819D01*
X139945952Y-55064819D02*
X139850714Y-55017200D01*
X139850714Y-55017200D02*
X139803095Y-54969580D01*
X139803095Y-54969580D02*
X139755476Y-54874342D01*
X139755476Y-54874342D02*
X139755476Y-54588628D01*
X139755476Y-54588628D02*
X139803095Y-54493390D01*
X139803095Y-54493390D02*
X139850714Y-54445771D01*
X139850714Y-54445771D02*
X139945952Y-54398152D01*
X139945952Y-54398152D02*
X140136428Y-54398152D01*
X140136428Y-54398152D02*
X140231666Y-54445771D01*
D12*
X28623571Y-42001857D02*
X28623571Y-39001857D01*
X28623571Y-39001857D02*
X29623571Y-41144714D01*
X29623571Y-41144714D02*
X30623571Y-39001857D01*
X30623571Y-39001857D02*
X30623571Y-42001857D01*
X32052142Y-39001857D02*
X32052142Y-41430428D01*
X32052142Y-41430428D02*
X32194999Y-41716142D01*
X32194999Y-41716142D02*
X32337857Y-41859000D01*
X32337857Y-41859000D02*
X32623571Y-42001857D01*
X32623571Y-42001857D02*
X33194999Y-42001857D01*
X33194999Y-42001857D02*
X33480714Y-41859000D01*
X33480714Y-41859000D02*
X33623571Y-41716142D01*
X33623571Y-41716142D02*
X33766428Y-41430428D01*
X33766428Y-41430428D02*
X33766428Y-39001857D01*
X34909285Y-39001857D02*
X36909285Y-42001857D01*
X36909285Y-39001857D02*
X34909285Y-42001857D01*
X38480714Y-40287571D02*
X38194999Y-40144714D01*
X38194999Y-40144714D02*
X38052142Y-40001857D01*
X38052142Y-40001857D02*
X37909285Y-39716142D01*
X37909285Y-39716142D02*
X37909285Y-39573285D01*
X37909285Y-39573285D02*
X38052142Y-39287571D01*
X38052142Y-39287571D02*
X38194999Y-39144714D01*
X38194999Y-39144714D02*
X38480714Y-39001857D01*
X38480714Y-39001857D02*
X39052142Y-39001857D01*
X39052142Y-39001857D02*
X39337857Y-39144714D01*
X39337857Y-39144714D02*
X39480714Y-39287571D01*
X39480714Y-39287571D02*
X39623571Y-39573285D01*
X39623571Y-39573285D02*
X39623571Y-39716142D01*
X39623571Y-39716142D02*
X39480714Y-40001857D01*
X39480714Y-40001857D02*
X39337857Y-40144714D01*
X39337857Y-40144714D02*
X39052142Y-40287571D01*
X39052142Y-40287571D02*
X38480714Y-40287571D01*
X38480714Y-40287571D02*
X38194999Y-40430428D01*
X38194999Y-40430428D02*
X38052142Y-40573285D01*
X38052142Y-40573285D02*
X37909285Y-40859000D01*
X37909285Y-40859000D02*
X37909285Y-41430428D01*
X37909285Y-41430428D02*
X38052142Y-41716142D01*
X38052142Y-41716142D02*
X38194999Y-41859000D01*
X38194999Y-41859000D02*
X38480714Y-42001857D01*
X38480714Y-42001857D02*
X39052142Y-42001857D01*
X39052142Y-42001857D02*
X39337857Y-41859000D01*
X39337857Y-41859000D02*
X39480714Y-41716142D01*
X39480714Y-41716142D02*
X39623571Y-41430428D01*
X39623571Y-41430428D02*
X39623571Y-40859000D01*
X39623571Y-40859000D02*
X39480714Y-40573285D01*
X39480714Y-40573285D02*
X39337857Y-40430428D01*
X39337857Y-40430428D02*
X39052142Y-40287571D01*
X40909285Y-41716142D02*
X41052142Y-41859000D01*
X41052142Y-41859000D02*
X40909285Y-42001857D01*
X40909285Y-42001857D02*
X40766428Y-41859000D01*
X40766428Y-41859000D02*
X40909285Y-41716142D01*
X40909285Y-41716142D02*
X40909285Y-42001857D01*
X40909285Y-40144714D02*
X41052142Y-40287571D01*
X41052142Y-40287571D02*
X40909285Y-40430428D01*
X40909285Y-40430428D02*
X40766428Y-40287571D01*
X40766428Y-40287571D02*
X40909285Y-40144714D01*
X40909285Y-40144714D02*
X40909285Y-40430428D01*
X43909285Y-42001857D02*
X42194999Y-42001857D01*
X43052142Y-42001857D02*
X43052142Y-39001857D01*
X43052142Y-39001857D02*
X42766428Y-39430428D01*
X42766428Y-39430428D02*
X42480713Y-39716142D01*
X42480713Y-39716142D02*
X42194999Y-39859000D01*
D11*
X31274285Y-47438328D02*
X32274285Y-47438328D01*
X32274285Y-47438328D02*
X31631428Y-48938328D01*
X33488571Y-47938328D02*
X33488571Y-48938328D01*
X33131428Y-47366900D02*
X32774285Y-48438328D01*
X32774285Y-48438328D02*
X33702856Y-48438328D01*
X34274284Y-48938328D02*
X34274284Y-47438328D01*
X34274284Y-48152614D02*
X35131427Y-48152614D01*
X35131427Y-48938328D02*
X35131427Y-47438328D01*
X36702856Y-48795471D02*
X36631428Y-48866900D01*
X36631428Y-48866900D02*
X36417142Y-48938328D01*
X36417142Y-48938328D02*
X36274285Y-48938328D01*
X36274285Y-48938328D02*
X36059999Y-48866900D01*
X36059999Y-48866900D02*
X35917142Y-48724042D01*
X35917142Y-48724042D02*
X35845713Y-48581185D01*
X35845713Y-48581185D02*
X35774285Y-48295471D01*
X35774285Y-48295471D02*
X35774285Y-48081185D01*
X35774285Y-48081185D02*
X35845713Y-47795471D01*
X35845713Y-47795471D02*
X35917142Y-47652614D01*
X35917142Y-47652614D02*
X36059999Y-47509757D01*
X36059999Y-47509757D02*
X36274285Y-47438328D01*
X36274285Y-47438328D02*
X36417142Y-47438328D01*
X36417142Y-47438328D02*
X36631428Y-47509757D01*
X36631428Y-47509757D02*
X36702856Y-47581185D01*
X37345713Y-48938328D02*
X37345713Y-47438328D01*
X37345713Y-47438328D02*
X37917142Y-47438328D01*
X37917142Y-47438328D02*
X38059999Y-47509757D01*
X38059999Y-47509757D02*
X38131428Y-47581185D01*
X38131428Y-47581185D02*
X38202856Y-47724042D01*
X38202856Y-47724042D02*
X38202856Y-47938328D01*
X38202856Y-47938328D02*
X38131428Y-48081185D01*
X38131428Y-48081185D02*
X38059999Y-48152614D01*
X38059999Y-48152614D02*
X37917142Y-48224042D01*
X37917142Y-48224042D02*
X37345713Y-48224042D01*
X38845713Y-47438328D02*
X38845713Y-48652614D01*
X38845713Y-48652614D02*
X38917142Y-48795471D01*
X38917142Y-48795471D02*
X38988571Y-48866900D01*
X38988571Y-48866900D02*
X39131428Y-48938328D01*
X39131428Y-48938328D02*
X39417142Y-48938328D01*
X39417142Y-48938328D02*
X39559999Y-48866900D01*
X39559999Y-48866900D02*
X39631428Y-48795471D01*
X39631428Y-48795471D02*
X39702856Y-48652614D01*
X39702856Y-48652614D02*
X39702856Y-47438328D01*
D10*
X121181905Y-58874819D02*
X121181905Y-57874819D01*
X121181905Y-57874819D02*
X121420000Y-57874819D01*
X121420000Y-57874819D02*
X121562857Y-57922438D01*
X121562857Y-57922438D02*
X121658095Y-58017676D01*
X121658095Y-58017676D02*
X121705714Y-58112914D01*
X121705714Y-58112914D02*
X121753333Y-58303390D01*
X121753333Y-58303390D02*
X121753333Y-58446247D01*
X121753333Y-58446247D02*
X121705714Y-58636723D01*
X121705714Y-58636723D02*
X121658095Y-58731961D01*
X121658095Y-58731961D02*
X121562857Y-58827200D01*
X121562857Y-58827200D02*
X121420000Y-58874819D01*
X121420000Y-58874819D02*
X121181905Y-58874819D01*
X122705714Y-58874819D02*
X122134286Y-58874819D01*
X122420000Y-58874819D02*
X122420000Y-57874819D01*
X122420000Y-57874819D02*
X122324762Y-58017676D01*
X122324762Y-58017676D02*
X122229524Y-58112914D01*
X122229524Y-58112914D02*
X122134286Y-58160533D01*
X69034819Y-43811666D02*
X69034819Y-44383094D01*
X69034819Y-44097380D02*
X68034819Y-44097380D01*
X68034819Y-44097380D02*
X68177676Y-44192618D01*
X68177676Y-44192618D02*
X68272914Y-44287856D01*
X68272914Y-44287856D02*
X68320533Y-44383094D01*
X68034819Y-42906904D02*
X68034819Y-43383094D01*
X68034819Y-43383094D02*
X68511009Y-43430713D01*
X68511009Y-43430713D02*
X68463390Y-43383094D01*
X68463390Y-43383094D02*
X68415771Y-43287856D01*
X68415771Y-43287856D02*
X68415771Y-43049761D01*
X68415771Y-43049761D02*
X68463390Y-42954523D01*
X68463390Y-42954523D02*
X68511009Y-42906904D01*
X68511009Y-42906904D02*
X68606247Y-42859285D01*
X68606247Y-42859285D02*
X68844342Y-42859285D01*
X68844342Y-42859285D02*
X68939580Y-42906904D01*
X68939580Y-42906904D02*
X68987200Y-42954523D01*
X68987200Y-42954523D02*
X69034819Y-43049761D01*
X69034819Y-43049761D02*
X69034819Y-43287856D01*
X69034819Y-43287856D02*
X68987200Y-43383094D01*
X68987200Y-43383094D02*
X68939580Y-43430713D01*
X69034819Y-41906904D02*
X69034819Y-42478332D01*
X69034819Y-42192618D02*
X68034819Y-42192618D01*
X68034819Y-42192618D02*
X68177676Y-42287856D01*
X68177676Y-42287856D02*
X68272914Y-42383094D01*
X68272914Y-42383094D02*
X68320533Y-42478332D01*
X138272200Y-45226904D02*
X138319819Y-45084047D01*
X138319819Y-45084047D02*
X138319819Y-44845952D01*
X138319819Y-44845952D02*
X138272200Y-44750714D01*
X138272200Y-44750714D02*
X138224580Y-44703095D01*
X138224580Y-44703095D02*
X138129342Y-44655476D01*
X138129342Y-44655476D02*
X138034104Y-44655476D01*
X138034104Y-44655476D02*
X137938866Y-44703095D01*
X137938866Y-44703095D02*
X137891247Y-44750714D01*
X137891247Y-44750714D02*
X137843628Y-44845952D01*
X137843628Y-44845952D02*
X137796009Y-45036428D01*
X137796009Y-45036428D02*
X137748390Y-45131666D01*
X137748390Y-45131666D02*
X137700771Y-45179285D01*
X137700771Y-45179285D02*
X137605533Y-45226904D01*
X137605533Y-45226904D02*
X137510295Y-45226904D01*
X137510295Y-45226904D02*
X137415057Y-45179285D01*
X137415057Y-45179285D02*
X137367438Y-45131666D01*
X137367438Y-45131666D02*
X137319819Y-45036428D01*
X137319819Y-45036428D02*
X137319819Y-44798333D01*
X137319819Y-44798333D02*
X137367438Y-44655476D01*
X138319819Y-43703095D02*
X138319819Y-44274523D01*
X138319819Y-43988809D02*
X137319819Y-43988809D01*
X137319819Y-43988809D02*
X137462676Y-44084047D01*
X137462676Y-44084047D02*
X137557914Y-44179285D01*
X137557914Y-44179285D02*
X137605533Y-44274523D01*
X137239524Y-23584819D02*
X137572857Y-24584819D01*
X137572857Y-24584819D02*
X137906190Y-23584819D01*
X138668095Y-24537200D02*
X138572857Y-24584819D01*
X138572857Y-24584819D02*
X138382381Y-24584819D01*
X138382381Y-24584819D02*
X138287143Y-24537200D01*
X138287143Y-24537200D02*
X138239524Y-24489580D01*
X138239524Y-24489580D02*
X138191905Y-24394342D01*
X138191905Y-24394342D02*
X138191905Y-24108628D01*
X138191905Y-24108628D02*
X138239524Y-24013390D01*
X138239524Y-24013390D02*
X138287143Y-23965771D01*
X138287143Y-23965771D02*
X138382381Y-23918152D01*
X138382381Y-23918152D02*
X138572857Y-23918152D01*
X138572857Y-23918152D02*
X138668095Y-23965771D01*
X139525238Y-24537200D02*
X139430000Y-24584819D01*
X139430000Y-24584819D02*
X139239524Y-24584819D01*
X139239524Y-24584819D02*
X139144286Y-24537200D01*
X139144286Y-24537200D02*
X139096667Y-24489580D01*
X139096667Y-24489580D02*
X139049048Y-24394342D01*
X139049048Y-24394342D02*
X139049048Y-24108628D01*
X139049048Y-24108628D02*
X139096667Y-24013390D01*
X139096667Y-24013390D02*
X139144286Y-23965771D01*
X139144286Y-23965771D02*
X139239524Y-23918152D01*
X139239524Y-23918152D02*
X139430000Y-23918152D01*
X139430000Y-23918152D02*
X139525238Y-23965771D01*
X138374524Y-34236009D02*
X138707857Y-34236009D01*
X138850714Y-34759819D02*
X138374524Y-34759819D01*
X138374524Y-34759819D02*
X138374524Y-33759819D01*
X138374524Y-33759819D02*
X138850714Y-33759819D01*
X139469762Y-33759819D02*
X139565000Y-33759819D01*
X139565000Y-33759819D02*
X139660238Y-33807438D01*
X139660238Y-33807438D02*
X139707857Y-33855057D01*
X139707857Y-33855057D02*
X139755476Y-33950295D01*
X139755476Y-33950295D02*
X139803095Y-34140771D01*
X139803095Y-34140771D02*
X139803095Y-34378866D01*
X139803095Y-34378866D02*
X139755476Y-34569342D01*
X139755476Y-34569342D02*
X139707857Y-34664580D01*
X139707857Y-34664580D02*
X139660238Y-34712200D01*
X139660238Y-34712200D02*
X139565000Y-34759819D01*
X139565000Y-34759819D02*
X139469762Y-34759819D01*
X139469762Y-34759819D02*
X139374524Y-34712200D01*
X139374524Y-34712200D02*
X139326905Y-34664580D01*
X139326905Y-34664580D02*
X139279286Y-34569342D01*
X139279286Y-34569342D02*
X139231667Y-34378866D01*
X139231667Y-34378866D02*
X139231667Y-34140771D01*
X139231667Y-34140771D02*
X139279286Y-33950295D01*
X139279286Y-33950295D02*
X139326905Y-33855057D01*
X139326905Y-33855057D02*
X139374524Y-33807438D01*
X139374524Y-33807438D02*
X139469762Y-33759819D01*
X138236429Y-33482200D02*
X139893572Y-33482200D01*
X32281905Y-58874819D02*
X32281905Y-57874819D01*
X32281905Y-57874819D02*
X32520000Y-57874819D01*
X32520000Y-57874819D02*
X32662857Y-57922438D01*
X32662857Y-57922438D02*
X32758095Y-58017676D01*
X32758095Y-58017676D02*
X32805714Y-58112914D01*
X32805714Y-58112914D02*
X32853333Y-58303390D01*
X32853333Y-58303390D02*
X32853333Y-58446247D01*
X32853333Y-58446247D02*
X32805714Y-58636723D01*
X32805714Y-58636723D02*
X32758095Y-58731961D01*
X32758095Y-58731961D02*
X32662857Y-58827200D01*
X32662857Y-58827200D02*
X32520000Y-58874819D01*
X32520000Y-58874819D02*
X32281905Y-58874819D01*
X33710476Y-57874819D02*
X33520000Y-57874819D01*
X33520000Y-57874819D02*
X33424762Y-57922438D01*
X33424762Y-57922438D02*
X33377143Y-57970057D01*
X33377143Y-57970057D02*
X33281905Y-58112914D01*
X33281905Y-58112914D02*
X33234286Y-58303390D01*
X33234286Y-58303390D02*
X33234286Y-58684342D01*
X33234286Y-58684342D02*
X33281905Y-58779580D01*
X33281905Y-58779580D02*
X33329524Y-58827200D01*
X33329524Y-58827200D02*
X33424762Y-58874819D01*
X33424762Y-58874819D02*
X33615238Y-58874819D01*
X33615238Y-58874819D02*
X33710476Y-58827200D01*
X33710476Y-58827200D02*
X33758095Y-58779580D01*
X33758095Y-58779580D02*
X33805714Y-58684342D01*
X33805714Y-58684342D02*
X33805714Y-58446247D01*
X33805714Y-58446247D02*
X33758095Y-58351009D01*
X33758095Y-58351009D02*
X33710476Y-58303390D01*
X33710476Y-58303390D02*
X33615238Y-58255771D01*
X33615238Y-58255771D02*
X33424762Y-58255771D01*
X33424762Y-58255771D02*
X33329524Y-58303390D01*
X33329524Y-58303390D02*
X33281905Y-58351009D01*
X33281905Y-58351009D02*
X33234286Y-58446247D01*
X138563571Y-51539819D02*
X138754047Y-51539819D01*
X138754047Y-51539819D02*
X138849285Y-51587438D01*
X138849285Y-51587438D02*
X138944523Y-51682676D01*
X138944523Y-51682676D02*
X138992142Y-51873152D01*
X138992142Y-51873152D02*
X138992142Y-52206485D01*
X138992142Y-52206485D02*
X138944523Y-52396961D01*
X138944523Y-52396961D02*
X138849285Y-52492200D01*
X138849285Y-52492200D02*
X138754047Y-52539819D01*
X138754047Y-52539819D02*
X138563571Y-52539819D01*
X138563571Y-52539819D02*
X138468333Y-52492200D01*
X138468333Y-52492200D02*
X138373095Y-52396961D01*
X138373095Y-52396961D02*
X138325476Y-52206485D01*
X138325476Y-52206485D02*
X138325476Y-51873152D01*
X138325476Y-51873152D02*
X138373095Y-51682676D01*
X138373095Y-51682676D02*
X138468333Y-51587438D01*
X138468333Y-51587438D02*
X138563571Y-51539819D01*
X139944523Y-52539819D02*
X139373095Y-52539819D01*
X139658809Y-52539819D02*
X139658809Y-51539819D01*
X139658809Y-51539819D02*
X139563571Y-51682676D01*
X139563571Y-51682676D02*
X139468333Y-51777914D01*
X139468333Y-51777914D02*
X139373095Y-51825533D01*
X50061905Y-58874819D02*
X50061905Y-57874819D01*
X50061905Y-57874819D02*
X50300000Y-57874819D01*
X50300000Y-57874819D02*
X50442857Y-57922438D01*
X50442857Y-57922438D02*
X50538095Y-58017676D01*
X50538095Y-58017676D02*
X50585714Y-58112914D01*
X50585714Y-58112914D02*
X50633333Y-58303390D01*
X50633333Y-58303390D02*
X50633333Y-58446247D01*
X50633333Y-58446247D02*
X50585714Y-58636723D01*
X50585714Y-58636723D02*
X50538095Y-58731961D01*
X50538095Y-58731961D02*
X50442857Y-58827200D01*
X50442857Y-58827200D02*
X50300000Y-58874819D01*
X50300000Y-58874819D02*
X50061905Y-58874819D01*
X51538095Y-57874819D02*
X51061905Y-57874819D01*
X51061905Y-57874819D02*
X51014286Y-58351009D01*
X51014286Y-58351009D02*
X51061905Y-58303390D01*
X51061905Y-58303390D02*
X51157143Y-58255771D01*
X51157143Y-58255771D02*
X51395238Y-58255771D01*
X51395238Y-58255771D02*
X51490476Y-58303390D01*
X51490476Y-58303390D02*
X51538095Y-58351009D01*
X51538095Y-58351009D02*
X51585714Y-58446247D01*
X51585714Y-58446247D02*
X51585714Y-58684342D01*
X51585714Y-58684342D02*
X51538095Y-58779580D01*
X51538095Y-58779580D02*
X51490476Y-58827200D01*
X51490476Y-58827200D02*
X51395238Y-58874819D01*
X51395238Y-58874819D02*
X51157143Y-58874819D01*
X51157143Y-58874819D02*
X51061905Y-58827200D01*
X51061905Y-58827200D02*
X51014286Y-58779580D01*
X19581905Y-58874819D02*
X19581905Y-57874819D01*
X19581905Y-57874819D02*
X19820000Y-57874819D01*
X19820000Y-57874819D02*
X19962857Y-57922438D01*
X19962857Y-57922438D02*
X20058095Y-58017676D01*
X20058095Y-58017676D02*
X20105714Y-58112914D01*
X20105714Y-58112914D02*
X20153333Y-58303390D01*
X20153333Y-58303390D02*
X20153333Y-58446247D01*
X20153333Y-58446247D02*
X20105714Y-58636723D01*
X20105714Y-58636723D02*
X20058095Y-58731961D01*
X20058095Y-58731961D02*
X19962857Y-58827200D01*
X19962857Y-58827200D02*
X19820000Y-58874819D01*
X19820000Y-58874819D02*
X19581905Y-58874819D01*
X20486667Y-57874819D02*
X21153333Y-57874819D01*
X21153333Y-57874819D02*
X20724762Y-58874819D01*
X67841905Y-58874819D02*
X67841905Y-57874819D01*
X67841905Y-57874819D02*
X68080000Y-57874819D01*
X68080000Y-57874819D02*
X68222857Y-57922438D01*
X68222857Y-57922438D02*
X68318095Y-58017676D01*
X68318095Y-58017676D02*
X68365714Y-58112914D01*
X68365714Y-58112914D02*
X68413333Y-58303390D01*
X68413333Y-58303390D02*
X68413333Y-58446247D01*
X68413333Y-58446247D02*
X68365714Y-58636723D01*
X68365714Y-58636723D02*
X68318095Y-58731961D01*
X68318095Y-58731961D02*
X68222857Y-58827200D01*
X68222857Y-58827200D02*
X68080000Y-58874819D01*
X68080000Y-58874819D02*
X67841905Y-58874819D01*
X69270476Y-58208152D02*
X69270476Y-58874819D01*
X69032381Y-57827200D02*
X68794286Y-58541485D01*
X68794286Y-58541485D02*
X69413333Y-58541485D01*
X139484286Y-46555057D02*
X139531905Y-46507438D01*
X139531905Y-46507438D02*
X139627143Y-46459819D01*
X139627143Y-46459819D02*
X139865238Y-46459819D01*
X139865238Y-46459819D02*
X139960476Y-46507438D01*
X139960476Y-46507438D02*
X140008095Y-46555057D01*
X140008095Y-46555057D02*
X140055714Y-46650295D01*
X140055714Y-46650295D02*
X140055714Y-46745533D01*
X140055714Y-46745533D02*
X140008095Y-46888390D01*
X140008095Y-46888390D02*
X139436667Y-47459819D01*
X139436667Y-47459819D02*
X140055714Y-47459819D01*
X140055714Y-44919819D02*
X139484286Y-44919819D01*
X139770000Y-44919819D02*
X139770000Y-43919819D01*
X139770000Y-43919819D02*
X139674762Y-44062676D01*
X139674762Y-44062676D02*
X139579524Y-44157914D01*
X139579524Y-44157914D02*
X139484286Y-44205533D01*
X138961905Y-58874819D02*
X138961905Y-57874819D01*
X138961905Y-57874819D02*
X139200000Y-57874819D01*
X139200000Y-57874819D02*
X139342857Y-57922438D01*
X139342857Y-57922438D02*
X139438095Y-58017676D01*
X139438095Y-58017676D02*
X139485714Y-58112914D01*
X139485714Y-58112914D02*
X139533333Y-58303390D01*
X139533333Y-58303390D02*
X139533333Y-58446247D01*
X139533333Y-58446247D02*
X139485714Y-58636723D01*
X139485714Y-58636723D02*
X139438095Y-58731961D01*
X139438095Y-58731961D02*
X139342857Y-58827200D01*
X139342857Y-58827200D02*
X139200000Y-58874819D01*
X139200000Y-58874819D02*
X138961905Y-58874819D01*
X140152381Y-57874819D02*
X140247619Y-57874819D01*
X140247619Y-57874819D02*
X140342857Y-57922438D01*
X140342857Y-57922438D02*
X140390476Y-57970057D01*
X140390476Y-57970057D02*
X140438095Y-58065295D01*
X140438095Y-58065295D02*
X140485714Y-58255771D01*
X140485714Y-58255771D02*
X140485714Y-58493866D01*
X140485714Y-58493866D02*
X140438095Y-58684342D01*
X140438095Y-58684342D02*
X140390476Y-58779580D01*
X140390476Y-58779580D02*
X140342857Y-58827200D01*
X140342857Y-58827200D02*
X140247619Y-58874819D01*
X140247619Y-58874819D02*
X140152381Y-58874819D01*
X140152381Y-58874819D02*
X140057143Y-58827200D01*
X140057143Y-58827200D02*
X140009524Y-58779580D01*
X140009524Y-58779580D02*
X139961905Y-58684342D01*
X139961905Y-58684342D02*
X139914286Y-58493866D01*
X139914286Y-58493866D02*
X139914286Y-58255771D01*
X139914286Y-58255771D02*
X139961905Y-58065295D01*
X139961905Y-58065295D02*
X140009524Y-57970057D01*
X140009524Y-57970057D02*
X140057143Y-57922438D01*
X140057143Y-57922438D02*
X140152381Y-57874819D01*
X139722381Y-41379819D02*
X139817619Y-41379819D01*
X139817619Y-41379819D02*
X139912857Y-41427438D01*
X139912857Y-41427438D02*
X139960476Y-41475057D01*
X139960476Y-41475057D02*
X140008095Y-41570295D01*
X140008095Y-41570295D02*
X140055714Y-41760771D01*
X140055714Y-41760771D02*
X140055714Y-41998866D01*
X140055714Y-41998866D02*
X140008095Y-42189342D01*
X140008095Y-42189342D02*
X139960476Y-42284580D01*
X139960476Y-42284580D02*
X139912857Y-42332200D01*
X139912857Y-42332200D02*
X139817619Y-42379819D01*
X139817619Y-42379819D02*
X139722381Y-42379819D01*
X139722381Y-42379819D02*
X139627143Y-42332200D01*
X139627143Y-42332200D02*
X139579524Y-42284580D01*
X139579524Y-42284580D02*
X139531905Y-42189342D01*
X139531905Y-42189342D02*
X139484286Y-41998866D01*
X139484286Y-41998866D02*
X139484286Y-41760771D01*
X139484286Y-41760771D02*
X139531905Y-41570295D01*
X139531905Y-41570295D02*
X139579524Y-41475057D01*
X139579524Y-41475057D02*
X139627143Y-41427438D01*
X139627143Y-41427438D02*
X139722381Y-41379819D01*
X85621905Y-58874819D02*
X85621905Y-57874819D01*
X85621905Y-57874819D02*
X85860000Y-57874819D01*
X85860000Y-57874819D02*
X86002857Y-57922438D01*
X86002857Y-57922438D02*
X86098095Y-58017676D01*
X86098095Y-58017676D02*
X86145714Y-58112914D01*
X86145714Y-58112914D02*
X86193333Y-58303390D01*
X86193333Y-58303390D02*
X86193333Y-58446247D01*
X86193333Y-58446247D02*
X86145714Y-58636723D01*
X86145714Y-58636723D02*
X86098095Y-58731961D01*
X86098095Y-58731961D02*
X86002857Y-58827200D01*
X86002857Y-58827200D02*
X85860000Y-58874819D01*
X85860000Y-58874819D02*
X85621905Y-58874819D01*
X86526667Y-57874819D02*
X87145714Y-57874819D01*
X87145714Y-57874819D02*
X86812381Y-58255771D01*
X86812381Y-58255771D02*
X86955238Y-58255771D01*
X86955238Y-58255771D02*
X87050476Y-58303390D01*
X87050476Y-58303390D02*
X87098095Y-58351009D01*
X87098095Y-58351009D02*
X87145714Y-58446247D01*
X87145714Y-58446247D02*
X87145714Y-58684342D01*
X87145714Y-58684342D02*
X87098095Y-58779580D01*
X87098095Y-58779580D02*
X87050476Y-58827200D01*
X87050476Y-58827200D02*
X86955238Y-58874819D01*
X86955238Y-58874819D02*
X86669524Y-58874819D01*
X86669524Y-58874819D02*
X86574286Y-58827200D01*
X86574286Y-58827200D02*
X86526667Y-58779580D01*
X64494580Y-40489166D02*
X64542200Y-40536785D01*
X64542200Y-40536785D02*
X64589819Y-40679642D01*
X64589819Y-40679642D02*
X64589819Y-40774880D01*
X64589819Y-40774880D02*
X64542200Y-40917737D01*
X64542200Y-40917737D02*
X64446961Y-41012975D01*
X64446961Y-41012975D02*
X64351723Y-41060594D01*
X64351723Y-41060594D02*
X64161247Y-41108213D01*
X64161247Y-41108213D02*
X64018390Y-41108213D01*
X64018390Y-41108213D02*
X63827914Y-41060594D01*
X63827914Y-41060594D02*
X63732676Y-41012975D01*
X63732676Y-41012975D02*
X63637438Y-40917737D01*
X63637438Y-40917737D02*
X63589819Y-40774880D01*
X63589819Y-40774880D02*
X63589819Y-40679642D01*
X63589819Y-40679642D02*
X63637438Y-40536785D01*
X63637438Y-40536785D02*
X63685057Y-40489166D01*
X64589819Y-39536785D02*
X64589819Y-40108213D01*
X64589819Y-39822499D02*
X63589819Y-39822499D01*
X63589819Y-39822499D02*
X63732676Y-39917737D01*
X63732676Y-39917737D02*
X63827914Y-40012975D01*
X63827914Y-40012975D02*
X63875533Y-40108213D01*
X117199580Y-42711666D02*
X117247200Y-42759285D01*
X117247200Y-42759285D02*
X117294819Y-42902142D01*
X117294819Y-42902142D02*
X117294819Y-42997380D01*
X117294819Y-42997380D02*
X117247200Y-43140237D01*
X117247200Y-43140237D02*
X117151961Y-43235475D01*
X117151961Y-43235475D02*
X117056723Y-43283094D01*
X117056723Y-43283094D02*
X116866247Y-43330713D01*
X116866247Y-43330713D02*
X116723390Y-43330713D01*
X116723390Y-43330713D02*
X116532914Y-43283094D01*
X116532914Y-43283094D02*
X116437676Y-43235475D01*
X116437676Y-43235475D02*
X116342438Y-43140237D01*
X116342438Y-43140237D02*
X116294819Y-42997380D01*
X116294819Y-42997380D02*
X116294819Y-42902142D01*
X116294819Y-42902142D02*
X116342438Y-42759285D01*
X116342438Y-42759285D02*
X116390057Y-42711666D01*
X116390057Y-42330713D02*
X116342438Y-42283094D01*
X116342438Y-42283094D02*
X116294819Y-42187856D01*
X116294819Y-42187856D02*
X116294819Y-41949761D01*
X116294819Y-41949761D02*
X116342438Y-41854523D01*
X116342438Y-41854523D02*
X116390057Y-41806904D01*
X116390057Y-41806904D02*
X116485295Y-41759285D01*
X116485295Y-41759285D02*
X116580533Y-41759285D01*
X116580533Y-41759285D02*
X116723390Y-41806904D01*
X116723390Y-41806904D02*
X117294819Y-42378332D01*
X117294819Y-42378332D02*
X117294819Y-41759285D01*
X64674819Y-46446904D02*
X65484342Y-46446904D01*
X65484342Y-46446904D02*
X65579580Y-46399285D01*
X65579580Y-46399285D02*
X65627200Y-46351666D01*
X65627200Y-46351666D02*
X65674819Y-46256428D01*
X65674819Y-46256428D02*
X65674819Y-46065952D01*
X65674819Y-46065952D02*
X65627200Y-45970714D01*
X65627200Y-45970714D02*
X65579580Y-45923095D01*
X65579580Y-45923095D02*
X65484342Y-45875476D01*
X65484342Y-45875476D02*
X64674819Y-45875476D01*
X65674819Y-44875476D02*
X65674819Y-45446904D01*
X65674819Y-45161190D02*
X64674819Y-45161190D01*
X64674819Y-45161190D02*
X64817676Y-45256428D01*
X64817676Y-45256428D02*
X64912914Y-45351666D01*
X64912914Y-45351666D02*
X64960533Y-45446904D01*
X100869819Y-47751904D02*
X101679342Y-47751904D01*
X101679342Y-47751904D02*
X101774580Y-47704285D01*
X101774580Y-47704285D02*
X101822200Y-47656666D01*
X101822200Y-47656666D02*
X101869819Y-47561428D01*
X101869819Y-47561428D02*
X101869819Y-47370952D01*
X101869819Y-47370952D02*
X101822200Y-47275714D01*
X101822200Y-47275714D02*
X101774580Y-47228095D01*
X101774580Y-47228095D02*
X101679342Y-47180476D01*
X101679342Y-47180476D02*
X100869819Y-47180476D01*
X100965057Y-46751904D02*
X100917438Y-46704285D01*
X100917438Y-46704285D02*
X100869819Y-46609047D01*
X100869819Y-46609047D02*
X100869819Y-46370952D01*
X100869819Y-46370952D02*
X100917438Y-46275714D01*
X100917438Y-46275714D02*
X100965057Y-46228095D01*
X100965057Y-46228095D02*
X101060295Y-46180476D01*
X101060295Y-46180476D02*
X101155533Y-46180476D01*
X101155533Y-46180476D02*
X101298390Y-46228095D01*
X101298390Y-46228095D02*
X101869819Y-46799523D01*
X101869819Y-46799523D02*
X101869819Y-46180476D01*
X78559819Y-43981666D02*
X78083628Y-44314999D01*
X78559819Y-44553094D02*
X77559819Y-44553094D01*
X77559819Y-44553094D02*
X77559819Y-44172142D01*
X77559819Y-44172142D02*
X77607438Y-44076904D01*
X77607438Y-44076904D02*
X77655057Y-44029285D01*
X77655057Y-44029285D02*
X77750295Y-43981666D01*
X77750295Y-43981666D02*
X77893152Y-43981666D01*
X77893152Y-43981666D02*
X77988390Y-44029285D01*
X77988390Y-44029285D02*
X78036009Y-44076904D01*
X78036009Y-44076904D02*
X78083628Y-44172142D01*
X78083628Y-44172142D02*
X78083628Y-44553094D01*
X78559819Y-43029285D02*
X78559819Y-43600713D01*
X78559819Y-43314999D02*
X77559819Y-43314999D01*
X77559819Y-43314999D02*
X77702676Y-43410237D01*
X77702676Y-43410237D02*
X77797914Y-43505475D01*
X77797914Y-43505475D02*
X77845533Y-43600713D01*
X114754819Y-42711666D02*
X114278628Y-43044999D01*
X114754819Y-43283094D02*
X113754819Y-43283094D01*
X113754819Y-43283094D02*
X113754819Y-42902142D01*
X113754819Y-42902142D02*
X113802438Y-42806904D01*
X113802438Y-42806904D02*
X113850057Y-42759285D01*
X113850057Y-42759285D02*
X113945295Y-42711666D01*
X113945295Y-42711666D02*
X114088152Y-42711666D01*
X114088152Y-42711666D02*
X114183390Y-42759285D01*
X114183390Y-42759285D02*
X114231009Y-42806904D01*
X114231009Y-42806904D02*
X114278628Y-42902142D01*
X114278628Y-42902142D02*
X114278628Y-43283094D01*
X113850057Y-42330713D02*
X113802438Y-42283094D01*
X113802438Y-42283094D02*
X113754819Y-42187856D01*
X113754819Y-42187856D02*
X113754819Y-41949761D01*
X113754819Y-41949761D02*
X113802438Y-41854523D01*
X113802438Y-41854523D02*
X113850057Y-41806904D01*
X113850057Y-41806904D02*
X113945295Y-41759285D01*
X113945295Y-41759285D02*
X114040533Y-41759285D01*
X114040533Y-41759285D02*
X114183390Y-41806904D01*
X114183390Y-41806904D02*
X114754819Y-42378332D01*
X114754819Y-42378332D02*
X114754819Y-41759285D01*
D13*
%TO.C,C1*%
X63400000Y-43003748D02*
X63400000Y-43526252D01*
X64870000Y-43003748D02*
X64870000Y-43526252D01*
%TO.C,C2*%
X116105000Y-45691248D02*
X116105000Y-46213752D01*
X117575000Y-45691248D02*
X117575000Y-46213752D01*
%TO.C,J1*%
X140860000Y-59880000D02*
X140860000Y-62640000D01*
X140860000Y-62640000D02*
X143620000Y-62640000D01*
X141810000Y-59650000D02*
X141810000Y-59880000D01*
X142240000Y-57220000D02*
X143510000Y-57220000D01*
X142670000Y-59650000D02*
X142670000Y-59880000D01*
X143510000Y-57220000D02*
X143510000Y-58490000D01*
X143620000Y-59880000D02*
X140860000Y-59880000D01*
X143620000Y-62640000D02*
X143620000Y-59880000D01*
X142670000Y-62640000D02*
X141810000Y-62640000D01*
X141810000Y-68640000D01*
X142670000Y-68640000D01*
X142670000Y-62640000D01*
G36*
X142670000Y-62640000D02*
G01*
X141810000Y-62640000D01*
X141810000Y-68640000D01*
X142670000Y-68640000D01*
X142670000Y-62640000D01*
G37*
%TO.C,J2*%
X123080000Y-59880000D02*
X123080000Y-62640000D01*
X123080000Y-62640000D02*
X125840000Y-62640000D01*
X124030000Y-59650000D02*
X124030000Y-59880000D01*
X124460000Y-57220000D02*
X125730000Y-57220000D01*
X124890000Y-59650000D02*
X124890000Y-59880000D01*
X125730000Y-57220000D02*
X125730000Y-58490000D01*
X125840000Y-59880000D02*
X123080000Y-59880000D01*
X125840000Y-62640000D02*
X125840000Y-59880000D01*
X124890000Y-62640000D02*
X124030000Y-62640000D01*
X124030000Y-68640000D01*
X124890000Y-68640000D01*
X124890000Y-62640000D01*
G36*
X124890000Y-62640000D02*
G01*
X124030000Y-62640000D01*
X124030000Y-68640000D01*
X124890000Y-68640000D01*
X124890000Y-62640000D01*
G37*
%TO.C,J3*%
X105300000Y-59880000D02*
X105300000Y-62640000D01*
X105300000Y-62640000D02*
X108060000Y-62640000D01*
X106250000Y-59650000D02*
X106250000Y-59880000D01*
X106680000Y-57220000D02*
X107950000Y-57220000D01*
X107110000Y-59650000D02*
X107110000Y-59880000D01*
X107950000Y-57220000D02*
X107950000Y-58490000D01*
X108060000Y-59880000D02*
X105300000Y-59880000D01*
X108060000Y-62640000D02*
X108060000Y-59880000D01*
X107110000Y-62640000D02*
X106250000Y-62640000D01*
X106250000Y-68640000D01*
X107110000Y-68640000D01*
X107110000Y-62640000D01*
G36*
X107110000Y-62640000D02*
G01*
X106250000Y-62640000D01*
X106250000Y-68640000D01*
X107110000Y-68640000D01*
X107110000Y-62640000D01*
G37*
%TO.C,J4*%
X87520000Y-59880000D02*
X87520000Y-62640000D01*
X87520000Y-62640000D02*
X90280000Y-62640000D01*
X88470000Y-59650000D02*
X88470000Y-59880000D01*
X88900000Y-57220000D02*
X90170000Y-57220000D01*
X89330000Y-59650000D02*
X89330000Y-59880000D01*
X90170000Y-57220000D02*
X90170000Y-58490000D01*
X90280000Y-59880000D02*
X87520000Y-59880000D01*
X90280000Y-62640000D02*
X90280000Y-59880000D01*
X89330000Y-62640000D02*
X88470000Y-62640000D01*
X88470000Y-68640000D01*
X89330000Y-68640000D01*
X89330000Y-62640000D01*
G36*
X89330000Y-62640000D02*
G01*
X88470000Y-62640000D01*
X88470000Y-68640000D01*
X89330000Y-68640000D01*
X89330000Y-62640000D01*
G37*
%TO.C,J5*%
X69740000Y-59880000D02*
X69740000Y-62640000D01*
X69740000Y-62640000D02*
X72500000Y-62640000D01*
X70690000Y-59650000D02*
X70690000Y-59880000D01*
X71120000Y-57220000D02*
X72390000Y-57220000D01*
X71550000Y-59650000D02*
X71550000Y-59880000D01*
X72390000Y-57220000D02*
X72390000Y-58490000D01*
X72500000Y-59880000D02*
X69740000Y-59880000D01*
X72500000Y-62640000D02*
X72500000Y-59880000D01*
X71550000Y-62640000D02*
X70690000Y-62640000D01*
X70690000Y-68640000D01*
X71550000Y-68640000D01*
X71550000Y-62640000D01*
G36*
X71550000Y-62640000D02*
G01*
X70690000Y-62640000D01*
X70690000Y-68640000D01*
X71550000Y-68640000D01*
X71550000Y-62640000D01*
G37*
%TO.C,J6*%
X51960000Y-59880000D02*
X51960000Y-62640000D01*
X51960000Y-62640000D02*
X54720000Y-62640000D01*
X52910000Y-59650000D02*
X52910000Y-59880000D01*
X53340000Y-57220000D02*
X54610000Y-57220000D01*
X53770000Y-59650000D02*
X53770000Y-59880000D01*
X54610000Y-57220000D02*
X54610000Y-58490000D01*
X54720000Y-59880000D02*
X51960000Y-59880000D01*
X54720000Y-62640000D02*
X54720000Y-59880000D01*
X53770000Y-62640000D02*
X52910000Y-62640000D01*
X52910000Y-68640000D01*
X53770000Y-68640000D01*
X53770000Y-62640000D01*
G36*
X53770000Y-62640000D02*
G01*
X52910000Y-62640000D01*
X52910000Y-68640000D01*
X53770000Y-68640000D01*
X53770000Y-62640000D01*
G37*
%TO.C,J7*%
X34180000Y-59880000D02*
X34180000Y-62640000D01*
X34180000Y-62640000D02*
X36940000Y-62640000D01*
X35130000Y-59650000D02*
X35130000Y-59880000D01*
X35560000Y-57220000D02*
X36830000Y-57220000D01*
X35990000Y-59650000D02*
X35990000Y-59880000D01*
X36830000Y-57220000D02*
X36830000Y-58490000D01*
X36940000Y-59880000D02*
X34180000Y-59880000D01*
X36940000Y-62640000D02*
X36940000Y-59880000D01*
X35990000Y-62640000D02*
X35130000Y-62640000D01*
X35130000Y-68640000D01*
X35990000Y-68640000D01*
X35990000Y-62640000D01*
G36*
X35990000Y-62640000D02*
G01*
X35130000Y-62640000D01*
X35130000Y-68640000D01*
X35990000Y-68640000D01*
X35990000Y-62640000D01*
G37*
%TO.C,J8*%
X16400000Y-59810000D02*
X16400000Y-62570000D01*
X16400000Y-62570000D02*
X19160000Y-62570000D01*
X17350000Y-59580000D02*
X17350000Y-59810000D01*
X17780000Y-57150000D02*
X19050000Y-57150000D01*
X18210000Y-59580000D02*
X18210000Y-59810000D01*
X19050000Y-57150000D02*
X19050000Y-58420000D01*
X19160000Y-59810000D02*
X16400000Y-59810000D01*
X19160000Y-62570000D02*
X19160000Y-59810000D01*
X18210000Y-62570000D02*
X17350000Y-62570000D01*
X17350000Y-68570000D01*
X18210000Y-68570000D01*
X18210000Y-62570000D01*
G36*
X18210000Y-62570000D02*
G01*
X17350000Y-62570000D01*
X17350000Y-68570000D01*
X18210000Y-68570000D01*
X18210000Y-62570000D01*
G37*
%TO.C,J9*%
X140970000Y-25400000D02*
X142240000Y-25400000D01*
X140970000Y-26670000D02*
X140970000Y-25400000D01*
X143317358Y-28780000D02*
X143630000Y-28780000D01*
X143317358Y-29640000D02*
X143630000Y-29640000D01*
X143317358Y-31320000D02*
X143630000Y-31320000D01*
X143317358Y-32180000D02*
X143630000Y-32180000D01*
X143400000Y-26240000D02*
X143630000Y-26240000D01*
X143400000Y-27100000D02*
X143630000Y-27100000D01*
X143630000Y-25290000D02*
X143630000Y-33130000D01*
X143630000Y-27940000D02*
X146390000Y-27940000D01*
X143630000Y-30480000D02*
X146390000Y-30480000D01*
X143630000Y-33130000D02*
X146390000Y-33130000D01*
X146390000Y-25290000D02*
X143630000Y-25290000D01*
X146390000Y-28780000D02*
X152390000Y-28780000D01*
X146390000Y-31320000D02*
X152390000Y-31320000D01*
X146390000Y-33130000D02*
X146390000Y-25290000D01*
X152390000Y-28780000D02*
X152390000Y-29640000D01*
X152390000Y-29640000D02*
X146390000Y-29640000D01*
X152390000Y-31320000D02*
X152390000Y-32180000D01*
X152390000Y-32180000D02*
X146390000Y-32180000D01*
X146390000Y-26240000D02*
X152390000Y-26240000D01*
X152390000Y-27100000D01*
X146390000Y-27100000D01*
X146390000Y-26240000D01*
G36*
X146390000Y-26240000D02*
G01*
X152390000Y-26240000D01*
X152390000Y-27100000D01*
X146390000Y-27100000D01*
X146390000Y-26240000D01*
G37*
%TO.C,J10*%
X140970000Y-33020000D02*
X142240000Y-33020000D01*
X140970000Y-34290000D02*
X140970000Y-33020000D01*
X143400000Y-33860000D02*
X143630000Y-33860000D01*
X143400000Y-34720000D02*
X143630000Y-34720000D01*
X143630000Y-32910000D02*
X143630000Y-35670000D01*
X143630000Y-35670000D02*
X146390000Y-35670000D01*
X146390000Y-32910000D02*
X143630000Y-32910000D01*
X146390000Y-35670000D02*
X146390000Y-32910000D01*
X146390000Y-33860000D02*
X152390000Y-33860000D01*
X152390000Y-34720000D01*
X146390000Y-34720000D01*
X146390000Y-33860000D01*
G36*
X146390000Y-33860000D02*
G01*
X152390000Y-33860000D01*
X152390000Y-34720000D01*
X146390000Y-34720000D01*
X146390000Y-33860000D01*
G37*
%TO.C,J11*%
X140970000Y-35560000D02*
X142240000Y-35560000D01*
X140970000Y-36830000D02*
X140970000Y-35560000D01*
X143400000Y-36400000D02*
X143630000Y-36400000D01*
X143400000Y-37260000D02*
X143630000Y-37260000D01*
X143630000Y-35450000D02*
X143630000Y-38210000D01*
X143630000Y-38210000D02*
X146390000Y-38210000D01*
X146390000Y-35450000D02*
X143630000Y-35450000D01*
X146390000Y-38210000D02*
X146390000Y-35450000D01*
X146390000Y-36400000D02*
X152390000Y-36400000D01*
X152390000Y-37260000D01*
X146390000Y-37260000D01*
X146390000Y-36400000D01*
G36*
X146390000Y-36400000D02*
G01*
X152390000Y-36400000D01*
X152390000Y-37260000D01*
X146390000Y-37260000D01*
X146390000Y-36400000D01*
G37*
%TO.C,J12*%
X140970000Y-40640000D02*
X142240000Y-40640000D01*
X140970000Y-41910000D02*
X140970000Y-40640000D01*
X143317358Y-44020000D02*
X143630000Y-44020000D01*
X143317358Y-44880000D02*
X143630000Y-44880000D01*
X143317358Y-46560000D02*
X143630000Y-46560000D01*
X143317358Y-47420000D02*
X143630000Y-47420000D01*
X143400000Y-41480000D02*
X143630000Y-41480000D01*
X143400000Y-42340000D02*
X143630000Y-42340000D01*
X143630000Y-40530000D02*
X143630000Y-48370000D01*
X143630000Y-43180000D02*
X146390000Y-43180000D01*
X143630000Y-45720000D02*
X146390000Y-45720000D01*
X143630000Y-48370000D02*
X146390000Y-48370000D01*
X146390000Y-40530000D02*
X143630000Y-40530000D01*
X146390000Y-44020000D02*
X152390000Y-44020000D01*
X146390000Y-46560000D02*
X152390000Y-46560000D01*
X146390000Y-48370000D02*
X146390000Y-40530000D01*
X152390000Y-44020000D02*
X152390000Y-44880000D01*
X152390000Y-44880000D02*
X146390000Y-44880000D01*
X152390000Y-46560000D02*
X152390000Y-47420000D01*
X152390000Y-47420000D02*
X146390000Y-47420000D01*
X146390000Y-41480000D02*
X152390000Y-41480000D01*
X152390000Y-42340000D01*
X146390000Y-42340000D01*
X146390000Y-41480000D01*
G36*
X146390000Y-41480000D02*
G01*
X152390000Y-41480000D01*
X152390000Y-42340000D01*
X146390000Y-42340000D01*
X146390000Y-41480000D01*
G37*
%TO.C,J13*%
X140970000Y-48260000D02*
X142240000Y-48260000D01*
X140970000Y-49530000D02*
X140970000Y-48260000D01*
X143400000Y-49100000D02*
X143630000Y-49100000D01*
X143400000Y-49960000D02*
X143630000Y-49960000D01*
X143630000Y-48150000D02*
X143630000Y-50910000D01*
X143630000Y-50910000D02*
X146390000Y-50910000D01*
X146390000Y-48150000D02*
X143630000Y-48150000D01*
X146390000Y-50910000D02*
X146390000Y-48150000D01*
X146390000Y-49100000D02*
X152390000Y-49100000D01*
X152390000Y-49960000D01*
X146390000Y-49960000D01*
X146390000Y-49100000D01*
G36*
X146390000Y-49100000D02*
G01*
X152390000Y-49100000D01*
X152390000Y-49960000D01*
X146390000Y-49960000D01*
X146390000Y-49100000D01*
G37*
%TO.C,J14*%
X140970000Y-50800000D02*
X142240000Y-50800000D01*
X140970000Y-52070000D02*
X140970000Y-50800000D01*
X143400000Y-51640000D02*
X143630000Y-51640000D01*
X143400000Y-52500000D02*
X143630000Y-52500000D01*
X143630000Y-50690000D02*
X143630000Y-53450000D01*
X143630000Y-53450000D02*
X146390000Y-53450000D01*
X146390000Y-50690000D02*
X143630000Y-50690000D01*
X146390000Y-53450000D02*
X146390000Y-50690000D01*
X146390000Y-51640000D02*
X152390000Y-51640000D01*
X152390000Y-52500000D01*
X146390000Y-52500000D01*
X146390000Y-51640000D01*
G36*
X146390000Y-51640000D02*
G01*
X152390000Y-51640000D01*
X152390000Y-52500000D01*
X146390000Y-52500000D01*
X146390000Y-51640000D01*
G37*
%TO.C,U1*%
X66060000Y-43145000D02*
X66060000Y-41195000D01*
X66060000Y-43145000D02*
X66060000Y-46595000D01*
X76180000Y-43145000D02*
X76180000Y-41195000D01*
X76180000Y-43145000D02*
X76180000Y-45095000D01*
%TO.C,U2*%
X102255000Y-44450000D02*
X102255000Y-42500000D01*
X102255000Y-44450000D02*
X102255000Y-47900000D01*
X112375000Y-44450000D02*
X112375000Y-42500000D01*
X112375000Y-44450000D02*
X112375000Y-46400000D01*
%TO.C,J15*%
X140970000Y-22860000D02*
X142240000Y-22860000D01*
X140970000Y-24130000D02*
X140970000Y-22860000D01*
X143400000Y-23700000D02*
X143630000Y-23700000D01*
X143400000Y-24560000D02*
X143630000Y-24560000D01*
X143630000Y-22750000D02*
X143630000Y-25510000D01*
X143630000Y-25510000D02*
X146390000Y-25510000D01*
X146390000Y-22750000D02*
X143630000Y-22750000D01*
X146390000Y-25510000D02*
X146390000Y-22750000D01*
X146390000Y-23700000D02*
X152390000Y-23700000D01*
X152390000Y-24560000D01*
X146390000Y-24560000D01*
X146390000Y-23700000D01*
G36*
X146390000Y-23700000D02*
G01*
X152390000Y-23700000D01*
X152390000Y-24560000D01*
X146390000Y-24560000D01*
X146390000Y-23700000D01*
G37*
%TO.C,J16*%
X140970000Y-53340000D02*
X142240000Y-53340000D01*
X140970000Y-54610000D02*
X140970000Y-53340000D01*
X143400000Y-54180000D02*
X143630000Y-54180000D01*
X143400000Y-55040000D02*
X143630000Y-55040000D01*
X143630000Y-53230000D02*
X143630000Y-55990000D01*
X143630000Y-55990000D02*
X146390000Y-55990000D01*
X146390000Y-53230000D02*
X143630000Y-53230000D01*
X146390000Y-55990000D02*
X146390000Y-53230000D01*
X146390000Y-54180000D02*
X152390000Y-54180000D01*
X152390000Y-55040000D01*
X146390000Y-55040000D01*
X146390000Y-54180000D01*
G36*
X146390000Y-54180000D02*
G01*
X152390000Y-54180000D01*
X152390000Y-55040000D01*
X146390000Y-55040000D01*
X146390000Y-54180000D01*
G37*
%TO.C,R1*%
X77370000Y-47182064D02*
X77370000Y-46727936D01*
X78840000Y-47182064D02*
X78840000Y-46727936D01*
%TO.C,R2*%
X113565000Y-45762936D02*
X113565000Y-46217064D01*
X115035000Y-45762936D02*
X115035000Y-46217064D01*
%TD*%
M02*
